solid Cuerno_23_A 
facet normal  0.115516 -0.331901 0.936215 
outer loop 
vertex  1.363636 -3.181818 0.217227 
vertex  1.363636 -3.636364 0.056085 
vertex  1.818182 -3.636364 0.000000 
endloop 
endfacet 
facet normal  0.115516 0.331901 0.936215 
outer loop 
vertex  1.818182 3.636364 0.000000 
vertex  1.363636 3.636364 0.056085 
vertex  1.363636 3.181818 0.217227 
endloop 
endfacet 
facet normal  -0.417853 -0.163634 0.893657 
outer loop 
vertex  -2.727273 -1.363636 0.558719 
vertex  -2.727273 -0.909091 0.641950 
vertex  -3.181818 -0.909091 0.429415 
endloop 
endfacet 
facet normal  -0.417853 0.163634 0.893657 
outer loop 
vertex  -3.181818 0.909091 0.429415 
vertex  -2.727273 0.909091 0.641950 
vertex  -2.727273 1.363636 0.558719 
endloop 
endfacet 
facet normal  -0.343049 -0.181276 0.921659 
outer loop 
vertex  -4.090909 -0.909091 0.000000 
vertex  -3.636364 -1.363636 0.079783 
vertex  -3.636364 -0.909091 0.169186 
endloop 
endfacet 
facet normal  -0.343049 0.181276 0.921659 
outer loop 
vertex  -3.636364 0.909091 0.169186 
vertex  -3.636364 1.363636 0.079783 
vertex  -4.090909 0.909091 0.000000 
endloop 
endfacet 
facet normal  -0.331330 -0.032027 0.942971 
outer loop 
vertex  -2.727273 0.000000 0.707874 
vertex  -2.272727 -0.454545 0.852149 
vertex  -2.272727 0.000000 0.867587 
endloop 
endfacet 
facet normal  -0.331330 0.032027 0.942971 
outer loop 
vertex  -2.272727 -0.000000 0.867587 
vertex  -2.272727 0.454545 0.852149 
vertex  -2.727273 -0.000000 0.707874 
endloop 
endfacet 
facet normal  -0.010353 -0.118280 0.992926 
outer loop 
vertex  -1.363636 -0.909091 0.978703 
vertex  -0.909091 -1.363636 0.929296 
vertex  -0.909091 -0.909091 0.983443 
endloop 
endfacet 
facet normal  -0.010353 0.118280 0.992926 
outer loop 
vertex  -0.909091 0.909091 0.983443 
vertex  -0.909091 1.363636 0.929296 
vertex  -1.363636 0.909091 0.978703 
endloop 
endfacet 
facet normal  -0.439798 0.000000 0.898096 
outer loop 
vertex  -4.090909 0.000000 0.000000 
vertex  -4.090909 -0.454545 0.000000 
vertex  -3.636364 -0.454545 0.222591 
endloop 
endfacet 
facet normal  -0.439798 -0.000000 0.898096 
outer loop 
vertex  -3.636364 0.454545 0.222591 
vertex  -4.090909 0.454545 0.000000 
vertex  -4.090909 -0.000000 0.000000 
endloop 
endfacet 
facet normal  -0.494280 -0.101439 0.863364 
outer loop 
vertex  -3.636364 -0.454545 0.222591 
vertex  -3.636364 -0.909091 0.169186 
vertex  -3.181818 -0.909091 0.429415 
endloop 
endfacet 
facet normal  -0.494280 0.101439 0.863364 
outer loop 
vertex  -3.181818 0.909091 0.429415 
vertex  -3.636364 0.909091 0.169186 
vertex  -3.636364 0.454545 0.222591 
endloop 
endfacet 
facet normal  0.557725 0.102599 0.823660 
outer loop 
vertex  0.454545 -0.454545 0.602259 
vertex  0.909091 -0.909091 0.351093 
vertex  0.909091 -0.454545 0.294472 
endloop 
endfacet 
facet normal  0.557725 -0.102599 0.823660 
outer loop 
vertex  0.909091 0.454545 0.294472 
vertex  0.909091 0.909091 0.351093 
vertex  0.454545 0.454545 0.602259 
endloop 
endfacet 
facet normal  -0.130800 -0.093009 0.987036 
outer loop 
vertex  -1.363636 -0.909091 0.978703 
vertex  -1.818182 -0.454545 0.961300 
vertex  -1.818182 -0.909091 0.918468 
endloop 
endfacet 
facet normal  -0.130800 0.093009 0.987036 
outer loop 
vertex  -1.818182 0.909091 0.918468 
vertex  -1.818182 0.454545 0.961300 
vertex  -1.363636 0.909091 0.978703 
endloop 
endfacet 
facet normal  -0.164684 -0.221706 0.961106 
outer loop 
vertex  -1.363636 -1.818182 0.818636 
vertex  -1.818182 -1.363636 0.845604 
vertex  -1.818182 -1.818182 0.740750 
endloop 
endfacet 
facet normal  -0.164684 0.221706 0.961106 
outer loop 
vertex  -1.818182 1.818182 0.740750 
vertex  -1.818182 1.363636 0.845604 
vertex  -1.363636 1.818182 0.818636 
endloop 
endfacet 
facet normal  -0.416015 -0.300347 0.858326 
outer loop 
vertex  -3.181818 -2.272727 0.061254 
vertex  -3.181818 -1.818182 0.220310 
vertex  -3.636364 -1.818182 0.000000 
endloop 
endfacet 
facet normal  -0.416015 0.300347 0.858326 
outer loop 
vertex  -3.636364 1.818182 0.000000 
vertex  -3.181818 1.818182 0.220310 
vertex  -3.181818 2.272727 0.061254 
endloop 
endfacet 
facet normal  0.284670 0.055412 0.957023 
outer loop 
vertex  1.818182 -1.363636 0.000000 
vertex  1.363636 -1.363636 0.135206 
vertex  1.818182 -1.818182 0.026318 
endloop 
endfacet 
facet normal  0.284670 -0.055412 0.957023 
outer loop 
vertex  1.818182 1.818182 0.026318 
vertex  1.363636 1.363636 0.135206 
vertex  1.818182 1.363636 0.000000 
endloop 
endfacet 
facet normal  -0.273744 -0.410644 0.869733 
outer loop 
vertex  -1.818182 -3.181818 0.211202 
vertex  -1.818182 -2.727273 0.425815 
vertex  -2.272727 -2.727273 0.282749 
endloop 
endfacet 
facet normal  -0.273744 0.410644 0.869733 
outer loop 
vertex  -2.272727 2.727273 0.282749 
vertex  -1.818182 2.727273 0.425815 
vertex  -1.818182 3.181818 0.211202 
endloop 
endfacet 
facet normal  0.006571 -0.244386 0.969656 
outer loop 
vertex  -0.454545 -2.272727 0.729623 
vertex  -0.909091 -1.818182 0.847264 
vertex  -0.909091 -2.272727 0.732703 
endloop 
endfacet 
facet normal  0.006571 0.244386 0.969656 
outer loop 
vertex  -0.909091 2.272727 0.732703 
vertex  -0.909091 1.818182 0.847264 
vertex  -0.454545 2.272727 0.729623 
endloop 
endfacet 
facet normal  -0.417438 -0.291432 0.860705 
outer loop 
vertex  -3.181818 -1.818182 0.220310 
vertex  -2.727273 -2.272727 0.286854 
vertex  -2.727273 -1.818182 0.440762 
endloop 
endfacet 
facet normal  -0.417438 0.291432 0.860705 
outer loop 
vertex  -2.727273 1.818182 0.440762 
vertex  -2.727273 2.272727 0.286854 
vertex  -3.181818 1.818182 0.220310 
endloop 
endfacet 
facet normal  -0.113040 -0.386568 0.915307 
outer loop 
vertex  -0.909091 -3.181818 0.389280 
vertex  -0.909091 -2.727273 0.581252 
vertex  -1.363636 -2.727273 0.525116 
endloop 
endfacet 
facet normal  -0.113040 0.386568 0.915307 
outer loop 
vertex  -1.363636 2.727273 0.525116 
vertex  -0.909091 2.727273 0.581252 
vertex  -0.909091 3.181818 0.389280 
endloop 
endfacet 
facet normal  -0.212821 -0.417171 0.883558 
outer loop 
vertex  -1.818182 -3.181818 0.211202 
vertex  -1.363636 -3.181818 0.320687 
vertex  -1.818182 -2.727273 0.425815 
endloop 
endfacet 
facet normal  -0.212821 0.417171 0.883558 
outer loop 
vertex  -1.818182 2.727273 0.425815 
vertex  -1.363636 3.181818 0.320687 
vertex  -1.818182 3.181818 0.211202 
endloop 
endfacet 
facet normal  -0.246885 -0.217817 0.944248 
outer loop 
vertex  -1.818182 -1.818182 0.740750 
vertex  -1.818182 -1.363636 0.845604 
vertex  -2.272727 -1.363636 0.726758 
endloop 
endfacet 
facet normal  -0.246885 0.217817 0.944248 
outer loop 
vertex  -2.272727 1.363636 0.726758 
vertex  -1.818182 1.363636 0.845604 
vertex  -1.818182 1.818182 0.740750 
endloop 
endfacet 
facet normal  -0.029039 -0.362356 0.931587 
outer loop 
vertex  -0.454545 -3.181818 0.418618 
vertex  -0.454545 -2.727273 0.595421 
vertex  -0.909091 -2.727273 0.581252 
endloop 
endfacet 
facet normal  -0.029039 0.362356 0.931587 
outer loop 
vertex  -0.909091 2.727273 0.581252 
vertex  -0.454545 2.727273 0.595421 
vertex  -0.454545 3.181818 0.418618 
endloop 
endfacet 
facet normal  -0.115310 -0.339018 0.933686 
outer loop 
vertex  -0.909091 -2.727273 0.581252 
vertex  -1.363636 -2.272727 0.690160 
vertex  -1.363636 -2.727273 0.525116 
endloop 
endfacet 
facet normal  -0.115310 0.339018 0.933686 
outer loop 
vertex  -1.363636 2.727273 0.525116 
vertex  -1.363636 2.272727 0.690160 
vertex  -0.909091 2.727273 0.581252 
endloop 
endfacet 
facet normal  -0.180125 -0.335713 0.924582 
outer loop 
vertex  -1.363636 -2.727273 0.525116 
vertex  -1.363636 -2.272727 0.690160 
vertex  -1.818182 -2.272727 0.601606 
endloop 
endfacet 
facet normal  -0.180125 0.335713 0.924582 
outer loop 
vertex  -1.818182 2.272727 0.601606 
vertex  -1.363636 2.272727 0.690160 
vertex  -1.363636 2.727273 0.525116 
endloop 
endfacet 
facet normal  0.006499 -0.283155 0.959052 
outer loop 
vertex  -0.909091 -2.272727 0.732703 
vertex  -0.454545 -2.727273 0.595421 
vertex  -0.454545 -2.272727 0.729623 
endloop 
endfacet 
facet normal  0.006499 0.283155 0.959052 
outer loop 
vertex  -0.454545 2.272727 0.729623 
vertex  -0.454545 2.727273 0.595421 
vertex  -0.909091 2.272727 0.732703 
endloop 
endfacet 
facet normal  -0.060958 -0.243937 0.967873 
outer loop 
vertex  -0.909091 -2.272727 0.732703 
vertex  -0.909091 -1.818182 0.847264 
vertex  -1.363636 -1.818182 0.818636 
endloop 
endfacet 
facet normal  -0.060958 0.243937 0.967873 
outer loop 
vertex  -1.363636 1.818182 0.818636 
vertex  -0.909091 1.818182 0.847264 
vertex  -0.909091 2.272727 0.732703 
endloop 
endfacet 
facet normal  0.005368 -0.066910 0.997745 
outer loop 
vertex  -1.363636 -0.454545 1.016371 
vertex  -0.909091 -0.909091 0.983443 
vertex  -0.909091 -0.454545 1.013925 
endloop 
endfacet 
facet normal  0.005368 0.066910 0.997745 
outer loop 
vertex  -0.909091 0.454545 1.013925 
vertex  -0.909091 0.909091 0.983443 
vertex  -1.363636 0.454545 1.016371 
endloop 
endfacet 
facet normal  -0.061530 -0.204401 0.976952 
outer loop 
vertex  -1.363636 -1.818182 0.818636 
vertex  -0.909091 -1.818182 0.847264 
vertex  -1.363636 -1.363636 0.913738 
endloop 
endfacet 
facet normal  -0.061530 0.204401 0.976952 
outer loop 
vertex  -1.363636 1.363636 0.913738 
vertex  -0.909091 1.818182 0.847264 
vertex  -1.363636 1.818182 0.818636 
endloop 
endfacet 
facet normal  0.315168 -0.024417 0.948722 
outer loop 
vertex  0.909091 -2.272727 0.467742 
vertex  1.363636 -2.727273 0.305042 
vertex  1.363636 -2.272727 0.316740 
endloop 
endfacet 
facet normal  0.315168 0.024417 0.948722 
outer loop 
vertex  1.363636 2.272727 0.316740 
vertex  1.363636 2.727273 0.305042 
vertex  0.909091 2.272727 0.467742 
endloop 
endfacet 
facet normal  -0.132377 -0.132377 0.982320 
outer loop 
vertex  -3.636364 -2.272727 0.000000 
vertex  -3.181818 -2.727273 0.000000 
vertex  -3.181818 -2.272727 0.061254 
endloop 
endfacet 
facet normal  -0.132377 0.132377 0.982320 
outer loop 
vertex  -3.181818 2.272727 0.061254 
vertex  -3.181818 2.727273 0.000000 
vertex  -3.636364 2.272727 0.000000 
endloop 
endfacet 
facet normal  -0.417869 -0.228204 0.879379 
outer loop 
vertex  -2.727273 -1.363636 0.558719 
vertex  -3.181818 -1.363636 0.342726 
vertex  -2.727273 -1.818182 0.440762 
endloop 
endfacet 
facet normal  -0.417869 0.228204 0.879379 
outer loop 
vertex  -2.727273 1.818182 0.440762 
vertex  -3.181818 1.363636 0.342726 
vertex  -2.727273 1.363636 0.558719 
endloop 
endfacet 
facet normal  -0.419716 -0.034275 0.907008 
outer loop 
vertex  -3.181818 0.000000 0.498287 
vertex  -3.181818 -0.454545 0.481110 
vertex  -2.727273 -0.454545 0.691450 
endloop 
endfacet 
facet normal  -0.419716 0.034275 0.907008 
outer loop 
vertex  -2.727273 0.454545 0.691450 
vertex  -3.181818 0.454545 0.481110 
vertex  -3.181818 -0.000000 0.498287 
endloop 
endfacet 
facet normal  0.140864 -0.043944 0.989053 
outer loop 
vertex  -0.454545 -0.454545 0.949187 
vertex  -0.909091 -0.454545 1.013925 
vertex  -0.454545 -0.909091 0.928992 
endloop 
endfacet 
facet normal  0.140864 0.043944 0.989053 
outer loop 
vertex  -0.454545 0.909091 0.928992 
vertex  -0.909091 0.454545 1.013925 
vertex  -0.454545 0.454545 0.949187 
endloop 
endfacet 
facet normal  -0.493626 -0.167836 0.853326 
outer loop 
vertex  -3.636364 -1.363636 0.079783 
vertex  -3.181818 -1.363636 0.342726 
vertex  -3.636364 -0.909091 0.169186 
endloop 
endfacet 
facet normal  -0.493626 0.167836 0.853326 
outer loop 
vertex  -3.636364 0.909091 0.169186 
vertex  -3.181818 1.363636 0.342726 
vertex  -3.636364 1.363636 0.079783 
endloop 
endfacet 
facet normal  -0.437370 -0.104937 0.893138 
outer loop 
vertex  -4.090909 -0.454545 0.000000 
vertex  -3.636364 -0.909091 0.169186 
vertex  -3.636364 -0.454545 0.222591 
endloop 
endfacet 
facet normal  -0.437370 0.104937 0.893138 
outer loop 
vertex  -3.636364 0.454545 0.222591 
vertex  -3.636364 0.909091 0.169186 
vertex  -4.090909 0.454545 0.000000 
endloop 
endfacet 
facet normal  0.424148 0.036910 0.904840 
outer loop 
vertex  0.454545 -0.909091 0.620800 
vertex  0.454545 -0.454545 0.602259 
vertex  0.000000 -0.454545 0.815329 
endloop 
endfacet 
facet normal  0.424148 -0.036910 0.904840 
outer loop 
vertex  0.000000 0.454545 0.815329 
vertex  0.454545 0.454545 0.602259 
vertex  0.454545 0.909091 0.620800 
endloop 
endfacet 
facet normal  0.543713 -0.000000 0.839271 
outer loop 
vertex  1.363636 -0.909091 0.000000 
vertex  1.363636 -0.454545 0.000000 
vertex  0.909091 -0.454545 0.294472 
endloop 
endfacet 
facet normal  0.543713 0.000000 0.839271 
outer loop 
vertex  0.909091 0.454545 0.294472 
vertex  1.363636 0.454545 0.000000 
vertex  1.363636 0.909091 0.000000 
endloop 
endfacet 
facet normal  0.424437 -0.001337 0.905457 
outer loop 
vertex  0.454545 -0.454545 0.602259 
vertex  0.000000 0.000000 0.816000 
vertex  0.000000 -0.454545 0.815329 
endloop 
endfacet 
facet normal  0.424437 0.001337 0.905457 
outer loop 
vertex  0.000000 0.454545 0.815329 
vertex  0.000000 -0.000000 0.816000 
vertex  0.454545 0.454545 0.602259 
endloop 
endfacet 
facet normal  0.414307 0.092440 0.905431 
outer loop 
vertex  0.909091 -1.363636 0.416833 
vertex  0.909091 -1.818182 0.463240 
vertex  1.363636 -1.818182 0.255249 
endloop 
endfacet 
facet normal  0.414307 -0.092440 0.905431 
outer loop 
vertex  1.363636 1.818182 0.255249 
vertex  0.909091 1.818182 0.463240 
vertex  0.909091 1.363636 0.416833 
endloop 
endfacet 
facet normal  0.057707 0.057707 0.996664 
outer loop 
vertex  1.818182 -1.818182 0.026318 
vertex  2.272727 -1.818182 0.000000 
vertex  1.818182 -1.363636 0.000000 
endloop 
endfacet 
facet normal  0.057707 -0.057707 0.996664 
outer loop 
vertex  1.818182 1.363636 0.000000 
vertex  2.272727 1.818182 0.000000 
vertex  1.818182 1.818182 0.026318 
endloop 
endfacet 
facet normal  0.085469 -0.117854 0.989346 
outer loop 
vertex  -0.454545 -1.363636 0.890028 
vertex  -0.909091 -0.909091 0.983443 
vertex  -0.909091 -1.363636 0.929296 
endloop 
endfacet 
facet normal  0.085469 0.117854 0.989346 
outer loop 
vertex  -0.909091 1.363636 0.929296 
vertex  -0.909091 0.909091 0.983443 
vertex  -0.454545 1.363636 0.890028 
endloop 
endfacet 
facet normal  0.101681 -0.205998 0.973255 
outer loop 
vertex  -0.454545 -1.818182 0.825831 
vertex  -0.454545 -2.272727 0.729623 
vertex  0.000000 -2.272727 0.682134 
endloop 
endfacet 
facet normal  0.101681 0.205998 0.973255 
outer loop 
vertex  0.000000 2.272727 0.682134 
vertex  -0.454545 2.272727 0.729623 
vertex  -0.454545 1.818182 0.825831 
endloop 
endfacet 
facet normal  -0.151949 -0.470556 0.869188 
outer loop 
vertex  -1.363636 -3.636364 0.074608 
vertex  -0.909091 -3.636364 0.154071 
vertex  -1.363636 -3.181818 0.320687 
endloop 
endfacet 
facet normal  -0.151949 0.470556 0.869188 
outer loop 
vertex  -1.363636 3.181818 0.320687 
vertex  -0.909091 3.636364 0.154071 
vertex  -1.363636 3.636364 0.074608 
endloop 
endfacet 
facet normal  0.048526 -0.415730 0.908192 
outer loop 
vertex  0.000000 -3.636364 0.203188 
vertex  0.454545 -3.636364 0.178901 
vertex  0.000000 -3.181818 0.411259 
endloop 
endfacet 
facet normal  0.048526 0.415730 0.908192 
outer loop 
vertex  0.000000 3.181818 0.411259 
vertex  0.454545 3.636364 0.178901 
vertex  0.000000 3.636364 0.203188 
endloop 
endfacet 
facet normal  0.102785 -0.387364 0.916179 
outer loop 
vertex  0.454545 -3.636364 0.178901 
vertex  0.909091 -3.636364 0.127906 
vertex  0.454545 -3.181818 0.371085 
endloop 
endfacet 
facet normal  0.102785 0.387364 0.916179 
outer loop 
vertex  0.454545 3.181818 0.371085 
vertex  0.909091 3.636364 0.127906 
vertex  0.454545 3.636364 0.178901 
endloop 
endfacet 
facet normal  0.015086 -0.362468 0.931874 
outer loop 
vertex  0.000000 -3.181818 0.411259 
vertex  -0.454545 -2.727273 0.595421 
vertex  -0.454545 -3.181818 0.418618 
endloop 
endfacet 
facet normal  0.015086 0.362468 0.931874 
outer loop 
vertex  -0.454545 3.181818 0.418618 
vertex  -0.454545 2.727273 0.595421 
vertex  0.000000 3.181818 0.411259 
endloop 
endfacet 
facet normal  0.053145 -0.328868 0.942879 
outer loop 
vertex  0.000000 -3.181818 0.411259 
vertex  0.000000 -2.727273 0.569801 
vertex  -0.454545 -2.727273 0.595421 
endloop 
endfacet 
facet normal  0.053145 0.328868 0.942879 
outer loop 
vertex  -0.454545 2.727273 0.595421 
vertex  0.000000 2.727273 0.569801 
vertex  0.000000 3.181818 0.411259 
endloop 
endfacet 
facet normal  0.194131 -0.180015 0.964317 
outer loop 
vertex  0.454545 -2.727273 0.508142 
vertex  0.909091 -2.727273 0.416635 
vertex  0.454545 -2.272727 0.592994 
endloop 
endfacet 
facet normal  0.194131 0.180015 0.964317 
outer loop 
vertex  0.454545 2.272727 0.592994 
vertex  0.909091 2.727273 0.416635 
vertex  0.454545 2.727273 0.508142 
endloop 
endfacet 
facet normal  -0.059352 -0.388376 0.919588 
outer loop 
vertex  -0.909091 -3.181818 0.389280 
vertex  -0.454545 -3.181818 0.418618 
vertex  -0.909091 -2.727273 0.581252 
endloop 
endfacet 
facet normal  -0.059352 0.388376 0.919588 
outer loop 
vertex  -0.909091 2.727273 0.581252 
vertex  -0.454545 3.181818 0.418618 
vertex  -0.909091 3.181818 0.389280 
endloop 
endfacet 
facet normal  0.049658 -0.365785 0.929374 
outer loop 
vertex  0.000000 -3.636364 0.203188 
vertex  0.454545 -4.090909 0.000000 
vertex  0.454545 -3.636364 0.178901 
endloop 
endfacet 
facet normal  0.049658 0.365785 0.929374 
outer loop 
vertex  0.454545 3.636364 0.178901 
vertex  0.454545 4.090909 0.000000 
vertex  0.000000 3.636364 0.203188 
endloop 
endfacet 
facet normal  0.191756 -0.236509 0.952519 
outer loop 
vertex  0.909091 -3.181818 0.303773 
vertex  0.909091 -2.727273 0.416635 
vertex  0.454545 -2.727273 0.508142 
endloop 
endfacet 
facet normal  0.191756 0.236509 0.952519 
outer loop 
vertex  0.454545 2.727273 0.508142 
vertex  0.909091 2.727273 0.416635 
vertex  0.909091 3.181818 0.303773 
endloop 
endfacet 
facet normal  0.000000 -0.122457 0.992474 
outer loop 
vertex  1.818182 -4.090909 0.000000 
vertex  1.363636 -3.636364 0.056085 
vertex  1.363636 -4.090909 0.000000 
endloop 
endfacet 
facet normal  0.000000 0.122457 0.992474 
outer loop 
vertex  1.363636 4.090909 0.000000 
vertex  1.363636 3.636364 0.056085 
vertex  1.818182 4.090909 0.000000 
endloop 
endfacet 
facet normal  0.176635 -0.328884 0.927704 
outer loop 
vertex  1.363636 -3.181818 0.217227 
vertex  0.909091 -3.181818 0.303773 
vertex  1.363636 -3.636364 0.056085 
endloop 
endfacet 
facet normal  0.176635 0.328884 0.927704 
outer loop 
vertex  1.363636 3.636364 0.056085 
vertex  0.909091 3.181818 0.303773 
vertex  1.363636 3.181818 0.217227 
endloop 
endfacet 
facet normal  0.199072 -0.253342 0.946672 
outer loop 
vertex  1.818182 -3.636364 0.000000 
vertex  1.818182 -3.181818 0.121642 
vertex  1.363636 -3.181818 0.217227 
endloop 
endfacet 
facet normal  0.199072 0.253342 0.946672 
outer loop 
vertex  1.363636 3.181818 0.217227 
vertex  1.818182 3.181818 0.121642 
vertex  1.818182 3.636364 0.000000 
endloop 
endfacet 
facet normal  0.328708 0.061366 0.942436 
outer loop 
vertex  1.818182 -2.727273 0.187799 
vertex  1.818182 -2.272727 0.158201 
vertex  1.363636 -2.272727 0.316740 
endloop 
endfacet 
facet normal  0.328708 -0.061366 0.942436 
outer loop 
vertex  1.363636 2.272727 0.316740 
vertex  1.818182 2.272727 0.158201 
vertex  1.818182 2.727273 0.187799 
endloop 
endfacet 
facet normal  -0.270976 -0.296958 0.915635 
outer loop 
vertex  -2.272727 -1.818182 0.614504 
vertex  -2.272727 -2.272727 0.467086 
vertex  -1.818182 -2.272727 0.601606 
endloop 
endfacet 
facet normal  -0.270976 0.296958 0.915635 
outer loop 
vertex  -1.818182 2.272727 0.601606 
vertex  -2.272727 2.272727 0.467086 
vertex  -2.272727 1.818182 0.614504 
endloop 
endfacet 
facet normal  -0.346608 -0.413055 0.842169 
outer loop 
vertex  -2.727273 -2.727273 0.095674 
vertex  -2.272727 -3.181818 0.059811 
vertex  -2.272727 -2.727273 0.282749 
endloop 
endfacet 
facet normal  -0.346608 0.413055 0.842169 
outer loop 
vertex  -2.272727 2.727273 0.282749 
vertex  -2.272727 3.181818 0.059811 
vertex  -2.727273 2.727273 0.095674 
endloop 
endfacet 
facet normal  -0.354708 -0.362491 0.861849 
outer loop 
vertex  -2.727273 -2.272727 0.286854 
vertex  -2.727273 -2.727273 0.095674 
vertex  -2.272727 -2.727273 0.282749 
endloop 
endfacet 
facet normal  -0.354708 0.362491 0.861849 
outer loop 
vertex  -2.272727 2.727273 0.282749 
vertex  -2.727273 2.727273 0.095674 
vertex  -2.727273 2.272727 0.286854 
endloop 
endfacet 
facet normal  -0.133552 0.000000 0.991042 
outer loop 
vertex  -3.636364 -2.272727 0.000000 
vertex  -3.181818 -2.272727 0.061254 
vertex  -3.636364 -1.818182 0.000000 
endloop 
endfacet 
facet normal  -0.133552 -0.000000 0.991042 
outer loop 
vertex  -3.636364 1.818182 0.000000 
vertex  -3.181818 2.272727 0.061254 
vertex  -3.636364 2.272727 0.000000 
endloop 
endfacet 
facet normal  -0.416029 -0.352556 0.838227 
outer loop 
vertex  -2.727273 -2.727273 0.095674 
vertex  -2.727273 -2.272727 0.286854 
vertex  -3.181818 -2.272727 0.061254 
endloop 
endfacet 
facet normal  -0.416029 0.352556 0.838227 
outer loop 
vertex  -3.181818 2.272727 0.061254 
vertex  -2.727273 2.272727 0.286854 
vertex  -2.727273 2.727273 0.095674 
endloop 
endfacet 
facet normal  -0.204202 -0.130738 0.970159 
outer loop 
vertex  -3.181818 -2.272727 0.061254 
vertex  -3.181818 -2.727273 0.000000 
vertex  -2.727273 -2.727273 0.095674 
endloop 
endfacet 
facet normal  -0.204202 0.130738 0.970159 
outer loop 
vertex  -2.727273 2.727273 0.095674 
vertex  -3.181818 2.727273 0.000000 
vertex  -3.181818 2.272727 0.061254 
endloop 
endfacet 
facet normal  -0.337804 -0.225662 0.913764 
outer loop 
vertex  -2.272727 -1.363636 0.726758 
vertex  -2.727273 -1.363636 0.558719 
vertex  -2.272727 -1.818182 0.614504 
endloop 
endfacet 
facet normal  -0.337804 0.225662 0.913764 
outer loop 
vertex  -2.272727 1.818182 0.614504 
vertex  -2.727273 1.363636 0.558719 
vertex  -2.272727 1.363636 0.726758 
endloop 
endfacet 
facet normal  -0.424224 -0.299092 0.854739 
outer loop 
vertex  -3.181818 -1.818182 0.220310 
vertex  -3.181818 -2.272727 0.061254 
vertex  -2.727273 -2.272727 0.286854 
endloop 
endfacet 
facet normal  -0.424224 0.299092 0.854739 
outer loop 
vertex  -2.727273 2.272727 0.286854 
vertex  -3.181818 2.272727 0.061254 
vertex  -3.181818 1.818182 0.220310 
endloop 
endfacet 
facet normal  -0.266071 -0.347702 0.899060 
outer loop 
vertex  -1.818182 -2.272727 0.601606 
vertex  -2.272727 -2.272727 0.467086 
vertex  -1.818182 -2.727273 0.425815 
endloop 
endfacet 
facet normal  -0.266071 0.347702 0.899060 
outer loop 
vertex  -1.818182 2.727273 0.425815 
vertex  -2.272727 2.272727 0.467086 
vertex  -1.818182 2.272727 0.601606 
endloop 
endfacet 
facet normal  -0.351587 -0.300235 0.886705 
outer loop 
vertex  -2.727273 -1.818182 0.440762 
vertex  -2.727273 -2.272727 0.286854 
vertex  -2.272727 -2.272727 0.467086 
endloop 
endfacet 
facet normal  -0.351587 0.300235 0.886705 
outer loop 
vertex  -2.272727 2.272727 0.467086 
vertex  -2.727273 2.272727 0.286854 
vertex  -2.727273 1.818182 0.440762 
endloop 
endfacet 
facet normal  -0.280005 -0.360780 0.889626 
outer loop 
vertex  -2.272727 -2.727273 0.282749 
vertex  -1.818182 -2.727273 0.425815 
vertex  -2.272727 -2.272727 0.467086 
endloop 
endfacet 
facet normal  -0.280005 0.360780 0.889626 
outer loop 
vertex  -2.272727 2.272727 0.467086 
vertex  -1.818182 2.727273 0.425815 
vertex  -2.272727 2.727273 0.282749 
endloop 
endfacet 
facet normal  -0.201735 -0.201735 0.958439 
outer loop 
vertex  -2.727273 -3.181818 0.000000 
vertex  -2.727273 -2.727273 0.095674 
vertex  -3.181818 -2.727273 0.000000 
endloop 
endfacet 
facet normal  -0.201735 0.201735 0.958439 
outer loop 
vertex  -3.181818 2.727273 0.000000 
vertex  -2.727273 2.727273 0.095674 
vertex  -2.727273 3.181818 0.000000 
endloop 
endfacet 
facet normal  -0.127708 -0.204283 0.970546 
outer loop 
vertex  -2.727273 -3.181818 0.000000 
vertex  -2.272727 -3.181818 0.059811 
vertex  -2.727273 -2.727273 0.095674 
endloop 
endfacet 
facet normal  -0.127708 0.204283 0.970546 
outer loop 
vertex  -2.727273 2.727273 0.095674 
vertex  -2.272727 3.181818 0.059811 
vertex  -2.727273 3.181818 0.000000 
endloop 
endfacet 
facet normal  -0.129363 -0.129363 0.983123 
outer loop 
vertex  -2.272727 -3.636364 0.000000 
vertex  -2.272727 -3.181818 0.059811 
vertex  -2.727273 -3.181818 0.000000 
endloop 
endfacet 
facet normal  -0.129363 0.129363 0.983123 
outer loop 
vertex  -2.727273 3.181818 0.000000 
vertex  -2.272727 3.181818 0.059811 
vertex  -2.272727 3.636364 0.000000 
endloop 
endfacet 
facet normal  0.000000 -0.130459 0.991454 
outer loop 
vertex  -2.272727 -3.636364 0.000000 
vertex  -1.818182 -3.636364 0.000000 
vertex  -2.272727 -3.181818 0.059811 
endloop 
endfacet 
facet normal  0.000000 0.130459 0.991454 
outer loop 
vertex  -2.272727 3.181818 0.059811 
vertex  -1.818182 3.636364 0.000000 
vertex  -2.272727 3.636364 0.000000 
endloop 
endfacet 
facet normal  -0.207222 -0.465750 0.860311 
outer loop 
vertex  -1.363636 -3.636364 0.074608 
vertex  -1.363636 -3.181818 0.320687 
vertex  -1.818182 -3.181818 0.211202 
endloop 
endfacet 
facet normal  -0.207222 0.465750 0.860311 
outer loop 
vertex  -1.818182 3.181818 0.211202 
vertex  -1.363636 3.181818 0.320687 
vertex  -1.363636 3.636364 0.074608 
endloop 
endfacet 
facet normal  -0.084566 -0.394682 0.914918 
outer loop 
vertex  -0.909091 -3.636364 0.154071 
vertex  -0.454545 -4.090909 0.000000 
vertex  -0.454545 -3.636364 0.196084 
endloop 
endfacet 
facet normal  -0.084566 0.394682 0.914918 
outer loop 
vertex  -0.454545 3.636364 0.196084 
vertex  -0.454545 4.090909 0.000000 
vertex  -0.909091 3.636364 0.154071 
endloop 
endfacet 
facet normal  -0.159887 -0.159887 0.974101 
outer loop 
vertex  -1.363636 -4.090909 0.000000 
vertex  -1.363636 -3.636364 0.074608 
vertex  -1.818182 -3.636364 0.000000 
endloop 
endfacet 
facet normal  -0.159887 0.159887 0.974101 
outer loop 
vertex  -1.818182 3.636364 0.000000 
vertex  -1.363636 3.636364 0.074608 
vertex  -1.363636 4.090909 0.000000 
endloop 
endfacet 
facet normal  0.000000 -0.396101 0.918207 
outer loop 
vertex  -0.454545 -3.636364 0.196084 
vertex  -0.454545 -4.090909 0.000000 
vertex  0.000000 -4.090909 0.000000 
endloop 
endfacet 
facet normal  0.000000 0.396101 0.918207 
outer loop 
vertex  0.000000 4.090909 0.000000 
vertex  -0.454545 4.090909 0.000000 
vertex  -0.454545 3.636364 0.196084 
endloop 
endfacet 
facet normal  0.000000 -0.161971 0.986796 
outer loop 
vertex  -1.363636 -4.090909 0.000000 
vertex  -0.909091 -4.090909 0.000000 
vertex  -1.363636 -3.636364 0.074608 
endloop 
endfacet 
facet normal  0.000000 0.161971 0.986796 
outer loop 
vertex  -1.363636 3.636364 0.074608 
vertex  -0.909091 4.090909 0.000000 
vertex  -1.363636 4.090909 0.000000 
endloop 
endfacet 
facet normal  -0.163341 -0.316704 0.934354 
outer loop 
vertex  -0.909091 -4.090909 0.000000 
vertex  -0.909091 -3.636364 0.154071 
vertex  -1.363636 -3.636364 0.074608 
endloop 
endfacet 
facet normal  -0.163341 0.316704 0.934354 
outer loop 
vertex  -1.363636 3.636364 0.074608 
vertex  -0.909091 3.636364 0.154071 
vertex  -0.909091 4.090909 0.000000 
endloop 
endfacet 
facet normal  -0.014267 -0.408055 0.912846 
outer loop 
vertex  -0.454545 -3.636364 0.196084 
vertex  0.000000 -4.090909 0.000000 
vertex  0.000000 -3.636364 0.203188 
endloop 
endfacet 
facet normal  -0.014267 0.408055 0.912846 
outer loop 
vertex  0.000000 3.636364 0.203188 
vertex  0.000000 4.090909 0.000000 
vertex  -0.454545 3.636364 0.196084 
endloop 
endfacet 
facet normal  0.000000 -0.321016 0.947074 
outer loop 
vertex  -0.909091 -4.090909 0.000000 
vertex  -0.454545 -4.090909 0.000000 
vertex  -0.909091 -3.636364 0.154071 
endloop 
endfacet 
facet normal  0.000000 0.321016 0.947074 
outer loop 
vertex  -0.909091 3.636364 0.154071 
vertex  -0.454545 4.090909 0.000000 
vertex  -0.909091 4.090909 0.000000 
endloop 
endfacet 
facet normal  -0.195398 -0.402263 0.894429 
outer loop 
vertex  -1.363636 -3.181818 0.320687 
vertex  -1.363636 -2.727273 0.525116 
vertex  -1.818182 -2.727273 0.425815 
endloop 
endfacet 
facet normal  -0.195398 0.402263 0.894429 
outer loop 
vertex  -1.818182 2.727273 0.425815 
vertex  -1.363636 2.727273 0.525116 
vertex  -1.363636 3.181818 0.320687 
endloop 
endfacet 
facet normal  -0.136341 -0.406339 0.903493 
outer loop 
vertex  -1.363636 -3.181818 0.320687 
vertex  -0.909091 -3.181818 0.389280 
vertex  -1.363636 -2.727273 0.525116 
endloop 
endfacet 
facet normal  -0.136341 0.406339 0.903493 
outer loop 
vertex  -1.363636 2.727273 0.525116 
vertex  -0.909091 3.181818 0.389280 
vertex  -1.363636 3.181818 0.320687 
endloop 
endfacet 
facet normal  -0.132836 -0.455504 0.880267 
outer loop 
vertex  -0.909091 -3.636364 0.154071 
vertex  -0.909091 -3.181818 0.389280 
vertex  -1.363636 -3.181818 0.320687 
endloop 
endfacet 
facet normal  -0.132836 0.455504 0.880267 
outer loop 
vertex  -1.363636 3.181818 0.320687 
vertex  -0.909091 3.181818 0.389280 
vertex  -0.909091 3.636364 0.154071 
endloop 
endfacet 
facet normal  -0.081815 -0.458036 0.885160 
outer loop 
vertex  -0.909091 -3.636364 0.154071 
vertex  -0.454545 -3.636364 0.196084 
vertex  -0.909091 -3.181818 0.389280 
endloop 
endfacet 
facet normal  -0.081815 0.458036 0.885160 
outer loop 
vertex  -0.909091 3.181818 0.389280 
vertex  -0.454545 3.636364 0.196084 
vertex  -0.909091 3.636364 0.154071 
endloop 
endfacet 
facet normal  -0.088449 -0.314869 0.945005 
outer loop 
vertex  -0.909091 -2.727273 0.581252 
vertex  -0.909091 -2.272727 0.732703 
vertex  -1.363636 -2.272727 0.690160 
endloop 
endfacet 
facet normal  -0.088449 0.314869 0.945005 
outer loop 
vertex  -1.363636 2.272727 0.690160 
vertex  -0.909091 2.272727 0.732703 
vertex  -0.909091 2.727273 0.581252 
endloop 
endfacet 
facet normal  -0.029561 -0.315970 0.948309 
outer loop 
vertex  -0.909091 -2.727273 0.581252 
vertex  -0.454545 -2.727273 0.595421 
vertex  -0.909091 -2.272727 0.732703 
endloop 
endfacet 
facet normal  -0.029561 0.315970 0.948309 
outer loop 
vertex  -0.909091 2.272727 0.732703 
vertex  -0.454545 2.727273 0.595421 
vertex  -0.909091 2.727273 0.581252 
endloop 
endfacet 
facet normal  -0.344898 -0.352753 0.869834 
outer loop 
vertex  -2.727273 -2.272727 0.286854 
vertex  -2.272727 -2.727273 0.282749 
vertex  -2.272727 -2.272727 0.467086 
endloop 
endfacet 
facet normal  -0.344898 0.352753 0.869834 
outer loop 
vertex  -2.272727 2.272727 0.467086 
vertex  -2.272727 2.727273 0.282749 
vertex  -2.727273 2.272727 0.286854 
endloop 
endfacet 
facet normal  -0.286495 -0.421893 0.860190 
outer loop 
vertex  -2.272727 -3.181818 0.059811 
vertex  -1.818182 -3.181818 0.211202 
vertex  -2.272727 -2.727273 0.282749 
endloop 
endfacet 
facet normal  -0.286495 0.421893 0.860190 
outer loop 
vertex  -2.272727 2.727273 0.282749 
vertex  -1.818182 3.181818 0.211202 
vertex  -2.272727 3.181818 0.059811 
endloop 
endfacet 
facet normal  -0.289145 -0.403379 0.868147 
outer loop 
vertex  -1.818182 -3.636364 0.000000 
vertex  -1.818182 -3.181818 0.211202 
vertex  -2.272727 -3.181818 0.059811 
endloop 
endfacet 
facet normal  -0.289145 0.403379 0.868147 
outer loop 
vertex  -2.272727 3.181818 0.059811 
vertex  -1.818182 3.181818 0.211202 
vertex  -1.818182 3.636364 0.000000 
endloop 
endfacet 
facet normal  -0.147232 -0.416786 0.897002 
outer loop 
vertex  -1.818182 -3.636364 0.000000 
vertex  -1.363636 -3.636364 0.074608 
vertex  -1.818182 -3.181818 0.211202 
endloop 
endfacet 
facet normal  -0.147232 0.416786 0.897002 
outer loop 
vertex  -1.818182 3.181818 0.211202 
vertex  -1.363636 3.636364 0.074608 
vertex  -1.818182 3.636364 0.000000 
endloop 
endfacet 
facet normal  -0.199652 -0.353442 0.913902 
outer loop 
vertex  -1.363636 -2.727273 0.525116 
vertex  -1.818182 -2.272727 0.601606 
vertex  -1.818182 -2.727273 0.425815 
endloop 
endfacet 
facet normal  -0.199652 0.353442 0.913902 
outer loop 
vertex  -1.818182 2.727273 0.425815 
vertex  -1.818182 2.272727 0.601606 
vertex  -1.363636 2.727273 0.525116 
endloop 
endfacet 
facet normal  -0.145163 -0.202620 0.968438 
outer loop 
vertex  -1.363636 -1.818182 0.818636 
vertex  -1.363636 -1.363636 0.913738 
vertex  -1.818182 -1.363636 0.845604 
endloop 
endfacet 
facet normal  -0.145163 0.202620 0.968438 
outer loop 
vertex  -1.818182 1.363636 0.845604 
vertex  -1.363636 1.363636 0.913738 
vertex  -1.363636 1.818182 0.818636 
endloop 
endfacet 
facet normal  -0.256680 -0.282903 0.924165 
outer loop 
vertex  -1.818182 -2.272727 0.601606 
vertex  -1.818182 -1.818182 0.740750 
vertex  -2.272727 -1.818182 0.614504 
endloop 
endfacet 
facet normal  -0.256680 0.282903 0.924165 
outer loop 
vertex  -2.272727 1.818182 0.614504 
vertex  -1.818182 1.818182 0.740750 
vertex  -1.818182 2.272727 0.601606 
endloop 
endfacet 
facet normal  -0.183135 -0.287760 0.940030 
outer loop 
vertex  -1.818182 -2.272727 0.601606 
vertex  -1.363636 -2.272727 0.690160 
vertex  -1.818182 -1.818182 0.740750 
endloop 
endfacet 
facet normal  -0.183135 0.287760 0.940030 
outer loop 
vertex  -1.818182 1.818182 0.740750 
vertex  -1.363636 2.272727 0.690160 
vertex  -1.818182 2.272727 0.601606 
endloop 
endfacet 
facet normal  -0.238302 -0.153720 0.958948 
outer loop 
vertex  -1.818182 -0.909091 0.918468 
vertex  -2.272727 -0.909091 0.805512 
vertex  -1.818182 -1.363636 0.845604 
endloop 
endfacet 
facet normal  -0.238302 0.153720 0.958948 
outer loop 
vertex  -1.818182 1.363636 0.845604 
vertex  -2.272727 0.909091 0.805512 
vertex  -1.818182 0.909091 0.918468 
endloop 
endfacet 
facet normal  -0.146410 -0.156575 0.976754 
outer loop 
vertex  -1.363636 -1.363636 0.913738 
vertex  -1.818182 -0.909091 0.918468 
vertex  -1.818182 -1.363636 0.845604 
endloop 
endfacet 
facet normal  -0.146410 0.156575 0.976754 
outer loop 
vertex  -1.818182 1.363636 0.845604 
vertex  -1.818182 0.909091 0.918468 
vertex  -1.363636 1.363636 0.913738 
endloop 
endfacet 
facet normal  -0.232521 -0.091244 0.968302 
outer loop 
vertex  -1.818182 -0.454545 0.961300 
vertex  -2.272727 -0.454545 0.852149 
vertex  -1.818182 -0.909091 0.918468 
endloop 
endfacet 
facet normal  -0.232521 0.091244 0.968302 
outer loop 
vertex  -1.818182 0.909091 0.918468 
vertex  -2.272727 0.454545 0.852149 
vertex  -1.818182 0.454545 0.961300 
endloop 
endfacet 
facet normal  -0.162692 -0.268369 0.949479 
outer loop 
vertex  -1.363636 -2.272727 0.690160 
vertex  -1.363636 -1.818182 0.818636 
vertex  -1.818182 -1.818182 0.740750 
endloop 
endfacet 
facet normal  -0.162692 0.268369 0.949479 
outer loop 
vertex  -1.818182 1.818182 0.740750 
vertex  -1.363636 1.818182 0.818636 
vertex  -1.363636 2.272727 0.690160 
endloop 
endfacet 
facet normal  -0.089704 -0.270896 0.958420 
outer loop 
vertex  -1.363636 -2.272727 0.690160 
vertex  -0.909091 -2.272727 0.732703 
vertex  -1.363636 -1.818182 0.818636 
endloop 
endfacet 
facet normal  -0.089704 0.270896 0.958420 
outer loop 
vertex  -1.363636 1.818182 0.818636 
vertex  -0.909091 2.272727 0.732703 
vertex  -1.363636 2.272727 0.690160 
endloop 
endfacet 
facet normal  -0.033665 -0.177500 0.983545 
outer loop 
vertex  -0.909091 -1.818182 0.847264 
vertex  -0.909091 -1.363636 0.929296 
vertex  -1.363636 -1.363636 0.913738 
endloop 
endfacet 
facet normal  -0.033665 0.177500 0.983545 
outer loop 
vertex  -1.363636 1.363636 0.913738 
vertex  -0.909091 1.363636 0.929296 
vertex  -0.909091 1.818182 0.847264 
endloop 
endfacet 
facet normal  0.046353 -0.177410 0.983045 
outer loop 
vertex  -0.909091 -1.818182 0.847264 
vertex  -0.454545 -1.818182 0.825831 
vertex  -0.909091 -1.363636 0.929296 
endloop 
endfacet 
facet normal  0.046353 0.177410 0.983045 
outer loop 
vertex  -0.909091 1.363636 0.929296 
vertex  -0.454545 1.818182 0.825831 
vertex  -0.909091 1.818182 0.847264 
endloop 
endfacet 
facet normal  0.348208 -0.008744 0.937377 
outer loop 
vertex  0.454545 -1.363636 0.636330 
vertex  0.454545 -1.818182 0.632090 
vertex  0.909091 -1.818182 0.463240 
endloop 
endfacet 
facet normal  0.348208 0.008744 0.937377 
outer loop 
vertex  0.909091 1.818182 0.463240 
vertex  0.454545 1.818182 0.632090 
vertex  0.454545 1.363636 0.636330 
endloop 
endfacet 
facet normal  0.046081 -0.206851 0.977287 
outer loop 
vertex  -0.454545 -2.272727 0.729623 
vertex  -0.454545 -1.818182 0.825831 
vertex  -0.909091 -1.818182 0.847264 
endloop 
endfacet 
facet normal  0.046081 0.206851 0.977287 
outer loop 
vertex  -0.909091 1.818182 0.847264 
vertex  -0.454545 1.818182 0.825831 
vertex  -0.454545 2.272727 0.729623 
endloop 
endfacet 
facet normal  0.384898 -0.010070 0.922904 
outer loop 
vertex  0.000000 -0.909091 0.810369 
vertex  0.454545 -0.909091 0.620800 
vertex  0.000000 -0.454545 0.815329 
endloop 
endfacet 
facet normal  0.384898 0.010070 0.922904 
outer loop 
vertex  0.000000 0.454545 0.815329 
vertex  0.454545 0.909091 0.620800 
vertex  0.000000 0.909091 0.810369 
endloop 
endfacet 
facet normal  0.005378 -0.027100 0.999618 
outer loop 
vertex  -1.363636 0.000000 1.028694 
vertex  -1.363636 -0.454545 1.016371 
vertex  -0.909091 -0.454545 1.013925 
endloop 
endfacet 
facet normal  0.005378 0.027100 0.999618 
outer loop 
vertex  -0.909091 0.454545 1.013925 
vertex  -1.363636 0.454545 1.016371 
vertex  -1.363636 -0.000000 1.028694 
endloop 
endfacet 
facet normal  0.118679 -0.066438 0.990707 
outer loop 
vertex  -0.454545 -0.909091 0.928992 
vertex  -0.909091 -0.454545 1.013925 
vertex  -0.909091 -0.909091 0.983443 
endloop 
endfacet 
facet normal  0.118679 0.066438 0.990707 
outer loop 
vertex  -0.909091 0.909091 0.983443 
vertex  -0.909091 0.454545 1.013925 
vertex  -0.454545 0.909091 0.928992 
endloop 
endfacet 
facet normal  -0.119871 -0.081989 0.989398 
outer loop 
vertex  -1.363636 -0.454545 1.016371 
vertex  -1.818182 -0.454545 0.961300 
vertex  -1.363636 -0.909091 0.978703 
endloop 
endfacet 
facet normal  -0.119871 0.081989 0.989398 
outer loop 
vertex  -1.363636 0.909091 0.978703 
vertex  -1.818182 0.454545 0.961300 
vertex  -1.363636 0.454545 1.016371 
endloop 
endfacet 
facet normal  0.010926 -0.021555 0.999708 
outer loop 
vertex  -1.363636 0.000000 1.028694 
vertex  -0.909091 -0.454545 1.013925 
vertex  -0.909091 0.000000 1.023726 
endloop 
endfacet 
facet normal  0.010926 0.021555 0.999708 
outer loop 
vertex  -0.909091 -0.000000 1.023726 
vertex  -0.909091 0.454545 1.013925 
vertex  -1.363636 -0.000000 1.028694 
endloop 
endfacet 
facet normal  -0.239982 -0.099083 0.965708 
outer loop 
vertex  -1.818182 -0.909091 0.918468 
vertex  -2.272727 -0.454545 0.852149 
vertex  -2.272727 -0.909091 0.805512 
endloop 
endfacet 
facet normal  -0.239982 0.099083 0.965708 
outer loop 
vertex  -2.272727 0.909091 0.805512 
vertex  -2.272727 0.454545 0.852149 
vertex  -1.818182 0.909091 0.918468 
endloop 
endfacet 
facet normal  -0.233368 -0.033007 0.971828 
outer loop 
vertex  -1.818182 -0.454545 0.961300 
vertex  -2.272727 0.000000 0.867587 
vertex  -2.272727 -0.454545 0.852149 
endloop 
endfacet 
facet normal  -0.233368 0.033007 0.971828 
outer loop 
vertex  -2.272727 0.454545 0.852149 
vertex  -2.272727 -0.000000 0.867587 
vertex  -1.818182 0.454545 0.961300 
endloop 
endfacet 
facet normal  -0.130070 -0.140285 0.981530 
outer loop 
vertex  -1.363636 -1.363636 0.913738 
vertex  -1.363636 -0.909091 0.978703 
vertex  -1.818182 -0.909091 0.918468 
endloop 
endfacet 
facet normal  -0.130070 0.140285 0.981530 
outer loop 
vertex  -1.818182 0.909091 0.918468 
vertex  -1.363636 0.909091 0.978703 
vertex  -1.363636 1.363636 0.913738 
endloop 
endfacet 
facet normal  -0.033865 -0.141406 0.989372 
outer loop 
vertex  -1.363636 -1.363636 0.913738 
vertex  -0.909091 -1.363636 0.929296 
vertex  -1.363636 -0.909091 0.978703 
endloop 
endfacet 
facet normal  -0.033865 0.141406 0.989372 
outer loop 
vertex  -1.363636 0.909091 0.978703 
vertex  -0.909091 1.363636 0.929296 
vertex  -1.363636 1.363636 0.913738 
endloop 
endfacet 
facet normal  -0.010390 -0.082580 0.996530 
outer loop 
vertex  -0.909091 -0.909091 0.983443 
vertex  -1.363636 -0.454545 1.016371 
vertex  -1.363636 -0.909091 0.978703 
endloop 
endfacet 
facet normal  -0.010390 0.082580 0.996530 
outer loop 
vertex  -1.363636 0.909091 0.978703 
vertex  -1.363636 0.454545 1.016371 
vertex  -0.909091 0.909091 0.983443 
endloop 
endfacet 
facet normal  -0.116360 -0.026916 0.992842 
outer loop 
vertex  -1.363636 0.000000 1.028694 
vertex  -1.818182 0.000000 0.975421 
vertex  -1.363636 -0.454545 1.016371 
endloop 
endfacet 
facet normal  -0.116360 0.026916 0.992842 
outer loop 
vertex  -1.363636 0.454545 1.016371 
vertex  -1.818182 -0.000000 0.975421 
vertex  -1.363636 -0.000000 1.028694 
endloop 
endfacet 
facet normal  -0.331771 -0.096284 0.938433 
outer loop 
vertex  -2.272727 -0.454545 0.852149 
vertex  -2.727273 -0.454545 0.691450 
vertex  -2.272727 -0.909091 0.805512 
endloop 
endfacet 
facet normal  -0.331771 0.096284 0.938433 
outer loop 
vertex  -2.272727 0.909091 0.805512 
vertex  -2.727273 0.454545 0.691450 
vertex  -2.272727 0.454545 0.852149 
endloop 
endfacet 
facet normal  -0.422965 -0.169757 0.890103 
outer loop 
vertex  -3.181818 -0.909091 0.429415 
vertex  -3.181818 -1.363636 0.342726 
vertex  -2.727273 -1.363636 0.558719 
endloop 
endfacet 
facet normal  -0.422965 0.169757 0.890103 
outer loop 
vertex  -2.727273 1.363636 0.558719 
vertex  -3.181818 1.363636 0.342726 
vertex  -3.181818 0.909091 0.429415 
endloop 
endfacet 
facet normal  -0.418499 -0.032795 0.907625 
outer loop 
vertex  -3.181818 0.000000 0.498287 
vertex  -2.727273 -0.454545 0.691450 
vertex  -2.727273 0.000000 0.707874 
endloop 
endfacet 
facet normal  -0.418499 0.032795 0.907625 
outer loop 
vertex  -2.727273 -0.000000 0.707874 
vertex  -2.727273 0.454545 0.691450 
vertex  -3.181818 -0.000000 0.498287 
endloop 
endfacet 
facet normal  -0.336820 -0.101935 0.936035 
outer loop 
vertex  -2.727273 -0.909091 0.641950 
vertex  -2.272727 -0.909091 0.805512 
vertex  -2.727273 -0.454545 0.691450 
endloop 
endfacet 
facet normal  -0.336820 0.101935 0.936035 
outer loop 
vertex  -2.727273 0.454545 0.691450 
vertex  -2.272727 0.909091 0.805512 
vertex  -2.727273 0.909091 0.641950 
endloop 
endfacet 
facet normal  -0.249478 -0.165318 0.954165 
outer loop 
vertex  -2.272727 -0.909091 0.805512 
vertex  -2.272727 -1.363636 0.726758 
vertex  -1.818182 -1.363636 0.845604 
endloop 
endfacet 
facet normal  -0.249478 0.165318 0.954165 
outer loop 
vertex  -1.818182 1.363636 0.845604 
vertex  -2.272727 1.363636 0.726758 
vertex  -2.272727 0.909091 0.805512 
endloop 
endfacet 
facet normal  -0.334172 -0.160902 0.928676 
outer loop 
vertex  -2.272727 -0.909091 0.805512 
vertex  -2.727273 -0.909091 0.641950 
vertex  -2.272727 -1.363636 0.726758 
endloop 
endfacet 
facet normal  -0.334172 0.160902 0.928676 
outer loop 
vertex  -2.272727 1.363636 0.726758 
vertex  -2.727273 0.909091 0.641950 
vertex  -2.272727 0.909091 0.805512 
endloop 
endfacet 
facet normal  -0.424106 -0.235504 0.874455 
outer loop 
vertex  -3.181818 -1.363636 0.342726 
vertex  -3.181818 -1.818182 0.220310 
vertex  -2.727273 -1.818182 0.440762 
endloop 
endfacet 
facet normal  -0.424106 0.235504 0.874455 
outer loop 
vertex  -2.727273 1.818182 0.440762 
vertex  -3.181818 1.818182 0.220310 
vertex  -3.181818 1.363636 0.342726 
endloop 
endfacet 
facet normal  -0.487653 -0.227032 0.843001 
outer loop 
vertex  -3.181818 -1.363636 0.342726 
vertex  -3.636364 -1.363636 0.079783 
vertex  -3.181818 -1.818182 0.220310 
endloop 
endfacet 
facet normal  -0.487653 0.227032 0.843001 
outer loop 
vertex  -3.181818 1.818182 0.220310 
vertex  -3.636364 1.363636 0.079783 
vertex  -3.181818 1.363636 0.342726 
endloop 
endfacet 
facet normal  -0.346990 -0.235580 0.907800 
outer loop 
vertex  -2.272727 -1.818182 0.614504 
vertex  -2.727273 -1.363636 0.558719 
vertex  -2.727273 -1.818182 0.440762 
endloop 
endfacet 
facet normal  -0.346990 0.235580 0.907800 
outer loop 
vertex  -2.727273 1.818182 0.440762 
vertex  -2.727273 1.363636 0.558719 
vertex  -2.272727 1.818182 0.614504 
endloop 
endfacet 
facet normal  -0.341745 -0.169268 0.924424 
outer loop 
vertex  -2.272727 -1.363636 0.726758 
vertex  -2.727273 -0.909091 0.641950 
vertex  -2.727273 -1.363636 0.558719 
endloop 
endfacet 
facet normal  -0.341745 0.169268 0.924424 
outer loop 
vertex  -2.727273 1.363636 0.558719 
vertex  -2.727273 0.909091 0.641950 
vertex  -2.272727 1.363636 0.726758 
endloop 
endfacet 
facet normal  -0.260343 -0.231488 0.937355 
outer loop 
vertex  -2.272727 -1.363636 0.726758 
vertex  -2.272727 -1.818182 0.614504 
vertex  -1.818182 -1.818182 0.740750 
endloop 
endfacet 
facet normal  -0.260343 0.231488 0.937355 
outer loop 
vertex  -1.818182 1.818182 0.740750 
vertex  -2.272727 1.818182 0.614504 
vertex  -2.272727 1.363636 0.726758 
endloop 
endfacet 
facet normal  -0.341703 -0.289931 0.893968 
outer loop 
vertex  -2.727273 -1.818182 0.440762 
vertex  -2.272727 -2.272727 0.467086 
vertex  -2.272727 -1.818182 0.614504 
endloop 
endfacet 
facet normal  -0.341703 0.289931 0.893968 
outer loop 
vertex  -2.272727 1.818182 0.614504 
vertex  -2.272727 2.272727 0.467086 
vertex  -2.727273 1.818182 0.440762 
endloop 
endfacet 
facet normal  -0.172880 0.000000 0.984943 
outer loop 
vertex  -3.636364 -1.363636 0.079783 
vertex  -4.090909 -0.909091 0.000000 
vertex  -4.090909 -1.363636 0.000000 
endloop 
endfacet 
facet normal  -0.172880 -0.000000 0.984943 
outer loop 
vertex  -4.090909 1.363636 0.000000 
vertex  -4.090909 0.909091 0.000000 
vertex  -3.636364 1.363636 0.079783 
endloop 
endfacet 
facet normal  -0.170353 -0.170353 0.970546 
outer loop 
vertex  -3.636364 -1.818182 0.000000 
vertex  -3.636364 -1.363636 0.079783 
vertex  -4.090909 -1.363636 0.000000 
endloop 
endfacet 
facet normal  -0.170353 0.170353 0.970546 
outer loop 
vertex  -4.090909 1.363636 0.000000 
vertex  -3.636364 1.363636 0.079783 
vertex  -3.636364 1.818182 0.000000 
endloop 
endfacet 
facet normal  -0.430811 -0.156015 0.888854 
outer loop 
vertex  -3.636364 -1.818182 0.000000 
vertex  -3.181818 -1.818182 0.220310 
vertex  -3.636364 -1.363636 0.079783 
endloop 
endfacet 
facet normal  -0.430811 0.156015 0.888854 
outer loop 
vertex  -3.636364 1.363636 0.079783 
vertex  -3.181818 1.818182 0.220310 
vertex  -3.636364 1.818182 0.000000 
endloop 
endfacet 
facet normal  -0.348829 0.000000 0.937187 
outer loop 
vertex  -3.636364 -0.909091 0.169186 
vertex  -4.090909 -0.454545 0.000000 
vertex  -4.090909 -0.909091 0.000000 
endloop 
endfacet 
facet normal  -0.348829 -0.000000 0.937187 
outer loop 
vertex  -4.090909 0.909091 0.000000 
vertex  -4.090909 0.454545 0.000000 
vertex  -3.636364 0.909091 0.169186 
endloop 
endfacet 
facet normal  -0.467170 -0.034523 0.883493 
outer loop 
vertex  -3.636364 -0.454545 0.222591 
vertex  -3.636364 0.000000 0.240353 
vertex  -4.090909 0.000000 0.000000 
endloop 
endfacet 
facet normal  -0.467170 0.034523 0.883493 
outer loop 
vertex  -4.090909 -0.000000 0.000000 
vertex  -3.636364 -0.000000 0.240353 
vertex  -3.636364 0.454545 0.222591 
endloop 
endfacet 
facet normal  -0.494092 -0.033946 0.868747 
outer loop 
vertex  -3.636364 -0.454545 0.222591 
vertex  -3.181818 -0.454545 0.481110 
vertex  -3.636364 0.000000 0.240353 
endloop 
endfacet 
facet normal  -0.494092 0.033946 0.868747 
outer loop 
vertex  -3.636364 -0.000000 0.240353 
vertex  -3.181818 0.454545 0.481110 
vertex  -3.636364 0.454545 0.222591 
endloop 
endfacet 
facet normal  -0.417927 -0.098353 0.903141 
outer loop 
vertex  -2.727273 -0.454545 0.691450 
vertex  -3.181818 -0.454545 0.481110 
vertex  -2.727273 -0.909091 0.641950 
endloop 
endfacet 
facet normal  -0.417927 0.098353 0.903141 
outer loop 
vertex  -2.727273 0.909091 0.641950 
vertex  -3.181818 0.454545 0.481110 
vertex  -2.727273 0.454545 0.691450 
endloop 
endfacet 
facet normal  -0.490174 -0.163290 0.856193 
outer loop 
vertex  -3.636364 -0.909091 0.169186 
vertex  -3.181818 -1.363636 0.342726 
vertex  -3.181818 -0.909091 0.429415 
endloop 
endfacet 
facet normal  -0.490174 0.163290 0.856193 
outer loop 
vertex  -3.181818 0.909091 0.429415 
vertex  -3.181818 1.363636 0.342726 
vertex  -3.636364 0.909091 0.169186 
endloop 
endfacet 
facet normal  -0.491979 -0.098380 0.865031 
outer loop 
vertex  -3.181818 -0.909091 0.429415 
vertex  -3.181818 -0.454545 0.481110 
vertex  -3.636364 -0.454545 0.222591 
endloop 
endfacet 
facet normal  -0.491979 0.098380 0.865031 
outer loop 
vertex  -3.636364 0.454545 0.222591 
vertex  -3.181818 0.454545 0.481110 
vertex  -3.181818 0.909091 0.429415 
endloop 
endfacet 
facet normal  -0.421332 -0.102481 0.901097 
outer loop 
vertex  -3.181818 -0.909091 0.429415 
vertex  -2.727273 -0.909091 0.641950 
vertex  -3.181818 -0.454545 0.481110 
endloop 
endfacet 
facet normal  -0.421332 0.102481 0.901097 
outer loop 
vertex  -3.181818 0.454545 0.481110 
vertex  -2.727273 0.909091 0.641950 
vertex  -3.181818 0.909091 0.429415 
endloop 
endfacet 
facet normal  -0.493265 -0.032848 0.869258 
outer loop 
vertex  -3.636364 0.000000 0.240353 
vertex  -3.181818 -0.454545 0.481110 
vertex  -3.181818 0.000000 0.498287 
endloop 
endfacet 
facet normal  -0.493265 0.032848 0.869258 
outer loop 
vertex  -3.181818 -0.000000 0.498287 
vertex  -3.181818 0.454545 0.481110 
vertex  -3.636364 -0.000000 0.240353 
endloop 
endfacet 
facet normal  -0.333127 -0.034047 0.942267 
outer loop 
vertex  -2.727273 -0.454545 0.691450 
vertex  -2.272727 -0.454545 0.852149 
vertex  -2.727273 0.000000 0.707874 
endloop 
endfacet 
facet normal  -0.333127 0.034047 0.942267 
outer loop 
vertex  -2.727273 -0.000000 0.707874 
vertex  -2.272727 0.454545 0.852149 
vertex  -2.727273 0.454545 0.691450 
endloop 
endfacet 
facet normal  -0.230724 -0.030214 0.972550 
outer loop 
vertex  -1.818182 -0.454545 0.961300 
vertex  -1.818182 0.000000 0.975421 
vertex  -2.272727 0.000000 0.867587 
endloop 
endfacet 
facet normal  -0.230724 0.030214 0.972550 
outer loop 
vertex  -2.272727 -0.000000 0.867587 
vertex  -1.818182 -0.000000 0.975421 
vertex  -1.818182 0.454545 0.961300 
endloop 
endfacet 
facet normal  -0.120219 -0.030827 0.992269 
outer loop 
vertex  -1.818182 -0.454545 0.961300 
vertex  -1.363636 -0.454545 1.016371 
vertex  -1.818182 0.000000 0.975421 
endloop 
endfacet 
facet normal  -0.120219 0.030827 0.992269 
outer loop 
vertex  -1.818182 -0.000000 0.975421 
vertex  -1.363636 0.454545 1.016371 
vertex  -1.818182 0.454545 0.961300 
endloop 
endfacet 
facet normal  0.140968 -0.021341 0.989784 
outer loop 
vertex  -0.909091 0.000000 1.023726 
vertex  -0.909091 -0.454545 1.013925 
vertex  -0.454545 -0.454545 0.949187 
endloop 
endfacet 
facet normal  0.140968 0.021341 0.989784 
outer loop 
vertex  -0.454545 0.454545 0.949187 
vertex  -0.909091 0.454545 1.013925 
vertex  -0.909091 -0.000000 1.023726 
endloop 
endfacet 
facet normal  0.057739 0.047128 0.997219 
outer loop 
vertex  2.272727 -1.818182 0.000000 
vertex  1.818182 -1.818182 0.026318 
vertex  2.272727 -2.272727 0.021482 
endloop 
endfacet 
facet normal  0.057739 -0.047128 0.997219 
outer loop 
vertex  2.272727 2.272727 0.021482 
vertex  1.818182 1.818182 0.026318 
vertex  2.272727 1.818182 0.000000 
endloop 
endfacet 
facet normal  0.543253 0.041128 0.838561 
outer loop 
vertex  0.909091 -0.454545 0.294472 
vertex  1.363636 -0.454545 0.000000 
vertex  0.909091 0.000000 0.272179 
endloop 
endfacet 
facet normal  0.543253 -0.041128 0.838561 
outer loop 
vertex  0.909091 -0.000000 0.272179 
vertex  1.363636 0.454545 0.000000 
vertex  0.909091 0.454545 0.294472 
endloop 
endfacet 
facet normal  0.433021 0.091551 0.896722 
outer loop 
vertex  0.454545 -1.363636 0.636330 
vertex  0.909091 -1.818182 0.463240 
vertex  0.909091 -1.363636 0.416833 
endloop 
endfacet 
facet normal  0.433021 -0.091551 0.896722 
outer loop 
vertex  0.909091 1.363636 0.416833 
vertex  0.909091 1.818182 0.463240 
vertex  0.454545 1.363636 0.636330 
endloop 
endfacet 
facet normal  0.437804 0.229568 0.869268 
outer loop 
vertex  1.363636 -1.818182 0.255249 
vertex  1.818182 -1.818182 0.026318 
vertex  1.363636 -1.363636 0.135206 
endloop 
endfacet 
facet normal  0.437804 -0.229568 0.869268 
outer loop 
vertex  1.363636 1.363636 0.135206 
vertex  1.818182 1.818182 0.026318 
vertex  1.363636 1.818182 0.255249 
endloop 
endfacet 
facet normal  0.326674 0.126705 0.936605 
outer loop 
vertex  1.363636 -2.272727 0.316740 
vertex  1.818182 -2.272727 0.158201 
vertex  1.363636 -1.818182 0.255249 
endloop 
endfacet 
facet normal  0.326674 -0.126705 0.936605 
outer loop 
vertex  1.363636 1.818182 0.255249 
vertex  1.818182 2.272727 0.158201 
vertex  1.363636 2.272727 0.316740 
endloop 
endfacet 
facet normal  0.198604 -0.141158 0.969861 
outer loop 
vertex  1.818182 -2.727273 0.187799 
vertex  1.818182 -3.181818 0.121642 
vertex  2.272727 -3.181818 0.028562 
endloop 
endfacet 
facet normal  0.198604 0.141158 0.969861 
outer loop 
vertex  2.272727 3.181818 0.028562 
vertex  1.818182 3.181818 0.121642 
vertex  1.818182 2.727273 0.187799 
endloop 
endfacet 
facet normal  0.047155 0.047155 0.997774 
outer loop 
vertex  2.727273 -2.272727 0.000000 
vertex  2.272727 -1.818182 0.000000 
vertex  2.272727 -2.272727 0.021482 
endloop 
endfacet 
facet normal  0.047155 -0.047155 0.997774 
outer loop 
vertex  2.272727 2.272727 0.021482 
vertex  2.272727 1.818182 0.000000 
vertex  2.727273 2.272727 0.000000 
endloop 
endfacet 
facet normal  0.000000 -0.258516 0.966007 
outer loop 
vertex  2.272727 -3.636364 0.000000 
vertex  1.818182 -3.181818 0.121642 
vertex  1.818182 -3.636364 0.000000 
endloop 
endfacet 
facet normal  0.000000 0.258516 0.966007 
outer loop 
vertex  1.818182 3.636364 0.000000 
vertex  1.818182 3.181818 0.121642 
vertex  2.272727 3.636364 0.000000 
endloop 
endfacet 
facet normal  0.315248 0.009399 0.948963 
outer loop 
vertex  0.909091 -1.818182 0.463240 
vertex  0.909091 -2.272727 0.467742 
vertex  1.363636 -2.272727 0.316740 
endloop 
endfacet 
facet normal  0.315248 -0.009399 0.948963 
outer loop 
vertex  1.363636 2.272727 0.316740 
vertex  0.909091 2.272727 0.467742 
vertex  0.909091 1.818182 0.463240 
endloop 
endfacet 
facet normal  0.257989 -0.082793 0.962594 
outer loop 
vertex  0.454545 -1.818182 0.632090 
vertex  0.000000 -1.818182 0.753915 
vertex  0.454545 -2.272727 0.592994 
endloop 
endfacet 
facet normal  0.257989 0.082793 0.962594 
outer loop 
vertex  0.454545 2.272727 0.592994 
vertex  0.000000 1.818182 0.753915 
vertex  0.454545 1.818182 0.632090 
endloop 
endfacet 
facet normal  0.513891 0.219044 0.829419 
outer loop 
vertex  1.363636 -1.363636 0.135206 
vertex  0.909091 -1.363636 0.416833 
vertex  1.363636 -1.818182 0.255249 
endloop 
endfacet 
facet normal  0.513891 -0.219044 0.829419 
outer loop 
vertex  1.363636 1.818182 0.255249 
vertex  0.909091 1.363636 0.416833 
vertex  1.363636 1.363636 0.135206 
endloop 
endfacet 
facet normal  0.348206 0.009284 0.937372 
outer loop 
vertex  0.454545 -1.818182 0.632090 
vertex  0.909091 -2.272727 0.467742 
vertex  0.909091 -1.818182 0.463240 
endloop 
endfacet 
facet normal  0.348206 -0.009284 0.937372 
outer loop 
vertex  0.909091 1.818182 0.463240 
vertex  0.909091 2.272727 0.467742 
vertex  0.454545 1.818182 0.632090 
endloop 
endfacet 
facet normal  0.522745 0.122024 0.843711 
outer loop 
vertex  0.909091 -0.909091 0.351093 
vertex  0.909091 -1.363636 0.416833 
vertex  1.363636 -1.363636 0.135206 
endloop 
endfacet 
facet normal  0.522745 -0.122024 0.843711 
outer loop 
vertex  1.363636 1.363636 0.135206 
vertex  0.909091 1.363636 0.416833 
vertex  0.909091 0.909091 0.351093 
endloop 
endfacet 
facet normal  0.506386 0.123429 0.853427 
outer loop 
vertex  0.909091 -0.909091 0.351093 
vertex  0.454545 -0.909091 0.620800 
vertex  0.909091 -1.363636 0.416833 
endloop 
endfacet 
facet normal  0.506386 -0.123429 0.853427 
outer loop 
vertex  0.909091 1.363636 0.416833 
vertex  0.454545 0.909091 0.620800 
vertex  0.909091 0.909091 0.351093 
endloop 
endfacet 
facet normal  0.577752 0.039984 0.815233 
outer loop 
vertex  0.454545 0.000000 0.594313 
vertex  0.909091 -0.454545 0.294472 
vertex  0.909091 0.000000 0.272179 
endloop 
endfacet 
facet normal  0.577752 -0.039984 0.815233 
outer loop 
vertex  0.909091 -0.000000 0.272179 
vertex  0.909091 0.454545 0.294472 
vertex  0.454545 -0.000000 0.594313 
endloop 
endfacet 
facet normal  0.608339 0.098106 0.787591 
outer loop 
vertex  0.909091 -0.909091 0.351093 
vertex  1.363636 -0.909091 0.000000 
vertex  0.909091 -0.454545 0.294472 
endloop 
endfacet 
facet normal  0.608339 -0.098106 0.787591 
outer loop 
vertex  0.909091 0.454545 0.294472 
vertex  1.363636 0.909091 0.000000 
vertex  0.909091 0.909091 0.351093 
endloop 
endfacet 
facet normal  0.595023 0.229144 0.770351 
outer loop 
vertex  1.363636 -1.363636 0.135206 
vertex  1.363636 -0.909091 0.000000 
vertex  0.909091 -0.909091 0.351093 
endloop 
endfacet 
facet normal  0.595023 -0.229144 0.770351 
outer loop 
vertex  0.909091 0.909091 0.351093 
vertex  1.363636 0.909091 0.000000 
vertex  1.363636 1.363636 0.135206 
endloop 
endfacet 
facet normal  0.274182 0.274182 0.921764 
outer loop 
vertex  1.363636 -1.363636 0.135206 
vertex  1.818182 -1.363636 0.000000 
vertex  1.363636 -0.909091 0.000000 
endloop 
endfacet 
facet normal  0.274182 -0.274182 0.921764 
outer loop 
vertex  1.363636 0.909091 0.000000 
vertex  1.818182 1.363636 0.000000 
vertex  1.363636 1.363636 0.135206 
endloop 
endfacet 
facet normal  0.513734 0.000000 0.857949 
outer loop 
vertex  0.909091 0.000000 0.272179 
vertex  1.363636 -0.454545 0.000000 
vertex  1.363636 0.000000 0.000000 
endloop 
endfacet 
facet normal  0.513734 -0.000000 0.857949 
outer loop 
vertex  1.363636 -0.000000 0.000000 
vertex  1.363636 0.454545 0.000000 
vertex  0.909091 -0.000000 0.272179 
endloop 
endfacet 
facet normal  0.438301 0.015709 0.898691 
outer loop 
vertex  0.454545 -0.454545 0.602259 
vertex  0.454545 0.000000 0.594313 
vertex  0.000000 0.000000 0.816000 
endloop 
endfacet 
facet normal  0.438301 -0.015709 0.898691 
outer loop 
vertex  0.000000 -0.000000 0.816000 
vertex  0.454545 -0.000000 0.594313 
vertex  0.454545 0.454545 0.602259 
endloop 
endfacet 
facet normal  0.293084 -0.001412 0.956086 
outer loop 
vertex  0.000000 0.000000 0.816000 
vertex  -0.454545 0.000000 0.955339 
vertex  0.000000 -0.454545 0.815329 
endloop 
endfacet 
facet normal  0.293084 0.001412 0.956086 
outer loop 
vertex  0.000000 0.454545 0.815329 
vertex  -0.454545 -0.000000 0.955339 
vertex  0.000000 -0.000000 0.816000 
endloop 
endfacet 
facet normal  0.252280 -0.042951 0.966701 
outer loop 
vertex  -0.454545 -0.454545 0.949187 
vertex  -0.454545 -0.909091 0.928992 
vertex  0.000000 -0.909091 0.810369 
endloop 
endfacet 
facet normal  0.252280 0.042951 0.966701 
outer loop 
vertex  0.000000 0.909091 0.810369 
vertex  -0.454545 0.909091 0.928992 
vertex  -0.454545 0.454545 0.949187 
endloop 
endfacet 
facet normal  0.384727 0.031517 0.922492 
outer loop 
vertex  0.000000 -0.909091 0.810369 
vertex  0.454545 -1.363636 0.636330 
vertex  0.454545 -0.909091 0.620800 
endloop 
endfacet 
facet normal  0.384727 -0.031517 0.922492 
outer loop 
vertex  0.454545 0.909091 0.620800 
vertex  0.454545 1.363636 0.636330 
vertex  0.000000 0.909091 0.810369 
endloop 
endfacet 
facet normal  0.509975 0.035060 0.859475 
outer loop 
vertex  0.909091 -0.909091 0.351093 
vertex  0.454545 -0.454545 0.602259 
vertex  0.454545 -0.909091 0.620800 
endloop 
endfacet 
facet normal  0.509975 -0.035060 0.859475 
outer loop 
vertex  0.454545 0.909091 0.620800 
vertex  0.454545 0.454545 0.602259 
vertex  0.909091 0.909091 0.351093 
endloop 
endfacet 
facet normal  0.560625 0.014472 0.827943 
outer loop 
vertex  0.909091 -0.454545 0.294472 
vertex  0.454545 0.000000 0.594313 
vertex  0.454545 -0.454545 0.602259 
endloop 
endfacet 
facet normal  0.560625 -0.014472 0.827943 
outer loop 
vertex  0.454545 0.454545 0.602259 
vertex  0.454545 -0.000000 0.594313 
vertex  0.909091 0.454545 0.294472 
endloop 
endfacet 
facet normal  0.085229 -0.139336 0.986571 
outer loop 
vertex  -0.454545 -1.818182 0.825831 
vertex  -0.454545 -1.363636 0.890028 
vertex  -0.909091 -1.363636 0.929296 
endloop 
endfacet 
facet normal  0.085229 0.139336 0.986571 
outer loop 
vertex  -0.909091 1.363636 0.929296 
vertex  -0.454545 1.363636 0.890028 
vertex  -0.454545 1.818182 0.825831 
endloop 
endfacet 
facet normal  0.282478 -0.010466 0.959217 
outer loop 
vertex  0.000000 -0.909091 0.810369 
vertex  0.000000 -0.454545 0.815329 
vertex  -0.454545 -0.454545 0.949187 
endloop 
endfacet 
facet normal  0.282478 0.010466 0.959217 
outer loop 
vertex  -0.454545 0.454545 0.949187 
vertex  0.000000 0.454545 0.815329 
vertex  0.000000 0.909091 0.810369 
endloop 
endfacet 
facet normal  0.282470 -0.012981 0.959188 
outer loop 
vertex  -0.454545 0.000000 0.955339 
vertex  -0.454545 -0.454545 0.949187 
vertex  0.000000 -0.454545 0.815329 
endloop 
endfacet 
facet normal  0.282470 0.012981 0.959188 
outer loop 
vertex  0.000000 0.454545 0.815329 
vertex  -0.454545 0.454545 0.949187 
vertex  -0.454545 -0.000000 0.955339 
endloop 
endfacet 
facet normal  0.148763 -0.013382 0.988782 
outer loop 
vertex  -0.454545 0.000000 0.955339 
vertex  -0.909091 0.000000 1.023726 
vertex  -0.454545 -0.454545 0.949187 
endloop 
endfacet 
facet normal  0.148763 0.013382 0.988782 
outer loop 
vertex  -0.454545 0.454545 0.949187 
vertex  -0.909091 -0.000000 1.023726 
vertex  -0.454545 -0.000000 0.955339 
endloop 
endfacet 
facet normal  0.207399 -0.083549 0.974682 
outer loop 
vertex  -0.454545 -1.363636 0.890028 
vertex  0.000000 -1.363636 0.793307 
vertex  -0.454545 -0.909091 0.928992 
endloop 
endfacet 
facet normal  0.207399 0.083549 0.974682 
outer loop 
vertex  -0.454545 0.909091 0.928992 
vertex  0.000000 1.363636 0.793307 
vertex  -0.454545 1.363636 0.890028 
endloop 
endfacet 
facet normal  0.326227 -0.035457 0.944626 
outer loop 
vertex  0.000000 -1.363636 0.793307 
vertex  0.454545 -1.363636 0.636330 
vertex  0.000000 -0.909091 0.810369 
endloop 
endfacet 
facet normal  0.326227 0.035457 0.944626 
outer loop 
vertex  0.000000 0.909091 0.810369 
vertex  0.454545 1.363636 0.636330 
vertex  0.000000 1.363636 0.793307 
endloop 
endfacet 
facet normal  0.053979 -0.282748 0.957674 
outer loop 
vertex  0.000000 -2.727273 0.569801 
vertex  -0.454545 -2.272727 0.729623 
vertex  -0.454545 -2.727273 0.595421 
endloop 
endfacet 
facet normal  0.053979 0.282748 0.957674 
outer loop 
vertex  -0.454545 2.727273 0.595421 
vertex  -0.454545 2.272727 0.729623 
vertex  0.000000 2.727273 0.569801 
endloop 
endfacet 
facet normal  0.257976 -0.083418 0.962544 
outer loop 
vertex  0.000000 -1.818182 0.753915 
vertex  0.454545 -1.818182 0.632090 
vertex  0.000000 -1.363636 0.793307 
endloop 
endfacet 
facet normal  0.257976 0.083418 0.962544 
outer loop 
vertex  0.000000 1.363636 0.793307 
vertex  0.454545 1.818182 0.632090 
vertex  0.000000 1.818182 0.753915 
endloop 
endfacet 
facet normal  0.118514 -0.084805 0.989324 
outer loop 
vertex  -0.909091 -0.909091 0.983443 
vertex  -0.454545 -1.363636 0.890028 
vertex  -0.454545 -0.909091 0.928992 
endloop 
endfacet 
facet normal  0.118514 0.084805 0.989324 
outer loop 
vertex  -0.454545 0.909091 0.928992 
vertex  -0.454545 1.363636 0.890028 
vertex  -0.909091 0.909091 0.983443 
endloop 
endfacet 
facet normal  0.207383 -0.084463 0.974607 
outer loop 
vertex  -0.454545 -1.363636 0.890028 
vertex  0.000000 -1.818182 0.753915 
vertex  0.000000 -1.363636 0.793307 
endloop 
endfacet 
facet normal  0.207383 0.084463 0.974607 
outer loop 
vertex  0.000000 1.363636 0.793307 
vertex  0.000000 1.818182 0.753915 
vertex  -0.454545 1.363636 0.890028 
endloop 
endfacet 
facet normal  0.252346 -0.036296 0.966956 
outer loop 
vertex  -0.454545 -0.909091 0.928992 
vertex  0.000000 -1.363636 0.793307 
vertex  0.000000 -0.909091 0.810369 
endloop 
endfacet 
facet normal  0.252346 0.036296 0.966956 
outer loop 
vertex  0.000000 0.909091 0.810369 
vertex  0.000000 1.363636 0.793307 
vertex  -0.454545 0.909091 0.928992 
endloop 
endfacet 
facet normal  0.154774 -0.138160 0.978242 
outer loop 
vertex  -0.454545 -1.363636 0.890028 
vertex  -0.454545 -1.818182 0.825831 
vertex  0.000000 -1.818182 0.753915 
endloop 
endfacet 
facet normal  0.154774 0.138160 0.978242 
outer loop 
vertex  0.000000 1.818182 0.753915 
vertex  -0.454545 1.818182 0.825831 
vertex  -0.454545 1.363636 0.890028 
endloop 
endfacet 
facet normal  0.100906 -0.238691 0.965839 
outer loop 
vertex  0.000000 -2.727273 0.569801 
vertex  0.000000 -2.272727 0.682134 
vertex  -0.454545 -2.272727 0.729623 
endloop 
endfacet 
facet normal  0.100906 0.238691 0.965839 
outer loop 
vertex  -0.454545 2.272727 0.729623 
vertex  0.000000 2.272727 0.682134 
vertex  0.000000 2.727273 0.569801 
endloop 
endfacet 
facet normal  0.264746 -0.082636 0.960771 
outer loop 
vertex  0.454545 -2.272727 0.592994 
vertex  0.909091 -2.272727 0.467742 
vertex  0.454545 -1.818182 0.632090 
endloop 
endfacet 
facet normal  0.264746 0.082636 0.960771 
outer loop 
vertex  0.454545 1.818182 0.632090 
vertex  0.909091 2.272727 0.467742 
vertex  0.454545 2.272727 0.592994 
endloop 
endfacet 
facet normal  0.154406 -0.154114 0.975914 
outer loop 
vertex  0.000000 -2.272727 0.682134 
vertex  0.000000 -1.818182 0.753915 
vertex  -0.454545 -1.818182 0.825831 
endloop 
endfacet 
facet normal  0.154406 0.154114 0.975914 
outer loop 
vertex  -0.454545 1.818182 0.825831 
vertex  0.000000 1.818182 0.753915 
vertex  0.000000 2.272727 0.682134 
endloop 
endfacet 
facet normal  0.190172 -0.153138 0.969734 
outer loop 
vertex  0.000000 -2.272727 0.682134 
vertex  0.454545 -2.272727 0.592994 
vertex  0.000000 -1.818182 0.753915 
endloop 
endfacet 
facet normal  0.190172 0.153138 0.969734 
outer loop 
vertex  0.000000 1.818182 0.753915 
vertex  0.454545 2.272727 0.592994 
vertex  0.000000 2.272727 0.682134 
endloop 
endfacet 
facet normal  0.130560 -0.237862 0.962484 
outer loop 
vertex  0.000000 -2.727273 0.569801 
vertex  0.454545 -2.727273 0.508142 
vertex  0.000000 -2.272727 0.682134 
endloop 
endfacet 
facet normal  0.130560 0.237862 0.962484 
outer loop 
vertex  0.000000 2.272727 0.682134 
vertex  0.454545 2.727273 0.508142 
vertex  0.000000 2.727273 0.569801 
endloop 
endfacet 
facet normal  0.128792 -0.286283 0.949450 
outer loop 
vertex  0.000000 -2.727273 0.569801 
vertex  0.454545 -3.181818 0.371085 
vertex  0.454545 -2.727273 0.508142 
endloop 
endfacet 
facet normal  0.128792 0.286283 0.949450 
outer loop 
vertex  0.454545 2.727273 0.508142 
vertex  0.454545 3.181818 0.371085 
vertex  0.000000 2.727273 0.569801 
endloop 
endfacet 
facet normal  0.434642 0.030751 0.900078 
outer loop 
vertex  0.454545 -0.909091 0.620800 
vertex  0.454545 -1.363636 0.636330 
vertex  0.909091 -1.363636 0.416833 
endloop 
endfacet 
facet normal  0.434642 -0.030751 0.900078 
outer loop 
vertex  0.909091 1.363636 0.416833 
vertex  0.454545 1.363636 0.636330 
vertex  0.454545 0.909091 0.620800 
endloop 
endfacet 
facet normal  0.326419 -0.008817 0.945184 
outer loop 
vertex  0.000000 -1.363636 0.793307 
vertex  0.454545 -1.818182 0.632090 
vertex  0.454545 -1.363636 0.636330 
endloop 
endfacet 
facet normal  0.326419 0.008817 0.945184 
outer loop 
vertex  0.454545 1.363636 0.636330 
vertex  0.454545 1.818182 0.632090 
vertex  0.000000 1.363636 0.793307 
endloop 
endfacet 
facet normal  0.202204 -0.185767 0.961563 
outer loop 
vertex  1.363636 -2.727273 0.305042 
vertex  1.363636 -3.181818 0.217227 
vertex  1.818182 -3.181818 0.121642 
endloop 
endfacet 
facet normal  0.202204 0.185767 0.961563 
outer loop 
vertex  1.818182 3.181818 0.121642 
vertex  1.363636 3.181818 0.217227 
vertex  1.363636 2.727273 0.305042 
endloop 
endfacet 
facet normal  0.264108 -0.107763 0.958454 
outer loop 
vertex  0.909091 -2.727273 0.416635 
vertex  0.909091 -2.272727 0.467742 
vertex  0.454545 -2.272727 0.592994 
endloop 
endfacet 
facet normal  0.264108 0.107763 0.958454 
outer loop 
vertex  0.454545 2.272727 0.592994 
vertex  0.909091 2.272727 0.467742 
vertex  0.909091 2.727273 0.416635 
endloop 
endfacet 
facet normal  0.412976 0.122094 0.902521 
outer loop 
vertex  0.909091 -1.818182 0.463240 
vertex  1.363636 -2.272727 0.316740 
vertex  1.363636 -1.818182 0.255249 
endloop 
endfacet 
facet normal  0.412976 -0.122094 0.902521 
outer loop 
vertex  1.363636 1.818182 0.255249 
vertex  1.363636 2.272727 0.316740 
vertex  0.909091 1.818182 0.463240 
endloop 
endfacet 
facet normal  0.249683 -0.024913 0.968007 
outer loop 
vertex  1.363636 -2.727273 0.305042 
vertex  1.818182 -2.727273 0.187799 
vertex  1.363636 -2.272727 0.316740 
endloop 
endfacet 
facet normal  0.249683 0.024913 0.968007 
outer loop 
vertex  1.363636 2.272727 0.316740 
vertex  1.818182 2.727273 0.187799 
vertex  1.363636 2.727273 0.305042 
endloop 
endfacet 
facet normal  0.221896 0.063356 0.973010 
outer loop 
vertex  1.818182 -2.272727 0.158201 
vertex  1.818182 -2.727273 0.187799 
vertex  2.272727 -2.727273 0.084139 
endloop 
endfacet 
facet normal  0.221896 -0.063356 0.973010 
outer loop 
vertex  2.272727 2.727273 0.084139 
vertex  1.818182 2.727273 0.187799 
vertex  1.818182 2.272727 0.158201 
endloop 
endfacet 
facet normal  0.247316 -0.139553 0.958833 
outer loop 
vertex  1.363636 -2.727273 0.305042 
vertex  1.818182 -3.181818 0.121642 
vertex  1.818182 -2.727273 0.187799 
endloop 
endfacet 
facet normal  0.247316 0.139553 0.958833 
outer loop 
vertex  1.818182 2.727273 0.187799 
vertex  1.818182 3.181818 0.121642 
vertex  1.363636 2.727273 0.305042 
endloop 
endfacet 
facet normal  0.189292 -0.180188 0.965247 
outer loop 
vertex  0.000000 -2.272727 0.682134 
vertex  0.454545 -2.727273 0.508142 
vertex  0.454545 -2.272727 0.592994 
endloop 
endfacet 
facet normal  0.189292 0.180188 0.965247 
outer loop 
vertex  0.454545 2.272727 0.592994 
vertex  0.454545 2.727273 0.508142 
vertex  0.000000 2.272727 0.682134 
endloop 
endfacet 
facet normal  0.234337 -0.184403 0.954506 
outer loop 
vertex  0.909091 -2.727273 0.416635 
vertex  1.363636 -3.181818 0.217227 
vertex  1.363636 -2.727273 0.305042 
endloop 
endfacet 
facet normal  0.234337 0.184403 0.954506 
outer loop 
vertex  1.363636 2.727273 0.305042 
vertex  1.363636 3.181818 0.217227 
vertex  0.909091 2.727273 0.416635 
endloop 
endfacet 
facet normal  0.140378 -0.285829 0.947943 
outer loop 
vertex  0.454545 -3.181818 0.371085 
vertex  0.909091 -3.181818 0.303773 
vertex  0.454545 -2.727273 0.508142 
endloop 
endfacet 
facet normal  0.140378 0.285829 0.947943 
outer loop 
vertex  0.454545 2.727273 0.508142 
vertex  0.909091 3.181818 0.303773 
vertex  0.454545 3.181818 0.371085 
endloop 
endfacet 
facet normal  0.081138 -0.388143 0.918021 
outer loop 
vertex  0.454545 -3.181818 0.371085 
vertex  0.000000 -3.181818 0.411259 
vertex  0.454545 -3.636364 0.178901 
endloop 
endfacet 
facet normal  0.081138 0.388143 0.918021 
outer loop 
vertex  0.454545 3.636364 0.178901 
vertex  0.000000 3.181818 0.411259 
vertex  0.454545 3.181818 0.371085 
endloop 
endfacet 
facet normal  0.181713 -0.236969 0.954372 
outer loop 
vertex  1.363636 -3.181818 0.217227 
vertex  0.909091 -2.727273 0.416635 
vertex  0.909091 -3.181818 0.303773 
endloop 
endfacet 
facet normal  0.181713 0.236969 0.954372 
outer loop 
vertex  0.909091 3.181818 0.303773 
vertex  0.909091 2.727273 0.416635 
vertex  1.363636 3.181818 0.217227 
endloop 
endfacet 
facet normal  0.237017 -0.108546 0.965423 
outer loop 
vertex  1.363636 -2.727273 0.305042 
vertex  0.909091 -2.272727 0.467742 
vertex  0.909091 -2.727273 0.416635 
endloop 
endfacet 
facet normal  0.237017 0.108546 0.965423 
outer loop 
vertex  0.909091 2.727273 0.416635 
vertex  0.909091 2.272727 0.467742 
vertex  1.363636 2.727273 0.305042 
endloop 
endfacet 
facet normal  -0.014036 -0.439664 0.898053 
outer loop 
vertex  -0.454545 -3.181818 0.418618 
vertex  -0.454545 -3.636364 0.196084 
vertex  0.000000 -3.636364 0.203188 
endloop 
endfacet 
facet normal  -0.014036 0.439664 0.898053 
outer loop 
vertex  0.000000 3.636364 0.203188 
vertex  -0.454545 3.636364 0.196084 
vertex  -0.454545 3.181818 0.418618 
endloop 
endfacet 
facet normal  -0.057871 -0.438970 0.896636 
outer loop 
vertex  -0.454545 -3.181818 0.418618 
vertex  -0.909091 -3.181818 0.389280 
vertex  -0.454545 -3.636364 0.196084 
endloop 
endfacet 
facet normal  -0.057871 0.438970 0.896636 
outer loop 
vertex  -0.454545 3.636364 0.196084 
vertex  -0.909091 3.181818 0.389280 
vertex  -0.454545 3.181818 0.418618 
endloop 
endfacet 
facet normal  0.014719 -0.416176 0.909165 
outer loop 
vertex  0.000000 -3.636364 0.203188 
vertex  0.000000 -3.181818 0.411259 
vertex  -0.454545 -3.181818 0.418618 
endloop 
endfacet 
facet normal  0.014719 0.416176 0.909165 
outer loop 
vertex  -0.454545 3.181818 0.418618 
vertex  0.000000 3.181818 0.411259 
vertex  0.000000 3.636364 0.203188 
endloop 
endfacet 
facet normal  0.083164 -0.328193 0.940943 
outer loop 
vertex  0.454545 -3.181818 0.371085 
vertex  0.000000 -2.727273 0.569801 
vertex  0.000000 -3.181818 0.411259 
endloop 
endfacet 
facet normal  0.083164 0.328193 0.940943 
outer loop 
vertex  0.000000 3.181818 0.411259 
vertex  0.000000 2.727273 0.569801 
vertex  0.454545 3.181818 0.371085 
endloop 
endfacet 
facet normal  0.000000 -0.408096 0.912939 
outer loop 
vertex  0.000000 -4.090909 0.000000 
vertex  0.454545 -4.090909 0.000000 
vertex  0.000000 -3.636364 0.203188 
endloop 
endfacet 
facet normal  0.000000 0.408096 0.912939 
outer loop 
vertex  0.000000 3.636364 0.203188 
vertex  0.454545 4.090909 0.000000 
vertex  0.000000 4.090909 0.000000 
endloop 
endfacet 
facet normal  0.136811 -0.357446 0.923859 
outer loop 
vertex  0.909091 -3.636364 0.127906 
vertex  0.909091 -3.181818 0.303773 
vertex  0.454545 -3.181818 0.371085 
endloop 
endfacet 
facet normal  0.136811 0.357446 0.923859 
outer loop 
vertex  0.454545 3.181818 0.371085 
vertex  0.909091 3.181818 0.303773 
vertex  0.909091 3.636364 0.127906 
endloop 
endfacet 
facet normal  0.000000 -0.366237 0.930522 
outer loop 
vertex  0.909091 -4.090909 0.000000 
vertex  0.454545 -3.636364 0.178901 
vertex  0.454545 -4.090909 0.000000 
endloop 
endfacet 
facet normal  0.000000 0.366237 0.930522 
outer loop 
vertex  0.454545 4.090909 0.000000 
vertex  0.454545 3.636364 0.178901 
vertex  0.909091 4.090909 0.000000 
endloop 
endfacet 
facet normal  0.145788 -0.356984 0.922664 
outer loop 
vertex  1.363636 -3.636364 0.056085 
vertex  0.909091 -3.181818 0.303773 
vertex  0.909091 -3.636364 0.127906 
endloop 
endfacet 
facet normal  0.145788 0.356984 0.922664 
outer loop 
vertex  0.909091 3.636364 0.127906 
vertex  0.909091 3.181818 0.303773 
vertex  1.363636 3.636364 0.056085 
endloop 
endfacet 
facet normal  0.107370 -0.269308 0.957050 
outer loop 
vertex  0.909091 -4.090909 0.000000 
vertex  0.909091 -3.636364 0.127906 
vertex  0.454545 -3.636364 0.178901 
endloop 
endfacet 
facet normal  0.107370 0.269308 0.957050 
outer loop 
vertex  0.454545 3.636364 0.178901 
vertex  0.909091 3.636364 0.127906 
vertex  0.909091 4.090909 0.000000 
endloop 
endfacet 
facet normal  0.000000 -0.270874 0.962615 
outer loop 
vertex  0.909091 -4.090909 0.000000 
vertex  1.363636 -4.090909 0.000000 
vertex  0.909091 -3.636364 0.127906 
endloop 
endfacet 
facet normal  0.000000 0.270874 0.962615 
outer loop 
vertex  0.909091 3.636364 0.127906 
vertex  1.363636 4.090909 0.000000 
vertex  0.909091 4.090909 0.000000 
endloop 
endfacet 
facet normal  0.154925 -0.120979 0.980491 
outer loop 
vertex  1.363636 -3.636364 0.056085 
vertex  0.909091 -3.636364 0.127906 
vertex  1.363636 -4.090909 0.000000 
endloop 
endfacet 
facet normal  0.154925 0.120979 0.980491 
outer loop 
vertex  1.363636 4.090909 0.000000 
vertex  0.909091 3.636364 0.127906 
vertex  1.363636 3.636364 0.056085 
endloop 
endfacet 
facet normal  0.285559 0.130869 0.949384 
outer loop 
vertex  2.272727 -2.727273 0.084139 
vertex  2.272727 -2.272727 0.021482 
vertex  1.818182 -2.272727 0.158201 
endloop 
endfacet 
facet normal  0.285559 -0.130869 0.949384 
outer loop 
vertex  1.818182 2.272727 0.158201 
vertex  2.272727 2.272727 0.021482 
vertex  2.272727 2.727273 0.084139 
endloop 
endfacet 
facet normal  0.122457 -0.000000 0.992474 
outer loop 
vertex  1.818182 -4.090909 0.000000 
vertex  1.818182 -3.636364 0.000000 
vertex  1.363636 -3.636364 0.056085 
endloop 
endfacet 
facet normal  0.122457 0.000000 0.992474 
outer loop 
vertex  1.363636 3.636364 0.056085 
vertex  1.818182 3.636364 0.000000 
vertex  1.818182 4.090909 0.000000 
endloop 
endfacet 
facet normal  0.148763 0.135035 0.979610 
outer loop 
vertex  2.727273 -2.727273 0.015112 
vertex  2.272727 -2.272727 0.021482 
vertex  2.272727 -2.727273 0.084139 
endloop 
endfacet 
facet normal  0.148763 -0.135035 0.979610 
outer loop 
vertex  2.272727 2.727273 0.084139 
vertex  2.272727 2.272727 0.021482 
vertex  2.727273 2.727273 0.015112 
endloop 
endfacet 
facet normal  0.277523 0.267705 0.922667 
outer loop 
vertex  1.818182 -1.818182 0.026318 
vertex  1.818182 -2.272727 0.158201 
vertex  2.272727 -2.272727 0.021482 
endloop 
endfacet 
facet normal  0.277523 -0.267705 0.922667 
outer loop 
vertex  2.272727 2.272727 0.021482 
vertex  1.818182 2.272727 0.158201 
vertex  1.818182 1.818182 0.026318 
endloop 
endfacet 
facet normal  0.435435 0.250847 0.864565 
outer loop 
vertex  1.818182 -1.818182 0.026318 
vertex  1.363636 -1.818182 0.255249 
vertex  1.818182 -2.272727 0.158201 
endloop 
endfacet 
facet normal  0.435435 -0.250847 0.864565 
outer loop 
vertex  1.818182 2.272727 0.158201 
vertex  1.363636 1.818182 0.255249 
vertex  1.818182 1.818182 0.026318 
endloop 
endfacet 
facet normal  0.200234 -0.061444 0.977820 
outer loop 
vertex  2.272727 -3.636364 0.000000 
vertex  2.272727 -3.181818 0.028562 
vertex  1.818182 -3.181818 0.121642 
endloop 
endfacet 
facet normal  0.200234 0.061444 0.977820 
outer loop 
vertex  1.818182 3.181818 0.121642 
vertex  2.272727 3.181818 0.028562 
vertex  2.272727 3.636364 0.000000 
endloop 
endfacet 
facet normal  0.000000 -0.062714 0.998032 
outer loop 
vertex  2.272727 -3.636364 0.000000 
vertex  2.727273 -3.636364 0.000000 
vertex  2.272727 -3.181818 0.028562 
endloop 
endfacet 
facet normal  0.000000 0.062714 0.998032 
outer loop 
vertex  2.272727 3.181818 0.028562 
vertex  2.727273 3.636364 0.000000 
vertex  2.272727 3.636364 0.000000 
endloop 
endfacet 
facet normal  0.220780 -0.118370 0.968114 
outer loop 
vertex  2.272727 -3.181818 0.028562 
vertex  2.272727 -2.727273 0.084139 
vertex  1.818182 -2.727273 0.187799 
endloop 
endfacet 
facet normal  0.220780 0.118370 0.968114 
outer loop 
vertex  1.818182 2.727273 0.187799 
vertex  2.272727 2.727273 0.084139 
vertex  2.272727 3.181818 0.028562 
endloop 
endfacet 
facet normal  0.062252 -0.121129 0.990683 
outer loop 
vertex  2.272727 -3.181818 0.028562 
vertex  2.727273 -3.181818 0.000000 
vertex  2.272727 -2.727273 0.084139 
endloop 
endfacet 
facet normal  0.062252 0.121129 0.990683 
outer loop 
vertex  2.272727 2.727273 0.084139 
vertex  2.727273 3.181818 0.000000 
vertex  2.272727 3.181818 0.028562 
endloop 
endfacet 
facet normal  0.047181 0.033191 0.998335 
outer loop 
vertex  2.727273 -2.272727 0.000000 
vertex  2.272727 -2.272727 0.021482 
vertex  2.727273 -2.727273 0.015112 
endloop 
endfacet 
facet normal  0.047181 -0.033191 0.998335 
outer loop 
vertex  2.727273 2.727273 0.015112 
vertex  2.272727 2.272727 0.021482 
vertex  2.727273 2.272727 0.000000 
endloop 
endfacet 
facet normal  0.033210 0.033210 0.998897 
outer loop 
vertex  3.181818 -2.727273 0.000000 
vertex  2.727273 -2.272727 0.000000 
vertex  2.727273 -2.727273 0.015112 
endloop 
endfacet 
facet normal  0.033210 -0.033210 0.998897 
outer loop 
vertex  2.727273 2.727273 0.015112 
vertex  2.727273 2.272727 0.000000 
vertex  3.181818 2.727273 0.000000 
endloop 
endfacet 
facet normal  0.062714 0.000000 0.998032 
outer loop 
vertex  2.727273 -3.181818 0.000000 
vertex  2.272727 -3.181818 0.028562 
vertex  2.727273 -3.636364 0.000000 
endloop 
endfacet 
facet normal  0.062714 -0.000000 0.998032 
outer loop 
vertex  2.727273 3.636364 0.000000 
vertex  2.272727 3.181818 0.028562 
vertex  2.727273 3.181818 0.000000 
endloop 
endfacet 
facet normal  0.000000 -0.033228 0.999448 
outer loop 
vertex  3.181818 -3.181818 0.000000 
vertex  2.727273 -2.727273 0.015112 
vertex  2.727273 -3.181818 0.000000 
endloop 
endfacet 
facet normal  0.000000 0.033228 0.999448 
outer loop 
vertex  2.727273 3.181818 0.000000 
vertex  2.727273 2.727273 0.015112 
vertex  3.181818 3.181818 0.000000 
endloop 
endfacet 
facet normal  0.150057 -0.032852 0.988131 
outer loop 
vertex  2.727273 -2.727273 0.015112 
vertex  2.272727 -2.727273 0.084139 
vertex  2.727273 -3.181818 0.000000 
endloop 
endfacet 
facet normal  0.150057 0.032852 0.988131 
outer loop 
vertex  2.727273 3.181818 0.000000 
vertex  2.272727 2.727273 0.084139 
vertex  2.727273 2.727273 0.015112 
endloop 
endfacet 
facet normal  0.033228 0.000000 0.999448 
outer loop 
vertex  3.181818 -2.727273 0.000000 
vertex  2.727273 -2.727273 0.015112 
vertex  3.181818 -3.181818 0.000000 
endloop 
endfacet 
facet normal  0.033228 -0.000000 0.999448 
outer loop 
vertex  3.181818 3.181818 0.000000 
vertex  2.727273 2.727273 0.015112 
vertex  3.181818 2.727273 0.000000 
endloop 
endfacet 
endsolid Cuerno_23_Aendfacet 
