solid Cuerno_25_A 
facet normal  -0.374217 -0.031324 0.926812 
outer loop 
vertex  -2.916667 0.000000 0.626510 
vertex  -2.916667 -0.416667 0.612428 
vertex  -2.500000 -0.416667 0.780665 
endloop 
endfacet 
facet normal  -0.374217 0.031324 0.926812 
outer loop 
vertex  -2.500000 0.416667 0.780665 
vertex  -2.916667 0.416667 0.612428 
vertex  -2.916667 -0.000000 0.626510 
endloop 
endfacet 
facet normal  -0.112455 -0.112455 0.987273 
outer loop 
vertex  -3.333333 -2.500000 0.000000 
vertex  -3.333333 -2.083333 0.047460 
vertex  -3.750000 -2.083333 0.000000 
endloop 
endfacet 
facet normal  -0.112455 0.112455 0.987273 
outer loop 
vertex  -3.750000 2.083333 0.000000 
vertex  -3.333333 2.083333 0.047460 
vertex  -3.333333 2.500000 0.000000 
endloop 
endfacet 
facet normal  -0.513608 -0.030928 0.857467 
outer loop 
vertex  -3.750000 0.000000 0.168460 
vertex  -3.750000 -0.416667 0.153431 
vertex  -3.333333 -0.416667 0.403007 
endloop 
endfacet 
facet normal  -0.513608 0.030928 0.857467 
outer loop 
vertex  -3.333333 0.416667 0.403007 
vertex  -3.750000 0.416667 0.153431 
vertex  -3.750000 -0.000000 0.168460 
endloop 
endfacet 
facet normal  -0.512571 -0.153164 0.844874 
outer loop 
vertex  -3.750000 -0.833333 0.108265 
vertex  -3.750000 -1.250000 0.032729 
vertex  -3.333333 -1.250000 0.285514 
endloop 
endfacet 
facet normal  -0.512571 0.153164 0.844874 
outer loop 
vertex  -3.333333 1.250000 0.285514 
vertex  -3.750000 1.250000 0.032729 
vertex  -3.750000 0.833333 0.108265 
endloop 
endfacet 
facet normal  -0.375550 -0.208935 0.902944 
outer loop 
vertex  -2.500000 -1.666667 0.575826 
vertex  -2.500000 -1.250000 0.672239 
vertex  -2.916667 -1.250000 0.498940 
endloop 
endfacet 
facet normal  -0.375550 0.208935 0.902944 
outer loop 
vertex  -2.916667 1.250000 0.498940 
vertex  -2.500000 1.250000 0.672239 
vertex  -2.500000 1.666667 0.575826 
endloop 
endfacet 
facet normal  -0.189488 -0.026876 0.981515 
outer loop 
vertex  -1.666667 0.000000 0.999399 
vertex  -2.083333 0.000000 0.918959 
vertex  -1.666667 -0.416667 0.987990 
endloop 
endfacet 
facet normal  -0.189488 0.026876 0.981515 
outer loop 
vertex  -1.666667 0.416667 0.987990 
vertex  -2.083333 -0.000000 0.918959 
vertex  -1.666667 -0.000000 0.999399 
endloop 
endfacet 
facet normal  -0.057227 -0.239793 0.969136 
outer loop 
vertex  -1.250000 -1.666667 0.864682 
vertex  -1.250000 -2.083333 0.761586 
vertex  -0.833333 -2.083333 0.786190 
endloop 
endfacet 
facet normal  -0.057227 0.239793 0.969136 
outer loop 
vertex  -0.833333 2.083333 0.786190 
vertex  -1.250000 2.083333 0.761586 
vertex  -1.250000 1.666667 0.864682 
endloop 
endfacet 
facet normal  0.289983 -0.011102 0.956968 
outer loop 
vertex  -0.416667 -0.416667 0.941729 
vertex  0.000000 -0.416667 0.815470 
vertex  -0.416667 0.000000 0.946563 
endloop 
endfacet 
facet normal  0.289983 0.011102 0.956968 
outer loop 
vertex  -0.416667 -0.000000 0.946563 
vertex  0.000000 0.416667 0.815470 
vertex  -0.416667 0.416667 0.941729 
endloop 
endfacet 
facet normal  -0.507340 -0.208063 0.836251 
outer loop 
vertex  -3.333333 -1.666667 0.181846 
vertex  -3.333333 -1.250000 0.285514 
vertex  -3.750000 -1.250000 0.032729 
endloop 
endfacet 
facet normal  -0.507340 0.208063 0.836251 
outer loop 
vertex  -3.750000 1.250000 0.032729 
vertex  -3.333333 1.250000 0.285514 
vertex  -3.333333 1.666667 0.181846 
endloop 
endfacet 
facet normal  0.264059 -0.036534 0.963814 
outer loop 
vertex  -0.416667 -0.416667 0.941729 
vertex  -0.416667 -0.833333 0.925936 
vertex  0.000000 -0.833333 0.811780 
endloop 
endfacet 
facet normal  0.264059 0.036534 0.963814 
outer loop 
vertex  0.000000 0.833333 0.811780 
vertex  -0.416667 0.833333 0.925936 
vertex  -0.416667 0.416667 0.941729 
endloop 
endfacet 
facet normal  -0.307663 -0.322733 0.895091 
outer loop 
vertex  -2.083333 -2.500000 0.442925 
vertex  -2.083333 -2.083333 0.593158 
vertex  -2.500000 -2.083333 0.449940 
endloop 
endfacet 
facet normal  -0.307663 0.322733 0.895091 
outer loop 
vertex  -2.500000 2.083333 0.449940 
vertex  -2.083333 2.083333 0.593158 
vertex  -2.083333 2.500000 0.442925 
endloop 
endfacet 
facet normal  0.079677 -0.279799 0.956746 
outer loop 
vertex  0.000000 -2.916667 0.509596 
vertex  0.000000 -2.500000 0.631449 
vertex  -0.416667 -2.500000 0.666149 
endloop 
endfacet 
facet normal  0.079677 0.279799 0.956746 
outer loop 
vertex  -0.416667 2.500000 0.666149 
vertex  0.000000 2.500000 0.631449 
vertex  0.000000 2.916667 0.509596 
endloop 
endfacet 
facet normal  0.544699 0.085077 0.834305 
outer loop 
vertex  0.416667 -0.416667 0.622302 
vertex  0.833333 -0.833333 0.392759 
vertex  0.833333 -0.416667 0.350270 
endloop 
endfacet 
facet normal  0.544699 -0.085077 0.834305 
outer loop 
vertex  0.833333 0.416667 0.350270 
vertex  0.833333 0.833333 0.392759 
vertex  0.416667 0.416667 0.622302 
endloop 
endfacet 
facet normal  0.276984 -0.058414 0.959097 
outer loop 
vertex  0.416667 -1.666667 0.649843 
vertex  0.000000 -1.666667 0.770175 
vertex  0.416667 -2.083333 0.624466 
endloop 
endfacet 
facet normal  0.276984 0.058414 0.959097 
outer loop 
vertex  0.416667 2.083333 0.624466 
vertex  0.000000 1.666667 0.770175 
vertex  0.416667 1.666667 0.649843 
endloop 
endfacet 
facet normal  0.119862 -0.328197 0.936974 
outer loop 
vertex  0.416667 -3.333333 0.317183 
vertex  0.833333 -3.333333 0.263881 
vertex  0.416667 -2.916667 0.463130 
endloop 
endfacet 
facet normal  0.119862 0.328197 0.936974 
outer loop 
vertex  0.416667 2.916667 0.463130 
vertex  0.833333 3.333333 0.263881 
vertex  0.416667 3.333333 0.317183 
endloop 
endfacet 
facet normal  -0.378770 -0.381164 0.843355 
outer loop 
vertex  -2.500000 -2.916667 0.105105 
vertex  -2.500000 -2.500000 0.293423 
vertex  -2.916667 -2.500000 0.106288 
endloop 
endfacet 
facet normal  -0.378770 0.381164 0.843355 
outer loop 
vertex  -2.916667 2.500000 0.106288 
vertex  -2.500000 2.500000 0.293423 
vertex  -2.500000 2.916667 0.105105 
endloop 
endfacet 
facet normal  -0.444460 -0.267902 0.854800 
outer loop 
vertex  -2.916667 -2.083333 0.267908 
vertex  -2.916667 -1.666667 0.398495 
vertex  -3.333333 -1.666667 0.181846 
endloop 
endfacet 
facet normal  -0.444460 0.267902 0.854800 
outer loop 
vertex  -3.333333 1.666667 0.181846 
vertex  -2.916667 1.666667 0.398495 
vertex  -2.916667 2.083333 0.267908 
endloop 
endfacet 
facet normal  -0.126423 -0.427415 0.895173 
outer loop 
vertex  -1.250000 -2.916667 0.464150 
vertex  -1.250000 -3.333333 0.265206 
vertex  -0.833333 -3.333333 0.324050 
endloop 
endfacet 
facet normal  -0.126423 0.427415 0.895173 
outer loop 
vertex  -0.833333 3.333333 0.324050 
vertex  -1.250000 3.333333 0.265206 
vertex  -1.250000 2.916667 0.464150 
endloop 
endfacet 
facet normal  -0.244745 -0.328869 0.912110 
outer loop 
vertex  -1.666667 -2.500000 0.554728 
vertex  -2.083333 -2.083333 0.593158 
vertex  -2.083333 -2.500000 0.442925 
endloop 
endfacet 
facet normal  -0.244745 0.328869 0.912110 
outer loop 
vertex  -2.083333 2.500000 0.442925 
vertex  -2.083333 2.083333 0.593158 
vertex  -1.666667 2.500000 0.554728 
endloop 
endfacet 
facet normal  -0.058366 -0.411579 0.909503 
outer loop 
vertex  -0.833333 -2.916667 0.512605 
vertex  -0.833333 -3.333333 0.324050 
vertex  -0.416667 -3.333333 0.350789 
endloop 
endfacet 
facet normal  -0.058366 0.411579 0.909503 
outer loop 
vertex  -0.416667 3.333333 0.350789 
vertex  -0.833333 3.333333 0.324050 
vertex  -0.833333 2.916667 0.512605 
endloop 
endfacet 
facet normal  -0.105360 -0.409988 0.905985 
outer loop 
vertex  -0.833333 -2.916667 0.512605 
vertex  -1.250000 -2.916667 0.464150 
vertex  -0.833333 -3.333333 0.324050 
endloop 
endfacet 
facet normal  -0.105360 0.409988 0.905985 
outer loop 
vertex  -0.833333 3.333333 0.324050 
vertex  -1.250000 2.916667 0.464150 
vertex  -0.833333 2.916667 0.512605 
endloop 
endfacet 
facet normal  -0.084056 -0.302341 0.949486 
outer loop 
vertex  -1.250000 -2.083333 0.761586 
vertex  -1.250000 -2.500000 0.628909 
vertex  -0.833333 -2.500000 0.665796 
endloop 
endfacet 
facet normal  -0.084056 0.302341 0.949486 
outer loop 
vertex  -0.833333 2.500000 0.665796 
vertex  -1.250000 2.500000 0.628909 
vertex  -1.250000 2.083333 0.761586 
endloop 
endfacet 
facet normal  0.345717 0.021112 0.938101 
outer loop 
vertex  0.833333 -2.083333 0.498202 
vertex  1.250000 -2.500000 0.354026 
vertex  1.250000 -2.083333 0.344649 
endloop 
endfacet 
facet normal  0.345717 -0.021112 0.938101 
outer loop 
vertex  1.250000 2.083333 0.344649 
vertex  1.250000 2.500000 0.354026 
vertex  0.833333 2.083333 0.498202 
endloop 
endfacet 
facet normal  -0.192055 -0.029539 0.980939 
outer loop 
vertex  -1.666667 -0.416667 0.987990 
vertex  -2.083333 0.000000 0.918959 
vertex  -2.083333 -0.416667 0.906412 
endloop 
endfacet 
facet normal  -0.192055 0.029539 0.980939 
outer loop 
vertex  -2.083333 0.416667 0.906412 
vertex  -2.083333 -0.000000 0.918959 
vertex  -1.666667 0.416667 0.987990 
endloop 
endfacet 
facet normal  0.035346 -0.243870 0.969164 
outer loop 
vertex  -0.833333 -2.083333 0.786190 
vertex  -0.416667 -2.500000 0.666149 
vertex  -0.416667 -2.083333 0.770994 
endloop 
endfacet 
facet normal  0.035346 0.243870 0.969164 
outer loop 
vertex  -0.416667 2.083333 0.770994 
vertex  -0.416667 2.500000 0.666149 
vertex  -0.833333 2.083333 0.786190 
endloop 
endfacet 
facet normal  -0.305754 -0.214640 0.927601 
outer loop 
vertex  -2.500000 -1.250000 0.672239 
vertex  -2.500000 -1.666667 0.575826 
vertex  -2.083333 -1.666667 0.713166 
endloop 
endfacet 
facet normal  -0.305754 0.214640 0.927601 
outer loop 
vertex  -2.083333 1.666667 0.713166 
vertex  -2.500000 1.666667 0.575826 
vertex  -2.500000 1.250000 0.672239 
endloop 
endfacet 
facet normal  -0.128141 -0.197705 0.971850 
outer loop 
vertex  -1.666667 -1.250000 0.894507 
vertex  -1.666667 -1.666667 0.809744 
vertex  -1.250000 -1.666667 0.864682 
endloop 
endfacet 
facet normal  -0.128141 0.197705 0.971850 
outer loop 
vertex  -1.250000 1.666667 0.864682 
vertex  -1.666667 1.666667 0.809744 
vertex  -1.666667 1.250000 0.894507 
endloop 
endfacet 
facet normal  -0.446571 -0.150505 0.881999 
outer loop 
vertex  -2.916667 -1.250000 0.498940 
vertex  -2.916667 -0.833333 0.570041 
vertex  -3.333333 -0.833333 0.359075 
endloop 
endfacet 
facet normal  -0.446571 0.150505 0.881999 
outer loop 
vertex  -3.333333 0.833333 0.359075 
vertex  -2.916667 0.833333 0.570041 
vertex  -2.916667 1.250000 0.498940 
endloop 
endfacet 
facet normal  -0.080558 -0.023636 0.996470 
outer loop 
vertex  -1.250000 0.000000 1.033083 
vertex  -1.666667 0.000000 0.999399 
vertex  -1.250000 -0.416667 1.023200 
endloop 
endfacet 
facet normal  -0.080558 0.023636 0.996470 
outer loop 
vertex  -1.250000 0.416667 1.023200 
vertex  -1.666667 -0.000000 0.999399 
vertex  -1.250000 -0.000000 1.033083 
endloop 
endfacet 
facet normal  -0.198822 -0.088793 0.976005 
outer loop 
vertex  -1.666667 -0.833333 0.953384 
vertex  -2.083333 -0.416667 0.906412 
vertex  -2.083333 -0.833333 0.868505 
endloop 
endfacet 
facet normal  -0.198822 0.088793 0.976005 
outer loop 
vertex  -2.083333 0.833333 0.868505 
vertex  -2.083333 0.416667 0.906412 
vertex  -1.666667 0.833333 0.953384 
endloop 
endfacet 
facet normal  -0.511765 -0.090084 0.854390 
outer loop 
vertex  -3.333333 -0.833333 0.359075 
vertex  -3.333333 -0.416667 0.403007 
vertex  -3.750000 -0.416667 0.153431 
endloop 
endfacet 
facet normal  -0.511765 0.090084 0.854390 
outer loop 
vertex  -3.750000 0.416667 0.153431 
vertex  -3.333333 0.416667 0.403007 
vertex  -3.333333 0.833333 0.359075 
endloop 
endfacet 
facet normal  -0.513510 -0.092473 0.853086 
outer loop 
vertex  -3.750000 -0.416667 0.153431 
vertex  -3.750000 -0.833333 0.108265 
vertex  -3.333333 -0.833333 0.359075 
endloop 
endfacet 
facet normal  -0.513510 0.092473 0.853086 
outer loop 
vertex  -3.333333 0.833333 0.359075 
vertex  -3.750000 0.833333 0.108265 
vertex  -3.750000 0.416667 0.153431 
endloop 
endfacet 
facet normal  -0.372951 -0.029852 0.927371 
outer loop 
vertex  -2.500000 0.000000 0.794077 
vertex  -2.916667 0.000000 0.626510 
vertex  -2.500000 -0.416667 0.780665 
endloop 
endfacet 
facet normal  -0.372951 0.029852 0.927371 
outer loop 
vertex  -2.500000 0.416667 0.780665 
vertex  -2.916667 -0.000000 0.626510 
vertex  -2.500000 -0.000000 0.794077 
endloop 
endfacet 
facet normal  -0.449731 -0.093653 0.888240 
outer loop 
vertex  -3.333333 -0.416667 0.403007 
vertex  -3.333333 -0.833333 0.359075 
vertex  -2.916667 -0.833333 0.570041 
endloop 
endfacet 
facet normal  -0.449731 0.093653 0.888240 
outer loop 
vertex  -2.916667 0.833333 0.570041 
vertex  -3.333333 0.833333 0.359075 
vertex  -3.333333 0.416667 0.403007 
endloop 
endfacet 
facet normal  -0.288785 -0.030802 0.956898 
outer loop 
vertex  -2.083333 -0.416667 0.906412 
vertex  -2.500000 0.000000 0.794077 
vertex  -2.500000 -0.416667 0.780665 
endloop 
endfacet 
facet normal  -0.288785 0.030802 0.956898 
outer loop 
vertex  -2.500000 0.416667 0.780665 
vertex  -2.500000 -0.000000 0.794077 
vertex  -2.083333 0.416667 0.906412 
endloop 
endfacet 
facet normal  -0.247702 -0.172820 0.953298 
outer loop 
vertex  -3.750000 -1.250000 0.032729 
vertex  -3.750000 -0.833333 0.108265 
vertex  -4.166667 -0.833333 0.000000 
endloop 
endfacet 
facet normal  -0.247702 0.172820 0.953298 
outer loop 
vertex  -4.166667 0.833333 0.000000 
vertex  -3.750000 0.833333 0.108265 
vertex  -3.750000 1.250000 0.032729 
endloop 
endfacet 
facet normal  -0.343777 -0.101198 0.933582 
outer loop 
vertex  -4.166667 -0.416667 0.000000 
vertex  -3.750000 -0.833333 0.108265 
vertex  -3.750000 -0.416667 0.153431 
endloop 
endfacet 
facet normal  -0.343777 0.101198 0.933582 
outer loop 
vertex  -3.750000 0.416667 0.153431 
vertex  -3.750000 0.833333 0.108265 
vertex  -4.166667 0.416667 0.000000 
endloop 
endfacet 
facet normal  0.019342 -0.072279 0.997197 
outer loop 
vertex  -1.250000 -0.416667 1.023200 
vertex  -1.250000 -0.833333 0.992999 
vertex  -0.833333 -0.833333 0.984917 
endloop 
endfacet 
facet normal  0.019342 0.072279 0.997197 
outer loop 
vertex  -0.833333 0.833333 0.984917 
vertex  -1.250000 0.833333 0.992999 
vertex  -1.250000 0.416667 1.023200 
endloop 
endfacet 
facet normal  0.599746 0.207564 0.772801 
outer loop 
vertex  0.833333 -0.833333 0.392759 
vertex  1.250000 -1.250000 0.181308 
vertex  1.250000 -0.833333 0.069397 
endloop 
endfacet 
facet normal  0.599746 -0.207564 0.772801 
outer loop 
vertex  1.250000 0.833333 0.069397 
vertex  1.250000 1.250000 0.181308 
vertex  0.833333 0.833333 0.392759 
endloop 
endfacet 
facet normal  0.177353 -0.116860 0.977185 
outer loop 
vertex  -0.416667 -1.250000 0.895626 
vertex  -0.416667 -1.666667 0.845797 
vertex  0.000000 -1.666667 0.770175 
endloop 
endfacet 
facet normal  0.177353 0.116860 0.977185 
outer loop 
vertex  0.000000 1.666667 0.770175 
vertex  -0.416667 1.666667 0.845797 
vertex  -0.416667 1.250000 0.895626 
endloop 
endfacet 
facet normal  0.155840 -0.197682 0.967799 
outer loop 
vertex  0.416667 -2.500000 0.564356 
vertex  0.000000 -2.083333 0.716557 
vertex  0.000000 -2.500000 0.631449 
endloop 
endfacet 
facet normal  0.155840 0.197682 0.967799 
outer loop 
vertex  0.000000 2.500000 0.631449 
vertex  0.000000 2.083333 0.716557 
vertex  0.416667 2.500000 0.564356 
endloop 
endfacet 
facet normal  0.396743 0.106244 0.911760 
outer loop 
vertex  1.666667 -1.666667 0.048553 
vertex  1.666667 -1.250000 0.000000 
vertex  1.250000 -1.250000 0.181308 
endloop 
endfacet 
facet normal  0.396743 -0.106244 0.911760 
outer loop 
vertex  1.250000 1.250000 0.181308 
vertex  1.666667 1.250000 0.000000 
vertex  1.666667 1.666667 0.048553 
endloop 
endfacet 
facet normal  0.065085 -0.000000 0.997880 
outer loop 
vertex  2.916667 -2.916667 0.000000 
vertex  2.916667 -2.500000 0.000000 
vertex  2.500000 -2.500000 0.027176 
endloop 
endfacet 
facet normal  0.065085 0.000000 0.997880 
outer loop 
vertex  2.500000 2.500000 0.027176 
vertex  2.916667 2.500000 0.000000 
vertex  2.916667 2.916667 0.000000 
endloop 
endfacet 
facet normal  0.643193 0.030016 0.765116 
outer loop 
vertex  0.833333 -0.416667 0.350270 
vertex  1.250000 -0.416667 0.000000 
vertex  0.833333 0.000000 0.333924 
endloop 
endfacet 
facet normal  0.643193 -0.030016 0.765116 
outer loop 
vertex  0.833333 -0.000000 0.333924 
vertex  1.250000 0.416667 0.000000 
vertex  0.833333 0.416667 0.350270 
endloop 
endfacet 
facet normal  0.127543 -0.175259 0.976226 
outer loop 
vertex  0.000000 -2.083333 0.716557 
vertex  -0.416667 -1.666667 0.845797 
vertex  -0.416667 -2.083333 0.770994 
endloop 
endfacet 
facet normal  0.127543 0.175259 0.976226 
outer loop 
vertex  -0.416667 2.083333 0.770994 
vertex  -0.416667 1.666667 0.845797 
vertex  0.000000 2.083333 0.716557 
endloop 
endfacet 
facet normal  0.035611 -0.212864 0.976433 
outer loop 
vertex  -0.833333 -1.666667 0.877024 
vertex  -0.833333 -2.083333 0.786190 
vertex  -0.416667 -2.083333 0.770994 
endloop 
endfacet 
facet normal  0.035611 0.212864 0.976433 
outer loop 
vertex  -0.416667 2.083333 0.770994 
vertex  -0.833333 2.083333 0.786190 
vertex  -0.833333 1.666667 0.877024 
endloop 
endfacet 
facet normal  0.139796 -0.071840 0.987571 
outer loop 
vertex  -0.416667 -1.250000 0.895626 
vertex  -0.416667 -0.833333 0.925936 
vertex  -0.833333 -0.833333 0.984917 
endloop 
endfacet 
facet normal  0.139796 0.071840 0.987571 
outer loop 
vertex  -0.833333 0.833333 0.984917 
vertex  -0.416667 0.833333 0.925936 
vertex  -0.416667 1.250000 0.895626 
endloop 
endfacet 
facet normal  -0.093925 -0.123465 0.987894 
outer loop 
vertex  -1.250000 -1.250000 0.940925 
vertex  -1.250000 -0.833333 0.992999 
vertex  -1.666667 -0.833333 0.953384 
endloop 
endfacet 
facet normal  -0.093925 0.123465 0.987894 
outer loop 
vertex  -1.666667 0.833333 0.953384 
vertex  -1.250000 0.833333 0.992999 
vertex  -1.250000 1.250000 0.940925 
endloop 
endfacet 
facet normal  0.337189 -0.028294 0.941012 
outer loop 
vertex  0.416667 -1.250000 0.649949 
vertex  0.000000 -0.833333 0.811780 
vertex  0.000000 -1.250000 0.799252 
endloop 
endfacet 
facet normal  0.337189 0.028294 0.941012 
outer loop 
vertex  0.000000 1.250000 0.799252 
vertex  0.000000 0.833333 0.811780 
vertex  0.416667 1.250000 0.649949 
endloop 
endfacet 
facet normal  0.420396 0.031280 0.906802 
outer loop 
vertex  0.416667 -0.833333 0.636675 
vertex  0.416667 -0.416667 0.622302 
vertex  0.000000 -0.416667 0.815470 
endloop 
endfacet 
facet normal  0.420396 -0.031280 0.906802 
outer loop 
vertex  0.000000 0.416667 0.815470 
vertex  0.416667 0.416667 0.622302 
vertex  0.416667 0.833333 0.636675 
endloop 
endfacet 
facet normal  0.531371 0.104763 0.840636 
outer loop 
vertex  1.250000 -1.250000 0.181308 
vertex  0.833333 -0.833333 0.392759 
vertex  0.833333 -1.250000 0.444685 
endloop 
endfacet 
facet normal  0.531371 -0.104763 0.840636 
outer loop 
vertex  0.833333 1.250000 0.444685 
vertex  0.833333 0.833333 0.392759 
vertex  1.250000 1.250000 0.181308 
endloop 
endfacet 
facet normal  0.299016 -0.001213 0.954247 
outer loop 
vertex  0.000000 -0.416667 0.815470 
vertex  0.000000 0.000000 0.816000 
vertex  -0.416667 0.000000 0.946563 
endloop 
endfacet 
facet normal  0.299016 0.001213 0.954247 
outer loop 
vertex  -0.416667 -0.000000 0.946563 
vertex  0.000000 -0.000000 0.816000 
vertex  0.000000 0.416667 0.815470 
endloop 
endfacet 
facet normal  -0.018218 -0.325011 0.945535 
outer loop 
vertex  0.000000 -4.166667 0.000000 
vertex  0.000000 -3.750000 0.143222 
vertex  -0.416667 -3.750000 0.135194 
endloop 
endfacet 
facet normal  -0.018218 0.325011 0.945535 
outer loop 
vertex  -0.416667 3.750000 0.135194 
vertex  0.000000 3.750000 0.143222 
vertex  0.000000 4.166667 0.000000 
endloop 
endfacet 
facet normal  -0.056638 -0.277146 0.959157 
outer loop 
vertex  -1.250000 -2.083333 0.761586 
vertex  -0.833333 -2.500000 0.665796 
vertex  -0.833333 -2.083333 0.786190 
endloop 
endfacet 
facet normal  -0.056638 0.277146 0.959157 
outer loop 
vertex  -0.833333 2.083333 0.786190 
vertex  -0.833333 2.500000 0.665796 
vertex  -1.250000 2.083333 0.761586 
endloop 
endfacet 
facet normal  0.007244 -0.389687 0.920919 
outer loop 
vertex  0.000000 -3.333333 0.347512 
vertex  -0.416667 -2.916667 0.527102 
vertex  -0.416667 -3.333333 0.350789 
endloop 
endfacet 
facet normal  0.007244 0.389687 0.920919 
outer loop 
vertex  -0.416667 3.333333 0.350789 
vertex  -0.416667 2.916667 0.527102 
vertex  0.000000 3.333333 0.347512 
endloop 
endfacet 
facet normal  -0.000815 -0.277591 0.960699 
outer loop 
vertex  -0.416667 -2.500000 0.666149 
vertex  -0.833333 -2.083333 0.786190 
vertex  -0.833333 -2.500000 0.665796 
endloop 
endfacet 
facet normal  -0.000815 0.277591 0.960699 
outer loop 
vertex  -0.833333 2.500000 0.665796 
vertex  -0.833333 2.083333 0.786190 
vertex  -0.416667 2.500000 0.666149 
endloop 
endfacet 
facet normal  0.065953 -0.417947 0.906074 
outer loop 
vertex  0.416667 -3.750000 0.124986 
vertex  0.416667 -3.333333 0.317183 
vertex  0.000000 -3.333333 0.347512 
endloop 
endfacet 
facet normal  0.065953 0.417947 0.906074 
outer loop 
vertex  0.000000 3.333333 0.347512 
vertex  0.416667 3.333333 0.317183 
vertex  0.416667 3.750000 0.124986 
endloop 
endfacet 
facet normal  0.345821 0.275492 0.896946 
outer loop 
vertex  1.666667 -2.083333 0.176529 
vertex  2.083333 -2.083333 0.015882 
vertex  1.666667 -1.666667 0.048553 
endloop 
endfacet 
facet normal  0.345821 -0.275492 0.896946 
outer loop 
vertex  1.666667 1.666667 0.048553 
vertex  2.083333 2.083333 0.015882 
vertex  1.666667 2.083333 0.176529 
endloop 
endfacet 
facet normal  0.225542 -0.116789 0.967208 
outer loop 
vertex  1.250000 -2.916667 0.303714 
vertex  1.666667 -2.916667 0.206552 
vertex  1.250000 -2.500000 0.354026 
endloop 
endfacet 
facet normal  0.225542 0.116789 0.967208 
outer loop 
vertex  1.250000 2.500000 0.354026 
vertex  1.666667 2.916667 0.206552 
vertex  1.250000 2.916667 0.303714 
endloop 
endfacet 
facet normal  0.000000 -0.072855 0.997343 
outer loop 
vertex  -0.833333 -4.166667 0.000000 
vertex  -1.250000 -3.750000 0.030437 
vertex  -1.250000 -4.166667 0.000000 
endloop 
endfacet 
facet normal  0.000000 0.072855 0.997343 
outer loop 
vertex  -1.250000 4.166667 0.000000 
vertex  -1.250000 3.750000 0.030437 
vertex  -0.833333 4.166667 0.000000 
endloop 
endfacet 
facet normal  0.067682 -0.361706 0.929832 
outer loop 
vertex  0.000000 -3.333333 0.347512 
vertex  0.416667 -3.333333 0.317183 
vertex  0.000000 -2.916667 0.509596 
endloop 
endfacet 
facet normal  0.067682 0.361706 0.929832 
outer loop 
vertex  0.000000 2.916667 0.509596 
vertex  0.416667 3.333333 0.317183 
vertex  0.000000 3.333333 0.347512 
endloop 
endfacet 
facet normal  0.195847 -0.218894 0.955892 
outer loop 
vertex  1.666667 -2.916667 0.206552 
vertex  1.666667 -3.333333 0.111138 
vertex  2.083333 -3.333333 0.025770 
endloop 
endfacet 
facet normal  0.195847 0.218894 0.955892 
outer loop 
vertex  2.083333 3.333333 0.025770 
vertex  1.666667 3.333333 0.111138 
vertex  1.666667 2.916667 0.206552 
endloop 
endfacet 
facet normal  0.266278 -0.066458 0.961603 
outer loop 
vertex  0.833333 -2.500000 0.469405 
vertex  1.250000 -2.500000 0.354026 
vertex  0.833333 -2.083333 0.498202 
endloop 
endfacet 
facet normal  0.266278 0.066458 0.961603 
outer loop 
vertex  0.833333 2.083333 0.498202 
vertex  1.250000 2.500000 0.354026 
vertex  0.833333 2.500000 0.469405 
endloop 
endfacet 
facet normal  0.116631 -0.393925 0.911713 
outer loop 
vertex  0.833333 -3.750000 0.083851 
vertex  0.833333 -3.333333 0.263881 
vertex  0.416667 -3.333333 0.317183 
endloop 
endfacet 
facet normal  0.116631 0.393925 0.911713 
outer loop 
vertex  0.416667 3.333333 0.317183 
vertex  0.833333 3.333333 0.263881 
vertex  0.833333 3.750000 0.083851 
endloop 
endfacet 
facet normal  0.007062 -0.440218 0.897863 
outer loop 
vertex  0.000000 -3.750000 0.143222 
vertex  0.000000 -3.333333 0.347512 
vertex  -0.416667 -3.333333 0.350789 
endloop 
endfacet 
facet normal  0.007062 0.440218 0.897863 
outer loop 
vertex  -0.416667 3.333333 0.350789 
vertex  0.000000 3.333333 0.347512 
vertex  0.000000 3.750000 0.143222 
endloop 
endfacet 
facet normal  -0.056903 -0.458810 0.886711 
outer loop 
vertex  -0.833333 -3.333333 0.324050 
vertex  -0.416667 -3.750000 0.135194 
vertex  -0.416667 -3.333333 0.350789 
endloop 
endfacet 
facet normal  -0.056903 0.458810 0.886711 
outer loop 
vertex  -0.416667 3.333333 0.350789 
vertex  -0.416667 3.750000 0.135194 
vertex  -0.833333 3.333333 0.324050 
endloop 
endfacet 
facet normal  0.203037 0.015347 0.979051 
outer loop 
vertex  2.500000 -2.500000 0.027176 
vertex  2.083333 -2.500000 0.113585 
vertex  2.500000 -2.916667 0.033708 
endloop 
endfacet 
facet normal  0.203037 -0.015347 0.979051 
outer loop 
vertex  2.500000 2.916667 0.033708 
vertex  2.083333 2.500000 0.113585 
vertex  2.500000 2.500000 0.027176 
endloop 
endfacet 
facet normal  -0.315441 -0.435216 0.843258 
outer loop 
vertex  -2.083333 -3.333333 0.045922 
vertex  -2.083333 -2.916667 0.260970 
vertex  -2.500000 -2.916667 0.105105 
endloop 
endfacet 
facet normal  -0.315441 0.435216 0.843258 
outer loop 
vertex  -2.500000 2.916667 0.105105 
vertex  -2.083333 2.916667 0.260970 
vertex  -2.083333 3.333333 0.045922 
endloop 
endfacet 
facet normal  -0.386233 -0.333573 0.859973 
outer loop 
vertex  -2.500000 -2.500000 0.293423 
vertex  -2.916667 -2.083333 0.267908 
vertex  -2.916667 -2.500000 0.106288 
endloop 
endfacet 
facet normal  -0.386233 0.333573 0.859973 
outer loop 
vertex  -2.916667 2.500000 0.106288 
vertex  -2.916667 2.083333 0.267908 
vertex  -2.500000 2.500000 0.293423 
endloop 
endfacet 
facet normal  -0.312550 -0.274725 0.909307 
outer loop 
vertex  -2.500000 -1.666667 0.575826 
vertex  -2.500000 -2.083333 0.449940 
vertex  -2.083333 -2.083333 0.593158 
endloop 
endfacet 
facet normal  -0.312550 0.274725 0.909307 
outer loop 
vertex  -2.083333 2.083333 0.593158 
vertex  -2.500000 2.083333 0.449940 
vertex  -2.500000 1.666667 0.575826 
endloop 
endfacet 
facet normal  -0.113173 0.000000 0.993575 
outer loop 
vertex  -3.750000 -2.083333 0.000000 
vertex  -3.333333 -2.083333 0.047460 
vertex  -3.750000 -1.666667 0.000000 
endloop 
endfacet 
facet normal  -0.113173 -0.000000 0.993575 
outer loop 
vertex  -3.750000 1.666667 0.000000 
vertex  -3.333333 2.083333 0.047460 
vertex  -3.750000 2.083333 0.000000 
endloop 
endfacet 
facet normal  -0.237435 -0.240108 0.941261 
outer loop 
vertex  -2.916667 -2.500000 0.106288 
vertex  -2.916667 -2.916667 0.000000 
vertex  -2.500000 -2.916667 0.105105 
endloop 
endfacet 
facet normal  -0.237435 0.240108 0.941261 
outer loop 
vertex  -2.500000 2.916667 0.105105 
vertex  -2.916667 2.916667 0.000000 
vertex  -2.916667 2.500000 0.106288 
endloop 
endfacet 
facet normal  -0.245685 -0.109705 0.963122 
outer loop 
vertex  -3.333333 -2.500000 0.000000 
vertex  -2.916667 -2.500000 0.106288 
vertex  -3.333333 -2.083333 0.047460 
endloop 
endfacet 
facet normal  -0.245685 0.109705 0.963122 
outer loop 
vertex  -3.333333 2.083333 0.047460 
vertex  -2.916667 2.500000 0.106288 
vertex  -3.333333 2.500000 0.000000 
endloop 
endfacet 
facet normal  -0.301957 -0.263850 0.916081 
outer loop 
vertex  -2.500000 -1.666667 0.575826 
vertex  -2.083333 -2.083333 0.593158 
vertex  -2.083333 -1.666667 0.713166 
endloop 
endfacet 
facet normal  -0.301957 0.263850 0.916081 
outer loop 
vertex  -2.083333 1.666667 0.713166 
vertex  -2.083333 2.083333 0.593158 
vertex  -2.500000 1.666667 0.575826 
endloop 
endfacet 
facet normal  -0.442376 -0.324325 0.836132 
outer loop 
vertex  -3.333333 -2.083333 0.047460 
vertex  -2.916667 -2.500000 0.106288 
vertex  -2.916667 -2.083333 0.267908 
endloop 
endfacet 
facet normal  -0.442376 0.324325 0.836132 
outer loop 
vertex  -2.916667 2.083333 0.267908 
vertex  -2.916667 2.500000 0.106288 
vertex  -3.333333 2.083333 0.047460 
endloop 
endfacet 
facet normal  -0.239955 -0.239955 0.940661 
outer loop 
vertex  -3.333333 -2.500000 0.000000 
vertex  -2.916667 -2.916667 0.000000 
vertex  -2.916667 -2.500000 0.106288 
endloop 
endfacet 
facet normal  -0.239955 0.239955 0.940661 
outer loop 
vertex  -2.916667 2.500000 0.106288 
vertex  -2.916667 2.916667 0.000000 
vertex  -3.333333 2.500000 0.000000 
endloop 
endfacet 
facet normal  -0.322646 -0.389825 0.862517 
outer loop 
vertex  -2.500000 -2.916667 0.105105 
vertex  -2.083333 -2.916667 0.260970 
vertex  -2.500000 -2.500000 0.293423 
endloop 
endfacet 
facet normal  -0.322646 0.389825 0.862517 
outer loop 
vertex  -2.500000 2.500000 0.293423 
vertex  -2.083333 2.916667 0.260970 
vertex  -2.500000 2.916667 0.105105 
endloop 
endfacet 
facet normal  -0.248707 -0.432101 0.866852 
outer loop 
vertex  -1.666667 -3.333333 0.172818 
vertex  -1.666667 -2.916667 0.380515 
vertex  -2.083333 -2.916667 0.260970 
endloop 
endfacet 
facet normal  -0.248707 0.432101 0.866852 
outer loop 
vertex  -2.083333 2.916667 0.260970 
vertex  -1.666667 2.916667 0.380515 
vertex  -1.666667 3.333333 0.172818 
endloop 
endfacet 
facet normal  -0.312366 -0.380173 0.870572 
outer loop 
vertex  -2.083333 -2.916667 0.260970 
vertex  -2.083333 -2.500000 0.442925 
vertex  -2.500000 -2.500000 0.293423 
endloop 
endfacet 
facet normal  -0.312366 0.380173 0.870572 
outer loop 
vertex  -2.500000 2.500000 0.293423 
vertex  -2.083333 2.500000 0.442925 
vertex  -2.083333 2.916667 0.260970 
endloop 
endfacet 
facet normal  -0.254288 -0.387043 0.886304 
outer loop 
vertex  -2.083333 -2.916667 0.260970 
vertex  -1.666667 -2.916667 0.380515 
vertex  -2.083333 -2.500000 0.442925 
endloop 
endfacet 
facet normal  -0.254288 0.387043 0.886304 
outer loop 
vertex  -2.083333 2.500000 0.442925 
vertex  -1.666667 2.916667 0.380515 
vertex  -2.083333 2.916667 0.260970 
endloop 
endfacet 
facet normal  -0.237587 -0.237587 0.941862 
outer loop 
vertex  -2.500000 -3.333333 0.000000 
vertex  -2.500000 -2.916667 0.105105 
vertex  -2.916667 -2.916667 0.000000 
endloop 
endfacet 
facet normal  -0.237587 0.237587 0.941862 
outer loop 
vertex  -2.916667 2.916667 0.000000 
vertex  -2.500000 2.916667 0.105105 
vertex  -2.500000 3.333333 0.000000 
endloop 
endfacet 
facet normal  -0.106261 -0.243206 0.964137 
outer loop 
vertex  -2.500000 -3.333333 0.000000 
vertex  -2.083333 -3.333333 0.045922 
vertex  -2.500000 -2.916667 0.105105 
endloop 
endfacet 
facet normal  -0.106261 0.243206 0.964137 
outer loop 
vertex  -2.500000 2.916667 0.105105 
vertex  -2.083333 3.333333 0.045922 
vertex  -2.500000 3.333333 0.000000 
endloop 
endfacet 
facet normal  -0.261233 -0.442706 0.857770 
outer loop 
vertex  -1.666667 -3.333333 0.172818 
vertex  -2.083333 -2.916667 0.260970 
vertex  -2.083333 -3.333333 0.045922 
endloop 
endfacet 
facet normal  -0.261233 0.442706 0.857770 
outer loop 
vertex  -2.083333 3.333333 0.045922 
vertex  -2.083333 2.916667 0.260970 
vertex  -1.666667 3.333333 0.172818 
endloop 
endfacet 
facet normal  -0.108899 -0.108899 0.988070 
outer loop 
vertex  -2.083333 -3.750000 0.000000 
vertex  -2.083333 -3.333333 0.045922 
vertex  -2.500000 -3.333333 0.000000 
endloop 
endfacet 
facet normal  -0.108899 0.108899 0.988070 
outer loop 
vertex  -2.500000 3.333333 0.000000 
vertex  -2.083333 3.333333 0.045922 
vertex  -2.083333 3.750000 0.000000 
endloop 
endfacet 
facet normal  0.000000 -0.109551 0.993981 
outer loop 
vertex  -2.083333 -3.750000 0.000000 
vertex  -1.666667 -3.750000 0.000000 
vertex  -2.083333 -3.333333 0.045922 
endloop 
endfacet 
facet normal  0.000000 0.109551 0.993981 
outer loop 
vertex  -2.083333 3.333333 0.045922 
vertex  -1.666667 3.750000 0.000000 
vertex  -2.083333 3.750000 0.000000 
endloop 
endfacet 
facet normal  -0.072662 -0.072662 0.994706 
outer loop 
vertex  -1.250000 -3.750000 0.030437 
vertex  -1.666667 -3.750000 0.000000 
vertex  -1.250000 -4.166667 0.000000 
endloop 
endfacet 
facet normal  -0.072662 0.072662 0.994706 
outer loop 
vertex  -1.250000 4.166667 0.000000 
vertex  -1.666667 3.750000 0.000000 
vertex  -1.250000 3.750000 0.030437 
endloop 
endfacet 
facet normal  -0.067322 -0.382248 0.921604 
outer loop 
vertex  -1.666667 -3.333333 0.172818 
vertex  -1.666667 -3.750000 0.000000 
vertex  -1.250000 -3.750000 0.030437 
endloop 
endfacet 
facet normal  -0.067322 0.382248 0.921604 
outer loop 
vertex  -1.250000 3.750000 0.030437 
vertex  -1.666667 3.750000 0.000000 
vertex  -1.666667 3.333333 0.172818 
endloop 
endfacet 
facet normal  -0.270801 -0.368802 0.889186 
outer loop 
vertex  -1.666667 -3.333333 0.172818 
vertex  -2.083333 -3.333333 0.045922 
vertex  -1.666667 -3.750000 0.000000 
endloop 
endfacet 
facet normal  -0.270801 0.368802 0.889186 
outer loop 
vertex  -1.666667 3.750000 0.000000 
vertex  -2.083333 3.333333 0.045922 
vertex  -1.666667 3.333333 0.172818 
endloop 
endfacet 
facet normal  -0.123223 -0.472802 0.872511 
outer loop 
vertex  -0.833333 -3.333333 0.324050 
vertex  -1.250000 -3.333333 0.265206 
vertex  -0.833333 -3.750000 0.098264 
endloop 
endfacet 
facet normal  -0.123223 0.472802 0.872511 
outer loop 
vertex  -0.833333 3.750000 0.098264 
vertex  -1.250000 3.333333 0.265206 
vertex  -0.833333 3.333333 0.324050 
endloop 
endfacet 
facet normal  -0.084007 -0.307535 0.947821 
outer loop 
vertex  -0.416667 -4.166667 0.000000 
vertex  -0.416667 -3.750000 0.135194 
vertex  -0.833333 -3.750000 0.098264 
endloop 
endfacet 
facet normal  -0.084007 0.307535 0.947821 
outer loop 
vertex  -0.833333 3.750000 0.098264 
vertex  -0.416667 3.750000 0.135194 
vertex  -0.416667 4.166667 0.000000 
endloop 
endfacet 
facet normal  -0.189670 -0.481976 0.855409 
outer loop 
vertex  -1.250000 -3.750000 0.030437 
vertex  -1.250000 -3.333333 0.265206 
vertex  -1.666667 -3.333333 0.172818 
endloop 
endfacet 
facet normal  -0.189670 0.481976 0.855409 
outer loop 
vertex  -1.666667 3.333333 0.172818 
vertex  -1.250000 3.333333 0.265206 
vertex  -1.250000 3.750000 0.030437 
endloop 
endfacet 
facet normal  -0.140418 -0.486023 0.862592 
outer loop 
vertex  -1.250000 -3.750000 0.030437 
vertex  -0.833333 -3.750000 0.098264 
vertex  -1.250000 -3.333333 0.265206 
endloop 
endfacet 
facet normal  -0.140418 0.486023 0.862592 
outer loop 
vertex  -1.250000 3.333333 0.265206 
vertex  -0.833333 3.750000 0.098264 
vertex  -1.250000 3.750000 0.030437 
endloop 
endfacet 
facet normal  0.000000 -0.308626 0.951183 
outer loop 
vertex  0.000000 -4.166667 0.000000 
vertex  -0.416667 -3.750000 0.135194 
vertex  -0.416667 -4.166667 0.000000 
endloop 
endfacet 
facet normal  0.000000 0.308626 0.951183 
outer loop 
vertex  -0.416667 4.166667 0.000000 
vertex  -0.416667 3.750000 0.135194 
vertex  0.000000 4.166667 0.000000 
endloop 
endfacet 
facet normal  -0.156487 -0.226710 0.961309 
outer loop 
vertex  -0.833333 -4.166667 0.000000 
vertex  -0.833333 -3.750000 0.098264 
vertex  -1.250000 -3.750000 0.030437 
endloop 
endfacet 
facet normal  -0.156487 0.226710 0.961309 
outer loop 
vertex  -1.250000 3.750000 0.030437 
vertex  -0.833333 3.750000 0.098264 
vertex  -0.833333 4.166667 0.000000 
endloop 
endfacet 
facet normal  0.000000 -0.229538 0.973300 
outer loop 
vertex  -0.833333 -4.166667 0.000000 
vertex  -0.416667 -4.166667 0.000000 
vertex  -0.833333 -3.750000 0.098264 
endloop 
endfacet 
facet normal  0.000000 0.229538 0.973300 
outer loop 
vertex  -0.833333 3.750000 0.098264 
vertex  -0.416667 4.166667 0.000000 
vertex  -0.833333 4.166667 0.000000 
endloop 
endfacet 
facet normal  -0.077690 -0.474993 0.876554 
outer loop 
vertex  -0.416667 -3.750000 0.135194 
vertex  -0.833333 -3.333333 0.324050 
vertex  -0.833333 -3.750000 0.098264 
endloop 
endfacet 
facet normal  -0.077690 0.474993 0.876554 
outer loop 
vertex  -0.833333 3.750000 0.098264 
vertex  -0.833333 3.333333 0.324050 
vertex  -0.416667 3.750000 0.135194 
endloop 
endfacet 
facet normal  -0.032024 -0.389497 0.920471 
outer loop 
vertex  -0.416667 -3.333333 0.350789 
vertex  -0.416667 -2.916667 0.527102 
vertex  -0.833333 -2.916667 0.512605 
endloop 
endfacet 
facet normal  -0.032024 0.389497 0.920471 
outer loop 
vertex  -0.833333 2.916667 0.512605 
vertex  -0.416667 2.916667 0.527102 
vertex  -0.416667 3.333333 0.350789 
endloop 
endfacet 
facet normal  -0.032636 -0.344890 0.938076 
outer loop 
vertex  -0.833333 -2.500000 0.665796 
vertex  -0.833333 -2.916667 0.512605 
vertex  -0.416667 -2.916667 0.527102 
endloop 
endfacet 
facet normal  -0.032636 0.344890 0.938076 
outer loop 
vertex  -0.416667 2.916667 0.527102 
vertex  -0.833333 2.916667 0.512605 
vertex  -0.833333 2.500000 0.665796 
endloop 
endfacet 
facet normal  -0.182093 -0.379303 0.907178 
outer loop 
vertex  -1.666667 -2.500000 0.554728 
vertex  -1.666667 -2.916667 0.380515 
vertex  -1.250000 -2.916667 0.464150 
endloop 
endfacet 
facet normal  -0.182093 0.379303 0.907178 
outer loop 
vertex  -1.250000 2.916667 0.464150 
vertex  -1.666667 2.916667 0.380515 
vertex  -1.666667 2.500000 0.554728 
endloop 
endfacet 
facet normal  -0.000804 -0.316552 0.948575 
outer loop 
vertex  -0.416667 -2.500000 0.666149 
vertex  -0.833333 -2.500000 0.665796 
vertex  -0.416667 -2.916667 0.527102 
endloop 
endfacet 
facet normal  -0.000804 0.316552 0.948575 
outer loop 
vertex  -0.416667 2.916667 0.527102 
vertex  -0.833333 2.500000 0.665796 
vertex  -0.416667 2.500000 0.666149 
endloop 
endfacet 
facet normal  -0.028929 -0.212910 0.976643 
outer loop 
vertex  -0.833333 -2.083333 0.786190 
vertex  -0.833333 -1.666667 0.877024 
vertex  -1.250000 -1.666667 0.864682 
endloop 
endfacet 
facet normal  -0.028929 0.212910 0.976643 
outer loop 
vertex  -1.250000 1.666667 0.864682 
vertex  -0.833333 1.666667 0.877024 
vertex  -0.833333 2.083333 0.786190 
endloop 
endfacet 
facet normal  0.039822 -0.316301 0.947823 
outer loop 
vertex  0.000000 -2.916667 0.509596 
vertex  -0.416667 -2.500000 0.666149 
vertex  -0.416667 -2.916667 0.527102 
endloop 
endfacet 
facet normal  0.039822 0.316301 0.947823 
outer loop 
vertex  -0.416667 2.916667 0.527102 
vertex  -0.416667 2.500000 0.666149 
vertex  0.000000 2.916667 0.509596 
endloop 
endfacet 
facet normal  0.073566 -0.176223 0.981597 
outer loop 
vertex  -0.416667 -2.083333 0.770994 
vertex  -0.416667 -1.666667 0.845797 
vertex  -0.833333 -1.666667 0.877024 
endloop 
endfacet 
facet normal  0.073566 0.176223 0.981597 
outer loop 
vertex  -0.833333 1.666667 0.877024 
vertex  -0.416667 1.666667 0.845797 
vertex  -0.416667 2.083333 0.770994 
endloop 
endfacet 
facet normal  -0.240306 -0.374449 0.895568 
outer loop 
vertex  -2.083333 -2.500000 0.442925 
vertex  -1.666667 -2.916667 0.380515 
vertex  -1.666667 -2.500000 0.554728 
endloop 
endfacet 
facet normal  -0.240306 0.374449 0.895568 
outer loop 
vertex  -1.666667 2.500000 0.554728 
vertex  -1.666667 2.916667 0.380515 
vertex  -2.083333 2.500000 0.442925 
endloop 
endfacet 
facet normal  -0.194647 -0.437586 0.877856 
outer loop 
vertex  -1.666667 -3.333333 0.172818 
vertex  -1.250000 -3.333333 0.265206 
vertex  -1.666667 -2.916667 0.380515 
endloop 
endfacet 
facet normal  -0.194647 0.437586 0.877856 
outer loop 
vertex  -1.666667 2.916667 0.380515 
vertex  -1.250000 3.333333 0.265206 
vertex  -1.666667 3.333333 0.172818 
endloop 
endfacet 
facet normal  -0.082805 -0.343888 0.935352 
outer loop 
vertex  -0.833333 -2.500000 0.665796 
vertex  -1.250000 -2.500000 0.628909 
vertex  -0.833333 -2.916667 0.512605 
endloop 
endfacet 
facet normal  -0.082805 0.343888 0.935352 
outer loop 
vertex  -0.833333 2.916667 0.512605 
vertex  -1.250000 2.500000 0.628909 
vertex  -0.833333 2.500000 0.665796 
endloop 
endfacet 
facet normal  -0.178236 -0.423973 0.887963 
outer loop 
vertex  -1.666667 -2.916667 0.380515 
vertex  -1.250000 -3.333333 0.265206 
vertex  -1.250000 -2.916667 0.464150 
endloop 
endfacet 
facet normal  -0.178236 0.423973 0.887963 
outer loop 
vertex  -1.250000 2.916667 0.464150 
vertex  -1.250000 3.333333 0.265206 
vertex  -1.666667 2.916667 0.380515 
endloop 
endfacet 
facet normal  -0.163337 -0.362779 0.917449 
outer loop 
vertex  -1.250000 -2.916667 0.464150 
vertex  -1.250000 -2.500000 0.628909 
vertex  -1.666667 -2.500000 0.554728 
endloop 
endfacet 
facet normal  -0.163337 0.362779 0.917449 
outer loop 
vertex  -1.666667 2.500000 0.554728 
vertex  -1.250000 2.500000 0.628909 
vertex  -1.250000 2.916667 0.464150 
endloop 
endfacet 
facet normal  -0.107519 -0.365586 0.924547 
outer loop 
vertex  -1.250000 -2.916667 0.464150 
vertex  -0.833333 -2.916667 0.512605 
vertex  -1.250000 -2.500000 0.628909 
endloop 
endfacet 
facet normal  -0.107519 0.365586 0.924547 
outer loop 
vertex  -1.250000 2.500000 0.628909 
vertex  -0.833333 2.916667 0.512605 
vertex  -1.250000 2.916667 0.464150 
endloop 
endfacet 
facet normal  -0.218362 -0.254551 0.942084 
outer loop 
vertex  -1.666667 -1.666667 0.809744 
vertex  -2.083333 -1.666667 0.713166 
vertex  -1.666667 -2.083333 0.697161 
endloop 
endfacet 
facet normal  -0.218362 0.254551 0.942084 
outer loop 
vertex  -1.666667 2.083333 0.697161 
vertex  -2.083333 1.666667 0.713166 
vertex  -1.666667 1.666667 0.809744 
endloop 
endfacet 
facet normal  -0.145759 -0.300174 0.942682 
outer loop 
vertex  -1.666667 -2.083333 0.697161 
vertex  -1.250000 -2.500000 0.628909 
vertex  -1.250000 -2.083333 0.761586 
endloop 
endfacet 
facet normal  -0.145759 0.300174 0.942682 
outer loop 
vertex  -1.250000 2.083333 0.761586 
vertex  -1.250000 2.500000 0.628909 
vertex  -1.666667 2.083333 0.697161 
endloop 
endfacet 
facet normal  -0.379346 -0.155636 0.912071 
outer loop 
vertex  -2.916667 -1.250000 0.498940 
vertex  -2.500000 -1.250000 0.672239 
vertex  -2.916667 -0.833333 0.570041 
endloop 
endfacet 
facet normal  -0.379346 0.155636 0.912071 
outer loop 
vertex  -2.916667 0.833333 0.570041 
vertex  -2.500000 1.250000 0.672239 
vertex  -2.916667 1.250000 0.498940 
endloop 
endfacet 
facet normal  -0.233241 -0.269136 0.934433 
outer loop 
vertex  -2.083333 -2.083333 0.593158 
vertex  -1.666667 -2.083333 0.697161 
vertex  -2.083333 -1.666667 0.713166 
endloop 
endfacet 
facet normal  -0.233241 0.269136 0.934433 
outer loop 
vertex  -2.083333 1.666667 0.713166 
vertex  -1.666667 2.083333 0.697161 
vertex  -2.083333 2.083333 0.593158 
endloop 
endfacet 
facet normal  -0.229864 -0.314800 0.920904 
outer loop 
vertex  -1.666667 -2.500000 0.554728 
vertex  -1.666667 -2.083333 0.697161 
vertex  -2.083333 -2.083333 0.593158 
endloop 
endfacet 
facet normal  -0.229864 0.314800 0.920904 
outer loop 
vertex  -2.083333 2.083333 0.593158 
vertex  -1.666667 2.083333 0.697161 
vertex  -1.666667 2.500000 0.554728 
endloop 
endfacet 
facet normal  -0.166122 -0.318967 0.933094 
outer loop 
vertex  -1.666667 -2.500000 0.554728 
vertex  -1.250000 -2.500000 0.628909 
vertex  -1.666667 -2.083333 0.697161 
endloop 
endfacet 
facet normal  -0.166122 0.318967 0.933094 
outer loop 
vertex  -1.666667 2.083333 0.697161 
vertex  -1.250000 2.500000 0.628909 
vertex  -1.666667 2.500000 0.554728 
endloop 
endfacet 
facet normal  -0.108932 -0.178923 0.977814 
outer loop 
vertex  -1.250000 -1.250000 0.940925 
vertex  -1.666667 -1.250000 0.894507 
vertex  -1.250000 -1.666667 0.864682 
endloop 
endfacet 
facet normal  -0.108932 0.178923 0.977814 
outer loop 
vertex  -1.250000 1.666667 0.864682 
vertex  -1.666667 1.250000 0.894507 
vertex  -1.250000 1.250000 0.940925 
endloop 
endfacet 
facet normal  -0.220824 -0.208780 0.952706 
outer loop 
vertex  -2.083333 -1.250000 0.804476 
vertex  -2.083333 -1.666667 0.713166 
vertex  -1.666667 -1.666667 0.809744 
endloop 
endfacet 
facet normal  -0.220824 0.208780 0.952706 
outer loop 
vertex  -1.666667 1.666667 0.809744 
vertex  -2.083333 1.666667 0.713166 
vertex  -2.083333 1.250000 0.804476 
endloop 
endfacet 
facet normal  -0.207144 -0.195024 0.958675 
outer loop 
vertex  -2.083333 -1.250000 0.804476 
vertex  -1.666667 -1.666667 0.809744 
vertex  -1.666667 -1.250000 0.894507 
endloop 
endfacet 
facet normal  -0.207144 0.195024 0.958675 
outer loop 
vertex  -1.666667 1.250000 0.894507 
vertex  -1.666667 1.666667 0.809744 
vertex  -2.083333 1.250000 0.804476 
endloop 
endfacet 
facet normal  -0.147633 -0.257987 0.954802 
outer loop 
vertex  -1.666667 -2.083333 0.697161 
vertex  -1.250000 -2.083333 0.761586 
vertex  -1.666667 -1.666667 0.809744 
endloop 
endfacet 
facet normal  -0.147633 0.257987 0.954802 
outer loop 
vertex  -1.666667 1.666667 0.809744 
vertex  -1.250000 2.083333 0.761586 
vertex  -1.666667 2.083333 0.697161 
endloop 
endfacet 
facet normal  -0.002555 -0.154085 0.988054 
outer loop 
vertex  -0.833333 -1.250000 0.942002 
vertex  -1.250000 -1.250000 0.940925 
vertex  -0.833333 -1.666667 0.877024 
endloop 
endfacet 
facet normal  -0.002555 0.154085 0.988054 
outer loop 
vertex  -0.833333 1.666667 0.877024 
vertex  -1.250000 1.250000 0.940925 
vertex  -0.833333 1.250000 0.942002 
endloop 
endfacet 
facet normal  -0.126957 -0.238243 0.962872 
outer loop 
vertex  -1.666667 -1.666667 0.809744 
vertex  -1.250000 -2.083333 0.761586 
vertex  -1.250000 -1.666667 0.864682 
endloop 
endfacet 
facet normal  -0.126957 0.238243 0.962872 
outer loop 
vertex  -1.250000 1.666667 0.864682 
vertex  -1.250000 2.083333 0.761586 
vertex  -1.666667 1.666667 0.809744 
endloop 
endfacet 
facet normal  -0.029125 -0.179918 0.983250 
outer loop 
vertex  -0.833333 -1.666667 0.877024 
vertex  -1.250000 -1.250000 0.940925 
vertex  -1.250000 -1.666667 0.864682 
endloop 
endfacet 
facet normal  -0.029125 0.179918 0.983250 
outer loop 
vertex  -1.250000 1.666667 0.864682 
vertex  -1.250000 1.250000 0.940925 
vertex  -0.833333 1.666667 0.877024 
endloop 
endfacet 
facet normal  0.166443 -0.011439 0.985985 
outer loop 
vertex  -0.416667 0.000000 0.946563 
vertex  -0.833333 0.000000 1.016900 
vertex  -0.416667 -0.416667 0.941729 
endloop 
endfacet 
facet normal  0.166443 0.011439 0.985985 
outer loop 
vertex  -0.416667 0.416667 0.941729 
vertex  -0.833333 -0.000000 1.016900 
vertex  -0.416667 -0.000000 0.946563 
endloop 
endfacet 
facet normal  0.073848 -0.153664 0.985360 
outer loop 
vertex  -0.416667 -1.666667 0.845797 
vertex  -0.833333 -1.250000 0.942002 
vertex  -0.833333 -1.666667 0.877024 
endloop 
endfacet 
facet normal  0.073848 0.153664 0.985360 
outer loop 
vertex  -0.833333 1.666667 0.877024 
vertex  -0.833333 1.250000 0.942002 
vertex  -0.416667 1.666667 0.845797 
endloop 
endfacet 
facet normal  0.019291 -0.102434 0.994553 
outer loop 
vertex  -0.833333 -0.833333 0.984917 
vertex  -1.250000 -0.833333 0.992999 
vertex  -0.833333 -1.250000 0.942002 
endloop 
endfacet 
facet normal  0.019291 0.102434 0.994553 
outer loop 
vertex  -0.833333 1.250000 0.942002 
vertex  -1.250000 0.833333 0.992999 
vertex  -0.833333 0.833333 0.984917 
endloop 
endfacet 
facet normal  -0.002566 -0.124013 0.992277 
outer loop 
vertex  -0.833333 -1.250000 0.942002 
vertex  -1.250000 -0.833333 0.992999 
vertex  -1.250000 -1.250000 0.940925 
endloop 
endfacet 
facet normal  -0.002566 0.124013 0.992277 
outer loop 
vertex  -1.250000 1.250000 0.940925 
vertex  -1.250000 0.833333 0.992999 
vertex  -0.833333 1.250000 0.942002 
endloop 
endfacet 
facet normal  -0.094327 -0.082399 0.992125 
outer loop 
vertex  -1.666667 -0.416667 0.987990 
vertex  -1.666667 -0.833333 0.953384 
vertex  -1.250000 -0.833333 0.992999 
endloop 
endfacet 
facet normal  -0.094327 0.082399 0.992125 
outer loop 
vertex  -1.250000 0.833333 0.992999 
vertex  -1.666667 0.833333 0.953384 
vertex  -1.666667 0.416667 0.987990 
endloop 
endfacet 
facet normal  0.110046 -0.101831 0.988696 
outer loop 
vertex  -0.416667 -1.250000 0.895626 
vertex  -0.833333 -0.833333 0.984917 
vertex  -0.833333 -1.250000 0.942002 
endloop 
endfacet 
facet normal  0.110046 0.101831 0.988696 
outer loop 
vertex  -0.833333 1.250000 0.942002 
vertex  -0.833333 0.833333 0.984917 
vertex  -0.416667 1.250000 0.895626 
endloop 
endfacet 
facet normal  0.159532 -0.037393 0.986484 
outer loop 
vertex  -0.416667 -0.833333 0.925936 
vertex  -0.416667 -0.416667 0.941729 
vertex  -0.833333 -0.416667 1.009112 
endloop 
endfacet 
facet normal  0.159532 0.037393 0.986484 
outer loop 
vertex  -0.833333 0.416667 1.009112 
vertex  -0.416667 0.416667 0.941729 
vertex  -0.416667 0.833333 0.925936 
endloop 
endfacet 
facet normal  0.033736 -0.057937 0.997750 
outer loop 
vertex  -0.833333 -0.833333 0.984917 
vertex  -0.833333 -0.416667 1.009112 
vertex  -1.250000 -0.416667 1.023200 
endloop 
endfacet 
facet normal  0.033736 0.057937 0.997750 
outer loop 
vertex  -1.250000 0.416667 1.023200 
vertex  -0.833333 0.416667 1.009112 
vertex  -0.833333 0.833333 0.984917 
endloop 
endfacet 
facet normal  0.139927 -0.057399 0.988497 
outer loop 
vertex  -0.833333 -0.833333 0.984917 
vertex  -0.416667 -0.833333 0.925936 
vertex  -0.833333 -0.416667 1.009112 
endloop 
endfacet 
facet normal  0.139927 0.057399 0.988497 
outer loop 
vertex  -0.833333 0.416667 1.009112 
vertex  -0.416667 0.833333 0.925936 
vertex  -0.833333 0.833333 0.984917 
endloop 
endfacet 
facet normal  -0.208856 -0.148536 0.966600 
outer loop 
vertex  -2.083333 -0.833333 0.868505 
vertex  -2.083333 -1.250000 0.804476 
vertex  -1.666667 -1.250000 0.894507 
endloop 
endfacet 
facet normal  -0.208856 0.148536 0.966600 
outer loop 
vertex  -1.666667 1.250000 0.894507 
vertex  -2.083333 1.250000 0.804476 
vertex  -2.083333 0.833333 0.868505 
endloop 
endfacet 
facet normal  -0.372894 -0.089609 0.923537 
outer loop 
vertex  -2.500000 -0.833333 0.740236 
vertex  -2.500000 -0.416667 0.780665 
vertex  -2.916667 -0.416667 0.612428 
endloop 
endfacet 
facet normal  -0.372894 0.089609 0.923537 
outer loop 
vertex  -2.916667 0.416667 0.612428 
vertex  -2.500000 0.416667 0.780665 
vertex  -2.500000 0.833333 0.740236 
endloop 
endfacet 
facet normal  -0.197724 -0.137153 0.970615 
outer loop 
vertex  -1.666667 -0.833333 0.953384 
vertex  -2.083333 -0.833333 0.868505 
vertex  -1.666667 -1.250000 0.894507 
endloop 
endfacet 
facet normal  -0.197724 0.137153 0.970615 
outer loop 
vertex  -1.666667 1.250000 0.894507 
vertex  -2.083333 0.833333 0.868505 
vertex  -1.666667 0.833333 0.953384 
endloop 
endfacet 
facet normal  -0.287833 -0.086768 0.953742 
outer loop 
vertex  -2.083333 -0.416667 0.906412 
vertex  -2.500000 -0.416667 0.780665 
vertex  -2.083333 -0.833333 0.868505 
endloop 
endfacet 
facet normal  -0.287833 0.086768 0.953742 
outer loop 
vertex  -2.083333 0.833333 0.868505 
vertex  -2.500000 0.416667 0.780665 
vertex  -2.083333 0.416667 0.906412 
endloop 
endfacet 
facet normal  -0.109643 -0.139072 0.984194 
outer loop 
vertex  -1.250000 -1.250000 0.940925 
vertex  -1.666667 -0.833333 0.953384 
vertex  -1.666667 -1.250000 0.894507 
endloop 
endfacet 
facet normal  -0.109643 0.139072 0.984194 
outer loop 
vertex  -1.666667 1.250000 0.894507 
vertex  -1.666667 0.833333 0.953384 
vertex  -1.250000 1.250000 0.940925 
endloop 
endfacet 
facet normal  -0.083986 -0.072037 0.993860 
outer loop 
vertex  -1.250000 -0.833333 0.992999 
vertex  -1.250000 -0.416667 1.023200 
vertex  -1.666667 -0.416667 0.987990 
endloop 
endfacet 
facet normal  -0.083986 0.072037 0.993860 
outer loop 
vertex  -1.666667 0.416667 0.987990 
vertex  -1.250000 0.416667 1.023200 
vertex  -1.250000 0.833333 0.992999 
endloop 
endfacet 
facet normal  -0.191504 -0.081236 0.978124 
outer loop 
vertex  -2.083333 -0.416667 0.906412 
vertex  -1.666667 -0.833333 0.953384 
vertex  -1.666667 -0.416667 0.987990 
endloop 
endfacet 
facet normal  -0.191504 0.081236 0.978124 
outer loop 
vertex  -1.666667 0.416667 0.987990 
vertex  -1.666667 0.833333 0.953384 
vertex  -2.083333 0.416667 0.906412 
endloop 
endfacet 
facet normal  -0.376474 -0.093762 0.921670 
outer loop 
vertex  -2.916667 -0.416667 0.612428 
vertex  -2.916667 -0.833333 0.570041 
vertex  -2.500000 -0.833333 0.740236 
endloop 
endfacet 
facet normal  -0.376474 0.093762 0.921670 
outer loop 
vertex  -2.500000 0.833333 0.740236 
vertex  -2.916667 0.833333 0.570041 
vertex  -2.916667 0.416667 0.612428 
endloop 
endfacet 
facet normal  -0.447235 -0.090522 0.889824 
outer loop 
vertex  -2.916667 -0.416667 0.612428 
vertex  -3.333333 -0.416667 0.403007 
vertex  -2.916667 -0.833333 0.570041 
endloop 
endfacet 
facet normal  -0.447235 0.090522 0.889824 
outer loop 
vertex  -2.916667 0.833333 0.570041 
vertex  -3.333333 0.416667 0.403007 
vertex  -2.916667 0.416667 0.612428 
endloop 
endfacet 
facet normal  -0.291097 -0.145308 0.945594 
outer loop 
vertex  -2.083333 -0.833333 0.868505 
vertex  -2.500000 -0.833333 0.740236 
vertex  -2.083333 -1.250000 0.804476 
endloop 
endfacet 
facet normal  -0.291097 0.145308 0.945594 
outer loop 
vertex  -2.083333 1.250000 0.804476 
vertex  -2.500000 0.833333 0.740236 
vertex  -2.083333 0.833333 0.868505 
endloop 
endfacet 
facet normal  -0.292963 -0.092338 0.951655 
outer loop 
vertex  -2.083333 -0.833333 0.868505 
vertex  -2.500000 -0.416667 0.780665 
vertex  -2.500000 -0.833333 0.740236 
endloop 
endfacet 
facet normal  -0.292963 0.092338 0.951655 
outer loop 
vertex  -2.500000 0.833333 0.740236 
vertex  -2.500000 0.416667 0.780665 
vertex  -2.083333 0.833333 0.868505 
endloop 
endfacet 
facet normal  -0.286979 -0.028833 0.957503 
outer loop 
vertex  -2.500000 0.000000 0.794077 
vertex  -2.083333 -0.416667 0.906412 
vertex  -2.083333 0.000000 0.918959 
endloop 
endfacet 
facet normal  -0.286979 0.028833 0.957503 
outer loop 
vertex  -2.083333 -0.000000 0.918959 
vertex  -2.083333 0.416667 0.906412 
vertex  -2.500000 -0.000000 0.794077 
endloop 
endfacet 
facet normal  -0.450478 -0.215558 0.866374 
outer loop 
vertex  -3.333333 -1.666667 0.181846 
vertex  -2.916667 -1.666667 0.398495 
vertex  -3.333333 -1.250000 0.285514 
endloop 
endfacet 
facet normal  -0.450478 0.215558 0.866374 
outer loop 
vertex  -3.333333 1.250000 0.285514 
vertex  -2.916667 1.666667 0.398495 
vertex  -3.333333 1.666667 0.181846 
endloop 
endfacet 
facet normal  -0.384785 -0.276039 0.880763 
outer loop 
vertex  -2.916667 -2.083333 0.267908 
vertex  -2.500000 -2.083333 0.449940 
vertex  -2.916667 -1.666667 0.398495 
endloop 
endfacet 
facet normal  -0.384785 0.276039 0.880763 
outer loop 
vertex  -2.916667 1.666667 0.398495 
vertex  -2.500000 2.083333 0.449940 
vertex  -2.916667 2.083333 0.267908 
endloop 
endfacet 
facet normal  -0.378540 -0.325482 0.866469 
outer loop 
vertex  -2.500000 -2.500000 0.293423 
vertex  -2.500000 -2.083333 0.449940 
vertex  -2.916667 -2.083333 0.267908 
endloop 
endfacet 
facet normal  -0.378540 0.325482 0.866469 
outer loop 
vertex  -2.916667 2.083333 0.267908 
vertex  -2.500000 2.083333 0.449940 
vertex  -2.500000 2.500000 0.293423 
endloop 
endfacet 
facet normal  -0.318408 -0.333348 0.887410 
outer loop 
vertex  -2.500000 -2.500000 0.293423 
vertex  -2.083333 -2.500000 0.442925 
vertex  -2.500000 -2.083333 0.449940 
endloop 
endfacet 
facet normal  -0.318408 0.333348 0.887410 
outer loop 
vertex  -2.500000 2.083333 0.449940 
vertex  -2.083333 2.500000 0.442925 
vertex  -2.500000 2.500000 0.293423 
endloop 
endfacet 
facet normal  -0.296109 -0.204464 0.933013 
outer loop 
vertex  -2.083333 -1.250000 0.804476 
vertex  -2.500000 -1.250000 0.672239 
vertex  -2.083333 -1.666667 0.713166 
endloop 
endfacet 
facet normal  -0.296109 0.204464 0.933013 
outer loop 
vertex  -2.083333 1.666667 0.713166 
vertex  -2.500000 1.250000 0.672239 
vertex  -2.083333 1.250000 0.804476 
endloop 
endfacet 
facet normal  -0.377295 -0.267839 0.886516 
outer loop 
vertex  -2.916667 -1.666667 0.398495 
vertex  -2.500000 -2.083333 0.449940 
vertex  -2.500000 -1.666667 0.575826 
endloop 
endfacet 
facet normal  -0.377295 0.267839 0.886516 
outer loop 
vertex  -2.500000 1.666667 0.575826 
vertex  -2.500000 2.083333 0.449940 
vertex  -2.916667 1.666667 0.398495 
endloop 
endfacet 
facet normal  -0.298905 -0.153698 0.941824 
outer loop 
vertex  -2.500000 -0.833333 0.740236 
vertex  -2.500000 -1.250000 0.672239 
vertex  -2.083333 -1.250000 0.804476 
endloop 
endfacet 
facet normal  -0.298905 0.153698 0.941824 
outer loop 
vertex  -2.083333 1.250000 0.804476 
vertex  -2.500000 1.250000 0.672239 
vertex  -2.500000 0.833333 0.740236 
endloop 
endfacet 
facet normal  -0.373897 -0.149380 0.915362 
outer loop 
vertex  -2.500000 -0.833333 0.740236 
vertex  -2.916667 -0.833333 0.570041 
vertex  -2.500000 -1.250000 0.672239 
endloop 
endfacet 
facet normal  -0.373897 0.149380 0.915362 
outer loop 
vertex  -2.500000 1.250000 0.672239 
vertex  -2.916667 0.833333 0.570041 
vertex  -2.500000 0.833333 0.740236 
endloop 
endfacet 
facet normal  -0.078070 -0.078070 0.993886 
outer loop 
vertex  -3.750000 -1.666667 0.000000 
vertex  -3.750000 -1.250000 0.032729 
vertex  -4.166667 -1.250000 0.000000 
endloop 
endfacet 
facet normal  -0.078070 0.078070 0.993886 
outer loop 
vertex  -4.166667 1.250000 0.000000 
vertex  -3.750000 1.250000 0.032729 
vertex  -3.750000 1.666667 0.000000 
endloop 
endfacet 
facet normal  -0.398963 -0.071807 0.914151 
outer loop 
vertex  -3.750000 -1.666667 0.000000 
vertex  -3.333333 -1.666667 0.181846 
vertex  -3.750000 -1.250000 0.032729 
endloop 
endfacet 
facet normal  -0.398963 0.071807 0.914151 
outer loop 
vertex  -3.750000 1.250000 0.032729 
vertex  -3.333333 1.666667 0.181846 
vertex  -3.750000 1.666667 0.000000 
endloop 
endfacet 
facet normal  -0.383588 -0.283474 0.878921 
outer loop 
vertex  -3.333333 -2.083333 0.047460 
vertex  -3.333333 -1.666667 0.181846 
vertex  -3.750000 -1.666667 0.000000 
endloop 
endfacet 
facet normal  -0.383588 0.283474 0.878921 
outer loop 
vertex  -3.750000 1.666667 0.000000 
vertex  -3.333333 1.666667 0.181846 
vertex  -3.333333 2.083333 0.047460 
endloop 
endfacet 
facet normal  -0.449736 -0.274160 0.850043 
outer loop 
vertex  -3.333333 -2.083333 0.047460 
vertex  -2.916667 -2.083333 0.267908 
vertex  -3.333333 -1.666667 0.181846 
endloop 
endfacet 
facet normal  -0.449736 0.274160 0.850043 
outer loop 
vertex  -3.333333 1.666667 0.181846 
vertex  -2.916667 2.083333 0.267908 
vertex  -3.333333 2.083333 0.047460 
endloop 
endfacet 
facet normal  -0.078309 0.000000 0.996929 
outer loop 
vertex  -4.166667 -1.250000 0.000000 
vertex  -3.750000 -1.250000 0.032729 
vertex  -4.166667 -0.833333 0.000000 
endloop 
endfacet 
facet normal  -0.078309 -0.000000 0.996929 
outer loop 
vertex  -4.166667 0.833333 0.000000 
vertex  -3.750000 1.250000 0.032729 
vertex  -4.166667 1.250000 0.000000 
endloop 
endfacet 
facet normal  -0.251486 0.000000 0.967861 
outer loop 
vertex  -4.166667 -0.833333 0.000000 
vertex  -3.750000 -0.833333 0.108265 
vertex  -4.166667 -0.416667 0.000000 
endloop 
endfacet 
facet normal  -0.251486 -0.000000 0.967861 
outer loop 
vertex  -4.166667 0.416667 0.000000 
vertex  -3.750000 0.833333 0.108265 
vertex  -4.166667 0.833333 0.000000 
endloop 
endfacet 
facet normal  -0.509920 -0.149556 0.847122 
outer loop 
vertex  -3.333333 -1.250000 0.285514 
vertex  -3.333333 -0.833333 0.359075 
vertex  -3.750000 -0.833333 0.108265 
endloop 
endfacet 
facet normal  -0.509920 0.149556 0.847122 
outer loop 
vertex  -3.750000 0.833333 0.108265 
vertex  -3.333333 0.833333 0.359075 
vertex  -3.333333 1.250000 0.285514 
endloop 
endfacet 
facet normal  -0.450369 -0.155227 0.879245 
outer loop 
vertex  -3.333333 -1.250000 0.285514 
vertex  -2.916667 -1.250000 0.498940 
vertex  -3.333333 -0.833333 0.359075 
endloop 
endfacet 
facet normal  -0.450369 0.155227 0.879245 
outer loop 
vertex  -3.333333 0.833333 0.359075 
vertex  -2.916667 1.250000 0.498940 
vertex  -3.333333 1.250000 0.285514 
endloop 
endfacet 
facet normal  -0.445750 -0.209785 0.870228 
outer loop 
vertex  -2.916667 -1.666667 0.398495 
vertex  -2.916667 -1.250000 0.498940 
vertex  -3.333333 -1.250000 0.285514 
endloop 
endfacet 
facet normal  -0.445750 0.209785 0.870228 
outer loop 
vertex  -3.333333 1.250000 0.285514 
vertex  -2.916667 1.250000 0.498940 
vertex  -2.916667 1.666667 0.398495 
endloop 
endfacet 
facet normal  -0.382311 -0.216552 0.898300 
outer loop 
vertex  -2.916667 -1.666667 0.398495 
vertex  -2.500000 -1.666667 0.575826 
vertex  -2.916667 -1.250000 0.498940 
endloop 
endfacet 
facet normal  -0.382311 0.216552 0.898300 
outer loop 
vertex  -2.916667 1.250000 0.498940 
vertex  -2.500000 1.666667 0.575826 
vertex  -2.916667 1.666667 0.398495 
endloop 
endfacet 
facet normal  -0.345551 0.000000 0.938400 
outer loop 
vertex  -4.166667 -0.416667 0.000000 
vertex  -3.750000 -0.416667 0.153431 
vertex  -4.166667 0.000000 0.000000 
endloop 
endfacet 
facet normal  -0.345551 -0.000000 0.938400 
outer loop 
vertex  -4.166667 -0.000000 0.000000 
vertex  -3.750000 0.416667 0.153431 
vertex  -4.166667 0.416667 0.000000 
endloop 
endfacet 
facet normal  -0.374618 -0.033420 0.926577 
outer loop 
vertex  -4.166667 0.000000 0.000000 
vertex  -3.750000 -0.416667 0.153431 
vertex  -3.750000 0.000000 0.168460 
endloop 
endfacet 
facet normal  -0.374618 0.033420 0.926577 
outer loop 
vertex  -3.750000 -0.000000 0.168460 
vertex  -3.750000 0.416667 0.153431 
vertex  -4.166667 -0.000000 0.000000 
endloop 
endfacet 
facet normal  -0.512985 -0.030078 0.857870 
outer loop 
vertex  -3.333333 -0.416667 0.403007 
vertex  -3.333333 0.000000 0.417616 
vertex  -3.750000 0.000000 0.168460 
endloop 
endfacet 
facet normal  -0.512985 0.030078 0.857870 
outer loop 
vertex  -3.750000 -0.000000 0.168460 
vertex  -3.333333 -0.000000 0.417616 
vertex  -3.333333 0.416667 0.403007 
endloop 
endfacet 
facet normal  -0.448858 -0.031312 0.893054 
outer loop 
vertex  -3.333333 -0.416667 0.403007 
vertex  -2.916667 -0.416667 0.612428 
vertex  -3.333333 0.000000 0.417616 
endloop 
endfacet 
facet normal  -0.448858 0.031312 0.893054 
outer loop 
vertex  -3.333333 -0.000000 0.417616 
vertex  -2.916667 0.416667 0.612428 
vertex  -3.333333 0.416667 0.403007 
endloop 
endfacet 
facet normal  -0.447972 -0.030199 0.893538 
outer loop 
vertex  -3.333333 0.000000 0.417616 
vertex  -2.916667 -0.416667 0.612428 
vertex  -2.916667 0.000000 0.626510 
endloop 
endfacet 
facet normal  -0.447972 0.030199 0.893538 
outer loop 
vertex  -2.916667 -0.000000 0.626510 
vertex  -2.916667 0.416667 0.612428 
vertex  -3.333333 -0.000000 0.417616 
endloop 
endfacet 
facet normal  -0.084174 -0.027275 0.996078 
outer loop 
vertex  -1.250000 -0.416667 1.023200 
vertex  -1.666667 0.000000 0.999399 
vertex  -1.666667 -0.416667 0.987990 
endloop 
endfacet 
facet normal  -0.084174 0.027275 0.996078 
outer loop 
vertex  -1.666667 0.416667 0.987990 
vertex  -1.666667 -0.000000 0.999399 
vertex  -1.250000 0.416667 1.023200 
endloop 
endfacet 
facet normal  0.033783 -0.023700 0.999148 
outer loop 
vertex  -0.833333 -0.416667 1.009112 
vertex  -1.250000 0.000000 1.033083 
vertex  -1.250000 -0.416667 1.023200 
endloop 
endfacet 
facet normal  0.033783 0.023700 0.999148 
outer loop 
vertex  -1.250000 0.416667 1.023200 
vertex  -1.250000 -0.000000 1.033083 
vertex  -0.833333 0.416667 1.009112 
endloop 
endfacet 
facet normal  0.038803 -0.018675 0.999072 
outer loop 
vertex  -0.833333 -0.416667 1.009112 
vertex  -0.833333 0.000000 1.016900 
vertex  -1.250000 0.000000 1.033083 
endloop 
endfacet 
facet normal  0.038803 0.018675 0.999072 
outer loop 
vertex  -1.250000 -0.000000 1.033083 
vertex  -0.833333 -0.000000 1.016900 
vertex  -0.833333 0.416667 1.009112 
endloop 
endfacet 
facet normal  0.159616 -0.018450 0.987007 
outer loop 
vertex  -0.833333 -0.416667 1.009112 
vertex  -0.416667 -0.416667 0.941729 
vertex  -0.833333 0.000000 1.016900 
endloop 
endfacet 
facet normal  0.159616 0.018450 0.987007 
outer loop 
vertex  -0.833333 -0.000000 1.016900 
vertex  -0.416667 0.416667 0.941729 
vertex  -0.833333 0.416667 1.009112 
endloop 
endfacet 
facet normal  0.289990 -0.008475 0.956992 
outer loop 
vertex  -0.416667 -0.416667 0.941729 
vertex  0.000000 -0.833333 0.811780 
vertex  0.000000 -0.416667 0.815470 
endloop 
endfacet 
facet normal  0.289990 0.008475 0.956992 
outer loop 
vertex  0.000000 0.416667 0.815470 
vertex  0.000000 0.833333 0.811780 
vertex  -0.416667 0.416667 0.941729 
endloop 
endfacet 
facet normal  0.162117 0.162117 0.973363 
outer loop 
vertex  1.666667 -0.833333 0.000000 
vertex  1.250000 -0.416667 0.000000 
vertex  1.250000 -0.833333 0.069397 
endloop 
endfacet 
facet normal  0.162117 -0.162117 0.973363 
outer loop 
vertex  1.250000 0.833333 0.069397 
vertex  1.250000 0.416667 0.000000 
vertex  1.666667 0.833333 0.000000 
endloop 
endfacet 
facet normal  0.114975 0.114975 0.986692 
outer loop 
vertex  1.666667 -1.666667 0.048553 
vertex  2.083333 -1.666667 0.000000 
vertex  1.666667 -1.250000 0.000000 
endloop 
endfacet 
facet normal  0.114975 -0.114975 0.986692 
outer loop 
vertex  1.666667 1.250000 0.000000 
vertex  2.083333 1.666667 0.000000 
vertex  1.666667 1.666667 0.048553 
endloop 
endfacet 
facet normal  0.478178 0.206171 0.853721 
outer loop 
vertex  1.250000 -1.666667 0.281932 
vertex  1.666667 -1.666667 0.048553 
vertex  1.250000 -1.250000 0.181308 
endloop 
endfacet 
facet normal  0.478178 -0.206171 0.853721 
outer loop 
vertex  1.250000 1.250000 0.181308 
vertex  1.666667 1.666667 0.048553 
vertex  1.250000 1.666667 0.281932 
endloop 
endfacet 
facet normal  0.115660 0.037834 0.992568 
outer loop 
vertex  2.083333 -2.083333 0.015882 
vertex  2.083333 -1.666667 0.000000 
vertex  1.666667 -1.666667 0.048553 
endloop 
endfacet 
facet normal  0.115660 -0.037834 0.992568 
outer loop 
vertex  1.666667 1.666667 0.048553 
vertex  2.083333 1.666667 0.000000 
vertex  2.083333 2.083333 0.015882 
endloop 
endfacet 
facet normal  0.038062 0.038062 0.998550 
outer loop 
vertex  2.500000 -2.083333 0.000000 
vertex  2.083333 -1.666667 0.000000 
vertex  2.083333 -2.083333 0.015882 
endloop 
endfacet 
facet normal  0.038062 -0.038062 0.998550 
outer loop 
vertex  2.083333 2.083333 0.015882 
vertex  2.083333 1.666667 0.000000 
vertex  2.500000 2.083333 0.000000 
endloop 
endfacet 
facet normal  0.351429 0.213733 0.911491 
outer loop 
vertex  1.666667 -2.083333 0.176529 
vertex  2.083333 -2.500000 0.113585 
vertex  2.083333 -2.083333 0.015882 
endloop 
endfacet 
facet normal  0.351429 -0.213733 0.911491 
outer loop 
vertex  2.083333 2.083333 0.015882 
vertex  2.083333 2.500000 0.113585 
vertex  1.666667 2.083333 0.176529 
endloop 
endfacet 
facet normal  0.366224 0.027720 0.930114 
outer loop 
vertex  0.833333 -1.666667 0.485784 
vertex  0.416667 -1.666667 0.649843 
vertex  0.833333 -2.083333 0.498202 
endloop 
endfacet 
facet normal  0.366224 -0.027720 0.930114 
outer loop 
vertex  0.833333 2.083333 0.498202 
vertex  0.416667 1.666667 0.649843 
vertex  0.833333 1.666667 0.485784 
endloop 
endfacet 
facet normal  0.221651 -0.217664 0.950523 
outer loop 
vertex  1.666667 -2.916667 0.206552 
vertex  1.250000 -2.916667 0.303714 
vertex  1.666667 -3.333333 0.111138 
endloop 
endfacet 
facet normal  0.221651 0.217664 0.950523 
outer loop 
vertex  1.666667 3.333333 0.111138 
vertex  1.250000 2.916667 0.303714 
vertex  1.666667 2.916667 0.206552 
endloop 
endfacet 
facet normal  0.523515 0.200010 0.828208 
outer loop 
vertex  0.833333 -1.250000 0.444685 
vertex  1.250000 -1.666667 0.281932 
vertex  1.250000 -1.250000 0.181308 
endloop 
endfacet 
facet normal  0.523515 -0.200010 0.828208 
outer loop 
vertex  1.250000 1.250000 0.181308 
vertex  1.250000 1.666667 0.281932 
vertex  0.833333 1.250000 0.444685 
endloop 
endfacet 
facet normal  0.370583 0.138246 0.918453 
outer loop 
vertex  1.250000 -2.083333 0.344649 
vertex  1.666667 -2.083333 0.176529 
vertex  1.250000 -1.666667 0.281932 
endloop 
endfacet 
facet normal  0.370583 -0.138246 0.918453 
outer loop 
vertex  1.250000 1.666667 0.281932 
vertex  1.666667 2.083333 0.176529 
vertex  1.250000 2.083333 0.344649 
endloop 
endfacet 
facet normal  0.472023 0.258840 0.842731 
outer loop 
vertex  1.250000 -1.666667 0.281932 
vertex  1.666667 -2.083333 0.176529 
vertex  1.666667 -1.666667 0.048553 
endloop 
endfacet 
facet normal  0.472023 -0.258840 0.842731 
outer loop 
vertex  1.666667 1.666667 0.048553 
vertex  1.666667 2.083333 0.176529 
vertex  1.250000 1.666667 0.281932 
endloop 
endfacet 
facet normal  0.285644 0.021562 0.958093 
outer loop 
vertex  1.250000 -2.083333 0.344649 
vertex  1.250000 -2.500000 0.354026 
vertex  1.666667 -2.500000 0.229802 
endloop 
endfacet 
facet normal  0.285644 -0.021562 0.958093 
outer loop 
vertex  1.666667 2.500000 0.229802 
vertex  1.250000 2.500000 0.354026 
vertex  1.250000 2.083333 0.344649 
endloop 
endfacet 
facet normal  0.546641 0.012035 0.837280 
outer loop 
vertex  0.416667 -0.416667 0.622302 
vertex  0.833333 -0.416667 0.350270 
vertex  0.416667 0.000000 0.616313 
endloop 
endfacet 
facet normal  0.546641 -0.012035 0.837280 
outer loop 
vertex  0.416667 -0.000000 0.616313 
vertex  0.833333 0.416667 0.350270 
vertex  0.416667 0.416667 0.622302 
endloop 
endfacet 
facet normal  0.625369 -0.000000 0.780329 
outer loop 
vertex  1.250000 -0.416667 0.000000 
vertex  1.250000 0.000000 0.000000 
vertex  0.833333 0.000000 0.333924 
endloop 
endfacet 
facet normal  0.625369 0.000000 0.780329 
outer loop 
vertex  0.833333 -0.000000 0.333924 
vertex  1.250000 -0.000000 0.000000 
vertex  1.250000 0.416667 0.000000 
endloop 
endfacet 
facet normal  0.387425 0.239135 0.890346 
outer loop 
vertex  1.666667 -1.250000 0.000000 
vertex  1.250000 -0.833333 0.069397 
vertex  1.250000 -1.250000 0.181308 
endloop 
endfacet 
facet normal  0.387425 -0.239135 0.890346 
outer loop 
vertex  1.250000 1.250000 0.181308 
vertex  1.250000 0.833333 0.069397 
vertex  1.666667 1.250000 0.000000 
endloop 
endfacet 
facet normal  0.164290 -0.000000 0.986412 
outer loop 
vertex  1.666667 -1.250000 0.000000 
vertex  1.666667 -0.833333 0.000000 
vertex  1.250000 -0.833333 0.069397 
endloop 
endfacet 
facet normal  0.164290 0.000000 0.986412 
outer loop 
vertex  1.250000 0.833333 0.069397 
vertex  1.666667 0.833333 0.000000 
vertex  1.666667 1.250000 0.000000 
endloop 
endfacet 
facet normal  0.432144 0.012961 0.901712 
outer loop 
vertex  0.000000 0.000000 0.816000 
vertex  0.416667 -0.416667 0.622302 
vertex  0.416667 0.000000 0.616313 
endloop 
endfacet 
facet normal  0.432144 -0.012961 0.901712 
outer loop 
vertex  0.416667 -0.000000 0.616313 
vertex  0.416667 0.416667 0.622302 
vertex  0.000000 -0.000000 0.816000 
endloop 
endfacet 
facet normal  0.638316 0.126466 0.759315 
outer loop 
vertex  0.833333 -0.416667 0.350270 
vertex  1.250000 -0.833333 0.069397 
vertex  1.250000 -0.416667 0.000000 
endloop 
endfacet 
facet normal  0.638316 -0.126466 0.759315 
outer loop 
vertex  1.250000 0.416667 0.000000 
vertex  1.250000 0.833333 0.069397 
vertex  0.833333 0.416667 0.350270 
endloop 
endfacet 
facet normal  0.504977 0.029756 0.862620 
outer loop 
vertex  0.416667 -0.833333 0.636675 
vertex  0.833333 -0.833333 0.392759 
vertex  0.416667 -0.416667 0.622302 
endloop 
endfacet 
facet normal  0.504977 -0.029756 0.862620 
outer loop 
vertex  0.416667 0.416667 0.622302 
vertex  0.833333 0.833333 0.392759 
vertex  0.416667 0.833333 0.636675 
endloop 
endfacet 
facet normal  0.502304 0.106934 0.858053 
outer loop 
vertex  0.416667 -0.833333 0.636675 
vertex  0.833333 -1.250000 0.444685 
vertex  0.833333 -0.833333 0.392759 
endloop 
endfacet 
facet normal  0.502304 -0.106934 0.858053 
outer loop 
vertex  0.833333 0.833333 0.392759 
vertex  0.833333 1.250000 0.444685 
vertex  0.416667 0.833333 0.636675 
endloop 
endfacet 
facet normal  0.560731 0.032458 0.827361 
outer loop 
vertex  0.416667 0.000000 0.616313 
vertex  0.833333 -0.416667 0.350270 
vertex  0.833333 0.000000 0.333924 
endloop 
endfacet 
facet normal  0.560731 -0.032458 0.827361 
outer loop 
vertex  0.833333 -0.000000 0.333924 
vertex  0.833333 0.416667 0.350270 
vertex  0.416667 -0.000000 0.616313 
endloop 
endfacet 
facet normal  0.611119 0.080299 0.787455 
outer loop 
vertex  0.833333 -0.833333 0.392759 
vertex  1.250000 -0.833333 0.069397 
vertex  0.833333 -0.416667 0.350270 
endloop 
endfacet 
facet normal  0.611119 -0.080299 0.787455 
outer loop 
vertex  0.833333 0.416667 0.350270 
vertex  1.250000 0.833333 0.069397 
vertex  0.833333 0.833333 0.392759 
endloop 
endfacet 
facet normal  0.177162 -0.125611 0.976133 
outer loop 
vertex  0.000000 -2.083333 0.716557 
vertex  0.000000 -1.666667 0.770175 
vertex  -0.416667 -1.666667 0.845797 
endloop 
endfacet 
facet normal  0.177162 0.125611 0.976133 
outer loop 
vertex  -0.416667 1.666667 0.845797 
vertex  0.000000 1.666667 0.770175 
vertex  0.000000 2.083333 0.716557 
endloop 
endfacet 
facet normal  0.264124 -0.028987 0.964053 
outer loop 
vertex  0.000000 -0.833333 0.811780 
vertex  -0.416667 -0.833333 0.925936 
vertex  0.000000 -1.250000 0.799252 
endloop 
endfacet 
facet normal  0.264124 0.028987 0.964053 
outer loop 
vertex  0.000000 1.250000 0.799252 
vertex  -0.416667 0.833333 0.925936 
vertex  0.000000 0.833333 0.811780 
endloop 
endfacet 
facet normal  0.387417 -0.008164 0.921868 
outer loop 
vertex  0.416667 -0.833333 0.636675 
vertex  0.000000 -0.416667 0.815470 
vertex  0.000000 -0.833333 0.811780 
endloop 
endfacet 
facet normal  0.387417 0.008164 0.921868 
outer loop 
vertex  0.000000 0.833333 0.811780 
vertex  0.000000 0.416667 0.815470 
vertex  0.416667 0.833333 0.636675 
endloop 
endfacet 
facet normal  0.420601 -0.001154 0.907245 
outer loop 
vertex  0.416667 -0.416667 0.622302 
vertex  0.000000 0.000000 0.816000 
vertex  0.000000 -0.416667 0.815470 
endloop 
endfacet 
facet normal  0.420601 0.001154 0.907245 
outer loop 
vertex  0.000000 0.416667 0.815470 
vertex  0.000000 -0.000000 0.816000 
vertex  0.416667 0.416667 0.622302 
endloop 
endfacet 
facet normal  0.441739 0.028566 0.896689 
outer loop 
vertex  0.416667 -0.833333 0.636675 
vertex  0.416667 -1.250000 0.649949 
vertex  0.833333 -1.250000 0.444685 
endloop 
endfacet 
facet normal  0.441739 -0.028566 0.896689 
outer loop 
vertex  0.833333 1.250000 0.444685 
vertex  0.416667 1.250000 0.649949 
vertex  0.416667 0.833333 0.636675 
endloop 
endfacet 
facet normal  0.387263 0.029357 0.921502 
outer loop 
vertex  0.416667 -0.833333 0.636675 
vertex  0.000000 -0.833333 0.811780 
vertex  0.416667 -1.250000 0.649949 
endloop 
endfacet 
facet normal  0.387263 -0.029357 0.921502 
outer loop 
vertex  0.416667 1.250000 0.649949 
vertex  0.000000 0.833333 0.811780 
vertex  0.416667 0.833333 0.636675 
endloop 
endfacet 
facet normal  0.080499 -0.243230 0.966622 
outer loop 
vertex  0.000000 -2.500000 0.631449 
vertex  -0.416667 -2.083333 0.770994 
vertex  -0.416667 -2.500000 0.666149 
endloop 
endfacet 
facet normal  0.080499 0.243230 0.966622 
outer loop 
vertex  -0.416667 2.500000 0.666149 
vertex  -0.416667 2.083333 0.770994 
vertex  0.000000 2.500000 0.631449 
endloop 
endfacet 
facet normal  0.126970 -0.198507 0.971840 
outer loop 
vertex  0.000000 -2.500000 0.631449 
vertex  0.000000 -2.083333 0.716557 
vertex  -0.416667 -2.083333 0.770994 
endloop 
endfacet 
facet normal  0.126970 0.198507 0.971840 
outer loop 
vertex  -0.416667 2.083333 0.770994 
vertex  0.000000 2.083333 0.716557 
vertex  0.000000 2.500000 0.631449 
endloop 
endfacet 
facet normal  0.109848 -0.118023 0.986916 
outer loop 
vertex  -0.416667 -1.666667 0.845797 
vertex  -0.416667 -1.250000 0.895626 
vertex  -0.833333 -1.250000 0.942002 
endloop 
endfacet 
facet normal  0.109848 0.118023 0.986916 
outer loop 
vertex  -0.833333 1.250000 0.942002 
vertex  -0.416667 1.250000 0.895626 
vertex  -0.416667 1.666667 0.845797 
endloop 
endfacet 
facet normal  0.224784 -0.070696 0.971841 
outer loop 
vertex  0.000000 -1.250000 0.799252 
vertex  -0.416667 -0.833333 0.925936 
vertex  -0.416667 -1.250000 0.895626 
endloop 
endfacet 
facet normal  0.224784 0.070696 0.971841 
outer loop 
vertex  -0.416667 1.250000 0.895626 
vertex  -0.416667 0.833333 0.925936 
vertex  0.000000 1.250000 0.799252 
endloop 
endfacet 
facet normal  0.218653 -0.177590 0.959507 
outer loop 
vertex  0.416667 -2.500000 0.564356 
vertex  0.833333 -2.916667 0.392287 
vertex  0.833333 -2.500000 0.469405 
endloop 
endfacet 
facet normal  0.218653 0.177590 0.959507 
outer loop 
vertex  0.833333 2.500000 0.469405 
vertex  0.833333 2.916667 0.392287 
vertex  0.416667 2.500000 0.564356 
endloop 
endfacet 
facet normal  0.224829 -0.067833 0.972034 
outer loop 
vertex  0.000000 -1.666667 0.770175 
vertex  0.000000 -1.250000 0.799252 
vertex  -0.416667 -1.250000 0.895626 
endloop 
endfacet 
facet normal  0.224829 0.067833 0.972034 
outer loop 
vertex  -0.416667 1.250000 0.895626 
vertex  0.000000 1.250000 0.799252 
vertex  0.000000 1.666667 0.770175 
endloop 
endfacet 
facet normal  0.214128 -0.124669 0.968817 
outer loop 
vertex  0.416667 -2.083333 0.624466 
vertex  0.000000 -1.666667 0.770175 
vertex  0.000000 -2.083333 0.716557 
endloop 
endfacet 
facet normal  0.214128 0.124669 0.968817 
outer loop 
vertex  0.000000 2.083333 0.716557 
vertex  0.000000 1.666667 0.770175 
vertex  0.416667 2.083333 0.624466 
endloop 
endfacet 
facet normal  0.276837 -0.066894 0.958586 
outer loop 
vertex  0.416667 -1.666667 0.649843 
vertex  0.000000 -1.250000 0.799252 
vertex  0.000000 -1.666667 0.770175 
endloop 
endfacet 
facet normal  0.276837 0.066894 0.958586 
outer loop 
vertex  0.000000 1.666667 0.770175 
vertex  0.000000 1.250000 0.799252 
vertex  0.416667 1.666667 0.649843 
endloop 
endfacet 
facet normal  0.345659 0.027953 0.937944 
outer loop 
vertex  1.250000 -2.083333 0.344649 
vertex  0.833333 -1.666667 0.485784 
vertex  0.833333 -2.083333 0.498202 
endloop 
endfacet 
facet normal  0.345659 -0.027953 0.937944 
outer loop 
vertex  0.833333 2.083333 0.498202 
vertex  0.833333 1.666667 0.485784 
vertex  1.250000 2.083333 0.344649 
endloop 
endfacet 
facet normal  0.337324 -0.000240 0.941388 
outer loop 
vertex  0.416667 -1.666667 0.649843 
vertex  0.416667 -1.250000 0.649949 
vertex  0.000000 -1.250000 0.799252 
endloop 
endfacet 
facet normal  0.337324 0.000240 0.941388 
outer loop 
vertex  0.000000 1.250000 0.799252 
vertex  0.416667 1.250000 0.649949 
vertex  0.416667 1.666667 0.649843 
endloop 
endfacet 
facet normal  0.289518 -0.058189 0.955402 
outer loop 
vertex  0.833333 -2.083333 0.498202 
vertex  0.416667 -1.666667 0.649843 
vertex  0.416667 -2.083333 0.624466 
endloop 
endfacet 
facet normal  0.289518 0.058189 0.955402 
outer loop 
vertex  0.416667 2.083333 0.624466 
vertex  0.416667 1.666667 0.649843 
vertex  0.833333 2.083333 0.498202 
endloop 
endfacet 
facet normal  0.366364 -0.000237 0.930471 
outer loop 
vertex  0.833333 -1.666667 0.485784 
vertex  0.416667 -1.250000 0.649949 
vertex  0.416667 -1.666667 0.649843 
endloop 
endfacet 
facet normal  0.366364 0.000237 0.930471 
outer loop 
vertex  0.416667 1.666667 0.649843 
vertex  0.416667 1.250000 0.649949 
vertex  0.833333 1.666667 0.485784 
endloop 
endfacet 
facet normal  0.163008 -0.232917 0.958738 
outer loop 
vertex  0.416667 -2.500000 0.564356 
vertex  0.416667 -2.916667 0.463130 
vertex  0.833333 -2.916667 0.392287 
endloop 
endfacet 
facet normal  0.163008 0.232917 0.958738 
outer loop 
vertex  0.833333 2.916667 0.392287 
vertex  0.416667 2.916667 0.463130 
vertex  0.416667 2.500000 0.564356 
endloop 
endfacet 
facet normal  0.435506 0.133987 0.890158 
outer loop 
vertex  1.250000 -2.083333 0.344649 
vertex  1.250000 -1.666667 0.281932 
vertex  0.833333 -1.666667 0.485784 
endloop 
endfacet 
facet normal  0.435506 -0.133987 0.890158 
outer loop 
vertex  0.833333 1.666667 0.485784 
vertex  1.250000 1.666667 0.281932 
vertex  1.250000 2.083333 0.344649 
endloop 
endfacet 
facet normal  0.437754 0.088256 0.894753 
outer loop 
vertex  0.833333 -1.250000 0.444685 
vertex  0.833333 -1.666667 0.485784 
vertex  1.250000 -1.666667 0.281932 
endloop 
endfacet 
facet normal  0.437754 -0.088256 0.894753 
outer loop 
vertex  1.250000 1.666667 0.281932 
vertex  0.833333 1.666667 0.485784 
vertex  0.833333 1.250000 0.444685 
endloop 
endfacet 
facet normal  0.440199 0.088139 0.893564 
outer loop 
vertex  0.833333 -1.250000 0.444685 
vertex  0.416667 -1.250000 0.649949 
vertex  0.833333 -1.666667 0.485784 
endloop 
endfacet 
facet normal  0.440199 -0.088139 0.893564 
outer loop 
vertex  0.833333 1.666667 0.485784 
vertex  0.416667 1.250000 0.649949 
vertex  0.833333 1.250000 0.444685 
endloop 
endfacet 
facet normal  0.154593 -0.233237 0.960053 
outer loop 
vertex  0.416667 -2.500000 0.564356 
vertex  0.000000 -2.500000 0.631449 
vertex  0.416667 -2.916667 0.463130 
endloop 
endfacet 
facet normal  0.154593 0.233237 0.960053 
outer loop 
vertex  0.416667 2.916667 0.463130 
vertex  0.000000 2.500000 0.631449 
vertex  0.416667 2.500000 0.564356 
endloop 
endfacet 
facet normal  0.000000 -0.287318 0.957835 
outer loop 
vertex  0.833333 -4.166667 0.000000 
vertex  0.416667 -3.750000 0.124986 
vertex  0.416667 -4.166667 0.000000 
endloop 
endfacet 
facet normal  0.000000 0.287318 0.957835 
outer loop 
vertex  0.416667 4.166667 0.000000 
vertex  0.416667 3.750000 0.124986 
vertex  0.833333 4.166667 0.000000 
endloop 
endfacet 
facet normal  0.289377 -0.065998 0.954937 
outer loop 
vertex  0.416667 -2.083333 0.624466 
vertex  0.833333 -2.500000 0.469405 
vertex  0.833333 -2.083333 0.498202 
endloop 
endfacet 
facet normal  0.289377 0.065998 0.954937 
outer loop 
vertex  0.833333 2.083333 0.498202 
vertex  0.833333 2.500000 0.469405 
vertex  0.416667 2.083333 0.624466 
endloop 
endfacet 
facet normal  0.204602 -0.178144 0.962498 
outer loop 
vertex  0.833333 -2.916667 0.392287 
vertex  1.250000 -2.916667 0.303714 
vertex  0.833333 -2.500000 0.469405 
endloop 
endfacet 
facet normal  0.204602 0.178144 0.962498 
outer loop 
vertex  0.833333 2.500000 0.469405 
vertex  1.250000 2.916667 0.303714 
vertex  0.833333 2.916667 0.392287 
endloop 
endfacet 
facet normal  0.265079 -0.115589 0.957273 
outer loop 
vertex  0.833333 -2.500000 0.469405 
vertex  1.250000 -2.916667 0.303714 
vertex  1.250000 -2.500000 0.354026 
endloop 
endfacet 
facet normal  0.265079 0.115589 0.957273 
outer loop 
vertex  1.250000 2.500000 0.354026 
vertex  1.250000 2.916667 0.303714 
vertex  0.833333 2.500000 0.469405 
endloop 
endfacet 
facet normal  0.160380 -0.290694 0.943279 
outer loop 
vertex  0.833333 -2.916667 0.392287 
vertex  0.416667 -2.916667 0.463130 
vertex  0.833333 -3.333333 0.263881 
endloop 
endfacet 
facet normal  0.160380 0.290694 0.943279 
outer loop 
vertex  0.833333 3.333333 0.263881 
vertex  0.416667 2.916667 0.463130 
vertex  0.833333 2.916667 0.392287 
endloop 
endfacet 
facet normal  0.039126 -0.362260 0.931256 
outer loop 
vertex  -0.416667 -2.916667 0.527102 
vertex  0.000000 -3.333333 0.347512 
vertex  0.000000 -2.916667 0.509596 
endloop 
endfacet 
facet normal  0.039126 0.362260 0.931256 
outer loop 
vertex  0.000000 2.916667 0.509596 
vertex  0.000000 3.333333 0.347512 
vertex  -0.416667 2.916667 0.527102 
endloop 
endfacet 
facet normal  -0.017109 -0.459487 0.888020 
outer loop 
vertex  -0.416667 -3.333333 0.350789 
vertex  -0.416667 -3.750000 0.135194 
vertex  0.000000 -3.750000 0.143222 
endloop 
endfacet 
facet normal  -0.017109 0.459487 0.888020 
outer loop 
vertex  0.000000 3.750000 0.143222 
vertex  -0.416667 3.750000 0.135194 
vertex  -0.416667 3.333333 0.350789 
endloop 
endfacet 
facet normal  0.106427 -0.279098 0.954347 
outer loop 
vertex  0.000000 -2.916667 0.509596 
vertex  0.416667 -2.916667 0.463130 
vertex  0.000000 -2.500000 0.631449 
endloop 
endfacet 
facet normal  0.106427 0.279098 0.954347 
outer loop 
vertex  0.000000 2.500000 0.631449 
vertex  0.416667 2.916667 0.463130 
vertex  0.000000 2.916667 0.509596 
endloop 
endfacet 
facet normal  0.104670 -0.328764 0.938594 
outer loop 
vertex  0.000000 -2.916667 0.509596 
vertex  0.416667 -3.333333 0.317183 
vertex  0.416667 -2.916667 0.463130 
endloop 
endfacet 
facet normal  0.104670 0.328764 0.938594 
outer loop 
vertex  0.416667 2.916667 0.463130 
vertex  0.416667 3.333333 0.317183 
vertex  0.000000 2.916667 0.509596 
endloop 
endfacet 
facet normal  0.220019 -0.139287 0.965500 
outer loop 
vertex  0.416667 -2.083333 0.624466 
vertex  0.416667 -2.500000 0.564356 
vertex  0.833333 -2.500000 0.469405 
endloop 
endfacet 
facet normal  0.220019 0.139287 0.965500 
outer loop 
vertex  0.833333 2.500000 0.469405 
vertex  0.416667 2.500000 0.564356 
vertex  0.416667 2.083333 0.624466 
endloop 
endfacet 
facet normal  0.213702 -0.139487 0.966889 
outer loop 
vertex  0.416667 -2.083333 0.624466 
vertex  0.000000 -2.083333 0.716557 
vertex  0.416667 -2.500000 0.564356 
endloop 
endfacet 
facet normal  0.213702 0.139487 0.966889 
outer loop 
vertex  0.416667 2.500000 0.564356 
vertex  0.000000 2.083333 0.716557 
vertex  0.416667 2.083333 0.624466 
endloop 
endfacet 
facet normal  0.160501 -0.290689 0.943260 
outer loop 
vertex  0.833333 -2.916667 0.392287 
vertex  0.833333 -3.333333 0.263881 
vertex  1.250000 -3.333333 0.192983 
endloop 
endfacet 
facet normal  0.160501 0.290689 0.943260 
outer loop 
vertex  1.250000 3.333333 0.192983 
vertex  0.833333 3.333333 0.263881 
vertex  0.833333 2.916667 0.392287 
endloop 
endfacet 
facet normal  0.089287 -0.417186 0.904424 
outer loop 
vertex  0.416667 -3.333333 0.317183 
vertex  0.416667 -3.750000 0.124986 
vertex  0.833333 -3.750000 0.083851 
endloop 
endfacet 
facet normal  0.089287 0.417186 0.904424 
outer loop 
vertex  0.833333 3.750000 0.083851 
vertex  0.416667 3.750000 0.124986 
vertex  0.416667 3.333333 0.317183 
endloop 
endfacet 
facet normal  0.041885 -0.287066 0.956995 
outer loop 
vertex  0.416667 -4.166667 0.000000 
vertex  0.416667 -3.750000 0.124986 
vertex  0.000000 -3.750000 0.143222 
endloop 
endfacet 
facet normal  0.041885 0.287066 0.956995 
outer loop 
vertex  0.000000 3.750000 0.143222 
vertex  0.416667 3.750000 0.124986 
vertex  0.416667 4.166667 0.000000 
endloop 
endfacet 
facet normal  0.096332 -0.196370 0.975786 
outer loop 
vertex  0.833333 -4.166667 0.000000 
vertex  0.833333 -3.750000 0.083851 
vertex  0.416667 -3.750000 0.124986 
endloop 
endfacet 
facet normal  0.096332 0.196370 0.975786 
outer loop 
vertex  0.416667 3.750000 0.124986 
vertex  0.833333 3.750000 0.083851 
vertex  0.833333 4.166667 0.000000 
endloop 
endfacet 
facet normal  0.000000 -0.325065 0.945692 
outer loop 
vertex  0.416667 -4.166667 0.000000 
vertex  0.000000 -3.750000 0.143222 
vertex  0.000000 -4.166667 0.000000 
endloop 
endfacet 
facet normal  0.000000 0.325065 0.945692 
outer loop 
vertex  0.000000 4.166667 0.000000 
vertex  0.000000 3.750000 0.143222 
vertex  0.416667 4.166667 0.000000 
endloop 
endfacet 
facet normal  0.039267 -0.439890 0.897193 
outer loop 
vertex  0.416667 -3.750000 0.124986 
vertex  0.000000 -3.333333 0.347512 
vertex  0.000000 -3.750000 0.143222 
endloop 
endfacet 
facet normal  0.039267 0.439890 0.897193 
outer loop 
vertex  0.000000 3.750000 0.143222 
vertex  0.000000 3.333333 0.347512 
vertex  0.416667 3.750000 0.124986 
endloop 
endfacet 
facet normal  0.142177 -0.056695 0.988216 
outer loop 
vertex  1.250000 -4.166667 0.000000 
vertex  1.250000 -3.750000 0.023905 
vertex  0.833333 -3.750000 0.083851 
endloop 
endfacet 
facet normal  0.142177 0.056695 0.988216 
outer loop 
vertex  0.833333 3.750000 0.083851 
vertex  1.250000 3.750000 0.023905 
vertex  1.250000 4.166667 0.000000 
endloop 
endfacet 
facet normal  0.155745 -0.371420 0.915309 
outer loop 
vertex  1.250000 -3.750000 0.023905 
vertex  1.250000 -3.333333 0.192983 
vertex  0.833333 -3.333333 0.263881 
endloop 
endfacet 
facet normal  0.155745 0.371420 0.915309 
outer loop 
vertex  0.833333 3.333333 0.263881 
vertex  1.250000 3.333333 0.192983 
vertex  1.250000 3.750000 0.023905 
endloop 
endfacet 
facet normal  0.000000 -0.197288 0.980346 
outer loop 
vertex  1.250000 -4.166667 0.000000 
vertex  0.833333 -3.750000 0.083851 
vertex  0.833333 -4.166667 0.000000 
endloop 
endfacet 
facet normal  0.000000 0.197288 0.980346 
outer loop 
vertex  0.833333 4.166667 0.000000 
vertex  0.833333 3.750000 0.083851 
vertex  1.250000 4.166667 0.000000 
endloop 
endfacet 
facet normal  0.130934 -0.393217 0.910075 
outer loop 
vertex  1.250000 -3.750000 0.023905 
vertex  0.833333 -3.333333 0.263881 
vertex  0.833333 -3.750000 0.083851 
endloop 
endfacet 
facet normal  0.130934 0.393217 0.910075 
outer loop 
vertex  0.833333 3.750000 0.083851 
vertex  0.833333 3.333333 0.263881 
vertex  1.250000 3.750000 0.023905 
endloop 
endfacet 
facet normal  0.057277 0.000000 0.998358 
outer loop 
vertex  1.666667 -3.750000 0.000000 
vertex  1.250000 -3.750000 0.023905 
vertex  1.666667 -4.166667 0.000000 
endloop 
endfacet 
facet normal  0.057277 -0.000000 0.998358 
outer loop 
vertex  1.666667 4.166667 0.000000 
vertex  1.250000 3.750000 0.023905 
vertex  1.666667 3.750000 0.000000 
endloop 
endfacet 
facet normal  0.000000 -0.057277 0.998358 
outer loop 
vertex  1.666667 -4.166667 0.000000 
vertex  1.250000 -3.750000 0.023905 
vertex  1.250000 -4.166667 0.000000 
endloop 
endfacet 
facet normal  0.000000 0.057277 0.998358 
outer loop 
vertex  1.250000 4.166667 0.000000 
vertex  1.250000 3.750000 0.023905 
vertex  1.666667 4.166667 0.000000 
endloop 
endfacet 
facet normal  0.201240 -0.251586 0.946682 
outer loop 
vertex  1.250000 -3.333333 0.192983 
vertex  1.250000 -2.916667 0.303714 
vertex  0.833333 -2.916667 0.392287 
endloop 
endfacet 
facet normal  0.201240 0.251586 0.946682 
outer loop 
vertex  0.833333 2.916667 0.392287 
vertex  1.250000 2.916667 0.303714 
vertex  1.250000 3.333333 0.192983 
endloop 
endfacet 
facet normal  0.053086 -0.375479 0.925310 
outer loop 
vertex  1.666667 -3.750000 0.000000 
vertex  1.250000 -3.333333 0.192983 
vertex  1.250000 -3.750000 0.023905 
endloop 
endfacet 
facet normal  0.053086 0.375479 0.925310 
outer loop 
vertex  1.250000 3.750000 0.023905 
vertex  1.250000 3.333333 0.192983 
vertex  1.666667 3.750000 0.000000 
endloop 
endfacet 
facet normal  0.186507 -0.252334 0.949496 
outer loop 
vertex  1.666667 -3.333333 0.111138 
vertex  1.250000 -2.916667 0.303714 
vertex  1.250000 -3.333333 0.192983 
endloop 
endfacet 
facet normal  0.186507 0.252334 0.949496 
outer loop 
vertex  1.250000 3.333333 0.192983 
vertex  1.250000 2.916667 0.303714 
vertex  1.666667 3.333333 0.111138 
endloop 
endfacet 
facet normal  0.061729 0.000000 0.998093 
outer loop 
vertex  2.500000 -3.333333 0.000000 
vertex  2.083333 -3.333333 0.025770 
vertex  2.500000 -3.750000 0.000000 
endloop 
endfacet 
facet normal  0.061729 -0.000000 0.998093 
outer loop 
vertex  2.500000 3.750000 0.000000 
vertex  2.083333 3.333333 0.025770 
vertex  2.500000 3.333333 0.000000 
endloop 
endfacet 
facet normal  0.186463 -0.253201 0.949274 
outer loop 
vertex  1.666667 -3.333333 0.111138 
vertex  1.250000 -3.333333 0.192983 
vertex  1.666667 -3.750000 0.000000 
endloop 
endfacet 
facet normal  0.186463 0.253201 0.949274 
outer loop 
vertex  1.666667 3.750000 0.000000 
vertex  1.250000 3.333333 0.192983 
vertex  1.666667 3.333333 0.111138 
endloop 
endfacet 
facet normal  0.000000 -0.257721 0.966219 
outer loop 
vertex  2.083333 -3.750000 0.000000 
vertex  1.666667 -3.333333 0.111138 
vertex  1.666667 -3.750000 0.000000 
endloop 
endfacet 
facet normal  0.000000 0.257721 0.966219 
outer loop 
vertex  1.666667 3.750000 0.000000 
vertex  1.666667 3.333333 0.111138 
vertex  2.083333 3.750000 0.000000 
endloop 
endfacet 
facet normal  0.197911 0.223780 0.954334 
outer loop 
vertex  2.083333 -2.500000 0.113585 
vertex  2.500000 -2.500000 0.027176 
vertex  2.083333 -2.083333 0.015882 
endloop 
endfacet 
facet normal  0.197911 -0.223780 0.954334 
outer loop 
vertex  2.083333 2.083333 0.015882 
vertex  2.500000 2.500000 0.027176 
vertex  2.083333 2.500000 0.113585 
endloop 
endfacet 
facet normal  0.216126 -0.198638 0.955946 
outer loop 
vertex  2.083333 -2.916667 0.112350 
vertex  1.666667 -2.916667 0.206552 
vertex  2.083333 -3.333333 0.025770 
endloop 
endfacet 
facet normal  0.216126 0.198638 0.955946 
outer loop 
vertex  2.083333 3.333333 0.025770 
vertex  1.666667 2.916667 0.206552 
vertex  2.083333 2.916667 0.112350 
endloop 
endfacet 
facet normal  0.285303 -0.053397 0.956949 
outer loop 
vertex  1.666667 -2.500000 0.229802 
vertex  1.250000 -2.500000 0.354026 
vertex  1.666667 -2.916667 0.206552 
endloop 
endfacet 
facet normal  0.285303 0.053397 0.956949 
outer loop 
vertex  1.666667 2.916667 0.206552 
vertex  1.250000 2.500000 0.354026 
vertex  1.666667 2.500000 0.229802 
endloop 
endfacet 
facet normal  0.266650 0.122230 0.956011 
outer loop 
vertex  1.666667 -2.083333 0.176529 
vertex  1.666667 -2.500000 0.229802 
vertex  2.083333 -2.500000 0.113585 
endloop 
endfacet 
facet normal  0.266650 -0.122230 0.956011 
outer loop 
vertex  2.083333 2.500000 0.113585 
vertex  1.666667 2.500000 0.229802 
vertex  1.666667 2.083333 0.176529 
endloop 
endfacet 
facet normal  0.371573 0.117741 0.920907 
outer loop 
vertex  1.666667 -2.083333 0.176529 
vertex  1.250000 -2.083333 0.344649 
vertex  1.666667 -2.500000 0.229802 
endloop 
endfacet 
facet normal  0.371573 -0.117741 0.920907 
outer loop 
vertex  1.666667 2.500000 0.229802 
vertex  1.250000 2.083333 0.344649 
vertex  1.666667 2.083333 0.176529 
endloop 
endfacet 
facet normal  0.220195 -0.054345 0.973941 
outer loop 
vertex  1.666667 -2.916667 0.206552 
vertex  2.083333 -2.916667 0.112350 
vertex  1.666667 -2.500000 0.229802 
endloop 
endfacet 
facet normal  0.220195 0.054345 0.973941 
outer loop 
vertex  1.666667 2.500000 0.229802 
vertex  2.083333 2.916667 0.112350 
vertex  1.666667 2.916667 0.206552 
endloop 
endfacet 
facet normal  0.064948 0.064948 0.995773 
outer loop 
vertex  2.500000 -2.500000 0.027176 
vertex  2.916667 -2.500000 0.000000 
vertex  2.500000 -2.083333 0.000000 
endloop 
endfacet 
facet normal  0.064948 -0.064948 0.995773 
outer loop 
vertex  2.500000 2.083333 0.000000 
vertex  2.916667 2.500000 0.000000 
vertex  2.500000 2.500000 0.027176 
endloop 
endfacet 
facet normal  0.268664 -0.002856 0.963230 
outer loop 
vertex  1.666667 -2.500000 0.229802 
vertex  2.083333 -2.916667 0.112350 
vertex  2.083333 -2.500000 0.113585 
endloop 
endfacet 
facet normal  0.268664 0.002856 0.963230 
outer loop 
vertex  2.083333 2.500000 0.113585 
vertex  2.083333 2.916667 0.112350 
vertex  1.666667 2.500000 0.229802 
endloop 
endfacet 
facet normal  0.000000 -0.080635 0.996744 
outer loop 
vertex  2.500000 -3.333333 0.000000 
vertex  2.916667 -3.333333 0.000000 
vertex  2.500000 -2.916667 0.033708 
endloop 
endfacet 
facet normal  0.000000 0.080635 0.996744 
outer loop 
vertex  2.500000 2.916667 0.033708 
vertex  2.916667 3.333333 0.000000 
vertex  2.500000 3.333333 0.000000 
endloop 
endfacet 
facet normal  0.080625 0.015622 0.996622 
outer loop 
vertex  2.916667 -2.916667 0.000000 
vertex  2.500000 -2.500000 0.027176 
vertex  2.500000 -2.916667 0.033708 
endloop 
endfacet 
facet normal  0.080625 -0.015622 0.996622 
outer loop 
vertex  2.500000 2.916667 0.033708 
vertex  2.500000 2.500000 0.027176 
vertex  2.916667 2.916667 0.000000 
endloop 
endfacet 
facet normal  0.038009 0.065038 0.997159 
outer loop 
vertex  2.500000 -2.083333 0.000000 
vertex  2.083333 -2.083333 0.015882 
vertex  2.500000 -2.500000 0.027176 
endloop 
endfacet 
facet normal  0.038009 -0.065038 0.997159 
outer loop 
vertex  2.500000 2.500000 0.027176 
vertex  2.083333 2.083333 0.015882 
vertex  2.500000 2.083333 0.000000 
endloop 
endfacet 
facet normal  0.080635 -0.000000 0.996744 
outer loop 
vertex  2.916667 -3.333333 0.000000 
vertex  2.916667 -2.916667 0.000000 
vertex  2.500000 -2.916667 0.033708 
endloop 
endfacet 
facet normal  0.080635 0.000000 0.996744 
outer loop 
vertex  2.500000 2.916667 0.033708 
vertex  2.916667 2.916667 0.000000 
vertex  2.916667 3.333333 0.000000 
endloop 
endfacet 
facet normal  0.200347 -0.060477 0.977857 
outer loop 
vertex  2.083333 -3.333333 0.025770 
vertex  1.666667 -3.333333 0.111138 
vertex  2.083333 -3.750000 0.000000 
endloop 
endfacet 
facet normal  0.200347 0.060477 0.977857 
outer loop 
vertex  2.083333 3.750000 0.000000 
vertex  1.666667 3.333333 0.111138 
vertex  2.083333 3.333333 0.025770 
endloop 
endfacet 
facet normal  0.000000 -0.061729 0.998093 
outer loop 
vertex  2.500000 -3.750000 0.000000 
vertex  2.083333 -3.333333 0.025770 
vertex  2.083333 -3.750000 0.000000 
endloop 
endfacet 
facet normal  0.000000 0.061729 0.998093 
outer loop 
vertex  2.083333 3.750000 0.000000 
vertex  2.083333 3.333333 0.025770 
vertex  2.500000 3.750000 0.000000 
endloop 
endfacet 
facet normal  0.184883 -0.079245 0.979560 
outer loop 
vertex  2.500000 -3.333333 0.000000 
vertex  2.500000 -2.916667 0.033708 
vertex  2.083333 -2.916667 0.112350 
endloop 
endfacet 
facet normal  0.184883 0.079245 0.979560 
outer loop 
vertex  2.083333 2.916667 0.112350 
vertex  2.500000 2.916667 0.033708 
vertex  2.500000 3.333333 0.000000 
endloop 
endfacet 
facet normal  0.060443 -0.203075 0.977296 
outer loop 
vertex  2.500000 -3.333333 0.000000 
vertex  2.083333 -2.916667 0.112350 
vertex  2.083333 -3.333333 0.025770 
endloop 
endfacet 
facet normal  0.060443 0.203075 0.977296 
outer loop 
vertex  2.083333 3.333333 0.025770 
vertex  2.083333 2.916667 0.112350 
vertex  2.500000 3.333333 0.000000 
endloop 
endfacet 
facet normal  0.185465 -0.002914 0.982647 
outer loop 
vertex  2.500000 -2.916667 0.033708 
vertex  2.083333 -2.500000 0.113585 
vertex  2.083333 -2.916667 0.112350 
endloop 
endfacet 
facet normal  0.185465 0.002914 0.982647 
outer loop 
vertex  2.083333 2.916667 0.112350 
vertex  2.083333 2.500000 0.113585 
vertex  2.500000 2.916667 0.033708 
endloop 
endfacet 
endsolid Cuerno_25_Aendfacet 
