solid Cuerno_17_A 
facet normal  -0.392366 -0.044427 0.918735 
outer loop 
vertex  -2.500000 0.000000 0.794077 
vertex  -3.125000 0.000000 0.527157 
vertex  -2.500000 -0.625000 0.763854 
endloop 
endfacet 
facet normal  -0.392366 0.044427 0.918735 
outer loop 
vertex  -2.500000 0.625000 0.763854 
vertex  -3.125000 -0.000000 0.527157 
vertex  -2.500000 -0.000000 0.794077 
endloop 
endfacet 
facet normal  -0.391849 -0.133435 0.910302 
outer loop 
vertex  -2.500000 -0.625000 0.763854 
vertex  -3.125000 -0.625000 0.494816 
vertex  -2.500000 -1.250000 0.672239 
endloop 
endfacet 
facet normal  -0.391849 0.133435 0.910302 
outer loop 
vertex  -2.500000 1.250000 0.672239 
vertex  -3.125000 0.625000 0.494816 
vertex  -2.500000 0.625000 0.763854 
endloop 
endfacet 
facet normal  0.052423 -0.420933 0.905575 
outer loop 
vertex  0.000000 -3.125000 0.433737 
vertex  0.000000 -3.750000 0.143222 
vertex  0.625000 -3.750000 0.107041 
endloop 
endfacet 
facet normal  0.052423 0.420933 0.905575 
outer loop 
vertex  0.625000 3.750000 0.107041 
vertex  0.000000 3.750000 0.143222 
vertex  0.000000 3.125000 0.433737 
endloop 
endfacet 
facet normal  -0.133863 -0.193246 0.971976 
outer loop 
vertex  -1.250000 -1.875000 0.816664 
vertex  -1.250000 -1.250000 0.940925 
vertex  -1.875000 -1.250000 0.854848 
endloop 
endfacet 
facet normal  -0.133863 0.193246 0.971976 
outer loop 
vertex  -1.875000 1.250000 0.854848 
vertex  -1.250000 1.250000 0.940925 
vertex  -1.250000 1.875000 0.816664 
endloop 
endfacet 
facet normal  -0.393455 -0.309210 0.865784 
outer loop 
vertex  -2.500000 -2.500000 0.293423 
vertex  -2.500000 -1.875000 0.516638 
vertex  -3.125000 -1.875000 0.232607 
endloop 
endfacet 
facet normal  -0.393455 0.309210 0.865784 
outer loop 
vertex  -3.125000 1.875000 0.232607 
vertex  -2.500000 1.875000 0.516638 
vertex  -2.500000 2.500000 0.293423 
endloop 
endfacet 
facet normal  -0.207600 -0.399700 0.892828 
outer loop 
vertex  -1.875000 -3.125000 0.223740 
vertex  -1.250000 -3.125000 0.369064 
vertex  -1.875000 -2.500000 0.503539 
endloop 
endfacet 
facet normal  -0.207600 0.399700 0.892828 
outer loop 
vertex  -1.875000 2.500000 0.503539 
vertex  -1.250000 3.125000 0.369064 
vertex  -1.875000 3.125000 0.223740 
endloop 
endfacet 
facet normal  -0.100341 -0.381958 0.918717 
outer loop 
vertex  -1.250000 -3.125000 0.369064 
vertex  -0.625000 -3.125000 0.437326 
vertex  -1.250000 -2.500000 0.628909 
endloop 
endfacet 
facet normal  -0.100341 0.381958 0.918717 
outer loop 
vertex  -1.250000 2.500000 0.628909 
vertex  -0.625000 3.125000 0.437326 
vertex  -1.250000 3.125000 0.369064 
endloop 
endfacet 
facet normal  0.247619 -0.022846 0.968588 
outer loop 
vertex  -0.625000 -0.625000 0.974087 
vertex  0.000000 -0.625000 0.814306 
vertex  -0.625000 0.000000 0.988829 
endloop 
endfacet 
facet normal  0.247619 0.022846 0.968588 
outer loop 
vertex  -0.625000 -0.000000 0.988829 
vertex  0.000000 0.625000 0.814306 
vertex  -0.625000 0.625000 0.974087 
endloop 
endfacet 
facet normal  -0.048584 -0.048584 0.997637 
outer loop 
vertex  -1.250000 -3.750000 0.030437 
vertex  -1.875000 -3.750000 0.000000 
vertex  -1.250000 -4.375000 0.000000 
endloop 
endfacet 
facet normal  -0.048584 0.048584 0.997637 
outer loop 
vertex  -1.250000 4.375000 0.000000 
vertex  -1.875000 3.750000 0.000000 
vertex  -1.250000 3.750000 0.030437 
endloop 
endfacet 
facet normal  0.376419 0.027873 0.926030 
outer loop 
vertex  0.625000 -1.875000 0.573300 
vertex  1.250000 -1.875000 0.319245 
vertex  0.625000 -1.250000 0.554487 
endloop 
endfacet 
facet normal  0.376419 -0.027873 0.926030 
outer loop 
vertex  0.625000 1.250000 0.554487 
vertex  1.250000 1.875000 0.319245 
vertex  0.625000 1.875000 0.573300 
endloop 
endfacet 
facet normal  -0.210573 0.000000 0.977578 
outer loop 
vertex  -4.375000 0.000000 0.000000 
vertex  -4.375000 -0.625000 0.000000 
vertex  -3.750000 -0.625000 0.134627 
endloop 
endfacet 
facet normal  -0.210573 -0.000000 0.977578 
outer loop 
vertex  -3.750000 0.625000 0.134627 
vertex  -4.375000 0.625000 0.000000 
vertex  -4.375000 -0.000000 0.000000 
endloop 
endfacet 
facet normal  -0.498823 -0.139462 0.855410 
outer loop 
vertex  -3.750000 -0.625000 0.134627 
vertex  -3.750000 -1.250000 0.032729 
vertex  -3.125000 -1.250000 0.397192 
endloop 
endfacet 
facet normal  -0.498823 0.139462 0.855410 
outer loop 
vertex  -3.125000 1.250000 0.397192 
vertex  -3.750000 1.250000 0.032729 
vertex  -3.750000 0.625000 0.134627 
endloop 
endfacet 
facet normal  -0.267758 -0.046537 0.962362 
outer loop 
vertex  -2.500000 0.000000 0.794077 
vertex  -2.500000 -0.625000 0.763854 
vertex  -1.875000 -0.625000 0.937747 
endloop 
endfacet 
facet normal  -0.267758 0.046537 0.962362 
outer loop 
vertex  -1.875000 0.625000 0.937747 
vertex  -2.500000 0.625000 0.763854 
vertex  -2.500000 -0.000000 0.794077 
endloop 
endfacet 
facet normal  0.043400 0.043400 0.998115 
outer loop 
vertex  2.500000 -1.875000 0.000000 
vertex  2.500000 -2.500000 0.027176 
vertex  3.125000 -2.500000 0.000000 
endloop 
endfacet 
facet normal  0.043400 -0.043400 0.998115 
outer loop 
vertex  3.125000 2.500000 0.000000 
vertex  2.500000 2.500000 0.027176 
vertex  2.500000 1.875000 0.000000 
endloop 
endfacet 
facet normal  0.000000 -0.043441 0.999056 
outer loop 
vertex  2.500000 -3.125000 0.000000 
vertex  3.125000 -3.125000 0.000000 
vertex  2.500000 -2.500000 0.027176 
endloop 
endfacet 
facet normal  0.000000 0.043441 0.999056 
outer loop 
vertex  2.500000 2.500000 0.027176 
vertex  3.125000 3.125000 0.000000 
vertex  2.500000 3.125000 0.000000 
endloop 
endfacet 
facet normal  0.196501 -0.076936 0.977480 
outer loop 
vertex  -0.625000 -0.625000 0.974087 
vertex  -0.625000 -1.250000 0.924894 
vertex  0.000000 -1.250000 0.799252 
endloop 
endfacet 
facet normal  0.196501 0.076936 0.977480 
outer loop 
vertex  0.000000 1.250000 0.799252 
vertex  -0.625000 1.250000 0.924894 
vertex  -0.625000 0.625000 0.974087 
endloop 
endfacet 
facet normal  0.503692 0.186178 0.843583 
outer loop 
vertex  0.625000 -1.250000 0.554487 
vertex  1.250000 -1.875000 0.319245 
vertex  1.250000 -1.250000 0.181308 
endloop 
endfacet 
facet normal  0.503692 -0.186178 0.843583 
outer loop 
vertex  1.250000 1.250000 0.181308 
vertex  1.250000 1.875000 0.319245 
vertex  0.625000 1.250000 0.554487 
endloop 
endfacet 
facet normal  0.171546 -0.233041 0.957217 
outer loop 
vertex  0.625000 -2.500000 0.519980 
vertex  0.625000 -3.125000 0.367820 
vertex  1.250000 -3.125000 0.255811 
endloop 
endfacet 
facet normal  0.171546 0.233041 0.957217 
outer loop 
vertex  1.250000 3.125000 0.255811 
vertex  0.625000 3.125000 0.367820 
vertex  0.625000 2.500000 0.519980 
endloop 
endfacet 
facet normal  0.253724 -0.150158 0.955550 
outer loop 
vertex  0.625000 -2.500000 0.519980 
vertex  1.250000 -3.125000 0.255811 
vertex  1.250000 -2.500000 0.354026 
endloop 
endfacet 
facet normal  0.253724 0.150158 0.955550 
outer loop 
vertex  1.250000 2.500000 0.354026 
vertex  1.250000 3.125000 0.255811 
vertex  0.625000 2.500000 0.519980 
endloop 
endfacet 
facet normal  0.192527 -0.000000 0.981292 
outer loop 
vertex  2.500000 -3.750000 0.000000 
vertex  2.500000 -3.125000 0.000000 
vertex  1.875000 -3.125000 0.122623 
endloop 
endfacet 
facet normal  0.192527 0.000000 0.981292 
outer loop 
vertex  1.875000 3.125000 0.122623 
vertex  2.500000 3.125000 0.000000 
vertex  2.500000 3.750000 0.000000 
endloop 
endfacet 
facet normal  0.266734 -0.081923 0.960282 
outer loop 
vertex  0.000000 -1.875000 0.746903 
vertex  0.625000 -2.500000 0.519980 
vertex  0.625000 -1.875000 0.573300 
endloop 
endfacet 
facet normal  0.266734 0.081923 0.960282 
outer loop 
vertex  0.625000 1.875000 0.573300 
vertex  0.625000 2.500000 0.519980 
vertex  0.000000 1.875000 0.746903 
endloop 
endfacet 
facet normal  -0.308267 -0.404277 0.861122 
outer loop 
vertex  -2.500000 -3.125000 0.000000 
vertex  -1.875000 -3.125000 0.223740 
vertex  -2.500000 -2.500000 0.293423 
endloop 
endfacet 
facet normal  -0.308267 0.404277 0.861122 
outer loop 
vertex  -2.500000 2.500000 0.293423 
vertex  -1.875000 3.125000 0.223740 
vertex  -2.500000 3.125000 0.000000 
endloop 
endfacet 
facet normal  -0.402330 -0.233134 0.885313 
outer loop 
vertex  -3.125000 -1.250000 0.397192 
vertex  -3.125000 -1.875000 0.232607 
vertex  -2.500000 -1.875000 0.516638 
endloop 
endfacet 
facet normal  -0.402330 0.233134 0.885313 
outer loop 
vertex  -2.500000 1.875000 0.516638 
vertex  -3.125000 1.875000 0.232607 
vertex  -3.125000 1.250000 0.397192 
endloop 
endfacet 
facet normal  -0.329340 -0.329340 0.884913 
outer loop 
vertex  -3.750000 -1.875000 0.000000 
vertex  -3.125000 -2.500000 0.000000 
vertex  -3.125000 -1.875000 0.232607 
endloop 
endfacet 
facet normal  -0.329340 0.329340 0.884913 
outer loop 
vertex  -3.125000 1.875000 0.232607 
vertex  -3.125000 2.500000 0.000000 
vertex  -3.750000 1.875000 0.000000 
endloop 
endfacet 
facet normal  -0.293342 -0.390627 0.872560 
outer loop 
vertex  -1.875000 -2.500000 0.503539 
vertex  -2.500000 -2.500000 0.293423 
vertex  -1.875000 -3.125000 0.223740 
endloop 
endfacet 
facet normal  -0.293342 0.390627 0.872560 
outer loop 
vertex  -1.875000 3.125000 0.223740 
vertex  -2.500000 2.500000 0.293423 
vertex  -1.875000 2.500000 0.503539 
endloop 
endfacet 
facet normal  -0.402733 -0.319261 0.857834 
outer loop 
vertex  -3.125000 -1.875000 0.232607 
vertex  -3.125000 -2.500000 0.000000 
vertex  -2.500000 -2.500000 0.293423 
endloop 
endfacet 
facet normal  -0.402733 0.319261 0.857834 
outer loop 
vertex  -2.500000 2.500000 0.293423 
vertex  -3.125000 2.500000 0.000000 
vertex  -3.125000 1.875000 0.232607 
endloop 
endfacet 
facet normal  -0.161138 -0.219918 0.962118 
outer loop 
vertex  -1.250000 -1.875000 0.816664 
vertex  -1.875000 -1.250000 0.854848 
vertex  -1.875000 -1.875000 0.711988 
endloop 
endfacet 
facet normal  -0.161138 0.219918 0.962118 
outer loop 
vertex  -1.875000 1.875000 0.711988 
vertex  -1.875000 1.250000 0.854848 
vertex  -1.250000 1.875000 0.816664 
endloop 
endfacet 
facet normal  -0.392730 -0.222177 0.892413 
outer loop 
vertex  -2.500000 -1.250000 0.672239 
vertex  -3.125000 -1.250000 0.397192 
vertex  -2.500000 -1.875000 0.516638 
endloop 
endfacet 
facet normal  -0.392730 0.222177 0.892413 
outer loop 
vertex  -2.500000 1.875000 0.516638 
vertex  -3.125000 1.250000 0.397192 
vertex  -2.500000 1.250000 0.672239 
endloop 
endfacet 
facet normal  -0.045802 -0.336684 0.940503 
outer loop 
vertex  -1.250000 -3.750000 0.030437 
vertex  -1.875000 -3.125000 0.223740 
vertex  -1.875000 -3.750000 0.000000 
endloop 
endfacet 
facet normal  -0.045802 0.336684 0.940503 
outer loop 
vertex  -1.875000 3.750000 0.000000 
vertex  -1.875000 3.125000 0.223740 
vertex  -1.250000 3.750000 0.030437 
endloop 
endfacet 
facet normal  -0.391119 -0.391119 0.833097 
outer loop 
vertex  -3.125000 -2.500000 0.000000 
vertex  -2.500000 -3.125000 0.000000 
vertex  -2.500000 -2.500000 0.293423 
endloop 
endfacet 
facet normal  -0.391119 0.391119 0.833097 
outer loop 
vertex  -2.500000 2.500000 0.293423 
vertex  -2.500000 3.125000 0.000000 
vertex  -3.125000 2.500000 0.000000 
endloop 
endfacet 
facet normal  -0.096956 -0.450038 0.887731 
outer loop 
vertex  -0.625000 -3.750000 0.120480 
vertex  -0.625000 -3.125000 0.437326 
vertex  -1.250000 -3.125000 0.369064 
endloop 
endfacet 
facet normal  -0.096956 0.450038 0.887731 
outer loop 
vertex  -1.250000 3.125000 0.369064 
vertex  -0.625000 3.125000 0.437326 
vertex  -0.625000 3.750000 0.120480 
endloop 
endfacet 
facet normal  -0.035445 -0.223225 0.974122 
outer loop 
vertex  -0.625000 -3.750000 0.120480 
vertex  0.000000 -4.375000 0.000000 
vertex  0.000000 -3.750000 0.143222 
endloop 
endfacet 
facet normal  -0.035445 0.223225 0.974122 
outer loop 
vertex  0.000000 3.750000 0.143222 
vertex  0.000000 4.375000 0.000000 
vertex  -0.625000 3.750000 0.120480 
endloop 
endfacet 
facet normal  0.000000 -0.048641 0.998816 
outer loop 
vertex  -1.250000 -4.375000 0.000000 
vertex  -0.625000 -4.375000 0.000000 
vertex  -1.250000 -3.750000 0.030437 
endloop 
endfacet 
facet normal  0.000000 0.048641 0.998816 
outer loop 
vertex  -1.250000 3.750000 0.030437 
vertex  -0.625000 4.375000 0.000000 
vertex  -1.250000 4.375000 0.000000 
endloop 
endfacet 
facet normal  -0.140070 -0.187418 0.972242 
outer loop 
vertex  -0.625000 -4.375000 0.000000 
vertex  -0.625000 -3.750000 0.120480 
vertex  -1.250000 -3.750000 0.030437 
endloop 
endfacet 
facet normal  -0.140070 0.187418 0.972242 
outer loop 
vertex  -1.250000 3.750000 0.030437 
vertex  -0.625000 3.750000 0.120480 
vertex  -0.625000 4.375000 0.000000 
endloop 
endfacet 
facet normal  0.000000 -0.189284 0.981922 
outer loop 
vertex  -0.625000 -4.375000 0.000000 
vertex  0.000000 -4.375000 0.000000 
vertex  -0.625000 -3.750000 0.120480 
endloop 
endfacet 
facet normal  0.000000 0.189284 0.981922 
outer loop 
vertex  -0.625000 3.750000 0.120480 
vertex  0.000000 4.375000 0.000000 
vertex  -0.625000 4.375000 0.000000 
endloop 
endfacet 
facet normal  -0.182125 -0.377475 0.907934 
outer loop 
vertex  -1.250000 -3.125000 0.369064 
vertex  -1.250000 -2.500000 0.628909 
vertex  -1.875000 -2.500000 0.503539 
endloop 
endfacet 
facet normal  -0.182125 0.377475 0.907934 
outer loop 
vertex  -1.875000 2.500000 0.503539 
vertex  -1.250000 2.500000 0.628909 
vertex  -1.250000 3.125000 0.369064 
endloop 
endfacet 
facet normal  -0.200298 -0.466723 0.861424 
outer loop 
vertex  -1.250000 -3.750000 0.030437 
vertex  -1.250000 -3.125000 0.369064 
vertex  -1.875000 -3.125000 0.223740 
endloop 
endfacet 
facet normal  -0.200298 0.466723 0.861424 
outer loop 
vertex  -1.875000 3.125000 0.223740 
vertex  -1.250000 3.125000 0.369064 
vertex  -1.250000 3.750000 0.030437 
endloop 
endfacet 
facet normal  -0.125668 -0.472600 0.872271 
outer loop 
vertex  -1.250000 -3.750000 0.030437 
vertex  -0.625000 -3.750000 0.120480 
vertex  -1.250000 -3.125000 0.369064 
endloop 
endfacet 
facet normal  -0.125668 0.472600 0.872271 
outer loop 
vertex  -1.250000 3.125000 0.369064 
vertex  -0.625000 3.750000 0.120480 
vertex  -1.250000 3.750000 0.030437 
endloop 
endfacet 
facet normal  -0.319386 -0.319386 0.892180 
outer loop 
vertex  -2.500000 -3.125000 0.000000 
vertex  -1.875000 -3.750000 0.000000 
vertex  -1.875000 -3.125000 0.223740 
endloop 
endfacet 
facet normal  -0.319386 0.319386 0.892180 
outer loop 
vertex  -1.875000 3.125000 0.223740 
vertex  -1.875000 3.750000 0.000000 
vertex  -2.500000 3.125000 0.000000 
endloop 
endfacet 
facet normal  -0.158377 -0.284075 0.945631 
outer loop 
vertex  -1.250000 -1.875000 0.816664 
vertex  -1.875000 -1.875000 0.711988 
vertex  -1.250000 -2.500000 0.628909 
endloop 
endfacet 
facet normal  -0.158377 0.284075 0.945631 
outer loop 
vertex  -1.250000 2.500000 0.628909 
vertex  -1.875000 1.875000 0.711988 
vertex  -1.250000 1.875000 0.816664 
endloop 
endfacet 
facet normal  -0.301834 -0.320651 0.897819 
outer loop 
vertex  -2.500000 -1.875000 0.516638 
vertex  -2.500000 -2.500000 0.293423 
vertex  -1.875000 -2.500000 0.503539 
endloop 
endfacet 
facet normal  -0.301834 0.320651 0.897819 
outer loop 
vertex  -1.875000 2.500000 0.503539 
vertex  -2.500000 2.500000 0.293423 
vertex  -2.500000 1.875000 0.516638 
endloop 
endfacet 
facet normal  -0.062180 -0.348826 0.935122 
outer loop 
vertex  -0.625000 -3.125000 0.437326 
vertex  -0.625000 -2.500000 0.670468 
vertex  -1.250000 -2.500000 0.628909 
endloop 
endfacet 
facet normal  -0.062180 0.348826 0.935122 
outer loop 
vertex  -1.250000 2.500000 0.628909 
vertex  -0.625000 2.500000 0.670468 
vertex  -0.625000 3.125000 0.437326 
endloop 
endfacet 
facet normal  -0.398743 -0.141528 0.906076 
outer loop 
vertex  -2.500000 -1.250000 0.672239 
vertex  -3.125000 -0.625000 0.494816 
vertex  -3.125000 -1.250000 0.397192 
endloop 
endfacet 
facet normal  -0.398743 0.141528 0.906076 
outer loop 
vertex  -3.125000 1.250000 0.397192 
vertex  -3.125000 0.625000 0.494816 
vertex  -2.500000 1.250000 0.672239 
endloop 
endfacet 
facet normal  -0.018865 -0.194966 0.980629 
outer loop 
vertex  -0.625000 -1.875000 0.828687 
vertex  -1.250000 -1.250000 0.940925 
vertex  -1.250000 -1.875000 0.816664 
endloop 
endfacet 
facet normal  -0.018865 0.194966 0.980629 
outer loop 
vertex  -1.250000 1.875000 0.816664 
vertex  -1.250000 1.250000 0.940925 
vertex  -0.625000 1.875000 0.828687 
endloop 
endfacet 
facet normal  0.070610 -0.023522 0.997227 
outer loop 
vertex  -0.625000 -0.625000 0.974087 
vertex  -0.625000 0.000000 0.988829 
vertex  -1.250000 0.000000 1.033083 
endloop 
endfacet 
facet normal  0.070610 0.023522 0.997227 
outer loop 
vertex  -1.250000 -0.000000 1.033083 
vertex  -0.625000 -0.000000 0.988829 
vertex  -0.625000 0.625000 0.974087 
endloop 
endfacet 
facet normal  -0.063554 -0.287125 0.955782 
outer loop 
vertex  -1.250000 -2.500000 0.628909 
vertex  -0.625000 -2.500000 0.670468 
vertex  -1.250000 -1.875000 0.816664 
endloop 
endfacet 
facet normal  -0.063554 0.287125 0.955782 
outer loop 
vertex  -1.250000 1.875000 0.816664 
vertex  -0.625000 2.500000 0.670468 
vertex  -1.250000 2.500000 0.628909 
endloop 
endfacet 
facet normal  0.000000 -0.168808 0.985649 
outer loop 
vertex  0.625000 -3.750000 0.107041 
vertex  0.625000 -4.375000 0.000000 
vertex  1.250000 -4.375000 0.000000 
endloop 
endfacet 
facet normal  0.000000 0.168808 0.985649 
outer loop 
vertex  1.250000 4.375000 0.000000 
vertex  0.625000 4.375000 0.000000 
vertex  0.625000 3.750000 0.107041 
endloop 
endfacet 
facet normal  0.025342 -0.152090 0.988042 
outer loop 
vertex  -0.625000 -1.875000 0.828687 
vertex  -0.625000 -1.250000 0.924894 
vertex  -1.250000 -1.250000 0.940925 
endloop 
endfacet 
facet normal  0.025342 0.152090 0.988042 
outer loop 
vertex  -1.250000 1.250000 0.940925 
vertex  -0.625000 1.250000 0.924894 
vertex  -0.625000 1.875000 0.828687 
endloop 
endfacet 
facet normal  0.128263 -0.150883 0.980195 
outer loop 
vertex  -0.625000 -1.875000 0.828687 
vertex  0.000000 -1.875000 0.746903 
vertex  -0.625000 -1.250000 0.924894 
endloop 
endfacet 
facet normal  0.128263 0.150883 0.980195 
outer loop 
vertex  -0.625000 1.250000 0.924894 
vertex  0.000000 1.875000 0.746903 
vertex  -0.625000 1.875000 0.828687 
endloop 
endfacet 
facet normal  0.058325 -0.078332 0.995220 
outer loop 
vertex  -1.250000 -0.625000 1.010715 
vertex  -0.625000 -1.250000 0.924894 
vertex  -0.625000 -0.625000 0.974087 
endloop 
endfacet 
facet normal  0.058325 0.078332 0.995220 
outer loop 
vertex  -0.625000 0.625000 0.974087 
vertex  -0.625000 1.250000 0.924894 
vertex  -1.250000 0.625000 1.010715 
endloop 
endfacet 
facet normal  -0.273933 -0.214307 0.937568 
outer loop 
vertex  -1.875000 -1.875000 0.711988 
vertex  -1.875000 -1.250000 0.854848 
vertex  -2.500000 -1.250000 0.672239 
endloop 
endfacet 
facet normal  -0.273933 0.214307 0.937568 
outer loop 
vertex  -2.500000 1.250000 0.672239 
vertex  -1.875000 1.250000 0.854848 
vertex  -1.875000 1.875000 0.711988 
endloop 
endfacet 
facet normal  -0.115254 -0.110236 0.987200 
outer loop 
vertex  -1.250000 -1.250000 0.940925 
vertex  -1.250000 -0.625000 1.010715 
vertex  -1.875000 -0.625000 0.937747 
endloop 
endfacet 
facet normal  -0.115254 0.110236 0.987200 
outer loop 
vertex  -1.875000 0.625000 0.937747 
vertex  -1.250000 0.625000 1.010715 
vertex  -1.250000 1.250000 0.940925 
endloop 
endfacet 
facet normal  0.025482 -0.110939 0.993500 
outer loop 
vertex  -1.250000 -1.250000 0.940925 
vertex  -0.625000 -1.250000 0.924894 
vertex  -1.250000 -0.625000 1.010715 
endloop 
endfacet 
facet normal  0.025482 0.110939 0.993500 
outer loop 
vertex  -1.250000 0.625000 1.010715 
vertex  -0.625000 1.250000 0.924894 
vertex  -1.250000 1.250000 0.940925 
endloop 
endfacet 
facet normal  -0.290245 -0.231188 0.928607 
outer loop 
vertex  -1.875000 -1.875000 0.711988 
vertex  -2.500000 -1.250000 0.672239 
vertex  -2.500000 -1.875000 0.516638 
endloop 
endfacet 
facet normal  -0.290245 0.231188 0.928607 
outer loop 
vertex  -2.500000 1.875000 0.516638 
vertex  -2.500000 1.250000 0.672239 
vertex  -1.875000 1.875000 0.711988 
endloop 
endfacet 
facet normal  -0.277714 -0.139329 0.950507 
outer loop 
vertex  -1.875000 -1.250000 0.854848 
vertex  -2.500000 -0.625000 0.763854 
vertex  -2.500000 -1.250000 0.672239 
endloop 
endfacet 
facet normal  -0.277714 0.139329 0.950507 
outer loop 
vertex  -2.500000 1.250000 0.672239 
vertex  -2.500000 0.625000 0.763854 
vertex  -1.875000 1.250000 0.854848 
endloop 
endfacet 
facet normal  -0.265886 -0.126754 0.955635 
outer loop 
vertex  -1.875000 -0.625000 0.937747 
vertex  -2.500000 -0.625000 0.763854 
vertex  -1.875000 -1.250000 0.854848 
endloop 
endfacet 
facet normal  -0.265886 0.126754 0.955635 
outer loop 
vertex  -1.875000 1.250000 0.854848 
vertex  -2.500000 0.625000 0.763854 
vertex  -1.875000 0.625000 0.937747 
endloop 
endfacet 
facet normal  -0.498771 -0.046850 0.865467 
outer loop 
vertex  -3.750000 0.000000 0.168460 
vertex  -3.750000 -0.625000 0.134627 
vertex  -3.125000 -0.625000 0.494816 
endloop 
endfacet 
facet normal  -0.498771 0.046850 0.865467 
outer loop 
vertex  -3.125000 0.625000 0.494816 
vertex  -3.750000 0.625000 0.134627 
vertex  -3.750000 -0.000000 0.168460 
endloop 
endfacet 
facet normal  -0.284271 -0.303333 0.909494 
outer loop 
vertex  -1.875000 -2.500000 0.503539 
vertex  -1.875000 -1.875000 0.711988 
vertex  -2.500000 -1.875000 0.516638 
endloop 
endfacet 
facet normal  -0.284271 0.303333 0.909494 
outer loop 
vertex  -2.500000 1.875000 0.516638 
vertex  -1.875000 1.875000 0.711988 
vertex  -1.875000 2.500000 0.503539 
endloop 
endfacet 
facet normal  -0.186934 -0.310809 0.931909 
outer loop 
vertex  -1.875000 -2.500000 0.503539 
vertex  -1.250000 -2.500000 0.628909 
vertex  -1.875000 -1.875000 0.711988 
endloop 
endfacet 
facet normal  -0.186934 0.310809 0.931909 
outer loop 
vertex  -1.875000 1.875000 0.711988 
vertex  -1.250000 2.500000 0.628909 
vertex  -1.875000 2.500000 0.503539 
endloop 
endfacet 
facet normal  -0.491197 -0.221815 0.842332 
outer loop 
vertex  -3.125000 -1.250000 0.397192 
vertex  -3.750000 -1.250000 0.032729 
vertex  -3.125000 -1.875000 0.232607 
endloop 
endfacet 
facet normal  -0.491197 0.221815 0.842332 
outer loop 
vertex  -3.125000 1.875000 0.232607 
vertex  -3.750000 1.250000 0.032729 
vertex  -3.125000 1.250000 0.397192 
endloop 
endfacet 
facet normal  -0.052295 0.000000 0.998632 
outer loop 
vertex  -3.750000 -1.250000 0.032729 
vertex  -4.375000 -0.625000 0.000000 
vertex  -4.375000 -1.250000 0.000000 
endloop 
endfacet 
facet normal  -0.052295 -0.000000 0.998632 
outer loop 
vertex  -4.375000 1.250000 0.000000 
vertex  -4.375000 0.625000 0.000000 
vertex  -3.750000 1.250000 0.032729 
endloop 
endfacet 
facet normal  -0.052224 -0.052224 0.997269 
outer loop 
vertex  -3.750000 -1.250000 0.032729 
vertex  -4.375000 -1.250000 0.000000 
vertex  -3.750000 -1.875000 0.000000 
endloop 
endfacet 
facet normal  -0.052224 0.052224 0.997269 
outer loop 
vertex  -3.750000 1.875000 0.000000 
vertex  -4.375000 1.250000 0.000000 
vertex  -3.750000 1.250000 0.032729 
endloop 
endfacet 
facet normal  -0.348379 -0.049019 0.936071 
outer loop 
vertex  -3.125000 -1.875000 0.232607 
vertex  -3.750000 -1.250000 0.032729 
vertex  -3.750000 -1.875000 0.000000 
endloop 
endfacet 
facet normal  -0.348379 0.049019 0.936071 
outer loop 
vertex  -3.750000 1.875000 0.000000 
vertex  -3.750000 1.250000 0.032729 
vertex  -3.125000 1.875000 0.232607 
endloop 
endfacet 
facet normal  -0.494809 -0.134111 0.858591 
outer loop 
vertex  -3.125000 -1.250000 0.397192 
vertex  -3.125000 -0.625000 0.494816 
vertex  -3.750000 -0.625000 0.134627 
endloop 
endfacet 
facet normal  -0.494809 0.134111 0.858591 
outer loop 
vertex  -3.750000 0.625000 0.134627 
vertex  -3.125000 0.625000 0.494816 
vertex  -3.125000 1.250000 0.397192 
endloop 
endfacet 
facet normal  -0.259893 -0.052197 0.964226 
outer loop 
vertex  -4.375000 0.000000 0.000000 
vertex  -3.750000 -0.625000 0.134627 
vertex  -3.750000 0.000000 0.168460 
endloop 
endfacet 
facet normal  -0.259893 0.052197 0.964226 
outer loop 
vertex  -3.750000 -0.000000 0.168460 
vertex  -3.750000 0.625000 0.134627 
vertex  -4.375000 -0.000000 0.000000 
endloop 
endfacet 
facet normal  -0.207948 -0.157394 0.965394 
outer loop 
vertex  -4.375000 -0.625000 0.000000 
vertex  -3.750000 -1.250000 0.032729 
vertex  -3.750000 -0.625000 0.134627 
endloop 
endfacet 
facet normal  -0.207948 0.157394 0.965394 
outer loop 
vertex  -3.750000 0.625000 0.134627 
vertex  -3.750000 1.250000 0.032729 
vertex  -4.375000 0.625000 0.000000 
endloop 
endfacet 
facet normal  -0.394939 -0.047475 0.917480 
outer loop 
vertex  -3.125000 0.000000 0.527157 
vertex  -3.125000 -0.625000 0.494816 
vertex  -2.500000 -0.625000 0.763854 
endloop 
endfacet 
facet normal  -0.394939 0.047475 0.917480 
outer loop 
vertex  -2.500000 0.625000 0.763854 
vertex  -3.125000 0.625000 0.494816 
vertex  -3.125000 -0.000000 0.527157 
endloop 
endfacet 
facet normal  -0.497263 -0.044834 0.866440 
outer loop 
vertex  -3.750000 0.000000 0.168460 
vertex  -3.125000 -0.625000 0.494816 
vertex  -3.125000 0.000000 0.527157 
endloop 
endfacet 
facet normal  -0.497263 0.044834 0.866440 
outer loop 
vertex  -3.125000 -0.000000 0.527157 
vertex  -3.125000 0.625000 0.494816 
vertex  -3.750000 -0.000000 0.168460 
endloop 
endfacet 
facet normal  -0.135272 -0.130278 0.982206 
outer loop 
vertex  -1.250000 -1.250000 0.940925 
vertex  -1.875000 -0.625000 0.937747 
vertex  -1.875000 -1.250000 0.854848 
endloop 
endfacet 
facet normal  -0.135272 0.130278 0.982206 
outer loop 
vertex  -1.875000 1.250000 0.854848 
vertex  -1.875000 0.625000 0.937747 
vertex  -1.250000 1.250000 0.940925 
endloop 
endfacet 
facet normal  -0.263363 -0.041814 0.963790 
outer loop 
vertex  -1.875000 -0.625000 0.937747 
vertex  -1.875000 0.000000 0.964863 
vertex  -2.500000 0.000000 0.794077 
endloop 
endfacet 
facet normal  -0.263363 0.041814 0.963790 
outer loop 
vertex  -2.500000 -0.000000 0.794077 
vertex  -1.875000 -0.000000 0.964863 
vertex  -1.875000 0.625000 0.937747 
endloop 
endfacet 
facet normal  -0.115854 -0.043052 0.992333 
outer loop 
vertex  -1.875000 -0.625000 0.937747 
vertex  -1.250000 -0.625000 1.010715 
vertex  -1.875000 0.000000 0.964863 
endloop 
endfacet 
facet normal  -0.115854 0.043052 0.992333 
outer loop 
vertex  -1.875000 -0.000000 0.964863 
vertex  -1.250000 0.625000 1.010715 
vertex  -1.875000 0.625000 0.937747 
endloop 
endfacet 
facet normal  -0.108439 -0.035555 0.993467 
outer loop 
vertex  -1.250000 -0.625000 1.010715 
vertex  -1.250000 0.000000 1.033083 
vertex  -1.875000 0.000000 0.964863 
endloop 
endfacet 
facet normal  -0.108439 0.035555 0.993467 
outer loop 
vertex  -1.875000 -0.000000 0.964863 
vertex  -1.250000 -0.000000 1.033083 
vertex  -1.250000 0.625000 1.010715 
endloop 
endfacet 
facet normal  0.058467 -0.035705 0.997651 
outer loop 
vertex  -1.250000 -0.625000 1.010715 
vertex  -0.625000 -0.625000 0.974087 
vertex  -1.250000 0.000000 1.033083 
endloop 
endfacet 
facet normal  0.058467 0.035705 0.997651 
outer loop 
vertex  -1.250000 -0.000000 1.033083 
vertex  -0.625000 0.625000 0.974087 
vertex  -1.250000 0.625000 1.010715 
endloop 
endfacet 
facet normal  0.266524 -0.002612 0.963825 
outer loop 
vertex  0.000000 -0.625000 0.814306 
vertex  0.000000 0.000000 0.816000 
vertex  -0.625000 0.000000 0.988829 
endloop 
endfacet 
facet normal  0.266524 0.002612 0.963825 
outer loop 
vertex  -0.625000 -0.000000 0.988829 
vertex  0.000000 -0.000000 0.816000 
vertex  0.000000 0.625000 0.814306 
endloop 
endfacet 
facet normal  0.438778 -0.002435 0.898592 
outer loop 
vertex  0.000000 -0.625000 0.814306 
vertex  0.625000 -0.625000 0.509122 
vertex  0.000000 0.000000 0.816000 
endloop 
endfacet 
facet normal  0.438778 0.002435 0.898592 
outer loop 
vertex  0.000000 -0.000000 0.816000 
vertex  0.625000 0.625000 0.509122 
vertex  0.000000 0.625000 0.814306 
endloop 
endfacet 
facet normal  0.216225 0.225071 0.950047 
outer loop 
vertex  1.875000 -1.875000 0.021357 
vertex  1.875000 -2.500000 0.169423 
vertex  2.500000 -2.500000 0.027176 
endloop 
endfacet 
facet normal  0.216225 -0.225071 0.950047 
outer loop 
vertex  2.500000 2.500000 0.027176 
vertex  1.875000 2.500000 0.169423 
vertex  1.875000 1.875000 0.021357 
endloop 
endfacet 
facet normal  0.282539 -0.071628 0.956578 
outer loop 
vertex  1.875000 -3.125000 0.122623 
vertex  1.875000 -2.500000 0.169423 
vertex  1.250000 -2.500000 0.354026 
endloop 
endfacet 
facet normal  0.282539 0.071628 0.956578 
outer loop 
vertex  1.250000 2.500000 0.354026 
vertex  1.875000 2.500000 0.169423 
vertex  1.875000 3.125000 0.122623 
endloop 
endfacet 
facet normal  0.034120 0.043416 0.998474 
outer loop 
vertex  2.500000 -2.500000 0.027176 
vertex  2.500000 -1.875000 0.000000 
vertex  1.875000 -1.875000 0.021357 
endloop 
endfacet 
facet normal  0.034120 -0.043416 0.998474 
outer loop 
vertex  1.875000 1.875000 0.021357 
vertex  2.500000 1.875000 0.000000 
vertex  2.500000 2.500000 0.027176 
endloop 
endfacet 
facet normal  0.420736 0.209128 0.882749 
outer loop 
vertex  1.875000 -1.875000 0.021357 
vertex  1.250000 -1.875000 0.319245 
vertex  1.875000 -2.500000 0.169423 
endloop 
endfacet 
facet normal  0.420736 -0.209128 0.882749 
outer loop 
vertex  1.875000 2.500000 0.169423 
vertex  1.250000 1.875000 0.319245 
vertex  1.875000 1.875000 0.021357 
endloop 
endfacet 
facet normal  0.034132 0.034132 0.998834 
outer loop 
vertex  2.500000 -1.875000 0.000000 
vertex  1.875000 -1.250000 0.000000 
vertex  1.875000 -1.875000 0.021357 
endloop 
endfacet 
facet normal  0.034132 -0.034132 0.998834 
outer loop 
vertex  1.875000 1.875000 0.021357 
vertex  1.875000 1.250000 0.000000 
vertex  2.500000 1.875000 0.000000 
endloop 
endfacet 
facet normal  0.270421 0.240621 0.932188 
outer loop 
vertex  1.250000 -1.250000 0.181308 
vertex  1.875000 -1.250000 0.000000 
vertex  1.250000 -0.625000 0.019980 
endloop 
endfacet 
facet normal  0.270421 -0.240621 0.932188 
outer loop 
vertex  1.250000 0.625000 0.019980 
vertex  1.875000 1.250000 0.000000 
vertex  1.250000 1.250000 0.181308 
endloop 
endfacet 
facet normal  0.278457 0.032801 0.959888 
outer loop 
vertex  1.250000 -1.250000 0.181308 
vertex  1.875000 -1.875000 0.021357 
vertex  1.875000 -1.250000 0.000000 
endloop 
endfacet 
facet normal  0.278457 -0.032801 0.959888 
outer loop 
vertex  1.875000 1.250000 0.000000 
vertex  1.875000 1.875000 0.021357 
vertex  1.250000 1.250000 0.181308 
endloop 
endfacet 
facet normal  0.614104 0.025217 0.788822 
outer loop 
vertex  1.250000 0.000000 0.000000 
vertex  0.625000 0.000000 0.486567 
vertex  1.250000 -0.625000 0.019980 
endloop 
endfacet 
facet normal  0.614104 -0.025217 0.788822 
outer loop 
vertex  1.250000 0.625000 0.019980 
vertex  0.625000 -0.000000 0.486567 
vertex  1.250000 -0.000000 0.000000 
endloop 
endfacet 
facet normal  0.437849 0.065086 0.896689 
outer loop 
vertex  0.000000 -0.625000 0.814306 
vertex  0.625000 -1.250000 0.554487 
vertex  0.625000 -0.625000 0.509122 
endloop 
endfacet 
facet normal  0.437849 -0.065086 0.896689 
outer loop 
vertex  0.625000 0.625000 0.509122 
vertex  0.625000 1.250000 0.554487 
vertex  0.000000 0.625000 0.814306 
endloop 
endfacet 
facet normal  0.031952 -0.000000 0.999489 
outer loop 
vertex  1.875000 -1.250000 0.000000 
vertex  1.875000 -0.625000 0.000000 
vertex  1.250000 -0.625000 0.019980 
endloop 
endfacet 
facet normal  0.031952 0.000000 0.999489 
outer loop 
vertex  1.250000 0.625000 0.019980 
vertex  1.875000 0.625000 0.000000 
vertex  1.875000 1.250000 0.000000 
endloop 
endfacet 
facet normal  0.031936 0.031936 0.998980 
outer loop 
vertex  1.875000 -0.625000 0.000000 
vertex  1.250000 0.000000 0.000000 
vertex  1.250000 -0.625000 0.019980 
endloop 
endfacet 
facet normal  0.031936 -0.031936 0.998980 
outer loop 
vertex  1.250000 0.625000 0.019980 
vertex  1.250000 -0.000000 0.000000 
vertex  1.875000 0.625000 0.000000 
endloop 
endfacet 
facet normal  0.511663 0.062200 0.856932 
outer loop 
vertex  0.625000 -0.625000 0.509122 
vertex  0.625000 -1.250000 0.554487 
vertex  1.250000 -1.250000 0.181308 
endloop 
endfacet 
facet normal  0.511663 -0.062200 0.856932 
outer loop 
vertex  1.250000 1.250000 0.181308 
vertex  0.625000 1.250000 0.554487 
vertex  0.625000 0.625000 0.509122 
endloop 
endfacet 
facet normal  0.196424 -0.081839 0.977098 
outer loop 
vertex  0.000000 -1.250000 0.799252 
vertex  -0.625000 -1.250000 0.924894 
vertex  0.000000 -1.875000 0.746903 
endloop 
endfacet 
facet normal  0.196424 0.081839 0.977098 
outer loop 
vertex  0.000000 1.875000 0.746903 
vertex  -0.625000 1.250000 0.924894 
vertex  0.000000 1.250000 0.799252 
endloop 
endfacet 
facet normal  0.616068 0.028407 0.787180 
outer loop 
vertex  0.625000 0.000000 0.486567 
vertex  0.625000 -0.625000 0.509122 
vertex  1.250000 -0.625000 0.019980 
endloop 
endfacet 
facet normal  0.616068 -0.028407 0.787180 
outer loop 
vertex  1.250000 0.625000 0.019980 
vertex  0.625000 0.625000 0.509122 
vertex  0.625000 -0.000000 0.486567 
endloop 
endfacet 
facet normal  0.466047 0.031908 0.884184 
outer loop 
vertex  0.625000 0.000000 0.486567 
vertex  0.000000 0.000000 0.816000 
vertex  0.625000 -0.625000 0.509122 
endloop 
endfacet 
facet normal  0.466047 -0.031908 0.884184 
outer loop 
vertex  0.625000 0.625000 0.509122 
vertex  0.000000 -0.000000 0.816000 
vertex  0.625000 -0.000000 0.486567 
endloop 
endfacet 
facet normal  0.266766 -0.080440 0.960398 
outer loop 
vertex  0.000000 -1.250000 0.799252 
vertex  0.000000 -1.875000 0.746903 
vertex  0.625000 -1.875000 0.573300 
endloop 
endfacet 
facet normal  0.266766 0.080440 0.960398 
outer loop 
vertex  0.625000 1.875000 0.573300 
vertex  0.000000 1.875000 0.746903 
vertex  0.000000 1.250000 0.799252 
endloop 
endfacet 
facet normal  0.005380 -0.349497 0.936922 
outer loop 
vertex  -0.625000 -2.500000 0.670468 
vertex  -0.625000 -3.125000 0.437326 
vertex  0.000000 -3.125000 0.433737 
endloop 
endfacet 
facet normal  0.005380 0.349497 0.936922 
outer loop 
vertex  0.000000 3.125000 0.433737 
vertex  -0.625000 3.125000 0.437326 
vertex  -0.625000 2.500000 0.670468 
endloop 
endfacet 
facet normal  0.364565 -0.022423 0.930908 
outer loop 
vertex  0.000000 -0.625000 0.814306 
vertex  0.000000 -1.250000 0.799252 
vertex  0.625000 -1.250000 0.554487 
endloop 
endfacet 
facet normal  0.364565 0.022423 0.930908 
outer loop 
vertex  0.625000 1.250000 0.554487 
vertex  0.000000 1.250000 0.799252 
vertex  0.000000 0.625000 0.814306 
endloop 
endfacet 
facet normal  0.247616 -0.023331 0.968577 
outer loop 
vertex  0.000000 -0.625000 0.814306 
vertex  -0.625000 -0.625000 0.974087 
vertex  0.000000 -1.250000 0.799252 
endloop 
endfacet 
facet normal  0.247616 0.023331 0.968577 
outer loop 
vertex  0.000000 1.250000 0.799252 
vertex  -0.625000 0.625000 0.974087 
vertex  0.000000 0.625000 0.814306 
endloop 
endfacet 
facet normal  0.364514 0.028016 0.930776 
outer loop 
vertex  0.000000 -1.250000 0.799252 
vertex  0.625000 -1.875000 0.573300 
vertex  0.625000 -1.250000 0.554487 
endloop 
endfacet 
facet normal  0.364514 -0.028016 0.930776 
outer loop 
vertex  0.625000 1.250000 0.554487 
vertex  0.625000 1.875000 0.573300 
vertex  0.000000 1.250000 0.799252 
endloop 
endfacet 
facet normal  -0.032437 -0.451930 0.891464 
outer loop 
vertex  0.000000 -3.750000 0.143222 
vertex  -0.625000 -3.125000 0.437326 
vertex  -0.625000 -3.750000 0.120480 
endloop 
endfacet 
facet normal  -0.032437 0.451930 0.891464 
outer loop 
vertex  -0.625000 3.750000 0.120480 
vertex  -0.625000 3.125000 0.437326 
vertex  0.000000 3.750000 0.143222 
endloop 
endfacet 
facet normal  0.603965 0.199199 0.771716 
outer loop 
vertex  0.625000 -0.625000 0.509122 
vertex  1.250000 -1.250000 0.181308 
vertex  1.250000 -0.625000 0.019980 
endloop 
endfacet 
facet normal  0.603965 -0.199199 0.771716 
outer loop 
vertex  1.250000 0.625000 0.019980 
vertex  1.250000 1.250000 0.181308 
vertex  0.625000 0.625000 0.509122 
endloop 
endfacet 
facet normal  0.421957 0.195388 0.885311 
outer loop 
vertex  1.250000 -1.875000 0.319245 
vertex  1.875000 -1.875000 0.021357 
vertex  1.250000 -1.250000 0.181308 
endloop 
endfacet 
facet normal  0.421957 -0.195388 0.885311 
outer loop 
vertex  1.250000 1.250000 0.181308 
vertex  1.875000 1.875000 0.021357 
vertex  1.250000 1.875000 0.319245 
endloop 
endfacet 
facet normal  0.172747 -0.178922 0.968579 
outer loop 
vertex  0.000000 -1.875000 0.746903 
vertex  0.000000 -2.500000 0.631449 
vertex  0.625000 -2.500000 0.519980 
endloop 
endfacet 
facet normal  0.172747 0.178922 0.968579 
outer loop 
vertex  0.625000 2.500000 0.519980 
vertex  0.000000 2.500000 0.631449 
vertex  0.000000 1.875000 0.746903 
endloop 
endfacet 
facet normal  0.127625 -0.180168 0.975321 
outer loop 
vertex  0.000000 -1.875000 0.746903 
vertex  -0.625000 -1.875000 0.828687 
vertex  0.000000 -2.500000 0.631449 
endloop 
endfacet 
facet normal  0.127625 0.180168 0.975321 
outer loop 
vertex  0.000000 2.500000 0.631449 
vertex  -0.625000 1.875000 0.828687 
vertex  0.000000 1.875000 0.746903 
endloop 
endfacet 
facet normal  0.255766 -0.082175 0.963240 
outer loop 
vertex  0.625000 -1.875000 0.573300 
vertex  0.625000 -2.500000 0.519980 
vertex  1.250000 -2.500000 0.354026 
endloop 
endfacet 
facet normal  0.255766 0.082175 0.963240 
outer loop 
vertex  1.250000 2.500000 0.354026 
vertex  0.625000 2.500000 0.519980 
vertex  0.625000 1.875000 0.573300 
endloop 
endfacet 
facet normal  0.100052 -0.300095 0.948648 
outer loop 
vertex  0.000000 -2.500000 0.631449 
vertex  0.000000 -3.125000 0.433737 
vertex  0.625000 -3.125000 0.367820 
endloop 
endfacet 
facet normal  0.100052 0.300095 0.948648 
outer loop 
vertex  0.625000 3.125000 0.367820 
vertex  0.000000 3.125000 0.433737 
vertex  0.000000 2.500000 0.631449 
endloop 
endfacet 
facet normal  0.060410 -0.244962 0.967649 
outer loop 
vertex  -0.625000 -1.875000 0.828687 
vertex  -0.625000 -2.500000 0.670468 
vertex  0.000000 -2.500000 0.631449 
endloop 
endfacet 
facet normal  0.060410 0.244962 0.967649 
outer loop 
vertex  0.000000 2.500000 0.631449 
vertex  -0.625000 2.500000 0.670468 
vertex  -0.625000 1.875000 0.828687 
endloop 
endfacet 
facet normal  -0.018646 -0.245367 0.969251 
outer loop 
vertex  -0.625000 -1.875000 0.828687 
vertex  -1.250000 -1.875000 0.816664 
vertex  -0.625000 -2.500000 0.670468 
endloop 
endfacet 
facet normal  -0.018646 0.245367 0.969251 
outer loop 
vertex  -0.625000 2.500000 0.670468 
vertex  -1.250000 1.875000 0.816664 
vertex  -0.625000 1.875000 0.828687 
endloop 
endfacet 
facet normal  0.059417 -0.301076 0.951747 
outer loop 
vertex  -0.625000 -2.500000 0.670468 
vertex  0.000000 -3.125000 0.433737 
vertex  0.000000 -2.500000 0.631449 
endloop 
endfacet 
facet normal  0.059417 0.301076 0.951747 
outer loop 
vertex  0.000000 2.500000 0.631449 
vertex  0.000000 3.125000 0.433737 
vertex  -0.625000 2.500000 0.670468 
endloop 
endfacet 
facet normal  0.056966 -0.168534 0.984048 
outer loop 
vertex  0.000000 -3.750000 0.143222 
vertex  0.625000 -4.375000 0.000000 
vertex  0.625000 -3.750000 0.107041 
endloop 
endfacet 
facet normal  0.056966 0.168534 0.984048 
outer loop 
vertex  0.625000 3.750000 0.107041 
vertex  0.625000 4.375000 0.000000 
vertex  0.000000 3.750000 0.143222 
endloop 
endfacet 
facet normal  0.005207 -0.421507 0.906810 
outer loop 
vertex  -0.625000 -3.125000 0.437326 
vertex  0.000000 -3.750000 0.143222 
vertex  0.000000 -3.125000 0.433737 
endloop 
endfacet 
facet normal  0.005207 0.421507 0.906810 
outer loop 
vertex  0.000000 3.125000 0.433737 
vertex  0.000000 3.750000 0.143222 
vertex  -0.625000 3.125000 0.437326 
endloop 
endfacet 
facet normal  0.000000 -0.223365 0.974735 
outer loop 
vertex  0.000000 -4.375000 0.000000 
vertex  0.625000 -4.375000 0.000000 
vertex  0.000000 -3.750000 0.143222 
endloop 
endfacet 
facet normal  0.000000 0.223365 0.974735 
outer loop 
vertex  0.000000 3.750000 0.143222 
vertex  0.625000 4.375000 0.000000 
vertex  0.000000 4.375000 0.000000 
endloop 
endfacet 
facet normal  0.131762 -0.037886 0.990557 
outer loop 
vertex  1.250000 -3.750000 0.023905 
vertex  0.625000 -3.750000 0.107041 
vertex  1.250000 -4.375000 0.000000 
endloop 
endfacet 
facet normal  0.131762 0.037886 0.990557 
outer loop 
vertex  1.250000 4.375000 0.000000 
vertex  0.625000 3.750000 0.107041 
vertex  1.250000 3.750000 0.023905 
endloop 
endfacet 
facet normal  0.096877 -0.383259 0.918546 
outer loop 
vertex  0.625000 -3.125000 0.367820 
vertex  0.000000 -3.125000 0.433737 
vertex  0.625000 -3.750000 0.107041 
endloop 
endfacet 
facet normal  0.096877 0.383259 0.918546 
outer loop 
vertex  0.625000 3.750000 0.107041 
vertex  0.000000 3.125000 0.433737 
vertex  0.625000 3.125000 0.367820 
endloop 
endfacet 
facet normal  0.121846 -0.382201 0.916011 
outer loop 
vertex  1.250000 -3.750000 0.023905 
vertex  0.625000 -3.125000 0.367820 
vertex  0.625000 -3.750000 0.107041 
endloop 
endfacet 
facet normal  0.121846 0.382201 0.916011 
outer loop 
vertex  0.625000 3.750000 0.107041 
vertex  0.625000 3.125000 0.367820 
vertex  1.250000 3.750000 0.023905 
endloop 
endfacet 
facet normal  0.170745 -0.233074 0.957352 
outer loop 
vertex  0.625000 -2.500000 0.519980 
vertex  0.000000 -2.500000 0.631449 
vertex  0.625000 -3.125000 0.367820 
endloop 
endfacet 
facet normal  0.170745 0.233074 0.957352 
outer loop 
vertex  0.625000 3.125000 0.367820 
vertex  0.000000 2.500000 0.631449 
vertex  0.625000 2.500000 0.519980 
endloop 
endfacet 
facet normal  0.204687 -0.188451 0.960515 
outer loop 
vertex  1.875000 -3.125000 0.122623 
vertex  1.250000 -3.125000 0.255811 
vertex  1.875000 -3.750000 0.000000 
endloop 
endfacet 
facet normal  0.204687 0.188451 0.960515 
outer loop 
vertex  1.875000 3.750000 0.000000 
vertex  1.250000 3.125000 0.255811 
vertex  1.875000 3.125000 0.122623 
endloop 
endfacet 
facet normal  0.376066 0.051484 0.925162 
outer loop 
vertex  1.250000 -2.500000 0.354026 
vertex  1.250000 -1.875000 0.319245 
vertex  0.625000 -1.875000 0.573300 
endloop 
endfacet 
facet normal  0.376066 -0.051484 0.925162 
outer loop 
vertex  0.625000 1.875000 0.573300 
vertex  1.250000 1.875000 0.319245 
vertex  1.250000 2.500000 0.354026 
endloop 
endfacet 
facet normal  0.165697 -0.343067 0.924581 
outer loop 
vertex  1.250000 -3.750000 0.023905 
vertex  1.250000 -3.125000 0.255811 
vertex  0.625000 -3.125000 0.367820 
endloop 
endfacet 
facet normal  0.165697 0.343067 0.924581 
outer loop 
vertex  0.625000 3.125000 0.367820 
vertex  1.250000 3.125000 0.255811 
vertex  1.250000 3.750000 0.023905 
endloop 
endfacet 
facet normal  0.038219 0.000000 0.999269 
outer loop 
vertex  1.875000 -3.750000 0.000000 
vertex  1.250000 -3.750000 0.023905 
vertex  1.875000 -4.375000 0.000000 
endloop 
endfacet 
facet normal  0.038219 -0.000000 0.999269 
outer loop 
vertex  1.875000 4.375000 0.000000 
vertex  1.250000 3.750000 0.023905 
vertex  1.875000 3.750000 0.000000 
endloop 
endfacet 
facet normal  0.000000 -0.038219 0.999269 
outer loop 
vertex  1.875000 -4.375000 0.000000 
vertex  1.250000 -3.750000 0.023905 
vertex  1.250000 -4.375000 0.000000 
endloop 
endfacet 
facet normal  0.000000 0.038219 0.999269 
outer loop 
vertex  1.250000 4.375000 0.000000 
vertex  1.250000 3.750000 0.023905 
vertex  1.875000 4.375000 0.000000 
endloop 
endfacet 
facet normal  0.035835 -0.347652 0.936939 
outer loop 
vertex  1.875000 -3.750000 0.000000 
vertex  1.250000 -3.125000 0.255811 
vertex  1.250000 -3.750000 0.023905 
endloop 
endfacet 
facet normal  0.035835 0.347652 0.936939 
outer loop 
vertex  1.250000 3.750000 0.023905 
vertex  1.250000 3.125000 0.255811 
vertex  1.875000 3.750000 0.000000 
endloop 
endfacet 
facet normal  0.206002 -0.151909 0.966689 
outer loop 
vertex  1.875000 -3.125000 0.122623 
vertex  1.250000 -2.500000 0.354026 
vertex  1.250000 -3.125000 0.255811 
endloop 
endfacet 
facet normal  0.206002 0.151909 0.966689 
outer loop 
vertex  1.250000 3.125000 0.255811 
vertex  1.250000 2.500000 0.354026 
vertex  1.875000 3.125000 0.122623 
endloop 
endfacet 
facet normal  0.282864 0.053294 0.957678 
outer loop 
vertex  1.875000 -2.500000 0.169423 
vertex  1.250000 -1.875000 0.319245 
vertex  1.250000 -2.500000 0.354026 
endloop 
endfacet 
facet normal  0.282864 -0.053294 0.957678 
outer loop 
vertex  1.250000 2.500000 0.354026 
vertex  1.250000 1.875000 0.319245 
vertex  1.875000 2.500000 0.169423 
endloop 
endfacet 
facet normal  0.221720 -0.042360 0.974190 
outer loop 
vertex  1.875000 -2.500000 0.169423 
vertex  2.500000 -3.125000 0.000000 
vertex  2.500000 -2.500000 0.027176 
endloop 
endfacet 
facet normal  0.221720 0.042360 0.974190 
outer loop 
vertex  2.500000 2.500000 0.027176 
vertex  2.500000 3.125000 0.000000 
vertex  1.875000 2.500000 0.169423 
endloop 
endfacet 
facet normal  0.043441 0.000000 0.999056 
outer loop 
vertex  3.125000 -2.500000 0.000000 
vertex  2.500000 -2.500000 0.027176 
vertex  3.125000 -3.125000 0.000000 
endloop 
endfacet 
facet normal  0.043441 -0.000000 0.999056 
outer loop 
vertex  3.125000 3.125000 0.000000 
vertex  2.500000 2.500000 0.027176 
vertex  3.125000 2.500000 0.000000 
endloop 
endfacet 
facet normal  0.000000 -0.192527 0.981292 
outer loop 
vertex  2.500000 -3.750000 0.000000 
vertex  1.875000 -3.125000 0.122623 
vertex  1.875000 -3.750000 0.000000 
endloop 
endfacet 
facet normal  0.000000 0.192527 0.981292 
outer loop 
vertex  1.875000 3.750000 0.000000 
vertex  1.875000 3.125000 0.122623 
vertex  2.500000 3.750000 0.000000 
endloop 
endfacet 
facet normal  0.192009 -0.073281 0.978653 
outer loop 
vertex  2.500000 -3.125000 0.000000 
vertex  1.875000 -2.500000 0.169423 
vertex  1.875000 -3.125000 0.122623 
endloop 
endfacet 
facet normal  0.192009 0.073281 0.978653 
outer loop 
vertex  1.875000 3.125000 0.122623 
vertex  1.875000 2.500000 0.169423 
vertex  2.500000 3.125000 0.000000 
endloop 
endfacet 
endsolid Cuerno_17_Aendfacet 
