solid Cuerno_23_B 
facet normal  0.000000 0.000000 -1.000000 
outer loop 
vertex  1.818182 -3.636364 0.000000 
vertex  1.363636 -3.636364 0.000000 
vertex  1.363636 -3.181818 0.000000 
endloop 
endfacet 
facet normal  0.000000 0.000000 -1.000000 
outer loop 
vertex  1.363636 3.181818 0.000000 
vertex  1.363636 3.636364 0.000000 
vertex  1.818182 3.636364 0.000000 
endloop 
endfacet 
facet normal  0.000000 0.000000 -1.000000 
outer loop 
vertex  -3.181818 -0.909091 0.000000 
vertex  -2.727273 -0.909091 0.000000 
vertex  -2.727273 -1.363636 0.000000 
endloop 
endfacet 
facet normal  0.000000 0.000000 -1.000000 
outer loop 
vertex  -2.727273 1.363636 0.000000 
vertex  -2.727273 0.909091 0.000000 
vertex  -3.181818 0.909091 0.000000 
endloop 
endfacet 
facet normal  0.000000 0.000000 -1.000000 
outer loop 
vertex  -3.636364 -0.909091 0.000000 
vertex  -3.636364 -1.363636 0.000000 
vertex  -4.090909 -0.909091 0.000000 
endloop 
endfacet 
facet normal  0.000000 0.000000 -1.000000 
outer loop 
vertex  -4.090909 0.909091 0.000000 
vertex  -3.636364 1.363636 0.000000 
vertex  -3.636364 0.909091 0.000000 
endloop 
endfacet 
facet normal  0.000000 0.000000 -1.000000 
outer loop 
vertex  -2.272727 0.000000 0.000000 
vertex  -2.272727 -0.454545 0.000000 
vertex  -2.727273 0.000000 0.000000 
endloop 
endfacet 
facet normal  0.000000 0.000000 -1.000000 
outer loop 
vertex  -2.727273 -0.000000 0.000000 
vertex  -2.272727 0.454545 0.000000 
vertex  -2.272727 -0.000000 0.000000 
endloop 
endfacet 
facet normal  0.000000 0.000000 -1.000000 
outer loop 
vertex  -0.909091 -0.909091 0.000000 
vertex  -0.909091 -1.363636 0.000000 
vertex  -1.363636 -0.909091 0.000000 
endloop 
endfacet 
facet normal  0.000000 0.000000 -1.000000 
outer loop 
vertex  -1.363636 0.909091 0.000000 
vertex  -0.909091 1.363636 0.000000 
vertex  -0.909091 0.909091 0.000000 
endloop 
endfacet 
facet normal  0.000000 0.000000 -1.000000 
outer loop 
vertex  -3.636364 -0.454545 0.000000 
vertex  -4.090909 -0.454545 0.000000 
vertex  -4.090909 0.000000 0.000000 
endloop 
endfacet 
facet normal  0.000000 0.000000 -1.000000 
outer loop 
vertex  -4.090909 -0.000000 0.000000 
vertex  -4.090909 0.454545 0.000000 
vertex  -3.636364 0.454545 0.000000 
endloop 
endfacet 
facet normal  0.000000 0.000000 -1.000000 
outer loop 
vertex  -3.181818 -0.909091 0.000000 
vertex  -3.636364 -0.909091 0.000000 
vertex  -3.636364 -0.454545 0.000000 
endloop 
endfacet 
facet normal  0.000000 0.000000 -1.000000 
outer loop 
vertex  -3.636364 0.454545 0.000000 
vertex  -3.636364 0.909091 0.000000 
vertex  -3.181818 0.909091 0.000000 
endloop 
endfacet 
facet normal  0.000000 0.000000 -1.000000 
outer loop 
vertex  0.909091 -0.454545 0.000000 
vertex  0.909091 -0.909091 0.000000 
vertex  0.454545 -0.454545 0.000000 
endloop 
endfacet 
facet normal  0.000000 0.000000 -1.000000 
outer loop 
vertex  0.454545 0.454545 0.000000 
vertex  0.909091 0.909091 0.000000 
vertex  0.909091 0.454545 0.000000 
endloop 
endfacet 
facet normal  0.000000 0.000000 -1.000000 
outer loop 
vertex  -1.818182 -0.909091 0.000000 
vertex  -1.818182 -0.454545 0.000000 
vertex  -1.363636 -0.909091 0.000000 
endloop 
endfacet 
facet normal  0.000000 0.000000 -1.000000 
outer loop 
vertex  -1.363636 0.909091 0.000000 
vertex  -1.818182 0.454545 0.000000 
vertex  -1.818182 0.909091 0.000000 
endloop 
endfacet 
facet normal  0.000000 0.000000 -1.000000 
outer loop 
vertex  -1.818182 -1.818182 0.000000 
vertex  -1.818182 -1.363636 0.000000 
vertex  -1.363636 -1.818182 0.000000 
endloop 
endfacet 
facet normal  0.000000 0.000000 -1.000000 
outer loop 
vertex  -1.363636 1.818182 0.000000 
vertex  -1.818182 1.363636 0.000000 
vertex  -1.818182 1.818182 0.000000 
endloop 
endfacet 
facet normal  0.000000 0.000000 -1.000000 
outer loop 
vertex  -3.636364 -1.818182 0.000000 
vertex  -3.181818 -1.818182 0.000000 
vertex  -3.181818 -2.272727 0.000000 
endloop 
endfacet 
facet normal  0.000000 0.000000 -1.000000 
outer loop 
vertex  -3.181818 2.272727 0.000000 
vertex  -3.181818 1.818182 0.000000 
vertex  -3.636364 1.818182 0.000000 
endloop 
endfacet 
facet normal  0.000000 0.000000 -1.000000 
outer loop 
vertex  1.818182 -1.818182 0.000000 
vertex  1.363636 -1.363636 0.000000 
vertex  1.818182 -1.363636 0.000000 
endloop 
endfacet 
facet normal  0.000000 0.000000 -1.000000 
outer loop 
vertex  1.818182 1.363636 0.000000 
vertex  1.363636 1.363636 0.000000 
vertex  1.818182 1.818182 0.000000 
endloop 
endfacet 
facet normal  0.000000 0.000000 -1.000000 
outer loop 
vertex  -2.272727 -2.727273 0.000000 
vertex  -1.818182 -2.727273 0.000000 
vertex  -1.818182 -3.181818 0.000000 
endloop 
endfacet 
facet normal  0.000000 0.000000 -1.000000 
outer loop 
vertex  -1.818182 3.181818 0.000000 
vertex  -1.818182 2.727273 0.000000 
vertex  -2.272727 2.727273 0.000000 
endloop 
endfacet 
facet normal  0.000000 0.000000 -1.000000 
outer loop 
vertex  -0.909091 -2.272727 0.000000 
vertex  -0.909091 -1.818182 0.000000 
vertex  -0.454545 -2.272727 0.000000 
endloop 
endfacet 
facet normal  0.000000 0.000000 -1.000000 
outer loop 
vertex  -0.454545 2.272727 0.000000 
vertex  -0.909091 1.818182 0.000000 
vertex  -0.909091 2.272727 0.000000 
endloop 
endfacet 
facet normal  0.000000 0.000000 -1.000000 
outer loop 
vertex  -2.727273 -1.818182 0.000000 
vertex  -2.727273 -2.272727 0.000000 
vertex  -3.181818 -1.818182 0.000000 
endloop 
endfacet 
facet normal  0.000000 0.000000 -1.000000 
outer loop 
vertex  -3.181818 1.818182 0.000000 
vertex  -2.727273 2.272727 0.000000 
vertex  -2.727273 1.818182 0.000000 
endloop 
endfacet 
facet normal  0.000000 0.000000 -1.000000 
outer loop 
vertex  -1.363636 -2.727273 0.000000 
vertex  -0.909091 -2.727273 0.000000 
vertex  -0.909091 -3.181818 0.000000 
endloop 
endfacet 
facet normal  0.000000 0.000000 -1.000000 
outer loop 
vertex  -0.909091 3.181818 0.000000 
vertex  -0.909091 2.727273 0.000000 
vertex  -1.363636 2.727273 0.000000 
endloop 
endfacet 
facet normal  0.000000 0.000000 -1.000000 
outer loop 
vertex  -1.818182 -2.727273 0.000000 
vertex  -1.363636 -3.181818 0.000000 
vertex  -1.818182 -3.181818 0.000000 
endloop 
endfacet 
facet normal  0.000000 0.000000 -1.000000 
outer loop 
vertex  -1.818182 3.181818 0.000000 
vertex  -1.363636 3.181818 0.000000 
vertex  -1.818182 2.727273 0.000000 
endloop 
endfacet 
facet normal  0.000000 0.000000 -1.000000 
outer loop 
vertex  -2.272727 -1.363636 0.000000 
vertex  -1.818182 -1.363636 0.000000 
vertex  -1.818182 -1.818182 0.000000 
endloop 
endfacet 
facet normal  0.000000 0.000000 -1.000000 
outer loop 
vertex  -1.818182 1.818182 0.000000 
vertex  -1.818182 1.363636 0.000000 
vertex  -2.272727 1.363636 0.000000 
endloop 
endfacet 
facet normal  0.000000 0.000000 -1.000000 
outer loop 
vertex  -0.909091 -2.727273 0.000000 
vertex  -0.454545 -2.727273 0.000000 
vertex  -0.454545 -3.181818 0.000000 
endloop 
endfacet 
facet normal  0.000000 0.000000 -1.000000 
outer loop 
vertex  -0.454545 3.181818 0.000000 
vertex  -0.454545 2.727273 0.000000 
vertex  -0.909091 2.727273 0.000000 
endloop 
endfacet 
facet normal  0.000000 0.000000 -1.000000 
outer loop 
vertex  -1.363636 -2.727273 0.000000 
vertex  -1.363636 -2.272727 0.000000 
vertex  -0.909091 -2.727273 0.000000 
endloop 
endfacet 
facet normal  0.000000 0.000000 -1.000000 
outer loop 
vertex  -0.909091 2.727273 0.000000 
vertex  -1.363636 2.272727 0.000000 
vertex  -1.363636 2.727273 0.000000 
endloop 
endfacet 
facet normal  0.000000 0.000000 -1.000000 
outer loop 
vertex  -1.818182 -2.272727 0.000000 
vertex  -1.363636 -2.272727 0.000000 
vertex  -1.363636 -2.727273 0.000000 
endloop 
endfacet 
facet normal  0.000000 0.000000 -1.000000 
outer loop 
vertex  -1.363636 2.727273 0.000000 
vertex  -1.363636 2.272727 0.000000 
vertex  -1.818182 2.272727 0.000000 
endloop 
endfacet 
facet normal  0.000000 0.000000 -1.000000 
outer loop 
vertex  -0.454545 -2.272727 0.000000 
vertex  -0.454545 -2.727273 0.000000 
vertex  -0.909091 -2.272727 0.000000 
endloop 
endfacet 
facet normal  0.000000 0.000000 -1.000000 
outer loop 
vertex  -0.909091 2.272727 0.000000 
vertex  -0.454545 2.727273 0.000000 
vertex  -0.454545 2.272727 0.000000 
endloop 
endfacet 
facet normal  0.000000 0.000000 -1.000000 
outer loop 
vertex  -1.363636 -1.818182 0.000000 
vertex  -0.909091 -1.818182 0.000000 
vertex  -0.909091 -2.272727 0.000000 
endloop 
endfacet 
facet normal  0.000000 0.000000 -1.000000 
outer loop 
vertex  -0.909091 2.272727 0.000000 
vertex  -0.909091 1.818182 0.000000 
vertex  -1.363636 1.818182 0.000000 
endloop 
endfacet 
facet normal  0.000000 0.000000 -1.000000 
outer loop 
vertex  -0.909091 -0.454545 0.000000 
vertex  -0.909091 -0.909091 0.000000 
vertex  -1.363636 -0.454545 0.000000 
endloop 
endfacet 
facet normal  0.000000 0.000000 -1.000000 
outer loop 
vertex  -1.363636 0.454545 0.000000 
vertex  -0.909091 0.909091 0.000000 
vertex  -0.909091 0.454545 0.000000 
endloop 
endfacet 
facet normal  0.000000 0.000000 -1.000000 
outer loop 
vertex  -1.363636 -1.363636 0.000000 
vertex  -0.909091 -1.818182 0.000000 
vertex  -1.363636 -1.818182 0.000000 
endloop 
endfacet 
facet normal  0.000000 0.000000 -1.000000 
outer loop 
vertex  -1.363636 1.818182 0.000000 
vertex  -0.909091 1.818182 0.000000 
vertex  -1.363636 1.363636 0.000000 
endloop 
endfacet 
facet normal  0.000000 0.000000 -1.000000 
outer loop 
vertex  1.363636 -2.272727 0.000000 
vertex  1.363636 -2.727273 0.000000 
vertex  0.909091 -2.272727 0.000000 
endloop 
endfacet 
facet normal  0.000000 0.000000 -1.000000 
outer loop 
vertex  0.909091 2.272727 0.000000 
vertex  1.363636 2.727273 0.000000 
vertex  1.363636 2.272727 0.000000 
endloop 
endfacet 
facet normal  0.000000 0.000000 -1.000000 
outer loop 
vertex  -3.181818 -2.272727 0.000000 
vertex  -3.181818 -2.727273 0.000000 
vertex  -3.636364 -2.272727 0.000000 
endloop 
endfacet 
facet normal  0.000000 0.000000 -1.000000 
outer loop 
vertex  -3.636364 2.272727 0.000000 
vertex  -3.181818 2.727273 0.000000 
vertex  -3.181818 2.272727 0.000000 
endloop 
endfacet 
facet normal  0.000000 0.000000 -1.000000 
outer loop 
vertex  -2.727273 -1.818182 0.000000 
vertex  -3.181818 -1.363636 0.000000 
vertex  -2.727273 -1.363636 0.000000 
endloop 
endfacet 
facet normal  0.000000 0.000000 -1.000000 
outer loop 
vertex  -2.727273 1.363636 0.000000 
vertex  -3.181818 1.363636 0.000000 
vertex  -2.727273 1.818182 0.000000 
endloop 
endfacet 
facet normal  0.000000 0.000000 -1.000000 
outer loop 
vertex  -2.727273 -0.454545 0.000000 
vertex  -3.181818 -0.454545 0.000000 
vertex  -3.181818 0.000000 0.000000 
endloop 
endfacet 
facet normal  0.000000 0.000000 -1.000000 
outer loop 
vertex  -3.181818 -0.000000 0.000000 
vertex  -3.181818 0.454545 0.000000 
vertex  -2.727273 0.454545 0.000000 
endloop 
endfacet 
facet normal  0.000000 0.000000 -1.000000 
outer loop 
vertex  -0.454545 -0.909091 0.000000 
vertex  -0.909091 -0.454545 0.000000 
vertex  -0.454545 -0.454545 0.000000 
endloop 
endfacet 
facet normal  0.000000 0.000000 -1.000000 
outer loop 
vertex  -0.454545 0.454545 0.000000 
vertex  -0.909091 0.454545 0.000000 
vertex  -0.454545 0.909091 0.000000 
endloop 
endfacet 
facet normal  0.000000 0.000000 -1.000000 
outer loop 
vertex  -3.636364 -0.909091 0.000000 
vertex  -3.181818 -1.363636 0.000000 
vertex  -3.636364 -1.363636 0.000000 
endloop 
endfacet 
facet normal  0.000000 0.000000 -1.000000 
outer loop 
vertex  -3.636364 1.363636 0.000000 
vertex  -3.181818 1.363636 0.000000 
vertex  -3.636364 0.909091 0.000000 
endloop 
endfacet 
facet normal  0.000000 0.000000 -1.000000 
outer loop 
vertex  -3.636364 -0.454545 0.000000 
vertex  -3.636364 -0.909091 0.000000 
vertex  -4.090909 -0.454545 0.000000 
endloop 
endfacet 
facet normal  0.000000 0.000000 -1.000000 
outer loop 
vertex  -4.090909 0.454545 0.000000 
vertex  -3.636364 0.909091 0.000000 
vertex  -3.636364 0.454545 0.000000 
endloop 
endfacet 
facet normal  0.000000 0.000000 -1.000000 
outer loop 
vertex  0.000000 -0.454545 0.000000 
vertex  0.454545 -0.454545 0.000000 
vertex  0.454545 -0.909091 0.000000 
endloop 
endfacet 
facet normal  0.000000 0.000000 -1.000000 
outer loop 
vertex  0.454545 0.909091 0.000000 
vertex  0.454545 0.454545 0.000000 
vertex  0.000000 0.454545 0.000000 
endloop 
endfacet 
facet normal  0.000000 0.000000 -1.000000 
outer loop 
vertex  0.909091 -0.454545 0.000000 
vertex  1.363636 -0.454545 0.000000 
vertex  1.363636 -0.909091 0.000000 
endloop 
endfacet 
facet normal  0.000000 0.000000 -1.000000 
outer loop 
vertex  1.363636 0.909091 0.000000 
vertex  1.363636 0.454545 0.000000 
vertex  0.909091 0.454545 0.000000 
endloop 
endfacet 
facet normal  0.000000 0.000000 -1.000000 
outer loop 
vertex  0.000000 -0.454545 0.000000 
vertex  0.000000 0.000000 0.000000 
vertex  0.454545 -0.454545 0.000000 
endloop 
endfacet 
facet normal  0.000000 0.000000 -1.000000 
outer loop 
vertex  0.454545 0.454545 0.000000 
vertex  0.000000 -0.000000 0.000000 
vertex  0.000000 0.454545 0.000000 
endloop 
endfacet 
facet normal  0.000000 0.000000 -1.000000 
outer loop 
vertex  1.363636 -1.818182 0.000000 
vertex  0.909091 -1.818182 0.000000 
vertex  0.909091 -1.363636 0.000000 
endloop 
endfacet 
facet normal  0.000000 0.000000 -1.000000 
outer loop 
vertex  0.909091 1.363636 0.000000 
vertex  0.909091 1.818182 0.000000 
vertex  1.363636 1.818182 0.000000 
endloop 
endfacet 
facet normal  0.000000 0.000000 -1.000000 
outer loop 
vertex  1.818182 -1.363636 0.000000 
vertex  2.272727 -1.818182 0.000000 
vertex  1.818182 -1.818182 0.000000 
endloop 
endfacet 
facet normal  0.000000 0.000000 -1.000000 
outer loop 
vertex  1.818182 1.818182 0.000000 
vertex  2.272727 1.818182 0.000000 
vertex  1.818182 1.363636 0.000000 
endloop 
endfacet 
facet normal  0.000000 0.000000 -1.000000 
outer loop 
vertex  -0.909091 -1.363636 0.000000 
vertex  -0.909091 -0.909091 0.000000 
vertex  -0.454545 -1.363636 0.000000 
endloop 
endfacet 
facet normal  0.000000 0.000000 -1.000000 
outer loop 
vertex  -0.454545 1.363636 0.000000 
vertex  -0.909091 0.909091 0.000000 
vertex  -0.909091 1.363636 0.000000 
endloop 
endfacet 
facet normal  0.000000 0.000000 -1.000000 
outer loop 
vertex  0.000000 -2.272727 0.000000 
vertex  -0.454545 -2.272727 0.000000 
vertex  -0.454545 -1.818182 0.000000 
endloop 
endfacet 
facet normal  0.000000 0.000000 -1.000000 
outer loop 
vertex  -0.454545 1.818182 0.000000 
vertex  -0.454545 2.272727 0.000000 
vertex  0.000000 2.272727 0.000000 
endloop 
endfacet 
facet normal  0.000000 0.000000 -1.000000 
outer loop 
vertex  -1.363636 -3.181818 0.000000 
vertex  -0.909091 -3.636364 0.000000 
vertex  -1.363636 -3.636364 0.000000 
endloop 
endfacet 
facet normal  0.000000 0.000000 -1.000000 
outer loop 
vertex  -1.363636 3.636364 0.000000 
vertex  -0.909091 3.636364 0.000000 
vertex  -1.363636 3.181818 0.000000 
endloop 
endfacet 
facet normal  0.000000 0.000000 -1.000000 
outer loop 
vertex  0.000000 -3.181818 0.000000 
vertex  0.454545 -3.636364 0.000000 
vertex  0.000000 -3.636364 0.000000 
endloop 
endfacet 
facet normal  0.000000 0.000000 -1.000000 
outer loop 
vertex  0.000000 3.636364 0.000000 
vertex  0.454545 3.636364 0.000000 
vertex  0.000000 3.181818 0.000000 
endloop 
endfacet 
facet normal  0.000000 0.000000 -1.000000 
outer loop 
vertex  0.454545 -3.181818 0.000000 
vertex  0.909091 -3.636364 0.000000 
vertex  0.454545 -3.636364 0.000000 
endloop 
endfacet 
facet normal  0.000000 0.000000 -1.000000 
outer loop 
vertex  0.454545 3.636364 0.000000 
vertex  0.909091 3.636364 0.000000 
vertex  0.454545 3.181818 0.000000 
endloop 
endfacet 
facet normal  0.000000 0.000000 -1.000000 
outer loop 
vertex  -0.454545 -3.181818 0.000000 
vertex  -0.454545 -2.727273 0.000000 
vertex  0.000000 -3.181818 0.000000 
endloop 
endfacet 
facet normal  0.000000 0.000000 -1.000000 
outer loop 
vertex  0.000000 3.181818 0.000000 
vertex  -0.454545 2.727273 0.000000 
vertex  -0.454545 3.181818 0.000000 
endloop 
endfacet 
facet normal  0.000000 0.000000 -1.000000 
outer loop 
vertex  -0.454545 -2.727273 0.000000 
vertex  0.000000 -2.727273 0.000000 
vertex  0.000000 -3.181818 0.000000 
endloop 
endfacet 
facet normal  0.000000 0.000000 -1.000000 
outer loop 
vertex  0.000000 3.181818 0.000000 
vertex  0.000000 2.727273 0.000000 
vertex  -0.454545 2.727273 0.000000 
endloop 
endfacet 
facet normal  0.000000 0.000000 -1.000000 
outer loop 
vertex  0.454545 -2.272727 0.000000 
vertex  0.909091 -2.727273 0.000000 
vertex  0.454545 -2.727273 0.000000 
endloop 
endfacet 
facet normal  0.000000 0.000000 -1.000000 
outer loop 
vertex  0.454545 2.727273 0.000000 
vertex  0.909091 2.727273 0.000000 
vertex  0.454545 2.272727 0.000000 
endloop 
endfacet 
facet normal  0.000000 0.000000 -1.000000 
outer loop 
vertex  -0.909091 -2.727273 0.000000 
vertex  -0.454545 -3.181818 0.000000 
vertex  -0.909091 -3.181818 0.000000 
endloop 
endfacet 
facet normal  0.000000 0.000000 -1.000000 
outer loop 
vertex  -0.909091 3.181818 0.000000 
vertex  -0.454545 3.181818 0.000000 
vertex  -0.909091 2.727273 0.000000 
endloop 
endfacet 
facet normal  0.000000 0.000000 -1.000000 
outer loop 
vertex  0.454545 -3.636364 0.000000 
vertex  0.454545 -4.090909 0.000000 
vertex  0.000000 -3.636364 0.000000 
endloop 
endfacet 
facet normal  0.000000 0.000000 -1.000000 
outer loop 
vertex  0.000000 3.636364 0.000000 
vertex  0.454545 4.090909 0.000000 
vertex  0.454545 3.636364 0.000000 
endloop 
endfacet 
facet normal  0.000000 0.000000 -1.000000 
outer loop 
vertex  0.454545 -2.727273 0.000000 
vertex  0.909091 -2.727273 0.000000 
vertex  0.909091 -3.181818 0.000000 
endloop 
endfacet 
facet normal  0.000000 0.000000 -1.000000 
outer loop 
vertex  0.909091 3.181818 0.000000 
vertex  0.909091 2.727273 0.000000 
vertex  0.454545 2.727273 0.000000 
endloop 
endfacet 
facet normal  0.000000 0.000000 -1.000000 
outer loop 
vertex  1.363636 -4.090909 0.000000 
vertex  1.363636 -3.636364 0.000000 
vertex  1.818182 -4.090909 0.000000 
endloop 
endfacet 
facet normal  0.000000 0.000000 -1.000000 
outer loop 
vertex  1.818182 4.090909 0.000000 
vertex  1.363636 3.636364 0.000000 
vertex  1.363636 4.090909 0.000000 
endloop 
endfacet 
facet normal  0.000000 0.000000 -1.000000 
outer loop 
vertex  1.363636 -3.636364 0.000000 
vertex  0.909091 -3.181818 0.000000 
vertex  1.363636 -3.181818 0.000000 
endloop 
endfacet 
facet normal  0.000000 0.000000 -1.000000 
outer loop 
vertex  1.363636 3.181818 0.000000 
vertex  0.909091 3.181818 0.000000 
vertex  1.363636 3.636364 0.000000 
endloop 
endfacet 
facet normal  0.000000 0.000000 -1.000000 
outer loop 
vertex  1.363636 -3.181818 0.000000 
vertex  1.818182 -3.181818 0.000000 
vertex  1.818182 -3.636364 0.000000 
endloop 
endfacet 
facet normal  0.000000 0.000000 -1.000000 
outer loop 
vertex  1.818182 3.636364 0.000000 
vertex  1.818182 3.181818 0.000000 
vertex  1.363636 3.181818 0.000000 
endloop 
endfacet 
facet normal  0.000000 0.000000 -1.000000 
outer loop 
vertex  1.363636 -2.272727 0.000000 
vertex  1.818182 -2.272727 0.000000 
vertex  1.818182 -2.727273 0.000000 
endloop 
endfacet 
facet normal  0.000000 0.000000 -1.000000 
outer loop 
vertex  1.818182 2.727273 0.000000 
vertex  1.818182 2.272727 0.000000 
vertex  1.363636 2.272727 0.000000 
endloop 
endfacet 
facet normal  0.000000 0.000000 -1.000000 
outer loop 
vertex  -1.818182 -2.272727 0.000000 
vertex  -2.272727 -2.272727 0.000000 
vertex  -2.272727 -1.818182 0.000000 
endloop 
endfacet 
facet normal  0.000000 0.000000 -1.000000 
outer loop 
vertex  -2.272727 1.818182 0.000000 
vertex  -2.272727 2.272727 0.000000 
vertex  -1.818182 2.272727 0.000000 
endloop 
endfacet 
facet normal  0.000000 0.000000 -1.000000 
outer loop 
vertex  -2.272727 -2.727273 0.000000 
vertex  -2.272727 -3.181818 0.000000 
vertex  -2.727273 -2.727273 0.000000 
endloop 
endfacet 
facet normal  0.000000 0.000000 -1.000000 
outer loop 
vertex  -2.727273 2.727273 0.000000 
vertex  -2.272727 3.181818 0.000000 
vertex  -2.272727 2.727273 0.000000 
endloop 
endfacet 
facet normal  0.000000 0.000000 -1.000000 
outer loop 
vertex  -2.272727 -2.727273 0.000000 
vertex  -2.727273 -2.727273 0.000000 
vertex  -2.727273 -2.272727 0.000000 
endloop 
endfacet 
facet normal  0.000000 0.000000 -1.000000 
outer loop 
vertex  -2.727273 2.272727 0.000000 
vertex  -2.727273 2.727273 0.000000 
vertex  -2.272727 2.727273 0.000000 
endloop 
endfacet 
facet normal  0.000000 0.000000 -1.000000 
outer loop 
vertex  -3.636364 -1.818182 0.000000 
vertex  -3.181818 -2.272727 0.000000 
vertex  -3.636364 -2.272727 0.000000 
endloop 
endfacet 
facet normal  0.000000 0.000000 -1.000000 
outer loop 
vertex  -3.636364 2.272727 0.000000 
vertex  -3.181818 2.272727 0.000000 
vertex  -3.636364 1.818182 0.000000 
endloop 
endfacet 
facet normal  0.000000 0.000000 -1.000000 
outer loop 
vertex  -3.181818 -2.272727 0.000000 
vertex  -2.727273 -2.272727 0.000000 
vertex  -2.727273 -2.727273 0.000000 
endloop 
endfacet 
facet normal  0.000000 0.000000 -1.000000 
outer loop 
vertex  -2.727273 2.727273 0.000000 
vertex  -2.727273 2.272727 0.000000 
vertex  -3.181818 2.272727 0.000000 
endloop 
endfacet 
facet normal  0.000000 0.000000 -1.000000 
outer loop 
vertex  -2.727273 -2.727273 0.000000 
vertex  -3.181818 -2.727273 0.000000 
vertex  -3.181818 -2.272727 0.000000 
endloop 
endfacet 
facet normal  0.000000 0.000000 -1.000000 
outer loop 
vertex  -3.181818 2.272727 0.000000 
vertex  -3.181818 2.727273 0.000000 
vertex  -2.727273 2.727273 0.000000 
endloop 
endfacet 
facet normal  0.000000 0.000000 -1.000000 
outer loop 
vertex  -2.272727 -1.818182 0.000000 
vertex  -2.727273 -1.363636 0.000000 
vertex  -2.272727 -1.363636 0.000000 
endloop 
endfacet 
facet normal  0.000000 0.000000 -1.000000 
outer loop 
vertex  -2.272727 1.363636 0.000000 
vertex  -2.727273 1.363636 0.000000 
vertex  -2.272727 1.818182 0.000000 
endloop 
endfacet 
facet normal  0.000000 0.000000 -1.000000 
outer loop 
vertex  -2.727273 -2.272727 0.000000 
vertex  -3.181818 -2.272727 0.000000 
vertex  -3.181818 -1.818182 0.000000 
endloop 
endfacet 
facet normal  0.000000 0.000000 -1.000000 
outer loop 
vertex  -3.181818 1.818182 0.000000 
vertex  -3.181818 2.272727 0.000000 
vertex  -2.727273 2.272727 0.000000 
endloop 
endfacet 
facet normal  0.000000 0.000000 -1.000000 
outer loop 
vertex  -1.818182 -2.727273 0.000000 
vertex  -2.272727 -2.272727 0.000000 
vertex  -1.818182 -2.272727 0.000000 
endloop 
endfacet 
facet normal  0.000000 0.000000 -1.000000 
outer loop 
vertex  -1.818182 2.272727 0.000000 
vertex  -2.272727 2.272727 0.000000 
vertex  -1.818182 2.727273 0.000000 
endloop 
endfacet 
facet normal  0.000000 0.000000 -1.000000 
outer loop 
vertex  -2.272727 -2.272727 0.000000 
vertex  -2.727273 -2.272727 0.000000 
vertex  -2.727273 -1.818182 0.000000 
endloop 
endfacet 
facet normal  0.000000 0.000000 -1.000000 
outer loop 
vertex  -2.727273 1.818182 0.000000 
vertex  -2.727273 2.272727 0.000000 
vertex  -2.272727 2.272727 0.000000 
endloop 
endfacet 
facet normal  0.000000 0.000000 -1.000000 
outer loop 
vertex  -2.272727 -2.272727 0.000000 
vertex  -1.818182 -2.727273 0.000000 
vertex  -2.272727 -2.727273 0.000000 
endloop 
endfacet 
facet normal  0.000000 0.000000 -1.000000 
outer loop 
vertex  -2.272727 2.727273 0.000000 
vertex  -1.818182 2.727273 0.000000 
vertex  -2.272727 2.272727 0.000000 
endloop 
endfacet 
facet normal  0.000000 0.000000 -1.000000 
outer loop 
vertex  -3.181818 -2.727273 0.000000 
vertex  -2.727273 -2.727273 0.000000 
vertex  -2.727273 -3.181818 0.000000 
endloop 
endfacet 
facet normal  0.000000 0.000000 -1.000000 
outer loop 
vertex  -2.727273 3.181818 0.000000 
vertex  -2.727273 2.727273 0.000000 
vertex  -3.181818 2.727273 0.000000 
endloop 
endfacet 
facet normal  0.000000 0.000000 -1.000000 
outer loop 
vertex  -2.727273 -2.727273 0.000000 
vertex  -2.272727 -3.181818 0.000000 
vertex  -2.727273 -3.181818 0.000000 
endloop 
endfacet 
facet normal  0.000000 0.000000 -1.000000 
outer loop 
vertex  -2.727273 3.181818 0.000000 
vertex  -2.272727 3.181818 0.000000 
vertex  -2.727273 2.727273 0.000000 
endloop 
endfacet 
facet normal  0.000000 0.000000 -1.000000 
outer loop 
vertex  -2.727273 -3.181818 0.000000 
vertex  -2.272727 -3.181818 0.000000 
vertex  -2.272727 -3.636364 0.000000 
endloop 
endfacet 
facet normal  0.000000 0.000000 -1.000000 
outer loop 
vertex  -2.272727 3.636364 0.000000 
vertex  -2.272727 3.181818 0.000000 
vertex  -2.727273 3.181818 0.000000 
endloop 
endfacet 
facet normal  0.000000 0.000000 -1.000000 
outer loop 
vertex  -2.272727 -3.181818 0.000000 
vertex  -1.818182 -3.636364 0.000000 
vertex  -2.272727 -3.636364 0.000000 
endloop 
endfacet 
facet normal  0.000000 0.000000 -1.000000 
outer loop 
vertex  -2.272727 3.636364 0.000000 
vertex  -1.818182 3.636364 0.000000 
vertex  -2.272727 3.181818 0.000000 
endloop 
endfacet 
facet normal  0.000000 0.000000 -1.000000 
outer loop 
vertex  -1.818182 -3.181818 0.000000 
vertex  -1.363636 -3.181818 0.000000 
vertex  -1.363636 -3.636364 0.000000 
endloop 
endfacet 
facet normal  0.000000 0.000000 -1.000000 
outer loop 
vertex  -1.363636 3.636364 0.000000 
vertex  -1.363636 3.181818 0.000000 
vertex  -1.818182 3.181818 0.000000 
endloop 
endfacet 
facet normal  0.000000 0.000000 -1.000000 
outer loop 
vertex  -0.454545 -3.636364 0.000000 
vertex  -0.454545 -4.090909 0.000000 
vertex  -0.909091 -3.636364 0.000000 
endloop 
endfacet 
facet normal  0.000000 0.000000 -1.000000 
outer loop 
vertex  -0.909091 3.636364 0.000000 
vertex  -0.454545 4.090909 0.000000 
vertex  -0.454545 3.636364 0.000000 
endloop 
endfacet 
facet normal  0.000000 0.000000 -1.000000 
outer loop 
vertex  -1.818182 -3.636364 0.000000 
vertex  -1.363636 -3.636364 0.000000 
vertex  -1.363636 -4.090909 0.000000 
endloop 
endfacet 
facet normal  0.000000 0.000000 -1.000000 
outer loop 
vertex  -1.363636 4.090909 0.000000 
vertex  -1.363636 3.636364 0.000000 
vertex  -1.818182 3.636364 0.000000 
endloop 
endfacet 
facet normal  0.000000 0.000000 -1.000000 
outer loop 
vertex  0.000000 -4.090909 0.000000 
vertex  -0.454545 -4.090909 0.000000 
vertex  -0.454545 -3.636364 0.000000 
endloop 
endfacet 
facet normal  0.000000 0.000000 -1.000000 
outer loop 
vertex  -0.454545 3.636364 0.000000 
vertex  -0.454545 4.090909 0.000000 
vertex  0.000000 4.090909 0.000000 
endloop 
endfacet 
facet normal  0.000000 0.000000 -1.000000 
outer loop 
vertex  -1.363636 -3.636364 0.000000 
vertex  -0.909091 -4.090909 0.000000 
vertex  -1.363636 -4.090909 0.000000 
endloop 
endfacet 
facet normal  0.000000 0.000000 -1.000000 
outer loop 
vertex  -1.363636 4.090909 0.000000 
vertex  -0.909091 4.090909 0.000000 
vertex  -1.363636 3.636364 0.000000 
endloop 
endfacet 
facet normal  0.000000 0.000000 -1.000000 
outer loop 
vertex  -1.363636 -3.636364 0.000000 
vertex  -0.909091 -3.636364 0.000000 
vertex  -0.909091 -4.090909 0.000000 
endloop 
endfacet 
facet normal  0.000000 0.000000 -1.000000 
outer loop 
vertex  -0.909091 4.090909 0.000000 
vertex  -0.909091 3.636364 0.000000 
vertex  -1.363636 3.636364 0.000000 
endloop 
endfacet 
facet normal  0.000000 0.000000 -1.000000 
outer loop 
vertex  0.000000 -3.636364 0.000000 
vertex  0.000000 -4.090909 0.000000 
vertex  -0.454545 -3.636364 0.000000 
endloop 
endfacet 
facet normal  0.000000 0.000000 -1.000000 
outer loop 
vertex  -0.454545 3.636364 0.000000 
vertex  0.000000 4.090909 0.000000 
vertex  0.000000 3.636364 0.000000 
endloop 
endfacet 
facet normal  0.000000 0.000000 -1.000000 
outer loop 
vertex  -0.909091 -3.636364 0.000000 
vertex  -0.454545 -4.090909 0.000000 
vertex  -0.909091 -4.090909 0.000000 
endloop 
endfacet 
facet normal  0.000000 0.000000 -1.000000 
outer loop 
vertex  -0.909091 4.090909 0.000000 
vertex  -0.454545 4.090909 0.000000 
vertex  -0.909091 3.636364 0.000000 
endloop 
endfacet 
facet normal  0.000000 0.000000 -1.000000 
outer loop 
vertex  -1.818182 -2.727273 0.000000 
vertex  -1.363636 -2.727273 0.000000 
vertex  -1.363636 -3.181818 0.000000 
endloop 
endfacet 
facet normal  0.000000 0.000000 -1.000000 
outer loop 
vertex  -1.363636 3.181818 0.000000 
vertex  -1.363636 2.727273 0.000000 
vertex  -1.818182 2.727273 0.000000 
endloop 
endfacet 
facet normal  0.000000 0.000000 -1.000000 
outer loop 
vertex  -1.363636 -2.727273 0.000000 
vertex  -0.909091 -3.181818 0.000000 
vertex  -1.363636 -3.181818 0.000000 
endloop 
endfacet 
facet normal  0.000000 0.000000 -1.000000 
outer loop 
vertex  -1.363636 3.181818 0.000000 
vertex  -0.909091 3.181818 0.000000 
vertex  -1.363636 2.727273 0.000000 
endloop 
endfacet 
facet normal  0.000000 0.000000 -1.000000 
outer loop 
vertex  -1.363636 -3.181818 0.000000 
vertex  -0.909091 -3.181818 0.000000 
vertex  -0.909091 -3.636364 0.000000 
endloop 
endfacet 
facet normal  0.000000 0.000000 -1.000000 
outer loop 
vertex  -0.909091 3.636364 0.000000 
vertex  -0.909091 3.181818 0.000000 
vertex  -1.363636 3.181818 0.000000 
endloop 
endfacet 
facet normal  0.000000 0.000000 -1.000000 
outer loop 
vertex  -0.909091 -3.181818 0.000000 
vertex  -0.454545 -3.636364 0.000000 
vertex  -0.909091 -3.636364 0.000000 
endloop 
endfacet 
facet normal  0.000000 0.000000 -1.000000 
outer loop 
vertex  -0.909091 3.636364 0.000000 
vertex  -0.454545 3.636364 0.000000 
vertex  -0.909091 3.181818 0.000000 
endloop 
endfacet 
facet normal  0.000000 0.000000 -1.000000 
outer loop 
vertex  -1.363636 -2.272727 0.000000 
vertex  -0.909091 -2.272727 0.000000 
vertex  -0.909091 -2.727273 0.000000 
endloop 
endfacet 
facet normal  0.000000 0.000000 -1.000000 
outer loop 
vertex  -0.909091 2.727273 0.000000 
vertex  -0.909091 2.272727 0.000000 
vertex  -1.363636 2.272727 0.000000 
endloop 
endfacet 
facet normal  0.000000 0.000000 -1.000000 
outer loop 
vertex  -0.909091 -2.272727 0.000000 
vertex  -0.454545 -2.727273 0.000000 
vertex  -0.909091 -2.727273 0.000000 
endloop 
endfacet 
facet normal  0.000000 0.000000 -1.000000 
outer loop 
vertex  -0.909091 2.727273 0.000000 
vertex  -0.454545 2.727273 0.000000 
vertex  -0.909091 2.272727 0.000000 
endloop 
endfacet 
facet normal  0.000000 0.000000 -1.000000 
outer loop 
vertex  -2.272727 -2.272727 0.000000 
vertex  -2.272727 -2.727273 0.000000 
vertex  -2.727273 -2.272727 0.000000 
endloop 
endfacet 
facet normal  0.000000 0.000000 -1.000000 
outer loop 
vertex  -2.727273 2.272727 0.000000 
vertex  -2.272727 2.727273 0.000000 
vertex  -2.272727 2.272727 0.000000 
endloop 
endfacet 
facet normal  0.000000 0.000000 -1.000000 
outer loop 
vertex  -2.272727 -2.727273 0.000000 
vertex  -1.818182 -3.181818 0.000000 
vertex  -2.272727 -3.181818 0.000000 
endloop 
endfacet 
facet normal  0.000000 0.000000 -1.000000 
outer loop 
vertex  -2.272727 3.181818 0.000000 
vertex  -1.818182 3.181818 0.000000 
vertex  -2.272727 2.727273 0.000000 
endloop 
endfacet 
facet normal  0.000000 0.000000 -1.000000 
outer loop 
vertex  -2.272727 -3.181818 0.000000 
vertex  -1.818182 -3.181818 0.000000 
vertex  -1.818182 -3.636364 0.000000 
endloop 
endfacet 
facet normal  0.000000 0.000000 -1.000000 
outer loop 
vertex  -1.818182 3.636364 0.000000 
vertex  -1.818182 3.181818 0.000000 
vertex  -2.272727 3.181818 0.000000 
endloop 
endfacet 
facet normal  0.000000 0.000000 -1.000000 
outer loop 
vertex  -1.818182 -3.181818 0.000000 
vertex  -1.363636 -3.636364 0.000000 
vertex  -1.818182 -3.636364 0.000000 
endloop 
endfacet 
facet normal  0.000000 0.000000 -1.000000 
outer loop 
vertex  -1.818182 3.636364 0.000000 
vertex  -1.363636 3.636364 0.000000 
vertex  -1.818182 3.181818 0.000000 
endloop 
endfacet 
facet normal  0.000000 0.000000 -1.000000 
outer loop 
vertex  -1.818182 -2.727273 0.000000 
vertex  -1.818182 -2.272727 0.000000 
vertex  -1.363636 -2.727273 0.000000 
endloop 
endfacet 
facet normal  0.000000 0.000000 -1.000000 
outer loop 
vertex  -1.363636 2.727273 0.000000 
vertex  -1.818182 2.272727 0.000000 
vertex  -1.818182 2.727273 0.000000 
endloop 
endfacet 
facet normal  0.000000 0.000000 -1.000000 
outer loop 
vertex  -1.818182 -1.363636 0.000000 
vertex  -1.363636 -1.363636 0.000000 
vertex  -1.363636 -1.818182 0.000000 
endloop 
endfacet 
facet normal  0.000000 0.000000 -1.000000 
outer loop 
vertex  -1.363636 1.818182 0.000000 
vertex  -1.363636 1.363636 0.000000 
vertex  -1.818182 1.363636 0.000000 
endloop 
endfacet 
facet normal  0.000000 0.000000 -1.000000 
outer loop 
vertex  -2.272727 -1.818182 0.000000 
vertex  -1.818182 -1.818182 0.000000 
vertex  -1.818182 -2.272727 0.000000 
endloop 
endfacet 
facet normal  0.000000 0.000000 -1.000000 
outer loop 
vertex  -1.818182 2.272727 0.000000 
vertex  -1.818182 1.818182 0.000000 
vertex  -2.272727 1.818182 0.000000 
endloop 
endfacet 
facet normal  0.000000 0.000000 -1.000000 
outer loop 
vertex  -1.818182 -1.818182 0.000000 
vertex  -1.363636 -2.272727 0.000000 
vertex  -1.818182 -2.272727 0.000000 
endloop 
endfacet 
facet normal  0.000000 0.000000 -1.000000 
outer loop 
vertex  -1.818182 2.272727 0.000000 
vertex  -1.363636 2.272727 0.000000 
vertex  -1.818182 1.818182 0.000000 
endloop 
endfacet 
facet normal  0.000000 0.000000 -1.000000 
outer loop 
vertex  -1.818182 -1.363636 0.000000 
vertex  -2.272727 -0.909091 0.000000 
vertex  -1.818182 -0.909091 0.000000 
endloop 
endfacet 
facet normal  0.000000 0.000000 -1.000000 
outer loop 
vertex  -1.818182 0.909091 0.000000 
vertex  -2.272727 0.909091 0.000000 
vertex  -1.818182 1.363636 0.000000 
endloop 
endfacet 
facet normal  0.000000 0.000000 -1.000000 
outer loop 
vertex  -1.818182 -1.363636 0.000000 
vertex  -1.818182 -0.909091 0.000000 
vertex  -1.363636 -1.363636 0.000000 
endloop 
endfacet 
facet normal  0.000000 0.000000 -1.000000 
outer loop 
vertex  -1.363636 1.363636 0.000000 
vertex  -1.818182 0.909091 0.000000 
vertex  -1.818182 1.363636 0.000000 
endloop 
endfacet 
facet normal  0.000000 0.000000 -1.000000 
outer loop 
vertex  -1.818182 -0.909091 0.000000 
vertex  -2.272727 -0.454545 0.000000 
vertex  -1.818182 -0.454545 0.000000 
endloop 
endfacet 
facet normal  0.000000 0.000000 -1.000000 
outer loop 
vertex  -1.818182 0.454545 0.000000 
vertex  -2.272727 0.454545 0.000000 
vertex  -1.818182 0.909091 0.000000 
endloop 
endfacet 
facet normal  0.000000 0.000000 -1.000000 
outer loop 
vertex  -1.818182 -1.818182 0.000000 
vertex  -1.363636 -1.818182 0.000000 
vertex  -1.363636 -2.272727 0.000000 
endloop 
endfacet 
facet normal  0.000000 0.000000 -1.000000 
outer loop 
vertex  -1.363636 2.272727 0.000000 
vertex  -1.363636 1.818182 0.000000 
vertex  -1.818182 1.818182 0.000000 
endloop 
endfacet 
facet normal  0.000000 0.000000 -1.000000 
outer loop 
vertex  -1.363636 -1.818182 0.000000 
vertex  -0.909091 -2.272727 0.000000 
vertex  -1.363636 -2.272727 0.000000 
endloop 
endfacet 
facet normal  0.000000 0.000000 -1.000000 
outer loop 
vertex  -1.363636 2.272727 0.000000 
vertex  -0.909091 2.272727 0.000000 
vertex  -1.363636 1.818182 0.000000 
endloop 
endfacet 
facet normal  0.000000 0.000000 -1.000000 
outer loop 
vertex  -1.363636 -1.363636 0.000000 
vertex  -0.909091 -1.363636 0.000000 
vertex  -0.909091 -1.818182 0.000000 
endloop 
endfacet 
facet normal  0.000000 0.000000 -1.000000 
outer loop 
vertex  -0.909091 1.818182 0.000000 
vertex  -0.909091 1.363636 0.000000 
vertex  -1.363636 1.363636 0.000000 
endloop 
endfacet 
facet normal  0.000000 0.000000 -1.000000 
outer loop 
vertex  -0.909091 -1.363636 0.000000 
vertex  -0.454545 -1.818182 0.000000 
vertex  -0.909091 -1.818182 0.000000 
endloop 
endfacet 
facet normal  0.000000 0.000000 -1.000000 
outer loop 
vertex  -0.909091 1.818182 0.000000 
vertex  -0.454545 1.818182 0.000000 
vertex  -0.909091 1.363636 0.000000 
endloop 
endfacet 
facet normal  0.000000 0.000000 -1.000000 
outer loop 
vertex  0.909091 -1.818182 0.000000 
vertex  0.454545 -1.818182 0.000000 
vertex  0.454545 -1.363636 0.000000 
endloop 
endfacet 
facet normal  0.000000 0.000000 -1.000000 
outer loop 
vertex  0.454545 1.363636 0.000000 
vertex  0.454545 1.818182 0.000000 
vertex  0.909091 1.818182 0.000000 
endloop 
endfacet 
facet normal  0.000000 0.000000 -1.000000 
outer loop 
vertex  -0.909091 -1.818182 0.000000 
vertex  -0.454545 -1.818182 0.000000 
vertex  -0.454545 -2.272727 0.000000 
endloop 
endfacet 
facet normal  0.000000 0.000000 -1.000000 
outer loop 
vertex  -0.454545 2.272727 0.000000 
vertex  -0.454545 1.818182 0.000000 
vertex  -0.909091 1.818182 0.000000 
endloop 
endfacet 
facet normal  0.000000 0.000000 -1.000000 
outer loop 
vertex  0.000000 -0.454545 0.000000 
vertex  0.454545 -0.909091 0.000000 
vertex  0.000000 -0.909091 0.000000 
endloop 
endfacet 
facet normal  0.000000 0.000000 -1.000000 
outer loop 
vertex  0.000000 0.909091 0.000000 
vertex  0.454545 0.909091 0.000000 
vertex  0.000000 0.454545 0.000000 
endloop 
endfacet 
facet normal  0.000000 0.000000 -1.000000 
outer loop 
vertex  -0.909091 -0.454545 0.000000 
vertex  -1.363636 -0.454545 0.000000 
vertex  -1.363636 0.000000 0.000000 
endloop 
endfacet 
facet normal  0.000000 0.000000 -1.000000 
outer loop 
vertex  -1.363636 -0.000000 0.000000 
vertex  -1.363636 0.454545 0.000000 
vertex  -0.909091 0.454545 0.000000 
endloop 
endfacet 
facet normal  0.000000 0.000000 -1.000000 
outer loop 
vertex  -0.909091 -0.909091 0.000000 
vertex  -0.909091 -0.454545 0.000000 
vertex  -0.454545 -0.909091 0.000000 
endloop 
endfacet 
facet normal  0.000000 0.000000 -1.000000 
outer loop 
vertex  -0.454545 0.909091 0.000000 
vertex  -0.909091 0.454545 0.000000 
vertex  -0.909091 0.909091 0.000000 
endloop 
endfacet 
facet normal  0.000000 0.000000 -1.000000 
outer loop 
vertex  -1.363636 -0.909091 0.000000 
vertex  -1.818182 -0.454545 0.000000 
vertex  -1.363636 -0.454545 0.000000 
endloop 
endfacet 
facet normal  0.000000 0.000000 -1.000000 
outer loop 
vertex  -1.363636 0.454545 0.000000 
vertex  -1.818182 0.454545 0.000000 
vertex  -1.363636 0.909091 0.000000 
endloop 
endfacet 
facet normal  0.000000 0.000000 -1.000000 
outer loop 
vertex  -0.909091 0.000000 0.000000 
vertex  -0.909091 -0.454545 0.000000 
vertex  -1.363636 0.000000 0.000000 
endloop 
endfacet 
facet normal  0.000000 0.000000 -1.000000 
outer loop 
vertex  -1.363636 -0.000000 0.000000 
vertex  -0.909091 0.454545 0.000000 
vertex  -0.909091 -0.000000 0.000000 
endloop 
endfacet 
facet normal  0.000000 0.000000 -1.000000 
outer loop 
vertex  -2.272727 -0.909091 0.000000 
vertex  -2.272727 -0.454545 0.000000 
vertex  -1.818182 -0.909091 0.000000 
endloop 
endfacet 
facet normal  0.000000 0.000000 -1.000000 
outer loop 
vertex  -1.818182 0.909091 0.000000 
vertex  -2.272727 0.454545 0.000000 
vertex  -2.272727 0.909091 0.000000 
endloop 
endfacet 
facet normal  0.000000 0.000000 -1.000000 
outer loop 
vertex  -2.272727 -0.454545 0.000000 
vertex  -2.272727 0.000000 0.000000 
vertex  -1.818182 -0.454545 0.000000 
endloop 
endfacet 
facet normal  0.000000 0.000000 -1.000000 
outer loop 
vertex  -1.818182 0.454545 0.000000 
vertex  -2.272727 -0.000000 0.000000 
vertex  -2.272727 0.454545 0.000000 
endloop 
endfacet 
facet normal  0.000000 0.000000 -1.000000 
outer loop 
vertex  -1.818182 -0.909091 0.000000 
vertex  -1.363636 -0.909091 0.000000 
vertex  -1.363636 -1.363636 0.000000 
endloop 
endfacet 
facet normal  0.000000 0.000000 -1.000000 
outer loop 
vertex  -1.363636 1.363636 0.000000 
vertex  -1.363636 0.909091 0.000000 
vertex  -1.818182 0.909091 0.000000 
endloop 
endfacet 
facet normal  0.000000 0.000000 -1.000000 
outer loop 
vertex  -1.363636 -0.909091 0.000000 
vertex  -0.909091 -1.363636 0.000000 
vertex  -1.363636 -1.363636 0.000000 
endloop 
endfacet 
facet normal  0.000000 0.000000 -1.000000 
outer loop 
vertex  -1.363636 1.363636 0.000000 
vertex  -0.909091 1.363636 0.000000 
vertex  -1.363636 0.909091 0.000000 
endloop 
endfacet 
facet normal  0.000000 0.000000 -1.000000 
outer loop 
vertex  -1.363636 -0.909091 0.000000 
vertex  -1.363636 -0.454545 0.000000 
vertex  -0.909091 -0.909091 0.000000 
endloop 
endfacet 
facet normal  0.000000 0.000000 -1.000000 
outer loop 
vertex  -0.909091 0.909091 0.000000 
vertex  -1.363636 0.454545 0.000000 
vertex  -1.363636 0.909091 0.000000 
endloop 
endfacet 
facet normal  0.000000 0.000000 -1.000000 
outer loop 
vertex  -1.363636 -0.454545 0.000000 
vertex  -1.818182 0.000000 0.000000 
vertex  -1.363636 0.000000 0.000000 
endloop 
endfacet 
facet normal  0.000000 0.000000 -1.000000 
outer loop 
vertex  -1.363636 -0.000000 0.000000 
vertex  -1.818182 -0.000000 0.000000 
vertex  -1.363636 0.454545 0.000000 
endloop 
endfacet 
facet normal  0.000000 0.000000 -1.000000 
outer loop 
vertex  -2.272727 -0.909091 0.000000 
vertex  -2.727273 -0.454545 0.000000 
vertex  -2.272727 -0.454545 0.000000 
endloop 
endfacet 
facet normal  0.000000 0.000000 -1.000000 
outer loop 
vertex  -2.272727 0.454545 0.000000 
vertex  -2.727273 0.454545 0.000000 
vertex  -2.272727 0.909091 0.000000 
endloop 
endfacet 
facet normal  0.000000 0.000000 -1.000000 
outer loop 
vertex  -2.727273 -1.363636 0.000000 
vertex  -3.181818 -1.363636 0.000000 
vertex  -3.181818 -0.909091 0.000000 
endloop 
endfacet 
facet normal  0.000000 0.000000 -1.000000 
outer loop 
vertex  -3.181818 0.909091 0.000000 
vertex  -3.181818 1.363636 0.000000 
vertex  -2.727273 1.363636 0.000000 
endloop 
endfacet 
facet normal  0.000000 0.000000 -1.000000 
outer loop 
vertex  -2.727273 0.000000 0.000000 
vertex  -2.727273 -0.454545 0.000000 
vertex  -3.181818 0.000000 0.000000 
endloop 
endfacet 
facet normal  0.000000 0.000000 -1.000000 
outer loop 
vertex  -3.181818 -0.000000 0.000000 
vertex  -2.727273 0.454545 0.000000 
vertex  -2.727273 -0.000000 0.000000 
endloop 
endfacet 
facet normal  0.000000 0.000000 -1.000000 
outer loop 
vertex  -2.727273 -0.454545 0.000000 
vertex  -2.272727 -0.909091 0.000000 
vertex  -2.727273 -0.909091 0.000000 
endloop 
endfacet 
facet normal  0.000000 0.000000 -1.000000 
outer loop 
vertex  -2.727273 0.909091 0.000000 
vertex  -2.272727 0.909091 0.000000 
vertex  -2.727273 0.454545 0.000000 
endloop 
endfacet 
facet normal  0.000000 0.000000 -1.000000 
outer loop 
vertex  -1.818182 -1.363636 0.000000 
vertex  -2.272727 -1.363636 0.000000 
vertex  -2.272727 -0.909091 0.000000 
endloop 
endfacet 
facet normal  0.000000 0.000000 -1.000000 
outer loop 
vertex  -2.272727 0.909091 0.000000 
vertex  -2.272727 1.363636 0.000000 
vertex  -1.818182 1.363636 0.000000 
endloop 
endfacet 
facet normal  0.000000 0.000000 -1.000000 
outer loop 
vertex  -2.272727 -1.363636 0.000000 
vertex  -2.727273 -0.909091 0.000000 
vertex  -2.272727 -0.909091 0.000000 
endloop 
endfacet 
facet normal  0.000000 0.000000 -1.000000 
outer loop 
vertex  -2.272727 0.909091 0.000000 
vertex  -2.727273 0.909091 0.000000 
vertex  -2.272727 1.363636 0.000000 
endloop 
endfacet 
facet normal  0.000000 0.000000 -1.000000 
outer loop 
vertex  -2.727273 -1.818182 0.000000 
vertex  -3.181818 -1.818182 0.000000 
vertex  -3.181818 -1.363636 0.000000 
endloop 
endfacet 
facet normal  0.000000 0.000000 -1.000000 
outer loop 
vertex  -3.181818 1.363636 0.000000 
vertex  -3.181818 1.818182 0.000000 
vertex  -2.727273 1.818182 0.000000 
endloop 
endfacet 
facet normal  0.000000 0.000000 -1.000000 
outer loop 
vertex  -3.181818 -1.818182 0.000000 
vertex  -3.636364 -1.363636 0.000000 
vertex  -3.181818 -1.363636 0.000000 
endloop 
endfacet 
facet normal  0.000000 0.000000 -1.000000 
outer loop 
vertex  -3.181818 1.363636 0.000000 
vertex  -3.636364 1.363636 0.000000 
vertex  -3.181818 1.818182 0.000000 
endloop 
endfacet 
facet normal  0.000000 0.000000 -1.000000 
outer loop 
vertex  -2.727273 -1.818182 0.000000 
vertex  -2.727273 -1.363636 0.000000 
vertex  -2.272727 -1.818182 0.000000 
endloop 
endfacet 
facet normal  0.000000 0.000000 -1.000000 
outer loop 
vertex  -2.272727 1.818182 0.000000 
vertex  -2.727273 1.363636 0.000000 
vertex  -2.727273 1.818182 0.000000 
endloop 
endfacet 
facet normal  0.000000 0.000000 -1.000000 
outer loop 
vertex  -2.727273 -1.363636 0.000000 
vertex  -2.727273 -0.909091 0.000000 
vertex  -2.272727 -1.363636 0.000000 
endloop 
endfacet 
facet normal  0.000000 0.000000 -1.000000 
outer loop 
vertex  -2.272727 1.363636 0.000000 
vertex  -2.727273 0.909091 0.000000 
vertex  -2.727273 1.363636 0.000000 
endloop 
endfacet 
facet normal  0.000000 0.000000 -1.000000 
outer loop 
vertex  -1.818182 -1.818182 0.000000 
vertex  -2.272727 -1.818182 0.000000 
vertex  -2.272727 -1.363636 0.000000 
endloop 
endfacet 
facet normal  0.000000 0.000000 -1.000000 
outer loop 
vertex  -2.272727 1.363636 0.000000 
vertex  -2.272727 1.818182 0.000000 
vertex  -1.818182 1.818182 0.000000 
endloop 
endfacet 
facet normal  0.000000 0.000000 -1.000000 
outer loop 
vertex  -2.272727 -1.818182 0.000000 
vertex  -2.272727 -2.272727 0.000000 
vertex  -2.727273 -1.818182 0.000000 
endloop 
endfacet 
facet normal  0.000000 0.000000 -1.000000 
outer loop 
vertex  -2.727273 1.818182 0.000000 
vertex  -2.272727 2.272727 0.000000 
vertex  -2.272727 1.818182 0.000000 
endloop 
endfacet 
facet normal  0.000000 0.000000 -1.000000 
outer loop 
vertex  -4.090909 -1.363636 0.000000 
vertex  -4.090909 -0.909091 0.000000 
vertex  -3.636364 -1.363636 0.000000 
endloop 
endfacet 
facet normal  0.000000 0.000000 -1.000000 
outer loop 
vertex  -3.636364 1.363636 0.000000 
vertex  -4.090909 0.909091 0.000000 
vertex  -4.090909 1.363636 0.000000 
endloop 
endfacet 
facet normal  0.000000 0.000000 -1.000000 
outer loop 
vertex  -4.090909 -1.363636 0.000000 
vertex  -3.636364 -1.363636 0.000000 
vertex  -3.636364 -1.818182 0.000000 
endloop 
endfacet 
facet normal  0.000000 0.000000 -1.000000 
outer loop 
vertex  -3.636364 1.818182 0.000000 
vertex  -3.636364 1.363636 0.000000 
vertex  -4.090909 1.363636 0.000000 
endloop 
endfacet 
facet normal  0.000000 0.000000 -1.000000 
outer loop 
vertex  -3.636364 -1.363636 0.000000 
vertex  -3.181818 -1.818182 0.000000 
vertex  -3.636364 -1.818182 0.000000 
endloop 
endfacet 
facet normal  0.000000 0.000000 -1.000000 
outer loop 
vertex  -3.636364 1.818182 0.000000 
vertex  -3.181818 1.818182 0.000000 
vertex  -3.636364 1.363636 0.000000 
endloop 
endfacet 
facet normal  0.000000 0.000000 -1.000000 
outer loop 
vertex  -4.090909 -0.909091 0.000000 
vertex  -4.090909 -0.454545 0.000000 
vertex  -3.636364 -0.909091 0.000000 
endloop 
endfacet 
facet normal  0.000000 0.000000 -1.000000 
outer loop 
vertex  -3.636364 0.909091 0.000000 
vertex  -4.090909 0.454545 0.000000 
vertex  -4.090909 0.909091 0.000000 
endloop 
endfacet 
facet normal  0.000000 0.000000 -1.000000 
outer loop 
vertex  -4.090909 0.000000 0.000000 
vertex  -3.636364 0.000000 0.000000 
vertex  -3.636364 -0.454545 0.000000 
endloop 
endfacet 
facet normal  0.000000 0.000000 -1.000000 
outer loop 
vertex  -3.636364 0.454545 0.000000 
vertex  -3.636364 -0.000000 0.000000 
vertex  -4.090909 -0.000000 0.000000 
endloop 
endfacet 
facet normal  0.000000 0.000000 -1.000000 
outer loop 
vertex  -3.636364 0.000000 0.000000 
vertex  -3.181818 -0.454545 0.000000 
vertex  -3.636364 -0.454545 0.000000 
endloop 
endfacet 
facet normal  0.000000 0.000000 -1.000000 
outer loop 
vertex  -3.636364 0.454545 0.000000 
vertex  -3.181818 0.454545 0.000000 
vertex  -3.636364 -0.000000 0.000000 
endloop 
endfacet 
facet normal  0.000000 0.000000 -1.000000 
outer loop 
vertex  -2.727273 -0.909091 0.000000 
vertex  -3.181818 -0.454545 0.000000 
vertex  -2.727273 -0.454545 0.000000 
endloop 
endfacet 
facet normal  0.000000 0.000000 -1.000000 
outer loop 
vertex  -2.727273 0.454545 0.000000 
vertex  -3.181818 0.454545 0.000000 
vertex  -2.727273 0.909091 0.000000 
endloop 
endfacet 
facet normal  0.000000 0.000000 -1.000000 
outer loop 
vertex  -3.181818 -0.909091 0.000000 
vertex  -3.181818 -1.363636 0.000000 
vertex  -3.636364 -0.909091 0.000000 
endloop 
endfacet 
facet normal  0.000000 0.000000 -1.000000 
outer loop 
vertex  -3.636364 0.909091 0.000000 
vertex  -3.181818 1.363636 0.000000 
vertex  -3.181818 0.909091 0.000000 
endloop 
endfacet 
facet normal  0.000000 0.000000 -1.000000 
outer loop 
vertex  -3.636364 -0.454545 0.000000 
vertex  -3.181818 -0.454545 0.000000 
vertex  -3.181818 -0.909091 0.000000 
endloop 
endfacet 
facet normal  0.000000 0.000000 -1.000000 
outer loop 
vertex  -3.181818 0.909091 0.000000 
vertex  -3.181818 0.454545 0.000000 
vertex  -3.636364 0.454545 0.000000 
endloop 
endfacet 
facet normal  0.000000 0.000000 -1.000000 
outer loop 
vertex  -3.181818 -0.454545 0.000000 
vertex  -2.727273 -0.909091 0.000000 
vertex  -3.181818 -0.909091 0.000000 
endloop 
endfacet 
facet normal  0.000000 0.000000 -1.000000 
outer loop 
vertex  -3.181818 0.909091 0.000000 
vertex  -2.727273 0.909091 0.000000 
vertex  -3.181818 0.454545 0.000000 
endloop 
endfacet 
facet normal  0.000000 0.000000 -1.000000 
outer loop 
vertex  -3.181818 0.000000 0.000000 
vertex  -3.181818 -0.454545 0.000000 
vertex  -3.636364 0.000000 0.000000 
endloop 
endfacet 
facet normal  0.000000 0.000000 -1.000000 
outer loop 
vertex  -3.636364 -0.000000 0.000000 
vertex  -3.181818 0.454545 0.000000 
vertex  -3.181818 -0.000000 0.000000 
endloop 
endfacet 
facet normal  0.000000 0.000000 -1.000000 
outer loop 
vertex  -2.727273 0.000000 0.000000 
vertex  -2.272727 -0.454545 0.000000 
vertex  -2.727273 -0.454545 0.000000 
endloop 
endfacet 
facet normal  0.000000 0.000000 -1.000000 
outer loop 
vertex  -2.727273 0.454545 0.000000 
vertex  -2.272727 0.454545 0.000000 
vertex  -2.727273 -0.000000 0.000000 
endloop 
endfacet 
facet normal  0.000000 0.000000 -1.000000 
outer loop 
vertex  -2.272727 0.000000 0.000000 
vertex  -1.818182 0.000000 0.000000 
vertex  -1.818182 -0.454545 0.000000 
endloop 
endfacet 
facet normal  0.000000 0.000000 -1.000000 
outer loop 
vertex  -1.818182 0.454545 0.000000 
vertex  -1.818182 -0.000000 0.000000 
vertex  -2.272727 -0.000000 0.000000 
endloop 
endfacet 
facet normal  0.000000 0.000000 -1.000000 
outer loop 
vertex  -1.818182 0.000000 0.000000 
vertex  -1.363636 -0.454545 0.000000 
vertex  -1.818182 -0.454545 0.000000 
endloop 
endfacet 
facet normal  0.000000 0.000000 -1.000000 
outer loop 
vertex  -1.818182 0.454545 0.000000 
vertex  -1.363636 0.454545 0.000000 
vertex  -1.818182 -0.000000 0.000000 
endloop 
endfacet 
facet normal  0.000000 0.000000 -1.000000 
outer loop 
vertex  -0.454545 -0.454545 0.000000 
vertex  -0.909091 -0.454545 0.000000 
vertex  -0.909091 0.000000 0.000000 
endloop 
endfacet 
facet normal  0.000000 0.000000 -1.000000 
outer loop 
vertex  -0.909091 -0.000000 0.000000 
vertex  -0.909091 0.454545 0.000000 
vertex  -0.454545 0.454545 0.000000 
endloop 
endfacet 
facet normal  0.000000 0.000000 -1.000000 
outer loop 
vertex  2.272727 -2.272727 0.000000 
vertex  1.818182 -1.818182 0.000000 
vertex  2.272727 -1.818182 0.000000 
endloop 
endfacet 
facet normal  0.000000 0.000000 -1.000000 
outer loop 
vertex  2.272727 1.818182 0.000000 
vertex  1.818182 1.818182 0.000000 
vertex  2.272727 2.272727 0.000000 
endloop 
endfacet 
facet normal  0.000000 0.000000 -1.000000 
outer loop 
vertex  0.909091 0.000000 0.000000 
vertex  1.363636 -0.454545 0.000000 
vertex  0.909091 -0.454545 0.000000 
endloop 
endfacet 
facet normal  0.000000 0.000000 -1.000000 
outer loop 
vertex  0.909091 0.454545 0.000000 
vertex  1.363636 0.454545 0.000000 
vertex  0.909091 -0.000000 0.000000 
endloop 
endfacet 
facet normal  0.000000 0.000000 -1.000000 
outer loop 
vertex  0.909091 -1.363636 0.000000 
vertex  0.909091 -1.818182 0.000000 
vertex  0.454545 -1.363636 0.000000 
endloop 
endfacet 
facet normal  0.000000 0.000000 -1.000000 
outer loop 
vertex  0.454545 1.363636 0.000000 
vertex  0.909091 1.818182 0.000000 
vertex  0.909091 1.363636 0.000000 
endloop 
endfacet 
facet normal  0.000000 0.000000 -1.000000 
outer loop 
vertex  1.363636 -1.363636 0.000000 
vertex  1.818182 -1.818182 0.000000 
vertex  1.363636 -1.818182 0.000000 
endloop 
endfacet 
facet normal  0.000000 0.000000 -1.000000 
outer loop 
vertex  1.363636 1.818182 0.000000 
vertex  1.818182 1.818182 0.000000 
vertex  1.363636 1.363636 0.000000 
endloop 
endfacet 
facet normal  0.000000 0.000000 -1.000000 
outer loop 
vertex  1.363636 -1.818182 0.000000 
vertex  1.818182 -2.272727 0.000000 
vertex  1.363636 -2.272727 0.000000 
endloop 
endfacet 
facet normal  0.000000 0.000000 -1.000000 
outer loop 
vertex  1.363636 2.272727 0.000000 
vertex  1.818182 2.272727 0.000000 
vertex  1.363636 1.818182 0.000000 
endloop 
endfacet 
facet normal  0.000000 0.000000 -1.000000 
outer loop 
vertex  2.272727 -3.181818 0.000000 
vertex  1.818182 -3.181818 0.000000 
vertex  1.818182 -2.727273 0.000000 
endloop 
endfacet 
facet normal  0.000000 0.000000 -1.000000 
outer loop 
vertex  1.818182 2.727273 0.000000 
vertex  1.818182 3.181818 0.000000 
vertex  2.272727 3.181818 0.000000 
endloop 
endfacet 
facet normal  0.000000 0.000000 -1.000000 
outer loop 
vertex  2.272727 -2.272727 0.000000 
vertex  2.272727 -1.818182 0.000000 
vertex  2.727273 -2.272727 0.000000 
endloop 
endfacet 
facet normal  0.000000 0.000000 -1.000000 
outer loop 
vertex  2.727273 2.272727 0.000000 
vertex  2.272727 1.818182 0.000000 
vertex  2.272727 2.272727 0.000000 
endloop 
endfacet 
facet normal  0.000000 0.000000 -1.000000 
outer loop 
vertex  1.818182 -3.636364 0.000000 
vertex  1.818182 -3.181818 0.000000 
vertex  2.272727 -3.636364 0.000000 
endloop 
endfacet 
facet normal  0.000000 0.000000 -1.000000 
outer loop 
vertex  2.272727 3.636364 0.000000 
vertex  1.818182 3.181818 0.000000 
vertex  1.818182 3.636364 0.000000 
endloop 
endfacet 
facet normal  0.000000 0.000000 -1.000000 
outer loop 
vertex  1.363636 -2.272727 0.000000 
vertex  0.909091 -2.272727 0.000000 
vertex  0.909091 -1.818182 0.000000 
endloop 
endfacet 
facet normal  0.000000 0.000000 -1.000000 
outer loop 
vertex  0.909091 1.818182 0.000000 
vertex  0.909091 2.272727 0.000000 
vertex  1.363636 2.272727 0.000000 
endloop 
endfacet 
facet normal  0.000000 0.000000 -1.000000 
outer loop 
vertex  0.454545 -2.272727 0.000000 
vertex  0.000000 -1.818182 0.000000 
vertex  0.454545 -1.818182 0.000000 
endloop 
endfacet 
facet normal  0.000000 0.000000 -1.000000 
outer loop 
vertex  0.454545 1.818182 0.000000 
vertex  0.000000 1.818182 0.000000 
vertex  0.454545 2.272727 0.000000 
endloop 
endfacet 
facet normal  0.000000 0.000000 -1.000000 
outer loop 
vertex  1.363636 -1.818182 0.000000 
vertex  0.909091 -1.363636 0.000000 
vertex  1.363636 -1.363636 0.000000 
endloop 
endfacet 
facet normal  0.000000 0.000000 -1.000000 
outer loop 
vertex  1.363636 1.363636 0.000000 
vertex  0.909091 1.363636 0.000000 
vertex  1.363636 1.818182 0.000000 
endloop 
endfacet 
facet normal  0.000000 0.000000 -1.000000 
outer loop 
vertex  0.909091 -1.818182 0.000000 
vertex  0.909091 -2.272727 0.000000 
vertex  0.454545 -1.818182 0.000000 
endloop 
endfacet 
facet normal  0.000000 0.000000 -1.000000 
outer loop 
vertex  0.454545 1.818182 0.000000 
vertex  0.909091 2.272727 0.000000 
vertex  0.909091 1.818182 0.000000 
endloop 
endfacet 
facet normal  0.000000 0.000000 -1.000000 
outer loop 
vertex  1.363636 -1.363636 0.000000 
vertex  0.909091 -1.363636 0.000000 
vertex  0.909091 -0.909091 0.000000 
endloop 
endfacet 
facet normal  0.000000 0.000000 -1.000000 
outer loop 
vertex  0.909091 0.909091 0.000000 
vertex  0.909091 1.363636 0.000000 
vertex  1.363636 1.363636 0.000000 
endloop 
endfacet 
facet normal  0.000000 0.000000 -1.000000 
outer loop 
vertex  0.909091 -1.363636 0.000000 
vertex  0.454545 -0.909091 0.000000 
vertex  0.909091 -0.909091 0.000000 
endloop 
endfacet 
facet normal  0.000000 0.000000 -1.000000 
outer loop 
vertex  0.909091 0.909091 0.000000 
vertex  0.454545 0.909091 0.000000 
vertex  0.909091 1.363636 0.000000 
endloop 
endfacet 
facet normal  0.000000 0.000000 -1.000000 
outer loop 
vertex  0.909091 0.000000 0.000000 
vertex  0.909091 -0.454545 0.000000 
vertex  0.454545 0.000000 0.000000 
endloop 
endfacet 
facet normal  0.000000 0.000000 -1.000000 
outer loop 
vertex  0.454545 -0.000000 0.000000 
vertex  0.909091 0.454545 0.000000 
vertex  0.909091 -0.000000 0.000000 
endloop 
endfacet 
facet normal  0.000000 0.000000 -1.000000 
outer loop 
vertex  0.909091 -0.454545 0.000000 
vertex  1.363636 -0.909091 0.000000 
vertex  0.909091 -0.909091 0.000000 
endloop 
endfacet 
facet normal  0.000000 0.000000 -1.000000 
outer loop 
vertex  0.909091 0.909091 0.000000 
vertex  1.363636 0.909091 0.000000 
vertex  0.909091 0.454545 0.000000 
endloop 
endfacet 
facet normal  0.000000 0.000000 -1.000000 
outer loop 
vertex  0.909091 -0.909091 0.000000 
vertex  1.363636 -0.909091 0.000000 
vertex  1.363636 -1.363636 0.000000 
endloop 
endfacet 
facet normal  0.000000 0.000000 -1.000000 
outer loop 
vertex  1.363636 1.363636 0.000000 
vertex  1.363636 0.909091 0.000000 
vertex  0.909091 0.909091 0.000000 
endloop 
endfacet 
facet normal  0.000000 0.000000 -1.000000 
outer loop 
vertex  1.363636 -0.909091 0.000000 
vertex  1.818182 -1.363636 0.000000 
vertex  1.363636 -1.363636 0.000000 
endloop 
endfacet 
facet normal  0.000000 0.000000 -1.000000 
outer loop 
vertex  1.363636 1.363636 0.000000 
vertex  1.818182 1.363636 0.000000 
vertex  1.363636 0.909091 0.000000 
endloop 
endfacet 
facet normal  0.000000 0.000000 -1.000000 
outer loop 
vertex  1.363636 0.000000 0.000000 
vertex  1.363636 -0.454545 0.000000 
vertex  0.909091 0.000000 0.000000 
endloop 
endfacet 
facet normal  0.000000 0.000000 -1.000000 
outer loop 
vertex  0.909091 -0.000000 0.000000 
vertex  1.363636 0.454545 0.000000 
vertex  1.363636 -0.000000 0.000000 
endloop 
endfacet 
facet normal  0.000000 0.000000 -1.000000 
outer loop 
vertex  0.000000 0.000000 0.000000 
vertex  0.454545 0.000000 0.000000 
vertex  0.454545 -0.454545 0.000000 
endloop 
endfacet 
facet normal  0.000000 0.000000 -1.000000 
outer loop 
vertex  0.454545 0.454545 0.000000 
vertex  0.454545 -0.000000 0.000000 
vertex  0.000000 -0.000000 0.000000 
endloop 
endfacet 
facet normal  0.000000 0.000000 -1.000000 
outer loop 
vertex  0.000000 -0.454545 0.000000 
vertex  -0.454545 0.000000 0.000000 
vertex  0.000000 0.000000 0.000000 
endloop 
endfacet 
facet normal  0.000000 0.000000 -1.000000 
outer loop 
vertex  0.000000 -0.000000 0.000000 
vertex  -0.454545 -0.000000 0.000000 
vertex  0.000000 0.454545 0.000000 
endloop 
endfacet 
facet normal  0.000000 0.000000 -1.000000 
outer loop 
vertex  0.000000 -0.909091 0.000000 
vertex  -0.454545 -0.909091 0.000000 
vertex  -0.454545 -0.454545 0.000000 
endloop 
endfacet 
facet normal  0.000000 0.000000 -1.000000 
outer loop 
vertex  -0.454545 0.454545 0.000000 
vertex  -0.454545 0.909091 0.000000 
vertex  0.000000 0.909091 0.000000 
endloop 
endfacet 
facet normal  0.000000 0.000000 -1.000000 
outer loop 
vertex  0.454545 -0.909091 0.000000 
vertex  0.454545 -1.363636 0.000000 
vertex  0.000000 -0.909091 0.000000 
endloop 
endfacet 
facet normal  0.000000 0.000000 -1.000000 
outer loop 
vertex  0.000000 0.909091 0.000000 
vertex  0.454545 1.363636 0.000000 
vertex  0.454545 0.909091 0.000000 
endloop 
endfacet 
facet normal  0.000000 0.000000 -1.000000 
outer loop 
vertex  0.454545 -0.909091 0.000000 
vertex  0.454545 -0.454545 0.000000 
vertex  0.909091 -0.909091 0.000000 
endloop 
endfacet 
facet normal  0.000000 0.000000 -1.000000 
outer loop 
vertex  0.909091 0.909091 0.000000 
vertex  0.454545 0.454545 0.000000 
vertex  0.454545 0.909091 0.000000 
endloop 
endfacet 
facet normal  0.000000 0.000000 -1.000000 
outer loop 
vertex  0.454545 -0.454545 0.000000 
vertex  0.454545 0.000000 0.000000 
vertex  0.909091 -0.454545 0.000000 
endloop 
endfacet 
facet normal  0.000000 0.000000 -1.000000 
outer loop 
vertex  0.909091 0.454545 0.000000 
vertex  0.454545 -0.000000 0.000000 
vertex  0.454545 0.454545 0.000000 
endloop 
endfacet 
facet normal  0.000000 0.000000 -1.000000 
outer loop 
vertex  -0.909091 -1.363636 0.000000 
vertex  -0.454545 -1.363636 0.000000 
vertex  -0.454545 -1.818182 0.000000 
endloop 
endfacet 
facet normal  0.000000 0.000000 -1.000000 
outer loop 
vertex  -0.454545 1.818182 0.000000 
vertex  -0.454545 1.363636 0.000000 
vertex  -0.909091 1.363636 0.000000 
endloop 
endfacet 
facet normal  0.000000 0.000000 -1.000000 
outer loop 
vertex  -0.454545 -0.454545 0.000000 
vertex  0.000000 -0.454545 0.000000 
vertex  0.000000 -0.909091 0.000000 
endloop 
endfacet 
facet normal  0.000000 0.000000 -1.000000 
outer loop 
vertex  0.000000 0.909091 0.000000 
vertex  0.000000 0.454545 0.000000 
vertex  -0.454545 0.454545 0.000000 
endloop 
endfacet 
facet normal  0.000000 0.000000 -1.000000 
outer loop 
vertex  0.000000 -0.454545 0.000000 
vertex  -0.454545 -0.454545 0.000000 
vertex  -0.454545 0.000000 0.000000 
endloop 
endfacet 
facet normal  0.000000 0.000000 -1.000000 
outer loop 
vertex  -0.454545 -0.000000 0.000000 
vertex  -0.454545 0.454545 0.000000 
vertex  0.000000 0.454545 0.000000 
endloop 
endfacet 
facet normal  0.000000 0.000000 -1.000000 
outer loop 
vertex  -0.454545 -0.454545 0.000000 
vertex  -0.909091 0.000000 0.000000 
vertex  -0.454545 0.000000 0.000000 
endloop 
endfacet 
facet normal  0.000000 0.000000 -1.000000 
outer loop 
vertex  -0.454545 -0.000000 0.000000 
vertex  -0.909091 -0.000000 0.000000 
vertex  -0.454545 0.454545 0.000000 
endloop 
endfacet 
facet normal  0.000000 0.000000 -1.000000 
outer loop 
vertex  -0.454545 -0.909091 0.000000 
vertex  0.000000 -1.363636 0.000000 
vertex  -0.454545 -1.363636 0.000000 
endloop 
endfacet 
facet normal  0.000000 0.000000 -1.000000 
outer loop 
vertex  -0.454545 1.363636 0.000000 
vertex  0.000000 1.363636 0.000000 
vertex  -0.454545 0.909091 0.000000 
endloop 
endfacet 
facet normal  0.000000 0.000000 -1.000000 
outer loop 
vertex  0.000000 -0.909091 0.000000 
vertex  0.454545 -1.363636 0.000000 
vertex  0.000000 -1.363636 0.000000 
endloop 
endfacet 
facet normal  0.000000 0.000000 -1.000000 
outer loop 
vertex  0.000000 1.363636 0.000000 
vertex  0.454545 1.363636 0.000000 
vertex  0.000000 0.909091 0.000000 
endloop 
endfacet 
facet normal  0.000000 0.000000 -1.000000 
outer loop 
vertex  -0.454545 -2.727273 0.000000 
vertex  -0.454545 -2.272727 0.000000 
vertex  0.000000 -2.727273 0.000000 
endloop 
endfacet 
facet normal  0.000000 0.000000 -1.000000 
outer loop 
vertex  0.000000 2.727273 0.000000 
vertex  -0.454545 2.272727 0.000000 
vertex  -0.454545 2.727273 0.000000 
endloop 
endfacet 
facet normal  0.000000 0.000000 -1.000000 
outer loop 
vertex  0.000000 -1.363636 0.000000 
vertex  0.454545 -1.818182 0.000000 
vertex  0.000000 -1.818182 0.000000 
endloop 
endfacet 
facet normal  0.000000 0.000000 -1.000000 
outer loop 
vertex  0.000000 1.818182 0.000000 
vertex  0.454545 1.818182 0.000000 
vertex  0.000000 1.363636 0.000000 
endloop 
endfacet 
facet normal  0.000000 0.000000 -1.000000 
outer loop 
vertex  -0.454545 -0.909091 0.000000 
vertex  -0.454545 -1.363636 0.000000 
vertex  -0.909091 -0.909091 0.000000 
endloop 
endfacet 
facet normal  0.000000 0.000000 -1.000000 
outer loop 
vertex  -0.909091 0.909091 0.000000 
vertex  -0.454545 1.363636 0.000000 
vertex  -0.454545 0.909091 0.000000 
endloop 
endfacet 
facet normal  0.000000 0.000000 -1.000000 
outer loop 
vertex  0.000000 -1.363636 0.000000 
vertex  0.000000 -1.818182 0.000000 
vertex  -0.454545 -1.363636 0.000000 
endloop 
endfacet 
facet normal  0.000000 0.000000 -1.000000 
outer loop 
vertex  -0.454545 1.363636 0.000000 
vertex  0.000000 1.818182 0.000000 
vertex  0.000000 1.363636 0.000000 
endloop 
endfacet 
facet normal  0.000000 0.000000 -1.000000 
outer loop 
vertex  0.000000 -0.909091 0.000000 
vertex  0.000000 -1.363636 0.000000 
vertex  -0.454545 -0.909091 0.000000 
endloop 
endfacet 
facet normal  0.000000 0.000000 -1.000000 
outer loop 
vertex  -0.454545 0.909091 0.000000 
vertex  0.000000 1.363636 0.000000 
vertex  0.000000 0.909091 0.000000 
endloop 
endfacet 
facet normal  0.000000 0.000000 -1.000000 
outer loop 
vertex  0.000000 -1.818182 0.000000 
vertex  -0.454545 -1.818182 0.000000 
vertex  -0.454545 -1.363636 0.000000 
endloop 
endfacet 
facet normal  0.000000 0.000000 -1.000000 
outer loop 
vertex  -0.454545 1.363636 0.000000 
vertex  -0.454545 1.818182 0.000000 
vertex  0.000000 1.818182 0.000000 
endloop 
endfacet 
facet normal  0.000000 0.000000 -1.000000 
outer loop 
vertex  -0.454545 -2.272727 0.000000 
vertex  0.000000 -2.272727 0.000000 
vertex  0.000000 -2.727273 0.000000 
endloop 
endfacet 
facet normal  0.000000 0.000000 -1.000000 
outer loop 
vertex  0.000000 2.727273 0.000000 
vertex  0.000000 2.272727 0.000000 
vertex  -0.454545 2.272727 0.000000 
endloop 
endfacet 
facet normal  0.000000 0.000000 -1.000000 
outer loop 
vertex  0.454545 -1.818182 0.000000 
vertex  0.909091 -2.272727 0.000000 
vertex  0.454545 -2.272727 0.000000 
endloop 
endfacet 
facet normal  0.000000 0.000000 -1.000000 
outer loop 
vertex  0.454545 2.272727 0.000000 
vertex  0.909091 2.272727 0.000000 
vertex  0.454545 1.818182 0.000000 
endloop 
endfacet 
facet normal  0.000000 0.000000 -1.000000 
outer loop 
vertex  -0.454545 -1.818182 0.000000 
vertex  0.000000 -1.818182 0.000000 
vertex  0.000000 -2.272727 0.000000 
endloop 
endfacet 
facet normal  0.000000 0.000000 -1.000000 
outer loop 
vertex  0.000000 2.272727 0.000000 
vertex  0.000000 1.818182 0.000000 
vertex  -0.454545 1.818182 0.000000 
endloop 
endfacet 
facet normal  0.000000 0.000000 -1.000000 
outer loop 
vertex  0.000000 -1.818182 0.000000 
vertex  0.454545 -2.272727 0.000000 
vertex  0.000000 -2.272727 0.000000 
endloop 
endfacet 
facet normal  0.000000 0.000000 -1.000000 
outer loop 
vertex  0.000000 2.272727 0.000000 
vertex  0.454545 2.272727 0.000000 
vertex  0.000000 1.818182 0.000000 
endloop 
endfacet 
facet normal  0.000000 0.000000 -1.000000 
outer loop 
vertex  0.000000 -2.272727 0.000000 
vertex  0.454545 -2.727273 0.000000 
vertex  0.000000 -2.727273 0.000000 
endloop 
endfacet 
facet normal  0.000000 0.000000 -1.000000 
outer loop 
vertex  0.000000 2.727273 0.000000 
vertex  0.454545 2.727273 0.000000 
vertex  0.000000 2.272727 0.000000 
endloop 
endfacet 
facet normal  0.000000 0.000000 -1.000000 
outer loop 
vertex  0.454545 -2.727273 0.000000 
vertex  0.454545 -3.181818 0.000000 
vertex  0.000000 -2.727273 0.000000 
endloop 
endfacet 
facet normal  0.000000 0.000000 -1.000000 
outer loop 
vertex  0.000000 2.727273 0.000000 
vertex  0.454545 3.181818 0.000000 
vertex  0.454545 2.727273 0.000000 
endloop 
endfacet 
facet normal  0.000000 0.000000 -1.000000 
outer loop 
vertex  0.909091 -1.363636 0.000000 
vertex  0.454545 -1.363636 0.000000 
vertex  0.454545 -0.909091 0.000000 
endloop 
endfacet 
facet normal  0.000000 0.000000 -1.000000 
outer loop 
vertex  0.454545 0.909091 0.000000 
vertex  0.454545 1.363636 0.000000 
vertex  0.909091 1.363636 0.000000 
endloop 
endfacet 
facet normal  0.000000 0.000000 -1.000000 
outer loop 
vertex  0.454545 -1.363636 0.000000 
vertex  0.454545 -1.818182 0.000000 
vertex  0.000000 -1.363636 0.000000 
endloop 
endfacet 
facet normal  0.000000 0.000000 -1.000000 
outer loop 
vertex  0.000000 1.363636 0.000000 
vertex  0.454545 1.818182 0.000000 
vertex  0.454545 1.363636 0.000000 
endloop 
endfacet 
facet normal  0.000000 0.000000 -1.000000 
outer loop 
vertex  1.818182 -3.181818 0.000000 
vertex  1.363636 -3.181818 0.000000 
vertex  1.363636 -2.727273 0.000000 
endloop 
endfacet 
facet normal  0.000000 0.000000 -1.000000 
outer loop 
vertex  1.363636 2.727273 0.000000 
vertex  1.363636 3.181818 0.000000 
vertex  1.818182 3.181818 0.000000 
endloop 
endfacet 
facet normal  0.000000 0.000000 -1.000000 
outer loop 
vertex  0.454545 -2.272727 0.000000 
vertex  0.909091 -2.272727 0.000000 
vertex  0.909091 -2.727273 0.000000 
endloop 
endfacet 
facet normal  0.000000 0.000000 -1.000000 
outer loop 
vertex  0.909091 2.727273 0.000000 
vertex  0.909091 2.272727 0.000000 
vertex  0.454545 2.272727 0.000000 
endloop 
endfacet 
facet normal  0.000000 0.000000 -1.000000 
outer loop 
vertex  1.363636 -1.818182 0.000000 
vertex  1.363636 -2.272727 0.000000 
vertex  0.909091 -1.818182 0.000000 
endloop 
endfacet 
facet normal  0.000000 0.000000 -1.000000 
outer loop 
vertex  0.909091 1.818182 0.000000 
vertex  1.363636 2.272727 0.000000 
vertex  1.363636 1.818182 0.000000 
endloop 
endfacet 
facet normal  0.000000 0.000000 -1.000000 
outer loop 
vertex  1.363636 -2.272727 0.000000 
vertex  1.818182 -2.727273 0.000000 
vertex  1.363636 -2.727273 0.000000 
endloop 
endfacet 
facet normal  0.000000 0.000000 -1.000000 
outer loop 
vertex  1.363636 2.727273 0.000000 
vertex  1.818182 2.727273 0.000000 
vertex  1.363636 2.272727 0.000000 
endloop 
endfacet 
facet normal  0.000000 0.000000 -1.000000 
outer loop 
vertex  2.272727 -2.727273 0.000000 
vertex  1.818182 -2.727273 0.000000 
vertex  1.818182 -2.272727 0.000000 
endloop 
endfacet 
facet normal  0.000000 0.000000 -1.000000 
outer loop 
vertex  1.818182 2.272727 0.000000 
vertex  1.818182 2.727273 0.000000 
vertex  2.272727 2.727273 0.000000 
endloop 
endfacet 
facet normal  0.000000 0.000000 -1.000000 
outer loop 
vertex  1.818182 -2.727273 0.000000 
vertex  1.818182 -3.181818 0.000000 
vertex  1.363636 -2.727273 0.000000 
endloop 
endfacet 
facet normal  0.000000 0.000000 -1.000000 
outer loop 
vertex  1.363636 2.727273 0.000000 
vertex  1.818182 3.181818 0.000000 
vertex  1.818182 2.727273 0.000000 
endloop 
endfacet 
facet normal  0.000000 0.000000 -1.000000 
outer loop 
vertex  0.454545 -2.272727 0.000000 
vertex  0.454545 -2.727273 0.000000 
vertex  0.000000 -2.272727 0.000000 
endloop 
endfacet 
facet normal  0.000000 0.000000 -1.000000 
outer loop 
vertex  0.000000 2.272727 0.000000 
vertex  0.454545 2.727273 0.000000 
vertex  0.454545 2.272727 0.000000 
endloop 
endfacet 
facet normal  0.000000 0.000000 -1.000000 
outer loop 
vertex  1.363636 -2.727273 0.000000 
vertex  1.363636 -3.181818 0.000000 
vertex  0.909091 -2.727273 0.000000 
endloop 
endfacet 
facet normal  0.000000 0.000000 -1.000000 
outer loop 
vertex  0.909091 2.727273 0.000000 
vertex  1.363636 3.181818 0.000000 
vertex  1.363636 2.727273 0.000000 
endloop 
endfacet 
facet normal  0.000000 0.000000 -1.000000 
outer loop 
vertex  0.454545 -2.727273 0.000000 
vertex  0.909091 -3.181818 0.000000 
vertex  0.454545 -3.181818 0.000000 
endloop 
endfacet 
facet normal  0.000000 0.000000 -1.000000 
outer loop 
vertex  0.454545 3.181818 0.000000 
vertex  0.909091 3.181818 0.000000 
vertex  0.454545 2.727273 0.000000 
endloop 
endfacet 
facet normal  0.000000 0.000000 -1.000000 
outer loop 
vertex  0.454545 -3.636364 0.000000 
vertex  0.000000 -3.181818 0.000000 
vertex  0.454545 -3.181818 0.000000 
endloop 
endfacet 
facet normal  0.000000 0.000000 -1.000000 
outer loop 
vertex  0.454545 3.181818 0.000000 
vertex  0.000000 3.181818 0.000000 
vertex  0.454545 3.636364 0.000000 
endloop 
endfacet 
facet normal  0.000000 0.000000 -1.000000 
outer loop 
vertex  0.909091 -3.181818 0.000000 
vertex  0.909091 -2.727273 0.000000 
vertex  1.363636 -3.181818 0.000000 
endloop 
endfacet 
facet normal  0.000000 0.000000 -1.000000 
outer loop 
vertex  1.363636 3.181818 0.000000 
vertex  0.909091 2.727273 0.000000 
vertex  0.909091 3.181818 0.000000 
endloop 
endfacet 
facet normal  0.000000 0.000000 -1.000000 
outer loop 
vertex  0.909091 -2.727273 0.000000 
vertex  0.909091 -2.272727 0.000000 
vertex  1.363636 -2.727273 0.000000 
endloop 
endfacet 
facet normal  0.000000 0.000000 -1.000000 
outer loop 
vertex  1.363636 2.727273 0.000000 
vertex  0.909091 2.272727 0.000000 
vertex  0.909091 2.727273 0.000000 
endloop 
endfacet 
facet normal  0.000000 0.000000 -1.000000 
outer loop 
vertex  0.000000 -3.636364 0.000000 
vertex  -0.454545 -3.636364 0.000000 
vertex  -0.454545 -3.181818 0.000000 
endloop 
endfacet 
facet normal  0.000000 0.000000 -1.000000 
outer loop 
vertex  -0.454545 3.181818 0.000000 
vertex  -0.454545 3.636364 0.000000 
vertex  0.000000 3.636364 0.000000 
endloop 
endfacet 
facet normal  0.000000 0.000000 -1.000000 
outer loop 
vertex  -0.454545 -3.636364 0.000000 
vertex  -0.909091 -3.181818 0.000000 
vertex  -0.454545 -3.181818 0.000000 
endloop 
endfacet 
facet normal  0.000000 0.000000 -1.000000 
outer loop 
vertex  -0.454545 3.181818 0.000000 
vertex  -0.909091 3.181818 0.000000 
vertex  -0.454545 3.636364 0.000000 
endloop 
endfacet 
facet normal  0.000000 0.000000 -1.000000 
outer loop 
vertex  -0.454545 -3.181818 0.000000 
vertex  0.000000 -3.181818 0.000000 
vertex  0.000000 -3.636364 0.000000 
endloop 
endfacet 
facet normal  0.000000 0.000000 -1.000000 
outer loop 
vertex  0.000000 3.636364 0.000000 
vertex  0.000000 3.181818 0.000000 
vertex  -0.454545 3.181818 0.000000 
endloop 
endfacet 
facet normal  0.000000 0.000000 -1.000000 
outer loop 
vertex  0.000000 -3.181818 0.000000 
vertex  0.000000 -2.727273 0.000000 
vertex  0.454545 -3.181818 0.000000 
endloop 
endfacet 
facet normal  0.000000 0.000000 -1.000000 
outer loop 
vertex  0.454545 3.181818 0.000000 
vertex  0.000000 2.727273 0.000000 
vertex  0.000000 3.181818 0.000000 
endloop 
endfacet 
facet normal  0.000000 0.000000 -1.000000 
outer loop 
vertex  0.000000 -3.636364 0.000000 
vertex  0.454545 -4.090909 0.000000 
vertex  0.000000 -4.090909 0.000000 
endloop 
endfacet 
facet normal  0.000000 0.000000 -1.000000 
outer loop 
vertex  0.000000 4.090909 0.000000 
vertex  0.454545 4.090909 0.000000 
vertex  0.000000 3.636364 0.000000 
endloop 
endfacet 
facet normal  0.000000 0.000000 -1.000000 
outer loop 
vertex  0.454545 -3.181818 0.000000 
vertex  0.909091 -3.181818 0.000000 
vertex  0.909091 -3.636364 0.000000 
endloop 
endfacet 
facet normal  0.000000 0.000000 -1.000000 
outer loop 
vertex  0.909091 3.636364 0.000000 
vertex  0.909091 3.181818 0.000000 
vertex  0.454545 3.181818 0.000000 
endloop 
endfacet 
facet normal  0.000000 0.000000 -1.000000 
outer loop 
vertex  0.454545 -4.090909 0.000000 
vertex  0.454545 -3.636364 0.000000 
vertex  0.909091 -4.090909 0.000000 
endloop 
endfacet 
facet normal  0.000000 0.000000 -1.000000 
outer loop 
vertex  0.909091 4.090909 0.000000 
vertex  0.454545 3.636364 0.000000 
vertex  0.454545 4.090909 0.000000 
endloop 
endfacet 
facet normal  0.000000 0.000000 -1.000000 
outer loop 
vertex  0.909091 -3.636364 0.000000 
vertex  0.909091 -3.181818 0.000000 
vertex  1.363636 -3.636364 0.000000 
endloop 
endfacet 
facet normal  0.000000 0.000000 -1.000000 
outer loop 
vertex  1.363636 3.636364 0.000000 
vertex  0.909091 3.181818 0.000000 
vertex  0.909091 3.636364 0.000000 
endloop 
endfacet 
facet normal  0.000000 0.000000 -1.000000 
outer loop 
vertex  0.454545 -3.636364 0.000000 
vertex  0.909091 -3.636364 0.000000 
vertex  0.909091 -4.090909 0.000000 
endloop 
endfacet 
facet normal  0.000000 0.000000 -1.000000 
outer loop 
vertex  0.909091 4.090909 0.000000 
vertex  0.909091 3.636364 0.000000 
vertex  0.454545 3.636364 0.000000 
endloop 
endfacet 
facet normal  0.000000 0.000000 -1.000000 
outer loop 
vertex  0.909091 -3.636364 0.000000 
vertex  1.363636 -4.090909 0.000000 
vertex  0.909091 -4.090909 0.000000 
endloop 
endfacet 
facet normal  0.000000 0.000000 -1.000000 
outer loop 
vertex  0.909091 4.090909 0.000000 
vertex  1.363636 4.090909 0.000000 
vertex  0.909091 3.636364 0.000000 
endloop 
endfacet 
facet normal  0.000000 0.000000 -1.000000 
outer loop 
vertex  1.363636 -4.090909 0.000000 
vertex  0.909091 -3.636364 0.000000 
vertex  1.363636 -3.636364 0.000000 
endloop 
endfacet 
facet normal  0.000000 0.000000 -1.000000 
outer loop 
vertex  1.363636 3.636364 0.000000 
vertex  0.909091 3.636364 0.000000 
vertex  1.363636 4.090909 0.000000 
endloop 
endfacet 
facet normal  0.000000 0.000000 -1.000000 
outer loop 
vertex  1.818182 -2.272727 0.000000 
vertex  2.272727 -2.272727 0.000000 
vertex  2.272727 -2.727273 0.000000 
endloop 
endfacet 
facet normal  0.000000 0.000000 -1.000000 
outer loop 
vertex  2.272727 2.727273 0.000000 
vertex  2.272727 2.272727 0.000000 
vertex  1.818182 2.272727 0.000000 
endloop 
endfacet 
facet normal  0.000000 0.000000 -1.000000 
outer loop 
vertex  1.363636 -3.636364 0.000000 
vertex  1.818182 -3.636364 0.000000 
vertex  1.818182 -4.090909 0.000000 
endloop 
endfacet 
facet normal  0.000000 0.000000 -1.000000 
outer loop 
vertex  1.818182 4.090909 0.000000 
vertex  1.818182 3.636364 0.000000 
vertex  1.363636 3.636364 0.000000 
endloop 
endfacet 
facet normal  0.000000 0.000000 -1.000000 
outer loop 
vertex  2.272727 -2.727273 0.000000 
vertex  2.272727 -2.272727 0.000000 
vertex  2.727273 -2.727273 0.000000 
endloop 
endfacet 
facet normal  0.000000 0.000000 -1.000000 
outer loop 
vertex  2.727273 2.727273 0.000000 
vertex  2.272727 2.272727 0.000000 
vertex  2.272727 2.727273 0.000000 
endloop 
endfacet 
facet normal  0.000000 0.000000 -1.000000 
outer loop 
vertex  2.272727 -2.272727 0.000000 
vertex  1.818182 -2.272727 0.000000 
vertex  1.818182 -1.818182 0.000000 
endloop 
endfacet 
facet normal  0.000000 0.000000 -1.000000 
outer loop 
vertex  1.818182 1.818182 0.000000 
vertex  1.818182 2.272727 0.000000 
vertex  2.272727 2.272727 0.000000 
endloop 
endfacet 
facet normal  0.000000 0.000000 -1.000000 
outer loop 
vertex  1.818182 -2.272727 0.000000 
vertex  1.363636 -1.818182 0.000000 
vertex  1.818182 -1.818182 0.000000 
endloop 
endfacet 
facet normal  0.000000 0.000000 -1.000000 
outer loop 
vertex  1.818182 1.818182 0.000000 
vertex  1.363636 1.818182 0.000000 
vertex  1.818182 2.272727 0.000000 
endloop 
endfacet 
facet normal  0.000000 0.000000 -1.000000 
outer loop 
vertex  1.818182 -3.181818 0.000000 
vertex  2.272727 -3.181818 0.000000 
vertex  2.272727 -3.636364 0.000000 
endloop 
endfacet 
facet normal  0.000000 0.000000 -1.000000 
outer loop 
vertex  2.272727 3.636364 0.000000 
vertex  2.272727 3.181818 0.000000 
vertex  1.818182 3.181818 0.000000 
endloop 
endfacet 
facet normal  0.000000 0.000000 -1.000000 
outer loop 
vertex  2.272727 -3.181818 0.000000 
vertex  2.727273 -3.636364 0.000000 
vertex  2.272727 -3.636364 0.000000 
endloop 
endfacet 
facet normal  0.000000 0.000000 -1.000000 
outer loop 
vertex  2.272727 3.636364 0.000000 
vertex  2.727273 3.636364 0.000000 
vertex  2.272727 3.181818 0.000000 
endloop 
endfacet 
facet normal  0.000000 0.000000 -1.000000 
outer loop 
vertex  1.818182 -2.727273 0.000000 
vertex  2.272727 -2.727273 0.000000 
vertex  2.272727 -3.181818 0.000000 
endloop 
endfacet 
facet normal  0.000000 0.000000 -1.000000 
outer loop 
vertex  2.272727 3.181818 0.000000 
vertex  2.272727 2.727273 0.000000 
vertex  1.818182 2.727273 0.000000 
endloop 
endfacet 
facet normal  0.000000 0.000000 -1.000000 
outer loop 
vertex  2.272727 -2.727273 0.000000 
vertex  2.727273 -3.181818 0.000000 
vertex  2.272727 -3.181818 0.000000 
endloop 
endfacet 
facet normal  0.000000 0.000000 -1.000000 
outer loop 
vertex  2.272727 3.181818 0.000000 
vertex  2.727273 3.181818 0.000000 
vertex  2.272727 2.727273 0.000000 
endloop 
endfacet 
facet normal  0.000000 0.000000 -1.000000 
outer loop 
vertex  2.727273 -2.727273 0.000000 
vertex  2.272727 -2.272727 0.000000 
vertex  2.727273 -2.272727 0.000000 
endloop 
endfacet 
facet normal  0.000000 0.000000 -1.000000 
outer loop 
vertex  2.727273 2.272727 0.000000 
vertex  2.272727 2.272727 0.000000 
vertex  2.727273 2.727273 0.000000 
endloop 
endfacet 
facet normal  0.000000 0.000000 -1.000000 
outer loop 
vertex  2.727273 -2.727273 0.000000 
vertex  2.727273 -2.272727 0.000000 
vertex  3.181818 -2.727273 0.000000 
endloop 
endfacet 
facet normal  0.000000 0.000000 -1.000000 
outer loop 
vertex  3.181818 2.727273 0.000000 
vertex  2.727273 2.272727 0.000000 
vertex  2.727273 2.727273 0.000000 
endloop 
endfacet 
facet normal  0.000000 0.000000 -1.000000 
outer loop 
vertex  2.727273 -3.636364 0.000000 
vertex  2.272727 -3.181818 0.000000 
vertex  2.727273 -3.181818 0.000000 
endloop 
endfacet 
facet normal  0.000000 0.000000 -1.000000 
outer loop 
vertex  2.727273 3.181818 0.000000 
vertex  2.272727 3.181818 0.000000 
vertex  2.727273 3.636364 0.000000 
endloop 
endfacet 
facet normal  0.000000 0.000000 -1.000000 
outer loop 
vertex  2.727273 -3.181818 0.000000 
vertex  2.727273 -2.727273 0.000000 
vertex  3.181818 -3.181818 0.000000 
endloop 
endfacet 
facet normal  0.000000 0.000000 -1.000000 
outer loop 
vertex  3.181818 3.181818 0.000000 
vertex  2.727273 2.727273 0.000000 
vertex  2.727273 3.181818 0.000000 
endloop 
endfacet 
facet normal  0.000000 0.000000 -1.000000 
outer loop 
vertex  2.727273 -3.181818 0.000000 
vertex  2.272727 -2.727273 0.000000 
vertex  2.727273 -2.727273 0.000000 
endloop 
endfacet 
facet normal  0.000000 0.000000 -1.000000 
outer loop 
vertex  2.727273 2.727273 0.000000 
vertex  2.272727 2.727273 0.000000 
vertex  2.727273 3.181818 0.000000 
endloop 
endfacet 
facet normal  0.000000 0.000000 -1.000000 
outer loop 
vertex  3.181818 -3.181818 0.000000 
vertex  2.727273 -2.727273 0.000000 
vertex  3.181818 -2.727273 0.000000 
endloop 
endfacet 
facet normal  0.000000 0.000000 -1.000000 
outer loop 
vertex  3.181818 2.727273 0.000000 
vertex  2.727273 2.727273 0.000000 
vertex  3.181818 3.181818 0.000000 
endloop 
endfacet 
endsolid Cuerno_23_Bendfacet 
