solid Cuerno_9_B 
facet normal  0.000000 0.000000 -1.000000 
outer loop 
vertex  -3.750000 -1.250000 0.000000 
vertex  -2.500000 -1.250000 0.000000 
vertex  -2.500000 -2.500000 0.000000 
endloop 
endfacet 
facet normal  0.000000 0.000000 -1.000000 
outer loop 
vertex  -2.500000 2.500000 0.000000 
vertex  -2.500000 1.250000 0.000000 
vertex  -3.750000 1.250000 0.000000 
endloop 
endfacet 
facet normal  0.000000 0.000000 -1.000000 
outer loop 
vertex  -5.000000 0.000000 0.000000 
vertex  -3.750000 0.000000 0.000000 
vertex  -3.750000 -1.250000 0.000000 
endloop 
endfacet 
facet normal  0.000000 0.000000 -1.000000 
outer loop 
vertex  -3.750000 1.250000 0.000000 
vertex  -3.750000 -0.000000 0.000000 
vertex  -5.000000 -0.000000 0.000000 
endloop 
endfacet 
facet normal  0.000000 0.000000 -1.000000 
outer loop 
vertex  -1.250000 -1.250000 0.000000 
vertex  -2.500000 -1.250000 0.000000 
vertex  -2.500000 0.000000 0.000000 
endloop 
endfacet 
facet normal  0.000000 0.000000 -1.000000 
outer loop 
vertex  -2.500000 -0.000000 0.000000 
vertex  -2.500000 1.250000 0.000000 
vertex  -1.250000 1.250000 0.000000 
endloop 
endfacet 
facet normal  0.000000 0.000000 -1.000000 
outer loop 
vertex  -1.250000 -2.500000 0.000000 
vertex  -1.250000 -3.750000 0.000000 
vertex  -2.500000 -2.500000 0.000000 
endloop 
endfacet 
facet normal  0.000000 0.000000 -1.000000 
outer loop 
vertex  -2.500000 2.500000 0.000000 
vertex  -1.250000 3.750000 0.000000 
vertex  -1.250000 2.500000 0.000000 
endloop 
endfacet 
facet normal  0.000000 0.000000 -1.000000 
outer loop 
vertex  0.000000 -1.250000 0.000000 
vertex  0.000000 -2.500000 0.000000 
vertex  -1.250000 -1.250000 0.000000 
endloop 
endfacet 
facet normal  0.000000 0.000000 -1.000000 
outer loop 
vertex  -1.250000 1.250000 0.000000 
vertex  0.000000 2.500000 0.000000 
vertex  0.000000 1.250000 0.000000 
endloop 
endfacet 
facet normal  0.000000 0.000000 -1.000000 
outer loop 
vertex  1.250000 -2.500000 0.000000 
vertex  0.000000 -1.250000 0.000000 
vertex  1.250000 -1.250000 0.000000 
endloop 
endfacet 
facet normal  0.000000 0.000000 -1.000000 
outer loop 
vertex  1.250000 1.250000 0.000000 
vertex  0.000000 1.250000 0.000000 
vertex  1.250000 2.500000 0.000000 
endloop 
endfacet 
facet normal  0.000000 0.000000 -1.000000 
outer loop 
vertex  2.500000 -5.000000 0.000000 
vertex  1.250000 -5.000000 0.000000 
vertex  1.250000 -3.750000 0.000000 
endloop 
endfacet 
facet normal  0.000000 0.000000 -1.000000 
outer loop 
vertex  1.250000 3.750000 0.000000 
vertex  1.250000 5.000000 0.000000 
vertex  2.500000 5.000000 0.000000 
endloop 
endfacet 
facet normal  0.000000 0.000000 -1.000000 
outer loop 
vertex  1.250000 -2.500000 0.000000 
vertex  0.000000 -2.500000 0.000000 
vertex  0.000000 -1.250000 0.000000 
endloop 
endfacet 
facet normal  0.000000 0.000000 -1.000000 
outer loop 
vertex  0.000000 1.250000 0.000000 
vertex  0.000000 2.500000 0.000000 
vertex  1.250000 2.500000 0.000000 
endloop 
endfacet 
facet normal  0.000000 0.000000 -1.000000 
outer loop 
vertex  -1.250000 0.000000 0.000000 
vertex  -1.250000 -1.250000 0.000000 
vertex  -2.500000 0.000000 0.000000 
endloop 
endfacet 
facet normal  0.000000 0.000000 -1.000000 
outer loop 
vertex  -2.500000 -0.000000 0.000000 
vertex  -1.250000 1.250000 0.000000 
vertex  -1.250000 -0.000000 0.000000 
endloop 
endfacet 
facet normal  0.000000 0.000000 -1.000000 
outer loop 
vertex  0.000000 -5.000000 0.000000 
vertex  -1.250000 -3.750000 0.000000 
vertex  0.000000 -3.750000 0.000000 
endloop 
endfacet 
facet normal  0.000000 0.000000 -1.000000 
outer loop 
vertex  0.000000 3.750000 0.000000 
vertex  -1.250000 3.750000 0.000000 
vertex  0.000000 5.000000 0.000000 
endloop 
endfacet 
facet normal  0.000000 0.000000 -1.000000 
outer loop 
vertex  -1.250000 -5.000000 0.000000 
vertex  -2.500000 -3.750000 0.000000 
vertex  -1.250000 -3.750000 0.000000 
endloop 
endfacet 
facet normal  0.000000 0.000000 -1.000000 
outer loop 
vertex  -1.250000 3.750000 0.000000 
vertex  -2.500000 3.750000 0.000000 
vertex  -1.250000 5.000000 0.000000 
endloop 
endfacet 
facet normal  0.000000 0.000000 -1.000000 
outer loop 
vertex  -1.250000 -5.000000 0.000000 
vertex  -1.250000 -3.750000 0.000000 
vertex  0.000000 -5.000000 0.000000 
endloop 
endfacet 
facet normal  0.000000 0.000000 -1.000000 
outer loop 
vertex  0.000000 5.000000 0.000000 
vertex  -1.250000 3.750000 0.000000 
vertex  -1.250000 5.000000 0.000000 
endloop 
endfacet 
facet normal  0.000000 0.000000 -1.000000 
outer loop 
vertex  -2.500000 -1.250000 0.000000 
vertex  -1.250000 -1.250000 0.000000 
vertex  -1.250000 -2.500000 0.000000 
endloop 
endfacet 
facet normal  0.000000 0.000000 -1.000000 
outer loop 
vertex  -1.250000 2.500000 0.000000 
vertex  -1.250000 1.250000 0.000000 
vertex  -2.500000 1.250000 0.000000 
endloop 
endfacet 
facet normal  0.000000 0.000000 -1.000000 
outer loop 
vertex  -1.250000 -2.500000 0.000000 
vertex  0.000000 -2.500000 0.000000 
vertex  0.000000 -3.750000 0.000000 
endloop 
endfacet 
facet normal  0.000000 0.000000 -1.000000 
outer loop 
vertex  0.000000 3.750000 0.000000 
vertex  0.000000 2.500000 0.000000 
vertex  -1.250000 2.500000 0.000000 
endloop 
endfacet 
facet normal  0.000000 0.000000 -1.000000 
outer loop 
vertex  -3.750000 -2.500000 0.000000 
vertex  -2.500000 -2.500000 0.000000 
vertex  -2.500000 -3.750000 0.000000 
endloop 
endfacet 
facet normal  0.000000 0.000000 -1.000000 
outer loop 
vertex  -2.500000 3.750000 0.000000 
vertex  -2.500000 2.500000 0.000000 
vertex  -3.750000 2.500000 0.000000 
endloop 
endfacet 
facet normal  0.000000 0.000000 -1.000000 
outer loop 
vertex  -2.500000 -2.500000 0.000000 
vertex  -1.250000 -3.750000 0.000000 
vertex  -2.500000 -3.750000 0.000000 
endloop 
endfacet 
facet normal  0.000000 0.000000 -1.000000 
outer loop 
vertex  -2.500000 3.750000 0.000000 
vertex  -1.250000 3.750000 0.000000 
vertex  -2.500000 2.500000 0.000000 
endloop 
endfacet 
facet normal  0.000000 0.000000 -1.000000 
outer loop 
vertex  -2.500000 -1.250000 0.000000 
vertex  -1.250000 -2.500000 0.000000 
vertex  -2.500000 -2.500000 0.000000 
endloop 
endfacet 
facet normal  0.000000 0.000000 -1.000000 
outer loop 
vertex  -2.500000 2.500000 0.000000 
vertex  -1.250000 2.500000 0.000000 
vertex  -2.500000 1.250000 0.000000 
endloop 
endfacet 
facet normal  0.000000 0.000000 -1.000000 
outer loop 
vertex  -1.250000 -3.750000 0.000000 
vertex  -1.250000 -2.500000 0.000000 
vertex  0.000000 -3.750000 0.000000 
endloop 
endfacet 
facet normal  0.000000 0.000000 -1.000000 
outer loop 
vertex  0.000000 3.750000 0.000000 
vertex  -1.250000 2.500000 0.000000 
vertex  -1.250000 3.750000 0.000000 
endloop 
endfacet 
facet normal  0.000000 0.000000 -1.000000 
outer loop 
vertex  -1.250000 -2.500000 0.000000 
vertex  -1.250000 -1.250000 0.000000 
vertex  0.000000 -2.500000 0.000000 
endloop 
endfacet 
facet normal  0.000000 0.000000 -1.000000 
outer loop 
vertex  0.000000 2.500000 0.000000 
vertex  -1.250000 1.250000 0.000000 
vertex  -1.250000 2.500000 0.000000 
endloop 
endfacet 
facet normal  0.000000 0.000000 -1.000000 
outer loop 
vertex  -5.000000 -1.250000 0.000000 
vertex  -3.750000 -1.250000 0.000000 
vertex  -3.750000 -2.500000 0.000000 
endloop 
endfacet 
facet normal  0.000000 0.000000 -1.000000 
outer loop 
vertex  -3.750000 2.500000 0.000000 
vertex  -3.750000 1.250000 0.000000 
vertex  -5.000000 1.250000 0.000000 
endloop 
endfacet 
facet normal  0.000000 0.000000 -1.000000 
outer loop 
vertex  -3.750000 -1.250000 0.000000 
vertex  -2.500000 -2.500000 0.000000 
vertex  -3.750000 -2.500000 0.000000 
endloop 
endfacet 
facet normal  0.000000 0.000000 -1.000000 
outer loop 
vertex  -3.750000 2.500000 0.000000 
vertex  -2.500000 2.500000 0.000000 
vertex  -3.750000 1.250000 0.000000 
endloop 
endfacet 
facet normal  0.000000 0.000000 -1.000000 
outer loop 
vertex  -3.750000 0.000000 0.000000 
vertex  -2.500000 -1.250000 0.000000 
vertex  -3.750000 -1.250000 0.000000 
endloop 
endfacet 
facet normal  0.000000 0.000000 -1.000000 
outer loop 
vertex  -3.750000 1.250000 0.000000 
vertex  -2.500000 1.250000 0.000000 
vertex  -3.750000 -0.000000 0.000000 
endloop 
endfacet 
facet normal  0.000000 0.000000 -1.000000 
outer loop 
vertex  -5.000000 0.000000 0.000000 
vertex  -3.750000 -1.250000 0.000000 
vertex  -5.000000 -1.250000 0.000000 
endloop 
endfacet 
facet normal  0.000000 0.000000 -1.000000 
outer loop 
vertex  -5.000000 1.250000 0.000000 
vertex  -3.750000 1.250000 0.000000 
vertex  -5.000000 -0.000000 0.000000 
endloop 
endfacet 
facet normal  0.000000 0.000000 -1.000000 
outer loop 
vertex  -2.500000 0.000000 0.000000 
vertex  -2.500000 -1.250000 0.000000 
vertex  -3.750000 0.000000 0.000000 
endloop 
endfacet 
facet normal  0.000000 0.000000 -1.000000 
outer loop 
vertex  -3.750000 -0.000000 0.000000 
vertex  -2.500000 1.250000 0.000000 
vertex  -2.500000 -0.000000 0.000000 
endloop 
endfacet 
facet normal  0.000000 0.000000 -1.000000 
outer loop 
vertex  -1.250000 -1.250000 0.000000 
vertex  -1.250000 0.000000 0.000000 
vertex  0.000000 -1.250000 0.000000 
endloop 
endfacet 
facet normal  0.000000 0.000000 -1.000000 
outer loop 
vertex  0.000000 1.250000 0.000000 
vertex  -1.250000 -0.000000 0.000000 
vertex  -1.250000 1.250000 0.000000 
endloop 
endfacet 
facet normal  0.000000 0.000000 -1.000000 
outer loop 
vertex  2.500000 -3.750000 0.000000 
vertex  1.250000 -2.500000 0.000000 
vertex  2.500000 -2.500000 0.000000 
endloop 
endfacet 
facet normal  0.000000 0.000000 -1.000000 
outer loop 
vertex  2.500000 2.500000 0.000000 
vertex  1.250000 2.500000 0.000000 
vertex  2.500000 3.750000 0.000000 
endloop 
endfacet 
facet normal  0.000000 0.000000 -1.000000 
outer loop 
vertex  1.250000 -1.250000 0.000000 
vertex  0.000000 -1.250000 0.000000 
vertex  0.000000 0.000000 0.000000 
endloop 
endfacet 
facet normal  0.000000 0.000000 -1.000000 
outer loop 
vertex  0.000000 -0.000000 0.000000 
vertex  0.000000 1.250000 0.000000 
vertex  1.250000 1.250000 0.000000 
endloop 
endfacet 
facet normal  0.000000 0.000000 -1.000000 
outer loop 
vertex  0.000000 -1.250000 0.000000 
vertex  -1.250000 0.000000 0.000000 
vertex  0.000000 0.000000 0.000000 
endloop 
endfacet 
facet normal  0.000000 0.000000 -1.000000 
outer loop 
vertex  0.000000 -0.000000 0.000000 
vertex  -1.250000 -0.000000 0.000000 
vertex  0.000000 1.250000 0.000000 
endloop 
endfacet 
facet normal  0.000000 0.000000 -1.000000 
outer loop 
vertex  2.500000 -2.500000 0.000000 
vertex  1.250000 -2.500000 0.000000 
vertex  1.250000 -1.250000 0.000000 
endloop 
endfacet 
facet normal  0.000000 0.000000 -1.000000 
outer loop 
vertex  1.250000 1.250000 0.000000 
vertex  1.250000 2.500000 0.000000 
vertex  2.500000 2.500000 0.000000 
endloop 
endfacet 
facet normal  0.000000 0.000000 -1.000000 
outer loop 
vertex  1.250000 -3.750000 0.000000 
vertex  0.000000 -3.750000 0.000000 
vertex  0.000000 -2.500000 0.000000 
endloop 
endfacet 
facet normal  0.000000 0.000000 -1.000000 
outer loop 
vertex  0.000000 2.500000 0.000000 
vertex  0.000000 3.750000 0.000000 
vertex  1.250000 3.750000 0.000000 
endloop 
endfacet 
facet normal  0.000000 0.000000 -1.000000 
outer loop 
vertex  2.500000 -1.250000 0.000000 
vertex  1.250000 -1.250000 0.000000 
vertex  1.250000 0.000000 0.000000 
endloop 
endfacet 
facet normal  0.000000 0.000000 -1.000000 
outer loop 
vertex  1.250000 -0.000000 0.000000 
vertex  1.250000 1.250000 0.000000 
vertex  2.500000 1.250000 0.000000 
endloop 
endfacet 
facet normal  0.000000 0.000000 -1.000000 
outer loop 
vertex  1.250000 -1.250000 0.000000 
vertex  0.000000 0.000000 0.000000 
vertex  1.250000 0.000000 0.000000 
endloop 
endfacet 
facet normal  0.000000 0.000000 -1.000000 
outer loop 
vertex  1.250000 -0.000000 0.000000 
vertex  0.000000 -0.000000 0.000000 
vertex  1.250000 1.250000 0.000000 
endloop 
endfacet 
facet normal  0.000000 0.000000 -1.000000 
outer loop 
vertex  0.000000 -5.000000 0.000000 
vertex  0.000000 -3.750000 0.000000 
vertex  1.250000 -5.000000 0.000000 
endloop 
endfacet 
facet normal  0.000000 0.000000 -1.000000 
outer loop 
vertex  1.250000 5.000000 0.000000 
vertex  0.000000 3.750000 0.000000 
vertex  0.000000 5.000000 0.000000 
endloop 
endfacet 
facet normal  0.000000 0.000000 -1.000000 
outer loop 
vertex  0.000000 -3.750000 0.000000 
vertex  1.250000 -3.750000 0.000000 
vertex  1.250000 -5.000000 0.000000 
endloop 
endfacet 
facet normal  0.000000 0.000000 -1.000000 
outer loop 
vertex  1.250000 5.000000 0.000000 
vertex  1.250000 3.750000 0.000000 
vertex  0.000000 3.750000 0.000000 
endloop 
endfacet 
facet normal  0.000000 0.000000 -1.000000 
outer loop 
vertex  2.500000 -3.750000 0.000000 
vertex  1.250000 -3.750000 0.000000 
vertex  1.250000 -2.500000 0.000000 
endloop 
endfacet 
facet normal  0.000000 0.000000 -1.000000 
outer loop 
vertex  1.250000 2.500000 0.000000 
vertex  1.250000 3.750000 0.000000 
vertex  2.500000 3.750000 0.000000 
endloop 
endfacet 
facet normal  0.000000 0.000000 -1.000000 
outer loop 
vertex  1.250000 -3.750000 0.000000 
vertex  0.000000 -2.500000 0.000000 
vertex  1.250000 -2.500000 0.000000 
endloop 
endfacet 
facet normal  0.000000 0.000000 -1.000000 
outer loop 
vertex  1.250000 2.500000 0.000000 
vertex  0.000000 2.500000 0.000000 
vertex  1.250000 3.750000 0.000000 
endloop 
endfacet 
facet normal  0.000000 0.000000 -1.000000 
outer loop 
vertex  3.750000 -3.750000 0.000000 
vertex  2.500000 -3.750000 0.000000 
vertex  2.500000 -2.500000 0.000000 
endloop 
endfacet 
facet normal  0.000000 0.000000 -1.000000 
outer loop 
vertex  2.500000 2.500000 0.000000 
vertex  2.500000 3.750000 0.000000 
vertex  3.750000 3.750000 0.000000 
endloop 
endfacet 
facet normal  0.000000 0.000000 -1.000000 
outer loop 
vertex  2.500000 -3.750000 0.000000 
vertex  2.500000 -5.000000 0.000000 
vertex  1.250000 -3.750000 0.000000 
endloop 
endfacet 
facet normal  0.000000 0.000000 -1.000000 
outer loop 
vertex  1.250000 3.750000 0.000000 
vertex  2.500000 5.000000 0.000000 
vertex  2.500000 3.750000 0.000000 
endloop 
endfacet 
facet normal  0.000000 0.000000 -1.000000 
outer loop 
vertex  3.750000 -2.500000 0.000000 
vertex  2.500000 -2.500000 0.000000 
vertex  2.500000 -1.250000 0.000000 
endloop 
endfacet 
facet normal  0.000000 0.000000 -1.000000 
outer loop 
vertex  2.500000 1.250000 0.000000 
vertex  2.500000 2.500000 0.000000 
vertex  3.750000 2.500000 0.000000 
endloop 
endfacet 
facet normal  0.000000 0.000000 -1.000000 
outer loop 
vertex  2.500000 -2.500000 0.000000 
vertex  1.250000 -1.250000 0.000000 
vertex  2.500000 -1.250000 0.000000 
endloop 
endfacet 
facet normal  0.000000 0.000000 -1.000000 
outer loop 
vertex  2.500000 1.250000 0.000000 
vertex  1.250000 1.250000 0.000000 
vertex  2.500000 2.500000 0.000000 
endloop 
endfacet 
facet normal  0.000000 0.000000 -1.000000 
outer loop 
vertex  3.750000 -2.500000 0.000000 
vertex  3.750000 -3.750000 0.000000 
vertex  2.500000 -2.500000 0.000000 
endloop 
endfacet 
facet normal  0.000000 0.000000 -1.000000 
outer loop 
vertex  2.500000 2.500000 0.000000 
vertex  3.750000 3.750000 0.000000 
vertex  3.750000 2.500000 0.000000 
endloop 
endfacet 
endsolid Cuerno_9_Bendfacet 
