solid Cuerno_13_B 
facet normal  0.000000 0.000000 -1.000000 
outer loop 
vertex  -2.500000 -0.833333 0.000000 
vertex  -3.333333 0.000000 0.000000 
vertex  -2.500000 0.000000 0.000000 
endloop 
endfacet 
facet normal  0.000000 0.000000 -1.000000 
outer loop 
vertex  -2.500000 -0.000000 0.000000 
vertex  -3.333333 -0.000000 0.000000 
vertex  -2.500000 0.833333 0.000000 
endloop 
endfacet 
facet normal  0.000000 0.000000 -1.000000 
outer loop 
vertex  -0.833333 -0.833333 0.000000 
vertex  -1.666667 -0.833333 0.000000 
vertex  -1.666667 0.000000 0.000000 
endloop 
endfacet 
facet normal  0.000000 0.000000 -1.000000 
outer loop 
vertex  -1.666667 -0.000000 0.000000 
vertex  -1.666667 0.833333 0.000000 
vertex  -0.833333 0.833333 0.000000 
endloop 
endfacet 
facet normal  0.000000 0.000000 -1.000000 
outer loop 
vertex  -4.166667 -1.666667 0.000000 
vertex  -3.333333 -1.666667 0.000000 
vertex  -3.333333 -2.500000 0.000000 
endloop 
endfacet 
facet normal  0.000000 0.000000 -1.000000 
outer loop 
vertex  -3.333333 2.500000 0.000000 
vertex  -3.333333 1.666667 0.000000 
vertex  -4.166667 1.666667 0.000000 
endloop 
endfacet 
facet normal  0.000000 0.000000 -1.000000 
outer loop 
vertex  -2.500000 -1.666667 0.000000 
vertex  -3.333333 -1.666667 0.000000 
vertex  -3.333333 -0.833333 0.000000 
endloop 
endfacet 
facet normal  0.000000 0.000000 -1.000000 
outer loop 
vertex  -3.333333 0.833333 0.000000 
vertex  -3.333333 1.666667 0.000000 
vertex  -2.500000 1.666667 0.000000 
endloop 
endfacet 
facet normal  0.000000 0.000000 -1.000000 
outer loop 
vertex  -2.500000 -0.833333 0.000000 
vertex  -1.666667 -1.666667 0.000000 
vertex  -2.500000 -1.666667 0.000000 
endloop 
endfacet 
facet normal  0.000000 0.000000 -1.000000 
outer loop 
vertex  -2.500000 1.666667 0.000000 
vertex  -1.666667 1.666667 0.000000 
vertex  -2.500000 0.833333 0.000000 
endloop 
endfacet 
facet normal  0.000000 0.000000 -1.000000 
outer loop 
vertex  -2.500000 -3.333333 0.000000 
vertex  -1.666667 -3.333333 0.000000 
vertex  -1.666667 -4.166667 0.000000 
endloop 
endfacet 
facet normal  0.000000 0.000000 -1.000000 
outer loop 
vertex  -1.666667 4.166667 0.000000 
vertex  -1.666667 3.333333 0.000000 
vertex  -2.500000 3.333333 0.000000 
endloop 
endfacet 
facet normal  0.000000 0.000000 -1.000000 
outer loop 
vertex  -3.333333 -2.500000 0.000000 
vertex  -3.333333 -1.666667 0.000000 
vertex  -2.500000 -2.500000 0.000000 
endloop 
endfacet 
facet normal  0.000000 0.000000 -1.000000 
outer loop 
vertex  -2.500000 2.500000 0.000000 
vertex  -3.333333 1.666667 0.000000 
vertex  -3.333333 2.500000 0.000000 
endloop 
endfacet 
facet normal  0.000000 0.000000 -1.000000 
outer loop 
vertex  0.000000 0.000000 0.000000 
vertex  0.000000 -0.833333 0.000000 
vertex  -0.833333 0.000000 0.000000 
endloop 
endfacet 
facet normal  0.000000 0.000000 -1.000000 
outer loop 
vertex  -0.833333 -0.000000 0.000000 
vertex  0.000000 0.833333 0.000000 
vertex  0.000000 -0.000000 0.000000 
endloop 
endfacet 
facet normal  0.000000 0.000000 -1.000000 
outer loop 
vertex  -3.333333 -0.833333 0.000000 
vertex  -3.333333 0.000000 0.000000 
vertex  -2.500000 -0.833333 0.000000 
endloop 
endfacet 
facet normal  0.000000 0.000000 -1.000000 
outer loop 
vertex  -2.500000 0.833333 0.000000 
vertex  -3.333333 -0.000000 0.000000 
vertex  -3.333333 0.833333 0.000000 
endloop 
endfacet 
facet normal  0.000000 0.000000 -1.000000 
outer loop 
vertex  0.000000 -1.666667 0.000000 
vertex  -0.833333 -1.666667 0.000000 
vertex  -0.833333 -0.833333 0.000000 
endloop 
endfacet 
facet normal  0.000000 0.000000 -1.000000 
outer loop 
vertex  -0.833333 0.833333 0.000000 
vertex  -0.833333 1.666667 0.000000 
vertex  0.000000 1.666667 0.000000 
endloop 
endfacet 
facet normal  0.000000 0.000000 -1.000000 
outer loop 
vertex  -1.666667 -0.833333 0.000000 
vertex  -0.833333 -1.666667 0.000000 
vertex  -1.666667 -1.666667 0.000000 
endloop 
endfacet 
facet normal  0.000000 0.000000 -1.000000 
outer loop 
vertex  -1.666667 1.666667 0.000000 
vertex  -0.833333 1.666667 0.000000 
vertex  -1.666667 0.833333 0.000000 
endloop 
endfacet 
facet normal  0.000000 0.000000 -1.000000 
outer loop 
vertex  1.666667 -3.333333 0.000000 
vertex  2.500000 -3.333333 0.000000 
vertex  2.500000 -4.166667 0.000000 
endloop 
endfacet 
facet normal  0.000000 0.000000 -1.000000 
outer loop 
vertex  2.500000 4.166667 0.000000 
vertex  2.500000 3.333333 0.000000 
vertex  1.666667 3.333333 0.000000 
endloop 
endfacet 
facet normal  0.000000 0.000000 -1.000000 
outer loop 
vertex  -0.833333 -0.833333 0.000000 
vertex  -1.666667 0.000000 0.000000 
vertex  -0.833333 0.000000 0.000000 
endloop 
endfacet 
facet normal  0.000000 0.000000 -1.000000 
outer loop 
vertex  -0.833333 -0.000000 0.000000 
vertex  -1.666667 -0.000000 0.000000 
vertex  -0.833333 0.833333 0.000000 
endloop 
endfacet 
facet normal  0.000000 0.000000 -1.000000 
outer loop 
vertex  0.000000 0.000000 0.000000 
vertex  0.833333 0.000000 0.000000 
vertex  0.833333 -0.833333 0.000000 
endloop 
endfacet 
facet normal  0.000000 0.000000 -1.000000 
outer loop 
vertex  0.833333 0.833333 0.000000 
vertex  0.833333 -0.000000 0.000000 
vertex  0.000000 -0.000000 0.000000 
endloop 
endfacet 
facet normal  0.000000 0.000000 -1.000000 
outer loop 
vertex  1.666667 -0.833333 0.000000 
vertex  1.666667 -1.666667 0.000000 
vertex  0.833333 -0.833333 0.000000 
endloop 
endfacet 
facet normal  0.000000 0.000000 -1.000000 
outer loop 
vertex  0.833333 0.833333 0.000000 
vertex  1.666667 1.666667 0.000000 
vertex  1.666667 0.833333 0.000000 
endloop 
endfacet 
facet normal  0.000000 0.000000 -1.000000 
outer loop 
vertex  -0.833333 -1.666667 0.000000 
vertex  0.000000 -2.500000 0.000000 
vertex  -0.833333 -2.500000 0.000000 
endloop 
endfacet 
facet normal  0.000000 0.000000 -1.000000 
outer loop 
vertex  -0.833333 2.500000 0.000000 
vertex  0.000000 2.500000 0.000000 
vertex  -0.833333 1.666667 0.000000 
endloop 
endfacet 
facet normal  0.000000 0.000000 -1.000000 
outer loop 
vertex  0.833333 -4.166667 0.000000 
vertex  0.000000 -4.166667 0.000000 
vertex  0.000000 -3.333333 0.000000 
endloop 
endfacet 
facet normal  0.000000 0.000000 -1.000000 
outer loop 
vertex  0.000000 3.333333 0.000000 
vertex  0.000000 4.166667 0.000000 
vertex  0.833333 4.166667 0.000000 
endloop 
endfacet 
facet normal  0.000000 0.000000 -1.000000 
outer loop 
vertex  -2.500000 -2.500000 0.000000 
vertex  -2.500000 -3.333333 0.000000 
vertex  -3.333333 -2.500000 0.000000 
endloop 
endfacet 
facet normal  0.000000 0.000000 -1.000000 
outer loop 
vertex  -3.333333 2.500000 0.000000 
vertex  -2.500000 3.333333 0.000000 
vertex  -2.500000 2.500000 0.000000 
endloop 
endfacet 
facet normal  0.000000 0.000000 -1.000000 
outer loop 
vertex  -2.500000 -3.333333 0.000000 
vertex  -2.500000 -2.500000 0.000000 
vertex  -1.666667 -3.333333 0.000000 
endloop 
endfacet 
facet normal  0.000000 0.000000 -1.000000 
outer loop 
vertex  -1.666667 3.333333 0.000000 
vertex  -2.500000 2.500000 0.000000 
vertex  -2.500000 3.333333 0.000000 
endloop 
endfacet 
facet normal  0.000000 0.000000 -1.000000 
outer loop 
vertex  -2.500000 -1.666667 0.000000 
vertex  -1.666667 -1.666667 0.000000 
vertex  -1.666667 -2.500000 0.000000 
endloop 
endfacet 
facet normal  0.000000 0.000000 -1.000000 
outer loop 
vertex  -1.666667 2.500000 0.000000 
vertex  -1.666667 1.666667 0.000000 
vertex  -2.500000 1.666667 0.000000 
endloop 
endfacet 
facet normal  0.000000 0.000000 -1.000000 
outer loop 
vertex  -0.833333 -4.166667 0.000000 
vertex  -0.833333 -3.333333 0.000000 
vertex  0.000000 -4.166667 0.000000 
endloop 
endfacet 
facet normal  0.000000 0.000000 -1.000000 
outer loop 
vertex  0.000000 4.166667 0.000000 
vertex  -0.833333 3.333333 0.000000 
vertex  -0.833333 4.166667 0.000000 
endloop 
endfacet 
facet normal  0.000000 0.000000 -1.000000 
outer loop 
vertex  0.000000 -1.666667 0.000000 
vertex  0.833333 -1.666667 0.000000 
vertex  0.833333 -2.500000 0.000000 
endloop 
endfacet 
facet normal  0.000000 0.000000 -1.000000 
outer loop 
vertex  0.833333 2.500000 0.000000 
vertex  0.833333 1.666667 0.000000 
vertex  0.000000 1.666667 0.000000 
endloop 
endfacet 
facet normal  0.000000 0.000000 -1.000000 
outer loop 
vertex  -0.833333 -4.166667 0.000000 
vertex  -1.666667 -3.333333 0.000000 
vertex  -0.833333 -3.333333 0.000000 
endloop 
endfacet 
facet normal  0.000000 0.000000 -1.000000 
outer loop 
vertex  -0.833333 3.333333 0.000000 
vertex  -1.666667 3.333333 0.000000 
vertex  -0.833333 4.166667 0.000000 
endloop 
endfacet 
facet normal  0.000000 0.000000 -1.000000 
outer loop 
vertex  -1.666667 -2.500000 0.000000 
vertex  -0.833333 -2.500000 0.000000 
vertex  -0.833333 -3.333333 0.000000 
endloop 
endfacet 
facet normal  0.000000 0.000000 -1.000000 
outer loop 
vertex  -0.833333 3.333333 0.000000 
vertex  -0.833333 2.500000 0.000000 
vertex  -1.666667 2.500000 0.000000 
endloop 
endfacet 
facet normal  0.000000 0.000000 -1.000000 
outer loop 
vertex  -1.666667 -4.166667 0.000000 
vertex  -1.666667 -3.333333 0.000000 
vertex  -0.833333 -4.166667 0.000000 
endloop 
endfacet 
facet normal  0.000000 0.000000 -1.000000 
outer loop 
vertex  -0.833333 4.166667 0.000000 
vertex  -1.666667 3.333333 0.000000 
vertex  -1.666667 4.166667 0.000000 
endloop 
endfacet 
facet normal  0.000000 0.000000 -1.000000 
outer loop 
vertex  -2.500000 -2.500000 0.000000 
vertex  -1.666667 -2.500000 0.000000 
vertex  -1.666667 -3.333333 0.000000 
endloop 
endfacet 
facet normal  0.000000 0.000000 -1.000000 
outer loop 
vertex  -1.666667 3.333333 0.000000 
vertex  -1.666667 2.500000 0.000000 
vertex  -2.500000 2.500000 0.000000 
endloop 
endfacet 
facet normal  0.000000 0.000000 -1.000000 
outer loop 
vertex  -1.666667 -2.500000 0.000000 
vertex  -0.833333 -3.333333 0.000000 
vertex  -1.666667 -3.333333 0.000000 
endloop 
endfacet 
facet normal  0.000000 0.000000 -1.000000 
outer loop 
vertex  -1.666667 3.333333 0.000000 
vertex  -0.833333 3.333333 0.000000 
vertex  -1.666667 2.500000 0.000000 
endloop 
endfacet 
facet normal  0.000000 0.000000 -1.000000 
outer loop 
vertex  -1.666667 0.000000 0.000000 
vertex  -1.666667 -0.833333 0.000000 
vertex  -2.500000 0.000000 0.000000 
endloop 
endfacet 
facet normal  0.000000 0.000000 -1.000000 
outer loop 
vertex  -2.500000 -0.000000 0.000000 
vertex  -1.666667 0.833333 0.000000 
vertex  -1.666667 -0.000000 0.000000 
endloop 
endfacet 
facet normal  0.000000 0.000000 -1.000000 
outer loop 
vertex  -2.500000 -1.666667 0.000000 
vertex  -3.333333 -0.833333 0.000000 
vertex  -2.500000 -0.833333 0.000000 
endloop 
endfacet 
facet normal  0.000000 0.000000 -1.000000 
outer loop 
vertex  -2.500000 0.833333 0.000000 
vertex  -3.333333 0.833333 0.000000 
vertex  -2.500000 1.666667 0.000000 
endloop 
endfacet 
facet normal  0.000000 0.000000 -1.000000 
outer loop 
vertex  -0.833333 -1.666667 0.000000 
vertex  -0.833333 -2.500000 0.000000 
vertex  -1.666667 -1.666667 0.000000 
endloop 
endfacet 
facet normal  0.000000 0.000000 -1.000000 
outer loop 
vertex  -1.666667 1.666667 0.000000 
vertex  -0.833333 2.500000 0.000000 
vertex  -0.833333 1.666667 0.000000 
endloop 
endfacet 
facet normal  0.000000 0.000000 -1.000000 
outer loop 
vertex  0.000000 -1.666667 0.000000 
vertex  0.833333 -2.500000 0.000000 
vertex  0.000000 -2.500000 0.000000 
endloop 
endfacet 
facet normal  0.000000 0.000000 -1.000000 
outer loop 
vertex  0.000000 2.500000 0.000000 
vertex  0.833333 2.500000 0.000000 
vertex  0.000000 1.666667 0.000000 
endloop 
endfacet 
facet normal  0.000000 0.000000 -1.000000 
outer loop 
vertex  -0.833333 -0.833333 0.000000 
vertex  -0.833333 -1.666667 0.000000 
vertex  -1.666667 -0.833333 0.000000 
endloop 
endfacet 
facet normal  0.000000 0.000000 -1.000000 
outer loop 
vertex  -1.666667 0.833333 0.000000 
vertex  -0.833333 1.666667 0.000000 
vertex  -0.833333 0.833333 0.000000 
endloop 
endfacet 
facet normal  0.000000 0.000000 -1.000000 
outer loop 
vertex  0.000000 0.000000 0.000000 
vertex  0.833333 -0.833333 0.000000 
vertex  0.000000 -0.833333 0.000000 
endloop 
endfacet 
facet normal  0.000000 0.000000 -1.000000 
outer loop 
vertex  0.000000 0.833333 0.000000 
vertex  0.833333 0.833333 0.000000 
vertex  0.000000 -0.000000 0.000000 
endloop 
endfacet 
facet normal  0.000000 0.000000 -1.000000 
outer loop 
vertex  -1.666667 -0.833333 0.000000 
vertex  -1.666667 -1.666667 0.000000 
vertex  -2.500000 -0.833333 0.000000 
endloop 
endfacet 
facet normal  0.000000 0.000000 -1.000000 
outer loop 
vertex  -2.500000 0.833333 0.000000 
vertex  -1.666667 1.666667 0.000000 
vertex  -1.666667 0.833333 0.000000 
endloop 
endfacet 
facet normal  0.000000 0.000000 -1.000000 
outer loop 
vertex  -1.666667 -1.666667 0.000000 
vertex  -0.833333 -2.500000 0.000000 
vertex  -1.666667 -2.500000 0.000000 
endloop 
endfacet 
facet normal  0.000000 0.000000 -1.000000 
outer loop 
vertex  -1.666667 2.500000 0.000000 
vertex  -0.833333 2.500000 0.000000 
vertex  -1.666667 1.666667 0.000000 
endloop 
endfacet 
facet normal  0.000000 0.000000 -1.000000 
outer loop 
vertex  -3.333333 -1.666667 0.000000 
vertex  -2.500000 -1.666667 0.000000 
vertex  -2.500000 -2.500000 0.000000 
endloop 
endfacet 
facet normal  0.000000 0.000000 -1.000000 
outer loop 
vertex  -2.500000 2.500000 0.000000 
vertex  -2.500000 1.666667 0.000000 
vertex  -3.333333 1.666667 0.000000 
endloop 
endfacet 
facet normal  0.000000 0.000000 -1.000000 
outer loop 
vertex  -2.500000 -1.666667 0.000000 
vertex  -1.666667 -2.500000 0.000000 
vertex  -2.500000 -2.500000 0.000000 
endloop 
endfacet 
facet normal  0.000000 0.000000 -1.000000 
outer loop 
vertex  -2.500000 2.500000 0.000000 
vertex  -1.666667 2.500000 0.000000 
vertex  -2.500000 1.666667 0.000000 
endloop 
endfacet 
facet normal  0.000000 0.000000 -1.000000 
outer loop 
vertex  -3.333333 -1.666667 0.000000 
vertex  -4.166667 -1.666667 0.000000 
vertex  -4.166667 -0.833333 0.000000 
endloop 
endfacet 
facet normal  0.000000 0.000000 -1.000000 
outer loop 
vertex  -4.166667 0.833333 0.000000 
vertex  -4.166667 1.666667 0.000000 
vertex  -3.333333 1.666667 0.000000 
endloop 
endfacet 
facet normal  0.000000 0.000000 -1.000000 
outer loop 
vertex  -3.333333 -0.833333 0.000000 
vertex  -4.166667 -0.833333 0.000000 
vertex  -4.166667 0.000000 0.000000 
endloop 
endfacet 
facet normal  0.000000 0.000000 -1.000000 
outer loop 
vertex  -4.166667 -0.000000 0.000000 
vertex  -4.166667 0.833333 0.000000 
vertex  -3.333333 0.833333 0.000000 
endloop 
endfacet 
facet normal  0.000000 0.000000 -1.000000 
outer loop 
vertex  -3.333333 0.000000 0.000000 
vertex  -3.333333 -0.833333 0.000000 
vertex  -4.166667 0.000000 0.000000 
endloop 
endfacet 
facet normal  0.000000 0.000000 -1.000000 
outer loop 
vertex  -4.166667 -0.000000 0.000000 
vertex  -3.333333 0.833333 0.000000 
vertex  -3.333333 -0.000000 0.000000 
endloop 
endfacet 
facet normal  0.000000 0.000000 -1.000000 
outer loop 
vertex  -3.333333 -0.833333 0.000000 
vertex  -3.333333 -1.666667 0.000000 
vertex  -4.166667 -0.833333 0.000000 
endloop 
endfacet 
facet normal  0.000000 0.000000 -1.000000 
outer loop 
vertex  -4.166667 0.833333 0.000000 
vertex  -3.333333 1.666667 0.000000 
vertex  -3.333333 0.833333 0.000000 
endloop 
endfacet 
facet normal  0.000000 0.000000 -1.000000 
outer loop 
vertex  -2.500000 -0.833333 0.000000 
vertex  -2.500000 0.000000 0.000000 
vertex  -1.666667 -0.833333 0.000000 
endloop 
endfacet 
facet normal  0.000000 0.000000 -1.000000 
outer loop 
vertex  -1.666667 0.833333 0.000000 
vertex  -2.500000 -0.000000 0.000000 
vertex  -2.500000 0.833333 0.000000 
endloop 
endfacet 
facet normal  0.000000 0.000000 -1.000000 
outer loop 
vertex  0.000000 -0.833333 0.000000 
vertex  -0.833333 -0.833333 0.000000 
vertex  -0.833333 0.000000 0.000000 
endloop 
endfacet 
facet normal  0.000000 0.000000 -1.000000 
outer loop 
vertex  -0.833333 -0.000000 0.000000 
vertex  -0.833333 0.833333 0.000000 
vertex  0.000000 0.833333 0.000000 
endloop 
endfacet 
facet normal  0.000000 0.000000 -1.000000 
outer loop 
vertex  1.666667 -0.833333 0.000000 
vertex  0.833333 0.000000 0.000000 
vertex  1.666667 0.000000 0.000000 
endloop 
endfacet 
facet normal  0.000000 0.000000 -1.000000 
outer loop 
vertex  1.666667 -0.000000 0.000000 
vertex  0.833333 -0.000000 0.000000 
vertex  1.666667 0.833333 0.000000 
endloop 
endfacet 
facet normal  0.000000 0.000000 -1.000000 
outer loop 
vertex  1.666667 -1.666667 0.000000 
vertex  0.833333 -1.666667 0.000000 
vertex  0.833333 -0.833333 0.000000 
endloop 
endfacet 
facet normal  0.000000 0.000000 -1.000000 
outer loop 
vertex  0.833333 0.833333 0.000000 
vertex  0.833333 1.666667 0.000000 
vertex  1.666667 1.666667 0.000000 
endloop 
endfacet 
facet normal  0.000000 0.000000 -1.000000 
outer loop 
vertex  2.500000 -1.666667 0.000000 
vertex  3.333333 -2.500000 0.000000 
vertex  2.500000 -2.500000 0.000000 
endloop 
endfacet 
facet normal  0.000000 0.000000 -1.000000 
outer loop 
vertex  2.500000 2.500000 0.000000 
vertex  3.333333 2.500000 0.000000 
vertex  2.500000 1.666667 0.000000 
endloop 
endfacet 
facet normal  0.000000 0.000000 -1.000000 
outer loop 
vertex  0.000000 -0.833333 0.000000 
vertex  0.833333 -0.833333 0.000000 
vertex  0.833333 -1.666667 0.000000 
endloop 
endfacet 
facet normal  0.000000 0.000000 -1.000000 
outer loop 
vertex  0.833333 1.666667 0.000000 
vertex  0.833333 0.833333 0.000000 
vertex  0.000000 0.833333 0.000000 
endloop 
endfacet 
facet normal  0.000000 0.000000 -1.000000 
outer loop 
vertex  0.833333 -0.833333 0.000000 
vertex  0.833333 0.000000 0.000000 
vertex  1.666667 -0.833333 0.000000 
endloop 
endfacet 
facet normal  0.000000 0.000000 -1.000000 
outer loop 
vertex  1.666667 0.833333 0.000000 
vertex  0.833333 -0.000000 0.000000 
vertex  0.833333 0.833333 0.000000 
endloop 
endfacet 
facet normal  0.000000 0.000000 -1.000000 
outer loop 
vertex  -0.833333 -0.833333 0.000000 
vertex  0.000000 -0.833333 0.000000 
vertex  0.000000 -1.666667 0.000000 
endloop 
endfacet 
facet normal  0.000000 0.000000 -1.000000 
outer loop 
vertex  0.000000 1.666667 0.000000 
vertex  0.000000 0.833333 0.000000 
vertex  -0.833333 0.833333 0.000000 
endloop 
endfacet 
facet normal  0.000000 0.000000 -1.000000 
outer loop 
vertex  0.000000 -0.833333 0.000000 
vertex  0.833333 -1.666667 0.000000 
vertex  0.000000 -1.666667 0.000000 
endloop 
endfacet 
facet normal  0.000000 0.000000 -1.000000 
outer loop 
vertex  0.000000 1.666667 0.000000 
vertex  0.833333 1.666667 0.000000 
vertex  0.000000 0.833333 0.000000 
endloop 
endfacet 
facet normal  0.000000 0.000000 -1.000000 
outer loop 
vertex  0.000000 -1.666667 0.000000 
vertex  0.000000 -2.500000 0.000000 
vertex  -0.833333 -1.666667 0.000000 
endloop 
endfacet 
facet normal  0.000000 0.000000 -1.000000 
outer loop 
vertex  -0.833333 1.666667 0.000000 
vertex  0.000000 2.500000 0.000000 
vertex  0.000000 1.666667 0.000000 
endloop 
endfacet 
facet normal  0.000000 0.000000 -1.000000 
outer loop 
vertex  1.666667 -0.833333 0.000000 
vertex  2.500000 -1.666667 0.000000 
vertex  1.666667 -1.666667 0.000000 
endloop 
endfacet 
facet normal  0.000000 0.000000 -1.000000 
outer loop 
vertex  1.666667 1.666667 0.000000 
vertex  2.500000 1.666667 0.000000 
vertex  1.666667 0.833333 0.000000 
endloop 
endfacet 
facet normal  0.000000 0.000000 -1.000000 
outer loop 
vertex  1.666667 -1.666667 0.000000 
vertex  1.666667 -2.500000 0.000000 
vertex  0.833333 -1.666667 0.000000 
endloop 
endfacet 
facet normal  0.000000 0.000000 -1.000000 
outer loop 
vertex  0.833333 1.666667 0.000000 
vertex  1.666667 2.500000 0.000000 
vertex  1.666667 1.666667 0.000000 
endloop 
endfacet 
facet normal  0.000000 0.000000 -1.000000 
outer loop 
vertex  1.666667 -2.500000 0.000000 
vertex  0.833333 -2.500000 0.000000 
vertex  0.833333 -1.666667 0.000000 
endloop 
endfacet 
facet normal  0.000000 0.000000 -1.000000 
outer loop 
vertex  0.833333 1.666667 0.000000 
vertex  0.833333 2.500000 0.000000 
vertex  1.666667 2.500000 0.000000 
endloop 
endfacet 
facet normal  0.000000 0.000000 -1.000000 
outer loop 
vertex  2.500000 -1.666667 0.000000 
vertex  2.500000 -2.500000 0.000000 
vertex  1.666667 -1.666667 0.000000 
endloop 
endfacet 
facet normal  0.000000 0.000000 -1.000000 
outer loop 
vertex  1.666667 1.666667 0.000000 
vertex  2.500000 2.500000 0.000000 
vertex  2.500000 1.666667 0.000000 
endloop 
endfacet 
facet normal  0.000000 0.000000 -1.000000 
outer loop 
vertex  2.500000 -2.500000 0.000000 
vertex  3.333333 -3.333333 0.000000 
vertex  2.500000 -3.333333 0.000000 
endloop 
endfacet 
facet normal  0.000000 0.000000 -1.000000 
outer loop 
vertex  2.500000 3.333333 0.000000 
vertex  3.333333 3.333333 0.000000 
vertex  2.500000 2.500000 0.000000 
endloop 
endfacet 
facet normal  0.000000 0.000000 -1.000000 
outer loop 
vertex  0.000000 -2.500000 0.000000 
vertex  0.833333 -2.500000 0.000000 
vertex  0.833333 -3.333333 0.000000 
endloop 
endfacet 
facet normal  0.000000 0.000000 -1.000000 
outer loop 
vertex  0.833333 3.333333 0.000000 
vertex  0.833333 2.500000 0.000000 
vertex  0.000000 2.500000 0.000000 
endloop 
endfacet 
facet normal  0.000000 0.000000 -1.000000 
outer loop 
vertex  1.666667 -1.666667 0.000000 
vertex  2.500000 -2.500000 0.000000 
vertex  1.666667 -2.500000 0.000000 
endloop 
endfacet 
facet normal  0.000000 0.000000 -1.000000 
outer loop 
vertex  1.666667 2.500000 0.000000 
vertex  2.500000 2.500000 0.000000 
vertex  1.666667 1.666667 0.000000 
endloop 
endfacet 
facet normal  0.000000 0.000000 -1.000000 
outer loop 
vertex  -0.833333 -2.500000 0.000000 
vertex  0.000000 -3.333333 0.000000 
vertex  -0.833333 -3.333333 0.000000 
endloop 
endfacet 
facet normal  0.000000 0.000000 -1.000000 
outer loop 
vertex  -0.833333 3.333333 0.000000 
vertex  0.000000 3.333333 0.000000 
vertex  -0.833333 2.500000 0.000000 
endloop 
endfacet 
facet normal  0.000000 0.000000 -1.000000 
outer loop 
vertex  0.000000 -3.333333 0.000000 
vertex  0.000000 -4.166667 0.000000 
vertex  -0.833333 -3.333333 0.000000 
endloop 
endfacet 
facet normal  0.000000 0.000000 -1.000000 
outer loop 
vertex  -0.833333 3.333333 0.000000 
vertex  0.000000 4.166667 0.000000 
vertex  0.000000 3.333333 0.000000 
endloop 
endfacet 
facet normal  0.000000 0.000000 -1.000000 
outer loop 
vertex  0.833333 -3.333333 0.000000 
vertex  0.000000 -3.333333 0.000000 
vertex  0.000000 -2.500000 0.000000 
endloop 
endfacet 
facet normal  0.000000 0.000000 -1.000000 
outer loop 
vertex  0.000000 2.500000 0.000000 
vertex  0.000000 3.333333 0.000000 
vertex  0.833333 3.333333 0.000000 
endloop 
endfacet 
facet normal  0.000000 0.000000 -1.000000 
outer loop 
vertex  0.000000 -3.333333 0.000000 
vertex  -0.833333 -2.500000 0.000000 
vertex  0.000000 -2.500000 0.000000 
endloop 
endfacet 
facet normal  0.000000 0.000000 -1.000000 
outer loop 
vertex  0.000000 2.500000 0.000000 
vertex  -0.833333 2.500000 0.000000 
vertex  0.000000 3.333333 0.000000 
endloop 
endfacet 
facet normal  0.000000 0.000000 -1.000000 
outer loop 
vertex  0.833333 -2.500000 0.000000 
vertex  1.666667 -2.500000 0.000000 
vertex  1.666667 -3.333333 0.000000 
endloop 
endfacet 
facet normal  0.000000 0.000000 -1.000000 
outer loop 
vertex  1.666667 3.333333 0.000000 
vertex  1.666667 2.500000 0.000000 
vertex  0.833333 2.500000 0.000000 
endloop 
endfacet 
facet normal  0.000000 0.000000 -1.000000 
outer loop 
vertex  0.000000 -3.333333 0.000000 
vertex  0.833333 -3.333333 0.000000 
vertex  0.833333 -4.166667 0.000000 
endloop 
endfacet 
facet normal  0.000000 0.000000 -1.000000 
outer loop 
vertex  0.833333 4.166667 0.000000 
vertex  0.833333 3.333333 0.000000 
vertex  0.000000 3.333333 0.000000 
endloop 
endfacet 
facet normal  0.000000 0.000000 -1.000000 
outer loop 
vertex  0.833333 -3.333333 0.000000 
vertex  1.666667 -4.166667 0.000000 
vertex  0.833333 -4.166667 0.000000 
endloop 
endfacet 
facet normal  0.000000 0.000000 -1.000000 
outer loop 
vertex  0.833333 4.166667 0.000000 
vertex  1.666667 4.166667 0.000000 
vertex  0.833333 3.333333 0.000000 
endloop 
endfacet 
facet normal  0.000000 0.000000 -1.000000 
outer loop 
vertex  1.666667 -3.333333 0.000000 
vertex  1.666667 -2.500000 0.000000 
vertex  2.500000 -3.333333 0.000000 
endloop 
endfacet 
facet normal  0.000000 0.000000 -1.000000 
outer loop 
vertex  2.500000 3.333333 0.000000 
vertex  1.666667 2.500000 0.000000 
vertex  1.666667 3.333333 0.000000 
endloop 
endfacet 
facet normal  0.000000 0.000000 -1.000000 
outer loop 
vertex  0.833333 -2.500000 0.000000 
vertex  1.666667 -3.333333 0.000000 
vertex  0.833333 -3.333333 0.000000 
endloop 
endfacet 
facet normal  0.000000 0.000000 -1.000000 
outer loop 
vertex  0.833333 3.333333 0.000000 
vertex  1.666667 3.333333 0.000000 
vertex  0.833333 2.500000 0.000000 
endloop 
endfacet 
facet normal  0.000000 0.000000 -1.000000 
outer loop 
vertex  1.666667 -2.500000 0.000000 
vertex  2.500000 -2.500000 0.000000 
vertex  2.500000 -3.333333 0.000000 
endloop 
endfacet 
facet normal  0.000000 0.000000 -1.000000 
outer loop 
vertex  2.500000 3.333333 0.000000 
vertex  2.500000 2.500000 0.000000 
vertex  1.666667 2.500000 0.000000 
endloop 
endfacet 
facet normal  0.000000 0.000000 -1.000000 
outer loop 
vertex  0.833333 -3.333333 0.000000 
vertex  1.666667 -3.333333 0.000000 
vertex  1.666667 -4.166667 0.000000 
endloop 
endfacet 
facet normal  0.000000 0.000000 -1.000000 
outer loop 
vertex  1.666667 4.166667 0.000000 
vertex  1.666667 3.333333 0.000000 
vertex  0.833333 3.333333 0.000000 
endloop 
endfacet 
facet normal  0.000000 0.000000 -1.000000 
outer loop 
vertex  1.666667 -3.333333 0.000000 
vertex  2.500000 -4.166667 0.000000 
vertex  1.666667 -4.166667 0.000000 
endloop 
endfacet 
facet normal  0.000000 0.000000 -1.000000 
outer loop 
vertex  1.666667 4.166667 0.000000 
vertex  2.500000 4.166667 0.000000 
vertex  1.666667 3.333333 0.000000 
endloop 
endfacet 
facet normal  0.000000 0.000000 -1.000000 
outer loop 
vertex  3.333333 -3.333333 0.000000 
vertex  2.500000 -2.500000 0.000000 
vertex  3.333333 -2.500000 0.000000 
endloop 
endfacet 
facet normal  0.000000 0.000000 -1.000000 
outer loop 
vertex  3.333333 2.500000 0.000000 
vertex  2.500000 2.500000 0.000000 
vertex  3.333333 3.333333 0.000000 
endloop 
endfacet 
endsolid Cuerno_13_Bendfacet 
