solid Cuerno_15_A 
facet normal  -0.331986 -0.149042 0.931435 
outer loop 
vertex  -2.142857 -0.714286 0.866394 
vertex  -2.857143 -0.714286 0.611805 
vertex  -2.142857 -1.428571 0.752098 
endloop 
endfacet 
facet normal  -0.331986 0.149042 0.931435 
outer loop 
vertex  -2.142857 1.428571 0.752098 
vertex  -2.857143 0.714286 0.611805 
vertex  -2.142857 0.714286 0.866394 
endloop 
endfacet 
facet normal  0.069228 -0.379027 0.922793 
outer loop 
vertex  0.000000 -3.571429 0.236019 
vertex  0.714286 -3.571429 0.182433 
vertex  0.000000 -2.857143 0.529403 
endloop 
endfacet 
facet normal  0.069228 0.379027 0.922793 
outer loop 
vertex  0.000000 2.857143 0.529403 
vertex  0.714286 3.571429 0.182433 
vertex  0.000000 3.571429 0.236019 
endloop 
endfacet 
facet normal  -0.067933 -0.236356 0.969289 
outer loop 
vertex  -1.428571 -1.428571 0.895298 
vertex  -1.428571 -2.142857 0.721123 
vertex  -0.714286 -2.142857 0.771184 
endloop 
endfacet 
facet normal  -0.067933 0.236356 0.969289 
outer loop 
vertex  -0.714286 2.142857 0.771184 
vertex  -1.428571 2.142857 0.721123 
vertex  -1.428571 1.428571 0.895298 
endloop 
endfacet 
facet normal  0.334179 0.014571 0.942397 
outer loop 
vertex  0.714286 -2.142857 0.534549 
vertex  1.428571 -2.142857 0.281259 
vertex  0.714286 -1.428571 0.523505 
endloop 
endfacet 
facet normal  0.334179 -0.014571 0.942397 
outer loop 
vertex  0.714286 1.428571 0.523505 
vertex  1.428571 2.142857 0.281259 
vertex  0.714286 2.142857 0.534549 
endloop 
endfacet 
facet normal  -0.020704 -0.191219 0.981329 
outer loop 
vertex  -1.428571 -1.428571 0.895298 
vertex  -0.714286 -2.142857 0.771184 
vertex  -0.714286 -1.428571 0.910368 
endloop 
endfacet 
facet normal  -0.020704 0.191219 0.981329 
outer loop 
vertex  -0.714286 1.428571 0.910368 
vertex  -0.714286 2.142857 0.771184 
vertex  -1.428571 1.428571 0.895298 
endloop 
endfacet 
facet normal  0.016437 -0.098932 0.994958 
outer loop 
vertex  -0.714286 -1.428571 0.910368 
vertex  -0.714286 -0.714286 0.981392 
vertex  -1.428571 -0.714286 0.993192 
endloop 
endfacet 
facet normal  0.016437 0.098932 0.994958 
outer loop 
vertex  -1.428571 0.714286 0.993192 
vertex  -0.714286 0.714286 0.981392 
vertex  -0.714286 1.428571 0.910368 
endloop 
endfacet 
facet normal  0.228802 -0.028830 0.973046 
outer loop 
vertex  -0.714286 0.000000 1.002555 
vertex  -0.714286 -0.714286 0.981392 
vertex  0.000000 -0.714286 0.813434 
endloop 
endfacet 
facet normal  0.228802 0.028830 0.973046 
outer loop 
vertex  0.000000 0.714286 0.813434 
vertex  -0.714286 0.714286 0.981392 
vertex  -0.714286 -0.000000 1.002555 
endloop 
endfacet 
facet normal  -0.464546 -0.054093 0.883895 
outer loop 
vertex  -3.571429 -0.714286 0.236400 
vertex  -2.857143 -0.714286 0.611805 
vertex  -3.571429 0.000000 0.280112 
endloop 
endfacet 
facet normal  -0.464546 0.054093 0.883895 
outer loop 
vertex  -3.571429 -0.000000 0.280112 
vertex  -2.857143 0.714286 0.611805 
vertex  -3.571429 0.714286 0.236400 
endloop 
endfacet 
facet normal  -0.364497 -0.056882 0.929466 
outer loop 
vertex  -3.571429 -0.714286 0.236400 
vertex  -3.571429 0.000000 0.280112 
vertex  -4.285714 0.000000 0.000000 
endloop 
endfacet 
facet normal  -0.364497 0.056882 0.929466 
outer loop 
vertex  -4.285714 -0.000000 0.000000 
vertex  -3.571429 -0.000000 0.280112 
vertex  -3.571429 0.714286 0.236400 
endloop 
endfacet 
facet normal  0.130790 -0.324302 0.936868 
outer loop 
vertex  0.714286 -3.571429 0.182433 
vertex  0.714286 -2.857143 0.429686 
vertex  0.000000 -2.857143 0.529403 
endloop 
endfacet 
facet normal  0.130790 0.324302 0.936868 
outer loop 
vertex  0.000000 2.857143 0.529403 
vertex  0.714286 2.857143 0.429686 
vertex  0.714286 3.571429 0.182433 
endloop 
endfacet 
facet normal  0.023819 0.023819 0.999432 
outer loop 
vertex  2.857143 -2.142857 0.000000 
vertex  2.142857 -1.428571 0.000000 
vertex  2.142857 -2.142857 0.017024 
endloop 
endfacet 
facet normal  0.023819 -0.023819 0.999432 
outer loop 
vertex  2.142857 2.142857 0.017024 
vertex  2.142857 1.428571 0.000000 
vertex  2.857143 2.142857 0.000000 
endloop 
endfacet 
facet normal  0.000000 -0.135997 0.990709 
outer loop 
vertex  -0.714286 -4.285714 0.000000 
vertex  -1.428571 -3.571429 0.098051 
vertex  -1.428571 -4.285714 0.000000 
endloop 
endfacet 
facet normal  0.000000 0.135997 0.990709 
outer loop 
vertex  -1.428571 4.285714 0.000000 
vertex  -1.428571 3.571429 0.098051 
vertex  -0.714286 4.285714 0.000000 
endloop 
endfacet 
facet normal  0.444261 -0.003218 0.895892 
outer loop 
vertex  0.000000 0.000000 0.816000 
vertex  0.000000 -0.714286 0.813434 
vertex  0.714286 -0.714286 0.459230 
endloop 
endfacet 
facet normal  0.444261 0.003218 0.895892 
outer loop 
vertex  0.714286 0.714286 0.459230 
vertex  0.000000 0.714286 0.813434 
vertex  0.000000 -0.000000 0.816000 
endloop 
endfacet 
facet normal  0.536154 0.130746 0.833933 
outer loop 
vertex  1.428571 -0.714286 0.000000 
vertex  0.714286 -0.714286 0.459230 
vertex  1.428571 -1.428571 0.111988 
endloop 
endfacet 
facet normal  0.536154 -0.130746 0.833933 
outer loop 
vertex  1.428571 1.428571 0.111988 
vertex  0.714286 0.714286 0.459230 
vertex  1.428571 0.714286 0.000000 
endloop 
endfacet 
facet normal  -0.107051 -0.418505 0.901883 
outer loop 
vertex  -0.714286 -2.857143 0.543630 
vertex  -1.428571 -2.857143 0.458846 
vertex  -0.714286 -3.571429 0.212177 
endloop 
endfacet 
facet normal  -0.107051 0.418505 0.901883 
outer loop 
vertex  -0.714286 3.571429 0.212177 
vertex  -1.428571 2.857143 0.458846 
vertex  -0.714286 2.857143 0.543630 
endloop 
endfacet 
facet normal  0.088578 -0.190509 0.977681 
outer loop 
vertex  0.000000 -2.142857 0.706469 
vertex  -0.714286 -1.428571 0.910368 
vertex  -0.714286 -2.142857 0.771184 
endloop 
endfacet 
facet normal  0.088578 0.190509 0.977681 
outer loop 
vertex  -0.714286 2.142857 0.771184 
vertex  -0.714286 1.428571 0.910368 
vertex  0.000000 2.142857 0.706469 
endloop 
endfacet 
facet normal  0.344638 0.115282 0.931630 
outer loop 
vertex  1.428571 -2.142857 0.281259 
vertex  2.142857 -2.857143 0.105411 
vertex  2.142857 -2.142857 0.017024 
endloop 
endfacet 
facet normal  0.344638 -0.115282 0.931630 
outer loop 
vertex  2.142857 2.142857 0.017024 
vertex  2.142857 2.857143 0.105411 
vertex  1.428571 2.142857 0.281259 
endloop 
endfacet 
facet normal  -0.356214 -0.135273 0.924561 
outer loop 
vertex  -3.571429 -1.428571 0.104507 
vertex  -3.571429 -2.142857 0.000000 
vertex  -2.857143 -2.142857 0.275199 
endloop 
endfacet 
facet normal  -0.356214 0.135273 0.924561 
outer loop 
vertex  -2.857143 2.142857 0.275199 
vertex  -3.571429 2.142857 0.000000 
vertex  -3.571429 1.428571 0.104507 
endloop 
endfacet 
facet normal  -0.338318 -0.338318 0.878113 
outer loop 
vertex  -3.571429 -2.142857 0.000000 
vertex  -2.857143 -2.857143 0.000000 
vertex  -2.857143 -2.142857 0.275199 
endloop 
endfacet 
facet normal  -0.338318 0.338318 0.878113 
outer loop 
vertex  -2.857143 2.142857 0.275199 
vertex  -2.857143 2.857143 0.000000 
vertex  -3.571429 2.142857 0.000000 
endloop 
endfacet 
facet normal  -0.134756 -0.134756 0.981673 
outer loop 
vertex  -1.428571 -3.571429 0.098051 
vertex  -2.142857 -3.571429 0.000000 
vertex  -1.428571 -4.285714 0.000000 
endloop 
endfacet 
facet normal  -0.134756 0.134756 0.981673 
outer loop 
vertex  -1.428571 4.285714 0.000000 
vertex  -2.142857 3.571429 0.000000 
vertex  -1.428571 3.571429 0.098051 
endloop 
endfacet 
facet normal  -0.066630 -0.302870 0.950700 
outer loop 
vertex  -1.428571 -2.142857 0.721123 
vertex  -0.714286 -2.857143 0.543630 
vertex  -0.714286 -2.142857 0.771184 
endloop 
endfacet 
facet normal  -0.066630 0.302870 0.950700 
outer loop 
vertex  -0.714286 2.142857 0.771184 
vertex  -0.714286 2.857143 0.543630 
vertex  -1.428571 2.142857 0.721123 
endloop 
endfacet 
facet normal  0.018420 -0.379874 0.924855 
outer loop 
vertex  0.000000 -3.571429 0.236019 
vertex  0.000000 -2.857143 0.529403 
vertex  -0.714286 -2.857143 0.543630 
endloop 
endfacet 
facet normal  0.018420 0.379874 0.924855 
outer loop 
vertex  -0.714286 2.857143 0.543630 
vertex  0.000000 2.857143 0.529403 
vertex  0.000000 3.571429 0.236019 
endloop 
endfacet 
facet normal  0.087601 -0.239685 0.966890 
outer loop 
vertex  -0.714286 -2.142857 0.771184 
vertex  0.000000 -2.857143 0.529403 
vertex  0.000000 -2.142857 0.706469 
endloop 
endfacet 
facet normal  0.087601 0.239685 0.966890 
outer loop 
vertex  0.000000 2.142857 0.706469 
vertex  0.000000 2.857143 0.529403 
vertex  -0.714286 2.142857 0.771184 
endloop 
endfacet 
facet normal  0.000000 -0.284750 0.958602 
outer loop 
vertex  -0.714286 -3.571429 0.212177 
vertex  -0.714286 -4.285714 0.000000 
vertex  0.000000 -4.285714 0.000000 
endloop 
endfacet 
facet normal  0.000000 0.284750 0.958602 
outer loop 
vertex  0.000000 4.285714 0.000000 
vertex  -0.714286 4.285714 0.000000 
vertex  -0.714286 3.571429 0.212177 
endloop 
endfacet 
facet normal  -0.151395 -0.281468 0.947552 
outer loop 
vertex  -0.714286 -3.571429 0.212177 
vertex  -1.428571 -3.571429 0.098051 
vertex  -0.714286 -4.285714 0.000000 
endloop 
endfacet 
facet normal  -0.151395 0.281468 0.947552 
outer loop 
vertex  -0.714286 4.285714 0.000000 
vertex  -1.428571 3.571429 0.098051 
vertex  -0.714286 3.571429 0.212177 
endloop 
endfacet 
facet normal  -0.031678 -0.313585 0.949032 
outer loop 
vertex  0.000000 -4.285714 0.000000 
vertex  0.000000 -3.571429 0.236019 
vertex  -0.714286 -3.571429 0.212177 
endloop 
endfacet 
facet normal  -0.031678 0.313585 0.949032 
outer loop 
vertex  -0.714286 3.571429 0.212177 
vertex  0.000000 3.571429 0.236019 
vertex  0.000000 4.285714 0.000000 
endloop 
endfacet 
facet normal  -0.342117 -0.349611 0.872197 
outer loop 
vertex  -2.142857 -2.857143 0.269062 
vertex  -2.142857 -2.142857 0.555376 
vertex  -2.857143 -2.142857 0.275199 
endloop 
endfacet 
facet normal  -0.342117 0.349611 0.872197 
outer loop 
vertex  -2.857143 2.142857 0.275199 
vertex  -2.142857 2.142857 0.555376 
vertex  -2.142857 2.857143 0.269062 
endloop 
endfacet 
facet normal  0.018974 -0.303490 0.952646 
outer loop 
vertex  0.000000 -2.857143 0.529403 
vertex  -0.714286 -2.142857 0.771184 
vertex  -0.714286 -2.857143 0.543630 
endloop 
endfacet 
facet normal  0.018974 0.303490 0.952646 
outer loop 
vertex  -0.714286 2.857143 0.543630 
vertex  -0.714286 2.142857 0.771184 
vertex  0.000000 2.857143 0.529403 
endloop 
endfacet 
facet normal  -0.459758 -0.152881 0.874785 
outer loop 
vertex  -2.857143 -1.428571 0.486973 
vertex  -2.857143 -0.714286 0.611805 
vertex  -3.571429 -0.714286 0.236400 
endloop 
endfacet 
facet normal  -0.459758 0.152881 0.874785 
outer loop 
vertex  -3.571429 0.714286 0.236400 
vertex  -2.857143 0.714286 0.611805 
vertex  -2.857143 1.428571 0.486973 
endloop 
endfacet 
facet normal  -0.332456 -0.332456 0.882579 
outer loop 
vertex  -2.142857 -3.571429 0.000000 
vertex  -2.142857 -2.857143 0.269062 
vertex  -2.857143 -2.857143 0.000000 
endloop 
endfacet 
facet normal  -0.332456 0.332456 0.882579 
outer loop 
vertex  -2.857143 2.857143 0.000000 
vertex  -2.142857 2.857143 0.269062 
vertex  -2.142857 3.571429 0.000000 
endloop 
endfacet 
facet normal  -0.127413 -0.349634 0.928182 
outer loop 
vertex  -2.142857 -3.571429 0.000000 
vertex  -1.428571 -3.571429 0.098051 
vertex  -2.142857 -2.857143 0.269062 
endloop 
endfacet 
facet normal  -0.127413 0.349634 0.928182 
outer loop 
vertex  -2.142857 2.857143 0.269062 
vertex  -1.428571 3.571429 0.098051 
vertex  -2.142857 3.571429 0.000000 
endloop 
endfacet 
facet normal  -0.230758 -0.438692 0.868504 
outer loop 
vertex  -1.428571 -3.571429 0.098051 
vertex  -1.428571 -2.857143 0.458846 
vertex  -2.142857 -2.857143 0.269062 
endloop 
endfacet 
facet normal  -0.230758 0.438692 0.868504 
outer loop 
vertex  -2.142857 2.857143 0.269062 
vertex  -1.428571 2.857143 0.458846 
vertex  -1.428571 3.571429 0.098051 
endloop 
endfacet 
facet normal  -0.141186 -0.446344 0.883654 
outer loop 
vertex  -1.428571 -3.571429 0.098051 
vertex  -0.714286 -3.571429 0.212177 
vertex  -1.428571 -2.857143 0.458846 
endloop 
endfacet 
facet normal  -0.141186 0.446344 0.883654 
outer loop 
vertex  -1.428571 2.857143 0.458846 
vertex  -0.714286 3.571429 0.212177 
vertex  -1.428571 3.571429 0.098051 
endloop 
endfacet 
facet normal  -0.336929 -0.250000 0.907733 
outer loop 
vertex  -2.857143 -1.428571 0.486973 
vertex  -2.142857 -2.142857 0.555376 
vertex  -2.142857 -1.428571 0.752098 
endloop 
endfacet 
facet normal  -0.336929 0.250000 0.907733 
outer loop 
vertex  -2.142857 1.428571 0.752098 
vertex  -2.142857 2.142857 0.555376 
vertex  -2.857143 1.428571 0.486973 
endloop 
endfacet 
facet normal  -0.239447 -0.361239 0.901206 
outer loop 
vertex  -2.142857 -2.857143 0.269062 
vertex  -1.428571 -2.857143 0.458846 
vertex  -2.142857 -2.142857 0.555376 
endloop 
endfacet 
facet normal  -0.239447 0.361239 0.901206 
outer loop 
vertex  -2.142857 2.142857 0.555376 
vertex  -1.428571 2.857143 0.458846 
vertex  -2.142857 2.857143 0.269062 
endloop 
endfacet 
facet normal  -0.212835 -0.336789 0.917210 
outer loop 
vertex  -1.428571 -2.857143 0.458846 
vertex  -1.428571 -2.142857 0.721123 
vertex  -2.142857 -2.142857 0.555376 
endloop 
endfacet 
facet normal  -0.212835 0.336789 0.917210 
outer loop 
vertex  -2.142857 2.142857 0.555376 
vertex  -1.428571 2.142857 0.721123 
vertex  -1.428571 2.857143 0.458846 
endloop 
endfacet 
facet normal  -0.110738 -0.342566 0.932944 
outer loop 
vertex  -1.428571 -2.857143 0.458846 
vertex  -0.714286 -2.857143 0.543630 
vertex  -1.428571 -2.142857 0.721123 
endloop 
endfacet 
facet normal  -0.110738 0.342566 0.932944 
outer loop 
vertex  -1.428571 2.142857 0.721123 
vertex  -0.714286 2.857143 0.543630 
vertex  -1.428571 2.857143 0.458846 
endloop 
endfacet 
facet normal  -0.020898 -0.135753 0.990522 
outer loop 
vertex  -1.428571 -0.714286 0.993192 
vertex  -1.428571 -1.428571 0.895298 
vertex  -0.714286 -1.428571 0.910368 
endloop 
endfacet 
facet normal  -0.020898 0.135753 0.990522 
outer loop 
vertex  -0.714286 1.428571 0.910368 
vertex  -1.428571 1.428571 0.895298 
vertex  -1.428571 0.714286 0.993192 
endloop 
endfacet 
facet normal  -0.191180 -0.232534 0.953613 
outer loop 
vertex  -2.142857 -1.428571 0.752098 
vertex  -1.428571 -2.142857 0.721123 
vertex  -1.428571 -1.428571 0.895298 
endloop 
endfacet 
facet normal  -0.191180 0.232534 0.953613 
outer loop 
vertex  -1.428571 1.428571 0.895298 
vertex  -1.428571 2.142857 0.721123 
vertex  -2.142857 1.428571 0.752098 
endloop 
endfacet 
facet normal  -0.330872 -0.049343 0.942385 
outer loop 
vertex  -2.142857 0.000000 0.903793 
vertex  -2.857143 0.000000 0.653007 
vertex  -2.142857 -0.714286 0.866394 
endloop 
endfacet 
facet normal  -0.330872 0.049343 0.942385 
outer loop 
vertex  -2.142857 0.714286 0.866394 
vertex  -2.857143 -0.000000 0.653007 
vertex  -2.142857 -0.000000 0.903793 
endloop 
endfacet 
facet normal  -0.218319 -0.259120 0.940847 
outer loop 
vertex  -1.428571 -2.142857 0.721123 
vertex  -2.142857 -1.428571 0.752098 
vertex  -2.142857 -2.142857 0.555376 
endloop 
endfacet 
facet normal  -0.218319 0.259120 0.940847 
outer loop 
vertex  -2.142857 2.142857 0.555376 
vertex  -2.142857 1.428571 0.752098 
vertex  -1.428571 2.142857 0.721123 
endloop 
endfacet 
facet normal  -0.173215 -0.133730 0.975763 
outer loop 
vertex  -1.428571 -1.428571 0.895298 
vertex  -1.428571 -0.714286 0.993192 
vertex  -2.142857 -0.714286 0.866394 
endloop 
endfacet 
facet normal  -0.173215 0.133730 0.975763 
outer loop 
vertex  -2.142857 0.714286 0.866394 
vertex  -1.428571 0.714286 0.993192 
vertex  -1.428571 1.428571 0.895298 
endloop 
endfacet 
facet normal  -0.194192 -0.154995 0.968641 
outer loop 
vertex  -1.428571 -1.428571 0.895298 
vertex  -2.142857 -0.714286 0.866394 
vertex  -2.142857 -1.428571 0.752098 
endloop 
endfacet 
facet normal  -0.194192 0.154995 0.968641 
outer loop 
vertex  -2.142857 1.428571 0.752098 
vertex  -2.142857 0.714286 0.866394 
vertex  -1.428571 1.428571 0.895298 
endloop 
endfacet 
facet normal  -0.143275 -0.143275 0.979257 
outer loop 
vertex  -4.285714 -1.428571 0.000000 
vertex  -3.571429 -2.142857 0.000000 
vertex  -3.571429 -1.428571 0.104507 
endloop 
endfacet 
facet normal  -0.143275 0.143275 0.979257 
outer loop 
vertex  -3.571429 1.428571 0.104507 
vertex  -3.571429 2.142857 0.000000 
vertex  -4.285714 1.428571 0.000000 
endloop 
endfacet 
facet normal  -0.144769 0.000000 0.989466 
outer loop 
vertex  -3.571429 -1.428571 0.104507 
vertex  -4.285714 -0.714286 0.000000 
vertex  -4.285714 -1.428571 0.000000 
endloop 
endfacet 
facet normal  -0.144769 -0.000000 0.989466 
outer loop 
vertex  -4.285714 1.428571 0.000000 
vertex  -4.285714 0.714286 0.000000 
vertex  -3.571429 1.428571 0.104507 
endloop 
endfacet 
facet normal  -0.331612 -0.339175 0.880337 
outer loop 
vertex  -2.857143 -2.857143 0.000000 
vertex  -2.142857 -2.857143 0.269062 
vertex  -2.857143 -2.142857 0.275199 
endloop 
endfacet 
facet normal  -0.331612 0.339175 0.880337 
outer loop 
vertex  -2.857143 2.142857 0.275199 
vertex  -2.142857 2.857143 0.269062 
vertex  -2.857143 2.857143 0.000000 
endloop 
endfacet 
facet normal  -0.351999 -0.266061 0.897390 
outer loop 
vertex  -2.142857 -2.142857 0.555376 
vertex  -2.857143 -1.428571 0.486973 
vertex  -2.857143 -2.142857 0.275199 
endloop 
endfacet 
facet normal  -0.351999 0.266061 0.897390 
outer loop 
vertex  -2.857143 2.142857 0.275199 
vertex  -2.857143 1.428571 0.486973 
vertex  -2.142857 2.142857 0.555376 
endloop 
endfacet 
facet normal  -0.343400 -0.161686 0.925167 
outer loop 
vertex  -2.142857 -1.428571 0.752098 
vertex  -2.857143 -0.714286 0.611805 
vertex  -2.857143 -1.428571 0.486973 
endloop 
endfacet 
facet normal  -0.343400 0.161686 0.925167 
outer loop 
vertex  -2.857143 1.428571 0.486973 
vertex  -2.857143 0.714286 0.611805 
vertex  -2.142857 1.428571 0.752098 
endloop 
endfacet 
facet normal  -0.456700 -0.252877 0.852923 
outer loop 
vertex  -2.857143 -1.428571 0.486973 
vertex  -3.571429 -1.428571 0.104507 
vertex  -2.857143 -2.142857 0.275199 
endloop 
endfacet 
facet normal  -0.456700 0.252877 0.852923 
outer loop 
vertex  -2.857143 2.142857 0.275199 
vertex  -3.571429 1.428571 0.104507 
vertex  -2.857143 1.428571 0.486973 
endloop 
endfacet 
facet normal  -0.465909 -0.160668 0.870123 
outer loop 
vertex  -3.571429 -0.714286 0.236400 
vertex  -3.571429 -1.428571 0.104507 
vertex  -2.857143 -1.428571 0.486973 
endloop 
endfacet 
facet normal  -0.465909 0.160668 0.870123 
outer loop 
vertex  -2.857143 1.428571 0.486973 
vertex  -3.571429 1.428571 0.104507 
vertex  -3.571429 0.714286 0.236400 
endloop 
endfacet 
facet normal  -0.309480 -0.172665 0.935098 
outer loop 
vertex  -3.571429 -0.714286 0.236400 
vertex  -4.285714 -0.714286 0.000000 
vertex  -3.571429 -1.428571 0.104507 
endloop 
endfacet 
facet normal  -0.309480 0.172665 0.935098 
outer loop 
vertex  -3.571429 1.428571 0.104507 
vertex  -4.285714 0.714286 0.000000 
vertex  -3.571429 0.714286 0.236400 
endloop 
endfacet 
facet normal  -0.314199 0.000000 0.949357 
outer loop 
vertex  -4.285714 -0.714286 0.000000 
vertex  -3.571429 -0.714286 0.236400 
vertex  -4.285714 0.000000 0.000000 
endloop 
endfacet 
facet normal  -0.314199 -0.000000 0.949357 
outer loop 
vertex  -4.285714 -0.000000 0.000000 
vertex  -3.571429 0.714286 0.236400 
vertex  -4.285714 0.714286 0.000000 
endloop 
endfacet 
facet normal  -0.462180 -0.051068 0.885314 
outer loop 
vertex  -2.857143 -0.714286 0.611805 
vertex  -2.857143 0.000000 0.653007 
vertex  -3.571429 0.000000 0.280112 
endloop 
endfacet 
facet normal  -0.462180 0.051068 0.885314 
outer loop 
vertex  -3.571429 -0.000000 0.280112 
vertex  -2.857143 -0.000000 0.653007 
vertex  -2.857143 0.714286 0.611805 
endloop 
endfacet 
facet normal  -0.335242 -0.054255 0.940569 
outer loop 
vertex  -2.857143 -0.714286 0.611805 
vertex  -2.142857 -0.714286 0.866394 
vertex  -2.857143 0.000000 0.653007 
endloop 
endfacet 
facet normal  -0.335242 0.054255 0.940569 
outer loop 
vertex  -2.857143 -0.000000 0.653007 
vertex  -2.142857 0.714286 0.866394 
vertex  -2.857143 0.714286 0.611805 
endloop 
endfacet 
facet normal  -0.174553 -0.051485 0.983301 
outer loop 
vertex  -1.428571 -0.714286 0.993192 
vertex  -2.142857 0.000000 0.903793 
vertex  -2.142857 -0.714286 0.866394 
endloop 
endfacet 
facet normal  -0.174553 0.051485 0.983301 
outer loop 
vertex  -2.142857 0.714286 0.866394 
vertex  -2.142857 -0.000000 0.903793 
vertex  -1.428571 0.714286 0.993192 
endloop 
endfacet 
facet normal  -0.166538 -0.043246 0.985086 
outer loop 
vertex  -1.428571 -0.714286 0.993192 
vertex  -1.428571 0.000000 1.024550 
vertex  -2.142857 0.000000 0.903793 
endloop 
endfacet 
facet normal  -0.166538 0.043246 0.985086 
outer loop 
vertex  -2.142857 -0.000000 0.903793 
vertex  -1.428571 -0.000000 1.024550 
vertex  -1.428571 0.714286 0.993192 
endloop 
endfacet 
facet normal  0.016502 -0.043853 0.998902 
outer loop 
vertex  -1.428571 -0.714286 0.993192 
vertex  -0.714286 -0.714286 0.981392 
vertex  -1.428571 0.000000 1.024550 
endloop 
endfacet 
facet normal  0.016502 0.043853 0.998902 
outer loop 
vertex  -1.428571 -0.000000 1.024550 
vertex  -0.714286 0.714286 0.981392 
vertex  -1.428571 0.714286 0.993192 
endloop 
endfacet 
facet normal  0.030764 -0.029602 0.999088 
outer loop 
vertex  -1.428571 0.000000 1.024550 
vertex  -0.714286 -0.714286 0.981392 
vertex  -0.714286 0.000000 1.002555 
endloop 
endfacet 
facet normal  0.030764 0.029602 0.999088 
outer loop 
vertex  -0.714286 -0.000000 1.002555 
vertex  -0.714286 0.714286 0.981392 
vertex  -1.428571 -0.000000 1.024550 
endloop 
endfacet 
facet normal  0.153065 0.153065 0.976290 
outer loop 
vertex  1.428571 -0.714286 0.000000 
vertex  1.428571 -1.428571 0.111988 
vertex  2.142857 -1.428571 0.000000 
endloop 
endfacet 
facet normal  0.153065 -0.153065 0.976290 
outer loop 
vertex  2.142857 1.428571 0.000000 
vertex  1.428571 1.428571 0.111988 
vertex  1.428571 0.714286 0.000000 
endloop 
endfacet 
facet normal  0.334190 -0.012143 0.942427 
outer loop 
vertex  1.428571 -2.142857 0.281259 
vertex  0.714286 -2.142857 0.534549 
vertex  1.428571 -2.857143 0.272056 
endloop 
endfacet 
facet normal  0.334190 0.012143 0.942427 
outer loop 
vertex  1.428571 2.857143 0.272056 
vertex  0.714286 2.142857 0.534549 
vertex  1.428571 2.142857 0.281259 
endloop 
endfacet 
facet normal  0.338687 0.216965 0.915542 
outer loop 
vertex  1.428571 -1.428571 0.111988 
vertex  1.428571 -2.142857 0.281259 
vertex  2.142857 -2.142857 0.017024 
endloop 
endfacet 
facet normal  0.338687 -0.216965 0.915542 
outer loop 
vertex  2.142857 2.142857 0.017024 
vertex  1.428571 2.142857 0.281259 
vertex  1.428571 1.428571 0.111988 
endloop 
endfacet 
facet normal  0.489001 0.201143 0.848776 
outer loop 
vertex  1.428571 -1.428571 0.111988 
vertex  0.714286 -1.428571 0.523505 
vertex  1.428571 -2.142857 0.281259 
endloop 
endfacet 
facet normal  0.489001 -0.201143 0.848776 
outer loop 
vertex  1.428571 2.142857 0.281259 
vertex  0.714286 1.428571 0.523505 
vertex  1.428571 1.428571 0.111988 
endloop 
endfacet 
facet normal  0.497693 0.077735 0.863863 
outer loop 
vertex  0.714286 -0.714286 0.459230 
vertex  0.714286 -1.428571 0.523505 
vertex  1.428571 -1.428571 0.111988 
endloop 
endfacet 
facet normal  0.497693 -0.077735 0.863863 
outer loop 
vertex  1.428571 1.428571 0.111988 
vertex  0.714286 1.428571 0.523505 
vertex  0.714286 0.714286 0.459230 
endloop 
endfacet 
facet normal  0.154848 0.023539 0.987658 
outer loop 
vertex  2.142857 -2.142857 0.017024 
vertex  2.142857 -1.428571 0.000000 
vertex  1.428571 -1.428571 0.111988 
endloop 
endfacet 
facet normal  0.154848 -0.023539 0.987658 
outer loop 
vertex  1.428571 1.428571 0.111988 
vertex  2.142857 1.428571 0.000000 
vertex  2.142857 2.142857 0.017024 
endloop 
endfacet 
facet normal  0.510541 0.000000 0.859853 
outer loop 
vertex  1.428571 0.000000 0.000000 
vertex  0.714286 0.000000 0.424110 
vertex  1.428571 -0.714286 0.000000 
endloop 
endfacet 
facet normal  0.510541 -0.000000 0.859853 
outer loop 
vertex  1.428571 0.714286 0.000000 
vertex  0.714286 -0.000000 0.424110 
vertex  1.428571 -0.000000 0.000000 
endloop 
endfacet 
facet normal  0.442826 0.080357 0.892999 
outer loop 
vertex  0.714286 -0.714286 0.459230 
vertex  0.000000 -0.714286 0.813434 
vertex  0.714286 -1.428571 0.523505 
endloop 
endfacet 
facet normal  0.442826 -0.080357 0.892999 
outer loop 
vertex  0.714286 1.428571 0.523505 
vertex  0.000000 0.714286 0.813434 
vertex  0.714286 0.714286 0.459230 
endloop 
endfacet 
facet normal  0.252699 -0.003475 0.967539 
outer loop 
vertex  0.000000 0.000000 0.816000 
vertex  -0.714286 0.000000 1.002555 
vertex  0.000000 -0.714286 0.813434 
endloop 
endfacet 
facet normal  0.252699 0.003475 0.967539 
outer loop 
vertex  0.000000 0.714286 0.813434 
vertex  -0.714286 -0.000000 1.002555 
vertex  0.000000 -0.000000 0.816000 
endloop 
endfacet 
facet normal  0.540334 0.041322 0.840435 
outer loop 
vertex  0.714286 0.000000 0.424110 
vertex  0.714286 -0.714286 0.459230 
vertex  1.428571 -0.714286 0.000000 
endloop 
endfacet 
facet normal  0.540334 -0.041322 0.840435 
outer loop 
vertex  1.428571 0.714286 0.000000 
vertex  0.714286 0.714286 0.459230 
vertex  0.714286 -0.000000 0.424110 
endloop 
endfacet 
facet normal  0.480561 0.043066 0.875903 
outer loop 
vertex  0.714286 0.000000 0.424110 
vertex  0.000000 0.000000 0.816000 
vertex  0.714286 -0.714286 0.459230 
endloop 
endfacet 
facet normal  0.480561 -0.043066 0.875903 
outer loop 
vertex  0.714286 0.714286 0.459230 
vertex  0.000000 -0.000000 0.816000 
vertex  0.714286 -0.000000 0.424110 
endloop 
endfacet 
facet normal  0.232533 -0.112025 0.966115 
outer loop 
vertex  0.000000 -2.142857 0.706469 
vertex  0.714286 -2.142857 0.534549 
vertex  0.000000 -1.428571 0.789294 
endloop 
endfacet 
facet normal  0.232533 0.112025 0.966115 
outer loop 
vertex  0.000000 1.428571 0.789294 
vertex  0.714286 2.142857 0.534549 
vertex  0.000000 2.142857 0.706469 
endloop 
endfacet 
facet normal  0.166323 -0.097567 0.981233 
outer loop 
vertex  0.000000 -1.428571 0.789294 
vertex  -0.714286 -0.714286 0.981392 
vertex  -0.714286 -1.428571 0.910368 
endloop 
endfacet 
facet normal  0.166323 0.097567 0.981233 
outer loop 
vertex  -0.714286 1.428571 0.910368 
vertex  -0.714286 0.714286 0.981392 
vertex  0.000000 1.428571 0.789294 
endloop 
endfacet 
facet normal  0.348568 -0.031659 0.936749 
outer loop 
vertex  0.000000 -0.714286 0.813434 
vertex  0.000000 -1.428571 0.789294 
vertex  0.714286 -1.428571 0.523505 
endloop 
endfacet 
facet normal  0.348568 0.031659 0.936749 
outer loop 
vertex  0.714286 1.428571 0.523505 
vertex  0.000000 1.428571 0.789294 
vertex  0.000000 0.714286 0.813434 
endloop 
endfacet 
facet normal  0.228774 -0.032882 0.972924 
outer loop 
vertex  0.000000 -0.714286 0.813434 
vertex  -0.714286 -0.714286 0.981392 
vertex  0.000000 -1.428571 0.789294 
endloop 
endfacet 
facet normal  0.228774 0.032882 0.972924 
outer loop 
vertex  0.000000 1.428571 0.789294 
vertex  -0.714286 0.714286 0.981392 
vertex  0.000000 0.714286 0.813434 
endloop 
endfacet 
facet normal  0.348706 0.014489 0.937120 
outer loop 
vertex  0.000000 -1.428571 0.789294 
vertex  0.714286 -2.142857 0.534549 
vertex  0.714286 -1.428571 0.523505 
endloop 
endfacet 
facet normal  0.348706 -0.014489 0.937120 
outer loop 
vertex  0.714286 1.428571 0.523505 
vertex  0.714286 2.142857 0.534549 
vertex  0.000000 1.428571 0.789294 
endloop 
endfacet 
facet normal  0.213317 -0.141908 0.966622 
outer loop 
vertex  0.714286 -2.857143 0.429686 
vertex  1.428571 -2.857143 0.272056 
vertex  0.714286 -2.142857 0.534549 
endloop 
endfacet 
facet normal  0.213317 0.141908 0.966622 
outer loop 
vertex  0.714286 2.142857 0.534549 
vertex  1.428571 2.857143 0.272056 
vertex  0.714286 2.857143 0.429686 
endloop 
endfacet 
facet normal  0.152494 -0.098664 0.983367 
outer loop 
vertex  1.428571 -4.285714 0.000000 
vertex  1.428571 -3.571429 0.071666 
vertex  0.714286 -3.571429 0.182433 
endloop 
endfacet 
facet normal  0.152494 0.098664 0.983367 
outer loop 
vertex  0.714286 3.571429 0.182433 
vertex  1.428571 3.571429 0.071666 
vertex  1.428571 4.285714 0.000000 
endloop 
endfacet 
facet normal  0.227184 -0.012547 0.973771 
outer loop 
vertex  2.142857 -2.857143 0.105411 
vertex  1.428571 -2.142857 0.281259 
vertex  1.428571 -2.857143 0.272056 
endloop 
endfacet 
facet normal  0.227184 0.012547 0.973771 
outer loop 
vertex  1.428571 2.857143 0.272056 
vertex  1.428571 2.142857 0.281259 
vertex  2.142857 2.857143 0.105411 
endloop 
endfacet 
facet normal  -0.030264 -0.420731 0.906681 
outer loop 
vertex  -0.714286 -3.571429 0.212177 
vertex  0.000000 -3.571429 0.236019 
vertex  -0.714286 -2.857143 0.543630 
endloop 
endfacet 
facet normal  -0.030264 0.420731 0.906681 
outer loop 
vertex  -0.714286 2.857143 0.543630 
vertex  0.000000 3.571429 0.236019 
vertex  -0.714286 3.571429 0.212177 
endloop 
endfacet 
facet normal  0.231658 -0.141300 0.962481 
outer loop 
vertex  0.714286 -2.857143 0.429686 
vertex  0.714286 -2.142857 0.534549 
vertex  0.000000 -2.142857 0.706469 
endloop 
endfacet 
facet normal  0.231658 0.141300 0.962481 
outer loop 
vertex  0.000000 2.142857 0.706469 
vertex  0.714286 2.142857 0.534549 
vertex  0.714286 2.857143 0.429686 
endloop 
endfacet 
facet normal  0.166039 -0.113584 0.979556 
outer loop 
vertex  -0.714286 -1.428571 0.910368 
vertex  0.000000 -2.142857 0.706469 
vertex  0.000000 -1.428571 0.789294 
endloop 
endfacet 
facet normal  0.166039 0.113584 0.979556 
outer loop 
vertex  0.000000 1.428571 0.789294 
vertex  0.000000 2.142857 0.706469 
vertex  -0.714286 1.428571 0.910368 
endloop 
endfacet 
facet normal  0.134275 -0.238431 0.961832 
outer loop 
vertex  0.000000 -2.857143 0.529403 
vertex  0.714286 -2.857143 0.429686 
vertex  0.000000 -2.142857 0.706469 
endloop 
endfacet 
facet normal  0.134275 0.238431 0.961832 
outer loop 
vertex  0.000000 2.142857 0.706469 
vertex  0.714286 2.857143 0.429686 
vertex  0.000000 2.857143 0.529403 
endloop 
endfacet 
facet normal  0.000000 -0.313742 0.949508 
outer loop 
vertex  0.714286 -4.285714 0.000000 
vertex  0.000000 -3.571429 0.236019 
vertex  0.000000 -4.285714 0.000000 
endloop 
endfacet 
facet normal  0.000000 0.313742 0.949508 
outer loop 
vertex  0.000000 4.285714 0.000000 
vertex  0.000000 3.571429 0.236019 
vertex  0.714286 4.285714 0.000000 
endloop 
endfacet 
facet normal  0.072495 -0.246811 0.966348 
outer loop 
vertex  0.714286 -4.285714 0.000000 
vertex  0.714286 -3.571429 0.182433 
vertex  0.000000 -3.571429 0.236019 
endloop 
endfacet 
facet normal  0.072495 0.246811 0.966348 
outer loop 
vertex  0.000000 3.571429 0.236019 
vertex  0.714286 3.571429 0.182433 
vertex  0.714286 4.285714 0.000000 
endloop 
endfacet 
facet normal  0.000000 -0.247462 0.968897 
outer loop 
vertex  1.428571 -4.285714 0.000000 
vertex  0.714286 -3.571429 0.182433 
vertex  0.714286 -4.285714 0.000000 
endloop 
endfacet 
facet normal  0.000000 0.247462 0.968897 
outer loop 
vertex  0.714286 4.285714 0.000000 
vertex  0.714286 3.571429 0.182433 
vertex  1.428571 4.285714 0.000000 
endloop 
endfacet 
facet normal  0.144994 -0.323655 0.935000 
outer loop 
vertex  1.428571 -3.571429 0.071666 
vertex  0.714286 -2.857143 0.429686 
vertex  0.714286 -3.571429 0.182433 
endloop 
endfacet 
facet normal  0.144994 0.323655 0.935000 
outer loop 
vertex  0.714286 3.571429 0.182433 
vertex  0.714286 2.857143 0.429686 
vertex  1.428571 3.571429 0.071666 
endloop 
endfacet 
facet normal  0.207839 -0.264218 0.941802 
outer loop 
vertex  1.428571 -3.571429 0.071666 
vertex  1.428571 -2.857143 0.272056 
vertex  0.714286 -2.857143 0.429686 
endloop 
endfacet 
facet normal  0.207839 0.264218 0.941802 
outer loop 
vertex  0.714286 2.857143 0.429686 
vertex  1.428571 2.857143 0.272056 
vertex  1.428571 3.571429 0.071666 
endloop 
endfacet 
facet normal  0.096156 -0.268865 0.958366 
outer loop 
vertex  2.142857 -3.571429 0.000000 
vertex  1.428571 -2.857143 0.272056 
vertex  1.428571 -3.571429 0.071666 
endloop 
endfacet 
facet normal  0.096156 0.268865 0.958366 
outer loop 
vertex  1.428571 3.571429 0.071666 
vertex  1.428571 2.857143 0.272056 
vertex  2.142857 3.571429 0.000000 
endloop 
endfacet 
facet normal  0.000000 -0.099832 0.995004 
outer loop 
vertex  2.142857 -4.285714 0.000000 
vertex  1.428571 -3.571429 0.071666 
vertex  1.428571 -4.285714 0.000000 
endloop 
endfacet 
facet normal  0.000000 0.099832 0.995004 
outer loop 
vertex  1.428571 4.285714 0.000000 
vertex  1.428571 3.571429 0.071666 
vertex  2.142857 4.285714 0.000000 
endloop 
endfacet 
facet normal  0.144912 0.121509 0.981955 
outer loop 
vertex  2.142857 -2.857143 0.105411 
vertex  2.857143 -2.857143 0.000000 
vertex  2.142857 -2.142857 0.017024 
endloop 
endfacet 
facet normal  0.144912 -0.121509 0.981955 
outer loop 
vertex  2.142857 2.142857 0.017024 
vertex  2.857143 2.857143 0.000000 
vertex  2.142857 2.857143 0.105411 
endloop 
endfacet 
facet normal  0.099832 -0.000000 0.995004 
outer loop 
vertex  2.142857 -4.285714 0.000000 
vertex  2.142857 -3.571429 0.000000 
vertex  1.428571 -3.571429 0.071666 
endloop 
endfacet 
facet normal  0.099832 0.000000 0.995004 
outer loop 
vertex  1.428571 3.571429 0.071666 
vertex  2.142857 3.571429 0.000000 
vertex  2.142857 4.285714 0.000000 
endloop 
endfacet 
facet normal  0.000000 -0.145994 0.989286 
outer loop 
vertex  2.142857 -3.571429 0.000000 
vertex  2.857143 -3.571429 0.000000 
vertex  2.142857 -2.857143 0.105411 
endloop 
endfacet 
facet normal  0.000000 0.145994 0.989286 
outer loop 
vertex  2.142857 2.857143 0.105411 
vertex  2.857143 3.571429 0.000000 
vertex  2.142857 3.571429 0.000000 
endloop 
endfacet 
facet normal  0.023826 0.000000 0.999716 
outer loop 
vertex  2.857143 -2.142857 0.000000 
vertex  2.142857 -2.142857 0.017024 
vertex  2.857143 -2.857143 0.000000 
endloop 
endfacet 
facet normal  0.023826 -0.000000 0.999716 
outer loop 
vertex  2.857143 2.857143 0.000000 
vertex  2.142857 2.142857 0.017024 
vertex  2.857143 2.142857 0.000000 
endloop 
endfacet 
facet normal  0.224891 -0.142254 0.963944 
outer loop 
vertex  1.428571 -2.857143 0.272056 
vertex  2.142857 -3.571429 0.000000 
vertex  2.142857 -2.857143 0.105411 
endloop 
endfacet 
facet normal  0.224891 0.142254 0.963944 
outer loop 
vertex  2.142857 2.857143 0.105411 
vertex  2.142857 3.571429 0.000000 
vertex  1.428571 2.857143 0.272056 
endloop 
endfacet 
facet normal  0.145994 0.000000 0.989286 
outer loop 
vertex  2.857143 -2.857143 0.000000 
vertex  2.142857 -2.857143 0.105411 
vertex  2.857143 -3.571429 0.000000 
endloop 
endfacet 
facet normal  0.145994 -0.000000 0.989286 
outer loop 
vertex  2.857143 3.571429 0.000000 
vertex  2.142857 2.857143 0.105411 
vertex  2.857143 2.857143 0.000000 
endloop 
endfacet 
endsolid Cuerno_15_Aendfacet 
