solid Cuerno_21_A 
facet normal  -0.380631 -0.107217 0.918490 
outer loop 
vertex  -2.500000 -1.000000 0.716387 
vertex  -2.500000 -0.500000 0.774753 
vertex  -3.000000 -0.500000 0.567548 
endloop 
endfacet 
facet normal  -0.380631 0.107217 0.918490 
outer loop 
vertex  -3.000000 0.500000 0.567548 
vertex  -2.500000 0.500000 0.774753 
vertex  -2.500000 1.000000 0.716387 
endloop 
endfacet 
facet normal  -0.161327 -0.094028 0.982411 
outer loop 
vertex  -2.000000 -0.500000 0.920876 
vertex  -1.500000 -1.000000 0.955128 
vertex  -1.500000 -0.500000 1.002984 
endloop 
endfacet 
facet normal  -0.161327 0.094028 0.982411 
outer loop 
vertex  -1.500000 0.500000 1.002984 
vertex  -1.500000 1.000000 0.955128 
vertex  -2.000000 0.500000 0.920876 
endloop 
endfacet 
facet normal  -0.469497 -0.037578 0.882134 
outer loop 
vertex  -3.500000 0.000000 0.322733 
vertex  -3.500000 -0.500000 0.301434 
vertex  -3.000000 -0.500000 0.567548 
endloop 
endfacet 
facet normal  -0.469497 0.037578 0.882134 
outer loop 
vertex  -3.000000 0.500000 0.567548 
vertex  -3.500000 0.500000 0.301434 
vertex  -3.500000 -0.000000 0.322733 
endloop 
endfacet 
facet normal  -0.463329 -0.249512 0.850335 
outer loop 
vertex  -3.000000 -2.000000 0.255623 
vertex  -3.000000 -1.500000 0.402337 
vertex  -3.500000 -1.500000 0.129897 
endloop 
endfacet 
facet normal  -0.463329 0.249512 0.850335 
outer loop 
vertex  -3.500000 1.500000 0.129897 
vertex  -3.000000 1.500000 0.402337 
vertex  -3.000000 2.000000 0.255623 
endloop 
endfacet 
facet normal  0.186129 -0.106880 0.976695 
outer loop 
vertex  0.000000 -2.000000 0.729600 
vertex  0.000000 -1.500000 0.784315 
vertex  -0.500000 -1.500000 0.879600 
endloop 
endfacet 
facet normal  0.186129 0.106880 0.976695 
outer loop 
vertex  -0.500000 1.500000 0.879600 
vertex  0.000000 1.500000 0.784315 
vertex  0.000000 2.000000 0.729600 
endloop 
endfacet 
facet normal  0.056261 -0.166328 0.984464 
outer loop 
vertex  -0.500000 -1.500000 0.879600 
vertex  -1.000000 -1.500000 0.908174 
vertex  -0.500000 -2.000000 0.795124 
endloop 
endfacet 
facet normal  0.056261 0.166328 0.984464 
outer loop 
vertex  -0.500000 2.000000 0.795124 
vertex  -1.000000 1.500000 0.908174 
vertex  -0.500000 1.500000 0.879600 
endloop 
endfacet 
facet normal  -0.058889 -0.414942 0.907940 
outer loop 
vertex  -0.500000 -3.000000 0.494077 
vertex  -1.000000 -3.000000 0.461647 
vertex  -0.500000 -3.500000 0.265569 
endloop 
endfacet 
facet normal  -0.058889 0.414942 0.907940 
outer loop 
vertex  -0.500000 3.500000 0.265569 
vertex  -1.000000 3.000000 0.461647 
vertex  -0.500000 3.000000 0.494077 
endloop 
endfacet 
facet normal  0.163836 -0.273661 0.947770 
outer loop 
vertex  1.500000 -3.000000 0.230803 
vertex  1.500000 -3.500000 0.086432 
vertex  2.000000 -3.500000 0.000000 
endloop 
endfacet 
facet normal  0.163836 0.273661 0.947770 
outer loop 
vertex  2.000000 3.500000 0.000000 
vertex  1.500000 3.500000 0.086432 
vertex  1.500000 3.000000 0.230803 
endloop 
endfacet 
facet normal  0.175720 0.031486 0.983937 
outer loop 
vertex  2.000000 -1.500000 0.000000 
vertex  1.500000 -1.500000 0.089294 
vertex  2.000000 -2.000000 0.016000 
endloop 
endfacet 
facet normal  0.175720 -0.031486 0.983937 
outer loop 
vertex  2.000000 2.000000 0.016000 
vertex  1.500000 1.500000 0.089294 
vertex  2.000000 1.500000 0.000000 
endloop 
endfacet 
facet normal  -0.126634 -0.126634 0.983833 
outer loop 
vertex  -3.000000 -3.000000 0.000000 
vertex  -3.000000 -2.500000 0.064357 
vertex  -3.500000 -2.500000 0.000000 
endloop 
endfacet 
facet normal  -0.126634 0.126634 0.983833 
outer loop 
vertex  -3.500000 2.500000 0.000000 
vertex  -3.000000 2.500000 0.064357 
vertex  -3.000000 3.000000 0.000000 
endloop 
endfacet 
facet normal  -0.470165 -0.185421 0.862881 
outer loop 
vertex  -3.000000 -1.500000 0.402337 
vertex  -3.500000 -1.000000 0.237341 
vertex  -3.500000 -1.500000 0.129897 
endloop 
endfacet 
facet normal  -0.470165 0.185421 0.862881 
outer loop 
vertex  -3.500000 1.500000 0.129897 
vertex  -3.500000 1.000000 0.237341 
vertex  -3.000000 1.500000 0.402337 
endloop 
endfacet 
facet normal  -0.125025 -0.126660 0.984036 
outer loop 
vertex  -3.000000 -2.500000 0.064357 
vertex  -3.000000 -3.000000 0.000000 
vertex  -2.500000 -3.000000 0.063527 
endloop 
endfacet 
facet normal  -0.125025 0.126660 0.984036 
outer loop 
vertex  -2.500000 3.000000 0.063527 
vertex  -3.000000 3.000000 0.000000 
vertex  -3.000000 2.500000 0.064357 
endloop 
endfacet 
facet normal  -0.025409 -0.330019 0.943632 
outer loop 
vertex  -0.500000 -3.000000 0.494077 
vertex  -0.500000 -2.500000 0.668943 
vertex  -1.000000 -2.500000 0.655480 
endloop 
endfacet 
facet normal  -0.025409 0.330019 0.943632 
outer loop 
vertex  -1.000000 2.500000 0.655480 
vertex  -0.500000 2.500000 0.668943 
vertex  -0.500000 3.000000 0.494077 
endloop 
endfacet 
facet normal  -0.125599 -0.307344 0.943273 
outer loop 
vertex  -1.500000 -2.000000 0.751818 
vertex  -1.500000 -2.500000 0.588904 
vertex  -1.000000 -2.500000 0.655480 
endloop 
endfacet 
facet normal  -0.125599 0.307344 0.943273 
outer loop 
vertex  -1.000000 2.500000 0.655480 
vertex  -1.500000 2.500000 0.588904 
vertex  -1.500000 2.000000 0.751818 
endloop 
endfacet 
facet normal  0.000000 -0.237650 0.971351 
outer loop 
vertex  -1.500000 -3.500000 0.122329 
vertex  -1.500000 -4.000000 0.000000 
vertex  -1.000000 -4.000000 0.000000 
endloop 
endfacet 
facet normal  0.000000 0.237650 0.971351 
outer loop 
vertex  -1.000000 4.000000 0.000000 
vertex  -1.500000 4.000000 0.000000 
vertex  -1.500000 3.500000 0.122329 
endloop 
endfacet 
facet normal  -0.069476 -0.206056 0.976071 
outer loop 
vertex  -1.000000 -2.000000 0.802621 
vertex  -1.000000 -1.500000 0.908174 
vertex  -1.500000 -1.500000 0.872585 
endloop 
endfacet 
facet normal  -0.069476 0.206056 0.976071 
outer loop 
vertex  -1.500000 1.500000 0.872585 
vertex  -1.000000 1.500000 0.908174 
vertex  -1.000000 2.000000 0.802621 
endloop 
endfacet 
facet normal  0.119803 -0.349352 0.929301 
outer loop 
vertex  0.500000 -3.000000 0.425965 
vertex  0.500000 -3.500000 0.238000 
vertex  1.000000 -3.500000 0.173541 
endloop 
endfacet 
facet normal  0.119803 0.349352 0.929301 
outer loop 
vertex  1.000000 3.500000 0.173541 
vertex  0.500000 3.500000 0.238000 
vertex  0.500000 3.000000 0.425965 
endloop 
endfacet 
facet normal  -0.467073 -0.108167 0.877578 
outer loop 
vertex  -3.000000 -1.000000 0.505920 
vertex  -3.000000 -0.500000 0.567548 
vertex  -3.500000 -0.500000 0.301434 
endloop 
endfacet 
facet normal  -0.467073 0.108167 0.877578 
outer loop 
vertex  -3.500000 0.500000 0.301434 
vertex  -3.000000 0.500000 0.567548 
vertex  -3.000000 1.000000 0.505920 
endloop 
endfacet 
facet normal  -0.465521 -0.179538 0.866635 
outer loop 
vertex  -3.000000 -1.500000 0.402337 
vertex  -3.000000 -1.000000 0.505920 
vertex  -3.500000 -1.000000 0.237341 
endloop 
endfacet 
facet normal  -0.465521 0.179538 0.866635 
outer loop 
vertex  -3.500000 1.000000 0.237341 
vertex  -3.000000 1.000000 0.505920 
vertex  -3.000000 1.500000 0.402337 
endloop 
endfacet 
facet normal  -0.382565 -0.037760 0.923157 
outer loop 
vertex  -3.000000 0.000000 0.588000 
vertex  -3.000000 -0.500000 0.567548 
vertex  -2.500000 -0.500000 0.774753 
endloop 
endfacet 
facet normal  -0.382565 0.037760 0.923157 
outer loop 
vertex  -2.500000 0.500000 0.774753 
vertex  -3.000000 0.500000 0.567548 
vertex  -3.000000 -0.000000 0.588000 
endloop 
endfacet 
facet normal  -0.044956 -0.137871 0.989429 
outer loop 
vertex  -1.000000 -1.000000 0.977846 
vertex  -1.500000 -1.000000 0.955128 
vertex  -1.000000 -1.500000 0.908174 
endloop 
endfacet 
facet normal  -0.044956 0.137871 0.989429 
outer loop 
vertex  -1.000000 1.500000 0.908174 
vertex  -1.500000 1.000000 0.955128 
vertex  -1.000000 1.000000 0.977846 
endloop 
endfacet 
facet normal  -0.221996 -0.321940 0.920365 
outer loop 
vertex  -2.000000 -2.000000 0.643200 
vertex  -2.000000 -2.500000 0.468302 
vertex  -1.500000 -2.500000 0.588904 
endloop 
endfacet 
facet normal  -0.221996 0.321940 0.920365 
outer loop 
vertex  -1.500000 2.500000 0.588904 
vertex  -2.000000 2.500000 0.468302 
vertex  -2.000000 2.000000 0.643200 
endloop 
endfacet 
facet normal  -0.157857 -0.030898 0.986979 
outer loop 
vertex  -1.500000 -0.500000 1.002984 
vertex  -1.500000 0.000000 1.018636 
vertex  -2.000000 0.000000 0.938667 
endloop 
endfacet 
facet normal  -0.157857 0.030898 0.986979 
outer loop 
vertex  -2.000000 -0.000000 0.938667 
vertex  -1.500000 -0.000000 1.018636 
vertex  -1.500000 0.500000 1.002984 
endloop 
endfacet 
facet normal  -0.420963 -0.190568 0.886833 
outer loop 
vertex  -3.500000 -1.500000 0.129897 
vertex  -3.500000 -1.000000 0.237341 
vertex  -4.000000 -1.000000 0.000000 
endloop 
endfacet 
facet normal  -0.420963 0.190568 0.886833 
outer loop 
vertex  -4.000000 1.000000 0.000000 
vertex  -3.500000 1.000000 0.237341 
vertex  -3.500000 1.500000 0.129897 
endloop 
endfacet 
facet normal  -0.513217 -0.109124 0.851293 
outer loop 
vertex  -4.000000 -0.500000 0.000000 
vertex  -3.500000 -1.000000 0.237341 
vertex  -3.500000 -0.500000 0.301434 
endloop 
endfacet 
facet normal  -0.513217 0.109124 0.851293 
outer loop 
vertex  -3.500000 0.500000 0.301434 
vertex  -3.500000 1.000000 0.237341 
vertex  -4.000000 0.500000 0.000000 
endloop 
endfacet 
facet normal  0.118717 -0.024975 0.992614 
outer loop 
vertex  -1.000000 0.000000 1.029600 
vertex  -1.000000 -0.500000 1.017020 
vertex  -0.500000 -0.500000 0.957220 
endloop 
endfacet 
facet normal  0.118717 0.024975 0.992614 
outer loop 
vertex  -0.500000 0.500000 0.957220 
vertex  -1.000000 0.500000 1.017020 
vertex  -1.000000 -0.000000 1.029600 
endloop 
endfacet 
facet normal  0.409443 0.057372 0.910530 
outer loop 
vertex  1.000000 0.000000 0.193333 
vertex  1.000000 -0.500000 0.224838 
vertex  1.500000 -0.500000 0.000000 
endloop 
endfacet 
facet normal  0.409443 -0.057372 0.910530 
outer loop 
vertex  1.500000 0.500000 0.000000 
vertex  1.000000 0.500000 0.224838 
vertex  1.000000 -0.000000 0.193333 
endloop 
endfacet 
facet normal  0.379910 0.249331 0.890788 
outer loop 
vertex  1.500000 -1.500000 0.089294 
vertex  1.500000 -2.000000 0.229244 
vertex  2.000000 -2.000000 0.016000 
endloop 
endfacet 
facet normal  0.379910 -0.249331 0.890788 
outer loop 
vertex  2.000000 2.000000 0.016000 
vertex  1.500000 2.000000 0.229244 
vertex  1.500000 1.500000 0.089294 
endloop 
endfacet 
facet normal  0.207924 -0.166737 0.963829 
outer loop 
vertex  1.000000 -2.500000 0.425164 
vertex  1.000000 -3.000000 0.338667 
vertex  1.500000 -3.000000 0.230803 
endloop 
endfacet 
facet normal  0.207924 0.166737 0.963829 
outer loop 
vertex  1.500000 3.000000 0.230803 
vertex  1.000000 3.000000 0.338667 
vertex  1.000000 2.500000 0.425164 
endloop 
endfacet 
facet normal  0.072517 -0.244045 0.967049 
outer loop 
vertex  -0.500000 -2.500000 0.668943 
vertex  0.000000 -2.500000 0.631449 
vertex  -0.500000 -2.000000 0.795124 
endloop 
endfacet 
facet normal  0.072517 0.244045 0.967049 
outer loop 
vertex  -0.500000 2.000000 0.795124 
vertex  0.000000 2.500000 0.631449 
vertex  -0.500000 2.500000 0.668943 
endloop 
endfacet 
facet normal  0.127685 -0.015872 0.991688 
outer loop 
vertex  -0.500000 -0.500000 0.957220 
vertex  -0.500000 0.000000 0.965222 
vertex  -1.000000 0.000000 1.029600 
endloop 
endfacet 
facet normal  0.127685 0.015872 0.991688 
outer loop 
vertex  -1.000000 -0.000000 1.029600 
vertex  -0.500000 -0.000000 0.965222 
vertex  -0.500000 0.500000 0.957220 
endloop 
endfacet 
facet normal  0.324349 -0.022623 0.945667 
outer loop 
vertex  0.500000 -2.000000 0.608108 
vertex  1.000000 -2.000000 0.436615 
vertex  0.500000 -1.500000 0.620069 
endloop 
endfacet 
facet normal  0.324349 0.022623 0.945667 
outer loop 
vertex  0.500000 1.500000 0.620069 
vertex  1.000000 2.000000 0.436615 
vertex  0.500000 2.000000 0.608108 
endloop 
endfacet 
facet normal  0.445697 0.019403 0.894974 
outer loop 
vertex  0.500000 -0.500000 0.577840 
vertex  0.500000 0.000000 0.567000 
vertex  0.000000 0.000000 0.816000 
endloop 
endfacet 
facet normal  0.445697 -0.019403 0.894974 
outer loop 
vertex  0.000000 -0.000000 0.816000 
vertex  0.500000 -0.000000 0.567000 
vertex  0.500000 0.500000 0.577840 
endloop 
endfacet 
facet normal  0.128151 -0.165218 0.977896 
outer loop 
vertex  -0.500000 -1.500000 0.879600 
vertex  -0.500000 -2.000000 0.795124 
vertex  0.000000 -2.000000 0.729600 
endloop 
endfacet 
facet normal  0.128151 0.165218 0.977896 
outer loop 
vertex  0.000000 2.000000 0.729600 
vertex  -0.500000 2.000000 0.795124 
vertex  -0.500000 1.500000 0.879600 
endloop 
endfacet 
facet normal  -0.171324 -0.392420 0.903690 
outer loop 
vertex  -1.000000 -3.500000 0.217121 
vertex  -1.500000 -3.500000 0.122329 
vertex  -1.000000 -4.000000 0.000000 
endloop 
endfacet 
facet normal  -0.171324 0.392420 0.903690 
outer loop 
vertex  -1.000000 4.000000 0.000000 
vertex  -1.500000 3.500000 0.122329 
vertex  -1.000000 3.500000 0.217121 
endloop 
endfacet 
facet normal  0.234205 -0.165722 0.957959 
outer loop 
vertex  1.000000 -2.500000 0.425164 
vertex  0.500000 -2.500000 0.547405 
vertex  1.000000 -3.000000 0.338667 
endloop 
endfacet 
facet normal  0.234205 0.165722 0.957959 
outer loop 
vertex  1.000000 3.000000 0.338667 
vertex  0.500000 2.500000 0.547405 
vertex  1.000000 2.500000 0.425164 
endloop 
endfacet 
facet normal  -0.144928 -0.434690 0.888842 
outer loop 
vertex  -1.000000 -3.500000 0.217121 
vertex  -1.000000 -3.000000 0.461647 
vertex  -1.500000 -3.000000 0.380121 
endloop 
endfacet 
facet normal  -0.144928 0.434690 0.888842 
outer loop 
vertex  -1.500000 3.000000 0.380121 
vertex  -1.000000 3.000000 0.461647 
vertex  -1.000000 3.500000 0.217121 
endloop 
endfacet 
facet normal  0.421549 0.090496 0.902279 
outer loop 
vertex  1.000000 -1.500000 0.386467 
vertex  0.500000 -1.500000 0.620069 
vertex  1.000000 -2.000000 0.436615 
endloop 
endfacet 
facet normal  0.421549 -0.090496 0.902279 
outer loop 
vertex  1.000000 2.000000 0.436615 
vertex  0.500000 1.500000 0.620069 
vertex  1.000000 1.500000 0.386467 
endloop 
endfacet 
facet normal  0.234488 -0.117159 0.965033 
outer loop 
vertex  0.500000 -2.500000 0.547405 
vertex  0.500000 -2.000000 0.608108 
vertex  0.000000 -2.000000 0.729600 
endloop 
endfacet 
facet normal  0.234488 0.117159 0.965033 
outer loop 
vertex  0.000000 2.000000 0.729600 
vertex  0.500000 2.000000 0.608108 
vertex  0.500000 2.500000 0.547405 
endloop 
endfacet 
facet normal  0.381454 0.092629 0.919735 
outer loop 
vertex  1.500000 -2.500000 0.279600 
vertex  1.500000 -2.000000 0.229244 
vertex  1.000000 -2.000000 0.436615 
endloop 
endfacet 
facet normal  0.381454 -0.092629 0.919735 
outer loop 
vertex  1.000000 2.000000 0.436615 
vertex  1.500000 2.000000 0.229244 
vertex  1.500000 2.500000 0.279600 
endloop 
endfacet 
facet normal  0.276180 0.096308 0.956269 
outer loop 
vertex  1.500000 -2.500000 0.279600 
vertex  2.000000 -2.500000 0.135195 
vertex  1.500000 -2.000000 0.229244 
endloop 
endfacet 
facet normal  0.276180 -0.096308 0.956269 
outer loop 
vertex  1.500000 2.000000 0.229244 
vertex  2.000000 2.500000 0.135195 
vertex  1.500000 2.500000 0.279600 
endloop 
endfacet 
facet normal  0.163557 -0.309370 0.936771 
outer loop 
vertex  0.500000 -3.000000 0.425965 
vertex  1.000000 -3.500000 0.173541 
vertex  1.000000 -3.000000 0.338667 
endloop 
endfacet 
facet normal  0.163557 0.309370 0.936771 
outer loop 
vertex  1.000000 3.000000 0.338667 
vertex  1.000000 3.500000 0.173541 
vertex  0.500000 3.000000 0.425965 
endloop 
endfacet 
facet normal  -0.125051 -0.125051 0.984238 
outer loop 
vertex  -2.500000 -3.000000 0.063527 
vertex  -3.000000 -3.000000 0.000000 
vertex  -2.500000 -3.500000 0.000000 
endloop 
endfacet 
facet normal  -0.125051 0.125051 0.984238 
outer loop 
vertex  -2.500000 3.500000 0.000000 
vertex  -3.000000 3.000000 0.000000 
vertex  -2.500000 3.000000 0.063527 
endloop 
endfacet 
facet normal  0.000000 -0.126040 0.992025 
outer loop 
vertex  -2.000000 -3.500000 0.000000 
vertex  -2.500000 -3.000000 0.063527 
vertex  -2.500000 -3.500000 0.000000 
endloop 
endfacet 
facet normal  0.000000 0.126040 0.992025 
outer loop 
vertex  -2.500000 3.500000 0.000000 
vertex  -2.500000 3.000000 0.063527 
vertex  -2.000000 3.500000 0.000000 
endloop 
endfacet 
facet normal  -0.202278 -0.303393 0.931148 
outer loop 
vertex  -2.000000 -2.000000 0.643200 
vertex  -1.500000 -2.500000 0.588904 
vertex  -1.500000 -2.000000 0.751818 
endloop 
endfacet 
facet normal  -0.202278 0.303393 0.931148 
outer loop 
vertex  -1.500000 2.000000 0.751818 
vertex  -1.500000 2.500000 0.588904 
vertex  -2.000000 2.000000 0.643200 
endloop 
endfacet 
facet normal  -0.304780 -0.384407 0.871401 
outer loop 
vertex  -2.500000 -2.500000 0.293423 
vertex  -2.000000 -3.000000 0.247733 
vertex  -2.000000 -2.500000 0.468302 
endloop 
endfacet 
facet normal  -0.304780 0.384407 0.871401 
outer loop 
vertex  -2.000000 2.500000 0.468302 
vertex  -2.000000 3.000000 0.247733 
vertex  -2.500000 2.500000 0.293423 
endloop 
endfacet 
facet normal  -0.430898 -0.322412 0.842839 
outer loop 
vertex  -3.500000 -2.000000 0.000000 
vertex  -3.000000 -2.500000 0.064357 
vertex  -3.000000 -2.000000 0.255623 
endloop 
endfacet 
facet normal  -0.430898 0.322412 0.842839 
outer loop 
vertex  -3.000000 2.000000 0.255623 
vertex  -3.000000 2.500000 0.064357 
vertex  -3.500000 2.000000 0.000000 
endloop 
endfacet 
facet normal  -0.127662 0.000000 0.991818 
outer loop 
vertex  -3.500000 -2.000000 0.000000 
vertex  -3.500000 -2.500000 0.000000 
vertex  -3.000000 -2.500000 0.064357 
endloop 
endfacet 
facet normal  -0.127662 -0.000000 0.991818 
outer loop 
vertex  -3.000000 2.500000 0.064357 
vertex  -3.500000 2.500000 0.000000 
vertex  -3.500000 2.000000 0.000000 
endloop 
endfacet 
facet normal  -0.298500 -0.315126 0.900885 
outer loop 
vertex  -2.500000 -2.000000 0.477530 
vertex  -2.000000 -2.500000 0.468302 
vertex  -2.000000 -2.000000 0.643200 
endloop 
endfacet 
facet normal  -0.298500 0.315126 0.900885 
outer loop 
vertex  -2.000000 2.000000 0.643200 
vertex  -2.000000 2.500000 0.468302 
vertex  -2.500000 2.000000 0.477530 
endloop 
endfacet 
facet normal  -0.235441 -0.392264 0.889211 
outer loop 
vertex  -2.000000 -3.000000 0.247733 
vertex  -1.500000 -3.000000 0.380121 
vertex  -2.000000 -2.500000 0.468302 
endloop 
endfacet 
facet normal  -0.235441 0.392264 0.889211 
outer loop 
vertex  -2.000000 2.500000 0.468302 
vertex  -1.500000 3.000000 0.380121 
vertex  -2.000000 3.000000 0.247733 
endloop 
endfacet 
facet normal  -0.205558 -0.249727 0.946246 
outer loop 
vertex  -2.000000 -1.500000 0.775157 
vertex  -2.000000 -2.000000 0.643200 
vertex  -1.500000 -2.000000 0.751818 
endloop 
endfacet 
facet normal  -0.205558 0.249727 0.946246 
outer loop 
vertex  -1.500000 2.000000 0.751818 
vertex  -2.000000 2.000000 0.643200 
vertex  -2.000000 1.500000 0.775157 
endloop 
endfacet 
facet normal  -0.384467 -0.318976 0.866279 
outer loop 
vertex  -2.500000 -2.000000 0.477530 
vertex  -3.000000 -2.000000 0.255623 
vertex  -2.500000 -2.500000 0.293423 
endloop 
endfacet 
facet normal  -0.384467 0.318976 0.866279 
outer loop 
vertex  -2.500000 2.500000 0.293423 
vertex  -3.000000 2.000000 0.255623 
vertex  -2.500000 2.000000 0.477530 
endloop 
endfacet 
facet normal  -0.384280 -0.385673 0.838800 
outer loop 
vertex  -2.500000 -3.000000 0.063527 
vertex  -2.500000 -2.500000 0.293423 
vertex  -3.000000 -2.500000 0.064357 
endloop 
endfacet 
facet normal  -0.384280 0.385673 0.838800 
outer loop 
vertex  -3.000000 2.500000 0.064357 
vertex  -2.500000 2.500000 0.293423 
vertex  -2.500000 3.000000 0.063527 
endloop 
endfacet 
facet normal  -0.317416 -0.396146 0.861577 
outer loop 
vertex  -2.500000 -3.000000 0.063527 
vertex  -2.000000 -3.000000 0.247733 
vertex  -2.500000 -2.500000 0.293423 
endloop 
endfacet 
facet normal  -0.317416 0.396146 0.861577 
outer loop 
vertex  -2.500000 2.500000 0.293423 
vertex  -2.000000 3.000000 0.247733 
vertex  -2.500000 3.000000 0.063527 
endloop 
endfacet 
facet normal  -0.231210 -0.231210 0.945031 
outer loop 
vertex  -1.500000 -3.500000 0.122329 
vertex  -2.000000 -3.500000 0.000000 
vertex  -1.500000 -4.000000 0.000000 
endloop 
endfacet 
facet normal  -0.231210 0.231210 0.945031 
outer loop 
vertex  -1.500000 4.000000 0.000000 
vertex  -2.000000 3.500000 0.000000 
vertex  -1.500000 3.500000 0.122329 
endloop 
endfacet 
facet normal  -0.313476 -0.421584 0.850882 
outer loop 
vertex  -2.000000 -3.000000 0.247733 
vertex  -2.500000 -3.000000 0.063527 
vertex  -2.000000 -3.500000 0.000000 
endloop 
endfacet 
facet normal  -0.313476 0.421584 0.850882 
outer loop 
vertex  -2.000000 3.500000 0.000000 
vertex  -2.500000 3.000000 0.063527 
vertex  -2.000000 3.000000 0.247733 
endloop 
endfacet 
facet normal  -0.229079 -0.446074 0.865183 
outer loop 
vertex  -2.000000 -3.000000 0.247733 
vertex  -1.500000 -3.500000 0.122329 
vertex  -1.500000 -3.000000 0.380121 
endloop 
endfacet 
facet normal  -0.229079 0.446074 0.865183 
outer loop 
vertex  -1.500000 3.000000 0.380121 
vertex  -1.500000 3.500000 0.122329 
vertex  -2.000000 3.000000 0.247733 
endloop 
endfacet 
facet normal  -0.214140 -0.433662 0.875260 
outer loop 
vertex  -2.000000 -3.000000 0.247733 
vertex  -2.000000 -3.500000 0.000000 
vertex  -1.500000 -3.500000 0.122329 
endloop 
endfacet 
facet normal  -0.214140 0.433662 0.875260 
outer loop 
vertex  -1.500000 3.500000 0.122329 
vertex  -2.000000 3.500000 0.000000 
vertex  -2.000000 3.000000 0.247733 
endloop 
endfacet 
facet normal  0.000000 -0.476413 0.879221 
outer loop 
vertex  0.000000 -3.500000 0.270929 
vertex  0.000000 -4.000000 0.000000 
vertex  0.500000 -4.000000 0.000000 
endloop 
endfacet 
facet normal  0.000000 0.476413 0.879221 
outer loop 
vertex  0.500000 4.000000 0.000000 
vertex  0.000000 4.000000 0.000000 
vertex  0.000000 3.500000 0.270929 
endloop 
endfacet 
facet normal  0.000000 -0.398309 0.917251 
outer loop 
vertex  -0.500000 -4.000000 0.000000 
vertex  -1.000000 -3.500000 0.217121 
vertex  -1.000000 -4.000000 0.000000 
endloop 
endfacet 
facet normal  0.000000 0.398309 0.917251 
outer loop 
vertex  -1.000000 4.000000 0.000000 
vertex  -1.000000 3.500000 0.217121 
vertex  -0.500000 4.000000 0.000000 
endloop 
endfacet 
facet normal  -0.217263 -0.376118 0.900740 
outer loop 
vertex  -1.500000 -3.000000 0.380121 
vertex  -1.500000 -2.500000 0.588904 
vertex  -2.000000 -2.500000 0.468302 
endloop 
endfacet 
facet normal  -0.217263 0.376118 0.900740 
outer loop 
vertex  -2.000000 2.500000 0.468302 
vertex  -1.500000 2.500000 0.588904 
vertex  -1.500000 3.000000 0.380121 
endloop 
endfacet 
facet normal  -0.086717 -0.437674 0.894942 
outer loop 
vertex  -0.500000 -3.500000 0.265569 
vertex  -1.000000 -3.000000 0.461647 
vertex  -1.000000 -3.500000 0.217121 
endloop 
endfacet 
facet normal  -0.086717 0.437674 0.894942 
outer loop 
vertex  -1.000000 3.500000 0.217121 
vertex  -1.000000 3.000000 0.461647 
vertex  -0.500000 3.500000 0.265569 
endloop 
endfacet 
facet normal  -0.025823 -0.282217 0.959003 
outer loop 
vertex  -0.500000 -2.500000 0.668943 
vertex  -1.000000 -2.000000 0.802621 
vertex  -1.000000 -2.500000 0.655480 
endloop 
endfacet 
facet normal  -0.025823 0.282217 0.959003 
outer loop 
vertex  -1.000000 2.500000 0.655480 
vertex  -1.000000 2.000000 0.802621 
vertex  -0.500000 2.500000 0.668943 
endloop 
endfacet 
facet normal  -0.085263 -0.467370 0.879940 
outer loop 
vertex  -0.500000 -4.000000 0.000000 
vertex  -0.500000 -3.500000 0.265569 
vertex  -1.000000 -3.500000 0.217121 
endloop 
endfacet 
facet normal  -0.085263 0.467370 0.879940 
outer loop 
vertex  -1.000000 3.500000 0.217121 
vertex  -0.500000 3.500000 0.265569 
vertex  -0.500000 4.000000 0.000000 
endloop 
endfacet 
facet normal  0.103813 -0.287489 0.952141 
outer loop 
vertex  0.000000 -3.000000 0.480480 
vertex  0.500000 -3.000000 0.425965 
vertex  0.000000 -2.500000 0.631449 
endloop 
endfacet 
facet normal  0.103813 0.287489 0.952141 
outer loop 
vertex  0.000000 2.500000 0.631449 
vertex  0.500000 3.000000 0.425965 
vertex  0.000000 3.000000 0.480480 
endloop 
endfacet 
facet normal  -0.097014 -0.280979 0.954798 
outer loop 
vertex  -1.000000 -2.500000 0.655480 
vertex  -1.000000 -2.000000 0.802621 
vertex  -1.500000 -2.000000 0.751818 
endloop 
endfacet 
facet normal  -0.097014 0.280979 0.954798 
outer loop 
vertex  -1.500000 2.000000 0.751818 
vertex  -1.000000 2.000000 0.802621 
vertex  -1.000000 2.500000 0.655480 
endloop 
endfacet 
facet normal  0.014669 -0.206533 0.978330 
outer loop 
vertex  -0.500000 -2.000000 0.795124 
vertex  -1.000000 -1.500000 0.908174 
vertex  -1.000000 -2.000000 0.802621 
endloop 
endfacet 
facet normal  0.014669 0.206533 0.978330 
outer loop 
vertex  -1.000000 2.000000 0.802621 
vertex  -1.000000 1.500000 0.908174 
vertex  -0.500000 2.000000 0.795124 
endloop 
endfacet 
facet normal  0.025072 -0.386407 0.921988 
outer loop 
vertex  0.000000 -3.500000 0.270929 
vertex  0.000000 -3.000000 0.480480 
vertex  -0.500000 -3.000000 0.494077 
endloop 
endfacet 
facet normal  0.025072 0.386407 0.921988 
outer loop 
vertex  -0.500000 3.000000 0.494077 
vertex  0.000000 3.000000 0.480480 
vertex  0.000000 3.500000 0.270929 
endloop 
endfacet 
facet normal  0.014537 -0.244663 0.969499 
outer loop 
vertex  -0.500000 -2.000000 0.795124 
vertex  -1.000000 -2.000000 0.802621 
vertex  -0.500000 -2.500000 0.668943 
endloop 
endfacet 
facet normal  0.014537 0.244663 0.969499 
outer loop 
vertex  -0.500000 2.500000 0.668943 
vertex  -1.000000 2.000000 0.802621 
vertex  -0.500000 2.000000 0.795124 
endloop 
endfacet 
facet normal  -0.166162 -0.451889 0.876462 
outer loop 
vertex  -1.000000 -3.500000 0.217121 
vertex  -1.500000 -3.000000 0.380121 
vertex  -1.500000 -3.500000 0.122329 
endloop 
endfacet 
facet normal  -0.166162 0.451889 0.876462 
outer loop 
vertex  -1.500000 3.500000 0.122329 
vertex  -1.500000 3.000000 0.380121 
vertex  -1.000000 3.500000 0.217121 
endloop 
endfacet 
facet normal  -0.148787 -0.381034 0.912511 
outer loop 
vertex  -1.000000 -3.000000 0.461647 
vertex  -1.500000 -2.500000 0.588904 
vertex  -1.500000 -3.000000 0.380121 
endloop 
endfacet 
facet normal  -0.148787 0.381034 0.912511 
outer loop 
vertex  -1.500000 3.000000 0.380121 
vertex  -1.500000 2.500000 0.588904 
vertex  -1.000000 3.000000 0.461647 
endloop 
endfacet 
facet normal  -0.098288 -0.233646 0.967341 
outer loop 
vertex  -1.500000 -1.500000 0.872585 
vertex  -1.500000 -2.000000 0.751818 
vertex  -1.000000 -2.000000 0.802621 
endloop 
endfacet 
facet normal  -0.098288 0.233646 0.967341 
outer loop 
vertex  -1.000000 2.000000 0.802621 
vertex  -1.500000 2.000000 0.751818 
vertex  -1.500000 1.500000 0.872585 
endloop 
endfacet 
facet normal  -0.186100 -0.230681 0.955067 
outer loop 
vertex  -1.500000 -1.500000 0.872585 
vertex  -2.000000 -1.500000 0.775157 
vertex  -1.500000 -2.000000 0.751818 
endloop 
endfacet 
facet normal  -0.186100 0.230681 0.955067 
outer loop 
vertex  -1.500000 2.000000 0.751818 
vertex  -2.000000 1.500000 0.775157 
vertex  -1.500000 1.500000 0.872585 
endloop 
endfacet 
facet normal  -0.123203 -0.358702 0.925286 
outer loop 
vertex  -1.000000 -3.000000 0.461647 
vertex  -1.000000 -2.500000 0.655480 
vertex  -1.500000 -2.500000 0.588904 
endloop 
endfacet 
facet normal  -0.123203 0.358702 0.925286 
outer loop 
vertex  -1.500000 2.500000 0.588904 
vertex  -1.000000 2.500000 0.655480 
vertex  -1.000000 3.000000 0.461647 
endloop 
endfacet 
facet normal  -0.060364 -0.360796 0.930689 
outer loop 
vertex  -1.000000 -3.000000 0.461647 
vertex  -0.500000 -3.000000 0.494077 
vertex  -1.000000 -2.500000 0.655480 
endloop 
endfacet 
facet normal  -0.060364 0.360796 0.930689 
outer loop 
vertex  -1.000000 2.500000 0.655480 
vertex  -0.500000 3.000000 0.494077 
vertex  -1.000000 3.000000 0.461647 
endloop 
endfacet 
facet normal  -0.311848 -0.328303 0.891610 
outer loop 
vertex  -2.000000 -2.500000 0.468302 
vertex  -2.500000 -2.000000 0.477530 
vertex  -2.500000 -2.500000 0.293423 
endloop 
endfacet 
facet normal  -0.311848 0.328303 0.891610 
outer loop 
vertex  -2.500000 2.500000 0.293423 
vertex  -2.500000 2.000000 0.477530 
vertex  -2.000000 2.500000 0.468302 
endloop 
endfacet 
facet normal  -0.303923 -0.257446 0.917253 
outer loop 
vertex  -2.000000 -2.000000 0.643200 
vertex  -2.500000 -1.500000 0.617865 
vertex  -2.500000 -2.000000 0.477530 
endloop 
endfacet 
facet normal  -0.303923 0.257446 0.917253 
outer loop 
vertex  -2.500000 2.000000 0.477530 
vertex  -2.500000 1.500000 0.617865 
vertex  -2.000000 2.000000 0.643200 
endloop 
endfacet 
facet normal  -0.283931 -0.173080 0.943094 
outer loop 
vertex  -2.000000 -1.000000 0.866919 
vertex  -2.500000 -1.000000 0.716387 
vertex  -2.000000 -1.500000 0.775157 
endloop 
endfacet 
facet normal  -0.283931 0.173080 0.943094 
outer loop 
vertex  -2.000000 1.500000 0.775157 
vertex  -2.500000 1.000000 0.716387 
vertex  -2.000000 1.000000 0.866919 
endloop 
endfacet 
facet normal  -0.383319 -0.249588 0.889254 
outer loop 
vertex  -3.000000 -1.500000 0.402337 
vertex  -2.500000 -2.000000 0.477530 
vertex  -2.500000 -1.500000 0.617865 
endloop 
endfacet 
facet normal  -0.383319 0.249588 0.889254 
outer loop 
vertex  -2.500000 1.500000 0.617865 
vertex  -2.500000 2.000000 0.477530 
vertex  -3.000000 1.500000 0.402337 
endloop 
endfacet 
facet normal  -0.171484 -0.160469 0.972030 
outer loop 
vertex  -1.500000 -1.000000 0.955128 
vertex  -2.000000 -1.000000 0.866919 
vertex  -1.500000 -1.500000 0.872585 
endloop 
endfacet 
facet normal  -0.171484 0.160469 0.972030 
outer loop 
vertex  -1.500000 1.500000 0.872585 
vertex  -2.000000 1.000000 0.866919 
vertex  -1.500000 1.000000 0.955128 
endloop 
endfacet 
facet normal  -0.291005 -0.244133 0.925049 
outer loop 
vertex  -2.500000 -1.500000 0.617865 
vertex  -2.000000 -2.000000 0.643200 
vertex  -2.000000 -1.500000 0.775157 
endloop 
endfacet 
facet normal  -0.291005 0.244133 0.925049 
outer loop 
vertex  -2.000000 1.500000 0.775157 
vertex  -2.000000 2.000000 0.643200 
vertex  -2.500000 1.500000 0.617865 
endloop 
endfacet 
facet normal  -0.188229 -0.177283 0.965992 
outer loop 
vertex  -1.500000 -1.500000 0.872585 
vertex  -2.000000 -1.000000 0.866919 
vertex  -2.000000 -1.500000 0.775157 
endloop 
endfacet 
facet normal  -0.188229 0.177283 0.965992 
outer loop 
vertex  -2.000000 1.500000 0.775157 
vertex  -2.000000 1.000000 0.866919 
vertex  -1.500000 1.500000 0.872585 
endloop 
endfacet 
facet normal  -0.470221 -0.112212 0.875386 
outer loop 
vertex  -3.000000 -1.000000 0.505920 
vertex  -3.500000 -0.500000 0.301434 
vertex  -3.500000 -1.000000 0.237341 
endloop 
endfacet 
facet normal  -0.470221 0.112212 0.875386 
outer loop 
vertex  -3.500000 1.000000 0.237341 
vertex  -3.500000 0.500000 0.301434 
vertex  -3.000000 1.000000 0.505920 
endloop 
endfacet 
facet normal  -0.070056 -0.162482 0.984221 
outer loop 
vertex  -1.000000 -1.500000 0.908174 
vertex  -1.500000 -1.000000 0.955128 
vertex  -1.500000 -1.500000 0.872585 
endloop 
endfacet 
facet normal  -0.070056 0.162482 0.984221 
outer loop 
vertex  -1.500000 1.500000 0.872585 
vertex  -1.500000 1.000000 0.955128 
vertex  -1.000000 1.500000 0.908174 
endloop 
endfacet 
facet normal  -0.027976 -0.078077 0.996555 
outer loop 
vertex  -1.000000 -1.000000 0.977846 
vertex  -1.000000 -0.500000 1.017020 
vertex  -1.500000 -0.500000 1.002984 
endloop 
endfacet 
facet normal  -0.027976 0.078077 0.996555 
outer loop 
vertex  -1.500000 0.500000 1.002984 
vertex  -1.000000 0.500000 1.017020 
vertex  -1.000000 1.000000 0.977846 
endloop 
endfacet 
facet normal  0.118591 -0.052370 0.991561 
outer loop 
vertex  -0.500000 -1.000000 0.930812 
vertex  -0.500000 -0.500000 0.957220 
vertex  -1.000000 -0.500000 1.017020 
endloop 
endfacet 
facet normal  0.118591 0.052370 0.991561 
outer loop 
vertex  -1.000000 0.500000 1.017020 
vertex  -0.500000 0.500000 0.957220 
vertex  -0.500000 1.000000 0.930812 
endloop 
endfacet 
facet normal  -0.021915 -0.025146 0.999444 
outer loop 
vertex  -1.000000 0.000000 1.029600 
vertex  -1.500000 0.000000 1.018636 
vertex  -1.000000 -0.500000 1.017020 
endloop 
endfacet 
facet normal  -0.021915 0.025146 0.999444 
outer loop 
vertex  -1.000000 0.500000 1.017020 
vertex  -1.500000 -0.000000 1.018636 
vertex  -1.000000 -0.000000 1.029600 
endloop 
endfacet 
facet normal  0.093372 -0.077767 0.992590 
outer loop 
vertex  -1.000000 -1.000000 0.977846 
vertex  -0.500000 -1.000000 0.930812 
vertex  -1.000000 -0.500000 1.017020 
endloop 
endfacet 
facet normal  0.093372 0.077767 0.992590 
outer loop 
vertex  -1.000000 0.500000 1.017020 
vertex  -0.500000 1.000000 0.930812 
vertex  -1.000000 1.000000 0.977846 
endloop 
endfacet 
facet normal  0.380713 0.032942 0.924106 
outer loop 
vertex  0.000000 -1.000000 0.808235 
vertex  0.500000 -1.500000 0.620069 
vertex  0.500000 -1.000000 0.602245 
endloop 
endfacet 
facet normal  0.380713 -0.032942 0.924106 
outer loop 
vertex  0.500000 1.000000 0.602245 
vertex  0.500000 1.500000 0.620069 
vertex  0.000000 1.000000 0.808235 
endloop 
endfacet 
facet normal  -0.172762 -0.105678 0.979278 
outer loop 
vertex  -1.500000 -1.000000 0.955128 
vertex  -2.000000 -0.500000 0.920876 
vertex  -2.000000 -1.000000 0.866919 
endloop 
endfacet 
facet normal  -0.172762 0.105678 0.979278 
outer loop 
vertex  -2.000000 1.000000 0.866919 
vertex  -2.000000 0.500000 0.920876 
vertex  -1.500000 1.000000 0.955128 
endloop 
endfacet 
facet normal  -0.161945 -0.035090 0.986176 
outer loop 
vertex  -1.500000 -0.500000 1.002984 
vertex  -2.000000 0.000000 0.938667 
vertex  -2.000000 -0.500000 0.920876 
endloop 
endfacet 
facet normal  -0.161945 0.035090 0.986176 
outer loop 
vertex  -2.000000 0.500000 0.920876 
vertex  -2.000000 -0.000000 0.938667 
vertex  -1.500000 0.500000 1.002984 
endloop 
endfacet 
facet normal  -0.045183 -0.095179 0.994434 
outer loop 
vertex  -1.000000 -1.000000 0.977846 
vertex  -1.500000 -0.500000 1.002984 
vertex  -1.500000 -1.000000 0.955128 
endloop 
endfacet 
facet normal  -0.045183 0.095179 0.994434 
outer loop 
vertex  -1.500000 1.000000 0.955128 
vertex  -1.500000 0.500000 1.002984 
vertex  -1.000000 1.000000 0.977846 
endloop 
endfacet 
facet normal  -0.028048 -0.031278 0.999117 
outer loop 
vertex  -1.000000 -0.500000 1.017020 
vertex  -1.500000 0.000000 1.018636 
vertex  -1.500000 -0.500000 1.002984 
endloop 
endfacet 
facet normal  -0.028048 0.031278 0.999117 
outer loop 
vertex  -1.500000 0.500000 1.002984 
vertex  -1.500000 -0.000000 1.018636 
vertex  -1.000000 0.500000 1.017020 
endloop 
endfacet 
facet normal  -0.385485 -0.112876 0.915784 
outer loop 
vertex  -2.500000 -1.000000 0.716387 
vertex  -3.000000 -0.500000 0.567548 
vertex  -3.000000 -1.000000 0.505920 
endloop 
endfacet 
facet normal  -0.385485 0.112876 0.915784 
outer loop 
vertex  -3.000000 1.000000 0.505920 
vertex  -3.000000 0.500000 0.567548 
vertex  -2.500000 1.000000 0.716387 
endloop 
endfacet 
facet normal  -0.279019 -0.103030 0.954742 
outer loop 
vertex  -2.000000 -0.500000 0.920876 
vertex  -2.500000 -0.500000 0.774753 
vertex  -2.000000 -1.000000 0.866919 
endloop 
endfacet 
facet normal  -0.279019 0.103030 0.954742 
outer loop 
vertex  -2.000000 1.000000 0.866919 
vertex  -2.500000 0.500000 0.774753 
vertex  -2.000000 0.500000 0.920876 
endloop 
endfacet 
facet normal  -0.277635 -0.034161 0.960079 
outer loop 
vertex  -2.000000 -0.500000 0.920876 
vertex  -2.000000 0.000000 0.938667 
vertex  -2.500000 0.000000 0.794077 
endloop 
endfacet 
facet normal  -0.277635 0.034161 0.960079 
outer loop 
vertex  -2.500000 -0.000000 0.794077 
vertex  -2.000000 -0.000000 0.938667 
vertex  -2.000000 0.500000 0.920876 
endloop 
endfacet 
facet normal  -0.393392 -0.328475 0.858689 
outer loop 
vertex  -2.500000 -2.500000 0.293423 
vertex  -3.000000 -2.000000 0.255623 
vertex  -3.000000 -2.500000 0.064357 
endloop 
endfacet 
facet normal  -0.393392 0.328475 0.858689 
outer loop 
vertex  -3.000000 2.500000 0.064357 
vertex  -3.000000 2.000000 0.255623 
vertex  -2.500000 2.500000 0.293423 
endloop 
endfacet 
facet normal  -0.391810 -0.259045 0.882825 
outer loop 
vertex  -2.500000 -2.000000 0.477530 
vertex  -3.000000 -1.500000 0.402337 
vertex  -3.000000 -2.000000 0.255623 
endloop 
endfacet 
facet normal  -0.391810 0.259045 0.882825 
outer loop 
vertex  -3.000000 2.000000 0.255623 
vertex  -3.000000 1.500000 0.402337 
vertex  -2.500000 2.000000 0.477530 
endloop 
endfacet 
facet normal  -0.388872 -0.186893 0.902136 
outer loop 
vertex  -2.500000 -1.500000 0.617865 
vertex  -3.000000 -1.000000 0.505920 
vertex  -3.000000 -1.500000 0.402337 
endloop 
endfacet 
facet normal  -0.388872 0.186893 0.902136 
outer loop 
vertex  -3.000000 1.500000 0.402337 
vertex  -3.000000 1.000000 0.505920 
vertex  -2.500000 1.500000 0.617865 
endloop 
endfacet 
facet normal  -0.381721 -0.178688 0.906841 
outer loop 
vertex  -2.500000 -1.500000 0.617865 
vertex  -2.500000 -1.000000 0.716387 
vertex  -3.000000 -1.000000 0.505920 
endloop 
endfacet 
facet normal  -0.381721 0.178688 0.906841 
outer loop 
vertex  -3.000000 1.000000 0.505920 
vertex  -2.500000 1.000000 0.716387 
vertex  -2.500000 1.500000 0.617865 
endloop 
endfacet 
facet normal  -0.294920 -0.184728 0.937495 
outer loop 
vertex  -2.000000 -1.500000 0.775157 
vertex  -2.500000 -1.000000 0.716387 
vertex  -2.500000 -1.500000 0.617865 
endloop 
endfacet 
facet normal  -0.294920 0.184728 0.937495 
outer loop 
vertex  -2.500000 1.500000 0.617865 
vertex  -2.500000 1.000000 0.716387 
vertex  -2.000000 1.500000 0.775157 
endloop 
endfacet 
facet normal  -0.286498 -0.111084 0.951619 
outer loop 
vertex  -2.000000 -1.000000 0.866919 
vertex  -2.500000 -0.500000 0.774753 
vertex  -2.500000 -1.000000 0.716387 
endloop 
endfacet 
facet normal  -0.286498 0.111084 0.951619 
outer loop 
vertex  -2.500000 1.000000 0.716387 
vertex  -2.500000 0.500000 0.774753 
vertex  -2.000000 1.000000 0.866919 
endloop 
endfacet 
facet normal  -0.251448 0.000000 0.967871 
outer loop 
vertex  -4.000000 -1.000000 0.000000 
vertex  -4.000000 -1.500000 0.000000 
vertex  -3.500000 -1.500000 0.129897 
endloop 
endfacet 
facet normal  -0.251448 -0.000000 0.967871 
outer loop 
vertex  -3.500000 1.500000 0.129897 
vertex  -4.000000 1.500000 0.000000 
vertex  -4.000000 1.000000 0.000000 
endloop 
endfacet 
facet normal  -0.243857 -0.243857 0.938652 
outer loop 
vertex  -3.500000 -2.000000 0.000000 
vertex  -3.500000 -1.500000 0.129897 
vertex  -4.000000 -1.500000 0.000000 
endloop 
endfacet 
facet normal  -0.243857 0.243857 0.938652 
outer loop 
vertex  -4.000000 1.500000 0.000000 
vertex  -3.500000 1.500000 0.129897 
vertex  -3.500000 2.000000 0.000000 
endloop 
endfacet 
facet normal  -0.443495 -0.225367 0.867480 
outer loop 
vertex  -3.500000 -2.000000 0.000000 
vertex  -3.000000 -2.000000 0.255623 
vertex  -3.500000 -1.500000 0.129897 
endloop 
endfacet 
facet normal  -0.443495 0.225367 0.867480 
outer loop 
vertex  -3.500000 1.500000 0.129897 
vertex  -3.000000 2.000000 0.255623 
vertex  -3.500000 2.000000 0.000000 
endloop 
endfacet 
facet normal  -0.428822 0.000000 0.903389 
outer loop 
vertex  -4.000000 -0.500000 0.000000 
vertex  -4.000000 -1.000000 0.000000 
vertex  -3.500000 -1.000000 0.237341 
endloop 
endfacet 
facet normal  -0.428822 -0.000000 0.903389 
outer loop 
vertex  -3.500000 1.000000 0.237341 
vertex  -4.000000 1.000000 0.000000 
vertex  -4.000000 0.500000 0.000000 
endloop 
endfacet 
facet normal  -0.541961 -0.035768 0.839642 
outer loop 
vertex  -3.500000 0.000000 0.322733 
vertex  -4.000000 0.000000 0.000000 
vertex  -3.500000 -0.500000 0.301434 
endloop 
endfacet 
facet normal  -0.541961 0.035768 0.839642 
outer loop 
vertex  -3.500000 0.500000 0.301434 
vertex  -4.000000 -0.000000 0.000000 
vertex  -3.500000 -0.000000 0.322733 
endloop 
endfacet 
facet normal  -0.516300 0.000000 0.856408 
outer loop 
vertex  -4.000000 0.000000 0.000000 
vertex  -4.000000 -0.500000 0.000000 
vertex  -3.500000 -0.500000 0.301434 
endloop 
endfacet 
facet normal  -0.516300 -0.000000 0.856408 
outer loop 
vertex  -3.500000 0.500000 0.301434 
vertex  -4.000000 0.500000 0.000000 
vertex  -4.000000 -0.000000 0.000000 
endloop 
endfacet 
facet normal  -0.468356 -0.036110 0.882802 
outer loop 
vertex  -3.000000 -0.500000 0.567548 
vertex  -3.000000 0.000000 0.588000 
vertex  -3.500000 0.000000 0.322733 
endloop 
endfacet 
facet normal  -0.468356 0.036110 0.882802 
outer loop 
vertex  -3.500000 -0.000000 0.322733 
vertex  -3.000000 -0.000000 0.588000 
vertex  -3.000000 0.500000 0.567548 
endloop 
endfacet 
facet normal  -0.380814 -0.035709 0.923962 
outer loop 
vertex  -2.500000 0.000000 0.794077 
vertex  -3.000000 0.000000 0.588000 
vertex  -2.500000 -0.500000 0.774753 
endloop 
endfacet 
facet normal  -0.380814 0.035709 0.923962 
outer loop 
vertex  -2.500000 0.500000 0.774753 
vertex  -3.000000 -0.000000 0.588000 
vertex  -2.500000 -0.000000 0.794077 
endloop 
endfacet 
facet normal  -0.280319 -0.037071 0.959191 
outer loop 
vertex  -2.000000 -0.500000 0.920876 
vertex  -2.500000 0.000000 0.794077 
vertex  -2.500000 -0.500000 0.774753 
endloop 
endfacet 
facet normal  -0.280319 0.037071 0.959191 
outer loop 
vertex  -2.500000 0.500000 0.774753 
vertex  -2.500000 -0.000000 0.794077 
vertex  -2.000000 0.500000 0.920876 
endloop 
endfacet 
facet normal  0.597871 0.050408 0.800006 
outer loop 
vertex  0.500000 0.000000 0.567000 
vertex  1.000000 -0.500000 0.224838 
vertex  1.000000 0.000000 0.193333 
endloop 
endfacet 
facet normal  0.597871 -0.050408 0.800006 
outer loop 
vertex  1.000000 -0.000000 0.193333 
vertex  1.000000 0.500000 0.224838 
vertex  0.500000 -0.000000 0.567000 
endloop 
endfacet 
facet normal  0.273335 -0.015394 0.961796 
outer loop 
vertex  -0.500000 -0.500000 0.957220 
vertex  0.000000 -0.500000 0.815123 
vertex  -0.500000 0.000000 0.965222 
endloop 
endfacet 
facet normal  0.273335 0.015394 0.961796 
outer loop 
vertex  -0.500000 -0.000000 0.965222 
vertex  0.000000 0.500000 0.815123 
vertex  -0.500000 0.500000 0.957220 
endloop 
endfacet 
facet normal  0.237790 -0.051229 0.969965 
outer loop 
vertex  -0.500000 -0.500000 0.957220 
vertex  -0.500000 -1.000000 0.930812 
vertex  0.000000 -1.000000 0.808235 
endloop 
endfacet 
facet normal  0.237790 0.051229 0.969965 
outer loop 
vertex  0.000000 1.000000 0.808235 
vertex  -0.500000 1.000000 0.930812 
vertex  -0.500000 0.500000 0.957220 
endloop 
endfacet 
facet normal  0.273344 -0.013250 0.961825 
outer loop 
vertex  0.000000 -0.500000 0.815123 
vertex  -0.500000 -0.500000 0.957220 
vertex  0.000000 -1.000000 0.808235 
endloop 
endfacet 
facet normal  0.273344 0.013250 0.961825 
outer loop 
vertex  0.000000 1.000000 0.808235 
vertex  -0.500000 0.500000 0.957220 
vertex  0.000000 0.500000 0.815123 
endloop 
endfacet 
facet normal  0.173151 0.173151 0.969555 
outer loop 
vertex  1.500000 -1.000000 0.000000 
vertex  1.500000 -1.500000 0.089294 
vertex  2.000000 -1.500000 0.000000 
endloop 
endfacet 
facet normal  0.173151 -0.173151 0.969555 
outer loop 
vertex  2.000000 1.500000 0.000000 
vertex  1.500000 1.500000 0.089294 
vertex  1.500000 1.000000 0.000000 
endloop 
endfacet 
facet normal  0.428321 0.044054 0.902552 
outer loop 
vertex  0.500000 -1.000000 0.602245 
vertex  0.500000 -0.500000 0.577840 
vertex  0.000000 -0.500000 0.815123 
endloop 
endfacet 
facet normal  0.428321 -0.044054 0.902552 
outer loop 
vertex  0.000000 0.500000 0.815123 
vertex  0.500000 0.500000 0.577840 
vertex  0.500000 1.000000 0.602245 
endloop 
endfacet 
facet normal  0.410119 0.000000 0.912032 
outer loop 
vertex  1.500000 -0.500000 0.000000 
vertex  1.000000 -0.500000 0.224838 
vertex  1.500000 -1.000000 0.000000 
endloop 
endfacet 
facet normal  0.410119 -0.000000 0.912032 
outer loop 
vertex  1.500000 1.000000 0.000000 
vertex  1.000000 0.500000 0.224838 
vertex  1.500000 0.500000 0.000000 
endloop 
endfacet 
facet normal  0.031967 0.031967 0.998978 
outer loop 
vertex  2.500000 -2.000000 0.000000 
vertex  2.000000 -1.500000 0.000000 
vertex  2.000000 -2.000000 0.016000 
endloop 
endfacet 
facet normal  0.031967 -0.031967 0.998978 
outer loop 
vertex  2.000000 2.000000 0.016000 
vertex  2.000000 1.500000 0.000000 
vertex  2.500000 2.000000 0.000000 
endloop 
endfacet 
facet normal  0.202947 -0.271636 0.940758 
outer loop 
vertex  1.500000 -3.000000 0.230803 
vertex  1.000000 -3.000000 0.338667 
vertex  1.500000 -3.500000 0.086432 
endloop 
endfacet 
facet normal  0.202947 0.271636 0.940758 
outer loop 
vertex  1.500000 3.500000 0.086432 
vertex  1.000000 3.000000 0.338667 
vertex  1.500000 3.000000 0.230803 
endloop 
endfacet 
facet normal  0.279456 -0.021985 0.959907 
outer loop 
vertex  1.500000 -2.500000 0.279600 
vertex  1.000000 -2.000000 0.436615 
vertex  1.000000 -2.500000 0.425164 
endloop 
endfacet 
facet normal  0.279456 0.021985 0.959907 
outer loop 
vertex  1.000000 2.500000 0.425164 
vertex  1.000000 2.000000 0.436615 
vertex  1.500000 2.500000 0.279600 
endloop 
endfacet 
facet normal  0.496740 0.233934 0.835778 
outer loop 
vertex  1.500000 -2.000000 0.229244 
vertex  1.500000 -1.500000 0.089294 
vertex  1.000000 -1.500000 0.386467 
endloop 
endfacet 
facet normal  0.496740 -0.233934 0.835778 
outer loop 
vertex  1.000000 1.500000 0.386467 
vertex  1.500000 1.500000 0.089294 
vertex  1.500000 2.000000 0.229244 
endloop 
endfacet 
facet normal  0.163211 -0.309387 0.936825 
outer loop 
vertex  1.000000 -3.500000 0.173541 
vertex  1.500000 -3.500000 0.086432 
vertex  1.000000 -3.000000 0.338667 
endloop 
endfacet 
facet normal  0.163211 0.309387 0.936825 
outer loop 
vertex  1.000000 3.000000 0.338667 
vertex  1.500000 3.500000 0.086432 
vertex  1.000000 3.500000 0.173541 
endloop 
endfacet 
facet normal  0.383195 0.214191 0.898490 
outer loop 
vertex  2.000000 -2.500000 0.135195 
vertex  2.000000 -2.000000 0.016000 
vertex  1.500000 -2.000000 0.229244 
endloop 
endfacet 
facet normal  0.383195 -0.214191 0.898490 
outer loop 
vertex  1.500000 2.000000 0.229244 
vertex  2.000000 2.000000 0.016000 
vertex  2.000000 2.500000 0.135195 
endloop 
endfacet 
facet normal  0.381467 0.092250 0.919768 
outer loop 
vertex  1.500000 -2.000000 0.229244 
vertex  1.000000 -1.500000 0.386467 
vertex  1.000000 -2.000000 0.436615 
endloop 
endfacet 
facet normal  0.381467 -0.092250 0.919768 
outer loop 
vertex  1.000000 2.000000 0.436615 
vertex  1.000000 1.500000 0.386467 
vertex  1.500000 2.000000 0.229244 
endloop 
endfacet 
facet normal  0.511574 0.151060 0.845856 
outer loop 
vertex  1.500000 -1.500000 0.089294 
vertex  1.500000 -1.000000 0.000000 
vertex  1.000000 -1.000000 0.302400 
endloop 
endfacet 
facet normal  0.511574 -0.151060 0.845856 
outer loop 
vertex  1.000000 1.000000 0.302400 
vertex  1.500000 1.000000 0.000000 
vertex  1.500000 1.500000 0.089294 
endloop 
endfacet 
facet normal  0.505663 0.143046 0.850790 
outer loop 
vertex  1.000000 -1.000000 0.302400 
vertex  1.000000 -1.500000 0.386467 
vertex  1.500000 -1.500000 0.089294 
endloop 
endfacet 
facet normal  0.505663 -0.143046 0.850790 
outer loop 
vertex  1.500000 1.500000 0.089294 
vertex  1.000000 1.500000 0.386467 
vertex  1.000000 1.000000 0.302400 
endloop 
endfacet 
facet normal  0.360645 0.000000 0.932703 
outer loop 
vertex  1.500000 0.000000 0.000000 
vertex  1.000000 0.000000 0.193333 
vertex  1.500000 -0.500000 0.000000 
endloop 
endfacet 
facet normal  0.360645 -0.000000 0.932703 
outer loop 
vertex  1.500000 0.500000 0.000000 
vertex  1.000000 -0.000000 0.193333 
vertex  1.500000 -0.000000 0.000000 
endloop 
endfacet 
facet normal  0.509036 0.142717 0.848831 
outer loop 
vertex  1.000000 -1.500000 0.386467 
vertex  1.000000 -1.000000 0.302400 
vertex  0.500000 -1.000000 0.602245 
endloop 
endfacet 
facet normal  0.509036 -0.142717 0.848831 
outer loop 
vertex  0.500000 1.000000 0.602245 
vertex  1.000000 1.000000 0.302400 
vertex  1.000000 1.500000 0.386467 
endloop 
endfacet 
facet normal  0.576659 0.017708 0.816793 
outer loop 
vertex  1.000000 -0.500000 0.224838 
vertex  0.500000 0.000000 0.567000 
vertex  0.500000 -0.500000 0.577840 
endloop 
endfacet 
facet normal  0.576659 -0.017708 0.816793 
outer loop 
vertex  0.500000 0.500000 0.577840 
vertex  0.500000 -0.000000 0.567000 
vertex  1.000000 0.500000 0.224838 
endloop 
endfacet 
facet normal  0.513013 0.131582 0.848236 
outer loop 
vertex  1.000000 -0.500000 0.224838 
vertex  1.000000 -1.000000 0.302400 
vertex  1.500000 -1.000000 0.000000 
endloop 
endfacet 
facet normal  0.513013 -0.131582 0.848236 
outer loop 
vertex  1.500000 1.000000 0.000000 
vertex  1.000000 1.000000 0.302400 
vertex  1.000000 0.500000 0.224838 
endloop 
endfacet 
facet normal  0.572174 0.125719 0.810439 
outer loop 
vertex  1.000000 -0.500000 0.224838 
vertex  0.500000 -0.500000 0.577840 
vertex  1.000000 -1.000000 0.302400 
endloop 
endfacet 
facet normal  0.572174 -0.125719 0.810439 
outer loop 
vertex  1.000000 1.000000 0.302400 
vertex  0.500000 0.500000 0.577840 
vertex  1.000000 0.500000 0.224838 
endloop 
endfacet 
facet normal  0.056511 -0.137790 0.988848 
outer loop 
vertex  -1.000000 -1.500000 0.908174 
vertex  -0.500000 -1.500000 0.879600 
vertex  -1.000000 -1.000000 0.977846 
endloop 
endfacet 
facet normal  0.056511 0.137790 0.988848 
outer loop 
vertex  -1.000000 1.000000 0.977846 
vertex  -0.500000 1.500000 0.879600 
vertex  -1.000000 1.500000 0.908174 
endloop 
endfacet 
facet normal  0.428736 -0.001584 0.903428 
outer loop 
vertex  0.000000 -0.500000 0.815123 
vertex  0.500000 -0.500000 0.577840 
vertex  0.000000 0.000000 0.816000 
endloop 
endfacet 
facet normal  0.428736 0.001584 0.903428 
outer loop 
vertex  0.000000 -0.000000 0.816000 
vertex  0.500000 0.500000 0.577840 
vertex  0.000000 0.500000 0.815123 
endloop 
endfacet 
facet normal  0.237846 -0.046414 0.970193 
outer loop 
vertex  0.000000 -1.500000 0.784315 
vertex  0.000000 -1.000000 0.808235 
vertex  -0.500000 -1.000000 0.930812 
endloop 
endfacet 
facet normal  0.237846 0.046414 0.970193 
outer loop 
vertex  -0.500000 1.000000 0.930812 
vertex  0.000000 1.000000 0.808235 
vertex  0.000000 1.500000 0.784315 
endloop 
endfacet 
facet normal  0.311764 -0.045404 0.949074 
outer loop 
vertex  0.000000 -1.500000 0.784315 
vertex  0.500000 -1.500000 0.620069 
vertex  0.000000 -1.000000 0.808235 
endloop 
endfacet 
facet normal  0.311764 0.045404 0.949074 
outer loop 
vertex  0.000000 1.000000 0.808235 
vertex  0.500000 1.500000 0.620069 
vertex  0.000000 1.500000 0.784315 
endloop 
endfacet 
facet normal  0.285980 -0.001681 0.958234 
outer loop 
vertex  -0.500000 0.000000 0.965222 
vertex  0.000000 -0.500000 0.815123 
vertex  0.000000 0.000000 0.816000 
endloop 
endfacet 
facet normal  0.285980 0.001681 0.958234 
outer loop 
vertex  0.000000 -0.000000 0.816000 
vertex  0.000000 0.500000 0.815123 
vertex  -0.500000 -0.000000 0.965222 
endloop 
endfacet 
facet normal  0.380889 -0.012736 0.924533 
outer loop 
vertex  0.000000 -1.000000 0.808235 
vertex  0.500000 -1.000000 0.602245 
vertex  0.000000 -0.500000 0.815123 
endloop 
endfacet 
facet normal  0.380889 0.012736 0.924533 
outer loop 
vertex  0.000000 0.500000 0.815123 
vertex  0.500000 1.000000 0.602245 
vertex  0.000000 1.000000 0.808235 
endloop 
endfacet 
facet normal  0.186261 -0.100107 0.977387 
outer loop 
vertex  -0.500000 -1.000000 0.930812 
vertex  -0.500000 -1.500000 0.879600 
vertex  0.000000 -1.500000 0.784315 
endloop 
endfacet 
facet normal  0.186261 0.100107 0.977387 
outer loop 
vertex  0.000000 1.500000 0.784315 
vertex  -0.500000 1.500000 0.879600 
vertex  -0.500000 1.000000 0.930812 
endloop 
endfacet 
facet normal  0.093172 -0.101447 0.990468 
outer loop 
vertex  -0.500000 -1.000000 0.930812 
vertex  -1.000000 -1.000000 0.977846 
vertex  -0.500000 -1.500000 0.879600 
endloop 
endfacet 
facet normal  0.093172 0.101447 0.990468 
outer loop 
vertex  -0.500000 1.500000 0.879600 
vertex  -1.000000 1.000000 0.977846 
vertex  -0.500000 1.000000 0.930812 
endloop 
endfacet 
facet normal  0.161203 -0.232933 0.959039 
outer loop 
vertex  0.500000 -2.500000 0.547405 
vertex  0.000000 -2.500000 0.631449 
vertex  0.500000 -3.000000 0.425965 
endloop 
endfacet 
facet normal  0.161203 0.232933 0.959039 
outer loop 
vertex  0.500000 3.000000 0.425965 
vertex  0.000000 2.500000 0.631449 
vertex  0.500000 2.500000 0.547405 
endloop 
endfacet 
facet normal  0.127543 -0.191052 0.973258 
outer loop 
vertex  0.000000 -2.000000 0.729600 
vertex  -0.500000 -2.000000 0.795124 
vertex  0.000000 -2.500000 0.631449 
endloop 
endfacet 
facet normal  0.127543 0.191052 0.973258 
outer loop 
vertex  0.000000 2.500000 0.631449 
vertex  -0.500000 2.000000 0.795124 
vertex  0.000000 2.000000 0.729600 
endloop 
endfacet 
facet normal  0.162741 -0.190057 0.968191 
outer loop 
vertex  0.500000 -2.500000 0.547405 
vertex  0.000000 -2.000000 0.729600 
vertex  0.000000 -2.500000 0.631449 
endloop 
endfacet 
facet normal  0.162741 0.190057 0.968191 
outer loop 
vertex  0.000000 2.500000 0.631449 
vertex  0.000000 2.000000 0.729600 
vertex  0.500000 2.500000 0.547405 
endloop 
endfacet 
facet normal  0.234791 -0.105740 0.966278 
outer loop 
vertex  0.500000 -2.000000 0.608108 
vertex  0.000000 -1.500000 0.784315 
vertex  0.000000 -2.000000 0.729600 
endloop 
endfacet 
facet normal  0.234791 0.105740 0.966278 
outer loop 
vertex  0.000000 2.000000 0.729600 
vertex  0.000000 1.500000 0.784315 
vertex  0.500000 2.000000 0.608108 
endloop 
endfacet 
facet normal  0.167273 -0.232694 0.958057 
outer loop 
vertex  1.000000 -3.000000 0.338667 
vertex  0.500000 -2.500000 0.547405 
vertex  0.500000 -3.000000 0.425965 
endloop 
endfacet 
facet normal  0.167273 0.232694 0.958057 
outer loop 
vertex  0.500000 3.000000 0.425965 
vertex  0.500000 2.500000 0.547405 
vertex  1.000000 3.000000 0.338667 
endloop 
endfacet 
facet normal  0.324356 -0.021659 0.945687 
outer loop 
vertex  1.000000 -2.500000 0.425164 
vertex  1.000000 -2.000000 0.436615 
vertex  0.500000 -2.000000 0.608108 
endloop 
endfacet 
facet normal  0.324356 0.021659 0.945687 
outer loop 
vertex  0.500000 2.000000 0.608108 
vertex  1.000000 2.000000 0.436615 
vertex  1.000000 2.500000 0.425164 
endloop 
endfacet 
facet normal  0.312005 -0.022722 0.949809 
outer loop 
vertex  0.000000 -1.500000 0.784315 
vertex  0.500000 -2.000000 0.608108 
vertex  0.500000 -1.500000 0.620069 
endloop 
endfacet 
facet normal  0.312005 0.022722 0.949809 
outer loop 
vertex  0.500000 1.500000 0.620069 
vertex  0.500000 2.000000 0.608108 
vertex  0.000000 1.500000 0.784315 
endloop 
endfacet 
facet normal  0.235854 -0.117120 0.964705 
outer loop 
vertex  0.500000 -2.500000 0.547405 
vertex  1.000000 -2.500000 0.425164 
vertex  0.500000 -2.000000 0.608108 
endloop 
endfacet 
facet normal  0.235854 0.117120 0.964705 
outer loop 
vertex  0.500000 2.000000 0.608108 
vertex  1.000000 2.500000 0.425164 
vertex  0.500000 2.500000 0.547405 
endloop 
endfacet 
facet normal  0.423065 0.032280 0.905524 
outer loop 
vertex  1.000000 -1.500000 0.386467 
vertex  0.500000 -1.000000 0.602245 
vertex  0.500000 -1.500000 0.620069 
endloop 
endfacet 
facet normal  0.423065 -0.032280 0.905524 
outer loop 
vertex  0.500000 1.500000 0.620069 
vertex  0.500000 1.000000 0.602245 
vertex  1.000000 1.500000 0.386467 
endloop 
endfacet 
facet normal  0.513851 0.041824 0.856860 
outer loop 
vertex  1.000000 -1.000000 0.302400 
vertex  0.500000 -0.500000 0.577840 
vertex  0.500000 -1.000000 0.602245 
endloop 
endfacet 
facet normal  0.513851 -0.041824 0.856860 
outer loop 
vertex  0.500000 1.000000 0.602245 
vertex  0.500000 0.500000 0.577840 
vertex  1.000000 1.000000 0.302400 
endloop 
endfacet 
facet normal  -0.009425 -0.476392 0.879182 
outer loop 
vertex  0.000000 -3.500000 0.270929 
vertex  -0.500000 -3.500000 0.265569 
vertex  0.000000 -4.000000 0.000000 
endloop 
endfacet 
facet normal  -0.009425 0.476392 0.879182 
outer loop 
vertex  0.000000 4.000000 0.000000 
vertex  -0.500000 3.500000 0.265569 
vertex  0.000000 3.500000 0.270929 
endloop 
endfacet 
facet normal  0.059360 -0.429035 0.901335 
outer loop 
vertex  0.500000 -3.500000 0.238000 
vertex  0.000000 -3.500000 0.270929 
vertex  0.500000 -4.000000 0.000000 
endloop 
endfacet 
facet normal  0.059360 0.429035 0.901335 
outer loop 
vertex  0.500000 4.000000 0.000000 
vertex  0.000000 3.500000 0.270929 
vertex  0.500000 3.500000 0.238000 
endloop 
endfacet 
facet normal  0.000000 -0.170339 0.985386 
outer loop 
vertex  1.500000 -4.000000 0.000000 
vertex  2.000000 -4.000000 0.000000 
vertex  1.500000 -3.500000 0.086432 
endloop 
endfacet 
facet normal  0.000000 0.170339 0.985386 
outer loop 
vertex  1.500000 3.500000 0.086432 
vertex  2.000000 4.000000 0.000000 
vertex  1.500000 4.000000 0.000000 
endloop 
endfacet 
facet normal  -0.009750 -0.415644 0.909475 
outer loop 
vertex  0.000000 -3.500000 0.270929 
vertex  -0.500000 -3.000000 0.494077 
vertex  -0.500000 -3.500000 0.265569 
endloop 
endfacet 
facet normal  -0.009750 0.415644 0.909475 
outer loop 
vertex  -0.500000 3.500000 0.265569 
vertex  -0.500000 3.000000 0.494077 
vertex  0.000000 3.500000 0.270929 
endloop 
endfacet 
facet normal  0.025661 -0.330017 0.943626 
outer loop 
vertex  0.000000 -3.000000 0.480480 
vertex  -0.500000 -2.500000 0.668943 
vertex  -0.500000 -3.000000 0.494077 
endloop 
endfacet 
facet normal  0.025661 0.330017 0.943626 
outer loop 
vertex  -0.500000 3.000000 0.494077 
vertex  -0.500000 2.500000 0.668943 
vertex  0.000000 3.000000 0.480480 
endloop 
endfacet 
facet normal  0.000000 -0.469078 0.883157 
outer loop 
vertex  -0.500000 -4.000000 0.000000 
vertex  0.000000 -4.000000 0.000000 
vertex  -0.500000 -3.500000 0.265569 
endloop 
endfacet 
facet normal  0.000000 0.469078 0.883157 
outer loop 
vertex  -0.500000 3.500000 0.265569 
vertex  0.000000 4.000000 0.000000 
vertex  -0.500000 4.000000 0.000000 
endloop 
endfacet 
facet normal  0.101530 -0.350068 0.931206 
outer loop 
vertex  0.500000 -3.500000 0.238000 
vertex  0.500000 -3.000000 0.425965 
vertex  0.000000 -3.000000 0.480480 
endloop 
endfacet 
facet normal  0.101530 0.350068 0.931206 
outer loop 
vertex  0.000000 3.000000 0.480480 
vertex  0.500000 3.000000 0.425965 
vertex  0.500000 3.500000 0.238000 
endloop 
endfacet 
facet normal  0.071603 -0.288308 0.954857 
outer loop 
vertex  -0.500000 -2.500000 0.668943 
vertex  0.000000 -3.000000 0.480480 
vertex  0.000000 -2.500000 0.631449 
endloop 
endfacet 
facet normal  0.071603 0.288308 0.954857 
outer loop 
vertex  0.000000 2.500000 0.631449 
vertex  0.000000 3.000000 0.480480 
vertex  -0.500000 2.500000 0.668943 
endloop 
endfacet 
facet normal  0.060628 -0.385817 0.920581 
outer loop 
vertex  0.000000 -3.500000 0.270929 
vertex  0.500000 -3.500000 0.238000 
vertex  0.000000 -3.000000 0.480480 
endloop 
endfacet 
facet normal  0.060628 0.385817 0.920581 
outer loop 
vertex  0.000000 3.000000 0.480480 
vertex  0.500000 3.500000 0.238000 
vertex  0.000000 3.500000 0.270929 
endloop 
endfacet 
facet normal  0.000000 -0.429793 0.902927 
outer loop 
vertex  0.500000 -3.500000 0.238000 
vertex  0.500000 -4.000000 0.000000 
vertex  1.000000 -4.000000 0.000000 
endloop 
endfacet 
facet normal  0.000000 0.429793 0.902927 
outer loop 
vertex  1.000000 4.000000 0.000000 
vertex  0.500000 4.000000 0.000000 
vertex  0.500000 3.500000 0.238000 
endloop 
endfacet 
facet normal  0.120897 -0.325489 0.937785 
outer loop 
vertex  0.500000 -3.500000 0.238000 
vertex  1.000000 -4.000000 0.000000 
vertex  1.000000 -3.500000 0.173541 
endloop 
endfacet 
facet normal  0.120897 0.325489 0.937785 
outer loop 
vertex  1.000000 3.500000 0.173541 
vertex  1.000000 4.000000 0.000000 
vertex  0.500000 3.500000 0.238000 
endloop 
endfacet 
facet normal  0.000000 -0.327894 0.944715 
outer loop 
vertex  1.000000 -4.000000 0.000000 
vertex  1.500000 -4.000000 0.000000 
vertex  1.000000 -3.500000 0.173541 
endloop 
endfacet 
facet normal  0.000000 0.327894 0.944715 
outer loop 
vertex  1.000000 3.500000 0.173541 
vertex  1.500000 4.000000 0.000000 
vertex  1.000000 4.000000 0.000000 
endloop 
endfacet 
facet normal  0.169196 -0.167883 0.971179 
outer loop 
vertex  1.500000 -4.000000 0.000000 
vertex  1.500000 -3.500000 0.086432 
vertex  1.000000 -3.500000 0.173541 
endloop 
endfacet 
facet normal  0.169196 0.167883 0.971179 
outer loop 
vertex  1.000000 3.500000 0.173541 
vertex  1.500000 3.500000 0.086432 
vertex  1.500000 4.000000 0.000000 
endloop 
endfacet 
facet normal  0.045418 -0.008877 0.998929 
outer loop 
vertex  2.500000 -2.500000 0.027176 
vertex  2.500000 -3.000000 0.022733 
vertex  3.000000 -3.000000 0.000000 
endloop 
endfacet 
facet normal  0.045418 0.008877 0.998929 
outer loop 
vertex  3.000000 3.000000 0.000000 
vertex  2.500000 3.000000 0.022733 
vertex  2.500000 2.500000 0.027176 
endloop 
endfacet 
facet normal  0.205656 0.226935 0.951948 
outer loop 
vertex  2.000000 -2.000000 0.016000 
vertex  2.000000 -2.500000 0.135195 
vertex  2.500000 -2.500000 0.027176 
endloop 
endfacet 
facet normal  0.205656 -0.226935 0.951948 
outer loop 
vertex  2.500000 2.500000 0.027176 
vertex  2.000000 2.500000 0.135195 
vertex  2.000000 2.000000 0.016000 
endloop 
endfacet 
facet normal  0.170339 0.000000 0.985386 
outer loop 
vertex  1.500000 -3.500000 0.086432 
vertex  2.000000 -4.000000 0.000000 
vertex  2.000000 -3.500000 0.000000 
endloop 
endfacet 
facet normal  0.170339 -0.000000 0.985386 
outer loop 
vertex  2.000000 3.500000 0.000000 
vertex  2.000000 4.000000 0.000000 
vertex  1.500000 3.500000 0.086432 
endloop 
endfacet 
facet normal  0.212413 -0.226388 0.950594 
outer loop 
vertex  2.000000 -3.000000 0.119077 
vertex  1.500000 -3.000000 0.230803 
vertex  2.000000 -3.500000 0.000000 
endloop 
endfacet 
facet normal  0.212413 0.226388 0.950594 
outer loop 
vertex  2.000000 3.500000 0.000000 
vertex  1.500000 3.000000 0.230803 
vertex  2.000000 3.000000 0.119077 
endloop 
endfacet 
facet normal  0.278304 -0.093295 0.955951 
outer loop 
vertex  1.500000 -2.500000 0.279600 
vertex  1.000000 -2.500000 0.425164 
vertex  1.500000 -3.000000 0.230803 
endloop 
endfacet 
facet normal  0.278304 0.093295 0.955951 
outer loop 
vertex  1.500000 3.000000 0.230803 
vertex  1.000000 2.500000 0.425164 
vertex  1.500000 2.500000 0.279600 
endloop 
endfacet 
facet normal  0.217092 -0.094815 0.971535 
outer loop 
vertex  1.500000 -3.000000 0.230803 
vertex  2.000000 -3.000000 0.119077 
vertex  1.500000 -2.500000 0.279600 
endloop 
endfacet 
facet normal  0.217092 0.094815 0.971535 
outer loop 
vertex  1.500000 2.500000 0.279600 
vertex  2.000000 3.000000 0.119077 
vertex  1.500000 3.000000 0.230803 
endloop 
endfacet 
facet normal  0.000000 -0.231674 0.972793 
outer loop 
vertex  2.000000 -3.500000 0.000000 
vertex  2.500000 -3.500000 0.000000 
vertex  2.000000 -3.000000 0.119077 
endloop 
endfacet 
facet normal  0.000000 0.231674 0.972793 
outer loop 
vertex  2.000000 3.000000 0.119077 
vertex  2.500000 3.500000 0.000000 
vertex  2.000000 3.500000 0.000000 
endloop 
endfacet 
facet normal  0.277337 -0.030956 0.960274 
outer loop 
vertex  2.000000 -3.000000 0.119077 
vertex  2.000000 -2.500000 0.135195 
vertex  1.500000 -2.500000 0.279600 
endloop 
endfacet 
facet normal  0.277337 0.030956 0.960274 
outer loop 
vertex  1.500000 2.500000 0.279600 
vertex  2.000000 2.500000 0.135195 
vertex  2.000000 3.000000 0.119077 
endloop 
endfacet 
facet normal  0.189112 -0.031638 0.981446 
outer loop 
vertex  2.000000 -3.000000 0.119077 
vertex  2.500000 -3.000000 0.022733 
vertex  2.000000 -2.500000 0.135195 
endloop 
endfacet 
facet normal  0.189112 0.031638 0.981446 
outer loop 
vertex  2.000000 2.500000 0.135195 
vertex  2.500000 3.000000 0.022733 
vertex  2.000000 3.000000 0.119077 
endloop 
endfacet 
facet normal  0.054193 0.054193 0.997059 
outer loop 
vertex  2.500000 -2.000000 0.000000 
vertex  2.500000 -2.500000 0.027176 
vertex  3.000000 -2.500000 0.000000 
endloop 
endfacet 
facet normal  0.054193 -0.054193 0.997059 
outer loop 
vertex  3.000000 2.500000 0.000000 
vertex  2.500000 2.500000 0.027176 
vertex  2.500000 2.000000 0.000000 
endloop 
endfacet 
facet normal  0.031937 0.054245 0.998017 
outer loop 
vertex  2.000000 -2.000000 0.016000 
vertex  2.500000 -2.500000 0.027176 
vertex  2.500000 -2.000000 0.000000 
endloop 
endfacet 
facet normal  0.031937 -0.054245 0.998017 
outer loop 
vertex  2.500000 2.000000 0.000000 
vertex  2.500000 2.500000 0.027176 
vertex  2.000000 2.000000 0.016000 
endloop 
endfacet 
facet normal  0.211158 -0.008686 0.977413 
outer loop 
vertex  2.000000 -2.500000 0.135195 
vertex  2.500000 -3.000000 0.022733 
vertex  2.500000 -2.500000 0.027176 
endloop 
endfacet 
facet normal  0.211158 0.008686 0.977413 
outer loop 
vertex  2.500000 2.500000 0.027176 
vertex  2.500000 3.000000 0.022733 
vertex  2.000000 2.500000 0.135195 
endloop 
endfacet 
facet normal  0.189018 -0.044601 0.980960 
outer loop 
vertex  2.000000 -3.000000 0.119077 
vertex  2.500000 -3.500000 0.000000 
vertex  2.500000 -3.000000 0.022733 
endloop 
endfacet 
facet normal  0.189018 0.044601 0.980960 
outer loop 
vertex  2.500000 3.000000 0.022733 
vertex  2.500000 3.500000 0.000000 
vertex  2.000000 3.000000 0.119077 
endloop 
endfacet 
facet normal  0.045420 0.000000 0.998968 
outer loop 
vertex  3.000000 -3.000000 0.000000 
vertex  2.500000 -3.000000 0.022733 
vertex  3.000000 -3.500000 0.000000 
endloop 
endfacet 
facet normal  0.045420 -0.000000 0.998968 
outer loop 
vertex  3.000000 3.500000 0.000000 
vertex  2.500000 3.000000 0.022733 
vertex  3.000000 3.000000 0.000000 
endloop 
endfacet 
facet normal  0.000000 -0.045420 0.998968 
outer loop 
vertex  3.000000 -3.500000 0.000000 
vertex  2.500000 -3.000000 0.022733 
vertex  2.500000 -3.500000 0.000000 
endloop 
endfacet 
facet normal  0.000000 0.045420 0.998968 
outer loop 
vertex  2.500000 3.500000 0.000000 
vertex  2.500000 3.000000 0.022733 
vertex  3.000000 3.500000 0.000000 
endloop 
endfacet 
facet normal  0.054273 0.000000 0.998526 
outer loop 
vertex  3.000000 -2.500000 0.000000 
vertex  2.500000 -2.500000 0.027176 
vertex  3.000000 -3.000000 0.000000 
endloop 
endfacet 
facet normal  0.054273 -0.000000 0.998526 
outer loop 
vertex  3.000000 3.000000 0.000000 
vertex  2.500000 2.500000 0.027176 
vertex  3.000000 2.500000 0.000000 
endloop 
endfacet 
endsolid Cuerno_21_Aendfacet 
