solid Cuerno_5_B 
facet normal  0.000000 0.000000 -1.000000 
outer loop 
vertex  -2.500000 -2.500000 0.000000 
vertex  -5.000000 -2.500000 0.000000 
vertex  -5.000000 0.000000 0.000000 
endloop 
endfacet 
facet normal  0.000000 0.000000 -1.000000 
outer loop 
vertex  -5.000000 -0.000000 0.000000 
vertex  -5.000000 2.500000 0.000000 
vertex  -2.500000 2.500000 0.000000 
endloop 
endfacet 
facet normal  0.000000 0.000000 -1.000000 
outer loop 
vertex  5.000000 -2.500000 0.000000 
vertex  2.500000 -2.500000 0.000000 
vertex  2.500000 0.000000 0.000000 
endloop 
endfacet 
facet normal  0.000000 0.000000 -1.000000 
outer loop 
vertex  2.500000 -0.000000 0.000000 
vertex  2.500000 2.500000 0.000000 
vertex  5.000000 2.500000 0.000000 
endloop 
endfacet 
facet normal  0.000000 0.000000 -1.000000 
outer loop 
vertex  0.000000 -2.500000 0.000000 
vertex  -2.500000 0.000000 0.000000 
vertex  0.000000 0.000000 0.000000 
endloop 
endfacet 
facet normal  0.000000 0.000000 -1.000000 
outer loop 
vertex  0.000000 -0.000000 0.000000 
vertex  -2.500000 -0.000000 0.000000 
vertex  0.000000 2.500000 0.000000 
endloop 
endfacet 
facet normal  0.000000 0.000000 -1.000000 
outer loop 
vertex  -5.000000 -2.500000 0.000000 
vertex  -2.500000 -2.500000 0.000000 
vertex  -2.500000 -5.000000 0.000000 
endloop 
endfacet 
facet normal  0.000000 0.000000 -1.000000 
outer loop 
vertex  -2.500000 5.000000 0.000000 
vertex  -2.500000 2.500000 0.000000 
vertex  -5.000000 2.500000 0.000000 
endloop 
endfacet 
facet normal  0.000000 0.000000 -1.000000 
outer loop 
vertex  2.500000 -2.500000 0.000000 
vertex  5.000000 -5.000000 0.000000 
vertex  2.500000 -5.000000 0.000000 
endloop 
endfacet 
facet normal  0.000000 0.000000 -1.000000 
outer loop 
vertex  2.500000 5.000000 0.000000 
vertex  5.000000 5.000000 0.000000 
vertex  2.500000 2.500000 0.000000 
endloop 
endfacet 
facet normal  0.000000 0.000000 -1.000000 
outer loop 
vertex  -2.500000 -2.500000 0.000000 
vertex  0.000000 -2.500000 0.000000 
vertex  0.000000 -5.000000 0.000000 
endloop 
endfacet 
facet normal  0.000000 0.000000 -1.000000 
outer loop 
vertex  0.000000 5.000000 0.000000 
vertex  0.000000 2.500000 0.000000 
vertex  -2.500000 2.500000 0.000000 
endloop 
endfacet 
facet normal  0.000000 0.000000 -1.000000 
outer loop 
vertex  0.000000 -5.000000 0.000000 
vertex  -2.500000 -5.000000 0.000000 
vertex  -2.500000 -2.500000 0.000000 
endloop 
endfacet 
facet normal  0.000000 0.000000 -1.000000 
outer loop 
vertex  -2.500000 2.500000 0.000000 
vertex  -2.500000 5.000000 0.000000 
vertex  0.000000 5.000000 0.000000 
endloop 
endfacet 
facet normal  0.000000 0.000000 -1.000000 
outer loop 
vertex  -2.500000 -2.500000 0.000000 
vertex  -5.000000 0.000000 0.000000 
vertex  -2.500000 0.000000 0.000000 
endloop 
endfacet 
facet normal  0.000000 0.000000 -1.000000 
outer loop 
vertex  -2.500000 -0.000000 0.000000 
vertex  -5.000000 -0.000000 0.000000 
vertex  -2.500000 2.500000 0.000000 
endloop 
endfacet 
facet normal  0.000000 0.000000 -1.000000 
outer loop 
vertex  -2.500000 -2.500000 0.000000 
vertex  -2.500000 0.000000 0.000000 
vertex  0.000000 -2.500000 0.000000 
endloop 
endfacet 
facet normal  0.000000 0.000000 -1.000000 
outer loop 
vertex  0.000000 2.500000 0.000000 
vertex  -2.500000 -0.000000 0.000000 
vertex  -2.500000 2.500000 0.000000 
endloop 
endfacet 
facet normal  0.000000 0.000000 -1.000000 
outer loop 
vertex  2.500000 -2.500000 0.000000 
vertex  0.000000 -2.500000 0.000000 
vertex  0.000000 0.000000 0.000000 
endloop 
endfacet 
facet normal  0.000000 0.000000 -1.000000 
outer loop 
vertex  0.000000 -0.000000 0.000000 
vertex  0.000000 2.500000 0.000000 
vertex  2.500000 2.500000 0.000000 
endloop 
endfacet 
facet normal  0.000000 0.000000 -1.000000 
outer loop 
vertex  5.000000 -5.000000 0.000000 
vertex  2.500000 -2.500000 0.000000 
vertex  5.000000 -2.500000 0.000000 
endloop 
endfacet 
facet normal  0.000000 0.000000 -1.000000 
outer loop 
vertex  5.000000 2.500000 0.000000 
vertex  2.500000 2.500000 0.000000 
vertex  5.000000 5.000000 0.000000 
endloop 
endfacet 
facet normal  0.000000 0.000000 -1.000000 
outer loop 
vertex  2.500000 -2.500000 0.000000 
vertex  0.000000 0.000000 0.000000 
vertex  2.500000 0.000000 0.000000 
endloop 
endfacet 
facet normal  0.000000 0.000000 -1.000000 
outer loop 
vertex  2.500000 -0.000000 0.000000 
vertex  0.000000 -0.000000 0.000000 
vertex  2.500000 2.500000 0.000000 
endloop 
endfacet 
facet normal  0.000000 0.000000 -1.000000 
outer loop 
vertex  2.500000 -5.000000 0.000000 
vertex  0.000000 -5.000000 0.000000 
vertex  0.000000 -2.500000 0.000000 
endloop 
endfacet 
facet normal  0.000000 0.000000 -1.000000 
outer loop 
vertex  0.000000 2.500000 0.000000 
vertex  0.000000 5.000000 0.000000 
vertex  2.500000 5.000000 0.000000 
endloop 
endfacet 
facet normal  0.000000 0.000000 -1.000000 
outer loop 
vertex  2.500000 -2.500000 0.000000 
vertex  2.500000 -5.000000 0.000000 
vertex  0.000000 -2.500000 0.000000 
endloop 
endfacet 
facet normal  0.000000 0.000000 -1.000000 
outer loop 
vertex  0.000000 2.500000 0.000000 
vertex  2.500000 5.000000 0.000000 
vertex  2.500000 2.500000 0.000000 
endloop 
endfacet 
endsolid Cuerno_5_Bendfacet 
