solid Cuerno_19_B 
facet normal  0.000000 0.000000 -1.000000 
outer loop 
vertex  -2.222222 -1.666667 0.000000 
vertex  -2.222222 -1.111111 0.000000 
vertex  -1.666667 -1.666667 0.000000 
endloop 
endfacet 
facet normal  0.000000 0.000000 -1.000000 
outer loop 
vertex  -1.666667 1.666667 0.000000 
vertex  -2.222222 1.111111 0.000000 
vertex  -2.222222 1.666667 0.000000 
endloop 
endfacet 
facet normal  0.000000 0.000000 -1.000000 
outer loop 
vertex  -3.333333 -1.111111 0.000000 
vertex  -3.888889 -1.111111 0.000000 
vertex  -3.888889 -0.555556 0.000000 
endloop 
endfacet 
facet normal  0.000000 0.000000 -1.000000 
outer loop 
vertex  -3.888889 0.555556 0.000000 
vertex  -3.888889 1.111111 0.000000 
vertex  -3.333333 1.111111 0.000000 
endloop 
endfacet 
facet normal  0.000000 0.000000 -1.000000 
outer loop 
vertex  -2.222222 -0.555556 0.000000 
vertex  -2.777778 -0.555556 0.000000 
vertex  -2.777778 0.000000 0.000000 
endloop 
endfacet 
facet normal  0.000000 0.000000 -1.000000 
outer loop 
vertex  -2.777778 -0.000000 0.000000 
vertex  -2.777778 0.555556 0.000000 
vertex  -2.222222 0.555556 0.000000 
endloop 
endfacet 
facet normal  0.000000 0.000000 -1.000000 
outer loop 
vertex  -1.111111 -2.777778 0.000000 
vertex  -1.111111 -2.222222 0.000000 
vertex  -0.555556 -2.777778 0.000000 
endloop 
endfacet 
facet normal  0.000000 0.000000 -1.000000 
outer loop 
vertex  -0.555556 2.777778 0.000000 
vertex  -1.111111 2.222222 0.000000 
vertex  -1.111111 2.777778 0.000000 
endloop 
endfacet 
facet normal  0.000000 0.000000 -1.000000 
outer loop 
vertex  0.555556 -0.555556 0.000000 
vertex  0.555556 -1.111111 0.000000 
vertex  0.000000 -0.555556 0.000000 
endloop 
endfacet 
facet normal  0.000000 0.000000 -1.000000 
outer loop 
vertex  0.000000 0.555556 0.000000 
vertex  0.555556 1.111111 0.000000 
vertex  0.555556 0.555556 0.000000 
endloop 
endfacet 
facet normal  0.000000 0.000000 -1.000000 
outer loop 
vertex  -1.111111 -2.222222 0.000000 
vertex  -1.111111 -2.777778 0.000000 
vertex  -1.666667 -2.222222 0.000000 
endloop 
endfacet 
facet normal  0.000000 0.000000 -1.000000 
outer loop 
vertex  -1.666667 2.222222 0.000000 
vertex  -1.111111 2.777778 0.000000 
vertex  -1.111111 2.222222 0.000000 
endloop 
endfacet 
facet normal  0.000000 0.000000 -1.000000 
outer loop 
vertex  -0.555556 -3.333333 0.000000 
vertex  -1.111111 -3.333333 0.000000 
vertex  -1.111111 -2.777778 0.000000 
endloop 
endfacet 
facet normal  0.000000 0.000000 -1.000000 
outer loop 
vertex  -1.111111 2.777778 0.000000 
vertex  -1.111111 3.333333 0.000000 
vertex  -0.555556 3.333333 0.000000 
endloop 
endfacet 
facet normal  0.000000 0.000000 -1.000000 
outer loop 
vertex  -3.333333 -1.111111 0.000000 
vertex  -2.777778 -1.666667 0.000000 
vertex  -3.333333 -1.666667 0.000000 
endloop 
endfacet 
facet normal  0.000000 0.000000 -1.000000 
outer loop 
vertex  -3.333333 1.666667 0.000000 
vertex  -2.777778 1.666667 0.000000 
vertex  -3.333333 1.111111 0.000000 
endloop 
endfacet 
facet normal  0.000000 0.000000 -1.000000 
outer loop 
vertex  0.555556 -2.222222 0.000000 
vertex  1.111111 -2.777778 0.000000 
vertex  0.555556 -2.777778 0.000000 
endloop 
endfacet 
facet normal  0.000000 0.000000 -1.000000 
outer loop 
vertex  0.555556 2.777778 0.000000 
vertex  1.111111 2.777778 0.000000 
vertex  0.555556 2.222222 0.000000 
endloop 
endfacet 
facet normal  0.000000 0.000000 -1.000000 
outer loop 
vertex  1.111111 -3.333333 0.000000 
vertex  1.111111 -3.888889 0.000000 
vertex  0.555556 -3.333333 0.000000 
endloop 
endfacet 
facet normal  0.000000 0.000000 -1.000000 
outer loop 
vertex  0.555556 3.333333 0.000000 
vertex  1.111111 3.888889 0.000000 
vertex  1.111111 3.333333 0.000000 
endloop 
endfacet 
facet normal  0.000000 0.000000 -1.000000 
outer loop 
vertex  -1.111111 0.000000 0.000000 
vertex  -0.555556 0.000000 0.000000 
vertex  -0.555556 -0.555556 0.000000 
endloop 
endfacet 
facet normal  0.000000 0.000000 -1.000000 
outer loop 
vertex  -0.555556 0.555556 0.000000 
vertex  -0.555556 -0.000000 0.000000 
vertex  -1.111111 -0.000000 0.000000 
endloop 
endfacet 
facet normal  0.000000 0.000000 -1.000000 
outer loop 
vertex  0.000000 -2.222222 0.000000 
vertex  0.555556 -2.777778 0.000000 
vertex  0.000000 -2.777778 0.000000 
endloop 
endfacet 
facet normal  0.000000 0.000000 -1.000000 
outer loop 
vertex  0.000000 2.777778 0.000000 
vertex  0.555556 2.777778 0.000000 
vertex  0.000000 2.222222 0.000000 
endloop 
endfacet 
facet normal  0.000000 0.000000 -1.000000 
outer loop 
vertex  -1.111111 -2.777778 0.000000 
vertex  -0.555556 -2.777778 0.000000 
vertex  -0.555556 -3.333333 0.000000 
endloop 
endfacet 
facet normal  0.000000 0.000000 -1.000000 
outer loop 
vertex  -0.555556 3.333333 0.000000 
vertex  -0.555556 2.777778 0.000000 
vertex  -1.111111 2.777778 0.000000 
endloop 
endfacet 
facet normal  0.000000 0.000000 -1.000000 
outer loop 
vertex  -1.666667 0.000000 0.000000 
vertex  -1.111111 -0.555556 0.000000 
vertex  -1.666667 -0.555556 0.000000 
endloop 
endfacet 
facet normal  0.000000 0.000000 -1.000000 
outer loop 
vertex  -1.666667 0.555556 0.000000 
vertex  -1.111111 0.555556 0.000000 
vertex  -1.666667 -0.000000 0.000000 
endloop 
endfacet 
facet normal  0.000000 0.000000 -1.000000 
outer loop 
vertex  -2.777778 -3.333333 0.000000 
vertex  -3.333333 -2.777778 0.000000 
vertex  -2.777778 -2.777778 0.000000 
endloop 
endfacet 
facet normal  0.000000 0.000000 -1.000000 
outer loop 
vertex  -2.777778 2.777778 0.000000 
vertex  -3.333333 2.777778 0.000000 
vertex  -2.777778 3.333333 0.000000 
endloop 
endfacet 
facet normal  0.000000 0.000000 -1.000000 
outer loop 
vertex  -3.888889 -1.111111 0.000000 
vertex  -3.333333 -1.666667 0.000000 
vertex  -3.888889 -1.666667 0.000000 
endloop 
endfacet 
facet normal  0.000000 0.000000 -1.000000 
outer loop 
vertex  -3.888889 1.666667 0.000000 
vertex  -3.333333 1.666667 0.000000 
vertex  -3.888889 1.111111 0.000000 
endloop 
endfacet 
facet normal  0.000000 0.000000 -1.000000 
outer loop 
vertex  -2.222222 -1.666667 0.000000 
vertex  -2.777778 -1.666667 0.000000 
vertex  -2.777778 -1.111111 0.000000 
endloop 
endfacet 
facet normal  0.000000 0.000000 -1.000000 
outer loop 
vertex  -2.777778 1.111111 0.000000 
vertex  -2.777778 1.666667 0.000000 
vertex  -2.222222 1.666667 0.000000 
endloop 
endfacet 
facet normal  0.000000 0.000000 -1.000000 
outer loop 
vertex  -0.555556 -1.666667 0.000000 
vertex  -0.555556 -2.222222 0.000000 
vertex  -1.111111 -1.666667 0.000000 
endloop 
endfacet 
facet normal  0.000000 0.000000 -1.000000 
outer loop 
vertex  -1.111111 1.666667 0.000000 
vertex  -0.555556 2.222222 0.000000 
vertex  -0.555556 1.666667 0.000000 
endloop 
endfacet 
facet normal  0.000000 0.000000 -1.000000 
outer loop 
vertex  -1.111111 -1.666667 0.000000 
vertex  -1.666667 -1.666667 0.000000 
vertex  -1.666667 -1.111111 0.000000 
endloop 
endfacet 
facet normal  0.000000 0.000000 -1.000000 
outer loop 
vertex  -1.666667 1.111111 0.000000 
vertex  -1.666667 1.666667 0.000000 
vertex  -1.111111 1.666667 0.000000 
endloop 
endfacet 
facet normal  0.000000 0.000000 -1.000000 
outer loop 
vertex  -3.333333 -0.555556 0.000000 
vertex  -3.888889 -0.555556 0.000000 
vertex  -3.888889 0.000000 0.000000 
endloop 
endfacet 
facet normal  0.000000 0.000000 -1.000000 
outer loop 
vertex  -3.888889 -0.000000 0.000000 
vertex  -3.888889 0.555556 0.000000 
vertex  -3.333333 0.555556 0.000000 
endloop 
endfacet 
facet normal  0.000000 0.000000 -1.000000 
outer loop 
vertex  1.666667 -0.555556 0.000000 
vertex  1.111111 -0.555556 0.000000 
vertex  1.111111 0.000000 0.000000 
endloop 
endfacet 
facet normal  0.000000 0.000000 -1.000000 
outer loop 
vertex  1.111111 -0.000000 0.000000 
vertex  1.111111 0.555556 0.000000 
vertex  1.666667 0.555556 0.000000 
endloop 
endfacet 
facet normal  0.000000 0.000000 -1.000000 
outer loop 
vertex  -0.555556 0.000000 0.000000 
vertex  0.000000 0.000000 0.000000 
vertex  0.000000 -0.555556 0.000000 
endloop 
endfacet 
facet normal  0.000000 0.000000 -1.000000 
outer loop 
vertex  0.000000 0.555556 0.000000 
vertex  0.000000 -0.000000 0.000000 
vertex  -0.555556 -0.000000 0.000000 
endloop 
endfacet 
facet normal  0.000000 0.000000 -1.000000 
outer loop 
vertex  1.666667 -3.888889 0.000000 
vertex  1.666667 -3.333333 0.000000 
vertex  2.222222 -3.888889 0.000000 
endloop 
endfacet 
facet normal  0.000000 0.000000 -1.000000 
outer loop 
vertex  2.222222 3.888889 0.000000 
vertex  1.666667 3.333333 0.000000 
vertex  1.666667 3.888889 0.000000 
endloop 
endfacet 
facet normal  0.000000 0.000000 -1.000000 
outer loop 
vertex  -0.555556 -2.222222 0.000000 
vertex  -0.555556 -1.666667 0.000000 
vertex  0.000000 -2.222222 0.000000 
endloop 
endfacet 
facet normal  0.000000 0.000000 -1.000000 
outer loop 
vertex  0.000000 2.222222 0.000000 
vertex  -0.555556 1.666667 0.000000 
vertex  -0.555556 2.222222 0.000000 
endloop 
endfacet 
facet normal  0.000000 0.000000 -1.000000 
outer loop 
vertex  -1.111111 -1.111111 0.000000 
vertex  -1.111111 -0.555556 0.000000 
vertex  -0.555556 -1.111111 0.000000 
endloop 
endfacet 
facet normal  0.000000 0.000000 -1.000000 
outer loop 
vertex  -0.555556 1.111111 0.000000 
vertex  -1.111111 0.555556 0.000000 
vertex  -1.111111 1.111111 0.000000 
endloop 
endfacet 
facet normal  0.000000 0.000000 -1.000000 
outer loop 
vertex  1.666667 -2.222222 0.000000 
vertex  1.111111 -2.222222 0.000000 
vertex  1.111111 -1.666667 0.000000 
endloop 
endfacet 
facet normal  0.000000 0.000000 -1.000000 
outer loop 
vertex  1.111111 1.666667 0.000000 
vertex  1.111111 2.222222 0.000000 
vertex  1.666667 2.222222 0.000000 
endloop 
endfacet 
facet normal  0.000000 0.000000 -1.000000 
outer loop 
vertex  0.000000 -2.222222 0.000000 
vertex  0.555556 -2.222222 0.000000 
vertex  0.555556 -2.777778 0.000000 
endloop 
endfacet 
facet normal  0.000000 0.000000 -1.000000 
outer loop 
vertex  0.555556 2.777778 0.000000 
vertex  0.555556 2.222222 0.000000 
vertex  0.000000 2.222222 0.000000 
endloop 
endfacet 
facet normal  0.000000 0.000000 -1.000000 
outer loop 
vertex  1.666667 -0.555556 0.000000 
vertex  1.666667 -1.111111 0.000000 
vertex  1.111111 -0.555556 0.000000 
endloop 
endfacet 
facet normal  0.000000 0.000000 -1.000000 
outer loop 
vertex  1.111111 0.555556 0.000000 
vertex  1.666667 1.111111 0.000000 
vertex  1.666667 0.555556 0.000000 
endloop 
endfacet 
facet normal  0.000000 0.000000 -1.000000 
outer loop 
vertex  -1.111111 -3.333333 0.000000 
vertex  -0.555556 -3.888889 0.000000 
vertex  -1.111111 -3.888889 0.000000 
endloop 
endfacet 
facet normal  0.000000 0.000000 -1.000000 
outer loop 
vertex  -1.111111 3.888889 0.000000 
vertex  -0.555556 3.888889 0.000000 
vertex  -1.111111 3.333333 0.000000 
endloop 
endfacet 
facet normal  0.000000 0.000000 -1.000000 
outer loop 
vertex  1.111111 -3.333333 0.000000 
vertex  1.666667 -3.333333 0.000000 
vertex  1.666667 -3.888889 0.000000 
endloop 
endfacet 
facet normal  0.000000 0.000000 -1.000000 
outer loop 
vertex  1.666667 3.888889 0.000000 
vertex  1.666667 3.333333 0.000000 
vertex  1.111111 3.333333 0.000000 
endloop 
endfacet 
facet normal  0.000000 0.000000 -1.000000 
outer loop 
vertex  1.111111 -2.777778 0.000000 
vertex  1.666667 -2.777778 0.000000 
vertex  1.666667 -3.333333 0.000000 
endloop 
endfacet 
facet normal  0.000000 0.000000 -1.000000 
outer loop 
vertex  1.666667 3.333333 0.000000 
vertex  1.666667 2.777778 0.000000 
vertex  1.111111 2.777778 0.000000 
endloop 
endfacet 
facet normal  0.000000 0.000000 -1.000000 
outer loop 
vertex  1.111111 -1.666667 0.000000 
vertex  1.666667 -1.666667 0.000000 
vertex  1.666667 -2.222222 0.000000 
endloop 
endfacet 
facet normal  0.000000 0.000000 -1.000000 
outer loop 
vertex  1.666667 2.222222 0.000000 
vertex  1.666667 1.666667 0.000000 
vertex  1.111111 1.666667 0.000000 
endloop 
endfacet 
facet normal  0.000000 0.000000 -1.000000 
outer loop 
vertex  1.111111 -1.111111 0.000000 
vertex  1.666667 -1.111111 0.000000 
vertex  1.666667 -1.666667 0.000000 
endloop 
endfacet 
facet normal  0.000000 0.000000 -1.000000 
outer loop 
vertex  1.666667 1.666667 0.000000 
vertex  1.666667 1.111111 0.000000 
vertex  1.111111 1.111111 0.000000 
endloop 
endfacet 
facet normal  0.000000 0.000000 -1.000000 
outer loop 
vertex  0.555556 -2.222222 0.000000 
vertex  1.111111 -2.222222 0.000000 
vertex  1.111111 -2.777778 0.000000 
endloop 
endfacet 
facet normal  0.000000 0.000000 -1.000000 
outer loop 
vertex  1.111111 2.777778 0.000000 
vertex  1.111111 2.222222 0.000000 
vertex  0.555556 2.222222 0.000000 
endloop 
endfacet 
facet normal  0.000000 0.000000 -1.000000 
outer loop 
vertex  1.666667 -3.333333 0.000000 
vertex  1.666667 -2.777778 0.000000 
vertex  2.222222 -3.333333 0.000000 
endloop 
endfacet 
facet normal  0.000000 0.000000 -1.000000 
outer loop 
vertex  2.222222 3.333333 0.000000 
vertex  1.666667 2.777778 0.000000 
vertex  1.666667 3.333333 0.000000 
endloop 
endfacet 
facet normal  0.000000 0.000000 -1.000000 
outer loop 
vertex  -3.333333 -2.222222 0.000000 
vertex  -3.333333 -1.666667 0.000000 
vertex  -2.777778 -2.222222 0.000000 
endloop 
endfacet 
facet normal  0.000000 0.000000 -1.000000 
outer loop 
vertex  -2.777778 2.222222 0.000000 
vertex  -3.333333 1.666667 0.000000 
vertex  -3.333333 2.222222 0.000000 
endloop 
endfacet 
facet normal  0.000000 0.000000 -1.000000 
outer loop 
vertex  -3.333333 -1.666667 0.000000 
vertex  -3.333333 -2.222222 0.000000 
vertex  -3.888889 -1.666667 0.000000 
endloop 
endfacet 
facet normal  0.000000 0.000000 -1.000000 
outer loop 
vertex  -3.888889 1.666667 0.000000 
vertex  -3.333333 2.222222 0.000000 
vertex  -3.333333 1.666667 0.000000 
endloop 
endfacet 
facet normal  0.000000 0.000000 -1.000000 
outer loop 
vertex  -3.333333 -2.222222 0.000000 
vertex  -2.777778 -2.777778 0.000000 
vertex  -3.333333 -2.777778 0.000000 
endloop 
endfacet 
facet normal  0.000000 0.000000 -1.000000 
outer loop 
vertex  -3.333333 2.777778 0.000000 
vertex  -2.777778 2.777778 0.000000 
vertex  -3.333333 2.222222 0.000000 
endloop 
endfacet 
facet normal  0.000000 0.000000 -1.000000 
outer loop 
vertex  -1.111111 -1.111111 0.000000 
vertex  -1.666667 -1.111111 0.000000 
vertex  -1.666667 -0.555556 0.000000 
endloop 
endfacet 
facet normal  0.000000 0.000000 -1.000000 
outer loop 
vertex  -1.666667 0.555556 0.000000 
vertex  -1.666667 1.111111 0.000000 
vertex  -1.111111 1.111111 0.000000 
endloop 
endfacet 
facet normal  0.000000 0.000000 -1.000000 
outer loop 
vertex  -2.777778 -2.222222 0.000000 
vertex  -2.222222 -2.777778 0.000000 
vertex  -2.777778 -2.777778 0.000000 
endloop 
endfacet 
facet normal  0.000000 0.000000 -1.000000 
outer loop 
vertex  -2.777778 2.777778 0.000000 
vertex  -2.222222 2.777778 0.000000 
vertex  -2.777778 2.222222 0.000000 
endloop 
endfacet 
facet normal  0.000000 0.000000 -1.000000 
outer loop 
vertex  -1.111111 -0.555556 0.000000 
vertex  -1.111111 -1.111111 0.000000 
vertex  -1.666667 -0.555556 0.000000 
endloop 
endfacet 
facet normal  0.000000 0.000000 -1.000000 
outer loop 
vertex  -1.666667 0.555556 0.000000 
vertex  -1.111111 1.111111 0.000000 
vertex  -1.111111 0.555556 0.000000 
endloop 
endfacet 
facet normal  0.000000 0.000000 -1.000000 
outer loop 
vertex  -2.777778 -3.333333 0.000000 
vertex  -2.777778 -2.777778 0.000000 
vertex  -2.222222 -3.333333 0.000000 
endloop 
endfacet 
facet normal  0.000000 0.000000 -1.000000 
outer loop 
vertex  -2.222222 3.333333 0.000000 
vertex  -2.777778 2.777778 0.000000 
vertex  -2.777778 3.333333 0.000000 
endloop 
endfacet 
facet normal  0.000000 0.000000 -1.000000 
outer loop 
vertex  -2.777778 -2.777778 0.000000 
vertex  -3.333333 -2.222222 0.000000 
vertex  -2.777778 -2.222222 0.000000 
endloop 
endfacet 
facet normal  0.000000 0.000000 -1.000000 
outer loop 
vertex  -2.777778 2.222222 0.000000 
vertex  -3.333333 2.222222 0.000000 
vertex  -2.777778 2.777778 0.000000 
endloop 
endfacet 
facet normal  0.000000 0.000000 -1.000000 
outer loop 
vertex  -1.666667 -3.888889 0.000000 
vertex  -2.222222 -3.333333 0.000000 
vertex  -1.666667 -3.333333 0.000000 
endloop 
endfacet 
facet normal  0.000000 0.000000 -1.000000 
outer loop 
vertex  -1.666667 3.333333 0.000000 
vertex  -2.222222 3.333333 0.000000 
vertex  -1.666667 3.888889 0.000000 
endloop 
endfacet 
facet normal  0.000000 0.000000 -1.000000 
outer loop 
vertex  -2.222222 -2.222222 0.000000 
vertex  -2.222222 -2.777778 0.000000 
vertex  -2.777778 -2.222222 0.000000 
endloop 
endfacet 
facet normal  0.000000 0.000000 -1.000000 
outer loop 
vertex  -2.777778 2.222222 0.000000 
vertex  -2.222222 2.777778 0.000000 
vertex  -2.222222 2.222222 0.000000 
endloop 
endfacet 
facet normal  0.000000 0.000000 -1.000000 
outer loop 
vertex  -2.222222 -2.777778 0.000000 
vertex  -2.222222 -3.333333 0.000000 
vertex  -2.777778 -2.777778 0.000000 
endloop 
endfacet 
facet normal  0.000000 0.000000 -1.000000 
outer loop 
vertex  -2.777778 2.777778 0.000000 
vertex  -2.222222 3.333333 0.000000 
vertex  -2.222222 2.777778 0.000000 
endloop 
endfacet 
facet normal  0.000000 0.000000 -1.000000 
outer loop 
vertex  -1.666667 -3.888889 0.000000 
vertex  -1.666667 -3.333333 0.000000 
vertex  -1.111111 -3.888889 0.000000 
endloop 
endfacet 
facet normal  0.000000 0.000000 -1.000000 
outer loop 
vertex  -1.111111 3.888889 0.000000 
vertex  -1.666667 3.333333 0.000000 
vertex  -1.666667 3.888889 0.000000 
endloop 
endfacet 
facet normal  0.000000 0.000000 -1.000000 
outer loop 
vertex  -1.111111 -3.888889 0.000000 
vertex  -1.666667 -3.333333 0.000000 
vertex  -1.111111 -3.333333 0.000000 
endloop 
endfacet 
facet normal  0.000000 0.000000 -1.000000 
outer loop 
vertex  -1.111111 3.333333 0.000000 
vertex  -1.666667 3.333333 0.000000 
vertex  -1.111111 3.888889 0.000000 
endloop 
endfacet 
facet normal  0.000000 0.000000 -1.000000 
outer loop 
vertex  0.555556 -3.333333 0.000000 
vertex  1.111111 -3.888889 0.000000 
vertex  0.555556 -3.888889 0.000000 
endloop 
endfacet 
facet normal  0.000000 0.000000 -1.000000 
outer loop 
vertex  0.555556 3.888889 0.000000 
vertex  1.111111 3.888889 0.000000 
vertex  0.555556 3.333333 0.000000 
endloop 
endfacet 
facet normal  0.000000 0.000000 -1.000000 
outer loop 
vertex  0.000000 -4.444444 0.000000 
vertex  -0.555556 -3.888889 0.000000 
vertex  0.000000 -3.888889 0.000000 
endloop 
endfacet 
facet normal  0.000000 0.000000 -1.000000 
outer loop 
vertex  0.000000 3.888889 0.000000 
vertex  -0.555556 3.888889 0.000000 
vertex  0.000000 4.444444 0.000000 
endloop 
endfacet 
facet normal  0.000000 0.000000 -1.000000 
outer loop 
vertex  -0.555556 -3.888889 0.000000 
vertex  -0.555556 -4.444444 0.000000 
vertex  -1.111111 -3.888889 0.000000 
endloop 
endfacet 
facet normal  0.000000 0.000000 -1.000000 
outer loop 
vertex  -1.111111 3.888889 0.000000 
vertex  -0.555556 4.444444 0.000000 
vertex  -0.555556 3.888889 0.000000 
endloop 
endfacet 
facet normal  0.000000 0.000000 -1.000000 
outer loop 
vertex  -1.111111 -2.777778 0.000000 
vertex  -1.666667 -2.777778 0.000000 
vertex  -1.666667 -2.222222 0.000000 
endloop 
endfacet 
facet normal  0.000000 0.000000 -1.000000 
outer loop 
vertex  -1.666667 2.222222 0.000000 
vertex  -1.666667 2.777778 0.000000 
vertex  -1.111111 2.777778 0.000000 
endloop 
endfacet 
facet normal  0.000000 0.000000 -1.000000 
outer loop 
vertex  -1.111111 -3.333333 0.000000 
vertex  -1.666667 -3.333333 0.000000 
vertex  -1.666667 -2.777778 0.000000 
endloop 
endfacet 
facet normal  0.000000 0.000000 -1.000000 
outer loop 
vertex  -1.666667 2.777778 0.000000 
vertex  -1.666667 3.333333 0.000000 
vertex  -1.111111 3.333333 0.000000 
endloop 
endfacet 
facet normal  0.000000 0.000000 -1.000000 
outer loop 
vertex  0.000000 -3.333333 0.000000 
vertex  -0.555556 -3.333333 0.000000 
vertex  -0.555556 -2.777778 0.000000 
endloop 
endfacet 
facet normal  0.000000 0.000000 -1.000000 
outer loop 
vertex  -0.555556 2.777778 0.000000 
vertex  -0.555556 3.333333 0.000000 
vertex  0.000000 3.333333 0.000000 
endloop 
endfacet 
facet normal  0.000000 0.000000 -1.000000 
outer loop 
vertex  -0.555556 -3.333333 0.000000 
vertex  -0.555556 -3.888889 0.000000 
vertex  -1.111111 -3.333333 0.000000 
endloop 
endfacet 
facet normal  0.000000 0.000000 -1.000000 
outer loop 
vertex  -1.111111 3.333333 0.000000 
vertex  -0.555556 3.888889 0.000000 
vertex  -0.555556 3.333333 0.000000 
endloop 
endfacet 
facet normal  0.000000 0.000000 -1.000000 
outer loop 
vertex  -1.111111 -3.333333 0.000000 
vertex  -1.666667 -2.777778 0.000000 
vertex  -1.111111 -2.777778 0.000000 
endloop 
endfacet 
facet normal  0.000000 0.000000 -1.000000 
outer loop 
vertex  -1.111111 2.777778 0.000000 
vertex  -1.666667 2.777778 0.000000 
vertex  -1.111111 3.333333 0.000000 
endloop 
endfacet 
facet normal  0.000000 0.000000 -1.000000 
outer loop 
vertex  -1.666667 -3.333333 0.000000 
vertex  -2.222222 -3.333333 0.000000 
vertex  -2.222222 -2.777778 0.000000 
endloop 
endfacet 
facet normal  0.000000 0.000000 -1.000000 
outer loop 
vertex  -2.222222 2.777778 0.000000 
vertex  -2.222222 3.333333 0.000000 
vertex  -1.666667 3.333333 0.000000 
endloop 
endfacet 
facet normal  0.000000 0.000000 -1.000000 
outer loop 
vertex  -2.222222 -2.222222 0.000000 
vertex  -1.666667 -2.777778 0.000000 
vertex  -2.222222 -2.777778 0.000000 
endloop 
endfacet 
facet normal  0.000000 0.000000 -1.000000 
outer loop 
vertex  -2.222222 2.777778 0.000000 
vertex  -1.666667 2.777778 0.000000 
vertex  -2.222222 2.222222 0.000000 
endloop 
endfacet 
facet normal  0.000000 0.000000 -1.000000 
outer loop 
vertex  -1.666667 -2.777778 0.000000 
vertex  -1.666667 -3.333333 0.000000 
vertex  -2.222222 -2.777778 0.000000 
endloop 
endfacet 
facet normal  0.000000 0.000000 -1.000000 
outer loop 
vertex  -2.222222 2.777778 0.000000 
vertex  -1.666667 3.333333 0.000000 
vertex  -1.666667 2.777778 0.000000 
endloop 
endfacet 
facet normal  0.000000 0.000000 -1.000000 
outer loop 
vertex  -2.222222 -2.222222 0.000000 
vertex  -1.666667 -2.222222 0.000000 
vertex  -1.666667 -2.777778 0.000000 
endloop 
endfacet 
facet normal  0.000000 0.000000 -1.000000 
outer loop 
vertex  -1.666667 2.777778 0.000000 
vertex  -1.666667 2.222222 0.000000 
vertex  -2.222222 2.222222 0.000000 
endloop 
endfacet 
facet normal  0.000000 0.000000 -1.000000 
outer loop 
vertex  -1.111111 -1.111111 0.000000 
vertex  -0.555556 -1.666667 0.000000 
vertex  -1.111111 -1.666667 0.000000 
endloop 
endfacet 
facet normal  0.000000 0.000000 -1.000000 
outer loop 
vertex  -1.111111 1.666667 0.000000 
vertex  -0.555556 1.666667 0.000000 
vertex  -1.111111 1.111111 0.000000 
endloop 
endfacet 
facet normal  0.000000 0.000000 -1.000000 
outer loop 
vertex  -2.222222 -1.666667 0.000000 
vertex  -1.666667 -1.666667 0.000000 
vertex  -1.666667 -2.222222 0.000000 
endloop 
endfacet 
facet normal  0.000000 0.000000 -1.000000 
outer loop 
vertex  -1.666667 2.222222 0.000000 
vertex  -1.666667 1.666667 0.000000 
vertex  -2.222222 1.666667 0.000000 
endloop 
endfacet 
facet normal  0.000000 0.000000 -1.000000 
outer loop 
vertex  -1.666667 -1.666667 0.000000 
vertex  -1.111111 -2.222222 0.000000 
vertex  -1.666667 -2.222222 0.000000 
endloop 
endfacet 
facet normal  0.000000 0.000000 -1.000000 
outer loop 
vertex  -1.666667 2.222222 0.000000 
vertex  -1.111111 2.222222 0.000000 
vertex  -1.666667 1.666667 0.000000 
endloop 
endfacet 
facet normal  0.000000 0.000000 -1.000000 
outer loop 
vertex  -1.666667 -1.111111 0.000000 
vertex  -1.111111 -1.111111 0.000000 
vertex  -1.111111 -1.666667 0.000000 
endloop 
endfacet 
facet normal  0.000000 0.000000 -1.000000 
outer loop 
vertex  -1.111111 1.666667 0.000000 
vertex  -1.111111 1.111111 0.000000 
vertex  -1.666667 1.111111 0.000000 
endloop 
endfacet 
facet normal  0.000000 0.000000 -1.000000 
outer loop 
vertex  -1.111111 -0.555556 0.000000 
vertex  -0.555556 -0.555556 0.000000 
vertex  -0.555556 -1.111111 0.000000 
endloop 
endfacet 
facet normal  0.000000 0.000000 -1.000000 
outer loop 
vertex  -0.555556 1.111111 0.000000 
vertex  -0.555556 0.555556 0.000000 
vertex  -1.111111 0.555556 0.000000 
endloop 
endfacet 
facet normal  0.000000 0.000000 -1.000000 
outer loop 
vertex  -1.666667 -1.666667 0.000000 
vertex  -1.111111 -1.666667 0.000000 
vertex  -1.111111 -2.222222 0.000000 
endloop 
endfacet 
facet normal  0.000000 0.000000 -1.000000 
outer loop 
vertex  -1.111111 2.222222 0.000000 
vertex  -1.111111 1.666667 0.000000 
vertex  -1.666667 1.666667 0.000000 
endloop 
endfacet 
facet normal  0.000000 0.000000 -1.000000 
outer loop 
vertex  -1.111111 -1.666667 0.000000 
vertex  -0.555556 -2.222222 0.000000 
vertex  -1.111111 -2.222222 0.000000 
endloop 
endfacet 
facet normal  0.000000 0.000000 -1.000000 
outer loop 
vertex  -1.111111 2.222222 0.000000 
vertex  -0.555556 2.222222 0.000000 
vertex  -1.111111 1.666667 0.000000 
endloop 
endfacet 
facet normal  0.000000 0.000000 -1.000000 
outer loop 
vertex  -1.111111 -1.111111 0.000000 
vertex  -0.555556 -1.111111 0.000000 
vertex  -0.555556 -1.666667 0.000000 
endloop 
endfacet 
facet normal  0.000000 0.000000 -1.000000 
outer loop 
vertex  -0.555556 1.666667 0.000000 
vertex  -0.555556 1.111111 0.000000 
vertex  -1.111111 1.111111 0.000000 
endloop 
endfacet 
facet normal  0.000000 0.000000 -1.000000 
outer loop 
vertex  1.111111 -2.222222 0.000000 
vertex  0.555556 -2.222222 0.000000 
vertex  0.555556 -1.666667 0.000000 
endloop 
endfacet 
facet normal  0.000000 0.000000 -1.000000 
outer loop 
vertex  0.555556 1.666667 0.000000 
vertex  0.555556 2.222222 0.000000 
vertex  1.111111 2.222222 0.000000 
endloop 
endfacet 
facet normal  0.000000 0.000000 -1.000000 
outer loop 
vertex  -2.777778 -2.222222 0.000000 
vertex  -3.333333 -1.666667 0.000000 
vertex  -2.777778 -1.666667 0.000000 
endloop 
endfacet 
facet normal  0.000000 0.000000 -1.000000 
outer loop 
vertex  -2.777778 1.666667 0.000000 
vertex  -3.333333 1.666667 0.000000 
vertex  -2.777778 2.222222 0.000000 
endloop 
endfacet 
facet normal  0.000000 0.000000 -1.000000 
outer loop 
vertex  -1.666667 0.000000 0.000000 
vertex  -1.111111 0.000000 0.000000 
vertex  -1.111111 -0.555556 0.000000 
endloop 
endfacet 
facet normal  0.000000 0.000000 -1.000000 
outer loop 
vertex  -1.111111 0.555556 0.000000 
vertex  -1.111111 -0.000000 0.000000 
vertex  -1.666667 -0.000000 0.000000 
endloop 
endfacet 
facet normal  0.000000 0.000000 -1.000000 
outer loop 
vertex  -1.111111 0.000000 0.000000 
vertex  -0.555556 -0.555556 0.000000 
vertex  -1.111111 -0.555556 0.000000 
endloop 
endfacet 
facet normal  0.000000 0.000000 -1.000000 
outer loop 
vertex  -1.111111 0.555556 0.000000 
vertex  -0.555556 0.555556 0.000000 
vertex  -1.111111 -0.000000 0.000000 
endloop 
endfacet 
facet normal  0.000000 0.000000 -1.000000 
outer loop 
vertex  -1.666667 -1.111111 0.000000 
vertex  -2.222222 -1.111111 0.000000 
vertex  -2.222222 -0.555556 0.000000 
endloop 
endfacet 
facet normal  0.000000 0.000000 -1.000000 
outer loop 
vertex  -2.222222 0.555556 0.000000 
vertex  -2.222222 1.111111 0.000000 
vertex  -1.666667 1.111111 0.000000 
endloop 
endfacet 
facet normal  0.000000 0.000000 -1.000000 
outer loop 
vertex  -2.222222 -2.222222 0.000000 
vertex  -2.777778 -1.666667 0.000000 
vertex  -2.222222 -1.666667 0.000000 
endloop 
endfacet 
facet normal  0.000000 0.000000 -1.000000 
outer loop 
vertex  -2.222222 1.666667 0.000000 
vertex  -2.777778 1.666667 0.000000 
vertex  -2.222222 2.222222 0.000000 
endloop 
endfacet 
facet normal  0.000000 0.000000 -1.000000 
outer loop 
vertex  -1.666667 -0.555556 0.000000 
vertex  -2.222222 0.000000 0.000000 
vertex  -1.666667 0.000000 0.000000 
endloop 
endfacet 
facet normal  0.000000 0.000000 -1.000000 
outer loop 
vertex  -1.666667 -0.000000 0.000000 
vertex  -2.222222 -0.000000 0.000000 
vertex  -1.666667 0.555556 0.000000 
endloop 
endfacet 
facet normal  0.000000 0.000000 -1.000000 
outer loop 
vertex  -2.222222 -1.111111 0.000000 
vertex  -2.777778 -1.111111 0.000000 
vertex  -2.777778 -0.555556 0.000000 
endloop 
endfacet 
facet normal  0.000000 0.000000 -1.000000 
outer loop 
vertex  -2.777778 0.555556 0.000000 
vertex  -2.777778 1.111111 0.000000 
vertex  -2.222222 1.111111 0.000000 
endloop 
endfacet 
facet normal  0.000000 0.000000 -1.000000 
outer loop 
vertex  -1.666667 -0.555556 0.000000 
vertex  -1.666667 -1.111111 0.000000 
vertex  -2.222222 -0.555556 0.000000 
endloop 
endfacet 
facet normal  0.000000 0.000000 -1.000000 
outer loop 
vertex  -2.222222 0.555556 0.000000 
vertex  -1.666667 1.111111 0.000000 
vertex  -1.666667 0.555556 0.000000 
endloop 
endfacet 
facet normal  0.000000 0.000000 -1.000000 
outer loop 
vertex  -1.666667 -1.111111 0.000000 
vertex  -1.666667 -1.666667 0.000000 
vertex  -2.222222 -1.111111 0.000000 
endloop 
endfacet 
facet normal  0.000000 0.000000 -1.000000 
outer loop 
vertex  -2.222222 1.111111 0.000000 
vertex  -1.666667 1.666667 0.000000 
vertex  -1.666667 1.111111 0.000000 
endloop 
endfacet 
facet normal  0.000000 0.000000 -1.000000 
outer loop 
vertex  -2.222222 -1.111111 0.000000 
vertex  -2.777778 -0.555556 0.000000 
vertex  -2.222222 -0.555556 0.000000 
endloop 
endfacet 
facet normal  0.000000 0.000000 -1.000000 
outer loop 
vertex  -2.222222 0.555556 0.000000 
vertex  -2.777778 0.555556 0.000000 
vertex  -2.222222 1.111111 0.000000 
endloop 
endfacet 
facet normal  0.000000 0.000000 -1.000000 
outer loop 
vertex  -3.333333 -1.666667 0.000000 
vertex  -3.888889 -1.111111 0.000000 
vertex  -3.333333 -1.111111 0.000000 
endloop 
endfacet 
facet normal  0.000000 0.000000 -1.000000 
outer loop 
vertex  -3.333333 1.111111 0.000000 
vertex  -3.888889 1.111111 0.000000 
vertex  -3.333333 1.666667 0.000000 
endloop 
endfacet 
facet normal  0.000000 0.000000 -1.000000 
outer loop 
vertex  -2.222222 -0.555556 0.000000 
vertex  -2.222222 0.000000 0.000000 
vertex  -1.666667 -0.555556 0.000000 
endloop 
endfacet 
facet normal  0.000000 0.000000 -1.000000 
outer loop 
vertex  -1.666667 0.555556 0.000000 
vertex  -2.222222 -0.000000 0.000000 
vertex  -2.222222 0.555556 0.000000 
endloop 
endfacet 
facet normal  0.000000 0.000000 -1.000000 
outer loop 
vertex  -3.333333 -1.111111 0.000000 
vertex  -3.888889 -0.555556 0.000000 
vertex  -3.333333 -0.555556 0.000000 
endloop 
endfacet 
facet normal  0.000000 0.000000 -1.000000 
outer loop 
vertex  -3.333333 0.555556 0.000000 
vertex  -3.888889 0.555556 0.000000 
vertex  -3.333333 1.111111 0.000000 
endloop 
endfacet 
facet normal  0.000000 0.000000 -1.000000 
outer loop 
vertex  -2.777778 -2.222222 0.000000 
vertex  -2.777778 -1.666667 0.000000 
vertex  -2.222222 -2.222222 0.000000 
endloop 
endfacet 
facet normal  0.000000 0.000000 -1.000000 
outer loop 
vertex  -2.222222 2.222222 0.000000 
vertex  -2.777778 1.666667 0.000000 
vertex  -2.777778 2.222222 0.000000 
endloop 
endfacet 
facet normal  0.000000 0.000000 -1.000000 
outer loop 
vertex  -2.777778 -1.666667 0.000000 
vertex  -3.333333 -1.111111 0.000000 
vertex  -2.777778 -1.111111 0.000000 
endloop 
endfacet 
facet normal  0.000000 0.000000 -1.000000 
outer loop 
vertex  -2.777778 1.111111 0.000000 
vertex  -3.333333 1.111111 0.000000 
vertex  -2.777778 1.666667 0.000000 
endloop 
endfacet 
facet normal  0.000000 0.000000 -1.000000 
outer loop 
vertex  -2.222222 -2.222222 0.000000 
vertex  -2.222222 -1.666667 0.000000 
vertex  -1.666667 -2.222222 0.000000 
endloop 
endfacet 
facet normal  0.000000 0.000000 -1.000000 
outer loop 
vertex  -1.666667 2.222222 0.000000 
vertex  -2.222222 1.666667 0.000000 
vertex  -2.222222 2.222222 0.000000 
endloop 
endfacet 
facet normal  0.000000 0.000000 -1.000000 
outer loop 
vertex  -2.222222 -1.666667 0.000000 
vertex  -2.777778 -1.111111 0.000000 
vertex  -2.222222 -1.111111 0.000000 
endloop 
endfacet 
facet normal  0.000000 0.000000 -1.000000 
outer loop 
vertex  -2.222222 1.111111 0.000000 
vertex  -2.777778 1.111111 0.000000 
vertex  -2.222222 1.666667 0.000000 
endloop 
endfacet 
facet normal  0.000000 0.000000 -1.000000 
outer loop 
vertex  -2.777778 -1.111111 0.000000 
vertex  -3.333333 -0.555556 0.000000 
vertex  -2.777778 -0.555556 0.000000 
endloop 
endfacet 
facet normal  0.000000 0.000000 -1.000000 
outer loop 
vertex  -2.777778 0.555556 0.000000 
vertex  -3.333333 0.555556 0.000000 
vertex  -2.777778 1.111111 0.000000 
endloop 
endfacet 
facet normal  0.000000 0.000000 -1.000000 
outer loop 
vertex  -3.333333 -0.555556 0.000000 
vertex  -3.333333 0.000000 0.000000 
vertex  -2.777778 -0.555556 0.000000 
endloop 
endfacet 
facet normal  0.000000 0.000000 -1.000000 
outer loop 
vertex  -2.777778 0.555556 0.000000 
vertex  -3.333333 -0.000000 0.000000 
vertex  -3.333333 0.555556 0.000000 
endloop 
endfacet 
facet normal  0.000000 0.000000 -1.000000 
outer loop 
vertex  -3.888889 -0.555556 0.000000 
vertex  -4.444444 -0.555556 0.000000 
vertex  -4.444444 0.000000 0.000000 
endloop 
endfacet 
facet normal  0.000000 0.000000 -1.000000 
outer loop 
vertex  -4.444444 -0.000000 0.000000 
vertex  -4.444444 0.555556 0.000000 
vertex  -3.888889 0.555556 0.000000 
endloop 
endfacet 
facet normal  0.000000 0.000000 -1.000000 
outer loop 
vertex  -3.888889 -0.555556 0.000000 
vertex  -4.444444 0.000000 0.000000 
vertex  -3.888889 0.000000 0.000000 
endloop 
endfacet 
facet normal  0.000000 0.000000 -1.000000 
outer loop 
vertex  -3.888889 -0.000000 0.000000 
vertex  -4.444444 -0.000000 0.000000 
vertex  -3.888889 0.555556 0.000000 
endloop 
endfacet 
facet normal  0.000000 0.000000 -1.000000 
outer loop 
vertex  -3.888889 -0.555556 0.000000 
vertex  -3.888889 -1.111111 0.000000 
vertex  -4.444444 -0.555556 0.000000 
endloop 
endfacet 
facet normal  0.000000 0.000000 -1.000000 
outer loop 
vertex  -4.444444 0.555556 0.000000 
vertex  -3.888889 1.111111 0.000000 
vertex  -3.888889 0.555556 0.000000 
endloop 
endfacet 
facet normal  0.000000 0.000000 -1.000000 
outer loop 
vertex  -3.333333 -1.111111 0.000000 
vertex  -3.333333 -0.555556 0.000000 
vertex  -2.777778 -1.111111 0.000000 
endloop 
endfacet 
facet normal  0.000000 0.000000 -1.000000 
outer loop 
vertex  -2.777778 1.111111 0.000000 
vertex  -3.333333 0.555556 0.000000 
vertex  -3.333333 1.111111 0.000000 
endloop 
endfacet 
facet normal  0.000000 0.000000 -1.000000 
outer loop 
vertex  -3.333333 -0.555556 0.000000 
vertex  -3.888889 0.000000 0.000000 
vertex  -3.333333 0.000000 0.000000 
endloop 
endfacet 
facet normal  0.000000 0.000000 -1.000000 
outer loop 
vertex  -3.333333 -0.000000 0.000000 
vertex  -3.888889 -0.000000 0.000000 
vertex  -3.333333 0.555556 0.000000 
endloop 
endfacet 
facet normal  0.000000 0.000000 -1.000000 
outer loop 
vertex  -2.222222 -0.555556 0.000000 
vertex  -2.777778 0.000000 0.000000 
vertex  -2.222222 0.000000 0.000000 
endloop 
endfacet 
facet normal  0.000000 0.000000 -1.000000 
outer loop 
vertex  -2.222222 -0.000000 0.000000 
vertex  -2.777778 -0.000000 0.000000 
vertex  -2.222222 0.555556 0.000000 
endloop 
endfacet 
facet normal  0.000000 0.000000 -1.000000 
outer loop 
vertex  -2.777778 0.000000 0.000000 
vertex  -2.777778 -0.555556 0.000000 
vertex  -3.333333 0.000000 0.000000 
endloop 
endfacet 
facet normal  0.000000 0.000000 -1.000000 
outer loop 
vertex  -3.333333 -0.000000 0.000000 
vertex  -2.777778 0.555556 0.000000 
vertex  -2.777778 -0.000000 0.000000 
endloop 
endfacet 
facet normal  0.000000 0.000000 -1.000000 
outer loop 
vertex  -0.555556 -0.555556 0.000000 
vertex  -0.555556 0.000000 0.000000 
vertex  0.000000 -0.555556 0.000000 
endloop 
endfacet 
facet normal  0.000000 0.000000 -1.000000 
outer loop 
vertex  0.000000 0.555556 0.000000 
vertex  -0.555556 -0.000000 0.000000 
vertex  -0.555556 0.555556 0.000000 
endloop 
endfacet 
facet normal  0.000000 0.000000 -1.000000 
outer loop 
vertex  1.111111 -0.555556 0.000000 
vertex  0.555556 0.000000 0.000000 
vertex  1.111111 0.000000 0.000000 
endloop 
endfacet 
facet normal  0.000000 0.000000 -1.000000 
outer loop 
vertex  1.111111 -0.000000 0.000000 
vertex  0.555556 -0.000000 0.000000 
vertex  1.111111 0.555556 0.000000 
endloop 
endfacet 
facet normal  0.000000 0.000000 -1.000000 
outer loop 
vertex  0.555556 0.000000 0.000000 
vertex  1.111111 -0.555556 0.000000 
vertex  0.555556 -0.555556 0.000000 
endloop 
endfacet 
facet normal  0.000000 0.000000 -1.000000 
outer loop 
vertex  0.555556 0.555556 0.000000 
vertex  1.111111 0.555556 0.000000 
vertex  0.555556 -0.000000 0.000000 
endloop 
endfacet 
facet normal  0.000000 0.000000 -1.000000 
outer loop 
vertex  2.222222 -2.222222 0.000000 
vertex  1.666667 -1.666667 0.000000 
vertex  2.222222 -1.666667 0.000000 
endloop 
endfacet 
facet normal  0.000000 0.000000 -1.000000 
outer loop 
vertex  2.222222 1.666667 0.000000 
vertex  1.666667 1.666667 0.000000 
vertex  2.222222 2.222222 0.000000 
endloop 
endfacet 
facet normal  0.000000 0.000000 -1.000000 
outer loop 
vertex  1.666667 -2.222222 0.000000 
vertex  2.222222 -2.222222 0.000000 
vertex  2.222222 -2.777778 0.000000 
endloop 
endfacet 
facet normal  0.000000 0.000000 -1.000000 
outer loop 
vertex  2.222222 2.777778 0.000000 
vertex  2.222222 2.222222 0.000000 
vertex  1.666667 2.222222 0.000000 
endloop 
endfacet 
facet normal  0.000000 0.000000 -1.000000 
outer loop 
vertex  2.222222 -1.666667 0.000000 
vertex  2.777778 -2.222222 0.000000 
vertex  2.222222 -2.222222 0.000000 
endloop 
endfacet 
facet normal  0.000000 0.000000 -1.000000 
outer loop 
vertex  2.222222 2.222222 0.000000 
vertex  2.777778 2.222222 0.000000 
vertex  2.222222 1.666667 0.000000 
endloop 
endfacet 
facet normal  0.000000 0.000000 -1.000000 
outer loop 
vertex  2.222222 -1.666667 0.000000 
vertex  1.666667 -1.666667 0.000000 
vertex  1.666667 -1.111111 0.000000 
endloop 
endfacet 
facet normal  0.000000 0.000000 -1.000000 
outer loop 
vertex  1.666667 1.111111 0.000000 
vertex  1.666667 1.666667 0.000000 
vertex  2.222222 1.666667 0.000000 
endloop 
endfacet 
facet normal  0.000000 0.000000 -1.000000 
outer loop 
vertex  1.666667 -2.222222 0.000000 
vertex  1.666667 -2.777778 0.000000 
vertex  1.111111 -2.222222 0.000000 
endloop 
endfacet 
facet normal  0.000000 0.000000 -1.000000 
outer loop 
vertex  1.111111 2.222222 0.000000 
vertex  1.666667 2.777778 0.000000 
vertex  1.666667 2.222222 0.000000 
endloop 
endfacet 
facet normal  0.000000 0.000000 -1.000000 
outer loop 
vertex  0.000000 0.000000 0.000000 
vertex  0.555556 0.000000 0.000000 
vertex  0.555556 -0.555556 0.000000 
endloop 
endfacet 
facet normal  0.000000 0.000000 -1.000000 
outer loop 
vertex  0.555556 0.555556 0.000000 
vertex  0.555556 -0.000000 0.000000 
vertex  0.000000 -0.000000 0.000000 
endloop 
endfacet 
facet normal  0.000000 0.000000 -1.000000 
outer loop 
vertex  0.555556 -0.555556 0.000000 
vertex  1.111111 -1.111111 0.000000 
vertex  0.555556 -1.111111 0.000000 
endloop 
endfacet 
facet normal  0.000000 0.000000 -1.000000 
outer loop 
vertex  0.555556 1.111111 0.000000 
vertex  1.111111 1.111111 0.000000 
vertex  0.555556 0.555556 0.000000 
endloop 
endfacet 
facet normal  0.000000 0.000000 -1.000000 
outer loop 
vertex  1.111111 -1.666667 0.000000 
vertex  0.555556 -1.666667 0.000000 
vertex  0.555556 -1.111111 0.000000 
endloop 
endfacet 
facet normal  0.000000 0.000000 -1.000000 
outer loop 
vertex  0.555556 1.111111 0.000000 
vertex  0.555556 1.666667 0.000000 
vertex  1.111111 1.666667 0.000000 
endloop 
endfacet 
facet normal  0.000000 0.000000 -1.000000 
outer loop 
vertex  1.111111 -1.111111 0.000000 
vertex  1.111111 -0.555556 0.000000 
vertex  1.666667 -1.111111 0.000000 
endloop 
endfacet 
facet normal  0.000000 0.000000 -1.000000 
outer loop 
vertex  1.666667 1.111111 0.000000 
vertex  1.111111 0.555556 0.000000 
vertex  1.111111 1.111111 0.000000 
endloop 
endfacet 
facet normal  0.000000 0.000000 -1.000000 
outer loop 
vertex  1.111111 0.000000 0.000000 
vertex  1.666667 0.000000 0.000000 
vertex  1.666667 -0.555556 0.000000 
endloop 
endfacet 
facet normal  0.000000 0.000000 -1.000000 
outer loop 
vertex  1.666667 0.555556 0.000000 
vertex  1.666667 -0.000000 0.000000 
vertex  1.111111 -0.000000 0.000000 
endloop 
endfacet 
facet normal  0.000000 0.000000 -1.000000 
outer loop 
vertex  0.000000 -0.555556 0.000000 
vertex  0.000000 -1.111111 0.000000 
vertex  -0.555556 -0.555556 0.000000 
endloop 
endfacet 
facet normal  0.000000 0.000000 -1.000000 
outer loop 
vertex  -0.555556 0.555556 0.000000 
vertex  0.000000 1.111111 0.000000 
vertex  0.000000 0.555556 0.000000 
endloop 
endfacet 
facet normal  0.000000 0.000000 -1.000000 
outer loop 
vertex  0.555556 -0.555556 0.000000 
vertex  1.111111 -0.555556 0.000000 
vertex  1.111111 -1.111111 0.000000 
endloop 
endfacet 
facet normal  0.000000 0.000000 -1.000000 
outer loop 
vertex  1.111111 1.111111 0.000000 
vertex  1.111111 0.555556 0.000000 
vertex  0.555556 0.555556 0.000000 
endloop 
endfacet 
facet normal  0.000000 0.000000 -1.000000 
outer loop 
vertex  -0.555556 -0.555556 0.000000 
vertex  0.000000 -1.111111 0.000000 
vertex  -0.555556 -1.111111 0.000000 
endloop 
endfacet 
facet normal  0.000000 0.000000 -1.000000 
outer loop 
vertex  -0.555556 1.111111 0.000000 
vertex  0.000000 1.111111 0.000000 
vertex  -0.555556 0.555556 0.000000 
endloop 
endfacet 
facet normal  0.000000 0.000000 -1.000000 
outer loop 
vertex  0.000000 -0.555556 0.000000 
vertex  0.000000 0.000000 0.000000 
vertex  0.555556 -0.555556 0.000000 
endloop 
endfacet 
facet normal  0.000000 0.000000 -1.000000 
outer loop 
vertex  0.555556 0.555556 0.000000 
vertex  0.000000 -0.000000 0.000000 
vertex  0.000000 0.555556 0.000000 
endloop 
endfacet 
facet normal  0.000000 0.000000 -1.000000 
outer loop 
vertex  -0.555556 -1.111111 0.000000 
vertex  0.000000 -1.666667 0.000000 
vertex  -0.555556 -1.666667 0.000000 
endloop 
endfacet 
facet normal  0.000000 0.000000 -1.000000 
outer loop 
vertex  -0.555556 1.666667 0.000000 
vertex  0.000000 1.666667 0.000000 
vertex  -0.555556 1.111111 0.000000 
endloop 
endfacet 
facet normal  0.000000 0.000000 -1.000000 
outer loop 
vertex  0.555556 -2.222222 0.000000 
vertex  0.000000 -2.222222 0.000000 
vertex  0.000000 -1.666667 0.000000 
endloop 
endfacet 
facet normal  0.000000 0.000000 -1.000000 
outer loop 
vertex  0.000000 1.666667 0.000000 
vertex  0.000000 2.222222 0.000000 
vertex  0.555556 2.222222 0.000000 
endloop 
endfacet 
facet normal  0.000000 0.000000 -1.000000 
outer loop 
vertex  -0.555556 -2.222222 0.000000 
vertex  0.000000 -2.222222 0.000000 
vertex  0.000000 -2.777778 0.000000 
endloop 
endfacet 
facet normal  0.000000 0.000000 -1.000000 
outer loop 
vertex  0.000000 2.777778 0.000000 
vertex  0.000000 2.222222 0.000000 
vertex  -0.555556 2.222222 0.000000 
endloop 
endfacet 
facet normal  0.000000 0.000000 -1.000000 
outer loop 
vertex  0.000000 -1.666667 0.000000 
vertex  0.555556 -1.666667 0.000000 
vertex  0.555556 -2.222222 0.000000 
endloop 
endfacet 
facet normal  0.000000 0.000000 -1.000000 
outer loop 
vertex  0.555556 2.222222 0.000000 
vertex  0.555556 1.666667 0.000000 
vertex  0.000000 1.666667 0.000000 
endloop 
endfacet 
facet normal  0.000000 0.000000 -1.000000 
outer loop 
vertex  0.555556 -1.666667 0.000000 
vertex  0.000000 -1.666667 0.000000 
vertex  0.000000 -1.111111 0.000000 
endloop 
endfacet 
facet normal  0.000000 0.000000 -1.000000 
outer loop 
vertex  0.000000 1.111111 0.000000 
vertex  0.000000 1.666667 0.000000 
vertex  0.555556 1.666667 0.000000 
endloop 
endfacet 
facet normal  0.000000 0.000000 -1.000000 
outer loop 
vertex  0.000000 -1.666667 0.000000 
vertex  0.000000 -2.222222 0.000000 
vertex  -0.555556 -1.666667 0.000000 
endloop 
endfacet 
facet normal  0.000000 0.000000 -1.000000 
outer loop 
vertex  -0.555556 1.666667 0.000000 
vertex  0.000000 2.222222 0.000000 
vertex  0.000000 1.666667 0.000000 
endloop 
endfacet 
facet normal  0.000000 0.000000 -1.000000 
outer loop 
vertex  0.555556 -1.111111 0.000000 
vertex  0.000000 -1.111111 0.000000 
vertex  0.000000 -0.555556 0.000000 
endloop 
endfacet 
facet normal  0.000000 0.000000 -1.000000 
outer loop 
vertex  0.000000 0.555556 0.000000 
vertex  0.000000 1.111111 0.000000 
vertex  0.555556 1.111111 0.000000 
endloop 
endfacet 
facet normal  0.000000 0.000000 -1.000000 
outer loop 
vertex  0.000000 -1.111111 0.000000 
vertex  0.000000 -1.666667 0.000000 
vertex  -0.555556 -1.111111 0.000000 
endloop 
endfacet 
facet normal  0.000000 0.000000 -1.000000 
outer loop 
vertex  -0.555556 1.111111 0.000000 
vertex  0.000000 1.666667 0.000000 
vertex  0.000000 1.111111 0.000000 
endloop 
endfacet 
facet normal  0.000000 0.000000 -1.000000 
outer loop 
vertex  1.111111 -2.222222 0.000000 
vertex  0.555556 -1.666667 0.000000 
vertex  1.111111 -1.666667 0.000000 
endloop 
endfacet 
facet normal  0.000000 0.000000 -1.000000 
outer loop 
vertex  1.111111 1.666667 0.000000 
vertex  0.555556 1.666667 0.000000 
vertex  1.111111 2.222222 0.000000 
endloop 
endfacet 
facet normal  0.000000 0.000000 -1.000000 
outer loop 
vertex  0.555556 -1.666667 0.000000 
vertex  0.000000 -1.111111 0.000000 
vertex  0.555556 -1.111111 0.000000 
endloop 
endfacet 
facet normal  0.000000 0.000000 -1.000000 
outer loop 
vertex  0.555556 1.111111 0.000000 
vertex  0.000000 1.111111 0.000000 
vertex  0.555556 1.666667 0.000000 
endloop 
endfacet 
facet normal  0.000000 0.000000 -1.000000 
outer loop 
vertex  1.666667 -1.666667 0.000000 
vertex  1.111111 -1.666667 0.000000 
vertex  1.111111 -1.111111 0.000000 
endloop 
endfacet 
facet normal  0.000000 0.000000 -1.000000 
outer loop 
vertex  1.111111 1.111111 0.000000 
vertex  1.111111 1.666667 0.000000 
vertex  1.666667 1.666667 0.000000 
endloop 
endfacet 
facet normal  0.000000 0.000000 -1.000000 
outer loop 
vertex  1.111111 -1.666667 0.000000 
vertex  0.555556 -1.111111 0.000000 
vertex  1.111111 -1.111111 0.000000 
endloop 
endfacet 
facet normal  0.000000 0.000000 -1.000000 
outer loop 
vertex  1.111111 1.111111 0.000000 
vertex  0.555556 1.111111 0.000000 
vertex  1.111111 1.666667 0.000000 
endloop 
endfacet 
facet normal  0.000000 0.000000 -1.000000 
outer loop 
vertex  0.000000 -2.777778 0.000000 
vertex  0.555556 -3.333333 0.000000 
vertex  0.000000 -3.333333 0.000000 
endloop 
endfacet 
facet normal  0.000000 0.000000 -1.000000 
outer loop 
vertex  0.000000 3.333333 0.000000 
vertex  0.555556 3.333333 0.000000 
vertex  0.000000 2.777778 0.000000 
endloop 
endfacet 
facet normal  0.000000 0.000000 -1.000000 
outer loop 
vertex  1.111111 -2.777778 0.000000 
vertex  1.666667 -3.333333 0.000000 
vertex  1.111111 -3.333333 0.000000 
endloop 
endfacet 
facet normal  0.000000 0.000000 -1.000000 
outer loop 
vertex  1.111111 3.333333 0.000000 
vertex  1.666667 3.333333 0.000000 
vertex  1.111111 2.777778 0.000000 
endloop 
endfacet 
facet normal  0.000000 0.000000 -1.000000 
outer loop 
vertex  0.555556 -2.777778 0.000000 
vertex  1.111111 -3.333333 0.000000 
vertex  0.555556 -3.333333 0.000000 
endloop 
endfacet 
facet normal  0.000000 0.000000 -1.000000 
outer loop 
vertex  0.555556 3.333333 0.000000 
vertex  1.111111 3.333333 0.000000 
vertex  0.555556 2.777778 0.000000 
endloop 
endfacet 
facet normal  0.000000 0.000000 -1.000000 
outer loop 
vertex  1.111111 -2.777778 0.000000 
vertex  1.111111 -2.222222 0.000000 
vertex  1.666667 -2.777778 0.000000 
endloop 
endfacet 
facet normal  0.000000 0.000000 -1.000000 
outer loop 
vertex  1.666667 2.777778 0.000000 
vertex  1.111111 2.222222 0.000000 
vertex  1.111111 2.777778 0.000000 
endloop 
endfacet 
facet normal  0.000000 0.000000 -1.000000 
outer loop 
vertex  0.000000 -2.777778 0.000000 
vertex  -0.555556 -2.777778 0.000000 
vertex  -0.555556 -2.222222 0.000000 
endloop 
endfacet 
facet normal  0.000000 0.000000 -1.000000 
outer loop 
vertex  -0.555556 2.222222 0.000000 
vertex  -0.555556 2.777778 0.000000 
vertex  0.000000 2.777778 0.000000 
endloop 
endfacet 
facet normal  0.000000 0.000000 -1.000000 
outer loop 
vertex  -0.555556 -2.777778 0.000000 
vertex  -1.111111 -2.222222 0.000000 
vertex  -0.555556 -2.222222 0.000000 
endloop 
endfacet 
facet normal  0.000000 0.000000 -1.000000 
outer loop 
vertex  -0.555556 2.222222 0.000000 
vertex  -1.111111 2.222222 0.000000 
vertex  -0.555556 2.777778 0.000000 
endloop 
endfacet 
facet normal  0.000000 0.000000 -1.000000 
outer loop 
vertex  0.555556 -2.777778 0.000000 
vertex  0.555556 -3.333333 0.000000 
vertex  0.000000 -2.777778 0.000000 
endloop 
endfacet 
facet normal  0.000000 0.000000 -1.000000 
outer loop 
vertex  0.000000 2.777778 0.000000 
vertex  0.555556 3.333333 0.000000 
vertex  0.555556 2.777778 0.000000 
endloop 
endfacet 
facet normal  0.000000 0.000000 -1.000000 
outer loop 
vertex  0.000000 -3.888889 0.000000 
vertex  -0.555556 -3.888889 0.000000 
vertex  -0.555556 -3.333333 0.000000 
endloop 
endfacet 
facet normal  0.000000 0.000000 -1.000000 
outer loop 
vertex  -0.555556 3.333333 0.000000 
vertex  -0.555556 3.888889 0.000000 
vertex  0.000000 3.888889 0.000000 
endloop 
endfacet 
facet normal  0.000000 0.000000 -1.000000 
outer loop 
vertex  0.555556 -4.444444 0.000000 
vertex  0.555556 -3.888889 0.000000 
vertex  1.111111 -4.444444 0.000000 
endloop 
endfacet 
facet normal  0.000000 0.000000 -1.000000 
outer loop 
vertex  1.111111 4.444444 0.000000 
vertex  0.555556 3.888889 0.000000 
vertex  0.555556 4.444444 0.000000 
endloop 
endfacet 
facet normal  0.000000 0.000000 -1.000000 
outer loop 
vertex  0.000000 -4.444444 0.000000 
vertex  -0.555556 -4.444444 0.000000 
vertex  -0.555556 -3.888889 0.000000 
endloop 
endfacet 
facet normal  0.000000 0.000000 -1.000000 
outer loop 
vertex  -0.555556 3.888889 0.000000 
vertex  -0.555556 4.444444 0.000000 
vertex  0.000000 4.444444 0.000000 
endloop 
endfacet 
facet normal  0.000000 0.000000 -1.000000 
outer loop 
vertex  0.000000 -4.444444 0.000000 
vertex  0.000000 -3.888889 0.000000 
vertex  0.555556 -4.444444 0.000000 
endloop 
endfacet 
facet normal  0.000000 0.000000 -1.000000 
outer loop 
vertex  0.555556 4.444444 0.000000 
vertex  0.000000 3.888889 0.000000 
vertex  0.000000 4.444444 0.000000 
endloop 
endfacet 
facet normal  0.000000 0.000000 -1.000000 
outer loop 
vertex  0.000000 -3.888889 0.000000 
vertex  0.000000 -3.333333 0.000000 
vertex  0.555556 -3.888889 0.000000 
endloop 
endfacet 
facet normal  0.000000 0.000000 -1.000000 
outer loop 
vertex  0.555556 3.888889 0.000000 
vertex  0.000000 3.333333 0.000000 
vertex  0.000000 3.888889 0.000000 
endloop 
endfacet 
facet normal  0.000000 0.000000 -1.000000 
outer loop 
vertex  0.000000 -2.777778 0.000000 
vertex  0.000000 -3.333333 0.000000 
vertex  -0.555556 -2.777778 0.000000 
endloop 
endfacet 
facet normal  0.000000 0.000000 -1.000000 
outer loop 
vertex  -0.555556 2.777778 0.000000 
vertex  0.000000 3.333333 0.000000 
vertex  0.000000 2.777778 0.000000 
endloop 
endfacet 
facet normal  0.000000 0.000000 -1.000000 
outer loop 
vertex  0.000000 -3.333333 0.000000 
vertex  0.000000 -3.888889 0.000000 
vertex  -0.555556 -3.333333 0.000000 
endloop 
endfacet 
facet normal  0.000000 0.000000 -1.000000 
outer loop 
vertex  -0.555556 3.333333 0.000000 
vertex  0.000000 3.888889 0.000000 
vertex  0.000000 3.333333 0.000000 
endloop 
endfacet 
facet normal  0.000000 0.000000 -1.000000 
outer loop 
vertex  0.555556 -3.888889 0.000000 
vertex  1.111111 -3.888889 0.000000 
vertex  1.111111 -4.444444 0.000000 
endloop 
endfacet 
facet normal  0.000000 0.000000 -1.000000 
outer loop 
vertex  1.111111 4.444444 0.000000 
vertex  1.111111 3.888889 0.000000 
vertex  0.555556 3.888889 0.000000 
endloop 
endfacet 
facet normal  0.000000 0.000000 -1.000000 
outer loop 
vertex  0.555556 -3.333333 0.000000 
vertex  0.555556 -3.888889 0.000000 
vertex  0.000000 -3.333333 0.000000 
endloop 
endfacet 
facet normal  0.000000 0.000000 -1.000000 
outer loop 
vertex  0.000000 3.333333 0.000000 
vertex  0.555556 3.888889 0.000000 
vertex  0.555556 3.333333 0.000000 
endloop 
endfacet 
facet normal  0.000000 0.000000 -1.000000 
outer loop 
vertex  0.555556 -3.888889 0.000000 
vertex  0.555556 -4.444444 0.000000 
vertex  0.000000 -3.888889 0.000000 
endloop 
endfacet 
facet normal  0.000000 0.000000 -1.000000 
outer loop 
vertex  0.000000 3.888889 0.000000 
vertex  0.555556 4.444444 0.000000 
vertex  0.555556 3.888889 0.000000 
endloop 
endfacet 
facet normal  0.000000 0.000000 -1.000000 
outer loop 
vertex  1.666667 -2.777778 0.000000 
vertex  2.222222 -2.777778 0.000000 
vertex  2.222222 -3.333333 0.000000 
endloop 
endfacet 
facet normal  0.000000 0.000000 -1.000000 
outer loop 
vertex  2.222222 3.333333 0.000000 
vertex  2.222222 2.777778 0.000000 
vertex  1.666667 2.777778 0.000000 
endloop 
endfacet 
facet normal  0.000000 0.000000 -1.000000 
outer loop 
vertex  1.111111 -2.777778 0.000000 
vertex  1.111111 -3.333333 0.000000 
vertex  0.555556 -2.777778 0.000000 
endloop 
endfacet 
facet normal  0.000000 0.000000 -1.000000 
outer loop 
vertex  0.555556 2.777778 0.000000 
vertex  1.111111 3.333333 0.000000 
vertex  1.111111 2.777778 0.000000 
endloop 
endfacet 
facet normal  0.000000 0.000000 -1.000000 
outer loop 
vertex  1.111111 -3.333333 0.000000 
vertex  1.666667 -3.888889 0.000000 
vertex  1.111111 -3.888889 0.000000 
endloop 
endfacet 
facet normal  0.000000 0.000000 -1.000000 
outer loop 
vertex  1.111111 3.888889 0.000000 
vertex  1.666667 3.888889 0.000000 
vertex  1.111111 3.333333 0.000000 
endloop 
endfacet 
facet normal  0.000000 0.000000 -1.000000 
outer loop 
vertex  1.666667 -2.777778 0.000000 
vertex  1.666667 -2.222222 0.000000 
vertex  2.222222 -2.777778 0.000000 
endloop 
endfacet 
facet normal  0.000000 0.000000 -1.000000 
outer loop 
vertex  2.222222 2.777778 0.000000 
vertex  1.666667 2.222222 0.000000 
vertex  1.666667 2.777778 0.000000 
endloop 
endfacet 
facet normal  0.000000 0.000000 -1.000000 
outer loop 
vertex  1.666667 -2.222222 0.000000 
vertex  1.666667 -1.666667 0.000000 
vertex  2.222222 -2.222222 0.000000 
endloop 
endfacet 
facet normal  0.000000 0.000000 -1.000000 
outer loop 
vertex  2.222222 2.222222 0.000000 
vertex  1.666667 1.666667 0.000000 
vertex  1.666667 2.222222 0.000000 
endloop 
endfacet 
facet normal  0.000000 0.000000 -1.000000 
outer loop 
vertex  1.666667 -3.333333 0.000000 
vertex  2.222222 -3.333333 0.000000 
vertex  2.222222 -3.888889 0.000000 
endloop 
endfacet 
facet normal  0.000000 0.000000 -1.000000 
outer loop 
vertex  2.222222 3.888889 0.000000 
vertex  2.222222 3.333333 0.000000 
vertex  1.666667 3.333333 0.000000 
endloop 
endfacet 
facet normal  0.000000 0.000000 -1.000000 
outer loop 
vertex  2.222222 -2.777778 0.000000 
vertex  2.222222 -2.222222 0.000000 
vertex  2.777778 -2.777778 0.000000 
endloop 
endfacet 
facet normal  0.000000 0.000000 -1.000000 
outer loop 
vertex  2.777778 2.777778 0.000000 
vertex  2.222222 2.222222 0.000000 
vertex  2.222222 2.777778 0.000000 
endloop 
endfacet 
facet normal  0.000000 0.000000 -1.000000 
outer loop 
vertex  2.222222 -2.222222 0.000000 
vertex  2.777778 -2.222222 0.000000 
vertex  2.777778 -2.777778 0.000000 
endloop 
endfacet 
facet normal  0.000000 0.000000 -1.000000 
outer loop 
vertex  2.777778 2.777778 0.000000 
vertex  2.777778 2.222222 0.000000 
vertex  2.222222 2.222222 0.000000 
endloop 
endfacet 
facet normal  0.000000 0.000000 -1.000000 
outer loop 
vertex  2.777778 -2.222222 0.000000 
vertex  3.333333 -2.777778 0.000000 
vertex  2.777778 -2.777778 0.000000 
endloop 
endfacet 
facet normal  0.000000 0.000000 -1.000000 
outer loop 
vertex  2.777778 2.777778 0.000000 
vertex  3.333333 2.777778 0.000000 
vertex  2.777778 2.222222 0.000000 
endloop 
endfacet 
facet normal  0.000000 0.000000 -1.000000 
outer loop 
vertex  2.222222 -3.333333 0.000000 
vertex  2.222222 -2.777778 0.000000 
vertex  2.777778 -3.333333 0.000000 
endloop 
endfacet 
facet normal  0.000000 0.000000 -1.000000 
outer loop 
vertex  2.777778 3.333333 0.000000 
vertex  2.222222 2.777778 0.000000 
vertex  2.222222 3.333333 0.000000 
endloop 
endfacet 
facet normal  0.000000 0.000000 -1.000000 
outer loop 
vertex  3.333333 -3.333333 0.000000 
vertex  2.777778 -3.333333 0.000000 
vertex  2.777778 -2.777778 0.000000 
endloop 
endfacet 
facet normal  0.000000 0.000000 -1.000000 
outer loop 
vertex  2.777778 2.777778 0.000000 
vertex  2.777778 3.333333 0.000000 
vertex  3.333333 3.333333 0.000000 
endloop 
endfacet 
facet normal  0.000000 0.000000 -1.000000 
outer loop 
vertex  2.777778 -3.333333 0.000000 
vertex  2.222222 -2.777778 0.000000 
vertex  2.777778 -2.777778 0.000000 
endloop 
endfacet 
facet normal  0.000000 0.000000 -1.000000 
outer loop 
vertex  2.777778 2.777778 0.000000 
vertex  2.222222 2.777778 0.000000 
vertex  2.777778 3.333333 0.000000 
endloop 
endfacet 
facet normal  0.000000 0.000000 -1.000000 
outer loop 
vertex  3.333333 -2.777778 0.000000 
vertex  3.333333 -3.333333 0.000000 
vertex  2.777778 -2.777778 0.000000 
endloop 
endfacet 
facet normal  0.000000 0.000000 -1.000000 
outer loop 
vertex  2.777778 2.777778 0.000000 
vertex  3.333333 3.333333 0.000000 
vertex  3.333333 2.777778 0.000000 
endloop 
endfacet 
endsolid Cuerno_19_Bendfacet 
