solid Cuerno_17_B 
facet normal  0.000000 0.000000 -1.000000 
outer loop 
vertex  -2.500000 -0.625000 0.000000 
vertex  -3.125000 0.000000 0.000000 
vertex  -2.500000 0.000000 0.000000 
endloop 
endfacet 
facet normal  0.000000 0.000000 -1.000000 
outer loop 
vertex  -2.500000 -0.000000 0.000000 
vertex  -3.125000 -0.000000 0.000000 
vertex  -2.500000 0.625000 0.000000 
endloop 
endfacet 
facet normal  0.000000 0.000000 -1.000000 
outer loop 
vertex  -2.500000 -1.250000 0.000000 
vertex  -3.125000 -0.625000 0.000000 
vertex  -2.500000 -0.625000 0.000000 
endloop 
endfacet 
facet normal  0.000000 0.000000 -1.000000 
outer loop 
vertex  -2.500000 0.625000 0.000000 
vertex  -3.125000 0.625000 0.000000 
vertex  -2.500000 1.250000 0.000000 
endloop 
endfacet 
facet normal  0.000000 0.000000 -1.000000 
outer loop 
vertex  0.625000 -3.750000 0.000000 
vertex  0.000000 -3.750000 0.000000 
vertex  0.000000 -3.125000 0.000000 
endloop 
endfacet 
facet normal  0.000000 0.000000 -1.000000 
outer loop 
vertex  0.000000 3.125000 0.000000 
vertex  0.000000 3.750000 0.000000 
vertex  0.625000 3.750000 0.000000 
endloop 
endfacet 
facet normal  0.000000 0.000000 -1.000000 
outer loop 
vertex  -1.875000 -1.250000 0.000000 
vertex  -1.250000 -1.250000 0.000000 
vertex  -1.250000 -1.875000 0.000000 
endloop 
endfacet 
facet normal  0.000000 0.000000 -1.000000 
outer loop 
vertex  -1.250000 1.875000 0.000000 
vertex  -1.250000 1.250000 0.000000 
vertex  -1.875000 1.250000 0.000000 
endloop 
endfacet 
facet normal  0.000000 0.000000 -1.000000 
outer loop 
vertex  -3.125000 -1.875000 0.000000 
vertex  -2.500000 -1.875000 0.000000 
vertex  -2.500000 -2.500000 0.000000 
endloop 
endfacet 
facet normal  0.000000 0.000000 -1.000000 
outer loop 
vertex  -2.500000 2.500000 0.000000 
vertex  -2.500000 1.875000 0.000000 
vertex  -3.125000 1.875000 0.000000 
endloop 
endfacet 
facet normal  0.000000 0.000000 -1.000000 
outer loop 
vertex  -1.875000 -2.500000 0.000000 
vertex  -1.250000 -3.125000 0.000000 
vertex  -1.875000 -3.125000 0.000000 
endloop 
endfacet 
facet normal  0.000000 0.000000 -1.000000 
outer loop 
vertex  -1.875000 3.125000 0.000000 
vertex  -1.250000 3.125000 0.000000 
vertex  -1.875000 2.500000 0.000000 
endloop 
endfacet 
facet normal  0.000000 0.000000 -1.000000 
outer loop 
vertex  -1.250000 -2.500000 0.000000 
vertex  -0.625000 -3.125000 0.000000 
vertex  -1.250000 -3.125000 0.000000 
endloop 
endfacet 
facet normal  0.000000 0.000000 -1.000000 
outer loop 
vertex  -1.250000 3.125000 0.000000 
vertex  -0.625000 3.125000 0.000000 
vertex  -1.250000 2.500000 0.000000 
endloop 
endfacet 
facet normal  0.000000 0.000000 -1.000000 
outer loop 
vertex  -0.625000 0.000000 0.000000 
vertex  0.000000 -0.625000 0.000000 
vertex  -0.625000 -0.625000 0.000000 
endloop 
endfacet 
facet normal  0.000000 0.000000 -1.000000 
outer loop 
vertex  -0.625000 0.625000 0.000000 
vertex  0.000000 0.625000 0.000000 
vertex  -0.625000 -0.000000 0.000000 
endloop 
endfacet 
facet normal  0.000000 0.000000 -1.000000 
outer loop 
vertex  -1.250000 -4.375000 0.000000 
vertex  -1.875000 -3.750000 0.000000 
vertex  -1.250000 -3.750000 0.000000 
endloop 
endfacet 
facet normal  0.000000 0.000000 -1.000000 
outer loop 
vertex  -1.250000 3.750000 0.000000 
vertex  -1.875000 3.750000 0.000000 
vertex  -1.250000 4.375000 0.000000 
endloop 
endfacet 
facet normal  0.000000 0.000000 -1.000000 
outer loop 
vertex  0.625000 -1.250000 0.000000 
vertex  1.250000 -1.875000 0.000000 
vertex  0.625000 -1.875000 0.000000 
endloop 
endfacet 
facet normal  0.000000 0.000000 -1.000000 
outer loop 
vertex  0.625000 1.875000 0.000000 
vertex  1.250000 1.875000 0.000000 
vertex  0.625000 1.250000 0.000000 
endloop 
endfacet 
facet normal  0.000000 0.000000 -1.000000 
outer loop 
vertex  -3.750000 -0.625000 0.000000 
vertex  -4.375000 -0.625000 0.000000 
vertex  -4.375000 0.000000 0.000000 
endloop 
endfacet 
facet normal  0.000000 0.000000 -1.000000 
outer loop 
vertex  -4.375000 -0.000000 0.000000 
vertex  -4.375000 0.625000 0.000000 
vertex  -3.750000 0.625000 0.000000 
endloop 
endfacet 
facet normal  0.000000 0.000000 -1.000000 
outer loop 
vertex  -3.125000 -1.250000 0.000000 
vertex  -3.750000 -1.250000 0.000000 
vertex  -3.750000 -0.625000 0.000000 
endloop 
endfacet 
facet normal  0.000000 0.000000 -1.000000 
outer loop 
vertex  -3.750000 0.625000 0.000000 
vertex  -3.750000 1.250000 0.000000 
vertex  -3.125000 1.250000 0.000000 
endloop 
endfacet 
facet normal  0.000000 0.000000 -1.000000 
outer loop 
vertex  -1.875000 -0.625000 0.000000 
vertex  -2.500000 -0.625000 0.000000 
vertex  -2.500000 0.000000 0.000000 
endloop 
endfacet 
facet normal  0.000000 0.000000 -1.000000 
outer loop 
vertex  -2.500000 -0.000000 0.000000 
vertex  -2.500000 0.625000 0.000000 
vertex  -1.875000 0.625000 0.000000 
endloop 
endfacet 
facet normal  0.000000 0.000000 -1.000000 
outer loop 
vertex  3.125000 -2.500000 0.000000 
vertex  2.500000 -2.500000 0.000000 
vertex  2.500000 -1.875000 0.000000 
endloop 
endfacet 
facet normal  0.000000 0.000000 -1.000000 
outer loop 
vertex  2.500000 1.875000 0.000000 
vertex  2.500000 2.500000 0.000000 
vertex  3.125000 2.500000 0.000000 
endloop 
endfacet 
facet normal  0.000000 0.000000 -1.000000 
outer loop 
vertex  2.500000 -2.500000 0.000000 
vertex  3.125000 -3.125000 0.000000 
vertex  2.500000 -3.125000 0.000000 
endloop 
endfacet 
facet normal  0.000000 0.000000 -1.000000 
outer loop 
vertex  2.500000 3.125000 0.000000 
vertex  3.125000 3.125000 0.000000 
vertex  2.500000 2.500000 0.000000 
endloop 
endfacet 
facet normal  0.000000 0.000000 -1.000000 
outer loop 
vertex  0.000000 -1.250000 0.000000 
vertex  -0.625000 -1.250000 0.000000 
vertex  -0.625000 -0.625000 0.000000 
endloop 
endfacet 
facet normal  0.000000 0.000000 -1.000000 
outer loop 
vertex  -0.625000 0.625000 0.000000 
vertex  -0.625000 1.250000 0.000000 
vertex  0.000000 1.250000 0.000000 
endloop 
endfacet 
facet normal  0.000000 0.000000 -1.000000 
outer loop 
vertex  1.250000 -1.250000 0.000000 
vertex  1.250000 -1.875000 0.000000 
vertex  0.625000 -1.250000 0.000000 
endloop 
endfacet 
facet normal  0.000000 0.000000 -1.000000 
outer loop 
vertex  0.625000 1.250000 0.000000 
vertex  1.250000 1.875000 0.000000 
vertex  1.250000 1.250000 0.000000 
endloop 
endfacet 
facet normal  0.000000 0.000000 -1.000000 
outer loop 
vertex  1.250000 -3.125000 0.000000 
vertex  0.625000 -3.125000 0.000000 
vertex  0.625000 -2.500000 0.000000 
endloop 
endfacet 
facet normal  0.000000 0.000000 -1.000000 
outer loop 
vertex  0.625000 2.500000 0.000000 
vertex  0.625000 3.125000 0.000000 
vertex  1.250000 3.125000 0.000000 
endloop 
endfacet 
facet normal  0.000000 0.000000 -1.000000 
outer loop 
vertex  1.250000 -2.500000 0.000000 
vertex  1.250000 -3.125000 0.000000 
vertex  0.625000 -2.500000 0.000000 
endloop 
endfacet 
facet normal  0.000000 0.000000 -1.000000 
outer loop 
vertex  0.625000 2.500000 0.000000 
vertex  1.250000 3.125000 0.000000 
vertex  1.250000 2.500000 0.000000 
endloop 
endfacet 
facet normal  0.000000 0.000000 -1.000000 
outer loop 
vertex  1.875000 -3.125000 0.000000 
vertex  2.500000 -3.125000 0.000000 
vertex  2.500000 -3.750000 0.000000 
endloop 
endfacet 
facet normal  0.000000 0.000000 -1.000000 
outer loop 
vertex  2.500000 3.750000 0.000000 
vertex  2.500000 3.125000 0.000000 
vertex  1.875000 3.125000 0.000000 
endloop 
endfacet 
facet normal  0.000000 0.000000 -1.000000 
outer loop 
vertex  0.625000 -1.875000 0.000000 
vertex  0.625000 -2.500000 0.000000 
vertex  0.000000 -1.875000 0.000000 
endloop 
endfacet 
facet normal  0.000000 0.000000 -1.000000 
outer loop 
vertex  0.000000 1.875000 0.000000 
vertex  0.625000 2.500000 0.000000 
vertex  0.625000 1.875000 0.000000 
endloop 
endfacet 
facet normal  0.000000 0.000000 -1.000000 
outer loop 
vertex  -2.500000 -2.500000 0.000000 
vertex  -1.875000 -3.125000 0.000000 
vertex  -2.500000 -3.125000 0.000000 
endloop 
endfacet 
facet normal  0.000000 0.000000 -1.000000 
outer loop 
vertex  -2.500000 3.125000 0.000000 
vertex  -1.875000 3.125000 0.000000 
vertex  -2.500000 2.500000 0.000000 
endloop 
endfacet 
facet normal  0.000000 0.000000 -1.000000 
outer loop 
vertex  -2.500000 -1.875000 0.000000 
vertex  -3.125000 -1.875000 0.000000 
vertex  -3.125000 -1.250000 0.000000 
endloop 
endfacet 
facet normal  0.000000 0.000000 -1.000000 
outer loop 
vertex  -3.125000 1.250000 0.000000 
vertex  -3.125000 1.875000 0.000000 
vertex  -2.500000 1.875000 0.000000 
endloop 
endfacet 
facet normal  0.000000 0.000000 -1.000000 
outer loop 
vertex  -3.125000 -1.875000 0.000000 
vertex  -3.125000 -2.500000 0.000000 
vertex  -3.750000 -1.875000 0.000000 
endloop 
endfacet 
facet normal  0.000000 0.000000 -1.000000 
outer loop 
vertex  -3.750000 1.875000 0.000000 
vertex  -3.125000 2.500000 0.000000 
vertex  -3.125000 1.875000 0.000000 
endloop 
endfacet 
facet normal  0.000000 0.000000 -1.000000 
outer loop 
vertex  -1.875000 -3.125000 0.000000 
vertex  -2.500000 -2.500000 0.000000 
vertex  -1.875000 -2.500000 0.000000 
endloop 
endfacet 
facet normal  0.000000 0.000000 -1.000000 
outer loop 
vertex  -1.875000 2.500000 0.000000 
vertex  -2.500000 2.500000 0.000000 
vertex  -1.875000 3.125000 0.000000 
endloop 
endfacet 
facet normal  0.000000 0.000000 -1.000000 
outer loop 
vertex  -2.500000 -2.500000 0.000000 
vertex  -3.125000 -2.500000 0.000000 
vertex  -3.125000 -1.875000 0.000000 
endloop 
endfacet 
facet normal  0.000000 0.000000 -1.000000 
outer loop 
vertex  -3.125000 1.875000 0.000000 
vertex  -3.125000 2.500000 0.000000 
vertex  -2.500000 2.500000 0.000000 
endloop 
endfacet 
facet normal  0.000000 0.000000 -1.000000 
outer loop 
vertex  -1.875000 -1.875000 0.000000 
vertex  -1.875000 -1.250000 0.000000 
vertex  -1.250000 -1.875000 0.000000 
endloop 
endfacet 
facet normal  0.000000 0.000000 -1.000000 
outer loop 
vertex  -1.250000 1.875000 0.000000 
vertex  -1.875000 1.250000 0.000000 
vertex  -1.875000 1.875000 0.000000 
endloop 
endfacet 
facet normal  0.000000 0.000000 -1.000000 
outer loop 
vertex  -2.500000 -1.875000 0.000000 
vertex  -3.125000 -1.250000 0.000000 
vertex  -2.500000 -1.250000 0.000000 
endloop 
endfacet 
facet normal  0.000000 0.000000 -1.000000 
outer loop 
vertex  -2.500000 1.250000 0.000000 
vertex  -3.125000 1.250000 0.000000 
vertex  -2.500000 1.875000 0.000000 
endloop 
endfacet 
facet normal  0.000000 0.000000 -1.000000 
outer loop 
vertex  -1.875000 -3.750000 0.000000 
vertex  -1.875000 -3.125000 0.000000 
vertex  -1.250000 -3.750000 0.000000 
endloop 
endfacet 
facet normal  0.000000 0.000000 -1.000000 
outer loop 
vertex  -1.250000 3.750000 0.000000 
vertex  -1.875000 3.125000 0.000000 
vertex  -1.875000 3.750000 0.000000 
endloop 
endfacet 
facet normal  0.000000 0.000000 -1.000000 
outer loop 
vertex  -2.500000 -2.500000 0.000000 
vertex  -2.500000 -3.125000 0.000000 
vertex  -3.125000 -2.500000 0.000000 
endloop 
endfacet 
facet normal  0.000000 0.000000 -1.000000 
outer loop 
vertex  -3.125000 2.500000 0.000000 
vertex  -2.500000 3.125000 0.000000 
vertex  -2.500000 2.500000 0.000000 
endloop 
endfacet 
facet normal  0.000000 0.000000 -1.000000 
outer loop 
vertex  -1.250000 -3.125000 0.000000 
vertex  -0.625000 -3.125000 0.000000 
vertex  -0.625000 -3.750000 0.000000 
endloop 
endfacet 
facet normal  0.000000 0.000000 -1.000000 
outer loop 
vertex  -0.625000 3.750000 0.000000 
vertex  -0.625000 3.125000 0.000000 
vertex  -1.250000 3.125000 0.000000 
endloop 
endfacet 
facet normal  0.000000 0.000000 -1.000000 
outer loop 
vertex  0.000000 -3.750000 0.000000 
vertex  0.000000 -4.375000 0.000000 
vertex  -0.625000 -3.750000 0.000000 
endloop 
endfacet 
facet normal  0.000000 0.000000 -1.000000 
outer loop 
vertex  -0.625000 3.750000 0.000000 
vertex  0.000000 4.375000 0.000000 
vertex  0.000000 3.750000 0.000000 
endloop 
endfacet 
facet normal  0.000000 0.000000 -1.000000 
outer loop 
vertex  -1.250000 -3.750000 0.000000 
vertex  -0.625000 -4.375000 0.000000 
vertex  -1.250000 -4.375000 0.000000 
endloop 
endfacet 
facet normal  0.000000 0.000000 -1.000000 
outer loop 
vertex  -1.250000 4.375000 0.000000 
vertex  -0.625000 4.375000 0.000000 
vertex  -1.250000 3.750000 0.000000 
endloop 
endfacet 
facet normal  0.000000 0.000000 -1.000000 
outer loop 
vertex  -1.250000 -3.750000 0.000000 
vertex  -0.625000 -3.750000 0.000000 
vertex  -0.625000 -4.375000 0.000000 
endloop 
endfacet 
facet normal  0.000000 0.000000 -1.000000 
outer loop 
vertex  -0.625000 4.375000 0.000000 
vertex  -0.625000 3.750000 0.000000 
vertex  -1.250000 3.750000 0.000000 
endloop 
endfacet 
facet normal  0.000000 0.000000 -1.000000 
outer loop 
vertex  -0.625000 -3.750000 0.000000 
vertex  0.000000 -4.375000 0.000000 
vertex  -0.625000 -4.375000 0.000000 
endloop 
endfacet 
facet normal  0.000000 0.000000 -1.000000 
outer loop 
vertex  -0.625000 4.375000 0.000000 
vertex  0.000000 4.375000 0.000000 
vertex  -0.625000 3.750000 0.000000 
endloop 
endfacet 
facet normal  0.000000 0.000000 -1.000000 
outer loop 
vertex  -1.875000 -2.500000 0.000000 
vertex  -1.250000 -2.500000 0.000000 
vertex  -1.250000 -3.125000 0.000000 
endloop 
endfacet 
facet normal  0.000000 0.000000 -1.000000 
outer loop 
vertex  -1.250000 3.125000 0.000000 
vertex  -1.250000 2.500000 0.000000 
vertex  -1.875000 2.500000 0.000000 
endloop 
endfacet 
facet normal  0.000000 0.000000 -1.000000 
outer loop 
vertex  -1.875000 -3.125000 0.000000 
vertex  -1.250000 -3.125000 0.000000 
vertex  -1.250000 -3.750000 0.000000 
endloop 
endfacet 
facet normal  0.000000 0.000000 -1.000000 
outer loop 
vertex  -1.250000 3.750000 0.000000 
vertex  -1.250000 3.125000 0.000000 
vertex  -1.875000 3.125000 0.000000 
endloop 
endfacet 
facet normal  0.000000 0.000000 -1.000000 
outer loop 
vertex  -1.250000 -3.125000 0.000000 
vertex  -0.625000 -3.750000 0.000000 
vertex  -1.250000 -3.750000 0.000000 
endloop 
endfacet 
facet normal  0.000000 0.000000 -1.000000 
outer loop 
vertex  -1.250000 3.750000 0.000000 
vertex  -0.625000 3.750000 0.000000 
vertex  -1.250000 3.125000 0.000000 
endloop 
endfacet 
facet normal  0.000000 0.000000 -1.000000 
outer loop 
vertex  -1.875000 -3.125000 0.000000 
vertex  -1.875000 -3.750000 0.000000 
vertex  -2.500000 -3.125000 0.000000 
endloop 
endfacet 
facet normal  0.000000 0.000000 -1.000000 
outer loop 
vertex  -2.500000 3.125000 0.000000 
vertex  -1.875000 3.750000 0.000000 
vertex  -1.875000 3.125000 0.000000 
endloop 
endfacet 
facet normal  0.000000 0.000000 -1.000000 
outer loop 
vertex  -1.250000 -2.500000 0.000000 
vertex  -1.875000 -1.875000 0.000000 
vertex  -1.250000 -1.875000 0.000000 
endloop 
endfacet 
facet normal  0.000000 0.000000 -1.000000 
outer loop 
vertex  -1.250000 1.875000 0.000000 
vertex  -1.875000 1.875000 0.000000 
vertex  -1.250000 2.500000 0.000000 
endloop 
endfacet 
facet normal  0.000000 0.000000 -1.000000 
outer loop 
vertex  -1.875000 -2.500000 0.000000 
vertex  -2.500000 -2.500000 0.000000 
vertex  -2.500000 -1.875000 0.000000 
endloop 
endfacet 
facet normal  0.000000 0.000000 -1.000000 
outer loop 
vertex  -2.500000 1.875000 0.000000 
vertex  -2.500000 2.500000 0.000000 
vertex  -1.875000 2.500000 0.000000 
endloop 
endfacet 
facet normal  0.000000 0.000000 -1.000000 
outer loop 
vertex  -1.250000 -2.500000 0.000000 
vertex  -0.625000 -2.500000 0.000000 
vertex  -0.625000 -3.125000 0.000000 
endloop 
endfacet 
facet normal  0.000000 0.000000 -1.000000 
outer loop 
vertex  -0.625000 3.125000 0.000000 
vertex  -0.625000 2.500000 0.000000 
vertex  -1.250000 2.500000 0.000000 
endloop 
endfacet 
facet normal  0.000000 0.000000 -1.000000 
outer loop 
vertex  -3.125000 -1.250000 0.000000 
vertex  -3.125000 -0.625000 0.000000 
vertex  -2.500000 -1.250000 0.000000 
endloop 
endfacet 
facet normal  0.000000 0.000000 -1.000000 
outer loop 
vertex  -2.500000 1.250000 0.000000 
vertex  -3.125000 0.625000 0.000000 
vertex  -3.125000 1.250000 0.000000 
endloop 
endfacet 
facet normal  0.000000 0.000000 -1.000000 
outer loop 
vertex  -1.250000 -1.875000 0.000000 
vertex  -1.250000 -1.250000 0.000000 
vertex  -0.625000 -1.875000 0.000000 
endloop 
endfacet 
facet normal  0.000000 0.000000 -1.000000 
outer loop 
vertex  -0.625000 1.875000 0.000000 
vertex  -1.250000 1.250000 0.000000 
vertex  -1.250000 1.875000 0.000000 
endloop 
endfacet 
facet normal  0.000000 0.000000 -1.000000 
outer loop 
vertex  -1.250000 0.000000 0.000000 
vertex  -0.625000 0.000000 0.000000 
vertex  -0.625000 -0.625000 0.000000 
endloop 
endfacet 
facet normal  0.000000 0.000000 -1.000000 
outer loop 
vertex  -0.625000 0.625000 0.000000 
vertex  -0.625000 -0.000000 0.000000 
vertex  -1.250000 -0.000000 0.000000 
endloop 
endfacet 
facet normal  0.000000 0.000000 -1.000000 
outer loop 
vertex  -1.250000 -1.875000 0.000000 
vertex  -0.625000 -2.500000 0.000000 
vertex  -1.250000 -2.500000 0.000000 
endloop 
endfacet 
facet normal  0.000000 0.000000 -1.000000 
outer loop 
vertex  -1.250000 2.500000 0.000000 
vertex  -0.625000 2.500000 0.000000 
vertex  -1.250000 1.875000 0.000000 
endloop 
endfacet 
facet normal  0.000000 0.000000 -1.000000 
outer loop 
vertex  1.250000 -4.375000 0.000000 
vertex  0.625000 -4.375000 0.000000 
vertex  0.625000 -3.750000 0.000000 
endloop 
endfacet 
facet normal  0.000000 0.000000 -1.000000 
outer loop 
vertex  0.625000 3.750000 0.000000 
vertex  0.625000 4.375000 0.000000 
vertex  1.250000 4.375000 0.000000 
endloop 
endfacet 
facet normal  0.000000 0.000000 -1.000000 
outer loop 
vertex  -1.250000 -1.250000 0.000000 
vertex  -0.625000 -1.250000 0.000000 
vertex  -0.625000 -1.875000 0.000000 
endloop 
endfacet 
facet normal  0.000000 0.000000 -1.000000 
outer loop 
vertex  -0.625000 1.875000 0.000000 
vertex  -0.625000 1.250000 0.000000 
vertex  -1.250000 1.250000 0.000000 
endloop 
endfacet 
facet normal  0.000000 0.000000 -1.000000 
outer loop 
vertex  -0.625000 -1.250000 0.000000 
vertex  0.000000 -1.875000 0.000000 
vertex  -0.625000 -1.875000 0.000000 
endloop 
endfacet 
facet normal  0.000000 0.000000 -1.000000 
outer loop 
vertex  -0.625000 1.875000 0.000000 
vertex  0.000000 1.875000 0.000000 
vertex  -0.625000 1.250000 0.000000 
endloop 
endfacet 
facet normal  0.000000 0.000000 -1.000000 
outer loop 
vertex  -0.625000 -0.625000 0.000000 
vertex  -0.625000 -1.250000 0.000000 
vertex  -1.250000 -0.625000 0.000000 
endloop 
endfacet 
facet normal  0.000000 0.000000 -1.000000 
outer loop 
vertex  -1.250000 0.625000 0.000000 
vertex  -0.625000 1.250000 0.000000 
vertex  -0.625000 0.625000 0.000000 
endloop 
endfacet 
facet normal  0.000000 0.000000 -1.000000 
outer loop 
vertex  -2.500000 -1.250000 0.000000 
vertex  -1.875000 -1.250000 0.000000 
vertex  -1.875000 -1.875000 0.000000 
endloop 
endfacet 
facet normal  0.000000 0.000000 -1.000000 
outer loop 
vertex  -1.875000 1.875000 0.000000 
vertex  -1.875000 1.250000 0.000000 
vertex  -2.500000 1.250000 0.000000 
endloop 
endfacet 
facet normal  0.000000 0.000000 -1.000000 
outer loop 
vertex  -1.875000 -0.625000 0.000000 
vertex  -1.250000 -0.625000 0.000000 
vertex  -1.250000 -1.250000 0.000000 
endloop 
endfacet 
facet normal  0.000000 0.000000 -1.000000 
outer loop 
vertex  -1.250000 1.250000 0.000000 
vertex  -1.250000 0.625000 0.000000 
vertex  -1.875000 0.625000 0.000000 
endloop 
endfacet 
facet normal  0.000000 0.000000 -1.000000 
outer loop 
vertex  -1.250000 -0.625000 0.000000 
vertex  -0.625000 -1.250000 0.000000 
vertex  -1.250000 -1.250000 0.000000 
endloop 
endfacet 
facet normal  0.000000 0.000000 -1.000000 
outer loop 
vertex  -1.250000 1.250000 0.000000 
vertex  -0.625000 1.250000 0.000000 
vertex  -1.250000 0.625000 0.000000 
endloop 
endfacet 
facet normal  0.000000 0.000000 -1.000000 
outer loop 
vertex  -2.500000 -1.875000 0.000000 
vertex  -2.500000 -1.250000 0.000000 
vertex  -1.875000 -1.875000 0.000000 
endloop 
endfacet 
facet normal  0.000000 0.000000 -1.000000 
outer loop 
vertex  -1.875000 1.875000 0.000000 
vertex  -2.500000 1.250000 0.000000 
vertex  -2.500000 1.875000 0.000000 
endloop 
endfacet 
facet normal  0.000000 0.000000 -1.000000 
outer loop 
vertex  -2.500000 -1.250000 0.000000 
vertex  -2.500000 -0.625000 0.000000 
vertex  -1.875000 -1.250000 0.000000 
endloop 
endfacet 
facet normal  0.000000 0.000000 -1.000000 
outer loop 
vertex  -1.875000 1.250000 0.000000 
vertex  -2.500000 0.625000 0.000000 
vertex  -2.500000 1.250000 0.000000 
endloop 
endfacet 
facet normal  0.000000 0.000000 -1.000000 
outer loop 
vertex  -1.875000 -1.250000 0.000000 
vertex  -2.500000 -0.625000 0.000000 
vertex  -1.875000 -0.625000 0.000000 
endloop 
endfacet 
facet normal  0.000000 0.000000 -1.000000 
outer loop 
vertex  -1.875000 0.625000 0.000000 
vertex  -2.500000 0.625000 0.000000 
vertex  -1.875000 1.250000 0.000000 
endloop 
endfacet 
facet normal  0.000000 0.000000 -1.000000 
outer loop 
vertex  -3.125000 -0.625000 0.000000 
vertex  -3.750000 -0.625000 0.000000 
vertex  -3.750000 0.000000 0.000000 
endloop 
endfacet 
facet normal  0.000000 0.000000 -1.000000 
outer loop 
vertex  -3.750000 -0.000000 0.000000 
vertex  -3.750000 0.625000 0.000000 
vertex  -3.125000 0.625000 0.000000 
endloop 
endfacet 
facet normal  0.000000 0.000000 -1.000000 
outer loop 
vertex  -2.500000 -1.875000 0.000000 
vertex  -1.875000 -1.875000 0.000000 
vertex  -1.875000 -2.500000 0.000000 
endloop 
endfacet 
facet normal  0.000000 0.000000 -1.000000 
outer loop 
vertex  -1.875000 2.500000 0.000000 
vertex  -1.875000 1.875000 0.000000 
vertex  -2.500000 1.875000 0.000000 
endloop 
endfacet 
facet normal  0.000000 0.000000 -1.000000 
outer loop 
vertex  -1.875000 -1.875000 0.000000 
vertex  -1.250000 -2.500000 0.000000 
vertex  -1.875000 -2.500000 0.000000 
endloop 
endfacet 
facet normal  0.000000 0.000000 -1.000000 
outer loop 
vertex  -1.875000 2.500000 0.000000 
vertex  -1.250000 2.500000 0.000000 
vertex  -1.875000 1.875000 0.000000 
endloop 
endfacet 
facet normal  0.000000 0.000000 -1.000000 
outer loop 
vertex  -3.125000 -1.875000 0.000000 
vertex  -3.750000 -1.250000 0.000000 
vertex  -3.125000 -1.250000 0.000000 
endloop 
endfacet 
facet normal  0.000000 0.000000 -1.000000 
outer loop 
vertex  -3.125000 1.250000 0.000000 
vertex  -3.750000 1.250000 0.000000 
vertex  -3.125000 1.875000 0.000000 
endloop 
endfacet 
facet normal  0.000000 0.000000 -1.000000 
outer loop 
vertex  -4.375000 -1.250000 0.000000 
vertex  -4.375000 -0.625000 0.000000 
vertex  -3.750000 -1.250000 0.000000 
endloop 
endfacet 
facet normal  0.000000 0.000000 -1.000000 
outer loop 
vertex  -3.750000 1.250000 0.000000 
vertex  -4.375000 0.625000 0.000000 
vertex  -4.375000 1.250000 0.000000 
endloop 
endfacet 
facet normal  0.000000 0.000000 -1.000000 
outer loop 
vertex  -3.750000 -1.875000 0.000000 
vertex  -4.375000 -1.250000 0.000000 
vertex  -3.750000 -1.250000 0.000000 
endloop 
endfacet 
facet normal  0.000000 0.000000 -1.000000 
outer loop 
vertex  -3.750000 1.250000 0.000000 
vertex  -4.375000 1.250000 0.000000 
vertex  -3.750000 1.875000 0.000000 
endloop 
endfacet 
facet normal  0.000000 0.000000 -1.000000 
outer loop 
vertex  -3.750000 -1.875000 0.000000 
vertex  -3.750000 -1.250000 0.000000 
vertex  -3.125000 -1.875000 0.000000 
endloop 
endfacet 
facet normal  0.000000 0.000000 -1.000000 
outer loop 
vertex  -3.125000 1.875000 0.000000 
vertex  -3.750000 1.250000 0.000000 
vertex  -3.750000 1.875000 0.000000 
endloop 
endfacet 
facet normal  0.000000 0.000000 -1.000000 
outer loop 
vertex  -3.750000 -0.625000 0.000000 
vertex  -3.125000 -0.625000 0.000000 
vertex  -3.125000 -1.250000 0.000000 
endloop 
endfacet 
facet normal  0.000000 0.000000 -1.000000 
outer loop 
vertex  -3.125000 1.250000 0.000000 
vertex  -3.125000 0.625000 0.000000 
vertex  -3.750000 0.625000 0.000000 
endloop 
endfacet 
facet normal  0.000000 0.000000 -1.000000 
outer loop 
vertex  -3.750000 0.000000 0.000000 
vertex  -3.750000 -0.625000 0.000000 
vertex  -4.375000 0.000000 0.000000 
endloop 
endfacet 
facet normal  0.000000 0.000000 -1.000000 
outer loop 
vertex  -4.375000 -0.000000 0.000000 
vertex  -3.750000 0.625000 0.000000 
vertex  -3.750000 -0.000000 0.000000 
endloop 
endfacet 
facet normal  0.000000 0.000000 -1.000000 
outer loop 
vertex  -3.750000 -0.625000 0.000000 
vertex  -3.750000 -1.250000 0.000000 
vertex  -4.375000 -0.625000 0.000000 
endloop 
endfacet 
facet normal  0.000000 0.000000 -1.000000 
outer loop 
vertex  -4.375000 0.625000 0.000000 
vertex  -3.750000 1.250000 0.000000 
vertex  -3.750000 0.625000 0.000000 
endloop 
endfacet 
facet normal  0.000000 0.000000 -1.000000 
outer loop 
vertex  -2.500000 -0.625000 0.000000 
vertex  -3.125000 -0.625000 0.000000 
vertex  -3.125000 0.000000 0.000000 
endloop 
endfacet 
facet normal  0.000000 0.000000 -1.000000 
outer loop 
vertex  -3.125000 -0.000000 0.000000 
vertex  -3.125000 0.625000 0.000000 
vertex  -2.500000 0.625000 0.000000 
endloop 
endfacet 
facet normal  0.000000 0.000000 -1.000000 
outer loop 
vertex  -3.125000 0.000000 0.000000 
vertex  -3.125000 -0.625000 0.000000 
vertex  -3.750000 0.000000 0.000000 
endloop 
endfacet 
facet normal  0.000000 0.000000 -1.000000 
outer loop 
vertex  -3.750000 -0.000000 0.000000 
vertex  -3.125000 0.625000 0.000000 
vertex  -3.125000 -0.000000 0.000000 
endloop 
endfacet 
facet normal  0.000000 0.000000 -1.000000 
outer loop 
vertex  -1.875000 -1.250000 0.000000 
vertex  -1.875000 -0.625000 0.000000 
vertex  -1.250000 -1.250000 0.000000 
endloop 
endfacet 
facet normal  0.000000 0.000000 -1.000000 
outer loop 
vertex  -1.250000 1.250000 0.000000 
vertex  -1.875000 0.625000 0.000000 
vertex  -1.875000 1.250000 0.000000 
endloop 
endfacet 
facet normal  0.000000 0.000000 -1.000000 
outer loop 
vertex  -2.500000 0.000000 0.000000 
vertex  -1.875000 0.000000 0.000000 
vertex  -1.875000 -0.625000 0.000000 
endloop 
endfacet 
facet normal  0.000000 0.000000 -1.000000 
outer loop 
vertex  -1.875000 0.625000 0.000000 
vertex  -1.875000 -0.000000 0.000000 
vertex  -2.500000 -0.000000 0.000000 
endloop 
endfacet 
facet normal  0.000000 0.000000 -1.000000 
outer loop 
vertex  -1.875000 0.000000 0.000000 
vertex  -1.250000 -0.625000 0.000000 
vertex  -1.875000 -0.625000 0.000000 
endloop 
endfacet 
facet normal  0.000000 0.000000 -1.000000 
outer loop 
vertex  -1.875000 0.625000 0.000000 
vertex  -1.250000 0.625000 0.000000 
vertex  -1.875000 -0.000000 0.000000 
endloop 
endfacet 
facet normal  0.000000 0.000000 -1.000000 
outer loop 
vertex  -1.875000 0.000000 0.000000 
vertex  -1.250000 0.000000 0.000000 
vertex  -1.250000 -0.625000 0.000000 
endloop 
endfacet 
facet normal  0.000000 0.000000 -1.000000 
outer loop 
vertex  -1.250000 0.625000 0.000000 
vertex  -1.250000 -0.000000 0.000000 
vertex  -1.875000 -0.000000 0.000000 
endloop 
endfacet 
facet normal  0.000000 0.000000 -1.000000 
outer loop 
vertex  -1.250000 0.000000 0.000000 
vertex  -0.625000 -0.625000 0.000000 
vertex  -1.250000 -0.625000 0.000000 
endloop 
endfacet 
facet normal  0.000000 0.000000 -1.000000 
outer loop 
vertex  -1.250000 0.625000 0.000000 
vertex  -0.625000 0.625000 0.000000 
vertex  -1.250000 -0.000000 0.000000 
endloop 
endfacet 
facet normal  0.000000 0.000000 -1.000000 
outer loop 
vertex  -0.625000 0.000000 0.000000 
vertex  0.000000 0.000000 0.000000 
vertex  0.000000 -0.625000 0.000000 
endloop 
endfacet 
facet normal  0.000000 0.000000 -1.000000 
outer loop 
vertex  0.000000 0.625000 0.000000 
vertex  0.000000 -0.000000 0.000000 
vertex  -0.625000 -0.000000 0.000000 
endloop 
endfacet 
facet normal  0.000000 0.000000 -1.000000 
outer loop 
vertex  0.000000 0.000000 0.000000 
vertex  0.625000 -0.625000 0.000000 
vertex  0.000000 -0.625000 0.000000 
endloop 
endfacet 
facet normal  0.000000 0.000000 -1.000000 
outer loop 
vertex  0.000000 0.625000 0.000000 
vertex  0.625000 0.625000 0.000000 
vertex  0.000000 -0.000000 0.000000 
endloop 
endfacet 
facet normal  0.000000 0.000000 -1.000000 
outer loop 
vertex  2.500000 -2.500000 0.000000 
vertex  1.875000 -2.500000 0.000000 
vertex  1.875000 -1.875000 0.000000 
endloop 
endfacet 
facet normal  0.000000 0.000000 -1.000000 
outer loop 
vertex  1.875000 1.875000 0.000000 
vertex  1.875000 2.500000 0.000000 
vertex  2.500000 2.500000 0.000000 
endloop 
endfacet 
facet normal  0.000000 0.000000 -1.000000 
outer loop 
vertex  1.250000 -2.500000 0.000000 
vertex  1.875000 -2.500000 0.000000 
vertex  1.875000 -3.125000 0.000000 
endloop 
endfacet 
facet normal  0.000000 0.000000 -1.000000 
outer loop 
vertex  1.875000 3.125000 0.000000 
vertex  1.875000 2.500000 0.000000 
vertex  1.250000 2.500000 0.000000 
endloop 
endfacet 
facet normal  0.000000 0.000000 -1.000000 
outer loop 
vertex  1.875000 -1.875000 0.000000 
vertex  2.500000 -1.875000 0.000000 
vertex  2.500000 -2.500000 0.000000 
endloop 
endfacet 
facet normal  0.000000 0.000000 -1.000000 
outer loop 
vertex  2.500000 2.500000 0.000000 
vertex  2.500000 1.875000 0.000000 
vertex  1.875000 1.875000 0.000000 
endloop 
endfacet 
facet normal  0.000000 0.000000 -1.000000 
outer loop 
vertex  1.875000 -2.500000 0.000000 
vertex  1.250000 -1.875000 0.000000 
vertex  1.875000 -1.875000 0.000000 
endloop 
endfacet 
facet normal  0.000000 0.000000 -1.000000 
outer loop 
vertex  1.875000 1.875000 0.000000 
vertex  1.250000 1.875000 0.000000 
vertex  1.875000 2.500000 0.000000 
endloop 
endfacet 
facet normal  0.000000 0.000000 -1.000000 
outer loop 
vertex  1.875000 -1.875000 0.000000 
vertex  1.875000 -1.250000 0.000000 
vertex  2.500000 -1.875000 0.000000 
endloop 
endfacet 
facet normal  0.000000 0.000000 -1.000000 
outer loop 
vertex  2.500000 1.875000 0.000000 
vertex  1.875000 1.250000 0.000000 
vertex  1.875000 1.875000 0.000000 
endloop 
endfacet 
facet normal  0.000000 0.000000 -1.000000 
outer loop 
vertex  1.250000 -0.625000 0.000000 
vertex  1.875000 -1.250000 0.000000 
vertex  1.250000 -1.250000 0.000000 
endloop 
endfacet 
facet normal  0.000000 0.000000 -1.000000 
outer loop 
vertex  1.250000 1.250000 0.000000 
vertex  1.875000 1.250000 0.000000 
vertex  1.250000 0.625000 0.000000 
endloop 
endfacet 
facet normal  0.000000 0.000000 -1.000000 
outer loop 
vertex  1.875000 -1.250000 0.000000 
vertex  1.875000 -1.875000 0.000000 
vertex  1.250000 -1.250000 0.000000 
endloop 
endfacet 
facet normal  0.000000 0.000000 -1.000000 
outer loop 
vertex  1.250000 1.250000 0.000000 
vertex  1.875000 1.875000 0.000000 
vertex  1.875000 1.250000 0.000000 
endloop 
endfacet 
facet normal  0.000000 0.000000 -1.000000 
outer loop 
vertex  1.250000 -0.625000 0.000000 
vertex  0.625000 0.000000 0.000000 
vertex  1.250000 0.000000 0.000000 
endloop 
endfacet 
facet normal  0.000000 0.000000 -1.000000 
outer loop 
vertex  1.250000 -0.000000 0.000000 
vertex  0.625000 -0.000000 0.000000 
vertex  1.250000 0.625000 0.000000 
endloop 
endfacet 
facet normal  0.000000 0.000000 -1.000000 
outer loop 
vertex  0.625000 -0.625000 0.000000 
vertex  0.625000 -1.250000 0.000000 
vertex  0.000000 -0.625000 0.000000 
endloop 
endfacet 
facet normal  0.000000 0.000000 -1.000000 
outer loop 
vertex  0.000000 0.625000 0.000000 
vertex  0.625000 1.250000 0.000000 
vertex  0.625000 0.625000 0.000000 
endloop 
endfacet 
facet normal  0.000000 0.000000 -1.000000 
outer loop 
vertex  1.250000 -0.625000 0.000000 
vertex  1.875000 -0.625000 0.000000 
vertex  1.875000 -1.250000 0.000000 
endloop 
endfacet 
facet normal  0.000000 0.000000 -1.000000 
outer loop 
vertex  1.875000 1.250000 0.000000 
vertex  1.875000 0.625000 0.000000 
vertex  1.250000 0.625000 0.000000 
endloop 
endfacet 
facet normal  0.000000 0.000000 -1.000000 
outer loop 
vertex  1.250000 -0.625000 0.000000 
vertex  1.250000 0.000000 0.000000 
vertex  1.875000 -0.625000 0.000000 
endloop 
endfacet 
facet normal  0.000000 0.000000 -1.000000 
outer loop 
vertex  1.875000 0.625000 0.000000 
vertex  1.250000 -0.000000 0.000000 
vertex  1.250000 0.625000 0.000000 
endloop 
endfacet 
facet normal  0.000000 0.000000 -1.000000 
outer loop 
vertex  1.250000 -1.250000 0.000000 
vertex  0.625000 -1.250000 0.000000 
vertex  0.625000 -0.625000 0.000000 
endloop 
endfacet 
facet normal  0.000000 0.000000 -1.000000 
outer loop 
vertex  0.625000 0.625000 0.000000 
vertex  0.625000 1.250000 0.000000 
vertex  1.250000 1.250000 0.000000 
endloop 
endfacet 
facet normal  0.000000 0.000000 -1.000000 
outer loop 
vertex  0.000000 -1.875000 0.000000 
vertex  -0.625000 -1.250000 0.000000 
vertex  0.000000 -1.250000 0.000000 
endloop 
endfacet 
facet normal  0.000000 0.000000 -1.000000 
outer loop 
vertex  0.000000 1.250000 0.000000 
vertex  -0.625000 1.250000 0.000000 
vertex  0.000000 1.875000 0.000000 
endloop 
endfacet 
facet normal  0.000000 0.000000 -1.000000 
outer loop 
vertex  1.250000 -0.625000 0.000000 
vertex  0.625000 -0.625000 0.000000 
vertex  0.625000 0.000000 0.000000 
endloop 
endfacet 
facet normal  0.000000 0.000000 -1.000000 
outer loop 
vertex  0.625000 -0.000000 0.000000 
vertex  0.625000 0.625000 0.000000 
vertex  1.250000 0.625000 0.000000 
endloop 
endfacet 
facet normal  0.000000 0.000000 -1.000000 
outer loop 
vertex  0.625000 -0.625000 0.000000 
vertex  0.000000 0.000000 0.000000 
vertex  0.625000 0.000000 0.000000 
endloop 
endfacet 
facet normal  0.000000 0.000000 -1.000000 
outer loop 
vertex  0.625000 -0.000000 0.000000 
vertex  0.000000 -0.000000 0.000000 
vertex  0.625000 0.625000 0.000000 
endloop 
endfacet 
facet normal  0.000000 0.000000 -1.000000 
outer loop 
vertex  0.625000 -1.875000 0.000000 
vertex  0.000000 -1.875000 0.000000 
vertex  0.000000 -1.250000 0.000000 
endloop 
endfacet 
facet normal  0.000000 0.000000 -1.000000 
outer loop 
vertex  0.000000 1.250000 0.000000 
vertex  0.000000 1.875000 0.000000 
vertex  0.625000 1.875000 0.000000 
endloop 
endfacet 
facet normal  0.000000 0.000000 -1.000000 
outer loop 
vertex  0.000000 -3.125000 0.000000 
vertex  -0.625000 -3.125000 0.000000 
vertex  -0.625000 -2.500000 0.000000 
endloop 
endfacet 
facet normal  0.000000 0.000000 -1.000000 
outer loop 
vertex  -0.625000 2.500000 0.000000 
vertex  -0.625000 3.125000 0.000000 
vertex  0.000000 3.125000 0.000000 
endloop 
endfacet 
facet normal  0.000000 0.000000 -1.000000 
outer loop 
vertex  0.625000 -1.250000 0.000000 
vertex  0.000000 -1.250000 0.000000 
vertex  0.000000 -0.625000 0.000000 
endloop 
endfacet 
facet normal  0.000000 0.000000 -1.000000 
outer loop 
vertex  0.000000 0.625000 0.000000 
vertex  0.000000 1.250000 0.000000 
vertex  0.625000 1.250000 0.000000 
endloop 
endfacet 
facet normal  0.000000 0.000000 -1.000000 
outer loop 
vertex  0.000000 -1.250000 0.000000 
vertex  -0.625000 -0.625000 0.000000 
vertex  0.000000 -0.625000 0.000000 
endloop 
endfacet 
facet normal  0.000000 0.000000 -1.000000 
outer loop 
vertex  0.000000 0.625000 0.000000 
vertex  -0.625000 0.625000 0.000000 
vertex  0.000000 1.250000 0.000000 
endloop 
endfacet 
facet normal  0.000000 0.000000 -1.000000 
outer loop 
vertex  0.625000 -1.250000 0.000000 
vertex  0.625000 -1.875000 0.000000 
vertex  0.000000 -1.250000 0.000000 
endloop 
endfacet 
facet normal  0.000000 0.000000 -1.000000 
outer loop 
vertex  0.000000 1.250000 0.000000 
vertex  0.625000 1.875000 0.000000 
vertex  0.625000 1.250000 0.000000 
endloop 
endfacet 
facet normal  0.000000 0.000000 -1.000000 
outer loop 
vertex  -0.625000 -3.750000 0.000000 
vertex  -0.625000 -3.125000 0.000000 
vertex  0.000000 -3.750000 0.000000 
endloop 
endfacet 
facet normal  0.000000 0.000000 -1.000000 
outer loop 
vertex  0.000000 3.750000 0.000000 
vertex  -0.625000 3.125000 0.000000 
vertex  -0.625000 3.750000 0.000000 
endloop 
endfacet 
facet normal  0.000000 0.000000 -1.000000 
outer loop 
vertex  1.250000 -0.625000 0.000000 
vertex  1.250000 -1.250000 0.000000 
vertex  0.625000 -0.625000 0.000000 
endloop 
endfacet 
facet normal  0.000000 0.000000 -1.000000 
outer loop 
vertex  0.625000 0.625000 0.000000 
vertex  1.250000 1.250000 0.000000 
vertex  1.250000 0.625000 0.000000 
endloop 
endfacet 
facet normal  0.000000 0.000000 -1.000000 
outer loop 
vertex  1.250000 -1.250000 0.000000 
vertex  1.875000 -1.875000 0.000000 
vertex  1.250000 -1.875000 0.000000 
endloop 
endfacet 
facet normal  0.000000 0.000000 -1.000000 
outer loop 
vertex  1.250000 1.875000 0.000000 
vertex  1.875000 1.875000 0.000000 
vertex  1.250000 1.250000 0.000000 
endloop 
endfacet 
facet normal  0.000000 0.000000 -1.000000 
outer loop 
vertex  0.625000 -2.500000 0.000000 
vertex  0.000000 -2.500000 0.000000 
vertex  0.000000 -1.875000 0.000000 
endloop 
endfacet 
facet normal  0.000000 0.000000 -1.000000 
outer loop 
vertex  0.000000 1.875000 0.000000 
vertex  0.000000 2.500000 0.000000 
vertex  0.625000 2.500000 0.000000 
endloop 
endfacet 
facet normal  0.000000 0.000000 -1.000000 
outer loop 
vertex  0.000000 -2.500000 0.000000 
vertex  -0.625000 -1.875000 0.000000 
vertex  0.000000 -1.875000 0.000000 
endloop 
endfacet 
facet normal  0.000000 0.000000 -1.000000 
outer loop 
vertex  0.000000 1.875000 0.000000 
vertex  -0.625000 1.875000 0.000000 
vertex  0.000000 2.500000 0.000000 
endloop 
endfacet 
facet normal  0.000000 0.000000 -1.000000 
outer loop 
vertex  1.250000 -2.500000 0.000000 
vertex  0.625000 -2.500000 0.000000 
vertex  0.625000 -1.875000 0.000000 
endloop 
endfacet 
facet normal  0.000000 0.000000 -1.000000 
outer loop 
vertex  0.625000 1.875000 0.000000 
vertex  0.625000 2.500000 0.000000 
vertex  1.250000 2.500000 0.000000 
endloop 
endfacet 
facet normal  0.000000 0.000000 -1.000000 
outer loop 
vertex  0.625000 -3.125000 0.000000 
vertex  0.000000 -3.125000 0.000000 
vertex  0.000000 -2.500000 0.000000 
endloop 
endfacet 
facet normal  0.000000 0.000000 -1.000000 
outer loop 
vertex  0.000000 2.500000 0.000000 
vertex  0.000000 3.125000 0.000000 
vertex  0.625000 3.125000 0.000000 
endloop 
endfacet 
facet normal  0.000000 0.000000 -1.000000 
outer loop 
vertex  0.000000 -2.500000 0.000000 
vertex  -0.625000 -2.500000 0.000000 
vertex  -0.625000 -1.875000 0.000000 
endloop 
endfacet 
facet normal  0.000000 0.000000 -1.000000 
outer loop 
vertex  -0.625000 1.875000 0.000000 
vertex  -0.625000 2.500000 0.000000 
vertex  0.000000 2.500000 0.000000 
endloop 
endfacet 
facet normal  0.000000 0.000000 -1.000000 
outer loop 
vertex  -0.625000 -2.500000 0.000000 
vertex  -1.250000 -1.875000 0.000000 
vertex  -0.625000 -1.875000 0.000000 
endloop 
endfacet 
facet normal  0.000000 0.000000 -1.000000 
outer loop 
vertex  -0.625000 1.875000 0.000000 
vertex  -1.250000 1.875000 0.000000 
vertex  -0.625000 2.500000 0.000000 
endloop 
endfacet 
facet normal  0.000000 0.000000 -1.000000 
outer loop 
vertex  0.000000 -2.500000 0.000000 
vertex  0.000000 -3.125000 0.000000 
vertex  -0.625000 -2.500000 0.000000 
endloop 
endfacet 
facet normal  0.000000 0.000000 -1.000000 
outer loop 
vertex  -0.625000 2.500000 0.000000 
vertex  0.000000 3.125000 0.000000 
vertex  0.000000 2.500000 0.000000 
endloop 
endfacet 
facet normal  0.000000 0.000000 -1.000000 
outer loop 
vertex  0.625000 -3.750000 0.000000 
vertex  0.625000 -4.375000 0.000000 
vertex  0.000000 -3.750000 0.000000 
endloop 
endfacet 
facet normal  0.000000 0.000000 -1.000000 
outer loop 
vertex  0.000000 3.750000 0.000000 
vertex  0.625000 4.375000 0.000000 
vertex  0.625000 3.750000 0.000000 
endloop 
endfacet 
facet normal  0.000000 0.000000 -1.000000 
outer loop 
vertex  0.000000 -3.125000 0.000000 
vertex  0.000000 -3.750000 0.000000 
vertex  -0.625000 -3.125000 0.000000 
endloop 
endfacet 
facet normal  0.000000 0.000000 -1.000000 
outer loop 
vertex  -0.625000 3.125000 0.000000 
vertex  0.000000 3.750000 0.000000 
vertex  0.000000 3.125000 0.000000 
endloop 
endfacet 
facet normal  0.000000 0.000000 -1.000000 
outer loop 
vertex  0.000000 -3.750000 0.000000 
vertex  0.625000 -4.375000 0.000000 
vertex  0.000000 -4.375000 0.000000 
endloop 
endfacet 
facet normal  0.000000 0.000000 -1.000000 
outer loop 
vertex  0.000000 4.375000 0.000000 
vertex  0.625000 4.375000 0.000000 
vertex  0.000000 3.750000 0.000000 
endloop 
endfacet 
facet normal  0.000000 0.000000 -1.000000 
outer loop 
vertex  1.250000 -4.375000 0.000000 
vertex  0.625000 -3.750000 0.000000 
vertex  1.250000 -3.750000 0.000000 
endloop 
endfacet 
facet normal  0.000000 0.000000 -1.000000 
outer loop 
vertex  1.250000 3.750000 0.000000 
vertex  0.625000 3.750000 0.000000 
vertex  1.250000 4.375000 0.000000 
endloop 
endfacet 
facet normal  0.000000 0.000000 -1.000000 
outer loop 
vertex  0.625000 -3.750000 0.000000 
vertex  0.000000 -3.125000 0.000000 
vertex  0.625000 -3.125000 0.000000 
endloop 
endfacet 
facet normal  0.000000 0.000000 -1.000000 
outer loop 
vertex  0.625000 3.125000 0.000000 
vertex  0.000000 3.125000 0.000000 
vertex  0.625000 3.750000 0.000000 
endloop 
endfacet 
facet normal  0.000000 0.000000 -1.000000 
outer loop 
vertex  0.625000 -3.750000 0.000000 
vertex  0.625000 -3.125000 0.000000 
vertex  1.250000 -3.750000 0.000000 
endloop 
endfacet 
facet normal  0.000000 0.000000 -1.000000 
outer loop 
vertex  1.250000 3.750000 0.000000 
vertex  0.625000 3.125000 0.000000 
vertex  0.625000 3.750000 0.000000 
endloop 
endfacet 
facet normal  0.000000 0.000000 -1.000000 
outer loop 
vertex  0.625000 -3.125000 0.000000 
vertex  0.000000 -2.500000 0.000000 
vertex  0.625000 -2.500000 0.000000 
endloop 
endfacet 
facet normal  0.000000 0.000000 -1.000000 
outer loop 
vertex  0.625000 2.500000 0.000000 
vertex  0.000000 2.500000 0.000000 
vertex  0.625000 3.125000 0.000000 
endloop 
endfacet 
facet normal  0.000000 0.000000 -1.000000 
outer loop 
vertex  1.875000 -3.750000 0.000000 
vertex  1.250000 -3.125000 0.000000 
vertex  1.875000 -3.125000 0.000000 
endloop 
endfacet 
facet normal  0.000000 0.000000 -1.000000 
outer loop 
vertex  1.875000 3.125000 0.000000 
vertex  1.250000 3.125000 0.000000 
vertex  1.875000 3.750000 0.000000 
endloop 
endfacet 
facet normal  0.000000 0.000000 -1.000000 
outer loop 
vertex  0.625000 -1.875000 0.000000 
vertex  1.250000 -1.875000 0.000000 
vertex  1.250000 -2.500000 0.000000 
endloop 
endfacet 
facet normal  0.000000 0.000000 -1.000000 
outer loop 
vertex  1.250000 2.500000 0.000000 
vertex  1.250000 1.875000 0.000000 
vertex  0.625000 1.875000 0.000000 
endloop 
endfacet 
facet normal  0.000000 0.000000 -1.000000 
outer loop 
vertex  0.625000 -3.125000 0.000000 
vertex  1.250000 -3.125000 0.000000 
vertex  1.250000 -3.750000 0.000000 
endloop 
endfacet 
facet normal  0.000000 0.000000 -1.000000 
outer loop 
vertex  1.250000 3.750000 0.000000 
vertex  1.250000 3.125000 0.000000 
vertex  0.625000 3.125000 0.000000 
endloop 
endfacet 
facet normal  0.000000 0.000000 -1.000000 
outer loop 
vertex  1.875000 -4.375000 0.000000 
vertex  1.250000 -3.750000 0.000000 
vertex  1.875000 -3.750000 0.000000 
endloop 
endfacet 
facet normal  0.000000 0.000000 -1.000000 
outer loop 
vertex  1.875000 3.750000 0.000000 
vertex  1.250000 3.750000 0.000000 
vertex  1.875000 4.375000 0.000000 
endloop 
endfacet 
facet normal  0.000000 0.000000 -1.000000 
outer loop 
vertex  1.250000 -4.375000 0.000000 
vertex  1.250000 -3.750000 0.000000 
vertex  1.875000 -4.375000 0.000000 
endloop 
endfacet 
facet normal  0.000000 0.000000 -1.000000 
outer loop 
vertex  1.875000 4.375000 0.000000 
vertex  1.250000 3.750000 0.000000 
vertex  1.250000 4.375000 0.000000 
endloop 
endfacet 
facet normal  0.000000 0.000000 -1.000000 
outer loop 
vertex  1.250000 -3.750000 0.000000 
vertex  1.250000 -3.125000 0.000000 
vertex  1.875000 -3.750000 0.000000 
endloop 
endfacet 
facet normal  0.000000 0.000000 -1.000000 
outer loop 
vertex  1.875000 3.750000 0.000000 
vertex  1.250000 3.125000 0.000000 
vertex  1.250000 3.750000 0.000000 
endloop 
endfacet 
facet normal  0.000000 0.000000 -1.000000 
outer loop 
vertex  1.250000 -3.125000 0.000000 
vertex  1.250000 -2.500000 0.000000 
vertex  1.875000 -3.125000 0.000000 
endloop 
endfacet 
facet normal  0.000000 0.000000 -1.000000 
outer loop 
vertex  1.875000 3.125000 0.000000 
vertex  1.250000 2.500000 0.000000 
vertex  1.250000 3.125000 0.000000 
endloop 
endfacet 
facet normal  0.000000 0.000000 -1.000000 
outer loop 
vertex  1.250000 -2.500000 0.000000 
vertex  1.250000 -1.875000 0.000000 
vertex  1.875000 -2.500000 0.000000 
endloop 
endfacet 
facet normal  0.000000 0.000000 -1.000000 
outer loop 
vertex  1.875000 2.500000 0.000000 
vertex  1.250000 1.875000 0.000000 
vertex  1.250000 2.500000 0.000000 
endloop 
endfacet 
facet normal  0.000000 0.000000 -1.000000 
outer loop 
vertex  2.500000 -2.500000 0.000000 
vertex  2.500000 -3.125000 0.000000 
vertex  1.875000 -2.500000 0.000000 
endloop 
endfacet 
facet normal  0.000000 0.000000 -1.000000 
outer loop 
vertex  1.875000 2.500000 0.000000 
vertex  2.500000 3.125000 0.000000 
vertex  2.500000 2.500000 0.000000 
endloop 
endfacet 
facet normal  0.000000 0.000000 -1.000000 
outer loop 
vertex  3.125000 -3.125000 0.000000 
vertex  2.500000 -2.500000 0.000000 
vertex  3.125000 -2.500000 0.000000 
endloop 
endfacet 
facet normal  0.000000 0.000000 -1.000000 
outer loop 
vertex  3.125000 2.500000 0.000000 
vertex  2.500000 2.500000 0.000000 
vertex  3.125000 3.125000 0.000000 
endloop 
endfacet 
facet normal  0.000000 0.000000 -1.000000 
outer loop 
vertex  1.875000 -3.750000 0.000000 
vertex  1.875000 -3.125000 0.000000 
vertex  2.500000 -3.750000 0.000000 
endloop 
endfacet 
facet normal  0.000000 0.000000 -1.000000 
outer loop 
vertex  2.500000 3.750000 0.000000 
vertex  1.875000 3.125000 0.000000 
vertex  1.875000 3.750000 0.000000 
endloop 
endfacet 
facet normal  0.000000 0.000000 -1.000000 
outer loop 
vertex  1.875000 -3.125000 0.000000 
vertex  1.875000 -2.500000 0.000000 
vertex  2.500000 -3.125000 0.000000 
endloop 
endfacet 
facet normal  0.000000 0.000000 -1.000000 
outer loop 
vertex  2.500000 3.125000 0.000000 
vertex  1.875000 2.500000 0.000000 
vertex  1.875000 3.125000 0.000000 
endloop 
endfacet 
endsolid Cuerno_17_Bendfacet 
