solid Cuerno_9_A 
facet normal  -0.439739 -0.260481 0.859523 
outer loop 
vertex  -2.500000 -2.500000 0.293423 
vertex  -2.500000 -1.250000 0.672239 
vertex  -3.750000 -1.250000 0.032729 
endloop 
endfacet 
facet normal  -0.439739 0.260481 0.859523 
outer loop 
vertex  -3.750000 1.250000 0.032729 
vertex  -2.500000 1.250000 0.672239 
vertex  -2.500000 2.500000 0.293423 
endloop 
endfacet 
facet normal  -0.132794 -0.106994 0.985352 
outer loop 
vertex  -3.750000 -1.250000 0.032729 
vertex  -3.750000 0.000000 0.168460 
vertex  -5.000000 0.000000 0.000000 
endloop 
endfacet 
facet normal  -0.132794 0.106994 0.985352 
outer loop 
vertex  -5.000000 -0.000000 0.000000 
vertex  -3.750000 -0.000000 0.168460 
vertex  -3.750000 1.250000 0.032729 
endloop 
endfacet 
facet normal  -0.209201 -0.094864 0.973260 
outer loop 
vertex  -2.500000 0.000000 0.794077 
vertex  -2.500000 -1.250000 0.672239 
vertex  -1.250000 -1.250000 0.940925 
endloop 
endfacet 
facet normal  -0.209201 0.094864 0.973260 
outer loop 
vertex  -1.250000 1.250000 0.940925 
vertex  -2.500000 1.250000 0.672239 
vertex  -2.500000 -0.000000 0.794077 
endloop 
endfacet 
facet normal  -0.235279 -0.419712 0.876633 
outer loop 
vertex  -2.500000 -2.500000 0.293423 
vertex  -1.250000 -3.750000 0.030437 
vertex  -1.250000 -2.500000 0.628909 
endloop 
endfacet 
facet normal  -0.235279 0.419712 0.876633 
outer loop 
vertex  -1.250000 2.500000 0.628909 
vertex  -1.250000 3.750000 0.030437 
vertex  -2.500000 2.500000 0.293423 
endloop 
endfacet 
facet normal  0.111629 -0.132217 0.984915 
outer loop 
vertex  -1.250000 -1.250000 0.940925 
vertex  0.000000 -2.500000 0.631449 
vertex  0.000000 -1.250000 0.799252 
endloop 
endfacet 
facet normal  0.111629 0.132217 0.984915 
outer loop 
vertex  0.000000 1.250000 0.799252 
vertex  0.000000 2.500000 0.631449 
vertex  -1.250000 1.250000 0.940925 
endloop 
endfacet 
facet normal  0.439800 0.122926 0.889644 
outer loop 
vertex  1.250000 -1.250000 0.181308 
vertex  0.000000 -1.250000 0.799252 
vertex  1.250000 -2.500000 0.354026 
endloop 
endfacet 
facet normal  0.439800 -0.122926 0.889644 
outer loop 
vertex  1.250000 2.500000 0.354026 
vertex  0.000000 1.250000 0.799252 
vertex  1.250000 1.250000 0.181308 
endloop 
endfacet 
facet normal  0.000000 -0.019120 0.999817 
outer loop 
vertex  1.250000 -3.750000 0.023905 
vertex  1.250000 -5.000000 0.000000 
vertex  2.500000 -5.000000 0.000000 
endloop 
endfacet 
facet normal  0.000000 0.019120 0.999817 
outer loop 
vertex  2.500000 5.000000 0.000000 
vertex  1.250000 5.000000 0.000000 
vertex  1.250000 3.750000 0.023905 
endloop 
endfacet 
facet normal  0.214830 -0.129942 0.967969 
outer loop 
vertex  0.000000 -1.250000 0.799252 
vertex  0.000000 -2.500000 0.631449 
vertex  1.250000 -2.500000 0.354026 
endloop 
endfacet 
facet normal  0.214830 0.129942 0.967969 
outer loop 
vertex  1.250000 2.500000 0.354026 
vertex  0.000000 2.500000 0.631449 
vertex  0.000000 1.250000 0.799252 
endloop 
endfacet 
facet normal  -0.187312 -0.072226 0.979642 
outer loop 
vertex  -2.500000 0.000000 0.794077 
vertex  -1.250000 -1.250000 0.940925 
vertex  -1.250000 0.000000 1.033083 
endloop 
endfacet 
facet normal  -0.187312 0.072226 0.979642 
outer loop 
vertex  -1.250000 -0.000000 1.033083 
vertex  -1.250000 1.250000 0.940925 
vertex  -2.500000 -0.000000 0.794077 
endloop 
endfacet 
facet normal  -0.089284 -0.113378 0.989532 
outer loop 
vertex  0.000000 -3.750000 0.143222 
vertex  -1.250000 -3.750000 0.030437 
vertex  0.000000 -5.000000 0.000000 
endloop 
endfacet 
facet normal  -0.089284 0.113378 0.989532 
outer loop 
vertex  0.000000 5.000000 0.000000 
vertex  -1.250000 3.750000 0.030437 
vertex  0.000000 3.750000 0.143222 
endloop 
endfacet 
facet normal  -0.024335 -0.024335 0.999408 
outer loop 
vertex  -1.250000 -3.750000 0.030437 
vertex  -2.500000 -3.750000 0.000000 
vertex  -1.250000 -5.000000 0.000000 
endloop 
endfacet 
facet normal  -0.024335 0.024335 0.999408 
outer loop 
vertex  -1.250000 5.000000 0.000000 
vertex  -2.500000 3.750000 0.000000 
vertex  -1.250000 3.750000 0.030437 
endloop 
endfacet 
facet normal  0.000000 -0.024342 0.999704 
outer loop 
vertex  0.000000 -5.000000 0.000000 
vertex  -1.250000 -3.750000 0.030437 
vertex  -1.250000 -5.000000 0.000000 
endloop 
endfacet 
facet normal  0.000000 0.024342 0.999704 
outer loop 
vertex  -1.250000 5.000000 0.000000 
vertex  -1.250000 3.750000 0.030437 
vertex  0.000000 5.000000 0.000000 
endloop 
endfacet 
facet normal  -0.204157 -0.237081 0.949796 
outer loop 
vertex  -1.250000 -2.500000 0.628909 
vertex  -1.250000 -1.250000 0.940925 
vertex  -2.500000 -1.250000 0.672239 
endloop 
endfacet 
facet normal  -0.204157 0.237081 0.949796 
outer loop 
vertex  -2.500000 1.250000 0.672239 
vertex  -1.250000 1.250000 0.940925 
vertex  -1.250000 2.500000 0.628909 
endloop 
endfacet 
facet normal  -0.001893 -0.363815 0.931469 
outer loop 
vertex  0.000000 -3.750000 0.143222 
vertex  0.000000 -2.500000 0.631449 
vertex  -1.250000 -2.500000 0.628909 
endloop 
endfacet 
facet normal  -0.001893 0.363815 0.931469 
outer loop 
vertex  -1.250000 2.500000 0.628909 
vertex  0.000000 2.500000 0.631449 
vertex  0.000000 3.750000 0.143222 
endloop 
endfacet 
facet normal  -0.222783 -0.222783 0.949071 
outer loop 
vertex  -2.500000 -3.750000 0.000000 
vertex  -2.500000 -2.500000 0.293423 
vertex  -3.750000 -2.500000 0.000000 
endloop 
endfacet 
facet normal  -0.222783 0.222783 0.949071 
outer loop 
vertex  -3.750000 2.500000 0.000000 
vertex  -2.500000 2.500000 0.293423 
vertex  -2.500000 3.750000 0.000000 
endloop 
endfacet 
facet normal  -0.023699 -0.228462 0.973264 
outer loop 
vertex  -2.500000 -3.750000 0.000000 
vertex  -1.250000 -3.750000 0.030437 
vertex  -2.500000 -2.500000 0.293423 
endloop 
endfacet 
facet normal  -0.023699 0.228462 0.973264 
outer loop 
vertex  -2.500000 2.500000 0.293423 
vertex  -1.250000 3.750000 0.030437 
vertex  -2.500000 3.750000 0.000000 
endloop 
endfacet 
facet normal  -0.248778 -0.280909 0.926930 
outer loop 
vertex  -2.500000 -2.500000 0.293423 
vertex  -1.250000 -2.500000 0.628909 
vertex  -2.500000 -1.250000 0.672239 
endloop 
endfacet 
facet normal  -0.248778 0.280909 0.926930 
outer loop 
vertex  -2.500000 1.250000 0.672239 
vertex  -1.250000 2.500000 0.628909 
vertex  -2.500000 2.500000 0.293423 
endloop 
endfacet 
facet normal  -0.081113 -0.430412 0.898981 
outer loop 
vertex  0.000000 -3.750000 0.143222 
vertex  -1.250000 -2.500000 0.628909 
vertex  -1.250000 -3.750000 0.030437 
endloop 
endfacet 
facet normal  -0.081113 0.430412 0.898981 
outer loop 
vertex  -1.250000 3.750000 0.030437 
vertex  -1.250000 2.500000 0.628909 
vertex  0.000000 3.750000 0.143222 
endloop 
endfacet 
facet normal  -0.001972 -0.242182 0.970229 
outer loop 
vertex  0.000000 -2.500000 0.631449 
vertex  -1.250000 -1.250000 0.940925 
vertex  -1.250000 -2.500000 0.628909 
endloop 
endfacet 
facet normal  -0.001972 0.242182 0.970229 
outer loop 
vertex  -1.250000 2.500000 0.628909 
vertex  -1.250000 1.250000 0.940925 
vertex  0.000000 2.500000 0.631449 
endloop 
endfacet 
facet normal  -0.026165 -0.026165 0.999315 
outer loop 
vertex  -3.750000 -2.500000 0.000000 
vertex  -3.750000 -1.250000 0.032729 
vertex  -5.000000 -1.250000 0.000000 
endloop 
endfacet 
facet normal  -0.026165 0.026165 0.999315 
outer loop 
vertex  -5.000000 1.250000 0.000000 
vertex  -3.750000 1.250000 0.032729 
vertex  -3.750000 2.500000 0.000000 
endloop 
endfacet 
facet normal  -0.228452 -0.025482 0.973222 
outer loop 
vertex  -3.750000 -2.500000 0.000000 
vertex  -2.500000 -2.500000 0.293423 
vertex  -3.750000 -1.250000 0.032729 
endloop 
endfacet 
facet normal  -0.228452 0.025482 0.973222 
outer loop 
vertex  -3.750000 1.250000 0.032729 
vertex  -2.500000 2.500000 0.293423 
vertex  -3.750000 2.500000 0.000000 
endloop 
endfacet 
facet normal  -0.453349 -0.096219 0.886125 
outer loop 
vertex  -3.750000 -1.250000 0.032729 
vertex  -2.500000 -1.250000 0.672239 
vertex  -3.750000 0.000000 0.168460 
endloop 
endfacet 
facet normal  -0.453349 0.096219 0.886125 
outer loop 
vertex  -3.750000 -0.000000 0.168460 
vertex  -2.500000 1.250000 0.672239 
vertex  -3.750000 1.250000 0.032729 
endloop 
endfacet 
facet normal  -0.026174 0.000000 0.999657 
outer loop 
vertex  -5.000000 -1.250000 0.000000 
vertex  -3.750000 -1.250000 0.032729 
vertex  -5.000000 0.000000 0.000000 
endloop 
endfacet 
facet normal  -0.026174 -0.000000 0.999657 
outer loop 
vertex  -5.000000 -0.000000 0.000000 
vertex  -3.750000 1.250000 0.032729 
vertex  -5.000000 1.250000 0.000000 
endloop 
endfacet 
facet normal  -0.445876 -0.086833 0.890873 
outer loop 
vertex  -3.750000 0.000000 0.168460 
vertex  -2.500000 -1.250000 0.672239 
vertex  -2.500000 0.000000 0.794077 
endloop 
endfacet 
facet normal  -0.445876 0.086833 0.890873 
outer loop 
vertex  -2.500000 -0.000000 0.794077 
vertex  -2.500000 1.250000 0.672239 
vertex  -3.750000 -0.000000 0.168460 
endloop 
endfacet 
facet normal  0.112316 -0.073062 0.990983 
outer loop 
vertex  0.000000 -1.250000 0.799252 
vertex  -1.250000 0.000000 1.033083 
vertex  -1.250000 -1.250000 0.940925 
endloop 
endfacet 
facet normal  0.112316 0.073062 0.990983 
outer loop 
vertex  -1.250000 1.250000 0.940925 
vertex  -1.250000 -0.000000 1.033083 
vertex  0.000000 1.250000 0.799252 
endloop 
endfacet 
facet normal  0.252919 -0.021029 0.967259 
outer loop 
vertex  2.500000 -2.500000 0.027176 
vertex  1.250000 -2.500000 0.354026 
vertex  2.500000 -3.750000 0.000000 
endloop 
endfacet 
facet normal  0.252919 0.021029 0.967259 
outer loop 
vertex  2.500000 3.750000 0.000000 
vertex  1.250000 2.500000 0.354026 
vertex  2.500000 2.500000 0.027176 
endloop 
endfacet 
facet normal  0.443129 -0.012010 0.896378 
outer loop 
vertex  0.000000 0.000000 0.816000 
vertex  0.000000 -1.250000 0.799252 
vertex  1.250000 -1.250000 0.181308 
endloop 
endfacet 
facet normal  0.443129 0.012010 0.896378 
outer loop 
vertex  1.250000 1.250000 0.181308 
vertex  0.000000 1.250000 0.799252 
vertex  0.000000 -0.000000 0.816000 
endloop 
endfacet 
facet normal  0.171091 -0.013200 0.985167 
outer loop 
vertex  0.000000 0.000000 0.816000 
vertex  -1.250000 0.000000 1.033083 
vertex  0.000000 -1.250000 0.799252 
endloop 
endfacet 
facet normal  0.171091 0.013200 0.985167 
outer loop 
vertex  0.000000 1.250000 0.799252 
vertex  -1.250000 -0.000000 1.033083 
vertex  0.000000 -0.000000 0.816000 
endloop 
endfacet 
facet normal  0.250744 0.132501 0.958943 
outer loop 
vertex  1.250000 -1.250000 0.181308 
vertex  1.250000 -2.500000 0.354026 
vertex  2.500000 -2.500000 0.027176 
endloop 
endfacet 
facet normal  0.250744 -0.132501 0.958943 
outer loop 
vertex  2.500000 2.500000 0.027176 
vertex  1.250000 2.500000 0.354026 
vertex  1.250000 1.250000 0.181308 
endloop 
endfacet 
facet normal  0.088563 -0.362386 0.927811 
outer loop 
vertex  0.000000 -2.500000 0.631449 
vertex  0.000000 -3.750000 0.143222 
vertex  1.250000 -3.750000 0.023905 
endloop 
endfacet 
facet normal  0.088563 0.362386 0.927811 
outer loop 
vertex  1.250000 3.750000 0.023905 
vertex  0.000000 3.750000 0.143222 
vertex  0.000000 2.500000 0.631449 
endloop 
endfacet 
facet normal  0.142088 0.142088 0.979603 
outer loop 
vertex  1.250000 0.000000 0.000000 
vertex  1.250000 -1.250000 0.181308 
vertex  2.500000 -1.250000 0.000000 
endloop 
endfacet 
facet normal  0.142088 -0.142088 0.979603 
outer loop 
vertex  2.500000 1.250000 0.000000 
vertex  1.250000 1.250000 0.181308 
vertex  1.250000 -0.000000 0.000000 
endloop 
endfacet 
facet normal  0.542648 0.120572 0.831262 
outer loop 
vertex  1.250000 0.000000 0.000000 
vertex  0.000000 0.000000 0.816000 
vertex  1.250000 -1.250000 0.181308 
endloop 
endfacet 
facet normal  0.542648 -0.120572 0.831262 
outer loop 
vertex  1.250000 1.250000 0.181308 
vertex  0.000000 -0.000000 0.816000 
vertex  1.250000 -0.000000 0.000000 
endloop 
endfacet 
facet normal  0.000000 -0.113833 0.993500 
outer loop 
vertex  1.250000 -5.000000 0.000000 
vertex  0.000000 -3.750000 0.143222 
vertex  0.000000 -5.000000 0.000000 
endloop 
endfacet 
facet normal  0.000000 0.113833 0.993500 
outer loop 
vertex  0.000000 5.000000 0.000000 
vertex  0.000000 3.750000 0.143222 
vertex  1.250000 5.000000 0.000000 
endloop 
endfacet 
facet normal  0.095005 -0.019034 0.995295 
outer loop 
vertex  1.250000 -5.000000 0.000000 
vertex  1.250000 -3.750000 0.023905 
vertex  0.000000 -3.750000 0.143222 
endloop 
endfacet 
facet normal  0.095005 0.019034 0.995295 
outer loop 
vertex  0.000000 3.750000 0.143222 
vertex  1.250000 3.750000 0.023905 
vertex  1.250000 5.000000 0.000000 
endloop 
endfacet 
facet normal  0.018487 -0.255299 0.966685 
outer loop 
vertex  1.250000 -2.500000 0.354026 
vertex  1.250000 -3.750000 0.023905 
vertex  2.500000 -3.750000 0.000000 
endloop 
endfacet 
facet normal  0.018487 0.255299 0.966685 
outer loop 
vertex  2.500000 3.750000 0.000000 
vertex  1.250000 3.750000 0.023905 
vertex  1.250000 2.500000 0.354026 
endloop 
endfacet 
facet normal  0.209806 -0.249659 0.945332 
outer loop 
vertex  1.250000 -2.500000 0.354026 
vertex  0.000000 -2.500000 0.631449 
vertex  1.250000 -3.750000 0.023905 
endloop 
endfacet 
facet normal  0.209806 0.249659 0.945332 
outer loop 
vertex  1.250000 3.750000 0.023905 
vertex  0.000000 2.500000 0.631449 
vertex  1.250000 2.500000 0.354026 
endloop 
endfacet 
facet normal  0.000000 -0.021736 0.999764 
outer loop 
vertex  2.500000 -2.500000 0.027176 
vertex  2.500000 -3.750000 0.000000 
vertex  3.750000 -3.750000 0.000000 
endloop 
endfacet 
facet normal  0.000000 0.021736 0.999764 
outer loop 
vertex  3.750000 3.750000 0.000000 
vertex  2.500000 3.750000 0.000000 
vertex  2.500000 2.500000 0.027176 
endloop 
endfacet 
facet normal  0.019120 0.000000 0.999817 
outer loop 
vertex  1.250000 -3.750000 0.023905 
vertex  2.500000 -5.000000 0.000000 
vertex  2.500000 -3.750000 0.000000 
endloop 
endfacet 
facet normal  0.019120 -0.000000 0.999817 
outer loop 
vertex  2.500000 3.750000 0.000000 
vertex  2.500000 5.000000 0.000000 
vertex  1.250000 3.750000 0.023905 
endloop 
endfacet 
facet normal  0.021731 0.021731 0.999528 
outer loop 
vertex  2.500000 -1.250000 0.000000 
vertex  2.500000 -2.500000 0.027176 
vertex  3.750000 -2.500000 0.000000 
endloop 
endfacet 
facet normal  0.021731 -0.021731 0.999528 
outer loop 
vertex  3.750000 2.500000 0.000000 
vertex  2.500000 2.500000 0.027176 
vertex  2.500000 1.250000 0.000000 
endloop 
endfacet 
facet normal  0.143511 0.021511 0.989415 
outer loop 
vertex  2.500000 -1.250000 0.000000 
vertex  1.250000 -1.250000 0.181308 
vertex  2.500000 -2.500000 0.027176 
endloop 
endfacet 
facet normal  0.143511 -0.021511 0.989415 
outer loop 
vertex  2.500000 2.500000 0.027176 
vertex  1.250000 1.250000 0.181308 
vertex  2.500000 1.250000 0.000000 
endloop 
endfacet 
facet normal  0.021736 0.000000 0.999764 
outer loop 
vertex  2.500000 -2.500000 0.027176 
vertex  3.750000 -3.750000 0.000000 
vertex  3.750000 -2.500000 0.000000 
endloop 
endfacet 
facet normal  0.021736 -0.000000 0.999764 
outer loop 
vertex  3.750000 2.500000 0.000000 
vertex  3.750000 3.750000 0.000000 
vertex  2.500000 2.500000 0.027176 
endloop 
endfacet 
endsolid Cuerno_9_Aendfacet 
