solid Cuerno_11_B 
facet normal  0.000000 0.000000 -1.000000 
outer loop 
vertex  -2.000000 -1.000000 0.000000 
vertex  -1.000000 -1.000000 0.000000 
vertex  -1.000000 -2.000000 0.000000 
endloop 
endfacet 
facet normal  0.000000 0.000000 -1.000000 
outer loop 
vertex  -1.000000 2.000000 0.000000 
vertex  -1.000000 1.000000 0.000000 
vertex  -2.000000 1.000000 0.000000 
endloop 
endfacet 
facet normal  0.000000 0.000000 -1.000000 
outer loop 
vertex  0.000000 -2.000000 0.000000 
vertex  0.000000 -3.000000 0.000000 
vertex  -1.000000 -2.000000 0.000000 
endloop 
endfacet 
facet normal  0.000000 0.000000 -1.000000 
outer loop 
vertex  -1.000000 2.000000 0.000000 
vertex  0.000000 3.000000 0.000000 
vertex  0.000000 2.000000 0.000000 
endloop 
endfacet 
facet normal  0.000000 0.000000 -1.000000 
outer loop 
vertex  -3.000000 -2.000000 0.000000 
vertex  -2.000000 -3.000000 0.000000 
vertex  -3.000000 -3.000000 0.000000 
endloop 
endfacet 
facet normal  0.000000 0.000000 -1.000000 
outer loop 
vertex  -3.000000 3.000000 0.000000 
vertex  -2.000000 3.000000 0.000000 
vertex  -3.000000 2.000000 0.000000 
endloop 
endfacet 
facet normal  0.000000 0.000000 -1.000000 
outer loop 
vertex  -1.000000 -3.000000 0.000000 
vertex  0.000000 -3.000000 0.000000 
vertex  0.000000 -4.000000 0.000000 
endloop 
endfacet 
facet normal  0.000000 0.000000 -1.000000 
outer loop 
vertex  0.000000 4.000000 0.000000 
vertex  0.000000 3.000000 0.000000 
vertex  -1.000000 3.000000 0.000000 
endloop 
endfacet 
facet normal  0.000000 0.000000 -1.000000 
outer loop 
vertex  0.000000 -3.000000 0.000000 
vertex  -1.000000 -3.000000 0.000000 
vertex  -1.000000 -2.000000 0.000000 
endloop 
endfacet 
facet normal  0.000000 0.000000 -1.000000 
outer loop 
vertex  -1.000000 2.000000 0.000000 
vertex  -1.000000 3.000000 0.000000 
vertex  0.000000 3.000000 0.000000 
endloop 
endfacet 
facet normal  0.000000 0.000000 -1.000000 
outer loop 
vertex  -2.000000 -4.000000 0.000000 
vertex  -3.000000 -3.000000 0.000000 
vertex  -2.000000 -3.000000 0.000000 
endloop 
endfacet 
facet normal  0.000000 0.000000 -1.000000 
outer loop 
vertex  -2.000000 3.000000 0.000000 
vertex  -3.000000 3.000000 0.000000 
vertex  -2.000000 4.000000 0.000000 
endloop 
endfacet 
facet normal  0.000000 0.000000 -1.000000 
outer loop 
vertex  -2.000000 -3.000000 0.000000 
vertex  -3.000000 -2.000000 0.000000 
vertex  -2.000000 -2.000000 0.000000 
endloop 
endfacet 
facet normal  0.000000 0.000000 -1.000000 
outer loop 
vertex  -2.000000 2.000000 0.000000 
vertex  -3.000000 2.000000 0.000000 
vertex  -2.000000 3.000000 0.000000 
endloop 
endfacet 
facet normal  0.000000 0.000000 -1.000000 
outer loop 
vertex  -3.000000 -2.000000 0.000000 
vertex  -4.000000 -1.000000 0.000000 
vertex  -3.000000 -1.000000 0.000000 
endloop 
endfacet 
facet normal  0.000000 0.000000 -1.000000 
outer loop 
vertex  -3.000000 1.000000 0.000000 
vertex  -4.000000 1.000000 0.000000 
vertex  -3.000000 2.000000 0.000000 
endloop 
endfacet 
facet normal  0.000000 0.000000 -1.000000 
outer loop 
vertex  2.000000 -3.000000 0.000000 
vertex  2.000000 -4.000000 0.000000 
vertex  1.000000 -3.000000 0.000000 
endloop 
endfacet 
facet normal  0.000000 0.000000 -1.000000 
outer loop 
vertex  1.000000 3.000000 0.000000 
vertex  2.000000 4.000000 0.000000 
vertex  2.000000 3.000000 0.000000 
endloop 
endfacet 
facet normal  0.000000 0.000000 -1.000000 
outer loop 
vertex  0.000000 -1.000000 0.000000 
vertex  1.000000 -1.000000 0.000000 
vertex  1.000000 -2.000000 0.000000 
endloop 
endfacet 
facet normal  0.000000 0.000000 -1.000000 
outer loop 
vertex  1.000000 2.000000 0.000000 
vertex  1.000000 1.000000 0.000000 
vertex  0.000000 1.000000 0.000000 
endloop 
endfacet 
facet normal  0.000000 0.000000 -1.000000 
outer loop 
vertex  3.000000 -4.000000 0.000000 
vertex  2.000000 -4.000000 0.000000 
vertex  2.000000 -3.000000 0.000000 
endloop 
endfacet 
facet normal  0.000000 0.000000 -1.000000 
outer loop 
vertex  2.000000 3.000000 0.000000 
vertex  2.000000 4.000000 0.000000 
vertex  3.000000 4.000000 0.000000 
endloop 
endfacet 
facet normal  0.000000 0.000000 -1.000000 
outer loop 
vertex  -1.000000 -3.000000 0.000000 
vertex  0.000000 -4.000000 0.000000 
vertex  -1.000000 -4.000000 0.000000 
endloop 
endfacet 
facet normal  0.000000 0.000000 -1.000000 
outer loop 
vertex  -1.000000 4.000000 0.000000 
vertex  0.000000 4.000000 0.000000 
vertex  -1.000000 3.000000 0.000000 
endloop 
endfacet 
facet normal  0.000000 0.000000 -1.000000 
outer loop 
vertex  -3.000000 -2.000000 0.000000 
vertex  -3.000000 -3.000000 0.000000 
vertex  -4.000000 -2.000000 0.000000 
endloop 
endfacet 
facet normal  0.000000 0.000000 -1.000000 
outer loop 
vertex  -4.000000 2.000000 0.000000 
vertex  -3.000000 3.000000 0.000000 
vertex  -3.000000 2.000000 0.000000 
endloop 
endfacet 
facet normal  0.000000 0.000000 -1.000000 
outer loop 
vertex  -1.000000 -4.000000 0.000000 
vertex  -2.000000 -4.000000 0.000000 
vertex  -2.000000 -3.000000 0.000000 
endloop 
endfacet 
facet normal  0.000000 0.000000 -1.000000 
outer loop 
vertex  -2.000000 3.000000 0.000000 
vertex  -2.000000 4.000000 0.000000 
vertex  -1.000000 4.000000 0.000000 
endloop 
endfacet 
facet normal  0.000000 0.000000 -1.000000 
outer loop 
vertex  -2.000000 -3.000000 0.000000 
vertex  -2.000000 -2.000000 0.000000 
vertex  -1.000000 -3.000000 0.000000 
endloop 
endfacet 
facet normal  0.000000 0.000000 -1.000000 
outer loop 
vertex  -1.000000 3.000000 0.000000 
vertex  -2.000000 2.000000 0.000000 
vertex  -2.000000 3.000000 0.000000 
endloop 
endfacet 
facet normal  0.000000 0.000000 -1.000000 
outer loop 
vertex  -2.000000 -2.000000 0.000000 
vertex  -3.000000 -1.000000 0.000000 
vertex  -2.000000 -1.000000 0.000000 
endloop 
endfacet 
facet normal  0.000000 0.000000 -1.000000 
outer loop 
vertex  -2.000000 1.000000 0.000000 
vertex  -3.000000 1.000000 0.000000 
vertex  -2.000000 2.000000 0.000000 
endloop 
endfacet 
facet normal  0.000000 0.000000 -1.000000 
outer loop 
vertex  -1.000000 -3.000000 0.000000 
vertex  -1.000000 -4.000000 0.000000 
vertex  -2.000000 -3.000000 0.000000 
endloop 
endfacet 
facet normal  0.000000 0.000000 -1.000000 
outer loop 
vertex  -2.000000 3.000000 0.000000 
vertex  -1.000000 4.000000 0.000000 
vertex  -1.000000 3.000000 0.000000 
endloop 
endfacet 
facet normal  0.000000 0.000000 -1.000000 
outer loop 
vertex  0.000000 -2.000000 0.000000 
vertex  -1.000000 -2.000000 0.000000 
vertex  -1.000000 -1.000000 0.000000 
endloop 
endfacet 
facet normal  0.000000 0.000000 -1.000000 
outer loop 
vertex  -1.000000 1.000000 0.000000 
vertex  -1.000000 2.000000 0.000000 
vertex  0.000000 2.000000 0.000000 
endloop 
endfacet 
facet normal  0.000000 0.000000 -1.000000 
outer loop 
vertex  -1.000000 -2.000000 0.000000 
vertex  -1.000000 -3.000000 0.000000 
vertex  -2.000000 -2.000000 0.000000 
endloop 
endfacet 
facet normal  0.000000 0.000000 -1.000000 
outer loop 
vertex  -2.000000 2.000000 0.000000 
vertex  -1.000000 3.000000 0.000000 
vertex  -1.000000 2.000000 0.000000 
endloop 
endfacet 
facet normal  0.000000 0.000000 -1.000000 
outer loop 
vertex  0.000000 -1.000000 0.000000 
vertex  -1.000000 0.000000 0.000000 
vertex  0.000000 0.000000 0.000000 
endloop 
endfacet 
facet normal  0.000000 0.000000 -1.000000 
outer loop 
vertex  0.000000 -0.000000 0.000000 
vertex  -1.000000 -0.000000 0.000000 
vertex  0.000000 1.000000 0.000000 
endloop 
endfacet 
facet normal  0.000000 0.000000 -1.000000 
outer loop 
vertex  -1.000000 -1.000000 0.000000 
vertex  -2.000000 -1.000000 0.000000 
vertex  -2.000000 0.000000 0.000000 
endloop 
endfacet 
facet normal  0.000000 0.000000 -1.000000 
outer loop 
vertex  -2.000000 -0.000000 0.000000 
vertex  -2.000000 1.000000 0.000000 
vertex  -1.000000 1.000000 0.000000 
endloop 
endfacet 
facet normal  0.000000 0.000000 -1.000000 
outer loop 
vertex  -2.000000 0.000000 0.000000 
vertex  -1.000000 0.000000 0.000000 
vertex  -1.000000 -1.000000 0.000000 
endloop 
endfacet 
facet normal  0.000000 0.000000 -1.000000 
outer loop 
vertex  -1.000000 1.000000 0.000000 
vertex  -1.000000 -0.000000 0.000000 
vertex  -2.000000 -0.000000 0.000000 
endloop 
endfacet 
facet normal  0.000000 0.000000 -1.000000 
outer loop 
vertex  -1.000000 0.000000 0.000000 
vertex  0.000000 -1.000000 0.000000 
vertex  -1.000000 -1.000000 0.000000 
endloop 
endfacet 
facet normal  0.000000 0.000000 -1.000000 
outer loop 
vertex  -1.000000 1.000000 0.000000 
vertex  0.000000 1.000000 0.000000 
vertex  -1.000000 -0.000000 0.000000 
endloop 
endfacet 
facet normal  0.000000 0.000000 -1.000000 
outer loop 
vertex  -4.000000 -1.000000 0.000000 
vertex  -3.000000 -2.000000 0.000000 
vertex  -4.000000 -2.000000 0.000000 
endloop 
endfacet 
facet normal  0.000000 0.000000 -1.000000 
outer loop 
vertex  -4.000000 2.000000 0.000000 
vertex  -3.000000 2.000000 0.000000 
vertex  -4.000000 1.000000 0.000000 
endloop 
endfacet 
facet normal  0.000000 0.000000 -1.000000 
outer loop 
vertex  -4.000000 0.000000 0.000000 
vertex  -3.000000 -1.000000 0.000000 
vertex  -4.000000 -1.000000 0.000000 
endloop 
endfacet 
facet normal  0.000000 0.000000 -1.000000 
outer loop 
vertex  -4.000000 1.000000 0.000000 
vertex  -3.000000 1.000000 0.000000 
vertex  -4.000000 -0.000000 0.000000 
endloop 
endfacet 
facet normal  0.000000 0.000000 -1.000000 
outer loop 
vertex  -3.000000 -2.000000 0.000000 
vertex  -3.000000 -1.000000 0.000000 
vertex  -2.000000 -2.000000 0.000000 
endloop 
endfacet 
facet normal  0.000000 0.000000 -1.000000 
outer loop 
vertex  -2.000000 2.000000 0.000000 
vertex  -3.000000 1.000000 0.000000 
vertex  -3.000000 2.000000 0.000000 
endloop 
endfacet 
facet normal  0.000000 0.000000 -1.000000 
outer loop 
vertex  -3.000000 -1.000000 0.000000 
vertex  -3.000000 0.000000 0.000000 
vertex  -2.000000 -1.000000 0.000000 
endloop 
endfacet 
facet normal  0.000000 0.000000 -1.000000 
outer loop 
vertex  -2.000000 1.000000 0.000000 
vertex  -3.000000 -0.000000 0.000000 
vertex  -3.000000 1.000000 0.000000 
endloop 
endfacet 
facet normal  0.000000 0.000000 -1.000000 
outer loop 
vertex  -2.000000 -2.000000 0.000000 
vertex  -2.000000 -1.000000 0.000000 
vertex  -1.000000 -2.000000 0.000000 
endloop 
endfacet 
facet normal  0.000000 0.000000 -1.000000 
outer loop 
vertex  -1.000000 2.000000 0.000000 
vertex  -2.000000 1.000000 0.000000 
vertex  -2.000000 2.000000 0.000000 
endloop 
endfacet 
facet normal  0.000000 0.000000 -1.000000 
outer loop 
vertex  -2.000000 -1.000000 0.000000 
vertex  -3.000000 0.000000 0.000000 
vertex  -2.000000 0.000000 0.000000 
endloop 
endfacet 
facet normal  0.000000 0.000000 -1.000000 
outer loop 
vertex  -2.000000 -0.000000 0.000000 
vertex  -3.000000 -0.000000 0.000000 
vertex  -2.000000 1.000000 0.000000 
endloop 
endfacet 
facet normal  0.000000 0.000000 -1.000000 
outer loop 
vertex  -3.000000 0.000000 0.000000 
vertex  -3.000000 -1.000000 0.000000 
vertex  -4.000000 0.000000 0.000000 
endloop 
endfacet 
facet normal  0.000000 0.000000 -1.000000 
outer loop 
vertex  -4.000000 -0.000000 0.000000 
vertex  -3.000000 1.000000 0.000000 
vertex  -3.000000 -0.000000 0.000000 
endloop 
endfacet 
facet normal  0.000000 0.000000 -1.000000 
outer loop 
vertex  1.000000 0.000000 0.000000 
vertex  2.000000 -1.000000 0.000000 
vertex  1.000000 -1.000000 0.000000 
endloop 
endfacet 
facet normal  0.000000 0.000000 -1.000000 
outer loop 
vertex  1.000000 1.000000 0.000000 
vertex  2.000000 1.000000 0.000000 
vertex  1.000000 -0.000000 0.000000 
endloop 
endfacet 
facet normal  0.000000 0.000000 -1.000000 
outer loop 
vertex  1.000000 -1.000000 0.000000 
vertex  0.000000 0.000000 0.000000 
vertex  1.000000 0.000000 0.000000 
endloop 
endfacet 
facet normal  0.000000 0.000000 -1.000000 
outer loop 
vertex  1.000000 -0.000000 0.000000 
vertex  0.000000 -0.000000 0.000000 
vertex  1.000000 1.000000 0.000000 
endloop 
endfacet 
facet normal  0.000000 0.000000 -1.000000 
outer loop 
vertex  0.000000 -1.000000 0.000000 
vertex  1.000000 -2.000000 0.000000 
vertex  0.000000 -2.000000 0.000000 
endloop 
endfacet 
facet normal  0.000000 0.000000 -1.000000 
outer loop 
vertex  0.000000 2.000000 0.000000 
vertex  1.000000 2.000000 0.000000 
vertex  0.000000 1.000000 0.000000 
endloop 
endfacet 
facet normal  0.000000 0.000000 -1.000000 
outer loop 
vertex  1.000000 -1.000000 0.000000 
vertex  2.000000 -2.000000 0.000000 
vertex  1.000000 -2.000000 0.000000 
endloop 
endfacet 
facet normal  0.000000 0.000000 -1.000000 
outer loop 
vertex  1.000000 2.000000 0.000000 
vertex  2.000000 2.000000 0.000000 
vertex  1.000000 1.000000 0.000000 
endloop 
endfacet 
facet normal  0.000000 0.000000 -1.000000 
outer loop 
vertex  2.000000 -1.000000 0.000000 
vertex  1.000000 0.000000 0.000000 
vertex  2.000000 0.000000 0.000000 
endloop 
endfacet 
facet normal  0.000000 0.000000 -1.000000 
outer loop 
vertex  2.000000 -0.000000 0.000000 
vertex  1.000000 -0.000000 0.000000 
vertex  2.000000 1.000000 0.000000 
endloop 
endfacet 
facet normal  0.000000 0.000000 -1.000000 
outer loop 
vertex  0.000000 -1.000000 0.000000 
vertex  0.000000 -2.000000 0.000000 
vertex  -1.000000 -1.000000 0.000000 
endloop 
endfacet 
facet normal  0.000000 0.000000 -1.000000 
outer loop 
vertex  -1.000000 1.000000 0.000000 
vertex  0.000000 2.000000 0.000000 
vertex  0.000000 1.000000 0.000000 
endloop 
endfacet 
facet normal  0.000000 0.000000 -1.000000 
outer loop 
vertex  0.000000 -2.000000 0.000000 
vertex  1.000000 -3.000000 0.000000 
vertex  0.000000 -3.000000 0.000000 
endloop 
endfacet 
facet normal  0.000000 0.000000 -1.000000 
outer loop 
vertex  0.000000 3.000000 0.000000 
vertex  1.000000 3.000000 0.000000 
vertex  0.000000 2.000000 0.000000 
endloop 
endfacet 
facet normal  0.000000 0.000000 -1.000000 
outer loop 
vertex  0.000000 -1.000000 0.000000 
vertex  0.000000 0.000000 0.000000 
vertex  1.000000 -1.000000 0.000000 
endloop 
endfacet 
facet normal  0.000000 0.000000 -1.000000 
outer loop 
vertex  1.000000 1.000000 0.000000 
vertex  0.000000 -0.000000 0.000000 
vertex  0.000000 1.000000 0.000000 
endloop 
endfacet 
facet normal  0.000000 0.000000 -1.000000 
outer loop 
vertex  0.000000 -3.000000 0.000000 
vertex  1.000000 -3.000000 0.000000 
vertex  1.000000 -4.000000 0.000000 
endloop 
endfacet 
facet normal  0.000000 0.000000 -1.000000 
outer loop 
vertex  1.000000 4.000000 0.000000 
vertex  1.000000 3.000000 0.000000 
vertex  0.000000 3.000000 0.000000 
endloop 
endfacet 
facet normal  0.000000 0.000000 -1.000000 
outer loop 
vertex  1.000000 -2.000000 0.000000 
vertex  2.000000 -3.000000 0.000000 
vertex  1.000000 -3.000000 0.000000 
endloop 
endfacet 
facet normal  0.000000 0.000000 -1.000000 
outer loop 
vertex  1.000000 3.000000 0.000000 
vertex  2.000000 3.000000 0.000000 
vertex  1.000000 2.000000 0.000000 
endloop 
endfacet 
facet normal  0.000000 0.000000 -1.000000 
outer loop 
vertex  0.000000 -3.000000 0.000000 
vertex  1.000000 -4.000000 0.000000 
vertex  0.000000 -4.000000 0.000000 
endloop 
endfacet 
facet normal  0.000000 0.000000 -1.000000 
outer loop 
vertex  0.000000 4.000000 0.000000 
vertex  1.000000 4.000000 0.000000 
vertex  0.000000 3.000000 0.000000 
endloop 
endfacet 
facet normal  0.000000 0.000000 -1.000000 
outer loop 
vertex  1.000000 -2.000000 0.000000 
vertex  1.000000 -3.000000 0.000000 
vertex  0.000000 -2.000000 0.000000 
endloop 
endfacet 
facet normal  0.000000 0.000000 -1.000000 
outer loop 
vertex  0.000000 2.000000 0.000000 
vertex  1.000000 3.000000 0.000000 
vertex  1.000000 2.000000 0.000000 
endloop 
endfacet 
facet normal  0.000000 0.000000 -1.000000 
outer loop 
vertex  1.000000 -3.000000 0.000000 
vertex  2.000000 -4.000000 0.000000 
vertex  1.000000 -4.000000 0.000000 
endloop 
endfacet 
facet normal  0.000000 0.000000 -1.000000 
outer loop 
vertex  1.000000 4.000000 0.000000 
vertex  2.000000 4.000000 0.000000 
vertex  1.000000 3.000000 0.000000 
endloop 
endfacet 
facet normal  0.000000 0.000000 -1.000000 
outer loop 
vertex  3.000000 -4.000000 0.000000 
vertex  2.000000 -3.000000 0.000000 
vertex  3.000000 -3.000000 0.000000 
endloop 
endfacet 
facet normal  0.000000 0.000000 -1.000000 
outer loop 
vertex  3.000000 3.000000 0.000000 
vertex  2.000000 3.000000 0.000000 
vertex  3.000000 4.000000 0.000000 
endloop 
endfacet 
facet normal  0.000000 0.000000 -1.000000 
outer loop 
vertex  2.000000 -3.000000 0.000000 
vertex  1.000000 -2.000000 0.000000 
vertex  2.000000 -2.000000 0.000000 
endloop 
endfacet 
facet normal  0.000000 0.000000 -1.000000 
outer loop 
vertex  2.000000 2.000000 0.000000 
vertex  1.000000 2.000000 0.000000 
vertex  2.000000 3.000000 0.000000 
endloop 
endfacet 
facet normal  0.000000 0.000000 -1.000000 
outer loop 
vertex  3.000000 -2.000000 0.000000 
vertex  2.000000 -2.000000 0.000000 
vertex  2.000000 -1.000000 0.000000 
endloop 
endfacet 
facet normal  0.000000 0.000000 -1.000000 
outer loop 
vertex  2.000000 1.000000 0.000000 
vertex  2.000000 2.000000 0.000000 
vertex  3.000000 2.000000 0.000000 
endloop 
endfacet 
facet normal  0.000000 0.000000 -1.000000 
outer loop 
vertex  2.000000 -2.000000 0.000000 
vertex  1.000000 -1.000000 0.000000 
vertex  2.000000 -1.000000 0.000000 
endloop 
endfacet 
facet normal  0.000000 0.000000 -1.000000 
outer loop 
vertex  2.000000 1.000000 0.000000 
vertex  1.000000 1.000000 0.000000 
vertex  2.000000 2.000000 0.000000 
endloop 
endfacet 
facet normal  0.000000 0.000000 -1.000000 
outer loop 
vertex  3.000000 -3.000000 0.000000 
vertex  2.000000 -3.000000 0.000000 
vertex  2.000000 -2.000000 0.000000 
endloop 
endfacet 
facet normal  0.000000 0.000000 -1.000000 
outer loop 
vertex  2.000000 2.000000 0.000000 
vertex  2.000000 3.000000 0.000000 
vertex  3.000000 3.000000 0.000000 
endloop 
endfacet 
facet normal  0.000000 0.000000 -1.000000 
outer loop 
vertex  3.000000 -2.000000 0.000000 
vertex  3.000000 -3.000000 0.000000 
vertex  2.000000 -2.000000 0.000000 
endloop 
endfacet 
facet normal  0.000000 0.000000 -1.000000 
outer loop 
vertex  2.000000 2.000000 0.000000 
vertex  3.000000 3.000000 0.000000 
vertex  3.000000 2.000000 0.000000 
endloop 
endfacet 
endsolid Cuerno_11_Bendfacet 
