solid Cuerno_5_A 
facet normal  -0.116569 0.000000 0.993183 
outer loop 
vertex  -5.000000 0.000000 0.000000 
vertex  -5.000000 -2.500000 0.000000 
vertex  -2.500000 -2.500000 0.293423 
endloop 
endfacet 
facet normal  -0.116569 -0.000000 0.993183 
outer loop 
vertex  -2.500000 2.500000 0.293423 
vertex  -5.000000 2.500000 0.000000 
vertex  -5.000000 -0.000000 0.000000 
endloop 
endfacet 
facet normal  0.010869 0.010869 0.999882 
outer loop 
vertex  2.500000 0.000000 0.000000 
vertex  2.500000 -2.500000 0.027176 
vertex  5.000000 -2.500000 0.000000 
endloop 
endfacet 
facet normal  0.010869 -0.010869 0.999882 
outer loop 
vertex  5.000000 2.500000 0.000000 
vertex  2.500000 2.500000 0.027176 
vertex  2.500000 -0.000000 0.000000 
endloop 
endfacet 
facet normal  -0.008745 -0.073617 0.997248 
outer loop 
vertex  0.000000 0.000000 0.816000 
vertex  -2.500000 0.000000 0.794077 
vertex  0.000000 -2.500000 0.631449 
endloop 
endfacet 
facet normal  -0.008745 0.073617 0.997248 
outer loop 
vertex  0.000000 2.500000 0.631449 
vertex  -2.500000 -0.000000 0.794077 
vertex  0.000000 -0.000000 0.816000 
endloop 
endfacet 
facet normal  -0.115785 -0.115785 0.986503 
outer loop 
vertex  -2.500000 -5.000000 0.000000 
vertex  -2.500000 -2.500000 0.293423 
vertex  -5.000000 -2.500000 0.000000 
endloop 
endfacet 
facet normal  -0.115785 0.115785 0.986503 
outer loop 
vertex  -5.000000 2.500000 0.000000 
vertex  -2.500000 2.500000 0.293423 
vertex  -2.500000 5.000000 0.000000 
endloop 
endfacet 
facet normal  0.000000 -0.010870 0.999941 
outer loop 
vertex  2.500000 -5.000000 0.000000 
vertex  5.000000 -5.000000 0.000000 
vertex  2.500000 -2.500000 0.027176 
endloop 
endfacet 
facet normal  0.000000 0.010870 0.999941 
outer loop 
vertex  2.500000 2.500000 0.027176 
vertex  5.000000 5.000000 0.000000 
vertex  2.500000 5.000000 0.000000 
endloop 
endfacet 
facet normal  -0.129982 -0.242811 0.961326 
outer loop 
vertex  0.000000 -5.000000 0.000000 
vertex  0.000000 -2.500000 0.631449 
vertex  -2.500000 -2.500000 0.293423 
endloop 
endfacet 
facet normal  -0.129982 0.242811 0.961326 
outer loop 
vertex  -2.500000 2.500000 0.293423 
vertex  0.000000 2.500000 0.631449 
vertex  0.000000 5.000000 0.000000 
endloop 
endfacet 
facet normal  0.000000 -0.116569 0.993183 
outer loop 
vertex  -2.500000 -2.500000 0.293423 
vertex  -2.500000 -5.000000 0.000000 
vertex  0.000000 -5.000000 0.000000 
endloop 
endfacet 
facet normal  0.000000 0.116569 0.993183 
outer loop 
vertex  0.000000 5.000000 0.000000 
vertex  -2.500000 5.000000 0.000000 
vertex  -2.500000 2.500000 0.293423 
endloop 
endfacet 
facet normal  -0.297359 -0.187481 0.936178 
outer loop 
vertex  -2.500000 0.000000 0.794077 
vertex  -5.000000 0.000000 0.000000 
vertex  -2.500000 -2.500000 0.293423 
endloop 
endfacet 
facet normal  -0.297359 0.187481 0.936178 
outer loop 
vertex  -2.500000 2.500000 0.293423 
vertex  -5.000000 -0.000000 0.000000 
vertex  -2.500000 -0.000000 0.794077 
endloop 
endfacet 
facet normal  -0.131428 -0.194660 0.972026 
outer loop 
vertex  0.000000 -2.500000 0.631449 
vertex  -2.500000 0.000000 0.794077 
vertex  -2.500000 -2.500000 0.293423 
endloop 
endfacet 
facet normal  -0.131428 0.194660 0.972026 
outer loop 
vertex  -2.500000 2.500000 0.293423 
vertex  -2.500000 -0.000000 0.794077 
vertex  0.000000 2.500000 0.631449 
endloop 
endfacet 
facet normal  0.234341 -0.071570 0.969516 
outer loop 
vertex  0.000000 0.000000 0.816000 
vertex  0.000000 -2.500000 0.631449 
vertex  2.500000 -2.500000 0.027176 
endloop 
endfacet 
facet normal  0.234341 0.071570 0.969516 
outer loop 
vertex  2.500000 2.500000 0.027176 
vertex  0.000000 2.500000 0.631449 
vertex  0.000000 -0.000000 0.816000 
endloop 
endfacet 
facet normal  0.010870 0.000000 0.999941 
outer loop 
vertex  5.000000 -2.500000 0.000000 
vertex  2.500000 -2.500000 0.027176 
vertex  5.000000 -5.000000 0.000000 
endloop 
endfacet 
facet normal  0.010870 -0.000000 0.999941 
outer loop 
vertex  5.000000 5.000000 0.000000 
vertex  2.500000 2.500000 0.027176 
vertex  5.000000 2.500000 0.000000 
endloop 
endfacet 
facet normal  0.310273 0.010333 0.950591 
outer loop 
vertex  2.500000 0.000000 0.000000 
vertex  0.000000 0.000000 0.816000 
vertex  2.500000 -2.500000 0.027176 
endloop 
endfacet 
facet normal  0.310273 -0.010333 0.950591 
outer loop 
vertex  2.500000 2.500000 0.027176 
vertex  0.000000 -0.000000 0.816000 
vertex  2.500000 -0.000000 0.000000 
endloop 
endfacet 
facet normal  0.000000 -0.244889 0.969551 
outer loop 
vertex  0.000000 -2.500000 0.631449 
vertex  0.000000 -5.000000 0.000000 
vertex  2.500000 -5.000000 0.000000 
endloop 
endfacet 
facet normal  0.000000 0.244889 0.969551 
outer loop 
vertex  2.500000 5.000000 0.000000 
vertex  0.000000 5.000000 0.000000 
vertex  0.000000 2.500000 0.631449 
endloop 
endfacet 
facet normal  0.234930 -0.010566 0.971955 
outer loop 
vertex  0.000000 -2.500000 0.631449 
vertex  2.500000 -5.000000 0.000000 
vertex  2.500000 -2.500000 0.027176 
endloop 
endfacet 
facet normal  0.234930 0.010566 0.971955 
outer loop 
vertex  2.500000 2.500000 0.027176 
vertex  2.500000 5.000000 0.000000 
vertex  0.000000 2.500000 0.631449 
endloop 
endfacet 
endsolid Cuerno_5_Aendfacet 
