solid Cuerno_21_B 
facet normal  0.000000 0.000000 -1.000000 
outer loop 
vertex  -3.000000 -0.500000 0.000000 
vertex  -2.500000 -0.500000 0.000000 
vertex  -2.500000 -1.000000 0.000000 
endloop 
endfacet 
facet normal  0.000000 0.000000 -1.000000 
outer loop 
vertex  -2.500000 1.000000 0.000000 
vertex  -2.500000 0.500000 0.000000 
vertex  -3.000000 0.500000 0.000000 
endloop 
endfacet 
facet normal  0.000000 0.000000 -1.000000 
outer loop 
vertex  -1.500000 -0.500000 0.000000 
vertex  -1.500000 -1.000000 0.000000 
vertex  -2.000000 -0.500000 0.000000 
endloop 
endfacet 
facet normal  0.000000 0.000000 -1.000000 
outer loop 
vertex  -2.000000 0.500000 0.000000 
vertex  -1.500000 1.000000 0.000000 
vertex  -1.500000 0.500000 0.000000 
endloop 
endfacet 
facet normal  0.000000 0.000000 -1.000000 
outer loop 
vertex  -3.000000 -0.500000 0.000000 
vertex  -3.500000 -0.500000 0.000000 
vertex  -3.500000 0.000000 0.000000 
endloop 
endfacet 
facet normal  0.000000 0.000000 -1.000000 
outer loop 
vertex  -3.500000 -0.000000 0.000000 
vertex  -3.500000 0.500000 0.000000 
vertex  -3.000000 0.500000 0.000000 
endloop 
endfacet 
facet normal  0.000000 0.000000 -1.000000 
outer loop 
vertex  -3.500000 -1.500000 0.000000 
vertex  -3.000000 -1.500000 0.000000 
vertex  -3.000000 -2.000000 0.000000 
endloop 
endfacet 
facet normal  0.000000 0.000000 -1.000000 
outer loop 
vertex  -3.000000 2.000000 0.000000 
vertex  -3.000000 1.500000 0.000000 
vertex  -3.500000 1.500000 0.000000 
endloop 
endfacet 
facet normal  0.000000 0.000000 -1.000000 
outer loop 
vertex  -0.500000 -1.500000 0.000000 
vertex  0.000000 -1.500000 0.000000 
vertex  0.000000 -2.000000 0.000000 
endloop 
endfacet 
facet normal  0.000000 0.000000 -1.000000 
outer loop 
vertex  0.000000 2.000000 0.000000 
vertex  0.000000 1.500000 0.000000 
vertex  -0.500000 1.500000 0.000000 
endloop 
endfacet 
facet normal  0.000000 0.000000 -1.000000 
outer loop 
vertex  -0.500000 -2.000000 0.000000 
vertex  -1.000000 -1.500000 0.000000 
vertex  -0.500000 -1.500000 0.000000 
endloop 
endfacet 
facet normal  0.000000 0.000000 -1.000000 
outer loop 
vertex  -0.500000 1.500000 0.000000 
vertex  -1.000000 1.500000 0.000000 
vertex  -0.500000 2.000000 0.000000 
endloop 
endfacet 
facet normal  0.000000 0.000000 -1.000000 
outer loop 
vertex  -0.500000 -3.500000 0.000000 
vertex  -1.000000 -3.000000 0.000000 
vertex  -0.500000 -3.000000 0.000000 
endloop 
endfacet 
facet normal  0.000000 0.000000 -1.000000 
outer loop 
vertex  -0.500000 3.000000 0.000000 
vertex  -1.000000 3.000000 0.000000 
vertex  -0.500000 3.500000 0.000000 
endloop 
endfacet 
facet normal  0.000000 0.000000 -1.000000 
outer loop 
vertex  2.000000 -3.500000 0.000000 
vertex  1.500000 -3.500000 0.000000 
vertex  1.500000 -3.000000 0.000000 
endloop 
endfacet 
facet normal  0.000000 0.000000 -1.000000 
outer loop 
vertex  1.500000 3.000000 0.000000 
vertex  1.500000 3.500000 0.000000 
vertex  2.000000 3.500000 0.000000 
endloop 
endfacet 
facet normal  0.000000 0.000000 -1.000000 
outer loop 
vertex  2.000000 -2.000000 0.000000 
vertex  1.500000 -1.500000 0.000000 
vertex  2.000000 -1.500000 0.000000 
endloop 
endfacet 
facet normal  0.000000 0.000000 -1.000000 
outer loop 
vertex  2.000000 1.500000 0.000000 
vertex  1.500000 1.500000 0.000000 
vertex  2.000000 2.000000 0.000000 
endloop 
endfacet 
facet normal  0.000000 0.000000 -1.000000 
outer loop 
vertex  -3.500000 -2.500000 0.000000 
vertex  -3.000000 -2.500000 0.000000 
vertex  -3.000000 -3.000000 0.000000 
endloop 
endfacet 
facet normal  0.000000 0.000000 -1.000000 
outer loop 
vertex  -3.000000 3.000000 0.000000 
vertex  -3.000000 2.500000 0.000000 
vertex  -3.500000 2.500000 0.000000 
endloop 
endfacet 
facet normal  0.000000 0.000000 -1.000000 
outer loop 
vertex  -3.500000 -1.500000 0.000000 
vertex  -3.500000 -1.000000 0.000000 
vertex  -3.000000 -1.500000 0.000000 
endloop 
endfacet 
facet normal  0.000000 0.000000 -1.000000 
outer loop 
vertex  -3.000000 1.500000 0.000000 
vertex  -3.500000 1.000000 0.000000 
vertex  -3.500000 1.500000 0.000000 
endloop 
endfacet 
facet normal  0.000000 0.000000 -1.000000 
outer loop 
vertex  -2.500000 -3.000000 0.000000 
vertex  -3.000000 -3.000000 0.000000 
vertex  -3.000000 -2.500000 0.000000 
endloop 
endfacet 
facet normal  0.000000 0.000000 -1.000000 
outer loop 
vertex  -3.000000 2.500000 0.000000 
vertex  -3.000000 3.000000 0.000000 
vertex  -2.500000 3.000000 0.000000 
endloop 
endfacet 
facet normal  0.000000 0.000000 -1.000000 
outer loop 
vertex  -1.000000 -2.500000 0.000000 
vertex  -0.500000 -2.500000 0.000000 
vertex  -0.500000 -3.000000 0.000000 
endloop 
endfacet 
facet normal  0.000000 0.000000 -1.000000 
outer loop 
vertex  -0.500000 3.000000 0.000000 
vertex  -0.500000 2.500000 0.000000 
vertex  -1.000000 2.500000 0.000000 
endloop 
endfacet 
facet normal  0.000000 0.000000 -1.000000 
outer loop 
vertex  -1.000000 -2.500000 0.000000 
vertex  -1.500000 -2.500000 0.000000 
vertex  -1.500000 -2.000000 0.000000 
endloop 
endfacet 
facet normal  0.000000 0.000000 -1.000000 
outer loop 
vertex  -1.500000 2.000000 0.000000 
vertex  -1.500000 2.500000 0.000000 
vertex  -1.000000 2.500000 0.000000 
endloop 
endfacet 
facet normal  0.000000 0.000000 -1.000000 
outer loop 
vertex  -1.000000 -4.000000 0.000000 
vertex  -1.500000 -4.000000 0.000000 
vertex  -1.500000 -3.500000 0.000000 
endloop 
endfacet 
facet normal  0.000000 0.000000 -1.000000 
outer loop 
vertex  -1.500000 3.500000 0.000000 
vertex  -1.500000 4.000000 0.000000 
vertex  -1.000000 4.000000 0.000000 
endloop 
endfacet 
facet normal  0.000000 0.000000 -1.000000 
outer loop 
vertex  -1.500000 -1.500000 0.000000 
vertex  -1.000000 -1.500000 0.000000 
vertex  -1.000000 -2.000000 0.000000 
endloop 
endfacet 
facet normal  0.000000 0.000000 -1.000000 
outer loop 
vertex  -1.000000 2.000000 0.000000 
vertex  -1.000000 1.500000 0.000000 
vertex  -1.500000 1.500000 0.000000 
endloop 
endfacet 
facet normal  0.000000 0.000000 -1.000000 
outer loop 
vertex  1.000000 -3.500000 0.000000 
vertex  0.500000 -3.500000 0.000000 
vertex  0.500000 -3.000000 0.000000 
endloop 
endfacet 
facet normal  0.000000 0.000000 -1.000000 
outer loop 
vertex  0.500000 3.000000 0.000000 
vertex  0.500000 3.500000 0.000000 
vertex  1.000000 3.500000 0.000000 
endloop 
endfacet 
facet normal  0.000000 0.000000 -1.000000 
outer loop 
vertex  -3.500000 -0.500000 0.000000 
vertex  -3.000000 -0.500000 0.000000 
vertex  -3.000000 -1.000000 0.000000 
endloop 
endfacet 
facet normal  0.000000 0.000000 -1.000000 
outer loop 
vertex  -3.000000 1.000000 0.000000 
vertex  -3.000000 0.500000 0.000000 
vertex  -3.500000 0.500000 0.000000 
endloop 
endfacet 
facet normal  0.000000 0.000000 -1.000000 
outer loop 
vertex  -3.500000 -1.000000 0.000000 
vertex  -3.000000 -1.000000 0.000000 
vertex  -3.000000 -1.500000 0.000000 
endloop 
endfacet 
facet normal  0.000000 0.000000 -1.000000 
outer loop 
vertex  -3.000000 1.500000 0.000000 
vertex  -3.000000 1.000000 0.000000 
vertex  -3.500000 1.000000 0.000000 
endloop 
endfacet 
facet normal  0.000000 0.000000 -1.000000 
outer loop 
vertex  -2.500000 -0.500000 0.000000 
vertex  -3.000000 -0.500000 0.000000 
vertex  -3.000000 0.000000 0.000000 
endloop 
endfacet 
facet normal  0.000000 0.000000 -1.000000 
outer loop 
vertex  -3.000000 -0.000000 0.000000 
vertex  -3.000000 0.500000 0.000000 
vertex  -2.500000 0.500000 0.000000 
endloop 
endfacet 
facet normal  0.000000 0.000000 -1.000000 
outer loop 
vertex  -1.000000 -1.500000 0.000000 
vertex  -1.500000 -1.000000 0.000000 
vertex  -1.000000 -1.000000 0.000000 
endloop 
endfacet 
facet normal  0.000000 0.000000 -1.000000 
outer loop 
vertex  -1.000000 1.000000 0.000000 
vertex  -1.500000 1.000000 0.000000 
vertex  -1.000000 1.500000 0.000000 
endloop 
endfacet 
facet normal  0.000000 0.000000 -1.000000 
outer loop 
vertex  -1.500000 -2.500000 0.000000 
vertex  -2.000000 -2.500000 0.000000 
vertex  -2.000000 -2.000000 0.000000 
endloop 
endfacet 
facet normal  0.000000 0.000000 -1.000000 
outer loop 
vertex  -2.000000 2.000000 0.000000 
vertex  -2.000000 2.500000 0.000000 
vertex  -1.500000 2.500000 0.000000 
endloop 
endfacet 
facet normal  0.000000 0.000000 -1.000000 
outer loop 
vertex  -2.000000 0.000000 0.000000 
vertex  -1.500000 0.000000 0.000000 
vertex  -1.500000 -0.500000 0.000000 
endloop 
endfacet 
facet normal  0.000000 0.000000 -1.000000 
outer loop 
vertex  -1.500000 0.500000 0.000000 
vertex  -1.500000 -0.000000 0.000000 
vertex  -2.000000 -0.000000 0.000000 
endloop 
endfacet 
facet normal  0.000000 0.000000 -1.000000 
outer loop 
vertex  -4.000000 -1.000000 0.000000 
vertex  -3.500000 -1.000000 0.000000 
vertex  -3.500000 -1.500000 0.000000 
endloop 
endfacet 
facet normal  0.000000 0.000000 -1.000000 
outer loop 
vertex  -3.500000 1.500000 0.000000 
vertex  -3.500000 1.000000 0.000000 
vertex  -4.000000 1.000000 0.000000 
endloop 
endfacet 
facet normal  0.000000 0.000000 -1.000000 
outer loop 
vertex  -3.500000 -0.500000 0.000000 
vertex  -3.500000 -1.000000 0.000000 
vertex  -4.000000 -0.500000 0.000000 
endloop 
endfacet 
facet normal  0.000000 0.000000 -1.000000 
outer loop 
vertex  -4.000000 0.500000 0.000000 
vertex  -3.500000 1.000000 0.000000 
vertex  -3.500000 0.500000 0.000000 
endloop 
endfacet 
facet normal  0.000000 0.000000 -1.000000 
outer loop 
vertex  -0.500000 -0.500000 0.000000 
vertex  -1.000000 -0.500000 0.000000 
vertex  -1.000000 0.000000 0.000000 
endloop 
endfacet 
facet normal  0.000000 0.000000 -1.000000 
outer loop 
vertex  -1.000000 -0.000000 0.000000 
vertex  -1.000000 0.500000 0.000000 
vertex  -0.500000 0.500000 0.000000 
endloop 
endfacet 
facet normal  0.000000 0.000000 -1.000000 
outer loop 
vertex  1.500000 -0.500000 0.000000 
vertex  1.000000 -0.500000 0.000000 
vertex  1.000000 0.000000 0.000000 
endloop 
endfacet 
facet normal  0.000000 0.000000 -1.000000 
outer loop 
vertex  1.000000 -0.000000 0.000000 
vertex  1.000000 0.500000 0.000000 
vertex  1.500000 0.500000 0.000000 
endloop 
endfacet 
facet normal  0.000000 0.000000 -1.000000 
outer loop 
vertex  2.000000 -2.000000 0.000000 
vertex  1.500000 -2.000000 0.000000 
vertex  1.500000 -1.500000 0.000000 
endloop 
endfacet 
facet normal  0.000000 0.000000 -1.000000 
outer loop 
vertex  1.500000 1.500000 0.000000 
vertex  1.500000 2.000000 0.000000 
vertex  2.000000 2.000000 0.000000 
endloop 
endfacet 
facet normal  0.000000 0.000000 -1.000000 
outer loop 
vertex  1.500000 -3.000000 0.000000 
vertex  1.000000 -3.000000 0.000000 
vertex  1.000000 -2.500000 0.000000 
endloop 
endfacet 
facet normal  0.000000 0.000000 -1.000000 
outer loop 
vertex  1.000000 2.500000 0.000000 
vertex  1.000000 3.000000 0.000000 
vertex  1.500000 3.000000 0.000000 
endloop 
endfacet 
facet normal  0.000000 0.000000 -1.000000 
outer loop 
vertex  -0.500000 -2.000000 0.000000 
vertex  0.000000 -2.500000 0.000000 
vertex  -0.500000 -2.500000 0.000000 
endloop 
endfacet 
facet normal  0.000000 0.000000 -1.000000 
outer loop 
vertex  -0.500000 2.500000 0.000000 
vertex  0.000000 2.500000 0.000000 
vertex  -0.500000 2.000000 0.000000 
endloop 
endfacet 
facet normal  0.000000 0.000000 -1.000000 
outer loop 
vertex  -1.000000 0.000000 0.000000 
vertex  -0.500000 0.000000 0.000000 
vertex  -0.500000 -0.500000 0.000000 
endloop 
endfacet 
facet normal  0.000000 0.000000 -1.000000 
outer loop 
vertex  -0.500000 0.500000 0.000000 
vertex  -0.500000 -0.000000 0.000000 
vertex  -1.000000 -0.000000 0.000000 
endloop 
endfacet 
facet normal  0.000000 0.000000 -1.000000 
outer loop 
vertex  0.500000 -1.500000 0.000000 
vertex  1.000000 -2.000000 0.000000 
vertex  0.500000 -2.000000 0.000000 
endloop 
endfacet 
facet normal  0.000000 0.000000 -1.000000 
outer loop 
vertex  0.500000 2.000000 0.000000 
vertex  1.000000 2.000000 0.000000 
vertex  0.500000 1.500000 0.000000 
endloop 
endfacet 
facet normal  0.000000 0.000000 -1.000000 
outer loop 
vertex  0.000000 0.000000 0.000000 
vertex  0.500000 0.000000 0.000000 
vertex  0.500000 -0.500000 0.000000 
endloop 
endfacet 
facet normal  0.000000 0.000000 -1.000000 
outer loop 
vertex  0.500000 0.500000 0.000000 
vertex  0.500000 -0.000000 0.000000 
vertex  0.000000 -0.000000 0.000000 
endloop 
endfacet 
facet normal  0.000000 0.000000 -1.000000 
outer loop 
vertex  0.000000 -2.000000 0.000000 
vertex  -0.500000 -2.000000 0.000000 
vertex  -0.500000 -1.500000 0.000000 
endloop 
endfacet 
facet normal  0.000000 0.000000 -1.000000 
outer loop 
vertex  -0.500000 1.500000 0.000000 
vertex  -0.500000 2.000000 0.000000 
vertex  0.000000 2.000000 0.000000 
endloop 
endfacet 
facet normal  0.000000 0.000000 -1.000000 
outer loop 
vertex  -1.000000 -4.000000 0.000000 
vertex  -1.500000 -3.500000 0.000000 
vertex  -1.000000 -3.500000 0.000000 
endloop 
endfacet 
facet normal  0.000000 0.000000 -1.000000 
outer loop 
vertex  -1.000000 3.500000 0.000000 
vertex  -1.500000 3.500000 0.000000 
vertex  -1.000000 4.000000 0.000000 
endloop 
endfacet 
facet normal  0.000000 0.000000 -1.000000 
outer loop 
vertex  1.000000 -3.000000 0.000000 
vertex  0.500000 -2.500000 0.000000 
vertex  1.000000 -2.500000 0.000000 
endloop 
endfacet 
facet normal  0.000000 0.000000 -1.000000 
outer loop 
vertex  1.000000 2.500000 0.000000 
vertex  0.500000 2.500000 0.000000 
vertex  1.000000 3.000000 0.000000 
endloop 
endfacet 
facet normal  0.000000 0.000000 -1.000000 
outer loop 
vertex  -1.500000 -3.000000 0.000000 
vertex  -1.000000 -3.000000 0.000000 
vertex  -1.000000 -3.500000 0.000000 
endloop 
endfacet 
facet normal  0.000000 0.000000 -1.000000 
outer loop 
vertex  -1.000000 3.500000 0.000000 
vertex  -1.000000 3.000000 0.000000 
vertex  -1.500000 3.000000 0.000000 
endloop 
endfacet 
facet normal  0.000000 0.000000 -1.000000 
outer loop 
vertex  1.000000 -2.000000 0.000000 
vertex  0.500000 -1.500000 0.000000 
vertex  1.000000 -1.500000 0.000000 
endloop 
endfacet 
facet normal  0.000000 0.000000 -1.000000 
outer loop 
vertex  1.000000 1.500000 0.000000 
vertex  0.500000 1.500000 0.000000 
vertex  1.000000 2.000000 0.000000 
endloop 
endfacet 
facet normal  0.000000 0.000000 -1.000000 
outer loop 
vertex  0.000000 -2.000000 0.000000 
vertex  0.500000 -2.000000 0.000000 
vertex  0.500000 -2.500000 0.000000 
endloop 
endfacet 
facet normal  0.000000 0.000000 -1.000000 
outer loop 
vertex  0.500000 2.500000 0.000000 
vertex  0.500000 2.000000 0.000000 
vertex  0.000000 2.000000 0.000000 
endloop 
endfacet 
facet normal  0.000000 0.000000 -1.000000 
outer loop 
vertex  1.000000 -2.000000 0.000000 
vertex  1.500000 -2.000000 0.000000 
vertex  1.500000 -2.500000 0.000000 
endloop 
endfacet 
facet normal  0.000000 0.000000 -1.000000 
outer loop 
vertex  1.500000 2.500000 0.000000 
vertex  1.500000 2.000000 0.000000 
vertex  1.000000 2.000000 0.000000 
endloop 
endfacet 
facet normal  0.000000 0.000000 -1.000000 
outer loop 
vertex  1.500000 -2.000000 0.000000 
vertex  2.000000 -2.500000 0.000000 
vertex  1.500000 -2.500000 0.000000 
endloop 
endfacet 
facet normal  0.000000 0.000000 -1.000000 
outer loop 
vertex  1.500000 2.500000 0.000000 
vertex  2.000000 2.500000 0.000000 
vertex  1.500000 2.000000 0.000000 
endloop 
endfacet 
facet normal  0.000000 0.000000 -1.000000 
outer loop 
vertex  1.000000 -3.000000 0.000000 
vertex  1.000000 -3.500000 0.000000 
vertex  0.500000 -3.000000 0.000000 
endloop 
endfacet 
facet normal  0.000000 0.000000 -1.000000 
outer loop 
vertex  0.500000 3.000000 0.000000 
vertex  1.000000 3.500000 0.000000 
vertex  1.000000 3.000000 0.000000 
endloop 
endfacet 
facet normal  0.000000 0.000000 -1.000000 
outer loop 
vertex  -2.500000 -3.500000 0.000000 
vertex  -3.000000 -3.000000 0.000000 
vertex  -2.500000 -3.000000 0.000000 
endloop 
endfacet 
facet normal  0.000000 0.000000 -1.000000 
outer loop 
vertex  -2.500000 3.000000 0.000000 
vertex  -3.000000 3.000000 0.000000 
vertex  -2.500000 3.500000 0.000000 
endloop 
endfacet 
facet normal  0.000000 0.000000 -1.000000 
outer loop 
vertex  -2.500000 -3.500000 0.000000 
vertex  -2.500000 -3.000000 0.000000 
vertex  -2.000000 -3.500000 0.000000 
endloop 
endfacet 
facet normal  0.000000 0.000000 -1.000000 
outer loop 
vertex  -2.000000 3.500000 0.000000 
vertex  -2.500000 3.000000 0.000000 
vertex  -2.500000 3.500000 0.000000 
endloop 
endfacet 
facet normal  0.000000 0.000000 -1.000000 
outer loop 
vertex  -1.500000 -2.000000 0.000000 
vertex  -1.500000 -2.500000 0.000000 
vertex  -2.000000 -2.000000 0.000000 
endloop 
endfacet 
facet normal  0.000000 0.000000 -1.000000 
outer loop 
vertex  -2.000000 2.000000 0.000000 
vertex  -1.500000 2.500000 0.000000 
vertex  -1.500000 2.000000 0.000000 
endloop 
endfacet 
facet normal  0.000000 0.000000 -1.000000 
outer loop 
vertex  -2.000000 -2.500000 0.000000 
vertex  -2.000000 -3.000000 0.000000 
vertex  -2.500000 -2.500000 0.000000 
endloop 
endfacet 
facet normal  0.000000 0.000000 -1.000000 
outer loop 
vertex  -2.500000 2.500000 0.000000 
vertex  -2.000000 3.000000 0.000000 
vertex  -2.000000 2.500000 0.000000 
endloop 
endfacet 
facet normal  0.000000 0.000000 -1.000000 
outer loop 
vertex  -3.000000 -2.000000 0.000000 
vertex  -3.000000 -2.500000 0.000000 
vertex  -3.500000 -2.000000 0.000000 
endloop 
endfacet 
facet normal  0.000000 0.000000 -1.000000 
outer loop 
vertex  -3.500000 2.000000 0.000000 
vertex  -3.000000 2.500000 0.000000 
vertex  -3.000000 2.000000 0.000000 
endloop 
endfacet 
facet normal  0.000000 0.000000 -1.000000 
outer loop 
vertex  -3.000000 -2.500000 0.000000 
vertex  -3.500000 -2.500000 0.000000 
vertex  -3.500000 -2.000000 0.000000 
endloop 
endfacet 
facet normal  0.000000 0.000000 -1.000000 
outer loop 
vertex  -3.500000 2.000000 0.000000 
vertex  -3.500000 2.500000 0.000000 
vertex  -3.000000 2.500000 0.000000 
endloop 
endfacet 
facet normal  0.000000 0.000000 -1.000000 
outer loop 
vertex  -2.000000 -2.000000 0.000000 
vertex  -2.000000 -2.500000 0.000000 
vertex  -2.500000 -2.000000 0.000000 
endloop 
endfacet 
facet normal  0.000000 0.000000 -1.000000 
outer loop 
vertex  -2.500000 2.000000 0.000000 
vertex  -2.000000 2.500000 0.000000 
vertex  -2.000000 2.000000 0.000000 
endloop 
endfacet 
facet normal  0.000000 0.000000 -1.000000 
outer loop 
vertex  -2.000000 -2.500000 0.000000 
vertex  -1.500000 -3.000000 0.000000 
vertex  -2.000000 -3.000000 0.000000 
endloop 
endfacet 
facet normal  0.000000 0.000000 -1.000000 
outer loop 
vertex  -2.000000 3.000000 0.000000 
vertex  -1.500000 3.000000 0.000000 
vertex  -2.000000 2.500000 0.000000 
endloop 
endfacet 
facet normal  0.000000 0.000000 -1.000000 
outer loop 
vertex  -1.500000 -2.000000 0.000000 
vertex  -2.000000 -2.000000 0.000000 
vertex  -2.000000 -1.500000 0.000000 
endloop 
endfacet 
facet normal  0.000000 0.000000 -1.000000 
outer loop 
vertex  -2.000000 1.500000 0.000000 
vertex  -2.000000 2.000000 0.000000 
vertex  -1.500000 2.000000 0.000000 
endloop 
endfacet 
facet normal  0.000000 0.000000 -1.000000 
outer loop 
vertex  -2.500000 -2.500000 0.000000 
vertex  -3.000000 -2.000000 0.000000 
vertex  -2.500000 -2.000000 0.000000 
endloop 
endfacet 
facet normal  0.000000 0.000000 -1.000000 
outer loop 
vertex  -2.500000 2.000000 0.000000 
vertex  -3.000000 2.000000 0.000000 
vertex  -2.500000 2.500000 0.000000 
endloop 
endfacet 
facet normal  0.000000 0.000000 -1.000000 
outer loop 
vertex  -3.000000 -2.500000 0.000000 
vertex  -2.500000 -2.500000 0.000000 
vertex  -2.500000 -3.000000 0.000000 
endloop 
endfacet 
facet normal  0.000000 0.000000 -1.000000 
outer loop 
vertex  -2.500000 3.000000 0.000000 
vertex  -2.500000 2.500000 0.000000 
vertex  -3.000000 2.500000 0.000000 
endloop 
endfacet 
facet normal  0.000000 0.000000 -1.000000 
outer loop 
vertex  -2.500000 -2.500000 0.000000 
vertex  -2.000000 -3.000000 0.000000 
vertex  -2.500000 -3.000000 0.000000 
endloop 
endfacet 
facet normal  0.000000 0.000000 -1.000000 
outer loop 
vertex  -2.500000 3.000000 0.000000 
vertex  -2.000000 3.000000 0.000000 
vertex  -2.500000 2.500000 0.000000 
endloop 
endfacet 
facet normal  0.000000 0.000000 -1.000000 
outer loop 
vertex  -1.500000 -4.000000 0.000000 
vertex  -2.000000 -3.500000 0.000000 
vertex  -1.500000 -3.500000 0.000000 
endloop 
endfacet 
facet normal  0.000000 0.000000 -1.000000 
outer loop 
vertex  -1.500000 3.500000 0.000000 
vertex  -2.000000 3.500000 0.000000 
vertex  -1.500000 4.000000 0.000000 
endloop 
endfacet 
facet normal  0.000000 0.000000 -1.000000 
outer loop 
vertex  -2.000000 -3.500000 0.000000 
vertex  -2.500000 -3.000000 0.000000 
vertex  -2.000000 -3.000000 0.000000 
endloop 
endfacet 
facet normal  0.000000 0.000000 -1.000000 
outer loop 
vertex  -2.000000 3.000000 0.000000 
vertex  -2.500000 3.000000 0.000000 
vertex  -2.000000 3.500000 0.000000 
endloop 
endfacet 
facet normal  0.000000 0.000000 -1.000000 
outer loop 
vertex  -1.500000 -3.000000 0.000000 
vertex  -1.500000 -3.500000 0.000000 
vertex  -2.000000 -3.000000 0.000000 
endloop 
endfacet 
facet normal  0.000000 0.000000 -1.000000 
outer loop 
vertex  -2.000000 3.000000 0.000000 
vertex  -1.500000 3.500000 0.000000 
vertex  -1.500000 3.000000 0.000000 
endloop 
endfacet 
facet normal  0.000000 0.000000 -1.000000 
outer loop 
vertex  -1.500000 -3.500000 0.000000 
vertex  -2.000000 -3.500000 0.000000 
vertex  -2.000000 -3.000000 0.000000 
endloop 
endfacet 
facet normal  0.000000 0.000000 -1.000000 
outer loop 
vertex  -2.000000 3.000000 0.000000 
vertex  -2.000000 3.500000 0.000000 
vertex  -1.500000 3.500000 0.000000 
endloop 
endfacet 
facet normal  0.000000 0.000000 -1.000000 
outer loop 
vertex  0.500000 -4.000000 0.000000 
vertex  0.000000 -4.000000 0.000000 
vertex  0.000000 -3.500000 0.000000 
endloop 
endfacet 
facet normal  0.000000 0.000000 -1.000000 
outer loop 
vertex  0.000000 3.500000 0.000000 
vertex  0.000000 4.000000 0.000000 
vertex  0.500000 4.000000 0.000000 
endloop 
endfacet 
facet normal  0.000000 0.000000 -1.000000 
outer loop 
vertex  -1.000000 -4.000000 0.000000 
vertex  -1.000000 -3.500000 0.000000 
vertex  -0.500000 -4.000000 0.000000 
endloop 
endfacet 
facet normal  0.000000 0.000000 -1.000000 
outer loop 
vertex  -0.500000 4.000000 0.000000 
vertex  -1.000000 3.500000 0.000000 
vertex  -1.000000 4.000000 0.000000 
endloop 
endfacet 
facet normal  0.000000 0.000000 -1.000000 
outer loop 
vertex  -2.000000 -2.500000 0.000000 
vertex  -1.500000 -2.500000 0.000000 
vertex  -1.500000 -3.000000 0.000000 
endloop 
endfacet 
facet normal  0.000000 0.000000 -1.000000 
outer loop 
vertex  -1.500000 3.000000 0.000000 
vertex  -1.500000 2.500000 0.000000 
vertex  -2.000000 2.500000 0.000000 
endloop 
endfacet 
facet normal  0.000000 0.000000 -1.000000 
outer loop 
vertex  -1.000000 -3.500000 0.000000 
vertex  -1.000000 -3.000000 0.000000 
vertex  -0.500000 -3.500000 0.000000 
endloop 
endfacet 
facet normal  0.000000 0.000000 -1.000000 
outer loop 
vertex  -0.500000 3.500000 0.000000 
vertex  -1.000000 3.000000 0.000000 
vertex  -1.000000 3.500000 0.000000 
endloop 
endfacet 
facet normal  0.000000 0.000000 -1.000000 
outer loop 
vertex  -1.000000 -2.500000 0.000000 
vertex  -1.000000 -2.000000 0.000000 
vertex  -0.500000 -2.500000 0.000000 
endloop 
endfacet 
facet normal  0.000000 0.000000 -1.000000 
outer loop 
vertex  -0.500000 2.500000 0.000000 
vertex  -1.000000 2.000000 0.000000 
vertex  -1.000000 2.500000 0.000000 
endloop 
endfacet 
facet normal  0.000000 0.000000 -1.000000 
outer loop 
vertex  -1.000000 -3.500000 0.000000 
vertex  -0.500000 -3.500000 0.000000 
vertex  -0.500000 -4.000000 0.000000 
endloop 
endfacet 
facet normal  0.000000 0.000000 -1.000000 
outer loop 
vertex  -0.500000 4.000000 0.000000 
vertex  -0.500000 3.500000 0.000000 
vertex  -1.000000 3.500000 0.000000 
endloop 
endfacet 
facet normal  0.000000 0.000000 -1.000000 
outer loop 
vertex  0.000000 -2.500000 0.000000 
vertex  0.500000 -3.000000 0.000000 
vertex  0.000000 -3.000000 0.000000 
endloop 
endfacet 
facet normal  0.000000 0.000000 -1.000000 
outer loop 
vertex  0.000000 3.000000 0.000000 
vertex  0.500000 3.000000 0.000000 
vertex  0.000000 2.500000 0.000000 
endloop 
endfacet 
facet normal  0.000000 0.000000 -1.000000 
outer loop 
vertex  -1.500000 -2.000000 0.000000 
vertex  -1.000000 -2.000000 0.000000 
vertex  -1.000000 -2.500000 0.000000 
endloop 
endfacet 
facet normal  0.000000 0.000000 -1.000000 
outer loop 
vertex  -1.000000 2.500000 0.000000 
vertex  -1.000000 2.000000 0.000000 
vertex  -1.500000 2.000000 0.000000 
endloop 
endfacet 
facet normal  0.000000 0.000000 -1.000000 
outer loop 
vertex  -1.000000 -2.000000 0.000000 
vertex  -1.000000 -1.500000 0.000000 
vertex  -0.500000 -2.000000 0.000000 
endloop 
endfacet 
facet normal  0.000000 0.000000 -1.000000 
outer loop 
vertex  -0.500000 2.000000 0.000000 
vertex  -1.000000 1.500000 0.000000 
vertex  -1.000000 2.000000 0.000000 
endloop 
endfacet 
facet normal  0.000000 0.000000 -1.000000 
outer loop 
vertex  -0.500000 -3.000000 0.000000 
vertex  0.000000 -3.000000 0.000000 
vertex  0.000000 -3.500000 0.000000 
endloop 
endfacet 
facet normal  0.000000 0.000000 -1.000000 
outer loop 
vertex  0.000000 3.500000 0.000000 
vertex  0.000000 3.000000 0.000000 
vertex  -0.500000 3.000000 0.000000 
endloop 
endfacet 
facet normal  0.000000 0.000000 -1.000000 
outer loop 
vertex  -0.500000 -2.500000 0.000000 
vertex  -1.000000 -2.000000 0.000000 
vertex  -0.500000 -2.000000 0.000000 
endloop 
endfacet 
facet normal  0.000000 0.000000 -1.000000 
outer loop 
vertex  -0.500000 2.000000 0.000000 
vertex  -1.000000 2.000000 0.000000 
vertex  -0.500000 2.500000 0.000000 
endloop 
endfacet 
facet normal  0.000000 0.000000 -1.000000 
outer loop 
vertex  -1.500000 -3.500000 0.000000 
vertex  -1.500000 -3.000000 0.000000 
vertex  -1.000000 -3.500000 0.000000 
endloop 
endfacet 
facet normal  0.000000 0.000000 -1.000000 
outer loop 
vertex  -1.000000 3.500000 0.000000 
vertex  -1.500000 3.000000 0.000000 
vertex  -1.500000 3.500000 0.000000 
endloop 
endfacet 
facet normal  0.000000 0.000000 -1.000000 
outer loop 
vertex  -1.500000 -3.000000 0.000000 
vertex  -1.500000 -2.500000 0.000000 
vertex  -1.000000 -3.000000 0.000000 
endloop 
endfacet 
facet normal  0.000000 0.000000 -1.000000 
outer loop 
vertex  -1.000000 3.000000 0.000000 
vertex  -1.500000 2.500000 0.000000 
vertex  -1.500000 3.000000 0.000000 
endloop 
endfacet 
facet normal  0.000000 0.000000 -1.000000 
outer loop 
vertex  -1.000000 -2.000000 0.000000 
vertex  -1.500000 -2.000000 0.000000 
vertex  -1.500000 -1.500000 0.000000 
endloop 
endfacet 
facet normal  0.000000 0.000000 -1.000000 
outer loop 
vertex  -1.500000 1.500000 0.000000 
vertex  -1.500000 2.000000 0.000000 
vertex  -1.000000 2.000000 0.000000 
endloop 
endfacet 
facet normal  0.000000 0.000000 -1.000000 
outer loop 
vertex  -1.500000 -2.000000 0.000000 
vertex  -2.000000 -1.500000 0.000000 
vertex  -1.500000 -1.500000 0.000000 
endloop 
endfacet 
facet normal  0.000000 0.000000 -1.000000 
outer loop 
vertex  -1.500000 1.500000 0.000000 
vertex  -2.000000 1.500000 0.000000 
vertex  -1.500000 2.000000 0.000000 
endloop 
endfacet 
facet normal  0.000000 0.000000 -1.000000 
outer loop 
vertex  -1.500000 -2.500000 0.000000 
vertex  -1.000000 -2.500000 0.000000 
vertex  -1.000000 -3.000000 0.000000 
endloop 
endfacet 
facet normal  0.000000 0.000000 -1.000000 
outer loop 
vertex  -1.000000 3.000000 0.000000 
vertex  -1.000000 2.500000 0.000000 
vertex  -1.500000 2.500000 0.000000 
endloop 
endfacet 
facet normal  0.000000 0.000000 -1.000000 
outer loop 
vertex  -1.000000 -2.500000 0.000000 
vertex  -0.500000 -3.000000 0.000000 
vertex  -1.000000 -3.000000 0.000000 
endloop 
endfacet 
facet normal  0.000000 0.000000 -1.000000 
outer loop 
vertex  -1.000000 3.000000 0.000000 
vertex  -0.500000 3.000000 0.000000 
vertex  -1.000000 2.500000 0.000000 
endloop 
endfacet 
facet normal  0.000000 0.000000 -1.000000 
outer loop 
vertex  -2.500000 -2.500000 0.000000 
vertex  -2.500000 -2.000000 0.000000 
vertex  -2.000000 -2.500000 0.000000 
endloop 
endfacet 
facet normal  0.000000 0.000000 -1.000000 
outer loop 
vertex  -2.000000 2.500000 0.000000 
vertex  -2.500000 2.000000 0.000000 
vertex  -2.500000 2.500000 0.000000 
endloop 
endfacet 
facet normal  0.000000 0.000000 -1.000000 
outer loop 
vertex  -2.500000 -2.000000 0.000000 
vertex  -2.500000 -1.500000 0.000000 
vertex  -2.000000 -2.000000 0.000000 
endloop 
endfacet 
facet normal  0.000000 0.000000 -1.000000 
outer loop 
vertex  -2.000000 2.000000 0.000000 
vertex  -2.500000 1.500000 0.000000 
vertex  -2.500000 2.000000 0.000000 
endloop 
endfacet 
facet normal  0.000000 0.000000 -1.000000 
outer loop 
vertex  -2.000000 -1.500000 0.000000 
vertex  -2.500000 -1.000000 0.000000 
vertex  -2.000000 -1.000000 0.000000 
endloop 
endfacet 
facet normal  0.000000 0.000000 -1.000000 
outer loop 
vertex  -2.000000 1.000000 0.000000 
vertex  -2.500000 1.000000 0.000000 
vertex  -2.000000 1.500000 0.000000 
endloop 
endfacet 
facet normal  0.000000 0.000000 -1.000000 
outer loop 
vertex  -2.500000 -1.500000 0.000000 
vertex  -2.500000 -2.000000 0.000000 
vertex  -3.000000 -1.500000 0.000000 
endloop 
endfacet 
facet normal  0.000000 0.000000 -1.000000 
outer loop 
vertex  -3.000000 1.500000 0.000000 
vertex  -2.500000 2.000000 0.000000 
vertex  -2.500000 1.500000 0.000000 
endloop 
endfacet 
facet normal  0.000000 0.000000 -1.000000 
outer loop 
vertex  -1.500000 -1.500000 0.000000 
vertex  -2.000000 -1.000000 0.000000 
vertex  -1.500000 -1.000000 0.000000 
endloop 
endfacet 
facet normal  0.000000 0.000000 -1.000000 
outer loop 
vertex  -1.500000 1.000000 0.000000 
vertex  -2.000000 1.000000 0.000000 
vertex  -1.500000 1.500000 0.000000 
endloop 
endfacet 
facet normal  0.000000 0.000000 -1.000000 
outer loop 
vertex  -2.000000 -1.500000 0.000000 
vertex  -2.000000 -2.000000 0.000000 
vertex  -2.500000 -1.500000 0.000000 
endloop 
endfacet 
facet normal  0.000000 0.000000 -1.000000 
outer loop 
vertex  -2.500000 1.500000 0.000000 
vertex  -2.000000 2.000000 0.000000 
vertex  -2.000000 1.500000 0.000000 
endloop 
endfacet 
facet normal  0.000000 0.000000 -1.000000 
outer loop 
vertex  -2.000000 -1.500000 0.000000 
vertex  -2.000000 -1.000000 0.000000 
vertex  -1.500000 -1.500000 0.000000 
endloop 
endfacet 
facet normal  0.000000 0.000000 -1.000000 
outer loop 
vertex  -1.500000 1.500000 0.000000 
vertex  -2.000000 1.000000 0.000000 
vertex  -2.000000 1.500000 0.000000 
endloop 
endfacet 
facet normal  0.000000 0.000000 -1.000000 
outer loop 
vertex  -3.500000 -1.000000 0.000000 
vertex  -3.500000 -0.500000 0.000000 
vertex  -3.000000 -1.000000 0.000000 
endloop 
endfacet 
facet normal  0.000000 0.000000 -1.000000 
outer loop 
vertex  -3.000000 1.000000 0.000000 
vertex  -3.500000 0.500000 0.000000 
vertex  -3.500000 1.000000 0.000000 
endloop 
endfacet 
facet normal  0.000000 0.000000 -1.000000 
outer loop 
vertex  -1.500000 -1.500000 0.000000 
vertex  -1.500000 -1.000000 0.000000 
vertex  -1.000000 -1.500000 0.000000 
endloop 
endfacet 
facet normal  0.000000 0.000000 -1.000000 
outer loop 
vertex  -1.000000 1.500000 0.000000 
vertex  -1.500000 1.000000 0.000000 
vertex  -1.500000 1.500000 0.000000 
endloop 
endfacet 
facet normal  0.000000 0.000000 -1.000000 
outer loop 
vertex  -1.500000 -0.500000 0.000000 
vertex  -1.000000 -0.500000 0.000000 
vertex  -1.000000 -1.000000 0.000000 
endloop 
endfacet 
facet normal  0.000000 0.000000 -1.000000 
outer loop 
vertex  -1.000000 1.000000 0.000000 
vertex  -1.000000 0.500000 0.000000 
vertex  -1.500000 0.500000 0.000000 
endloop 
endfacet 
facet normal  0.000000 0.000000 -1.000000 
outer loop 
vertex  -1.000000 -0.500000 0.000000 
vertex  -0.500000 -0.500000 0.000000 
vertex  -0.500000 -1.000000 0.000000 
endloop 
endfacet 
facet normal  0.000000 0.000000 -1.000000 
outer loop 
vertex  -0.500000 1.000000 0.000000 
vertex  -0.500000 0.500000 0.000000 
vertex  -1.000000 0.500000 0.000000 
endloop 
endfacet 
facet normal  0.000000 0.000000 -1.000000 
outer loop 
vertex  -1.000000 -0.500000 0.000000 
vertex  -1.500000 0.000000 0.000000 
vertex  -1.000000 0.000000 0.000000 
endloop 
endfacet 
facet normal  0.000000 0.000000 -1.000000 
outer loop 
vertex  -1.000000 -0.000000 0.000000 
vertex  -1.500000 -0.000000 0.000000 
vertex  -1.000000 0.500000 0.000000 
endloop 
endfacet 
facet normal  0.000000 0.000000 -1.000000 
outer loop 
vertex  -1.000000 -0.500000 0.000000 
vertex  -0.500000 -1.000000 0.000000 
vertex  -1.000000 -1.000000 0.000000 
endloop 
endfacet 
facet normal  0.000000 0.000000 -1.000000 
outer loop 
vertex  -1.000000 1.000000 0.000000 
vertex  -0.500000 1.000000 0.000000 
vertex  -1.000000 0.500000 0.000000 
endloop 
endfacet 
facet normal  0.000000 0.000000 -1.000000 
outer loop 
vertex  0.500000 -1.000000 0.000000 
vertex  0.500000 -1.500000 0.000000 
vertex  0.000000 -1.000000 0.000000 
endloop 
endfacet 
facet normal  0.000000 0.000000 -1.000000 
outer loop 
vertex  0.000000 1.000000 0.000000 
vertex  0.500000 1.500000 0.000000 
vertex  0.500000 1.000000 0.000000 
endloop 
endfacet 
facet normal  0.000000 0.000000 -1.000000 
outer loop 
vertex  -2.000000 -1.000000 0.000000 
vertex  -2.000000 -0.500000 0.000000 
vertex  -1.500000 -1.000000 0.000000 
endloop 
endfacet 
facet normal  0.000000 0.000000 -1.000000 
outer loop 
vertex  -1.500000 1.000000 0.000000 
vertex  -2.000000 0.500000 0.000000 
vertex  -2.000000 1.000000 0.000000 
endloop 
endfacet 
facet normal  0.000000 0.000000 -1.000000 
outer loop 
vertex  -2.000000 -0.500000 0.000000 
vertex  -2.000000 0.000000 0.000000 
vertex  -1.500000 -0.500000 0.000000 
endloop 
endfacet 
facet normal  0.000000 0.000000 -1.000000 
outer loop 
vertex  -1.500000 0.500000 0.000000 
vertex  -2.000000 -0.000000 0.000000 
vertex  -2.000000 0.500000 0.000000 
endloop 
endfacet 
facet normal  0.000000 0.000000 -1.000000 
outer loop 
vertex  -1.500000 -1.000000 0.000000 
vertex  -1.500000 -0.500000 0.000000 
vertex  -1.000000 -1.000000 0.000000 
endloop 
endfacet 
facet normal  0.000000 0.000000 -1.000000 
outer loop 
vertex  -1.000000 1.000000 0.000000 
vertex  -1.500000 0.500000 0.000000 
vertex  -1.500000 1.000000 0.000000 
endloop 
endfacet 
facet normal  0.000000 0.000000 -1.000000 
outer loop 
vertex  -1.500000 -0.500000 0.000000 
vertex  -1.500000 0.000000 0.000000 
vertex  -1.000000 -0.500000 0.000000 
endloop 
endfacet 
facet normal  0.000000 0.000000 -1.000000 
outer loop 
vertex  -1.000000 0.500000 0.000000 
vertex  -1.500000 -0.000000 0.000000 
vertex  -1.500000 0.500000 0.000000 
endloop 
endfacet 
facet normal  0.000000 0.000000 -1.000000 
outer loop 
vertex  -3.000000 -1.000000 0.000000 
vertex  -3.000000 -0.500000 0.000000 
vertex  -2.500000 -1.000000 0.000000 
endloop 
endfacet 
facet normal  0.000000 0.000000 -1.000000 
outer loop 
vertex  -2.500000 1.000000 0.000000 
vertex  -3.000000 0.500000 0.000000 
vertex  -3.000000 1.000000 0.000000 
endloop 
endfacet 
facet normal  0.000000 0.000000 -1.000000 
outer loop 
vertex  -2.000000 -1.000000 0.000000 
vertex  -2.500000 -0.500000 0.000000 
vertex  -2.000000 -0.500000 0.000000 
endloop 
endfacet 
facet normal  0.000000 0.000000 -1.000000 
outer loop 
vertex  -2.000000 0.500000 0.000000 
vertex  -2.500000 0.500000 0.000000 
vertex  -2.000000 1.000000 0.000000 
endloop 
endfacet 
facet normal  0.000000 0.000000 -1.000000 
outer loop 
vertex  -2.500000 0.000000 0.000000 
vertex  -2.000000 0.000000 0.000000 
vertex  -2.000000 -0.500000 0.000000 
endloop 
endfacet 
facet normal  0.000000 0.000000 -1.000000 
outer loop 
vertex  -2.000000 0.500000 0.000000 
vertex  -2.000000 -0.000000 0.000000 
vertex  -2.500000 -0.000000 0.000000 
endloop 
endfacet 
facet normal  0.000000 0.000000 -1.000000 
outer loop 
vertex  -3.000000 -2.500000 0.000000 
vertex  -3.000000 -2.000000 0.000000 
vertex  -2.500000 -2.500000 0.000000 
endloop 
endfacet 
facet normal  0.000000 0.000000 -1.000000 
outer loop 
vertex  -2.500000 2.500000 0.000000 
vertex  -3.000000 2.000000 0.000000 
vertex  -3.000000 2.500000 0.000000 
endloop 
endfacet 
facet normal  0.000000 0.000000 -1.000000 
outer loop 
vertex  -3.000000 -2.000000 0.000000 
vertex  -3.000000 -1.500000 0.000000 
vertex  -2.500000 -2.000000 0.000000 
endloop 
endfacet 
facet normal  0.000000 0.000000 -1.000000 
outer loop 
vertex  -2.500000 2.000000 0.000000 
vertex  -3.000000 1.500000 0.000000 
vertex  -3.000000 2.000000 0.000000 
endloop 
endfacet 
facet normal  0.000000 0.000000 -1.000000 
outer loop 
vertex  -3.000000 -1.500000 0.000000 
vertex  -3.000000 -1.000000 0.000000 
vertex  -2.500000 -1.500000 0.000000 
endloop 
endfacet 
facet normal  0.000000 0.000000 -1.000000 
outer loop 
vertex  -2.500000 1.500000 0.000000 
vertex  -3.000000 1.000000 0.000000 
vertex  -3.000000 1.500000 0.000000 
endloop 
endfacet 
facet normal  0.000000 0.000000 -1.000000 
outer loop 
vertex  -3.000000 -1.000000 0.000000 
vertex  -2.500000 -1.000000 0.000000 
vertex  -2.500000 -1.500000 0.000000 
endloop 
endfacet 
facet normal  0.000000 0.000000 -1.000000 
outer loop 
vertex  -2.500000 1.500000 0.000000 
vertex  -2.500000 1.000000 0.000000 
vertex  -3.000000 1.000000 0.000000 
endloop 
endfacet 
facet normal  0.000000 0.000000 -1.000000 
outer loop 
vertex  -2.500000 -1.500000 0.000000 
vertex  -2.500000 -1.000000 0.000000 
vertex  -2.000000 -1.500000 0.000000 
endloop 
endfacet 
facet normal  0.000000 0.000000 -1.000000 
outer loop 
vertex  -2.000000 1.500000 0.000000 
vertex  -2.500000 1.000000 0.000000 
vertex  -2.500000 1.500000 0.000000 
endloop 
endfacet 
facet normal  0.000000 0.000000 -1.000000 
outer loop 
vertex  -2.500000 -1.000000 0.000000 
vertex  -2.500000 -0.500000 0.000000 
vertex  -2.000000 -1.000000 0.000000 
endloop 
endfacet 
facet normal  0.000000 0.000000 -1.000000 
outer loop 
vertex  -2.000000 1.000000 0.000000 
vertex  -2.500000 0.500000 0.000000 
vertex  -2.500000 1.000000 0.000000 
endloop 
endfacet 
facet normal  0.000000 0.000000 -1.000000 
outer loop 
vertex  -3.500000 -1.500000 0.000000 
vertex  -4.000000 -1.500000 0.000000 
vertex  -4.000000 -1.000000 0.000000 
endloop 
endfacet 
facet normal  0.000000 0.000000 -1.000000 
outer loop 
vertex  -4.000000 1.000000 0.000000 
vertex  -4.000000 1.500000 0.000000 
vertex  -3.500000 1.500000 0.000000 
endloop 
endfacet 
facet normal  0.000000 0.000000 -1.000000 
outer loop 
vertex  -4.000000 -1.500000 0.000000 
vertex  -3.500000 -1.500000 0.000000 
vertex  -3.500000 -2.000000 0.000000 
endloop 
endfacet 
facet normal  0.000000 0.000000 -1.000000 
outer loop 
vertex  -3.500000 2.000000 0.000000 
vertex  -3.500000 1.500000 0.000000 
vertex  -4.000000 1.500000 0.000000 
endloop 
endfacet 
facet normal  0.000000 0.000000 -1.000000 
outer loop 
vertex  -3.500000 -1.500000 0.000000 
vertex  -3.000000 -2.000000 0.000000 
vertex  -3.500000 -2.000000 0.000000 
endloop 
endfacet 
facet normal  0.000000 0.000000 -1.000000 
outer loop 
vertex  -3.500000 2.000000 0.000000 
vertex  -3.000000 2.000000 0.000000 
vertex  -3.500000 1.500000 0.000000 
endloop 
endfacet 
facet normal  0.000000 0.000000 -1.000000 
outer loop 
vertex  -3.500000 -1.000000 0.000000 
vertex  -4.000000 -1.000000 0.000000 
vertex  -4.000000 -0.500000 0.000000 
endloop 
endfacet 
facet normal  0.000000 0.000000 -1.000000 
outer loop 
vertex  -4.000000 0.500000 0.000000 
vertex  -4.000000 1.000000 0.000000 
vertex  -3.500000 1.000000 0.000000 
endloop 
endfacet 
facet normal  0.000000 0.000000 -1.000000 
outer loop 
vertex  -3.500000 -0.500000 0.000000 
vertex  -4.000000 0.000000 0.000000 
vertex  -3.500000 0.000000 0.000000 
endloop 
endfacet 
facet normal  0.000000 0.000000 -1.000000 
outer loop 
vertex  -3.500000 -0.000000 0.000000 
vertex  -4.000000 -0.000000 0.000000 
vertex  -3.500000 0.500000 0.000000 
endloop 
endfacet 
facet normal  0.000000 0.000000 -1.000000 
outer loop 
vertex  -3.500000 -0.500000 0.000000 
vertex  -4.000000 -0.500000 0.000000 
vertex  -4.000000 0.000000 0.000000 
endloop 
endfacet 
facet normal  0.000000 0.000000 -1.000000 
outer loop 
vertex  -4.000000 -0.000000 0.000000 
vertex  -4.000000 0.500000 0.000000 
vertex  -3.500000 0.500000 0.000000 
endloop 
endfacet 
facet normal  0.000000 0.000000 -1.000000 
outer loop 
vertex  -3.500000 0.000000 0.000000 
vertex  -3.000000 0.000000 0.000000 
vertex  -3.000000 -0.500000 0.000000 
endloop 
endfacet 
facet normal  0.000000 0.000000 -1.000000 
outer loop 
vertex  -3.000000 0.500000 0.000000 
vertex  -3.000000 -0.000000 0.000000 
vertex  -3.500000 -0.000000 0.000000 
endloop 
endfacet 
facet normal  0.000000 0.000000 -1.000000 
outer loop 
vertex  -2.500000 -0.500000 0.000000 
vertex  -3.000000 0.000000 0.000000 
vertex  -2.500000 0.000000 0.000000 
endloop 
endfacet 
facet normal  0.000000 0.000000 -1.000000 
outer loop 
vertex  -2.500000 -0.000000 0.000000 
vertex  -3.000000 -0.000000 0.000000 
vertex  -2.500000 0.500000 0.000000 
endloop 
endfacet 
facet normal  0.000000 0.000000 -1.000000 
outer loop 
vertex  -2.500000 -0.500000 0.000000 
vertex  -2.500000 0.000000 0.000000 
vertex  -2.000000 -0.500000 0.000000 
endloop 
endfacet 
facet normal  0.000000 0.000000 -1.000000 
outer loop 
vertex  -2.000000 0.500000 0.000000 
vertex  -2.500000 -0.000000 0.000000 
vertex  -2.500000 0.500000 0.000000 
endloop 
endfacet 
facet normal  0.000000 0.000000 -1.000000 
outer loop 
vertex  1.000000 0.000000 0.000000 
vertex  1.000000 -0.500000 0.000000 
vertex  0.500000 0.000000 0.000000 
endloop 
endfacet 
facet normal  0.000000 0.000000 -1.000000 
outer loop 
vertex  0.500000 -0.000000 0.000000 
vertex  1.000000 0.500000 0.000000 
vertex  1.000000 -0.000000 0.000000 
endloop 
endfacet 
facet normal  0.000000 0.000000 -1.000000 
outer loop 
vertex  -0.500000 0.000000 0.000000 
vertex  0.000000 -0.500000 0.000000 
vertex  -0.500000 -0.500000 0.000000 
endloop 
endfacet 
facet normal  0.000000 0.000000 -1.000000 
outer loop 
vertex  -0.500000 0.500000 0.000000 
vertex  0.000000 0.500000 0.000000 
vertex  -0.500000 -0.000000 0.000000 
endloop 
endfacet 
facet normal  0.000000 0.000000 -1.000000 
outer loop 
vertex  0.000000 -1.000000 0.000000 
vertex  -0.500000 -1.000000 0.000000 
vertex  -0.500000 -0.500000 0.000000 
endloop 
endfacet 
facet normal  0.000000 0.000000 -1.000000 
outer loop 
vertex  -0.500000 0.500000 0.000000 
vertex  -0.500000 1.000000 0.000000 
vertex  0.000000 1.000000 0.000000 
endloop 
endfacet 
facet normal  0.000000 0.000000 -1.000000 
outer loop 
vertex  0.000000 -1.000000 0.000000 
vertex  -0.500000 -0.500000 0.000000 
vertex  0.000000 -0.500000 0.000000 
endloop 
endfacet 
facet normal  0.000000 0.000000 -1.000000 
outer loop 
vertex  0.000000 0.500000 0.000000 
vertex  -0.500000 0.500000 0.000000 
vertex  0.000000 1.000000 0.000000 
endloop 
endfacet 
facet normal  0.000000 0.000000 -1.000000 
outer loop 
vertex  2.000000 -1.500000 0.000000 
vertex  1.500000 -1.500000 0.000000 
vertex  1.500000 -1.000000 0.000000 
endloop 
endfacet 
facet normal  0.000000 0.000000 -1.000000 
outer loop 
vertex  1.500000 1.000000 0.000000 
vertex  1.500000 1.500000 0.000000 
vertex  2.000000 1.500000 0.000000 
endloop 
endfacet 
facet normal  0.000000 0.000000 -1.000000 
outer loop 
vertex  0.000000 -0.500000 0.000000 
vertex  0.500000 -0.500000 0.000000 
vertex  0.500000 -1.000000 0.000000 
endloop 
endfacet 
facet normal  0.000000 0.000000 -1.000000 
outer loop 
vertex  0.500000 1.000000 0.000000 
vertex  0.500000 0.500000 0.000000 
vertex  0.000000 0.500000 0.000000 
endloop 
endfacet 
facet normal  0.000000 0.000000 -1.000000 
outer loop 
vertex  1.500000 -1.000000 0.000000 
vertex  1.000000 -0.500000 0.000000 
vertex  1.500000 -0.500000 0.000000 
endloop 
endfacet 
facet normal  0.000000 0.000000 -1.000000 
outer loop 
vertex  1.500000 0.500000 0.000000 
vertex  1.000000 0.500000 0.000000 
vertex  1.500000 1.000000 0.000000 
endloop 
endfacet 
facet normal  0.000000 0.000000 -1.000000 
outer loop 
vertex  2.000000 -2.000000 0.000000 
vertex  2.000000 -1.500000 0.000000 
vertex  2.500000 -2.000000 0.000000 
endloop 
endfacet 
facet normal  0.000000 0.000000 -1.000000 
outer loop 
vertex  2.500000 2.000000 0.000000 
vertex  2.000000 1.500000 0.000000 
vertex  2.000000 2.000000 0.000000 
endloop 
endfacet 
facet normal  0.000000 0.000000 -1.000000 
outer loop 
vertex  1.500000 -3.500000 0.000000 
vertex  1.000000 -3.000000 0.000000 
vertex  1.500000 -3.000000 0.000000 
endloop 
endfacet 
facet normal  0.000000 0.000000 -1.000000 
outer loop 
vertex  1.500000 3.000000 0.000000 
vertex  1.000000 3.000000 0.000000 
vertex  1.500000 3.500000 0.000000 
endloop 
endfacet 
facet normal  0.000000 0.000000 -1.000000 
outer loop 
vertex  1.000000 -2.500000 0.000000 
vertex  1.000000 -2.000000 0.000000 
vertex  1.500000 -2.500000 0.000000 
endloop 
endfacet 
facet normal  0.000000 0.000000 -1.000000 
outer loop 
vertex  1.500000 2.500000 0.000000 
vertex  1.000000 2.000000 0.000000 
vertex  1.000000 2.500000 0.000000 
endloop 
endfacet 
facet normal  0.000000 0.000000 -1.000000 
outer loop 
vertex  1.000000 -1.500000 0.000000 
vertex  1.500000 -1.500000 0.000000 
vertex  1.500000 -2.000000 0.000000 
endloop 
endfacet 
facet normal  0.000000 0.000000 -1.000000 
outer loop 
vertex  1.500000 2.000000 0.000000 
vertex  1.500000 1.500000 0.000000 
vertex  1.000000 1.500000 0.000000 
endloop 
endfacet 
facet normal  0.000000 0.000000 -1.000000 
outer loop 
vertex  1.000000 -3.000000 0.000000 
vertex  1.500000 -3.500000 0.000000 
vertex  1.000000 -3.500000 0.000000 
endloop 
endfacet 
facet normal  0.000000 0.000000 -1.000000 
outer loop 
vertex  1.000000 3.500000 0.000000 
vertex  1.500000 3.500000 0.000000 
vertex  1.000000 3.000000 0.000000 
endloop 
endfacet 
facet normal  0.000000 0.000000 -1.000000 
outer loop 
vertex  1.500000 -2.000000 0.000000 
vertex  2.000000 -2.000000 0.000000 
vertex  2.000000 -2.500000 0.000000 
endloop 
endfacet 
facet normal  0.000000 0.000000 -1.000000 
outer loop 
vertex  2.000000 2.500000 0.000000 
vertex  2.000000 2.000000 0.000000 
vertex  1.500000 2.000000 0.000000 
endloop 
endfacet 
facet normal  0.000000 0.000000 -1.000000 
outer loop 
vertex  1.000000 -2.000000 0.000000 
vertex  1.000000 -1.500000 0.000000 
vertex  1.500000 -2.000000 0.000000 
endloop 
endfacet 
facet normal  0.000000 0.000000 -1.000000 
outer loop 
vertex  1.500000 2.000000 0.000000 
vertex  1.000000 1.500000 0.000000 
vertex  1.000000 2.000000 0.000000 
endloop 
endfacet 
facet normal  0.000000 0.000000 -1.000000 
outer loop 
vertex  1.000000 -1.000000 0.000000 
vertex  1.500000 -1.000000 0.000000 
vertex  1.500000 -1.500000 0.000000 
endloop 
endfacet 
facet normal  0.000000 0.000000 -1.000000 
outer loop 
vertex  1.500000 1.500000 0.000000 
vertex  1.500000 1.000000 0.000000 
vertex  1.000000 1.000000 0.000000 
endloop 
endfacet 
facet normal  0.000000 0.000000 -1.000000 
outer loop 
vertex  1.500000 -1.500000 0.000000 
vertex  1.000000 -1.500000 0.000000 
vertex  1.000000 -1.000000 0.000000 
endloop 
endfacet 
facet normal  0.000000 0.000000 -1.000000 
outer loop 
vertex  1.000000 1.000000 0.000000 
vertex  1.000000 1.500000 0.000000 
vertex  1.500000 1.500000 0.000000 
endloop 
endfacet 
facet normal  0.000000 0.000000 -1.000000 
outer loop 
vertex  1.500000 -0.500000 0.000000 
vertex  1.000000 0.000000 0.000000 
vertex  1.500000 0.000000 0.000000 
endloop 
endfacet 
facet normal  0.000000 0.000000 -1.000000 
outer loop 
vertex  1.500000 -0.000000 0.000000 
vertex  1.000000 -0.000000 0.000000 
vertex  1.500000 0.500000 0.000000 
endloop 
endfacet 
facet normal  0.000000 0.000000 -1.000000 
outer loop 
vertex  0.500000 -1.000000 0.000000 
vertex  1.000000 -1.000000 0.000000 
vertex  1.000000 -1.500000 0.000000 
endloop 
endfacet 
facet normal  0.000000 0.000000 -1.000000 
outer loop 
vertex  1.000000 1.500000 0.000000 
vertex  1.000000 1.000000 0.000000 
vertex  0.500000 1.000000 0.000000 
endloop 
endfacet 
facet normal  0.000000 0.000000 -1.000000 
outer loop 
vertex  0.500000 -0.500000 0.000000 
vertex  0.500000 0.000000 0.000000 
vertex  1.000000 -0.500000 0.000000 
endloop 
endfacet 
facet normal  0.000000 0.000000 -1.000000 
outer loop 
vertex  1.000000 0.500000 0.000000 
vertex  0.500000 -0.000000 0.000000 
vertex  0.500000 0.500000 0.000000 
endloop 
endfacet 
facet normal  0.000000 0.000000 -1.000000 
outer loop 
vertex  1.500000 -1.000000 0.000000 
vertex  1.000000 -1.000000 0.000000 
vertex  1.000000 -0.500000 0.000000 
endloop 
endfacet 
facet normal  0.000000 0.000000 -1.000000 
outer loop 
vertex  1.000000 0.500000 0.000000 
vertex  1.000000 1.000000 0.000000 
vertex  1.500000 1.000000 0.000000 
endloop 
endfacet 
facet normal  0.000000 0.000000 -1.000000 
outer loop 
vertex  1.000000 -1.000000 0.000000 
vertex  0.500000 -0.500000 0.000000 
vertex  1.000000 -0.500000 0.000000 
endloop 
endfacet 
facet normal  0.000000 0.000000 -1.000000 
outer loop 
vertex  1.000000 0.500000 0.000000 
vertex  0.500000 0.500000 0.000000 
vertex  1.000000 1.000000 0.000000 
endloop 
endfacet 
facet normal  0.000000 0.000000 -1.000000 
outer loop 
vertex  -1.000000 -1.000000 0.000000 
vertex  -0.500000 -1.500000 0.000000 
vertex  -1.000000 -1.500000 0.000000 
endloop 
endfacet 
facet normal  0.000000 0.000000 -1.000000 
outer loop 
vertex  -1.000000 1.500000 0.000000 
vertex  -0.500000 1.500000 0.000000 
vertex  -1.000000 1.000000 0.000000 
endloop 
endfacet 
facet normal  0.000000 0.000000 -1.000000 
outer loop 
vertex  0.000000 0.000000 0.000000 
vertex  0.500000 -0.500000 0.000000 
vertex  0.000000 -0.500000 0.000000 
endloop 
endfacet 
facet normal  0.000000 0.000000 -1.000000 
outer loop 
vertex  0.000000 0.500000 0.000000 
vertex  0.500000 0.500000 0.000000 
vertex  0.000000 -0.000000 0.000000 
endloop 
endfacet 
facet normal  0.000000 0.000000 -1.000000 
outer loop 
vertex  -0.500000 -1.000000 0.000000 
vertex  0.000000 -1.000000 0.000000 
vertex  0.000000 -1.500000 0.000000 
endloop 
endfacet 
facet normal  0.000000 0.000000 -1.000000 
outer loop 
vertex  0.000000 1.500000 0.000000 
vertex  0.000000 1.000000 0.000000 
vertex  -0.500000 1.000000 0.000000 
endloop 
endfacet 
facet normal  0.000000 0.000000 -1.000000 
outer loop 
vertex  0.000000 -1.000000 0.000000 
vertex  0.500000 -1.500000 0.000000 
vertex  0.000000 -1.500000 0.000000 
endloop 
endfacet 
facet normal  0.000000 0.000000 -1.000000 
outer loop 
vertex  0.000000 1.500000 0.000000 
vertex  0.500000 1.500000 0.000000 
vertex  0.000000 1.000000 0.000000 
endloop 
endfacet 
facet normal  0.000000 0.000000 -1.000000 
outer loop 
vertex  0.000000 0.000000 0.000000 
vertex  0.000000 -0.500000 0.000000 
vertex  -0.500000 0.000000 0.000000 
endloop 
endfacet 
facet normal  0.000000 0.000000 -1.000000 
outer loop 
vertex  -0.500000 -0.000000 0.000000 
vertex  0.000000 0.500000 0.000000 
vertex  0.000000 -0.000000 0.000000 
endloop 
endfacet 
facet normal  0.000000 0.000000 -1.000000 
outer loop 
vertex  0.000000 -0.500000 0.000000 
vertex  0.500000 -1.000000 0.000000 
vertex  0.000000 -1.000000 0.000000 
endloop 
endfacet 
facet normal  0.000000 0.000000 -1.000000 
outer loop 
vertex  0.000000 1.000000 0.000000 
vertex  0.500000 1.000000 0.000000 
vertex  0.000000 0.500000 0.000000 
endloop 
endfacet 
facet normal  0.000000 0.000000 -1.000000 
outer loop 
vertex  0.000000 -1.500000 0.000000 
vertex  -0.500000 -1.500000 0.000000 
vertex  -0.500000 -1.000000 0.000000 
endloop 
endfacet 
facet normal  0.000000 0.000000 -1.000000 
outer loop 
vertex  -0.500000 1.000000 0.000000 
vertex  -0.500000 1.500000 0.000000 
vertex  0.000000 1.500000 0.000000 
endloop 
endfacet 
facet normal  0.000000 0.000000 -1.000000 
outer loop 
vertex  -0.500000 -1.500000 0.000000 
vertex  -1.000000 -1.000000 0.000000 
vertex  -0.500000 -1.000000 0.000000 
endloop 
endfacet 
facet normal  0.000000 0.000000 -1.000000 
outer loop 
vertex  -0.500000 1.000000 0.000000 
vertex  -1.000000 1.000000 0.000000 
vertex  -0.500000 1.500000 0.000000 
endloop 
endfacet 
facet normal  0.000000 0.000000 -1.000000 
outer loop 
vertex  0.500000 -3.000000 0.000000 
vertex  0.000000 -2.500000 0.000000 
vertex  0.500000 -2.500000 0.000000 
endloop 
endfacet 
facet normal  0.000000 0.000000 -1.000000 
outer loop 
vertex  0.500000 2.500000 0.000000 
vertex  0.000000 2.500000 0.000000 
vertex  0.500000 3.000000 0.000000 
endloop 
endfacet 
facet normal  0.000000 0.000000 -1.000000 
outer loop 
vertex  0.000000 -2.500000 0.000000 
vertex  -0.500000 -2.000000 0.000000 
vertex  0.000000 -2.000000 0.000000 
endloop 
endfacet 
facet normal  0.000000 0.000000 -1.000000 
outer loop 
vertex  0.000000 2.000000 0.000000 
vertex  -0.500000 2.000000 0.000000 
vertex  0.000000 2.500000 0.000000 
endloop 
endfacet 
facet normal  0.000000 0.000000 -1.000000 
outer loop 
vertex  0.000000 -2.500000 0.000000 
vertex  0.000000 -2.000000 0.000000 
vertex  0.500000 -2.500000 0.000000 
endloop 
endfacet 
facet normal  0.000000 0.000000 -1.000000 
outer loop 
vertex  0.500000 2.500000 0.000000 
vertex  0.000000 2.000000 0.000000 
vertex  0.000000 2.500000 0.000000 
endloop 
endfacet 
facet normal  0.000000 0.000000 -1.000000 
outer loop 
vertex  0.000000 -2.000000 0.000000 
vertex  0.000000 -1.500000 0.000000 
vertex  0.500000 -2.000000 0.000000 
endloop 
endfacet 
facet normal  0.000000 0.000000 -1.000000 
outer loop 
vertex  0.500000 2.000000 0.000000 
vertex  0.000000 1.500000 0.000000 
vertex  0.000000 2.000000 0.000000 
endloop 
endfacet 
facet normal  0.000000 0.000000 -1.000000 
outer loop 
vertex  0.500000 -3.000000 0.000000 
vertex  0.500000 -2.500000 0.000000 
vertex  1.000000 -3.000000 0.000000 
endloop 
endfacet 
facet normal  0.000000 0.000000 -1.000000 
outer loop 
vertex  1.000000 3.000000 0.000000 
vertex  0.500000 2.500000 0.000000 
vertex  0.500000 3.000000 0.000000 
endloop 
endfacet 
facet normal  0.000000 0.000000 -1.000000 
outer loop 
vertex  0.500000 -2.000000 0.000000 
vertex  1.000000 -2.000000 0.000000 
vertex  1.000000 -2.500000 0.000000 
endloop 
endfacet 
facet normal  0.000000 0.000000 -1.000000 
outer loop 
vertex  1.000000 2.500000 0.000000 
vertex  1.000000 2.000000 0.000000 
vertex  0.500000 2.000000 0.000000 
endloop 
endfacet 
facet normal  0.000000 0.000000 -1.000000 
outer loop 
vertex  0.500000 -1.500000 0.000000 
vertex  0.500000 -2.000000 0.000000 
vertex  0.000000 -1.500000 0.000000 
endloop 
endfacet 
facet normal  0.000000 0.000000 -1.000000 
outer loop 
vertex  0.000000 1.500000 0.000000 
vertex  0.500000 2.000000 0.000000 
vertex  0.500000 1.500000 0.000000 
endloop 
endfacet 
facet normal  0.000000 0.000000 -1.000000 
outer loop 
vertex  0.500000 -2.000000 0.000000 
vertex  1.000000 -2.500000 0.000000 
vertex  0.500000 -2.500000 0.000000 
endloop 
endfacet 
facet normal  0.000000 0.000000 -1.000000 
outer loop 
vertex  0.500000 2.500000 0.000000 
vertex  1.000000 2.500000 0.000000 
vertex  0.500000 2.000000 0.000000 
endloop 
endfacet 
facet normal  0.000000 0.000000 -1.000000 
outer loop 
vertex  0.500000 -1.500000 0.000000 
vertex  0.500000 -1.000000 0.000000 
vertex  1.000000 -1.500000 0.000000 
endloop 
endfacet 
facet normal  0.000000 0.000000 -1.000000 
outer loop 
vertex  1.000000 1.500000 0.000000 
vertex  0.500000 1.000000 0.000000 
vertex  0.500000 1.500000 0.000000 
endloop 
endfacet 
facet normal  0.000000 0.000000 -1.000000 
outer loop 
vertex  0.500000 -1.000000 0.000000 
vertex  0.500000 -0.500000 0.000000 
vertex  1.000000 -1.000000 0.000000 
endloop 
endfacet 
facet normal  0.000000 0.000000 -1.000000 
outer loop 
vertex  1.000000 1.000000 0.000000 
vertex  0.500000 0.500000 0.000000 
vertex  0.500000 1.000000 0.000000 
endloop 
endfacet 
facet normal  0.000000 0.000000 -1.000000 
outer loop 
vertex  0.000000 -4.000000 0.000000 
vertex  -0.500000 -3.500000 0.000000 
vertex  0.000000 -3.500000 0.000000 
endloop 
endfacet 
facet normal  0.000000 0.000000 -1.000000 
outer loop 
vertex  0.000000 3.500000 0.000000 
vertex  -0.500000 3.500000 0.000000 
vertex  0.000000 4.000000 0.000000 
endloop 
endfacet 
facet normal  0.000000 0.000000 -1.000000 
outer loop 
vertex  0.500000 -4.000000 0.000000 
vertex  0.000000 -3.500000 0.000000 
vertex  0.500000 -3.500000 0.000000 
endloop 
endfacet 
facet normal  0.000000 0.000000 -1.000000 
outer loop 
vertex  0.500000 3.500000 0.000000 
vertex  0.000000 3.500000 0.000000 
vertex  0.500000 4.000000 0.000000 
endloop 
endfacet 
facet normal  0.000000 0.000000 -1.000000 
outer loop 
vertex  1.500000 -3.500000 0.000000 
vertex  2.000000 -4.000000 0.000000 
vertex  1.500000 -4.000000 0.000000 
endloop 
endfacet 
facet normal  0.000000 0.000000 -1.000000 
outer loop 
vertex  1.500000 4.000000 0.000000 
vertex  2.000000 4.000000 0.000000 
vertex  1.500000 3.500000 0.000000 
endloop 
endfacet 
facet normal  0.000000 0.000000 -1.000000 
outer loop 
vertex  -0.500000 -3.500000 0.000000 
vertex  -0.500000 -3.000000 0.000000 
vertex  0.000000 -3.500000 0.000000 
endloop 
endfacet 
facet normal  0.000000 0.000000 -1.000000 
outer loop 
vertex  0.000000 3.500000 0.000000 
vertex  -0.500000 3.000000 0.000000 
vertex  -0.500000 3.500000 0.000000 
endloop 
endfacet 
facet normal  0.000000 0.000000 -1.000000 
outer loop 
vertex  -0.500000 -3.000000 0.000000 
vertex  -0.500000 -2.500000 0.000000 
vertex  0.000000 -3.000000 0.000000 
endloop 
endfacet 
facet normal  0.000000 0.000000 -1.000000 
outer loop 
vertex  0.000000 3.000000 0.000000 
vertex  -0.500000 2.500000 0.000000 
vertex  -0.500000 3.000000 0.000000 
endloop 
endfacet 
facet normal  0.000000 0.000000 -1.000000 
outer loop 
vertex  -0.500000 -3.500000 0.000000 
vertex  0.000000 -4.000000 0.000000 
vertex  -0.500000 -4.000000 0.000000 
endloop 
endfacet 
facet normal  0.000000 0.000000 -1.000000 
outer loop 
vertex  -0.500000 4.000000 0.000000 
vertex  0.000000 4.000000 0.000000 
vertex  -0.500000 3.500000 0.000000 
endloop 
endfacet 
facet normal  0.000000 0.000000 -1.000000 
outer loop 
vertex  0.000000 -3.000000 0.000000 
vertex  0.500000 -3.000000 0.000000 
vertex  0.500000 -3.500000 0.000000 
endloop 
endfacet 
facet normal  0.000000 0.000000 -1.000000 
outer loop 
vertex  0.500000 3.500000 0.000000 
vertex  0.500000 3.000000 0.000000 
vertex  0.000000 3.000000 0.000000 
endloop 
endfacet 
facet normal  0.000000 0.000000 -1.000000 
outer loop 
vertex  0.000000 -2.500000 0.000000 
vertex  0.000000 -3.000000 0.000000 
vertex  -0.500000 -2.500000 0.000000 
endloop 
endfacet 
facet normal  0.000000 0.000000 -1.000000 
outer loop 
vertex  -0.500000 2.500000 0.000000 
vertex  0.000000 3.000000 0.000000 
vertex  0.000000 2.500000 0.000000 
endloop 
endfacet 
facet normal  0.000000 0.000000 -1.000000 
outer loop 
vertex  0.000000 -3.000000 0.000000 
vertex  0.500000 -3.500000 0.000000 
vertex  0.000000 -3.500000 0.000000 
endloop 
endfacet 
facet normal  0.000000 0.000000 -1.000000 
outer loop 
vertex  0.000000 3.500000 0.000000 
vertex  0.500000 3.500000 0.000000 
vertex  0.000000 3.000000 0.000000 
endloop 
endfacet 
facet normal  0.000000 0.000000 -1.000000 
outer loop 
vertex  1.000000 -4.000000 0.000000 
vertex  0.500000 -4.000000 0.000000 
vertex  0.500000 -3.500000 0.000000 
endloop 
endfacet 
facet normal  0.000000 0.000000 -1.000000 
outer loop 
vertex  0.500000 3.500000 0.000000 
vertex  0.500000 4.000000 0.000000 
vertex  1.000000 4.000000 0.000000 
endloop 
endfacet 
facet normal  0.000000 0.000000 -1.000000 
outer loop 
vertex  1.000000 -3.500000 0.000000 
vertex  1.000000 -4.000000 0.000000 
vertex  0.500000 -3.500000 0.000000 
endloop 
endfacet 
facet normal  0.000000 0.000000 -1.000000 
outer loop 
vertex  0.500000 3.500000 0.000000 
vertex  1.000000 4.000000 0.000000 
vertex  1.000000 3.500000 0.000000 
endloop 
endfacet 
facet normal  0.000000 0.000000 -1.000000 
outer loop 
vertex  1.000000 -3.500000 0.000000 
vertex  1.500000 -4.000000 0.000000 
vertex  1.000000 -4.000000 0.000000 
endloop 
endfacet 
facet normal  0.000000 0.000000 -1.000000 
outer loop 
vertex  1.000000 4.000000 0.000000 
vertex  1.500000 4.000000 0.000000 
vertex  1.000000 3.500000 0.000000 
endloop 
endfacet 
facet normal  0.000000 0.000000 -1.000000 
outer loop 
vertex  1.000000 -3.500000 0.000000 
vertex  1.500000 -3.500000 0.000000 
vertex  1.500000 -4.000000 0.000000 
endloop 
endfacet 
facet normal  0.000000 0.000000 -1.000000 
outer loop 
vertex  1.500000 4.000000 0.000000 
vertex  1.500000 3.500000 0.000000 
vertex  1.000000 3.500000 0.000000 
endloop 
endfacet 
facet normal  0.000000 0.000000 -1.000000 
outer loop 
vertex  3.000000 -3.000000 0.000000 
vertex  2.500000 -3.000000 0.000000 
vertex  2.500000 -2.500000 0.000000 
endloop 
endfacet 
facet normal  0.000000 0.000000 -1.000000 
outer loop 
vertex  2.500000 2.500000 0.000000 
vertex  2.500000 3.000000 0.000000 
vertex  3.000000 3.000000 0.000000 
endloop 
endfacet 
facet normal  0.000000 0.000000 -1.000000 
outer loop 
vertex  2.500000 -2.500000 0.000000 
vertex  2.000000 -2.500000 0.000000 
vertex  2.000000 -2.000000 0.000000 
endloop 
endfacet 
facet normal  0.000000 0.000000 -1.000000 
outer loop 
vertex  2.000000 2.000000 0.000000 
vertex  2.000000 2.500000 0.000000 
vertex  2.500000 2.500000 0.000000 
endloop 
endfacet 
facet normal  0.000000 0.000000 -1.000000 
outer loop 
vertex  2.000000 -3.500000 0.000000 
vertex  2.000000 -4.000000 0.000000 
vertex  1.500000 -3.500000 0.000000 
endloop 
endfacet 
facet normal  0.000000 0.000000 -1.000000 
outer loop 
vertex  1.500000 3.500000 0.000000 
vertex  2.000000 4.000000 0.000000 
vertex  2.000000 3.500000 0.000000 
endloop 
endfacet 
facet normal  0.000000 0.000000 -1.000000 
outer loop 
vertex  2.000000 -3.500000 0.000000 
vertex  1.500000 -3.000000 0.000000 
vertex  2.000000 -3.000000 0.000000 
endloop 
endfacet 
facet normal  0.000000 0.000000 -1.000000 
outer loop 
vertex  2.000000 3.000000 0.000000 
vertex  1.500000 3.000000 0.000000 
vertex  2.000000 3.500000 0.000000 
endloop 
endfacet 
facet normal  0.000000 0.000000 -1.000000 
outer loop 
vertex  1.500000 -3.000000 0.000000 
vertex  1.000000 -2.500000 0.000000 
vertex  1.500000 -2.500000 0.000000 
endloop 
endfacet 
facet normal  0.000000 0.000000 -1.000000 
outer loop 
vertex  1.500000 2.500000 0.000000 
vertex  1.000000 2.500000 0.000000 
vertex  1.500000 3.000000 0.000000 
endloop 
endfacet 
facet normal  0.000000 0.000000 -1.000000 
outer loop 
vertex  1.500000 -2.500000 0.000000 
vertex  2.000000 -3.000000 0.000000 
vertex  1.500000 -3.000000 0.000000 
endloop 
endfacet 
facet normal  0.000000 0.000000 -1.000000 
outer loop 
vertex  1.500000 3.000000 0.000000 
vertex  2.000000 3.000000 0.000000 
vertex  1.500000 2.500000 0.000000 
endloop 
endfacet 
facet normal  0.000000 0.000000 -1.000000 
outer loop 
vertex  2.000000 -3.000000 0.000000 
vertex  2.500000 -3.500000 0.000000 
vertex  2.000000 -3.500000 0.000000 
endloop 
endfacet 
facet normal  0.000000 0.000000 -1.000000 
outer loop 
vertex  2.000000 3.500000 0.000000 
vertex  2.500000 3.500000 0.000000 
vertex  2.000000 3.000000 0.000000 
endloop 
endfacet 
facet normal  0.000000 0.000000 -1.000000 
outer loop 
vertex  1.500000 -2.500000 0.000000 
vertex  2.000000 -2.500000 0.000000 
vertex  2.000000 -3.000000 0.000000 
endloop 
endfacet 
facet normal  0.000000 0.000000 -1.000000 
outer loop 
vertex  2.000000 3.000000 0.000000 
vertex  2.000000 2.500000 0.000000 
vertex  1.500000 2.500000 0.000000 
endloop 
endfacet 
facet normal  0.000000 0.000000 -1.000000 
outer loop 
vertex  2.000000 -2.500000 0.000000 
vertex  2.500000 -3.000000 0.000000 
vertex  2.000000 -3.000000 0.000000 
endloop 
endfacet 
facet normal  0.000000 0.000000 -1.000000 
outer loop 
vertex  2.000000 3.000000 0.000000 
vertex  2.500000 3.000000 0.000000 
vertex  2.000000 2.500000 0.000000 
endloop 
endfacet 
facet normal  0.000000 0.000000 -1.000000 
outer loop 
vertex  3.000000 -2.500000 0.000000 
vertex  2.500000 -2.500000 0.000000 
vertex  2.500000 -2.000000 0.000000 
endloop 
endfacet 
facet normal  0.000000 0.000000 -1.000000 
outer loop 
vertex  2.500000 2.000000 0.000000 
vertex  2.500000 2.500000 0.000000 
vertex  3.000000 2.500000 0.000000 
endloop 
endfacet 
facet normal  0.000000 0.000000 -1.000000 
outer loop 
vertex  2.500000 -2.000000 0.000000 
vertex  2.500000 -2.500000 0.000000 
vertex  2.000000 -2.000000 0.000000 
endloop 
endfacet 
facet normal  0.000000 0.000000 -1.000000 
outer loop 
vertex  2.000000 2.000000 0.000000 
vertex  2.500000 2.500000 0.000000 
vertex  2.500000 2.000000 0.000000 
endloop 
endfacet 
facet normal  0.000000 0.000000 -1.000000 
outer loop 
vertex  2.500000 -2.500000 0.000000 
vertex  2.500000 -3.000000 0.000000 
vertex  2.000000 -2.500000 0.000000 
endloop 
endfacet 
facet normal  0.000000 0.000000 -1.000000 
outer loop 
vertex  2.000000 2.500000 0.000000 
vertex  2.500000 3.000000 0.000000 
vertex  2.500000 2.500000 0.000000 
endloop 
endfacet 
facet normal  0.000000 0.000000 -1.000000 
outer loop 
vertex  2.500000 -3.000000 0.000000 
vertex  2.500000 -3.500000 0.000000 
vertex  2.000000 -3.000000 0.000000 
endloop 
endfacet 
facet normal  0.000000 0.000000 -1.000000 
outer loop 
vertex  2.000000 3.000000 0.000000 
vertex  2.500000 3.500000 0.000000 
vertex  2.500000 3.000000 0.000000 
endloop 
endfacet 
facet normal  0.000000 0.000000 -1.000000 
outer loop 
vertex  3.000000 -3.500000 0.000000 
vertex  2.500000 -3.000000 0.000000 
vertex  3.000000 -3.000000 0.000000 
endloop 
endfacet 
facet normal  0.000000 0.000000 -1.000000 
outer loop 
vertex  3.000000 3.000000 0.000000 
vertex  2.500000 3.000000 0.000000 
vertex  3.000000 3.500000 0.000000 
endloop 
endfacet 
facet normal  0.000000 0.000000 -1.000000 
outer loop 
vertex  2.500000 -3.500000 0.000000 
vertex  2.500000 -3.000000 0.000000 
vertex  3.000000 -3.500000 0.000000 
endloop 
endfacet 
facet normal  0.000000 0.000000 -1.000000 
outer loop 
vertex  3.000000 3.500000 0.000000 
vertex  2.500000 3.000000 0.000000 
vertex  2.500000 3.500000 0.000000 
endloop 
endfacet 
facet normal  0.000000 0.000000 -1.000000 
outer loop 
vertex  3.000000 -3.000000 0.000000 
vertex  2.500000 -2.500000 0.000000 
vertex  3.000000 -2.500000 0.000000 
endloop 
endfacet 
facet normal  0.000000 0.000000 -1.000000 
outer loop 
vertex  3.000000 2.500000 0.000000 
vertex  2.500000 2.500000 0.000000 
vertex  3.000000 3.000000 0.000000 
endloop 
endfacet 
endsolid Cuerno_21_Bendfacet 
