solid Esferita
facet normal 0.102381 -0.315090 -0.943523
outer loop
vertex 0.000000 0.000000 0.200000
vertex 0.127597 -0.092703 0.244804
vertex -0.048737 -0.149999 0.244804
endloop
endfacet
facet normal 0.700224 -0.268032 -0.661699
outer loop
vertex 0.217082 -0.157718 0.365834
vertex 0.127597 -0.092703 0.244804
vertex 0.255194 0.000000 0.342279
endloop
endfacet
facet normal -0.268034 -0.194737 -0.943523
outer loop
vertex 0.000000 0.000000 0.200000
vertex -0.048737 -0.149999 0.244804
vertex -0.157719 0.000000 0.244804
endloop
endfacet
facet normal -0.268034 0.194737 -0.943523
outer loop
vertex 0.000000 0.000000 0.200000
vertex -0.157719 0.000000 0.244804
vertex -0.048737 0.149999 0.244804
endloop
endfacet
facet normal 0.102381 0.315090 -0.943523
outer loop
vertex 0.000000 0.000000 0.200000
vertex -0.048737 0.149999 0.244804
vertex 0.127597 0.092703 0.244804
endloop
endfacet
facet normal 0.904989 -0.268031 -0.330385
outer loop
vertex 0.217082 -0.157718 0.365834
vertex 0.255194 0.000000 0.342279
vertex 0.285317 -0.092704 0.500000
endloop
endfacet
facet normal 0.024747 -0.943521 -0.330386
outer loop
vertex -0.082916 -0.255195 0.365834
vertex 0.078861 -0.242703 0.342279
vertex 0.000000 -0.300000 0.500000
endloop
endfacet
facet normal -0.889697 -0.315095 -0.330385
outer loop
vertex -0.268328 0.000000 0.365835
vertex -0.206457 -0.149999 0.342279
vertex -0.285317 -0.092704 0.500000
endloop
endfacet
facet normal -0.574602 0.748784 -0.330388
outer loop
vertex -0.082916 0.255195 0.365834
vertex -0.206457 0.149999 0.342279
vertex -0.176336 0.242705 0.500000
endloop
endfacet
facet normal 0.534576 0.777865 -0.330387
outer loop
vertex 0.217082 0.157718 0.365834
vertex 0.078861 0.242703 0.342279
vertex 0.176336 0.242705 0.500000
endloop
endfacet
facet normal 0.802609 -0.583126 -0.125627
outer loop
vertex 0.217082 -0.157718 0.365834
vertex 0.285317 -0.092704 0.500000
vertex 0.176336 -0.242705 0.500000
endloop
endfacet
facet normal -0.306569 -0.943522 -0.125629
outer loop
vertex -0.082916 -0.255195 0.365834
vertex 0.000000 -0.300000 0.500000
vertex -0.176336 -0.242705 0.500000
endloop
endfacet
facet normal -0.992077 -0.000000 -0.125628
outer loop
vertex -0.268328 0.000000 0.365835
vertex -0.285317 -0.092704 0.500000
vertex -0.285317 0.092704 0.500000
endloop
endfacet
facet normal -0.306569 0.943522 -0.125629
outer loop
vertex -0.082916 0.255195 0.365834
vertex -0.176336 0.242705 0.500000
vertex 0.000000 0.300000 0.500000
endloop
endfacet
facet normal 0.802609 0.583126 -0.125627
outer loop
vertex 0.217082 0.157718 0.365834
vertex 0.176336 0.242705 0.500000
vertex 0.285317 0.092704 0.500000
endloop
endfacet
facet normal 0.408946 -0.628425 0.661698
outer loop
vertex 0.082916 -0.255195 0.634166
vertex 0.206457 -0.149999 0.657721
vertex 0.048737 -0.149999 0.755196
endloop
endfacet
facet normal -0.471299 -0.583122 0.661699
outer loop
vertex -0.217082 -0.157718 0.634166
vertex -0.078861 -0.242703 0.657721
vertex -0.127597 -0.092703 0.755196
endloop
endfacet
facet normal -0.700224 0.268032 0.661699
outer loop
vertex -0.217082 0.157718 0.634166
vertex -0.255194 0.000000 0.657721
vertex -0.127597 0.092703 0.755196
endloop
endfacet
facet normal 0.038530 0.748779 0.661699
outer loop
vertex 0.082916 0.255195 0.634166
vertex -0.078861 0.242703 0.657721
vertex 0.048737 0.149999 0.755196
endloop
endfacet
facet normal 0.724042 0.194736 0.661695
outer loop
vertex 0.268328 0.000000 0.634165
vertex 0.206457 0.149999 0.657721
vertex 0.157719 0.000000 0.755195
endloop
endfacet
facet normal 0.268034 0.194736 0.943523
outer loop
vertex 0.157719 0.000000 0.755195
vertex 0.048737 0.149999 0.755196
vertex 0.000000 0.000000 0.800000
endloop
endfacet
facet normal 0.491119 0.356821 0.794657
outer loop
vertex 0.157719 0.000000 0.755195
vertex 0.206457 0.149999 0.657721
vertex 0.048737 0.149999 0.755196
endloop
endfacet
facet normal 0.408946 0.628425 0.661698
outer loop
vertex 0.206457 0.149999 0.657721
vertex 0.082916 0.255195 0.634166
vertex 0.048737 0.149999 0.755196
endloop
endfacet
facet normal -0.102381 0.315090 0.943523
outer loop
vertex 0.048737 0.149999 0.755196
vertex -0.127597 0.092703 0.755196
vertex 0.000000 0.000000 0.800000
endloop
endfacet
facet normal -0.187594 0.577346 0.794658
outer loop
vertex 0.048737 0.149999 0.755196
vertex -0.078861 0.242703 0.657721
vertex -0.127597 0.092703 0.755196
endloop
endfacet
facet normal -0.471300 0.583122 0.661699
outer loop
vertex -0.078861 0.242703 0.657721
vertex -0.217082 0.157718 0.634166
vertex -0.127597 0.092703 0.755196
endloop
endfacet
facet normal -0.331304 0.000000 0.943524
outer loop
vertex -0.127597 0.092703 0.755196
vertex -0.127597 -0.092703 0.755196
vertex 0.000000 0.000000 0.800000
endloop
endfacet
facet normal -0.607060 0.000000 0.794656
outer loop
vertex -0.127597 0.092703 0.755196
vertex -0.255194 0.000000 0.657721
vertex -0.127597 -0.092703 0.755196
endloop
endfacet
facet normal -0.700224 -0.268032 0.661699
outer loop
vertex -0.255194 0.000000 0.657721
vertex -0.217082 -0.157718 0.634166
vertex -0.127597 -0.092703 0.755196
endloop
endfacet
facet normal -0.102381 -0.315090 0.943523
outer loop
vertex -0.127597 -0.092703 0.755196
vertex 0.048737 -0.149999 0.755196
vertex 0.000000 0.000000 0.800000
endloop
endfacet
facet normal -0.187594 -0.577346 0.794658
outer loop
vertex -0.127597 -0.092703 0.755196
vertex -0.078861 -0.242703 0.657721
vertex 0.048737 -0.149999 0.755196
endloop
endfacet
facet normal 0.038530 -0.748779 0.661699
outer loop
vertex -0.078861 -0.242703 0.657721
vertex 0.082916 -0.255195 0.634166
vertex 0.048737 -0.149999 0.755196
endloop
endfacet
facet normal 0.268034 -0.194736 0.943523
outer loop
vertex 0.048737 -0.149999 0.755196
vertex 0.157719 0.000000 0.755195
vertex 0.000000 0.000000 0.800000
endloop
endfacet
facet normal 0.491119 -0.356821 0.794657
outer loop
vertex 0.048737 -0.149999 0.755196
vertex 0.206457 -0.149999 0.657721
vertex 0.157719 0.000000 0.755195
endloop
endfacet
facet normal 0.724042 -0.194736 0.661695
outer loop
vertex 0.206457 -0.149999 0.657721
vertex 0.268328 0.000000 0.634165
vertex 0.157719 0.000000 0.755195
endloop
endfacet
facet normal 0.889697 0.315095 0.330385
outer loop
vertex 0.285317 0.092704 0.500000
vertex 0.206457 0.149999 0.657721
vertex 0.268328 0.000000 0.634165
endloop
endfacet
facet normal 0.794656 0.577348 0.187595
outer loop
vertex 0.285317 0.092704 0.500000
vertex 0.176336 0.242705 0.500000
vertex 0.206457 0.149999 0.657721
endloop
endfacet
facet normal 0.574602 0.748783 0.330388
outer loop
vertex 0.176336 0.242705 0.500000
vertex 0.082916 0.255195 0.634166
vertex 0.206457 0.149999 0.657721
endloop
endfacet
facet normal -0.024747 0.943521 0.330386
outer loop
vertex 0.000000 0.300000 0.500000
vertex -0.078861 0.242703 0.657721
vertex 0.082916 0.255195 0.634166
endloop
endfacet
facet normal -0.303531 0.934171 0.187597
outer loop
vertex 0.000000 0.300000 0.500000
vertex -0.176336 0.242705 0.500000
vertex -0.078861 0.242703 0.657721
endloop
endfacet
facet normal -0.534576 0.777865 0.330387
outer loop
vertex -0.176336 0.242705 0.500000
vertex -0.217082 0.157718 0.634166
vertex -0.078861 0.242703 0.657721
endloop
endfacet
facet normal -0.904989 0.268031 0.330385
outer loop
vertex -0.285317 0.092704 0.500000
vertex -0.255194 0.000000 0.657721
vertex -0.217082 0.157718 0.634166
endloop
endfacet
facet normal -0.982246 0.000000 0.187598
outer loop
vertex -0.285317 0.092704 0.500000
vertex -0.285317 -0.092704 0.500000
vertex -0.255194 0.000000 0.657721
endloop
endfacet
facet normal -0.904989 -0.268031 0.330384
outer loop
vertex -0.285317 -0.092704 0.500000
vertex -0.217082 -0.157718 0.634166
vertex -0.255194 0.000000 0.657721
endloop
endfacet
facet normal -0.534576 -0.777865 0.330387
outer loop
vertex -0.176336 -0.242705 0.500000
vertex -0.078861 -0.242703 0.657721
vertex -0.217082 -0.157718 0.634166
endloop
endfacet
facet normal -0.303531 -0.934171 0.187597
outer loop
vertex -0.176336 -0.242705 0.500000
vertex 0.000000 -0.300000 0.500000
vertex -0.078861 -0.242703 0.657721
endloop
endfacet
facet normal -0.024747 -0.943521 0.330386
outer loop
vertex 0.000000 -0.300000 0.500000
vertex 0.082916 -0.255195 0.634166
vertex -0.078861 -0.242703 0.657721
endloop
endfacet
facet normal 0.574602 -0.748784 0.330388
outer loop
vertex 0.176336 -0.242705 0.500000
vertex 0.206457 -0.149999 0.657721
vertex 0.082916 -0.255195 0.634166
endloop
endfacet
facet normal 0.794656 -0.577348 0.187595
outer loop
vertex 0.176336 -0.242705 0.500000
vertex 0.285317 -0.092704 0.500000
vertex 0.206457 -0.149999 0.657721
endloop
endfacet
facet normal 0.889697 -0.315095 0.330385
outer loop
vertex 0.285317 -0.092704 0.500000
vertex 0.268328 0.000000 0.634165
vertex 0.206457 -0.149999 0.657721
endloop
endfacet
facet normal 0.306569 0.943522 0.125629
outer loop
vertex 0.176336 0.242705 0.500000
vertex 0.000000 0.300000 0.500000
vertex 0.082916 0.255195 0.634166
endloop
endfacet
facet normal 0.303531 0.934171 -0.187597
outer loop
vertex 0.176336 0.242705 0.500000
vertex 0.078861 0.242703 0.342279
vertex 0.000000 0.300000 0.500000
endloop
endfacet
facet normal 0.024747 0.943521 -0.330386
outer loop
vertex 0.078861 0.242703 0.342279
vertex -0.082916 0.255195 0.365834
vertex 0.000000 0.300000 0.500000
endloop
endfacet
facet normal -0.802609 0.583126 0.125627
outer loop
vertex -0.176336 0.242705 0.500000
vertex -0.285317 0.092704 0.500000
vertex -0.217082 0.157718 0.634166
endloop
endfacet
facet normal -0.794656 0.577348 -0.187595
outer loop
vertex -0.176336 0.242705 0.500000
vertex -0.206457 0.149999 0.342279
vertex -0.285317 0.092704 0.500000
endloop
endfacet
facet normal -0.889697 0.315095 -0.330385
outer loop
vertex -0.206457 0.149999 0.342279
vertex -0.268328 0.000000 0.365835
vertex -0.285317 0.092704 0.500000
endloop
endfacet
facet normal -0.802609 -0.583126 0.125627
outer loop
vertex -0.285317 -0.092704 0.500000
vertex -0.176336 -0.242705 0.500000
vertex -0.217082 -0.157718 0.634166
endloop
endfacet
facet normal -0.794656 -0.577348 -0.187595
outer loop
vertex -0.285317 -0.092704 0.500000
vertex -0.206457 -0.149999 0.342279
vertex -0.176336 -0.242705 0.500000
endloop
endfacet
facet normal -0.574602 -0.748783 -0.330388
outer loop
vertex -0.206457 -0.149999 0.342279
vertex -0.082916 -0.255195 0.365834
vertex -0.176336 -0.242705 0.500000
endloop
endfacet
facet normal 0.306569 -0.943522 0.125629
outer loop
vertex 0.000000 -0.300000 0.500000
vertex 0.176336 -0.242705 0.500000
vertex 0.082916 -0.255195 0.634166
endloop
endfacet
facet normal 0.303531 -0.934171 -0.187597
outer loop
vertex 0.000000 -0.300000 0.500000
vertex 0.078861 -0.242703 0.342279
vertex 0.176336 -0.242705 0.500000
endloop
endfacet
facet normal 0.534576 -0.777865 -0.330387
outer loop
vertex 0.078861 -0.242703 0.342279
vertex 0.217082 -0.157718 0.365834
vertex 0.176336 -0.242705 0.500000
endloop
endfacet
facet normal 0.992077 0.000000 0.125628
outer loop
vertex 0.285317 -0.092704 0.500000
vertex 0.285317 0.092704 0.500000
vertex 0.268328 0.000000 0.634165
endloop
endfacet
facet normal 0.982246 0.000000 -0.187599
outer loop
vertex 0.285317 -0.092704 0.500000
vertex 0.255194 0.000000 0.342279
vertex 0.285317 0.092704 0.500000
endloop
endfacet
facet normal 0.904989 0.268031 -0.330385
outer loop
vertex 0.255194 0.000000 0.342279
vertex 0.217082 0.157718 0.365834
vertex 0.285317 0.092704 0.500000
endloop
endfacet
facet normal 0.471299 0.583122 -0.661699
outer loop
vertex 0.127597 0.092703 0.244804
vertex 0.078861 0.242703 0.342279
vertex 0.217082 0.157718 0.365834
endloop
endfacet
facet normal 0.187594 0.577345 -0.794658
outer loop
vertex 0.127597 0.092703 0.244804
vertex -0.048737 0.149999 0.244804
vertex 0.078861 0.242703 0.342279
endloop
endfacet
facet normal -0.038530 0.748779 -0.661699
outer loop
vertex -0.048737 0.149999 0.244804
vertex -0.082916 0.255195 0.365834
vertex 0.078861 0.242703 0.342279
endloop
endfacet
facet normal -0.408946 0.628425 -0.661698
outer loop
vertex -0.048737 0.149999 0.244804
vertex -0.206457 0.149999 0.342279
vertex -0.082916 0.255195 0.365834
endloop
endfacet
facet normal -0.491119 0.356821 -0.794657
outer loop
vertex -0.048737 0.149999 0.244804
vertex -0.157719 0.000000 0.244804
vertex -0.206457 0.149999 0.342279
endloop
endfacet
facet normal -0.724042 0.194736 -0.661695
outer loop
vertex -0.157719 0.000000 0.244804
vertex -0.268328 0.000000 0.365835
vertex -0.206457 0.149999 0.342279
endloop
endfacet
facet normal -0.724042 -0.194736 -0.661695
outer loop
vertex -0.157719 0.000000 0.244804
vertex -0.206457 -0.149999 0.342279
vertex -0.268328 0.000000 0.365835
endloop
endfacet
facet normal -0.491119 -0.356821 -0.794657
outer loop
vertex -0.157719 0.000000 0.244804
vertex -0.048737 -0.149999 0.244804
vertex -0.206457 -0.149999 0.342279
endloop
endfacet
facet normal -0.408946 -0.628425 -0.661698
outer loop
vertex -0.048737 -0.149999 0.244804
vertex -0.082916 -0.255195 0.365834
vertex -0.206457 -0.149999 0.342279
endloop
endfacet
facet normal 0.700224 0.268032 -0.661699
outer loop
vertex 0.255194 0.000000 0.342279
vertex 0.127597 0.092703 0.244804
vertex 0.217082 0.157718 0.365834
endloop
endfacet
facet normal 0.607061 0.000000 -0.794656
outer loop
vertex 0.255194 0.000000 0.342279
vertex 0.127597 -0.092703 0.244804
vertex 0.127597 0.092703 0.244804
endloop
endfacet
facet normal 0.331304 0.000000 -0.943524
outer loop
vertex 0.127597 -0.092703 0.244804
vertex 0.000000 0.000000 0.200000
vertex 0.127597 0.092703 0.244804
endloop
endfacet
facet normal -0.038530 -0.748779 -0.661699
outer loop
vertex -0.048737 -0.149999 0.244804
vertex 0.078861 -0.242703 0.342279
vertex -0.082916 -0.255195 0.365834
endloop
endfacet
facet normal 0.187594 -0.577345 -0.794657
outer loop
vertex -0.048737 -0.149999 0.244804
vertex 0.127597 -0.092703 0.244804
vertex 0.078861 -0.242703 0.342279
endloop
endfacet
facet normal 0.471300 -0.583122 -0.661699
outer loop
vertex 0.127597 -0.092703 0.244804
vertex 0.217082 -0.157718 0.365834
vertex 0.078861 -0.242703 0.342279
endloop
endfacet
endsolid Exported from Blender-2.73 (sub 0)
