solid Exported from Blender-2.73 (sub 0)
facet normal 0.000000 0.000000 -1.000000
outer loop
vertex 0.100000 0.100000 0.200000
vertex 0.100000 -0.100000 0.200000
vertex -0.100000 -0.100000 0.200000
endloop
endfacet
facet normal -0.000000 0.000000 -1.000000
outer loop
vertex -0.100000 -0.100000 0.200000
vertex -0.100000 0.100000 0.200000
vertex 0.100000 0.100000 0.200000
endloop
endfacet
facet normal -0.000000 0.000000 1.000000
outer loop
vertex 0.100000 0.100000 0.400000
vertex -0.100000 0.100000 0.400000
vertex -0.100000 -0.100000 0.400000
endloop
endfacet
facet normal 0.000000 0.000000 1.000000
outer loop
vertex -0.100000 -0.100000 0.400000
vertex 0.100000 -0.100000 0.400000
vertex 0.100000 0.100000 0.400000
endloop
endfacet
facet normal 1.000000 -0.000001 -0.000000
outer loop
vertex 0.100000 0.100000 0.200000
vertex 0.100000 0.100000 0.400000
vertex 0.100000 -0.100000 0.400000
endloop
endfacet
facet normal 1.000000 0.000000 0.000000
outer loop
vertex 0.100000 -0.100000 0.400000
vertex 0.100000 -0.100000 0.200000
vertex 0.100000 0.100000 0.200000
endloop
endfacet
facet normal -0.000000 -1.000000 -0.000000
outer loop
vertex 0.100000 -0.100000 0.200000
vertex 0.100000 -0.100000 0.400000
vertex -0.100000 -0.100000 0.400000
endloop
endfacet
facet normal -0.000000 -1.000000 0.000000
outer loop
vertex -0.100000 -0.100000 0.400000
vertex -0.100000 -0.100000 0.200000
vertex 0.100000 -0.100000 0.200000
endloop
endfacet
facet normal -1.000000 0.000000 -0.000000
outer loop
vertex -0.100000 -0.100000 0.200000
vertex -0.100000 -0.100000 0.400000
vertex -0.100000 0.100000 0.400000
endloop
endfacet
facet normal -1.000000 0.000000 -0.000000
outer loop
vertex -0.100000 0.100000 0.400000
vertex -0.100000 0.100000 0.200000
vertex -0.100000 -0.100000 0.200000
endloop
endfacet
facet normal 0.000000 1.000000 0.000000
outer loop
vertex 0.100000 0.100000 0.400000
vertex 0.100000 0.100000 0.200000
vertex -0.100000 0.100000 0.200000
endloop
endfacet
facet normal 0.000000 1.000000 0.000000
outer loop
vertex -0.100000 0.100000 0.200000
vertex -0.100000 0.100000 0.400000
vertex 0.100000 0.100000 0.400000
endloop
endfacet
endsolid Exported from Blender-2.73 (sub 0)
