solid Exported from Blender-2.73 (sub 0)
facet normal -0.894427 0.000047 0.447214
outer loop
vertex -0.150000 -0.149977 0.300016
vertex -0.150000 0.150023 0.299984
vertex -0.300000 0.299992 -0.000031
endloop
endfacet
facet normal -0.894427 0.000047 0.447214
outer loop
vertex -0.300000 0.299992 -0.000031
vertex -0.300000 -0.300008 0.000031
vertex -0.150000 -0.149977 0.300016
endloop
endfacet
facet normal 0.000000 -0.894381 0.447307
outer loop
vertex -0.300000 -0.300008 0.000031
vertex 0.300000 -0.300008 0.000031
vertex 0.150000 -0.149977 0.300016
endloop
endfacet
facet normal 0.000000 -0.894381 0.447307
outer loop
vertex 0.150000 -0.149977 0.300016
vertex -0.150000 -0.149977 0.300016
vertex -0.300000 -0.300008 0.000031
endloop
endfacet
facet normal 0.894427 0.000047 0.447214
outer loop
vertex 0.300000 -0.300008 0.000031
vertex 0.300000 0.299992 -0.000031
vertex 0.150000 0.150023 0.299984
endloop
endfacet
facet normal 0.894427 0.000047 0.447214
outer loop
vertex 0.150000 0.150023 0.299984
vertex 0.150000 -0.149977 0.300016
vertex 0.300000 -0.300008 0.000031
endloop
endfacet
facet normal 0.000000 0.894474 0.447120
outer loop
vertex -0.150000 0.150023 0.299984
vertex 0.150000 0.150023 0.299984
vertex 0.300000 0.299992 -0.000031
endloop
endfacet
facet normal -0.000000 0.894474 0.447120
outer loop
vertex 0.300000 0.299992 -0.000031
vertex -0.300000 0.299992 -0.000031
vertex -0.150000 0.150023 0.299984
endloop
endfacet
facet normal 0.000000 0.000104 1.000000
outer loop
vertex -0.150000 0.150023 0.299984
vertex -0.150000 -0.149977 0.300016
vertex 0.150000 -0.149977 0.300016
endloop
endfacet
facet normal -0.000000 0.000104 1.000000
outer loop
vertex 0.150000 -0.149977 0.300016
vertex 0.150000 0.150023 0.299984
vertex -0.150000 0.150023 0.299984
endloop
endfacet
endsolid Exported from Blender-2.73 (sub 0)
